<?xml version="1.0" encoding="iso-8859-1"?>
<!-- Generator: Adobe Illustrator 21.1.0, SVG Export Plug-In . SVG Version: 6.00 Build 0)  -->
<svg version="1.1" id="_x31_2" xmlns="http://www.w3.org/2000/svg" xmlns:xlink="http://www.w3.org/1999/xlink" x="0px" y="0px"
	 viewBox="0 0 512 512" style="enable-background:new 0 0 512 512;" xml:space="preserve">
<g>
	<path style="fill:#FFFFFF;" d="M305.651,101.945c0,0-5.85-26.326-7.8-41.926c-1.95-15.6,5.85-34.126,11.7-40.951
		c5.85-6.825,12.675-1.95,12.675-1.95s-0.975-4.875,2.925-5.85c3.9-0.975,5.85,2.925,5.85,2.925s10.309,20.709,7.8,35.101
		c-2.508,14.392-6.295,21.971-6.825,30.226c-0.531,8.255-3.9,25.351-3.9,25.351s7.8-35.101,21.451-48.751
		s29.251-24.376,29.251-24.376s22.426,4.875,19.501,19.501s-6.825,22.426-21.451,36.076c-14.625,13.65-28.276,17.55-25.351,28.276
		c2.925,10.725,7.625,10.795,18.525,24.376c10.9,13.581,23.401,27.301,33.151,51.676c9.75,24.376,10.725,53.627,14.625,72.152
		c3.9,18.526,6.825,40.951,22.426,48.751c3.9,6.825-13.65,0.975-13.65,0.975s15.235,11.442,9.75,11.7
		c-5.485,0.258-11.7-0.975-7.8,0.975c3.9,1.95-3.9,5.85,6.825,21.451c10.725,15.6,17.551,20.476,17.551,20.476
		s-14.625-1.95-11.7,1.95c2.925,3.9,14.626,23.401,26.326,30.226c11.7,6.825,1.95,10.725,1.95,10.725s0,2.925,5.85,9.75
		c5.85,6.825,20.476,39.976,3.9,61.427c-16.575,21.451-22.426,19.5-28.276,21.451c-5.85,1.95-11.7-0.975-11.7-0.975
		s-7.8,3.9-13.65,0c-12.612,1.204-20.476-0.975-9.75-10.725c10.725-9.75,14.625-10.725,31.201-14.625
		c16.576-3.9,18.27-21.925,11.7-34.126c-6.825-12.675-49.726-33.151-65.327-48.751c-15.6-15.6-33.151-47.776-33.151-47.776
		s-13.65,0-13.65,11.7c0,11.7,0.975,26.326,0.975,26.326s-8.775-2.925-6.825,0.975c1.95,3.9,4.875,22.426,6.825,27.301
		c1.95,4.875-5.85,2.925-3.9,6.825c1.95,3.9-0.975,18.525,5.85,29.251s10.725,29.251-12.675,36.076
		c-23.401,6.825-34.934,5.171-40.951,8.775c-6.018,3.604-14.625,0.975-14.625,0.975H268.6c0,0-12.675,0-8.775-6.825
		c3.9-6.825,0.975-11.7,15.6-13.65c14.625-1.95,29.251-3.9,37.051-12.675c7.8-8.775,9.75-19.501,1.95-28.276
		c-7.8-8.775-28.276-34.126-26.326-49.727c1.95-15.6,9.75-30.226,12.675-42.901c2.925-12.675,18.838-24.673,22.426-29.251
		c3.587-4.578,16.575-52.651-5.85-78.002c-7.8,14.625-63.377,50.702-68.252,56.552c-4.875,5.85-13.937,13.933-20.476,14.625
		c-6.539,0.692-8.775-2.925-8.775-2.925s-2.315,3.793-9.75,1.95c-7.435-1.843-14.927-11.407-9.75-19.5
		c5.177-8.093,22.426-11.7,38.026-15.6c15.6-3.9,18.526-11.7,28.276-20.476c9.75-8.775,36.076-40.951,44.851-54.601
		c8.775-13.65,1.95-16.576,1.95-16.576s-19.501-12.675-23.401-17.551c-3.9-4.875-17.551-9.75-10.725-25.351
		c6.825-15.601,17.551-24.376,17.551-24.376L305.651,101.945z"/>
	<path style="fill:#FFFFFF;" d="M102.845,389.922c6.825-2.925,10.725-14.969,10.725-14.969s0,2.925-10.725-4.875
		c-10.725-7.8-18.525-12.675-14.625-26.326c3.9-13.65,13.65-16.576,17.55-18.525c3.9-1.95,2.925-4.875,0-8.775
		c-2.925-3.9-13.65-17.551-13.65-30.226c0-12.675,0-24.376,10.725-25.351s12.675,9.75,16.575,16.576
		c3.9,6.825,5.85,35.101,5.85,35.101s4.875-14.625,6.825-19.501c1.95-4.875,7.8-12.675,20.476-19.501
		c12.675-6.825,15.6,2.925,11.7,16.576c-3.9,13.65-16.576,32.176-16.576,32.176s-6.858,3.153-2.925,5.85
		c3.933,2.697,9.073,7.651,16.576,24.376c7.503,16.724,11.7,33.151,8.775,36.076C167.197,391.529,102.845,389.922,102.845,389.922z"
		/>
	<path style="fill:#FF5850;" d="M26.793,392.504c0.975,13.65,2.925,57.527,39.976,75.077c37.051,17.55,61.427,6.825,74.102,2.925
		c12.675-3.9,26.326-18.525,36.076-34.126c9.75-15.6,12.675-37.051,4.875-44.851c-6.825-1.95-105.303-1.95-105.303-1.95
		L26.793,392.504z"/>
	<path style="fill:#595757;" d="M65.794,507.557c-14.607,1.217-18.526-12.675-12.675-22.426c5.85-9.75,16.576-8.775,24.376-5.85
		c7.8,2.925,8.775,11.7,6.825,18.526C82.369,504.632,77.494,506.582,65.794,507.557z"/>
	<path style="fill:#595757;" d="M136.971,504.632c-7.233-4.133-6.825-20.476,5.85-26.326c12.675-5.85,12.36-1.701,17.551,3.9
		s6.825,13.65-0.975,20.476C151.596,509.507,143.796,508.532,136.971,504.632z"/>
	<path style="fill:#888888;" d="M144.771,494.882c-3.826,0.348-3.9-8.775,1.95-8.775
		C152.572,486.106,155.497,493.907,144.771,494.882z"/>
	<path style="fill:#888888;" d="M65.794,497.807c-4.071,1.018-7.8-4.875-2.925-8.775c4.875-3.9,6.825,0,9.75,2.925
		C75.544,494.882,69.694,496.832,65.794,497.807z"/>
	<g>
		<path style="fill:#231815;" d="M293.501,117.543c-5.839,4.947-11.031,11.645-12.679,19.257c-0.743,3.431-0.591,6.879,0.268,10.265
			c0.598,2.357,4.33,8.064,3.773,10.18c0.024-0.091-5.801-5.04-6.367-5.895c-1.827-2.762-2.532-5.97-2.776-9.228
			c-0.502-6.682,1.672-14.422,5.938-19.619c3.65-4.446,8.372-9.703,13.475-12.379C303.484,105.747,295.479,114.321,293.501,117.543z
			"/>
		<path style="fill:#231815;" d="M295.112,160.276c4.255,3.861,9.019,7.123,13.507,10.698c1.982,1.578,4.033,3.16,5.775,5.008
			c0.334,0.354,2.729,3.779,2.557,3.685c-1.088-0.623-3.028-0.355-4.24-0.733c-2.915-0.91-5.26-3.025-7.744-4.706
			c-2.519-1.704-5.26-3.087-7.556-5.023c-2.329-1.964-7.637-5.523-8.593-8.337C287.412,156.73,292.673,159.66,295.112,160.276z"/>
		<path style="fill:#231815;" d="M331.446,87.775c6.675-18.224,14.261-33.959,28.466-47.575c6.544-6.273,13.87-12.354,22.207-16.084
			c3.341-1.494,6.954-2.711,10.651-2.66c2.033,0.028,4.004,0.317,5.77,1.399c0.199,0.122,2.514,2.094,2.294,2.165
			c-0.481,0.156-3.793-1.58-4.67-1.655c-2.556-0.218-5.195,0.771-7.504,1.754c-4.958,2.112-9.544,5.315-13.841,8.524
			c-9.518,7.109-18.776,16.119-24.863,26.405c-3.795,6.413-7.514,12.723-10.268,19.672c-2.207,5.568-3.962,11.301-6.115,16.889
			c-0.726,1.885-3.701,11.899-6.449,12.277C327.771,108.799,331.016,89.901,331.446,87.775z"/>
		<path style="fill:#231815;" d="M402.106,53.707c-6.655,16.15-17.843,29.592-30.871,40.992
			c-5.953,5.209-12.091,10.22-17.336,16.172c-1.703,1.933-9.127,9.39-9.129,11.803c0.007-7.672,8.05-17.182,12.993-22.126
			c7.691-7.693,16.415-14.212,23.15-22.848c5.161-6.618,10.583-13.132,14.297-20.716c0.505-1.031,7.739-22.902,5.475-22.98
			C405.427,34.168,402.594,51.54,402.106,53.707z"/>
		<path style="fill:#231815;" d="M299.283,84.011c-1.954-7.567-4.79-14.974-5.206-22.857c-0.484-9.175,2.273-18.565,5.474-27.061
			c2.963-7.863,6.784-15.499,11.882-22.206c1.955-2.572,4.079-5.016,6.511-7.15c0.35-0.307,7.589-5.22,7.625-4.698
			c0.069,1.015-6.518,7.404-7.437,8.758c-3.165,4.664-6.09,9.559-8.664,14.572c-4.647,9.051-8.358,19.094-9.468,29.267
			c-0.77,7.06-0.513,13.571,1.276,20.439c1.443,5.542,3.547,10.909,4.454,16.586c0.154,0.964,0.201,13.841-1.255,12.944
			c-1.142-0.704-1.452-8.519-1.876-9.99C301.745,89.661,300.579,86.796,299.283,84.011z"/>
		<path style="fill:#231815;" d="M337.891,21.092c1.086,9.831,2.827,19.693,1.778,29.613c-0.472,4.466-1.446,8.9-3.375,12.98
			c-1.021,2.159-4.796,9.33-7.726,9.241c1.582,0.048,5.395-16.335,5.671-17.851c1.364-7.504,0.067-14.91-0.163-22.418
			c-0.119-3.887-0.774-7.681-1.255-11.529c-0.282-2.256-1.566-7.458-0.303-9.505C334.69,8.1,336.98,18.873,337.891,21.092z"/>
		<path style="fill:#231815;" d="M362.644,127.637c1.955,2.248,21.406,23.981,18.259,25.915
			c-2.807,1.725-15.41-14.376-17.249-16.658c-1.996-2.477-6.139-5.985-7.133-8.879C354.714,122.752,359.364,126.186,362.644,127.637
			z"/>
		<path style="fill:#231815;" d="M324.869,244.732c5.797,13.918,7.284,27.945,5.453,42.885c-0.797,6.51-1.949,13.014-3.534,19.38
			c-0.165,0.665-2.348,6.391-2.197,6.61c-1.509-2.183-0.25-10.514-0.099-12.956c0.556-9.012,2.353-17.818,1.921-26.899
			c-0.312-6.552-1.089-13.751-3.037-20.031c-1.219-3.928-2.994-7.673-4.681-11.413c-0.909-2.015-4.064-6.855-3.406-9.223
			C315.247,233.245,323.77,243.042,324.869,244.732z"/>
		<path style="fill:#231815;" d="M403.189,184.016c8.233,22.617,15.039,46.848,17.519,70.796c1.225,11.83,2.062,24.092,5.982,35.409
			c1.587,4.582,3.73,9.05,6.891,12.767c0.792,0.931,8.571,8.543,9.486,7.85c-0.786,0.595-6.257-2.255-6.919-2.595
			c-3.22-1.65-6.046-3.908-8.395-6.656c-5.096-5.961-7.682-13.59-9.337-21.134c-3.622-16.506-3.227-33.801-8.577-49.919
			c-4.066-12.25-5.866-25.086-9.955-37.366c-2.504-7.521-5.376-14.999-9.23-21.944c-0.453-0.816-6.491-10.354-6.384-10.399
			c2.867-1.223,9.366,7.958,10.677,9.715C398.085,174.746,400.827,179.331,403.189,184.016z"/>
		<path style="fill:#231815;" d="M422.689,305.207c2.766,2.682,6.331,4.489,9.761,6.154c2.482,1.205,6.455,2.02,8.391,4.059
			c1.118,1.177-8.599-0.028-8.617-0.034c-2.583-0.885-5.387-1.857-7.663-3.319c-1.384-0.889-7.28-5.219-6.983-7.248
			C417.899,302.625,421.132,304.867,422.689,305.207z"/>
		<path style="fill:#231815;" d="M426.399,317.367c2.423,2.371,9.939,5.088,11.167,8.065c1.37,3.32-5.173,0.75-6.746,0.053
			c-2.535-1.122-3.946-2.069-5.785-4.034C421.55,317.727,421.519,317.008,426.399,317.367z"/>
		<path style="fill:#231815;" d="M317.553,317.926c-3.671,7.674-6.136,15.835-9.509,23.633c-3.44,7.954-8.089,15.181-10.771,23.471
			c-5.526,17.082-2.935,33.321,6.107,48.561c6.884,11.601,22.715,28.561,16.186,43.178c-6.934,15.524-28.313,15.793-42.321,18.687
			c-7.043,1.455-12.074,4.206-14.418,11.346c-0.395,1.202-0.832,7.188-3.025,7.019c-2.822-0.218-0.765-9.04-0.293-10.296
			c5.652-15.028,26.568-12.191,38.867-16.551c5.645-2.001,12.372-4.956,15.85-10.132c3.758-5.592,1.901-12.715-0.573-18.475
			c-6.919-16.114-21.157-27.577-24.989-45.307c-3.187-14.747,1.008-31.151,6.368-44.869c3.363-8.607,7.262-17.916,12.783-25.388
			c1.594-2.158,6.345-9.293,9.034-9.778C320.112,312.435,318.732,315.551,317.553,317.926z"/>
		<path style="fill:#231815;" d="M269.104,489.603c-2.162,6.202,1.194,3.647,2.858,6.905c0.329,0.645-4.734,1.639-5.375,1.138
			c-1.235-0.964-1.438-6.807-1.16-8.107C266.569,484.194,274.948,486.682,269.104,489.603z"/>
		<path style="fill:#231815;" d="M279.672,490.09c-0.431,2.273,9.058,12.547,0.176,7.278c-2.314-1.373-4.135-4.059-3.526-6.86
			C276.892,487.881,278.781,486.395,279.672,490.09z"/>
		<path style="fill:#231815;" d="M351.716,355.012c-3.79,5.697-3.448,13.602-2.977,20.118c0.053,0.74,0.906,12.464,0.829,12.451
			c-2.239-0.376-3.783-7.352-4.141-9.187c-0.83-4.251-1.518-9.701-1.089-14.074c0.332-3.392,1.619-7.154,3.26-10.143
			c0.442-0.806,5.964-8.197,7.029-5.81C354.941,349.07,352.005,353.617,351.716,355.012z"/>
		<path style="fill:#231815;" d="M342.331,391.665c0.309,2.957,10.35,28.021,9.207,28.345c-2.877,0.817-9.875-15.509-10.773-17.79
			c-0.713-1.812-3.624-17.969-0.704-16.59C340.802,385.98,341.676,390.546,342.331,391.665z"/>
		<path style="fill:#231815;" d="M342.922,429.359c3.774,14.014,14.478,37.342,2.182,49.736c-5.068,5.108-12.647,7.773-19.589,9.046
			c-5.773,1.059-13.227,0.022-18.583,2.182c0.096-0.039,0.568,0.004,0.656,0.071c-1.068-0.811-8.431,1.989-9.654,2.42
			c-2.948,1.04-5.86,2.402-8.052,4.697c3.274-0.672,6.393-0.245,9.664-0.51c3.163-0.256,6.337-1.281,9.486-1.934
			c5.655-1.173,11.322-2.281,16.996-3.348c11.725-2.204,23.292-7.373,27.627-19.339c4.431-12.233-0.282-24.498-4.636-35.926
			c-1.089-2.86-2.165-5.728-3.01-8.672c-0.444-1.546-0.872-7.138-2.196-8.386C340.48,416.255,342.502,427.79,342.922,429.359z"/>
		<path style="fill:#231815;" d="M360.668,352.142c6.828,15.006,17.291,29.099,29.107,40.558
			c12.219,11.849,26.783,20.629,40.81,30.107c10.758,7.269,31.697,19.421,30.992,34.665c-0.616,13.319-18.864,20.072-29.996,21.503
			c0.375-0.078,0.751-0.153,1.128-0.224c-6.491,0.817-17.181,6.177-21.338,11.349c-1.221,1.519-5.214,15.204,0.381,12.37
			c0.023,0.034,1.095,1.167,1.216,1.415c-13.644-12.723,34.386-23.943,40.85-28.479c7.182-5.04,12.845-13.407,10.955-22.46
			c-2.429-11.631-13.805-20.409-22.885-26.941c-18.181-13.078-36.635-25.087-52.454-41.127c-7.946-8.057-15.445-16.82-21.428-26.451
			c-2.948-4.745-5.602-9.788-7.036-15.217c-0.531-2.011,0.053-11.373-1.087-12.588c-1.047-1.116-2.654,7.379-2.658,7.527
			C357.101,342.932,358.731,347.845,360.668,352.142z"/>
		<path style="fill:#231815;" d="M426.582,499.166c-1.478,1.327,2.23,2.003,2.409,3.353c0.332,2.507-4.903,0.146-5.415-0.494
			c-1.045-1.307-1.537-3.428,0.401-4.711C425.184,496.515,427.989,497.818,426.582,499.166z"/>
		<path style="fill:#231815;" d="M437.043,499.145c-0.02,4.236,8.127,0.907,8.802,3.545c0.53,2.07-5.78,1.979-6.502,1.911
			c-2.606-0.247-4.867-1.211-5.407-4.165C433.326,497.108,435.508,495.743,437.043,499.145z"/>
		<path style="fill:#231815;" d="M432.734,337.618c3.304,6.963,8.309,13.262,13.599,18.81c2.415,2.533,4.96,4.973,7.761,7.077
			c1.057,0.794,5.144,2.601,5.757,3.679c-0.078-0.138-3.718-0.047-4.037-0.103c-2.087-0.367-3.97-1.259-5.743-2.401
			c-4.617-2.975-8.572-7.513-12.227-11.56c-2.02-2.237-13.64-22.4-10.786-22.638C427.982,330.405,432.016,336.827,432.734,337.618z"
			/>
		<path style="fill:#231815;" d="M449.59,375.911c6.792,10.829,15.223,19.093,24.02,28.06c-0.178-0.182-4.047-0.326-4.926-0.664
			c-2.721-1.048-4.853-3.195-6.87-5.214c-3.177-3.181-6.729-6.636-9.395-10.271c-1.502-2.048-10.952-16.561-9.473-17.262
			C443.87,370.121,448.67,375.134,449.59,375.911z"/>
		<path style="fill:#231815;" d="M470.238,412.73c17.915,11.656,22.133,39.337,17.834,58.613
			c-4.227,18.951-21.468,30.178-38.028,37.873c-0.296-0.277,20.928-18.473,23.44-20.924c8.155-7.955,12.666-17.54,12.398-28.974
			c-0.236-10.063-2.337-19.412-7.54-28.077c-2.876-4.79-7.244-8.768-9.579-13.857C467.958,415.63,466.325,409.638,470.238,412.73z"
			/>
		<path style="fill:#231815;" d="M325.665,177.691c-6.053,9.245-11.264,18.883-17.861,27.805
			c-8.948,12.1-18.943,23.351-29.191,34.356c-9.224,9.905-18.495,20.319-30.289,27.239c-10.836,6.358-22.805,7.468-34.387,11.654
			c-4.744,1.714-8.772,3.776-10.898,8.485c-0.7,1.549-0.495,3.805-2.118,4.839c-2.601,1.658-4.398-0.122-4.991-2.418
			c-1.532-5.938,5.111-11.336,9.595-13.469c6.506-3.095,13.971-3.706,20.969-4.96c28.228-5.06,48.068-32.771,65-53.774
			c9.612-11.924,18.578-24.548,25.351-38.328c1.393-2.835,2.927-9.73,6.245-10.722C328.535,166.769,327.431,175.061,325.665,177.691
			z"/>
		<path style="fill:#231815;" d="M337.649,203.547c-2.383,9.59-4.482,16.153-11.042,23.725c-7.145,8.247-14.311,16.31-22.403,23.653
			c-14.398,13.065-29.898,24.462-46.428,34.677c-2.559,1.581-6.511,5.532-9.533,5.957c-5.793,0.815,1.314-4.618,2.972-5.703
			c7.145-4.674,14.36-9.183,21.313-14.156c6.308-4.512,12.931-8.963,18.914-13.901c7.288-6.013,12.987-13.401,19.272-20.367
			c5.294-5.866,9.98-12.094,14.004-18.925c2.442-4.146,4.27-8.698,6.946-12.688C333.066,203.732,339.447,196.471,337.649,203.547z"
			/>
		<path style="fill:#231815;" d="M202.769,294.637c1.463,3.623,13.365,14.17,16.104,6.547c-1.371,3.553-1.294,6.23-6.25,5.895
			c-3.513-0.238-7.706-2.587-9.961-5.145c-1.685-1.913-5.588-7.25-4.356-9.717C199.824,289.177,200.787,293.203,202.769,294.637z"/>
		<path style="fill:#231815;" d="M219.54,295.636c0.414,2.686,2.73,5.673,5.223,6.717c1.492,0.624,6.47-0.685,6.666-0.529
			c0.959,0.765-1.451,3.713-1.851,4.011c-2.177,1.622-5.299,0.679-7.493-0.392c-3.515-1.715-5.755-4.972-6.37-8.87
			c-0.112-0.709-0.562-4.976,1.49-4.584C217.726,292.089,218.844,295.014,219.54,295.636z"/>
		<path style="fill:#231815;" d="M236.473,294.575c4.089-0.862,12.123-8.98,16.31-6.877c1.048,0.526-9.285,8.534-10.663,9.207
			c-1.552,0.759-5.734,2.482-7.302,1.678C231.968,297.12,235.246,296.193,236.473,294.575z"/>
		<path style="fill:#231815;" d="M22.375,388.634c6.363,5.39,11.611,5.449,18.834,3.71c7.479-1.801,16.552-0.025,24.246-0.552
			c7.254-0.497,14.261,1.027,21.431,0.571c7.145-0.455,14.308-0.163,21.461-0.555c13.309-0.73,26.698-1.135,40.027-1.25
			c1.964-0.017,35.864,2.199,36.578-1.841c0.202-1.145-72.12-2.227-80.057-1.642c-11.996,0.884-23.986-0.036-35.993-0.18
			c-8.228-0.099-16.429,0.296-24.651,0.458C37.242,387.489,29.049,386.245,22.375,388.634z"/>
		<path style="fill:#231815;" d="M30.477,404.698c4.756,21.607,12.021,43.522,30.772,56.981
			c16.237,11.655,37.628,16.637,57.344,13.485c20.401-3.262,39.26-14.258,51.767-30.791c6.474-8.558,10.554-19.331,12.578-29.807
			c0.958-4.957,1.52-10.057,1.167-15.107c-0.051-0.729-1.39-7.378-0.814-7.632c4.346-1.941,2.886,23.9,2.575,25.528
			c-1.902,9.945-5.705,20.061-11.717,28.276c-12.068,16.49-31.176,28.158-51.057,32.39c-20.161,4.292-41.64,1.577-59.647-8.642
			c-16.253-9.224-24.956-24.234-32.105-40.99c-3.689-8.647-8.454-16.982-7.21-26.603c0.135-1.04,0.379-7.424,2.331-7.457
			C28.949,394.286,30.194,403.339,30.477,404.698z"/>
		<path style="fill:#231815;" d="M179.045,381.979c1.841-14.206,7.273-27.648,11.189-41.317
			c2.894-10.097,5.257-20.131,10.909-29.069c1.054-1.667,4.2-4.844,1.508-7.01c-3.791-3.05-6.87,5.095-7.468,7.165
			c-2.519,8.718-6.165,17.101-8.533,25.988c-1.8,6.755-3.632,13.5-5.393,20.266c-1.578,6.062-3.449,11.431-5.788,17.23
			c-1.296,3.212-3.087,8.022,0.046,10.905C178.952,389.297,179.569,384.963,179.045,381.979z"/>
		<path style="fill:#231815;" d="M239.212,297.726c2.894,0.211,22.794-2.38,22.515,2.016c-0.064-0.075,0.137-0.543,0.051-0.621
			c-4.565,2.594-11.375,2.722-16.491,2.957c-2.289,0.105-7.194,0.324-9.121-0.785C232.626,299.255,236.974,298.826,239.212,297.726z
			"/>
		<path style="fill:#231815;" d="M61.71,504.042c-7.675-2.951-13.909-11.151-7.682-18.807c5.237-6.439,15.241-7.516,22.529-4.491
			c7.531,3.125,11.461,11.006,5.922,18.036c-2.562,3.251-6.595,5.183-10.506,6.234c-3.747,1.007-8.223-0.145-11.697,0.897
			c-2.696,0.808-4.437,3.177-1.64,5.201c3.092,2.238,9.401-0.315,12.376-1.51c6.937-2.788,14.559-5.634,17.216-13.35
			c7.198-20.902-25.467-25.796-36.246-13.243c-5.961,6.942-4.077,17.263,2.864,22.766c2.873,2.278,8.477,5.134,12.096,2.716
			C71.359,505.536,64.457,504.422,61.71,504.042z"/>
		<path style="fill:#231815;" d="M65.388,496.155c-4.885-1.496-3.343-6.849,1.194-7.36c3.368-0.379,7.236,2.232,5.09,5.741
			c-1.738,2.842-6.285,0.692-7.565,2.426c-3.074,4.162,5.377,1.569,6.735,0.659c8.097-5.42-0.356-14.203-7.477-9.425
			c-2.932,1.967-3.916,5.582-1.617,8.496C64.693,500.422,69.851,496.393,65.388,496.155z"/>
		<path style="fill:#231815;" d="M137.318,500.515c-6.355-8.865-1.349-21.876,9.549-23.766
			c11.305-1.961,18.363,10.004,13.147,19.672c-2.707,5.018-7.608,8.305-13.307,8.681c-4.095,0.27-7.016-1.998-10.742-2.523
			c-5.22-0.736-5.412,3.618-0.863,5.648c4.436,1.98,10.001,0.779,14.506-0.223c9.275-2.064,16.922-10.058,15.954-20.196
			c-0.938-9.831-10.161-15.979-19.68-13.849c-9.038,2.022-15.99,11.71-15.316,20.978c0.316,4.348,2.531,10.178,7.286,11.378
			C144.31,507.946,139.69,502.577,137.318,500.515z"/>
		<path style="fill:#231815;" d="M143.929,493.963c-2.495-2.986,0.331-8.139,4.285-7.25c3.434,0.772,3.724,5.311,1.26,7.395
			c-2.249,1.902-4.989-0.573-6.371,0.116c-4.51,2.249,1.653,3.338,3.762,2.85c7.745-1.792,8.098-13.826-0.548-11.909
			c-3.198,0.709-6.724,5.315-5.254,8.714C142.525,497.259,147.096,495.784,143.929,493.963z"/>
		<path style="fill:#231815;" d="M115.674,323.996c-9.785,6.702-26.918,9.668-27.104,24.812
			c-0.16,12.991,15.363,19.869,25.102,24.58c-0.126,3.393-18.766-5.079-20.769-6.976c-6.267-5.933-9.381-14.549-6.966-22.994
			c1.987-6.949,7.548-13.231,13.386-17.381c3.548-2.522,8.254-5.685,12.735-5.633C113.952,320.426,118.827,321.62,115.674,323.996z"
			/>
		<path style="fill:#231815;" d="M106.417,318.235c0.017-6.445-2.748-8.286-6.13-13.41c-3.993-6.05-6.244-12.543-6.813-19.76
			c-0.725-9.199,1.286-26.162,11.747-30.024c11.432-4.221,13.346,20.881,14.218,27.51c0.804,6.116,2.307,12.002,2.49,18.213
			c0.033,1.129-0.198,18.262,1.415,17.835c3.392-0.895,1.168-16.876,1.173-19.474c0.011-6.131-0.48-12.242-1.309-18.318
			c-1.298-9.513-4.86-35.883-20.106-29.992c-11.84,4.575-14.356,22.473-13.104,33.356
			C91.377,296.167,96.534,310.733,106.417,318.235z"/>
		<path style="fill:#231815;" d="M125.177,326.07c-3.967-14.832,2.006-32.212,9.973-44.718c4.263-6.691,9.793-12.892,16.787-16.786
			c3.324-1.85,6.938-3.231,10.751-3.587c1.538-0.143,7.163-0.609,8.2,0.522c1.966,2.146,0.667,13.224,0.421,16.02
			c-0.666,7.556-3.151,14.962-6.155,21.882c-6.205,14.289-16,25.739-27.129,36.465c0.183,0.079,19.088-32.993,20.968-36.692
			c3.923-7.723,6.51-15.975,7.452-24.594c0.496-4.533,2.572-9.839-3.19-9.272c-14.321,1.41-23.255,16.612-27.396,28.842
			c-2.709,8.001-3.28,16.07-4.692,24.317C130.806,320.577,126.305,334.698,125.177,326.07z"/>
		<path style="fill:#231815;" d="M155.796,336.162c3.993,7.175,8.02,14.462,10.667,22.264c1.174,3.461,2.239,7.146,2.387,10.825
			c0.018,0.437-0.358,4.166-0.465,4.06c-1.755-1.72-19.948-42.306-19.68-42.464C149.826,330.189,155.048,335.51,155.796,336.162z"/>
		<path style="fill:#231815;" d="M71.73,342.233c-4.834-3.695-10.588-5.711-16.251-7.737c-0.687-0.246-11.783-4.707-11.374-5.216
			c1.68-2.091,18.019,4.447,20.386,5.475c1.923,0.835,14.702,9.418,13.293,10.32C77.173,345.466,72.755,342.647,71.73,342.233z"/>
		<path style="fill:#231815;" d="M69.863,351.491c-6.363-0.735-12.713-1.579-19.092-2.167c-5.392-0.497-11.816,0.19-17.017-1.328
			c1.394,0.407,6.185-1.499,7.966-1.579c5.286-0.237,10.824,0.266,16.095,0.735c3.052,0.272,20.03,3.134,19.988,3.249
			C77.459,351.355,71.137,351.368,69.863,351.491z"/>
		<path style="fill:#231815;" d="M72.804,357.763c-2.168,0.437-28.643,8.089-28.557,8.71c-0.401-2.899,16.389-8.474,18.757-9.217
			c2.142-0.672,15.743-3.398,15.695-2.426C78.658,355.648,73.605,357.361,72.804,357.763z"/>
		<path style="fill:#231815;" d="M260.826,139.822c-11.16-4.608-21.527-7.117-33.469-7.716c0.999,0.05,2.993-1.218,4.23-1.425
			c2.727-0.456,5.439-0.099,8.135,0.357c3.967,0.671,8.064,1.607,11.872,2.906c2.673,0.911,16.535,7.625,16.749,7.389
			C267.648,142.101,261.944,140.074,260.826,139.822z"/>
		<path style="fill:#231815;" d="M259.301,148.075c-12.361-0.894-23.361,2.02-35.227,4.55c1.975-0.421,4.816-3.08,7.054-3.818
			c5.104-1.683,11.027-2.521,16.397-2.877c3.089-0.204,19.559,1.668,19.575,1.643C266.577,148.407,260.512,147.959,259.301,148.075z
			"/>
		<path style="fill:#231815;" d="M260.852,155.091c-7.278,1.635-14.388,4.624-20.945,8.136c-2.209,1.183-10.788,4.982-11.322,7.947
			c1.255-6.963,13.529-11.538,19.086-13.977c2.971-1.304,5.975-2.171,9.102-3.047c0.878-0.246,11.798-2.174,11.58-1.584
			C268.045,153.399,262.116,154.571,260.852,155.091z"/>
		<path style="fill:#231815;" d="M314.311,157.018c2.724,4.663,7.67,2.837,11.351,5.279c0.392,0.26-4.214,0.83-3.946,0.836
			c-1.713-0.041-4.408-0.742-5.903-1.668c-0.793-0.491-5.546-6.126-3.759-6.438C312.323,154.98,314.133,156.793,314.311,157.018z"/>
		<path style="fill:#231815;" d="M327.571,150.46c3.913,2.174,9.476,0.77,13.068,3.098c1.8,1.167-19.291-0.263-16.117-3.536
			C324.747,149.79,327.276,150.355,327.571,150.46z"/>
		<path style="fill:#231815;" d="M343.219,148.053c1.367,1.144,8.134,3.626,9.89,3.149c-2.703,0.165-4.866,1.49-7.935,0.345
			c-0.85-0.317-5.517-3.087-4.43-4.019C340.978,147.328,342.959,147.939,343.219,148.053z"/>
		<path style="fill:#231815;" d="M302.82,142.556c-2.855-2.025-4.748-5.832-3.589-8.953c1.167-3.141,4.527-5.389,7.732-4.513
			C315.912,131.534,311.395,143.815,302.82,142.556z"/>
		<path style="fill:#231815;" d="M279.815,139.59c1.338,0.728,6.75,2.753,8.298,2.229c-0.993,0.23-10.928,2.428-10.55-1.82
			C277.602,139.559,279.53,139.576,279.815,139.59z"/>
		<path style="fill:#231815;" d="M357.939,48.919c4.82-12.154,22.647-27.275,35.991-27.941c1.058-0.053,3.17-0.333,4.092,0.319
			c1.522,1.076,0.364,3.051,0.357,5.263c-0.016,5.236,1.764,10.31,2.055,15.52c0.614,10.967-6.168,16.769-12.495,24.567
			c-0.988-4.166-2.231-7.079-6.172-8.701c-3.815-1.57-3.778-1.632-3.308-6.282c-3.172-0.06-6.703,2.49-7.756-0.835
			c-0.689-2.174,1.293-5.375,2.33-7.121c-3.074-0.762-5.955,0.727-8.485,2.287c-1.417,0.873-5.795,2.997-6.393,4.32
			C358.394,49.786,358.964,49.218,357.939,48.919z"/>
		<path style="fill:#231815;" d="M303.484,37.63c2.318-11.41,8.804-19.745,15.774-28.695c2.892-3.713,5.894-10.498,10.905-5.758
			c4.088,3.867,5.005,12.137,5.93,17.279c0.979,5.444,1.307,11.043,2.5,16.44c-3.268-0.174-5.18-3.086-7.217-5.224
			c-0.982,1.364-2.908,3.772-4.74,3.667c-3.086-0.178-1.646-2.125-2.196-4.006c-1.46-4.989-7.594-4.941-11.176-1.224
			c-4.173-6.797-8.806,3.852-10.745,6.968C303.439,36.897,303.932,36.374,303.484,37.63z"/>
		<path style="fill:#231815;" d="M112.346,348.595c-6.52,2.173-4.261-10.798,2.629-8.765
			C120.442,341.443,117.259,348.517,112.346,348.595z"/>
		<path style="fill:#231815;" d="M97.293,350.365c-6.198-1.771-7.969,1.771-4.427,2.657
			C96.407,353.908,97.293,350.365,97.293,350.365z"/>
		<path style="fill:#231815;" d="M121.047,363.148c0.31,0.571,4.075,3.134,4.533,3.058c-1.689-0.124-3.544,1.092-5.192-0.715
			C119.119,364.1,118.524,362.065,121.047,363.148z"/>
		<path style="fill:#231815;" d="M130.091,360.106c0.629,0.579,5.436,2.05,6.08,1.694c-1.752,0.45-2.8,2.011-5.178,1.214
			c-0.783-0.262-3.335-1.811-2.768-2.827C128.396,359.882,129.819,360.053,130.091,360.106z"/>
		<path style="fill:#231815;" d="M141.503,355.07c2.546,1.322,3.615,2.507,5.401,4.044
			C146.675,358.949,136.009,355.882,141.503,355.07z"/>
		<path style="fill:#231815;" d="M119.766,376.318c-3.824,4.431-8.729,8.258-13.97,10.856c-0.682,0.338-11.204,4.501-11.416,2.665
			c0.109,0.944,27.275-19.75,26.53-20.143C121.98,370.259,120.114,375.294,119.766,376.318z"/>
		<path style="fill:#231815;" d="M91.641,281.349c2.087-7.352,2.247-13.657,6.222-20.457c2.251-3.851,6.258-11.297,11.812-8.895
			c7.963,3.442,8.655,19.362,10.521,26.494c-3.486-0.252-5.422-3.45-9.165-2.96c-2.292,0.3-3.774,1.378-6.369,1.233
			C98.976,276.446,96.585,279.157,91.641,281.349z"/>
		<path style="fill:#231815;" d="M137.473,281.349c5.566-7.224,14.251-13.217,23.181-15.263c1.309-0.3,6.598-1.658,7.714-0.609
			c0.576,0.542,0.292,2.869,0.307,3.691c0.075,4.175-0.721,8.478-1.63,12.534c-0.479,2.137-1.343,8.539-3.616,8.782
			c-2.551,0.273-4.217-4.085-6.565-4.945c-1.967-0.721-4.159,0.242-6.079-0.614c-1.419-0.633-1.656-1.931-2.796-2.742
			c-4.474-3.18-6.297,1.341-10.64,0.527C138.192,282.162,138.233,281.709,137.473,281.349z"/>
	</g>
</g>
</svg>
