<?xml version="1.0" encoding="iso-8859-1"?>
<!-- Generator: Adobe Illustrator 21.1.0, SVG Export Plug-In . SVG Version: 6.00 Build 0)  -->
<svg version="1.1" id="_x38_" xmlns="http://www.w3.org/2000/svg" xmlns:xlink="http://www.w3.org/1999/xlink" x="0px" y="0px"
	 viewBox="0 0 512 512" style="enable-background:new 0 0 512 512;" xml:space="preserve">
<g>
	<path style="fill:#FFFFFF;" d="M390.015,485.576c-8.516,0.655-18.997,5.896-18.997,5.896s-1.965-1.31,3.275-8.515
		c5.241-7.206,21.617-14.411,13.101-13.756c-8.516,0.654-18.997,9.826-18.997,9.826s-0.655-4.586,5.895-10.481
		c6.55-5.895,5.895-6.551,0-5.24c-5.895,1.31-14.411,11.136-19.652,17.031c-5.24,5.896-7.826,2.784-15.066,2.621
		c-7.24-0.164-8.516-9.826-8.516-18.342c0-8.516,4.585-17.031,13.101-25.547c8.516-8.516,18.341-18.996,25.547-28.822
		c15.721-31.442,9.17-59.61,2.62-68.78c-6.55-9.171-17.686-23.582-29.477-31.443s-15.721-5.241-17.686-5.895
		c-1.965-0.655,3.275-13.756,6.55-20.962c3.275-7.205,5.895-20.961,4.586-36.683c-1.31-15.721-12.446-33.408-12.446-33.408
		s3.275-5.24,11.136-10.481c7.861-5.24,22.927-15.721,36.028-40.613c13.101-24.892,10.481-44.543,7.206-55.024
		c-3.276-10.481-16.376-26.202-23.582-33.408c-7.206-7.205-11.791-18.996-14.411-25.547c-2.621-6.551,2.62-7.861,5.895-18.342
		c3.275-10.48-3.275-20.961-7.206-24.236c-3.93-3.276-7.861-4.586-7.861-4.586s4.585,8.516,0,12.446
		c-5.241-11.791-20.306-16.377-17.686-11.137c2.62,5.241,6.55,12.446,6.55,12.446s-3.93-3.93-7.861-6.551
		c-3.93-2.62-13.101,0.655-11.136,1.965c1.965,1.311,8.516,3.276,12.446,11.136s-0.655,18.341-6.55,18.996
		c-5.896,0.655-13.101-6.551-12.446-11.135c-9.17,9.17,5.895,22.926,15.066,25.547c9.171,2.619,17.621,8.62,24.237,16.376
		c6.616,7.757,14.411,23.582,17.686,35.373c3.275,11.791-5.896,30.788-10.481,38.649c-4.585,7.861-22.927,19.652-27.512,23.582
		s-11.791,2.62-12.446-1.965c-0.655-4.586,1.31-16.377,0.655-22.272c-0.655-5.895-3.275-7.861-7.861-7.861
		c-4.585,0-10.481,1.965-10.481,1.965s-5.241,0.655-9.826-3.275c-4.586-3.93-22.927-21.617-30.133-24.237
		c-7.205-2.62-10.481,0.655-14.411,8.516c-2.523,5.045-3.801,15.705-4.326,24.807c-2.32,2.13-4.835,5.27-5.5,9.255
		c-1.31,7.861-2.62,27.512-2.62,35.373c0,5.451,1.684,10.742,3.685,14.619l-8.27,6.998c0,0-18.341,9.171-33.408,13.102
		c-15.066,3.93-24.892-1.965-26.857-7.206c-1.965-5.24-1.739-10.184,6.55-18.341c8.289-8.158,13.101-13.756,22.927-20.962
		c9.826-7.205,9.17-11.135,11.791-20.961c2.62-9.826-1.965-9.826-7.861-2.62c-5.895,7.206-3.275,3.276-9.171,5.896
		c-5.895,2.62-10.481,4.586-13.756-13.756c-3.275-18.341,4.585-26.201-6.55-18.341c-11.136,7.861-3.275,23.582-8.516,20.306
		c-5.24-3.275-7.205-20.961-7.205-20.961s-4.586,0.655-7.206,6.551c-2.62,5.895,3.275,17.686,3.93,22.926
		c0.655,5.24,0,0-4.585-3.275c-4.586-3.276-9.826-15.067-9.826-15.067s-3.93-2.62-1.31,10.481
		c2.62,13.101,20.306,24.892,20.306,24.892s3.275,5.896,3.275,10.481c0,4.586-9.171,15.721-17.032,26.202
		c-7.861,10.48-6.55,24.892-1.965,30.132c4.586,5.241,11.791,10.481,17.686,11.791c5.896,1.311,7.861,0.655,18.342-2.619
		c10.481-3.276,35.373-0.655,35.373-0.655s5.24-0.655,5.896,5.24c0.655,5.895-0.655,26.858-0.655,26.858l3.275,8.515
		c0,0-22.927-1.965-32.097,0c-9.171,1.965-23.582,15.067-24.892,26.202c-1.31,11.135,2.62,23.582,12.446,33.408
		c9.826,9.826,26.202,20.307,34.718,26.857c8.516,6.551,16.376,11.791,20.962,26.858c4.585,15.066-9.171,25.547-9.171,25.547
		s-8.516,3.93-14.411,4.585c-5.895,0.655-15.721-1.31-22.927-2.62c-7.206-1.311-13.101,1.31-18.997,5.895
		c-5.895,4.585-1.334,2.284,5.896,1.965c7.23-0.32,11.791,1.965,11.791,1.965s-11.135,1.965-15.721,5.24
		c-4.585,3.275-7.861,9.17-0.655,5.895c7.206-3.275,13.756-3.275,17.686-3.93c3.93-0.655,3.275,0-3.93,3.275
		c-7.206,3.276-10.481,9.826-4.585,9.171c5.895-0.655,6.55,0,23.582-1.311c17.031-1.31,28.167-5.896,37.338-10.48
		c9.17-4.586,18.341-15.067,18.341-31.442c0-16.377-9.171-30.133-16.376-48.474c-7.206-18.341-4.586-26.201-4.586-26.201
		s17.686,1.31,19.652,1.31s6.551-1.965,6.551-1.965l22.272,12.446c0,0,11.791,7.861,21.617,5.24
		c9.826-2.621,15.066-15.721,15.066-15.721s17.686,13.101,26.857,28.822c9.171,15.721-1.278,36.944-1.965,43.233
		c-0.686,6.29-18.996,28.167-22.926,44.544c-3.93,16.376-1.965,33.408,9.17,41.268c11.136,7.861,17.774,10.018,36.028,7.861
		c18.254-2.158,22.926-7.861,30.787-13.102C390.669,490.162,398.53,484.922,390.015,485.576z"/>
	<g>
		<path style="fill:#231815;" d="M222.126,155.971c0.207,1.878,1.212,7.885,4.242,7.15c2.376-0.576,0.793-10.066,0.686-11.465
			c-0.801-10.47-2.296-21.964,2.761-31.673c13.452-25.826,33.657,13.738,46.06,19.939c4.134,2.067,6.236,1.489,3.268-2.743
			c-2.327-3.318-6.301-6.236-9.333-8.863c-7.295-6.321-15.327-16.377-24.766-19.421C222.152,101.513,220.74,143.01,222.126,155.971z
			"/>
		<path style="fill:#231815;" d="M276.742,136.684c-1.669,0.303-4.147,1.926-3.012,3.944c1.233,2.191,5.359,1.007,7.092,0.626
			c4.452-0.977,13.315-6.336,17.412-1.719c2.13,2.401,1.157,8.883,1.109,11.779c-0.052,3.146-2.319,14.182,0.323,16.481
			c3.773,3.283,3.96-4.201,3.858-6.328c-0.287-5.984-0.291-13.13-1.373-19.034C300.003,130.699,285.02,135.291,276.742,136.684z"/>
		<path style="fill:#231815;" d="M242.757,153.149c-5.075-1.028-2.975,3.922-0.436,5.304c3.956,2.153,8.433-0.054,8.491,6.003
			c0.026,2.76-15.91,24.042-9.435,23.728c3.084-0.15,3.44-5.37,4.199-7.292c1.395-3.534,3.808-6.281,5.611-9.592
			C256.221,162.058,253.38,155.308,242.757,153.149z"/>
		<path style="fill:#231815;" d="M201.346,256.79c4.829,5.729,5.526,10.982,4.954,18.091c-0.659,8.194,0.622,16.753,4.869,23.9
			c4.357,7.333,10.116,14.317,15.459,20.944c1.073,1.331,15.701,17.535,15.354,17.755c-7.294,4.605-29.087-32.677-32.038-37.347
			C201.62,286.962,199.692,272.132,201.346,256.79z"/>
		<path style="fill:#231815;" d="M219.178,159.026c-0.906,8.124-0.093,16.395-0.032,24.541c0.026,3.485,1.201,17.668-2.873,19.795
			c0.899-0.469-0.292-8.52-0.32-9.642c-0.166-6.546-0.467-13.042-0.763-19.579c-0.186-4.108,0.126-8.218,0.365-12.332
			c0.023-0.389,1.803-13.562,3.372-12.242C219.766,150.273,218.974,157.475,219.178,159.026z"/>
		<path style="fill:#231815;" d="M334.936,273.578c3.865-13.686,3.766-26.948-0.042-40.55c-1.91-6.822-4.86-13.136-7.6-19.641
			c-1.922-4.562-3.451-11.961-6.91-15.548c-4.258-4.415-4.283,1.046-3.664,4.654c1.009,5.876,3.941,10.826,7.062,15.765
			c6.695,10.594,11.497,22.817,11.545,35.511c0.049,12.967-4.444,25.333-9.264,37.188c-2.697,6.633-5.645,13.158-8.615,19.672
			c-1.539,3.374-6.49,10.814-5.009,14.562c1.231,3.114,0.938,1.971,2.957,0.022c3.825-3.691,5.294-12.925,7.205-17.801
			C326.966,296.28,332.074,285.224,334.936,273.578z"/>
		<path style="fill:#231815;" d="M149.838,206.166c-1.014,1.917-1.566,6.428,1.443,6.305c1.732-0.071,3.585-4.596,4.294-5.729
			c3.784-6.053,7.527-12.248,12.408-17.505c9.273-9.986,29.239-20.399,28.648-36.462c-0.325-8.838-4.378-0.632-5.428,3.376
			c-1.746,6.667-4.085,11.374-9.023,16.286C171.31,183.246,156.909,192.047,149.838,206.166z"/>
		<path style="fill:#231815;" d="M183.444,156.682c1.269-1.015,2.742-3.427,1.091-4.828c-2.076-1.762-5.527,1.651-6.921,2.743
			c-5.454,4.274-9.267,8-13.059-0.245c-2.471-5.372-2.617-10.856-0.007-16.147c1.199-2.43,10.42-11.632,3.702-11.446
			C157.308,127.063,153.903,180.596,183.444,156.682z"/>
		<path style="fill:#231815;" d="M148.089,145.212c0.234-6.837-0.475-23.216,10.16-23.366c-4.351,0.061-6.64,11.818-6.91,14.956
			c-0.259,3.024,1.011,12.509-1.433,13.968C149.524,150.999,148.281,145.825,148.089,145.212z"/>
		<path style="fill:#231815;" d="M134.998,152.954c-2.677-6.161-7.577-22.837,0.687-27.221c-2.813,1.492-1.314,13.783-0.845,16.388
			c0.411,2.283,5.002,14.891,4.895,14.961C138.863,157.651,135.613,153.698,134.998,152.954z"/>
		<path style="fill:#231815;" d="M144.541,186.647c1.102-2.276,1.519-6.732-1.73-5.93c-2.38,0.588-4.231,5.787-5.372,7.699
			c-4.098,6.866-8.662,13.554-12.387,20.631c-6.279,11.932-8.142,30.668,4.815,39.343c1.043,0.698,4.325,2.964,5.585,1.291
			c1.47-1.951-3.05-5.279-4.262-6.482c-5.177-5.138-8.45-9.701-8.046-17.307C124.025,209.277,137.775,200.464,144.541,186.647z"/>
		<path style="fill:#231815;" d="M319.192,161.613c-2.128,1.599-11.91,4.593-8.977,6.906c4.221,3.329,12.437-2.619,15.142-5.238
			c8.636-8.36,17.63-16.672,22.842-27.666c11.771-24.828-1.255-55.251-21.135-72.441c-9.741-8.423-24.322-12.18-32.369-22.578
			c-1.969-2.544-2.31-3.917-2.729-6.784c-0.216-1.476,1.685-2.858,0.009-3.539c-1.8-0.731-3.736,3.348-4,4.619
			c-0.654,3.141,1.15,6.218,2.952,8.583c7.657,10.047,21.412,12.861,31.375,19.819c7.325,5.116,13.076,13.014,17.484,20.666
			c7.855,13.637,14.023,28.876,7.704,44.296c-2.414,5.892-5.887,12.264-10.472,16.756c-3.151,3.087-6.95,5.414-10.068,8.549
			C324.309,156.214,322.222,159.347,319.192,161.613z"/>
		<path style="fill:#231815;" d="M299.029,36.534c7.234,5.703,17.28-2.016,15.086-10.438c-1.159-4.451-5.353-8.377-8.613-11.338
			c-1.815-1.648-7.014-4.419-7.951-6.626c0.322,0.758,4.634,1.683,5.569,2.133c2.59,1.249,4.895,2.853,7.028,4.777
			c5.863,5.287,10.584,13.517,5.866,21.116c-2.988,4.812-9.169,6.49-14.556,5.113c-3.996-1.022-13.236-11.403-5.242-13.429
			c-0.636,0.161-0.621,5.103-0.067,6.184C296.736,35.173,297.826,36.068,299.029,36.534z"/>
		<path style="fill:#231815;" d="M313.192,4.166c4.053,2.73,13.922,15.613,9.747,21.093c0.466-0.611-6.421-11.913-7.328-13.192
			c-1.166-1.645-8.13-7.439-7.95-7.989C307.996,3.051,312.316,3.971,313.192,4.166z"/>
		<path style="fill:#231815;" d="M326.651,2.777c3.867,3.658,13.849,15.5,7.646,21.301c1.577-1.475-4.523-11.817-5.586-13.362
			c-1.154-1.679-7.943-8.218-7.289-9.131C321.954,0.843,325.805,2.485,326.651,2.777z"/>
		<path style="fill:#231815;" d="M338.366,1.528c-4.617-3.157-2.007,2.721-0.218,4.375c2.242,2.072,4.435,3.588,5.917,6.372
			c1.639,3.078,2.11,6.709,1.732,10.16c-0.203,1.858-4.321,9.45-3.605,10.953c2.351,4.94,5.524-9.3,5.619-10.513
			C348.457,14.639,344.887,6.652,338.366,1.528z"/>
		<path style="fill:#231815;" d="M331.189,199.586c10.652-4.361,18.254-13.37,25.933-21.649
			c10.735-11.574,18.558-25.634,21.367-41.278c2.881-16.041-0.379-28.382-9.261-41.857c-7.61-11.544-17.728-20.956-25.503-32.324
			c-3.467-5.068-7.651-11.513-6.63-17.985c0.26-1.645,1.985-7.272,4.326-6.197c0.117,0.054,1.275,11.016,1.599,11.994
			c4.545,13.669,15.982,23.21,24.185,34.542c8.059,11.133,16.471,23.659,15.351,37.944c-1.25,15.937-5.748,32.458-14.288,46.044
			c-3.357,5.341-7.727,9.642-11.409,14.692c-3.808,5.222-7.018,10.865-10.893,16.041c-3.334,4.454-9.124,10.702-15.371,9.879
			c-1.834-0.242-5.61-1.943-5.832-4.077C324.657,204.328,330.314,200.711,331.189,199.586z"/>
		<path style="fill:#231815;" d="M194.305,290.338c2.89,0.445,23.764,4.746,11.687-1.61c-9.772-5.143-23.698-5.503-34.002-2.129
			c-22.101,7.237-32.07,34.852-19.268,54.207c12.592,19.038,34.883,28.356,50.517,44.319c7.549,7.708,13.094,18.749,10.774,29.792
			c-1.052,5.009-3.654,9.016-7.939,11.821c-1.478,0.968-11.535,4.799-11.189,5.557c1.092,2.39,8.658,0.187,10.361-0.422
			c3.879-1.387,7.17-3.867,9.525-7.242c6.096-8.737,4.29-20.182-0.142-29.204c-8.631-17.57-29.097-27.645-43.656-39.662
			c-14.669-12.107-26.524-26.833-18.043-46.195C160.154,293.076,177.233,287.586,194.305,290.338z"/>
		<path style="fill:#231815;" d="M324.605,306.648c15.682-13.335,29.329,12.065,38.856,20.738
			c10.461,9.524,16.534,23.635,18.014,37.818c1.46,13.997-3.031,29.573-9.378,41.953c-8.73,17.029-27.639,26.695-35.379,44.293
			c-2.811,6.392-2.974,13.957-2.165,20.805c0.259,2.189,0.623,7.456,2.717,8.902c1.73,1.194,4.623-1.056,6.075,0.05
			c3.828,2.916-6.209,7.311-10.288,2.236c-4.882-6.075-3.767-18.579-2.163-25.516c3.169-13.703,14.851-24.055,24.267-33.685
			c10.239-10.472,17.128-21.316,20.615-35.583c4.47-18.285,1.6-38.294-10.613-53.129c-5.517-6.701-13.048-13.561-19.981-18.79
			C338.919,312.017,330.264,312.414,324.605,306.648z"/>
		<path style="fill:#231815;" d="M262.321,346.264c-4.574-4.205-6.508,0.532-2.949,4.45c4.445,4.893,12.38,7.923,18.671,9.521
			c12.539,3.184,21.46-4.005,27.617-14.377c1.807-3.044,4.188-8.843-1.317-6.234c-4.556,2.159-5.592,11.465-9.869,14.936
			C283.489,363.475,270.819,353.961,262.321,346.264z"/>
		<path style="fill:#231815;" d="M317.816,351.983c8.778,10.435,17.759,20.143,19.214,34.42c1.171,11.492-2.859,21.733-8.535,31.444
			c-7.578,12.967-16.441,25.498-20.407,40.187c-3.258,12.067-3.65,28.408,5.374,38.23c3.842,4.182,8.91,6.544,14.053,8.672
			c1.474,0.61,4.33,0.992,4.971,2.651c1.249,3.235-2.453,2.541-4.165,2.079c-3.976-1.073-8.842-5.173-12.263-7.576
			c-5.493-3.858-9.103-9.226-10.899-15.672c-8.341-29.935,13.532-52.811,25.277-77.877c6.014-12.834,5.956-26.387-1.298-38.668
			c-3.594-6.086-9.11-9.427-13.388-14.829C311.491,349.665,313.971,344.988,317.816,351.983z"/>
		<path style="fill:#231815;" d="M335.106,505.965c-5.217-1.07-4.966,2.678-1.339,4.695c4.909,2.73,13.158,0.597,18.311-0.358
			c11.262-2.086,20.332-7.902,30.973-11.467c3.148-1.055,9.08-3.699,1.511-4.77c-4.613-0.653-9.321,4.538-12.997,6.623
			C360.088,507.199,347.939,508.518,335.106,505.965z"/>
		<path style="fill:#231815;" d="M358.138,496.689c8.157-3.473,24.186-16.945,33.667-11.557c-0.956-0.543-7.253,2.508-8.113,2.831
			c-4.917,1.849-8.985,4.385-13.517,6.874c-2.402,1.319-18.152,8.348-18.214,6.54C351.931,500.519,357.143,497.546,358.138,496.689z
			"/>
		<path style="fill:#231815;" d="M357.802,483.996c7.616-3.035,20.548-18.563,29.639-13.847
			c-3.171-1.645-15.441,9.315-17.975,11.181c-2.084,1.534-17.792,9.453-17.499,6.588
			C352.043,487.177,356.853,484.843,357.802,483.996z"/>
		<path style="fill:#231815;" d="M351.773,478.296c5.568-3.146,19.152-23.488,27.125-13.717c-0.633-0.775-5.498,0.436-6.635,0.871
			c-4.174,1.595-6.487,5.208-9.374,8.365c-1.703,1.862-15.566,12.369-16.073,9.305C346.688,482.345,350.984,479.207,351.773,478.296
			z"/>
		<path style="fill:#231815;" d="M245.905,340.065c-5.937,10.135-16.403,2.648-25.389,1.592c-5.404-0.635-10.684-1.101-16.041-2.22
			c-3.039-0.635-10.35-1.042-12.692-3.214c-3.786-3.512,1.934-2.244,4.501-1.71c5.995,1.247,11.825,3.217,17.826,4.453
			C224.341,341.075,235.498,340.075,245.905,340.065z"/>
		<path style="fill:#231815;" d="M224.593,358.921c-0.946-3.818-4.511-17.55-5.553-5.895c-0.737,8.238,3.993,16.893,7.626,23.964
			c8.194,15.945,15.174,33.01,9.444,51.151c-4.159,13.169-14.703,20.917-27.993,23.859c-8.449,1.87-17.166,2.195-25.772,2.762
			c-3.251,0.214-19.65-0.209-20.723,4.497c-0.469,2.059,30.774-1.418,32.752-1.727c12.737-1.988,26.752-4.01,36.055-13.847
			c10.317-10.909,11.775-27.026,9.748-41.248C237.936,386.715,228.587,374.02,224.593,358.921z"/>
		<path style="fill:#231815;" d="M179.623,448.763c-6.458-0.762-13.119-0.521-19.429,1.084c-4.533,1.153-9.084,4.293-13.655,5.021
			c1.516-0.242,5.71-5.29,7.846-6.299c4.244-2.004,9.953-3.505,14.667-3.742c2.366-0.119,18.666,2.257,18.189,2.872
			C186.432,448.741,180.998,448.543,179.623,448.763z"/>
		<path style="fill:#231815;" d="M174.407,441.873c-11.066-2.063-20.591-4.301-29.455,3.308c2.051-1.76,0.866-5.111,4.635-7.105
			c3.971-2.1,10.169-2.003,14.643-1.512c2.525,0.277,17.695,3.048,17.556,3.903C181.606,441.572,175.587,441.75,174.407,441.873z"/>
		<path style="fill:#231815;" d="M185.302,434.621c-8.026-1.183-15.942-3.932-24.155-3.296c-6.749,0.523-10.926,4.044-16.971,6.099
			c0.86-0.292,2.64-3.409,3.65-4.283c1.789-1.548,3.904-2.732,6.128-3.53c5.223-1.875,11.373-1.998,16.811-1.325
			c2.844,0.352,24.083,4.605,24.089,3.872C194.841,433.851,186.808,434.547,185.302,434.621z"/>
		<path style="fill:#231815;" d="M306.158,171.889c-0.304,5.929,9.681,11.396,7.237,17.433c0.268-0.661-8.088-9.136-8.954-10.746
			c-0.792-1.472-2.604-12.092,0.328-10.683C305.207,168.103,305.857,171.295,306.158,171.889z"/>
		<path style="fill:#231815;" d="M141.512,249.173c-9.186-3.297-4.898,4.685,1.698,5.953c7.758,1.491,15.161-2.908,22.616-4.253
			c8.238-1.486,16.887-1.026,25.191-0.435c6.061,0.432,15.513,3.424,21.431,1.738c5.745-1.637,1.276-4.079-2.275-4.715
			c-6.878-1.231-14.463,0.139-21.478-0.244c-7.807-0.426-15.525-0.312-23.303,0.619
			C157.579,248.773,149.267,251.993,141.512,249.173z"/>
		<path style="fill:#231815;" d="M220.588,207.972c7.533-3.205,3.07-6.536-2.83-4.539c-7.574,2.564-14.2,7.73-21.424,11.105
			c-7.938,3.708-16.759,6.544-25.532,7.197c-3.627,0.27-7.85,0.291-11.245-1.256c-2.989-1.362-3.549-3.548-5.727-5.561
			c-6.168-5.7-3.399,5.284,0.737,7.97c5.635,3.66,14.422,2.346,20.689,1.393C190.953,221.893,206.068,214.081,220.588,207.972z"/>
		<path style="fill:#231815;" d="M122.017,140.641c0.362-5.834-2.939-2.99-3.549,0.326c-0.803,4.365,1.405,9.461,3.427,13.173
			c2.492,4.576,5.817,8.618,9.424,12.348c1.874,1.939,3.919,3.714,5.774,5.671c1.452,1.531,3.124,4.947,4.7,6.108
			c2.406,1.773,3.872,2.257,2.194-2.499c-1.334-3.783-7.379-6.96-10.174-9.681C126.59,159.055,121.227,151.143,122.017,140.641z"/>
		<path style="fill:#231815;" d="M235.137,170.376c-3.733,0.692-5.554-5.535-2.093-6.582
			C236.634,162.709,236.722,169.517,235.137,170.376z"/>
		<path style="fill:#231815;" d="M214.106,210.168c-2.844,3.924-0.096,8.958-1.594,13.155c-0.663,1.856-1.825,3.764-4.073,3.986
			c-3.289,0.325-5.814-5.755-8.206-8.407C204.451,215.438,209.591,213.202,214.106,210.168z"/>
		<path style="fill:#231815;" d="M187.227,221.419c1.597,2.774,7.29,13.04,1.823,14.531c-4.405,1.202-8.296-8.171-10.525-10.797
			C181.039,223.08,183.914,221.592,187.227,221.419z"/>
		<path style="fill:#231815;" d="M325.373,160.785c1.181,3.218,12.144,20.868,1.97,19.374c-2.846-0.418-8.288-5.649-9.854-7.962
			C313.772,166.707,321.274,163.79,325.373,160.785z"/>
		<path style="fill:#231815;" d="M337.251,150.158c2.005,3.251,9.447,13.281,0.315,11.1c-1.394-0.333-5.693-2.623-6.26-3.761
			C329.263,153.397,334.175,151.755,337.251,150.158z"/>
		<path style="fill:#231815;" d="M199.104,289.555c-3.869,3.741,6.076,30.609-6.906,17.517
			C186.879,301.708,182.097,282.278,199.104,289.555z"/>
		<path style="fill:#231815;" d="M177.225,290.18c-5.592,1.682,10.436,31.81-3.109,23.642
			C167.007,309.534,162.5,286.215,177.225,290.18z"/>
		<path style="fill:#231815;" d="M339.751,308.308c-1.497,6.407-4.389,11.932-7.634,17.572c-2.064,3.587-4.205,6.563,0.992,7.946
			c5.831,1.551,11.981-3.684,13.641-8.907C349.004,317.83,343.545,313.404,339.751,308.308z"/>
		<path style="fill:#231815;" d="M358.504,325.81c3.107,4.43,8.474,7.674,3.04,12.107c-2.83,2.309-9.588,5.807-13.455,4.648
			c-5.196-1.559-1.122-4.246,0.905-7.173C352.015,331.03,351.682,325.198,358.504,325.81z"/>
		<path style="fill:#231815;" d="M258.488,203.916c-3.38-2.784,1.349-10.817,5.028-10.844c3.506-0.026,7.431,13.415,8.342,16.804
			c1.765,6.563-0.108,12.655,1.041,18.934c0.893,4.877,4.669,8.678,5.411,13.801c1.024,7.073-0.582,14.601-0.377,21.745
			c0.231,8.053,1.845,16,2.092,24.068c0.46,15.008-2.665,30.465-10.422,43.464c-3.236-6.248,0.063-12.061,2.084-18.052
			c2.573-7.629,0.651-10.964-2.036-17.935c-0.84-2.18-0.682-3.594-1.325-5.428c-0.173-0.493-1.719-0.467-1.945-1.207
			c-0.474-1.551,0.417-3.889,0.738-5.438c0.84-4.04,4.134-9.534,3.287-13.653c-0.99-4.817-7.256-5.993-8.173-10.99
			c-0.625-3.406,0.518-6.424-0.37-9.968c-0.845-3.372-1.737-6.205-1.832-9.764c-0.182-6.767,2.668-13.462,1.578-20.203
			c-0.577-3.565-2.429-6.559-3.598-9.922C257.756,208.597,256.296,200.852,258.488,203.916z"/>
		<path style="fill:#231815;" d="M287.867,193.915c4.806-7.059,9.745-2.7,13.185,2.863c3.006,4.86,9.006,12.404,9.666,17.946
			c0.47,3.944-2.251,7.003-2.404,10.837c-0.148,3.711,2.357,6.302,3.141,9.729c1.022,4.468-1.166,7.316-3.024,11.098
			c-2.012,4.096-1.373,6.104-0.968,10.331c0.347,3.628-0.11,4.805-1.889,7.968c-1.702,3.027-4.26,5.225-1.214,8.466
			c1.558,1.658,4.258,1.071,5.652,2.65c1.627,1.843,1.076,5.811,0.859,8.073c-0.349,3.63-1.409,5-3.209,7.753
			c-1.403,2.145-1.702-0.259-2.188,3.186c-0.323,2.292,0.671,5.652,0.917,7.937c0.471,4.387,0.619,8.466-1.019,12.64
			c-1.762,4.488-5.192,8.135-6.391,12.884c-3.669-4.221,0.092-12.033,1.141-16.587c1.686-7.322-2.678-13.363-0.904-20.513
			c0.341-1.372,2.311-5.303,1.747-6.497c-0.274-0.582-2.753-0.418-3.29-1.214c-1.433-2.128-1.941-3.068-1.854-5.693
			c0.186-5.611,4.061-9.526,2.395-15.334c-1.752-6.108-3.059-7.852-2.697-14.61c0.428-7.988,1.898-15.121,3.592-22.879
			c1.837-8.406-4.135-9.748-6.938-16.913c-1.277-3.264,0.13-4.005,0.124-6.622C292.289,197.547,290.502,196.764,287.867,193.915z"/>
		<path style="fill:#231815;" d="M245.986,238.297c0.865,3.022,3.923,11.311-1.804,11.85c-4.26,0.402-5.004-6.136-5.015-8.928
			c-0.008-2.097-0.125-8.68,3.79-7.173C244.032,234.46,245.15,239.5,245.986,238.297z"/>
		<path style="fill:#231815;" d="M232.859,272.677c-5.414,5.082,1.433,19.774,5.914,13.125
			C242.489,280.288,236.642,263.276,232.859,272.677z"/>
		<path style="fill:#231815;" d="M255.987,275.177c0,2.752,1.468,13.231-3.762,11.968
			C246.87,285.854,251.499,276.132,255.987,275.177z"/>
		<path style="fill:#231815;" d="M245.986,315.809c-3.509-2.116-6.304-10.263-0.767-11.172
			C247.345,308.365,248.958,314.755,245.986,315.809z"/>
		<path style="fill:#231815;" d="M257.238,319.56c0-2.599-1.337-16.547,3.726-12.476
			C266.876,311.837,258.514,320.879,257.238,319.56z"/>
		<path style="fill:#231815;" d="M317.248,268.927c-1.361-2.452-2.541-7.342,1.294-8.734
			C319.984,263.411,318.753,268.602,317.248,268.927z"/>
		<path style="fill:#231815;" d="M316.622,249.548c-0.439-3.49,0.317-7.759,2.029-10.438
			C320.884,242.079,322.56,251.184,316.622,249.548z"/>
		<path style="fill:#231815;" d="M317.873,220.169c-2.348,3.22-4.544,8.571,1.125,9.312
			C320.385,226.492,318.943,223.789,317.873,220.169z"/>
		<path style="fill:#231815;" d="M269.115,174.537c1.716,2.281,5.635,8.227,2.49,10.753c-3.287,2.64-3.413-2.377-3.833-4.43
			c-0.311-1.521-1.92-4.284-1.107-5.721C266.77,174.954,268.19,172.241,269.115,174.537z"/>
		<path style="fill:#231815;" d="M236.388,123.29c-2.917-0.834-1.152-5.224,0-4.584C240.138,120.79,236.388,123.29,236.388,123.29z"
			/>
		<path style="fill:#231815;" d="M245.972,119.957c-3.188,1.062-2.501-4.167-0.416-3.334
			C247.638,117.456,247.222,119.54,245.972,119.957z"/>
	</g>
</g>
</svg>
