<?xml version="1.0" encoding="iso-8859-1"?>
<!-- Generator: Adobe Illustrator 21.1.0, SVG Export Plug-In . SVG Version: 6.00 Build 0)  -->
<svg version="1.1" id="_x36_" xmlns="http://www.w3.org/2000/svg" xmlns:xlink="http://www.w3.org/1999/xlink" x="0px" y="0px"
	 viewBox="0 0 512 512" style="enable-background:new 0 0 512 512;" xml:space="preserve">
<g>
	<g>
		<path style="fill:#FFFFFF;" d="M392.653,205.67c6.19,1.376,20.633,0.688,27.511,2.063c0,0,8.253,0.688,11.692,1.376
			c3.439,0.688,18.57,2.751,25.448,2.751s23.385-1.376,31.638-3.439c8.254-2.063,11.693-7.566,13.068-17.194
			c1.375-9.629-1.376-21.321-7.566-37.828c-6.19-16.507-15.131-19.945-28.886-19.945c-13.756,0-42.643-0.688-56.398,2.063
			c-13.756,2.751-23.385,11.005-23.385,11.005s0.688,30.262,0,41.954C385.088,200.168,386.463,204.295,392.653,205.67z"/>
		<path style="fill:#FFFFFF;" d="M509.575,297.832c-0.688-9.629,2.063-25.448-0.688-39.203
			c-2.751-13.756-11.692-19.946-20.633-21.321c-8.941-1.376-37.14-6.878-48.832-4.814c-9.44,1.666-24.701-0.251-35.3,0.757
			c-4.819-7.371-10.109-14.951-15.595-20.015c-8.941-8.253-18.57-22.697-26.136-27.511c-7.565-4.814-24.759-26.823-24.759-26.823
			s-22.696-15.131-26.824-17.882c-4.126-2.751-6.19-5.502-9.629-16.507c-3.439-11.004-12.38-18.57-22.009-19.946
			c-9.629-1.376-17.194,7.566-23.385,14.443c-6.19,6.878-21.321,7.565-26.135,4.127c-4.815-3.439-8.941-16.507-16.507-19.258
			c-7.565-2.751-5.502,0.688-10.317,8.941c-4.814,8.253-7.565,13.756-11.004,17.194c-3.439,3.439-18.57,13.756-18.57,13.756
			s-8.669,4.596-1.824,7.187c-3.954-0.411-7.056,0.627-5.054,3.13c2.751,3.439,22.697,16.507,22.697,16.507
			c8.253,6.19,38.515,24.072,41.266,50.895c0.387,3.763,0.707,7.793,0.949,12.008l-0.26,1.06
			c-2.063,4.127-17.58,18.37-23.384,17.882c-5.805-0.488-15.131-15.131-23.385-17.882c-6.877-2.292-19.951-2.197-24.125-2.102
			c-0.764-0.591-1.537-1.166-2.319-1.725c-0.871-1.376-2.328-3.366-4.437-5.259c-0.622-0.559-1.301-1.109-2.039-1.632
			c-1.756-1.246-3.843-2.341-6.283-3.038c-9.629-2.751-31.638-6.19-44.706-0.688c-2.049,0.863-3.891,1.705-5.576,2.518
			c-5.777,1.851-10.284,4.165-13.644,6.333c-1.044-2.086-3.282-5.509-6.227-4.037c-4.127,2.063-11.693,11.692-11.693,11.692
			s-2.907-3.167-7.565,0.688c-4.659,3.855-11.004,10.317-11.692,17.882c-2.833,1.365-4.127,0.688-4.127,6.878
			c0,3.644,1.673,7.994,3.887,11.244c-3.822,8.292-5.973,18.327-3.199,35.525c1.866,11.571,4.752,22.531,10.843,32.227
			c-21.717,17.237-41.793,33.111-41.793,33.111s-6.19,6.19-8.941,8.941c-2.751,2.751,4.126,4.814,11.004,6.19
			c6.878,1.376,2.063,8.941,8.941,2.751c3.28-2.953,23.463-18.895,44.497-35.956c2.915,2.26,6.175,4.394,9.838,6.382
			c24.072,13.068,36.451,13.068,53.646,11.692c17.194-1.375,44.705-9.629,55.022-20.633c9.464-10.096,23.542-38.135,15.716-64.471
			c9.828,0.714,13.761-1.546,20.048,1.884c7.565,4.127,9.629,1.376,14.443,9.629c0,0-2.671-2.316-5.838-5.223
			c-1.456,7.645-3.364,15.001-5.854,21.73c-4.227,11.422-7.364,27.543-5.705,44.894c-0.329-0.113-0.485-0.189-0.485-0.189
			s0.519,12.394,3.792,17.491c2.476,8.47,6.303,16.963,11.912,25.104c12.093-4.782,26.802-4.864,38.914-4.698
			c1.519,0.021,3.037,0.081,4.555,0.127l0,0c19.604,0.592,39.118,3.152,58.56,5.567c1.61,0.2,3.216,0.385,4.819,0.56
			c0.809,0.09,1.619,0.177,2.426,0.262l-0.001,0.004c0.431,0.045,0.86,0.082,1.291,0.126c1.427,0.145,2.853,0.288,4.275,0.418
			c0.501,0.046,1,0.086,1.5,0.13c1.451,0.128,2.902,0.253,4.35,0.366c0.518,0.041,1.036,0.076,1.554,0.115
			c1.419,0.107,2.838,0.212,4.256,0.306c0.601,0.04,1.203,0.075,1.804,0.113c1.333,0.084,2.667,0.169,4.002,0.244
			c0.727,0.041,1.454,0.076,2.182,0.115c1.204,0.064,2.408,0.129,3.614,0.185c0.935,0.044,1.873,0.083,2.809,0.124
			c0.998,0.043,1.994,0.089,2.993,0.129c1.2,0.048,2.405,0.09,3.61,0.133c0.652,0.023,1.301,0.05,1.954,0.072
			c0.001-0.001,0.001-0.001,0.001-0.001c2.183,0.074,4.371,0.143,6.568,0.206c25.23,0.721,50.45,2.083,75.699,1.68
			c14.432-0.23,29.306-0.764,43.769-3.123c1.34-6.546,2.051-13.679,0.409-18.933C504.073,377.614,510.262,307.461,509.575,297.832z
			 M97.598,274.448c-2.554-4.086-10.033-14.616-14.561-22.866c2.192-1.682,4.33-2.969,6.307-3.957
			c27.511-13.756,34.389-9.629,48.832-7.566c1.804,0.258,3.532,0.698,5.191,1.287c-1.774,2.189-3.308,4.575-4.504,6.966
			c-3.439,6.878,2.064,11.692,8.941,11.692c-1.888,2.266-0.039,6.39,2.463,9.314c-0.861,0.811-1.696,1.61-2.463,2.378
			c-7.566,7.565-11.692,11.692-24.072,13.755C111.353,287.515,101.036,279.95,97.598,274.448z M154.468,228.479
			c-5.005-3.169-10.347-5.651-16.027-7.242C146.493,222.648,152.279,225.121,154.468,228.479z M62.521,288.891
			c0.861-4.092,1.89-7.803,3.047-11.171c3.018-0.269,5.205-0.521,5.205-0.521s-2.151-0.538-4.436-1.613
			c0.458-1.218,0.932-2.391,1.422-3.514c8.584,3.201,19.828,8.186,25.711,14.069c3.472,3.473,6.779,8.28,9.704,13.484
			c-4.884,4.068-20.089,16.216-36.868,29.561C61.261,319.915,58.87,306.233,62.521,288.891z M111.098,317.064
			c1.54,4.329,2.604,8.216,3.006,11.03c1.216,8.515-3.483,20.782-7.916,26.839c-10.455-2.036-18.63-7.093-25.429-11.662
			C93.291,332.93,104.632,323.287,111.098,317.064z M171.877,335.66c-3.369,4.813-16.507,11.643-31.397,16.019
			c-2.478-1.488-5.521-4.174-8.494-10.517c-5.385-11.486-6.878-24.76,3.438-35.764c10.317-11.004,22.334-20.298,32.326-19.945
			c4.255,0.15,8.122-0.953,11.168-2.266c1.58,5.703,2.773,11.742,3.963,17.397C185.633,313.651,176.692,328.782,171.877,335.66z
			 M176.004,152.024c3.578,0.511,8.087,1.065,13.125,1.681C183.547,153.373,178.654,153.018,176.004,152.024z M224.442,158.659
			c5.082,0.901,9.905,1.893,14.149,2.993c0.978,0.254,1.843,0.569,2.642,0.92C235.617,161.06,229.795,159.757,224.442,158.659z
			 M274.89,315.001c-0.341,0.017-0.535,0.026-0.535,0.026l1.298,0.865c0.061,0.177,0.12,0.372,0.176,0.601
			c-4.224,0.003-7.878-0.459-11.103-1.466c-3.544-1.108-8.015-3.001-12.449-5.057C262.047,312.801,272.386,314.581,274.89,315.001z"
			/>
	</g>
	<g>
		<path style="fill:#231815;" d="M167.991,152.404c-1.938,3.129,25.934,18.402,29.268,20.865
			c10.316,7.623,19.912,16.582,26.86,27.447c6.331,9.898,9.599,20.836,10.059,32.567c0.229,5.831-0.156,11.668-0.534,17.485
			c-0.108,1.662-1.899,12.537-0.959,13.284c-0.813-0.646-0.793-6.81-0.904-7.897c-0.389-3.81-0.6-7.631-0.785-11.455
			c-0.43-8.844-0.757-17.809-3.362-26.339c-4.632-15.17-15.774-27.586-28.199-37.026c-4.948-3.76-9.904-7.597-15.061-11.067
			c-5.906-3.974-13.753-6.75-18.777-11.816c-6.313-6.366,1.178-12.124,6.55-15.54c3.566-2.267,6.717-4.292,9.727-7.24
			c0.579-0.567,6.482-5.218,6.472-4.584c0.068,1.363-3.033,3.755-3.776,4.684c-1.774,2.218-3.284,4.41-5.417,6.317
			C175.473,145.381,170.313,147.844,167.991,152.404z"/>
		<path style="fill:#231815;" d="M262.291,174.582c1.591,1.154,7.783,5.93,8.164,2.116c0.358-3.594-7.484-7.991-9.801-9.301
			c-7.571-4.28-16.242-6.066-24.7-7.668c-20.643-3.91-41.183-8.964-62.186-10.201c-2.657-0.157-7.115-0.003-3.339,2.924
			c3.052,2.367,8.399,2.338,12.065,2.407c8.766,0.166,16.532,0.454,25.163,2.289C226.793,161.219,245.788,162.941,262.291,174.582z"
			/>
		<path style="fill:#231815;" d="M278.492,170.005c3.482,3.272,9.82,16.116,0.927,16.449c-7.598,0.285-13.065-8.052-20.441-8.409
			c-4.749-0.23-2.16,2.23,0.364,3.696c2.811,1.634,5.797,2.777,8.839,3.874c6.181,2.228,16.981,6.505,17.309-3.913
			c0.258-8.194-6.415-14.133-12.79-18.071c-6.082-3.758-14.139-8.422-21.132-10.161c-2.331-0.58-3.442-1.002-2.281,1.133
			c1.193,2.194,6.333,3.221,8.546,4.079C265.098,161.503,272.732,164.583,278.492,170.005z"/>
		<path style="fill:#231815;" d="M195.737,116.181c4.606-7.398,11.925-20.077,22.237-12.699c3.755,2.687,5.389,7.249,7.223,11.279
			c0.964,2.119,1.891,4.38,3.601,6.02c0.311,0.299,3.599,2.388,3.584,2.432c-0.239,0.679-4.498-0.313-4.846-0.45
			c-2.566-1.011-4.313-3.367-5.676-5.647c-2.432-4.066-4.807-12.285-11.177-10.78c-3.228,0.762-6.249,4.683-8.027,7.3
			c-1.684,2.479-6.069,13.382-10.068,13.062C192.447,126.686,195.372,117.435,195.737,116.181z"/>
		<path style="fill:#231815;" d="M240.201,119.693c2.505,7.284,10.552,7.757,15.14,2.389c4.441-5.197,7.327-12.786,13.576-16.171
			c7.028-3.808,16.107,0.106,21.055,5.503c2.596,2.832,4.589,6.133,6.499,9.444c1.256,2.177,2.803,6.319,5.376,7.133
			c5.373,1.698-3.048-10.924-4.106-12.508c-4.41-6.602-10.168-12.344-18.423-13.231c-7.761-0.834-14.302,1.91-19.878,7.16
			C253.997,114.535,248.529,121.073,240.201,119.693z"/>
		<path style="fill:#231815;" d="M313.442,147.237c17.803,7.524,30.966,22.989,44.173,36.611
			c16.218,16.728,37.042,31.744,48.277,52.577c20.984,38.908,15.515,84.783,0.43,124.642c-3.688,9.745-9.103,17.533-14.579,26.254
			c-2.797,4.455,0.131,4.409,3.933,2.061c5.008-3.093,8.316-8.904,10.767-14.069c8.559-18.039,13.054-39.227,16.41-58.766
			c3.479-20.251,1.766-42.874-5.966-62.018c-7.759-19.213-18.935-34.273-33.226-49.195c-8.177-8.538-16.482-16.961-24.72-25.441
			c-7.835-8.064-14.258-17.407-21.415-26.062c-6.74-8.151-15.152-17.963-26.417-19.382c-2.497-0.314-8.388,1.064-8.199,4.628
			c0.107,2.022,2.388,2.156,3.928,2.986C309.278,143.376,311.52,145.242,313.442,147.237z"/>
		<path style="fill:#231815;" d="M322.418,246.464c-7.283,8.336-15.153,16.321-24.381,22.516c-4.168,2.798-8.627,5.249-13.374,6.919
			c-0.514,0.181-13.503,2.929-13.252,1.828c0.14-0.616,6.556-2.85,7.197-3.164c3.04-1.49,6.112-2.926,9.108-4.502
			c6.241-3.283,11.769-7.517,16.79-12.44c3.907-3.83,8.233-7.105,11.885-11.222c0.662-0.746,10.52-13.103,11.445-12.025
			C329.024,235.758,323.313,244.782,322.418,246.464z"/>
		<path style="fill:#231815;" d="M261.604,280.252c-8.481-0.725-16.896-2.278-24.765-5.621c-3.566-1.515-7.016-3.333-10.164-5.601
			c-1.421-1.024-6.83-4.644-6.81-6.687c-0.002,0.234,13.219,5.768,13.852,6.072c5.875,2.825,11.932,3.868,18.116,5.574
			c5.411,1.493,10.925,1.068,16.354,2.181C275.771,277.724,264.214,279.759,261.604,280.252z"/>
		<path style="fill:#231815;" d="M205.777,255.538c-12.775-10.565-23.734-23.724-42.128-22.367
			c-8.517,0.628-15.25,5.974-20.374,12.446c-1.655,2.09-4.417,5.285-4.413,8.079c0.003,1.851,5.18,6.67,6.3,4.944
			c-0.549,0.845-5.504-0.246-6.363-0.75c-2.583-1.518-2.82-4.39-2.223-7.093c1.137-5.141,5.018-9.875,8.668-13.476
			c9.339-9.214,21.314-10.013,33.456-6.9c9.737,2.497,15.845,8.549,22.95,15.263c4.262,4.027,9.044,7.399,13.352,11.348
			c2.05,1.879,3.91,3.988,5.075,6.542c0.206,0.451,1.9,5.859,0.943,5.634c-1.024-0.172-5.058-7.08-6.357-8.119
			C211.947,258.92,208.755,257.31,205.777,255.538z"/>
		<path style="fill:#231815;" d="M160.639,249.617c-4.46,2.438-8.758,6.718-11.019,11.29c-2.269,4.589-0.849,6.298,1.71,9.965
			c-0.192-0.276-3.029-0.762-3.751-1.365c-1.055-0.881-1.706-2.059-1.984-3.388c-0.799-3.828,1.921-8.054,3.97-11.01
			c1.744-2.516,3.727-4.134,6.174-5.913c0.316-0.23,10.2-5.949,9.949-3.54C165.617,246.334,161.451,248.722,160.639,249.617z"/>
		<path style="fill:#231815;" d="M169.571,261.035c-3.486,1.848-6.895,4.474-9.306,7.63c-1.976,2.588-2.501,6.208-4.473,8.644
			c-0.014,0.018-0.724-2.564-0.729-3.021c-0.021-2.046,0.694-3.836,1.676-5.615c1.48-2.682,3.571-5.402,6.046-7.22
			c1.783-1.31,6.756-5.116,8.935-4.692C174.313,257.266,170.721,259.626,169.571,261.035z"/>
		<path style="fill:#231815;" d="M179.518,268.749c-3.21,1.76-11.977,9.08-9.66,13.594c-1.493-2.855-2.738-3.586-1.12-7.118
			c1.13-2.467,2.973-4.748,5.015-6.459c1.064-0.892,6.325-4.861,7.638-3.919C182.833,265.882,180.451,267.32,179.518,268.749z"/>
		<path style="fill:#231815;" d="M186.19,283.426c4.219,4.111,10.627,3.355,16.003,3.62c2.144,0.106,12.525,0.762,12.86,4.386
			c-0.042-0.454-19.425,0.583-21.531,0.368c-2.816-0.287-5.607-1.681-8.012-3.181c-0.791-0.494-8.355-6.798-5.404-8.153
			C180.917,280.094,184.864,283.078,186.19,283.426z"/>
		<path style="fill:#231815;" d="M232.489,295.684c4.906,3.249,9.796,7.048,15.185,9.472c5.616,2.526,11.952,4.071,17.873,5.732
			c5.808,1.63,11.737,2.987,17.776,3.34c1.481,0.087,9.562,0.866,10.478-0.133c-4.413,4.814-15.623,3.844-21.063,2.923
			c-7.957-1.348-15.942-3.653-23.686-5.909c-5.127-1.494-9.332-5.15-13.737-8.071c-1.327-0.88-17.359-9.613-17.303-10.292
			C218.205,290.091,231.138,295.141,232.489,295.684z"/>
		<path style="fill:#231815;" d="M312.215,308.839c13.558-2.654,26.443-9.948,37.73-17.662c5.068-3.464,10.022-7.192,14.422-11.486
			c0.638-0.623,4.204-5.544,5.134-5.494c0.066,0.004-2.32,5.812-2.491,6.12c-1.84,3.319-4.434,6.185-7.246,8.703
			c-6.668,5.969-14.52,10.788-22.186,15.348c-6.169,3.67-13.025,5.865-19.913,7.838c-4.023,1.152-8.182,2.124-12.394,2.09
			c-0.379-0.003-8.074-0.705-7.209-2.051c0.555-0.864,6.477-0.87,7.599-1.143C307.908,310.554,310.093,309.749,312.215,308.839z"/>
		<path style="fill:#231815;" d="M222.701,318.555c-2.667,8.133-4.744,16.482-5.829,24.981c-1.007,7.887,0.828,15.527,2.869,23.132
			c2.079,7.747,4.549,15.522,7.895,22.822c1.184,2.584,2.465,5.255,4.169,7.546c0.308,0.415,5.208,5.37,5.638,4.219
			c-1.17,3.131-9.822-5.445-10.675-6.583c-3.366-4.491-5.561-9.748-7.48-14.982c-3.776-10.302-8.416-22.69-7.852-33.826
			c0.363-7.174,2.865-14.649,4.763-21.522c1.514-5.482,3.166-10.938,5.229-16.242c0.621-1.596,2.69-8.739,4.675-9.144
			C225.653,299.048,223.025,316.582,222.701,318.555z"/>
		<path style="fill:#231815;" d="M72.216,227.837c-7.862,4.631-12.761,15.782-10.44,24.601c1.112,4.226,3.823,7.903,8.168,9.125
			c0.773,0.217,7.37,0.823,7.437,0.27c-0.172,1.428-7.182,1.913-7.917,1.829c-3.271-0.373-6.017-2.226-7.947-4.868
			c-3.489-4.778-4.198-11.659-2.919-17.318c1.147-5.074,4.652-9.573,8.267-13.198c2.176-2.182,5.154-4.762,8.486-4.473
			c2.011,0.174,6.03,2.506,5.287,5.257c0.079-0.292-3.626-2.77-4.061-2.848C74.917,225.915,73.422,226.723,72.216,227.837z"/>
		<path style="fill:#231815;" d="M75.7,243.902c-2.65,4.092-1.938,10.299,0.159,14.407c0.943,1.848,2.496,2.176,0.138,2.476
			c-2.644,0.337-4.168-2.641-4.901-4.634c-1.712-4.654-1.447-8.893,0.757-13.23c0.49-0.964,2.513-4.635,4.173-3.571
			C76.892,239.904,75.596,242.642,75.7,243.902z"/>
		<path style="fill:#231815;" d="M50.985,241.163c-5.389,5.066-6.521,14.814-0.938,20.125c2.756,2.622,6.609,3.873,10.223,4.744
			c2.321,0.559,8.252,0.41,9.976,1.904c-0.531-0.46-6.408,0.831-7.269,0.827c-2.804-0.013-5.561-0.464-8.209-1.407
			c-5.775-2.057-10.29-6.24-11.6-12.38c-0.872-4.088,0.557-8.26,2.558-11.838c1.328-2.374,3.152-4.827,5.605-6.137
			c1.701-0.908,6.453-2.255,7.647,0.236c-0.061-0.127-4.239,0.659-4.539,0.792C52.992,238.672,51.856,239.864,50.985,241.163z"/>
		<path style="fill:#231815;" d="M40.984,261.115c0.409,7.524,4.248,13.082,11.435,15.115c3.261,0.922,6.704,1.284,10.084,1.363
			c1.899,0.044,5.913-1.073,7.649-0.394c-0.309-0.121-4.081,2.067-4.595,2.226c-2.535,0.784-5.199,0.861-7.825,0.672
			c-4.72-0.34-10.523-1.409-14.249-4.602c-2.997-2.568-4.205-7.019-5.039-10.755c-0.536-2.401-1.367-6.394,0.415-8.549
			c0.887-1.073,3.826-2.415,4.728-0.483c0.199,0.428-2.243,0.283-2.469,0.848C40.51,258.076,40.316,259.448,40.984,261.115z"/>
		<path style="fill:#231815;" d="M88.858,243.823c9.572-4.055,19.82-7.242,30.201-8.245c4.969-0.481,10.204-0.55,15.042,0.857
			c0.571,0.166,9.794,5.25,8.219,5.893c-0.072,0.029-4.89-1.953-5.316-2.032c-3.042-0.563-6.244-0.688-9.33-0.739
			c-7.104-0.118-13.756,1.318-20.498,3.391c-4.278,1.315-8.6,1.927-12.809,3.571c-2.781,1.086-5.493,2.364-8.158,3.708
			c-1.29,0.65-3.939,2.719-5.436,2.647C79.788,252.825,87.668,244.739,88.858,243.823z"/>
		<path style="fill:#231815;" d="M89.779,222.152c13.425-5.735,28.608-8.124,43.052-5.509c6.9,1.249,13.629,3.635,19.529,7.466
			c2.002,1.3,3.921,2.75,5.655,4.395c0.928,0.88,2.991,4.378,3.728,4.568c-2.53-0.653-5.713-3.445-8.183-4.639
			c-3.502-1.694-7.075-3.309-10.733-4.637c-8.396-3.051-17.397-4.1-26.271-3.071c-6.987,0.81-13.897,1.448-20.553,3.88
			c-1.126,0.411-18.57,8.663-18.579,8.64C76.533,230.745,87.936,223.362,89.779,222.152z"/>
		<path style="fill:#231815;" d="M110.234,352.076c19.373,2.554,43.101-2.901,57.085-17.216
			c6.647-6.805,10.518-16.616,12.402-25.807c0.913-4.457,1.288-9.049,0.655-13.571c-0.162-1.159-1.666-9.588-2.634-9.676
			c1.125,0.103,3.387,5.58,3.838,6.631c1.13,2.635,1.764,5.461,2.058,8.301c0.666,6.431-0.561,12.918-2.676,18.985
			c-4.993,14.323-14.607,24.147-28.173,30.735c-10.397,5.049-22.186,6.695-33.672,6.713c-6.224,0.01-12.44-0.565-18.435-2.323
			c-3.311-0.971-6.532-2.278-9.539-3.978c-0.455-0.257-5.739-3.942-5.167-4.209c1.699-0.832,9.478,3.364,11.508,3.868
			C101.653,351.562,105.941,352.071,110.234,352.076z"/>
		<path style="fill:#231815;" d="M63.175,293.946c-1.298,5.688-0.696,11.699,0.31,17.377c0.447,2.522,4.035,11.873,2.338,14.168
			c-0.634,0.858-5.155-7.489-5.351-8.066c-1.326-3.91-2.44-8.446-2.899-12.565c-0.271-2.431,1.363-19.697,4.55-18.184
			C62.937,287.062,62.963,293.009,63.175,293.946z"/>
		<path style="fill:#231815;" d="M101.107,369.451c25.913,6.533,58.488,0.229,78.663-17.816
			c8.512-7.613,14.291-16.881,16.971-28.033c1.443-6.007,2.211-12.26,2.441-18.431c0.067-1.793,0.393-14.336-1.945-14.63
			c1.804,0.227,3.206,7.129,3.473,8.354c0.849,3.897,1.111,7.926,1.102,11.907c-0.018,8.497-1.326,17.093-4.746,24.916
			c-7.343,16.797-23.624,28.755-40.463,34.858c-13.529,4.903-28.773,7.05-43.121,5.65c-8.943-0.873-17.818-2.927-26.113-6.411
			c-3.678-1.545-7.264-3.357-10.612-5.533c-0.697-0.453-6.825-5.581-6.472-5.662c1.436-0.356,4.306,2.071,5.564,2.723
			c3,1.556,6.104,2.898,9.279,4.052C90.291,367.272,95.675,368.63,101.107,369.451z"/>
		<path style="fill:#231815;" d="M43.395,289.053c-2.127,9.595-1.276,19.66,1.094,29.118c0.253,1.008,7.029,21.789,7.271,21.722
			c-2.182,0.606-7.922-10.389-8.589-11.942c-2.762-6.435-4.514-13.485-5.623-20.384c-0.724-4.508-0.106-9,0.429-13.513
			c0.379-3.198,1.121-15.169,5.373-16.629C43.372,277.418,43.314,287.613,43.395,289.053z"/>
		<path style="fill:#231815;" d="M227.952,240.921c-3.89,4.044-8.213,7.558-13.436,9.736c-2.428,1.012-5.011,1.801-7.645,2.016
			c-1.297,0.105-4.519-0.841-5.034-0.722c0.955-0.252,1.794-1.284,2.618-1.779c1.975-1.185,4.043-1.772,6.153-2.649
			c3.391-1.41,6.123-3.553,9.043-5.634c2.585-1.844,4.567-4.779,7.163-6.443C231.242,232.609,228.831,238.261,227.952,240.921z"/>
		<path style="fill:#231815;" d="M385.035,193.774c-3.432-11.691-4.178-24.662-2.726-36.732c0.878-7.303,2.545-17.051,10.427-19.807
			c21.882-7.652,48.473-7.358,71.206-5.203c10.784,1.022,23.868,3.112,29.785,13.388c4.487,7.792,6.246,18.839,8.106,27.647
			c1.901,9.004,4.403,22.466-1.053,30.673c-6.421,9.658-20.986,8.745-31.148,10.038c-25.276,3.214-48.314-7.554-73.347-8.03
			c-0.014-0.021,11.067-1.334,12.164-1.318c5.79,0.081,11.579,0.804,17.301,1.633c12.271,1.777,24.554,4.144,37.01,3.014
			c5.125-0.465,10.218-1.196,15.352-1.627c5.415-0.455,12.388-0.717,16.694-4.538c7.239-6.424,3.647-22.231,2.11-30.407
			c-1.632-8.681-2.711-21.296-8.873-28.024c-7.676-8.381-22.705-8.188-33.107-8.501c-11.096-0.334-22.255-0.204-33.26,1.405
			c-3.667,0.536-7.311,1.252-10.937,2.013c-4.701,0.987-12.504,1.59-16.563,4.25c-4.199,2.751-4.491,10.564-4.892,15.028
			c-0.585,6.521-0.44,13.113-0.415,19.652c0.021,5.642,0.183,11.315-0.117,16.952c-0.066,1.232,0.324,4.196-1.095,3.932
			C386.437,198.982,385.305,194.671,385.035,193.774z"/>
		<path style="fill:#231815;" d="M422.09,238.869c14.092-5.823,28.321-3.113,43.078-2.367c16.645,0.842,41.739,2.238,44.26,23.432
			c0.978,8.229-1.022,16.851-1.63,25.061c-0.751,10.15-0.997,20.328-1.41,30.495c-0.688,16.935-0.969,33.63-1.01,50.58
			c-0.02,8.209-2.207,16.741-1.846,24.839c0.211,4.715,2.778,2.759,4.62-0.417c2.331-4.019,2.675-9.264,2.769-13.796
			c0.355-17.005-1.331-33.821-0.484-50.877c0.834-16.798,0.425-33.649,1.219-50.44c0.408-8.636,1.262-17.846-3.251-25.662
			c-4.66-8.07-13.546-12.078-22.249-14.213c-8.198-2.011-16.41-1.792-24.653-2.951c-10.331-1.453-20.161-5.359-30.654-6.15
			c-6.191-0.466-16.974,0.956-19.396,7.781c-0.829,2.337-1.223,5.246,1.291,5.791c1.283,0.278,3.909-1.075,5.432-1.176
			C419.48,238.712,420.791,238.75,422.09,238.869z"/>
		<path style="fill:#231815;" d="M431.167,214.333c1.308,3.297,2.316,7.368,2.004,10.879c-0.365,4.115-3.477,8.912-4.459,2.434
			c-0.455-2.998-0.186-6.555-1.034-9.428c-0.407-1.378-1.909-1.473-0.909-3C427.478,214.133,430.182,213.991,431.167,214.333z"/>
		<path style="fill:#231815;" d="M459.417,217.456c0.105,3.961,2.025,11.364-1.901,14.224c-3.879,2.826-2.081-3.818-2.216-5.983
			c-0.167-2.687-0.802-4.948-0.443-7.691C455.409,213.801,456.95,215.036,459.417,217.456z"/>
		<path style="fill:#231815;" d="M29.552,357.053c15.15-10.983,28.694-23.897,43.491-35.315
			c6.761-5.217,13.624-10.299,20.103-15.868c1.666-1.432,13.35-12.72,15.699-11.15c-0.495-0.331-20.269,20.304-22.055,21.757
			c-9.707,7.897-19.445,15.549-28.587,24.11c-5.805,5.437-12.608,9.965-18.899,14.824c-5.102,3.94-10.195,7.897-15.612,11.401
			c-1.532,0.991-7.94,5.964-9.98,5.05c-0.221-0.099,7.052-6.665,7.764-7.299C24.223,362.121,26.912,359.611,29.552,357.053z"/>
		<path style="fill:#231815;" d="M78.878,341.94c-14.7,11.764-29.338,22.83-45.088,33.093c-3.439,2.24-7.237,5.12-9.384,8.702
			c-2.44,4.07-1.471,7.606,3.553,5.245c7.181-3.374,12.81-11.032,18.866-16.056c14.138-11.729,28.015-23.634,42.437-35.019
			c7.787-6.147,15.184-12.74,22.545-19.386c1.198-1.082,9.96-8.951,5.881-10.688c-3.889-1.656-14.655,13.057-17.29,15.652
			C93.656,330.123,86.259,336.035,78.878,341.94z"/>
		<path style="fill:#231815;" d="M112.489,321.47c3.704,5.148,4.542,12.094,2.928,18.145c-0.469,1.756-4.547,11.556-8.021,9.867
			c0.295,0.143,3.176-6.849,3.375-7.378c1.248-3.327,1.535-6.321,1.156-9.857c-0.219-2.045-0.344-4.311-1.176-6.225
			c-0.537-1.235-5.387-6.173-4.786-7.03C106.779,317.834,111.584,320.837,112.489,321.47z"/>
		<path style="fill:#231815;" d="M132.106,316.491c-2.236,6.486-1.837,14.334,0.163,20.823c1.913,6.204,4.584,8.333,10.505,9.507
			c-0.665-0.131-3.551,1.739-5.033,1.615c-2.401-0.202-4.453-1.799-5.88-3.631c-3.169-4.068-4.612-10.113-5.259-15.129
			c-0.534-4.142,0.917-22.21,7.074-21.579C133.421,308.07,132.112,315.841,132.106,316.491z"/>
		<path style="fill:#231815;" d="M136.289,300.967c4.816-4.637,10.441-8.521,16.604-11.14c2.057-0.875,11.536-4.878,13.747-2.451
			c-0.43-0.472-16.299,8.049-17.565,8.926c-2.227,1.543-15.02,12.028-15.255,11.845C132.81,307.361,135.979,301.556,136.289,300.967
			z"/>
		<path style="fill:#231815;" d="M128.758,282.957c3.926-0.574,7.509-2.986,10.735-5.119c2.104-1.391,5.26-4.358,7.907-4.75
			c0.959-0.142-3.993,6.395-4.673,6.948c-2.312,1.877-4.8,4.072-7.559,5.176c-2.069,0.828-7.497,2.898-9.319,1.527
			C123.352,284.86,127.012,284.42,128.758,282.957z"/>
		<path style="fill:#231815;" d="M92.98,264.246c4.452,6.396,10.276,12.239,16.855,16.433c3.061,1.951,6.39,3.6,9.975,4.309
			c1.818,0.359,6.279-0.413,7.778,0.358c-0.326-0.168-4.279,2.16-4.831,2.297c-2.617,0.65-5.301,0.328-7.852-0.444
			c-5.569-1.687-11.222-5.494-15.57-9.294c-2.596-2.269-4.641-5.202-6.786-7.898c-1.565-1.966-8.16-8.861-6.909-12.089
			C85.71,257.733,92.085,263.503,92.98,264.246z"/>
		<path style="fill:#231815;" d="M80.649,275.802c6.444,3.151,19.375,12.134,18.655,20.76c-0.007,0.083-4.441-3.62-4.643-3.842
			c-2.455-2.699-4.551-5.371-7.445-7.663c-1.733-1.373-13.214-8.205-13.073-8.736C74.437,275.215,79.596,275.719,80.649,275.802z"/>
		<path style="fill:#231815;" d="M343.179,229.199c2.781,8.625,11.689,17.177,5.924,26.642c-4.823,7.919-14.735,4.497-20.702-0.118
			c-1.498-1.159-3.2-2.536-4.274-4.116c-1.504-2.213-1.174-1.538,0.215-3.601c2.036-3.024,4.362-5.906,6.427-8.93
			C332.348,236.762,339.176,224.831,343.179,229.199z"/>
		<path style="fill:#231815;" d="M315.477,256.9c2.068,6.847,9.292,21.686-1.358,25.12c-7.812,2.519-11.723-8.979-19.126-9.657
			C299.465,266.433,307.689,257.887,315.477,256.9z"/>
		<path style="fill:#231815;" d="M411.919,302.042c-11.436-3.667-5.697-23.319-0.02-28.926
			C420.79,279.302,420.758,306.508,411.919,302.042z"/>
		<path style="fill:#231815;" d="M381.139,352.314c-4.63-8.455,16.346-24.803,18.968-13.381c1.521,6.624-2.745,19.897-8.514,23.76
			c-7.179,4.808-8.551-11.79-10.196-11.014C381.23,351.852,381.143,352.063,381.139,352.314z"/>
		<path style="fill:#231815;" d="M387.296,314.353c-1.037-2.353,0.498-4.791,2.081-6.455c0.463-0.486,3.359-3.134,4.148-2.948
			c0.576,0.136,1.131,1.733,1.489,2.133c2.181,2.438,3.232,7.482,3.079,10.64c-0.152,3.148-1.446,5.827-4.572,6.876
			c-2.258,0.757-5.349,0.573-6.219-1.217C386.036,320.777,388.507,316.98,387.296,314.353z"/>
		<path style="fill:#231815;" d="M382.166,230.225c-3.295,8.458-8.899,23.932,8.056,21.391
			C392.515,242.439,390.588,234.391,382.166,230.225z"/>
		<path style="fill:#231815;" d="M351.387,193.29c1.903,9.881,3.26,18.277,15.181,19.363
			C369.997,206.432,359.011,198.021,351.387,193.29z"/>
		<path style="fill:#231815;" d="M320.607,173.797c-10.774,3.206-19.684-18.147-8.062-16.808c5.821,0.671,10.994,6.997,14.847,10.89
			c1.89,1.91,4.421,4.199,3.058,7.26C328.374,179.8,322.704,176.686,320.607,173.797z"/>
		<path style="fill:#231815;" d="M272.388,132.759c-3.392-3.816-7.226-18.89,2.842-15.231
			C282.115,120.03,277.451,133.164,272.388,132.759z"/>
		<path style="fill:#231815;" d="M213.907,125.576c-4.761,1.815-7.631-7.599-2.075-9.303
			C218.908,114.103,218.45,127.914,213.907,125.576z"/>
		<path style="fill:#231815;" d="M206.725,147.122c-2.57-0.117-5.227-1.346-7.153-3.054
			C203.043,135.692,213.74,141.383,206.725,147.122z"/>
		<path style="fill:#231815;" d="M227.244,149.174c-7.652-1.694-2.853-6.958,3.151-7.08
			C232.554,145.995,230.53,149.019,227.244,149.174z"/>
		<path style="fill:#231815;" d="M239.43,235.619c3.754,8,9.777,15.003,15.47,21.667c0.956,1.119,12.239,12.06,11.455,13.848
			c0.062-0.142-6.601-5.425-6.956-5.769c-4.607-4.464-8.781-9.486-12.906-14.396c-2.566-3.054-4.609-6.33-6.622-9.767
			c-1.586-2.707-6.818-10.31-5.088-13.892C234.336,228.235,238.552,234.336,239.43,235.619z"/>
		<path style="fill:#231815;" d="M238.845,258.794c1.053,2.203,13.961,18.074,13.138,19.514c-0.54,0.946-10.529-10.402-11.36-11.599
			c-1.052-1.514-6.345-11.693-5.139-11.869C236.062,254.755,238.265,258.162,238.845,258.794z"/>
		<path style="fill:#231815;" d="M283.862,322.072c-2.093-3.431-5.973-3.65-4.204,1.21c2.007,5.514,7.174,10.226,10.88,14.625
			c4.369,5.187,8.341,10.688,12.716,15.868c4.023,4.763,9.032,11.365,14.652,14.308c5.29,2.77,3.598-1.75,0.949-4.14
			c-4.457-4.023-9.323-6.742-13.293-11.39C297.382,342.973,290.453,332.781,283.862,322.072z"/>
		<path style="fill:#231815;" d="M307.597,325.579c4.889,9.168,11.266,17.601,18.27,25.25c0.947,1.034,15.628,16.365,16.026,16.08
			c-0.435,0.312-5.125-2.355-5.702-2.667c-2.811-1.518-5.294-3.454-7.658-5.592c-4.668-4.221-8.895-8.949-13.019-13.694
			c-3.338-3.84-5.707-8.05-8.309-12.396c-1.817-3.036-8.792-11.967-7.255-15.991C299.891,316.729,306.624,324.442,307.597,325.579z"
			/>
		<path style="fill:#231815;" d="M231.151,361.446c-2.008-0.171-18.298-0.063-11.262,4.151c4.351,2.606,11.669,2.447,16.46,2.861
			c7.171,0.62,14.364,0.934,21.55,1.331c29.873,1.652,59.699,2.186,89.627,1.057c14.072-0.531,28.206-0.896,42.243-2.068
			c4.345-0.363,11.757-0.156,15.056-3.531c4.343-4.442-7.469-2.907-9.54-2.779c-12.775,0.788-25.383,3.093-38.144,4.025
			c-11.207,0.818-22.447,0.978-33.678,1.129c-16.119,0.217-32.564,0.931-48.596-1.135
			C260.298,364.608,245.791,362.739,231.151,361.446z"/>
		<path style="fill:#231815;" d="M254.759,381.612c27.702,4.448,55.247,3.72,83.203,2.9c12.782-0.375,25.57-0.808,38.335-1.574
			c1.573-0.094,24.726-2.367,24.192-3.531c-0.178,3.124-14.17,4.928-16.306,5.301c-8.056,1.405-16.232,2.085-24.391,2.54
			c-16.921,0.943-33.867,1.441-50.804,2.006c-13.429,0.448-26.544-0.027-39.887-1.699c-8.951-1.122-17.861-2.535-26.765-3.971
			c-2.16-0.348-18.272-1.28-19.19-3.516c0.038,0.092,15.648,0.309,16.975,0.402C245.003,380.814,249.881,381.223,254.759,381.612z"
			/>
	</g>
</g>
</svg>
