<?xml version="1.0" encoding="iso-8859-1"?>
<!-- Generator: Adobe Illustrator 21.1.0, SVG Export Plug-In . SVG Version: 6.00 Build 0)  -->
<svg version="1.1" id="_x31_2" xmlns="http://www.w3.org/2000/svg" xmlns:xlink="http://www.w3.org/1999/xlink" x="0px" y="0px"
	 viewBox="0 0 512 512" style="enable-background:new 0 0 512 512;" xml:space="preserve">
<g>
	<path style="fill:#FFFFFF;" d="M55.343,315.054c5.849-6.499,13.422-28.865,8.774-32.821c-4.648-3.956-12.998-5.524-16.898-15.598
		c-3.9-10.074-5.524-26.971-1.3-27.946s15.923,11.374,19.822,13.973c3.899,2.6,11.373,11.374,11.373,11.374s-2.275-7.474-1.3-15.598
		c0.975-8.124,5.199-13.648,7.149-16.898c1.95-3.25,7.474-2.925,10.074,2.275c2.6,5.199,4.874,12.348,3.25,22.747
		c-1.625,10.399-2.6,18.847-4.224,20.147c-1.625,1.3,8.449,0,14.948,3.574c6.499,3.574,8.774,12.348,11.048,16.898
		c2.275,4.549-0.975,11.048-4.874,16.573c-3.899,5.524-13.323,14.298-15.598,17.873c-2.275,3.574-1.625,3.899,8.124,4.549
		c9.749,0.65,22.747,0.65,27.946-1.95c5.199-2.6,7.799-5.199,12.023-9.099c4.224-3.899,6.174-6.499,8.124-3.574
		c1.95,2.925-0.325,5.524-0.325,7.149c0,1.625-0.65,8.124-3.25,11.373c-2.6,3.25-6.824,4.874-6.824,4.874
		s-12.673,7.474-25.996,8.449c-13.323,0.975-16.898-0.325-16.898-0.325s-10.399,26.971-13.648,30.546
		c-3.25,3.575,0.325,7.149,0.325,7.149s1.95,2.925,3.25,11.048c1.3,8.124,0.325,17.223,0.975,23.072
		c0.65,5.849,5.849,12.023,11.048,12.998c5.199,0.975,9.749-2.275,13.648-1.3c3.899,0.975,2.6,5.199,2.6,5.199
		s2.829,3.764,0.65,7.474c-2.179,3.71-11.698,3.574-18.522,2.925s-14.948-0.975-18.847-3.9c-3.899-2.925-3.899-2.925-3.899-2.925
		s3.575,1.3-1.625-4.224c-5.199-5.524-8.449-8.774-10.724-14.948c-2.275-6.174-9.099-10.399-10.723-12.348
		c-1.625-1.95,0.325,12.673-6.824,16.573c-7.149,3.9-14.948,7.474-22.747,9.749c-7.799,2.275-8.774,5.524-6.499,9.099
		s4.549,3.25,11.698,1.95c7.149-1.3,6.499-1.3,7.149,2.275c0.65,3.574-0.65,1.95-1.3,4.874c-0.65,2.925,0.975,3.899-10.074,3.899
		s-15.273,0.975-20.472-4.874c-5.199-5.849-5.849-9.099-3.575-12.673c2.275-3.574,5.524-8.449,11.373-12.023
		c5.849-3.574,12.673-8.449,13.973-13.648c1.3-5.199,1.95-23.722,0-29.896c-1.95-6.174,0-2.925-5.199-5.524
		c-5.199-2.6-12.998-4.874-9.099-10.074s14.623-9.424,19.497-16.248c4.874-6.824,15.598-25.671,15.598-25.671L55.343,315.054z"/>
	<path style="fill:#FFFFFF;" d="M336.755,135.353c-2.6-6.499-10.724-22.097-12.023-39.645c-1.3-17.548,9.099-37.695,9.099-37.695
		s14.298,11.373,17.873,19.497c3.574,8.124,5.524,25.347,5.524,32.821s-3.965,26.738-1.691,25.763
		c2.275-0.975,10.14-16.014,10.465-23.813c0.325-7.799-0.325-20.147,5.849-35.745c6.174-15.598,18.847-29.246,24.047-20.472
		c5.199,8.774,6.499,21.772,4.224,31.521c-2.275,9.749-16.573,36.07-17.548,45.494c-0.975,9.424-3.574,17.873,1.3,23.722
		c4.874,5.849,15.273,18.522,23.722,23.072c8.449,4.549,25.022,20.147,29.896,28.596c4.874,8.449,11.374,15.923,14.623,20.797
		c3.25,4.874,11.048,35.095,19.822,42.569s15.923,11.374,14.298,12.998c-1.625,1.625-6.174,5.524-8.124,6.499
		c-1.95,0.975-7.799,11.698-5.849,16.898c1.95,5.199-1.625,20.472,6.174,33.796c7.799,13.323,9.424,28.271,19.172,41.269
		c9.749,12.998,15.598,28.921,10.399,37.37c-5.199,8.449-39.645,25.671-50.043,28.596c-10.399,2.925-14.623,1.95-19.497,6.499
		c-4.874,4.549-11.698,3.9-12.023,0c0,0-4.851-2.799-5.849-7.149c-3.613-0.365-5.199-1.625-1.95-6.824
		c3.249-5.199,12.673-5.849,22.422-7.474c9.749-1.625,17.548-4.224,25.022-11.374c7.474-7.149,14.298-19.172,9.749-28.271
		c-4.549-9.099-27.946-28.921-39.97-35.095c-12.023-6.174-25.022-14.298-27.296-20.147c-2.275-5.849-2.6-18.848-4.224-17.548
		c-1.625,1.3-5.199,26.971-2.275,36.395c2.925,9.424,5.849,19.497,9.424,26.321c3.574,6.824,3.574,13.323,5.849,18.848
		c2.275,5.524,3.9,15.923-7.474,23.072c-11.373,7.149-20.472,9.424-23.072,10.399c-2.6,0.975-4.649,3.391-7.149,2.275
		c-2.5-1.116-5.199,0.975-8.449-1.625c-4.224,2.275-7.799,0.65-10.399-0.975c-3.575,0.975-5.524-5.199-2.275-10.399
		c3.249-5.199,9.749-7.149,19.822-8.774c10.074-1.625,18.522-7.799,18.848-13.973c0.325-6.174-0.975-12.023-7.474-17.873
		c-6.499-5.849-27.621-20.472-34.77-28.921c-7.149-8.449-8.774-22.097-6.824-28.921c1.95-6.824,4.549-14.298,9.424-19.497
		s11.048-14.948,11.048-14.948s-22.097,10.074-30.221,14.298s-9.749,2.925-11.048,4.549c-1.3,1.625-4.549,11.048-7.799,12.673
		c-3.249,1.625-5.199-2.925-5.849-3.899c-0.65-0.975-5.849,3.899-9.424,6.174c-3.574,2.275-12.023,3.574-12.998-2.275
		c-4.549-0.975-4.224,0.325-6.174-3.25c-1.95-3.575-0.975-7.474,1.3-9.749c2.275-2.275,9.099-7.149,9.099-7.149
		s20.147-10.074,30.871-14.623s34.445-20.797,35.745-23.722c1.3-2.925-1.625-12.348-2.925-14.623
		c-1.3-2.275-8.449-13.973-12.023-16.573c-3.574-2.6-6.174,4.874-9.749,8.449c-3.574,3.575-10.723,19.822-40.944,30.221
		c-30.221,10.399-33.146,11.698-35.745,13.648c-2.6,1.95,0.134,4.562-12.023,3.574c-12.158-0.988-7.799-1.95-9.099-2.275
		c-1.3-0.325-4.224,2.275-8.449-1.95c-4.224-4.224,1.3-10.724,3.575-11.048c2.275-0.325,13.323-4.549,13.323-4.549
		s-0.975-0.65-1.95-2.275c-0.975-1.625-5.199-2.925-1.95-6.174c3.25-3.25,5.524-4.549,12.348-5.199
		c6.824-0.65,10.074,1.625,16.573-0.65c6.499-2.275,27.296-10.399,39.32-22.747c12.023-12.348,15.273-16.573,18.522-21.447
		c3.25-4.874,6.174-11.048,8.124-13.323s3.574-3.574,3.574-3.574s-10.074-6.174-17.548-8.774c-7.474-2.6-10.724-8.124-12.023-13.973
		c-1.3-5.849,1.95-17.548,6.499-23.397s10.399-8.774,10.399-8.774l7.474-2.925L336.755,135.353z"/>
	<g>
		<path style="fill:#231815;" d="M103.082,277.578c9.007,3.71,18.043,12.161,17.521,22.645c-0.339,6.812-4.543,12.929-8.797,17.982
			c-2.031,2.413-4.221,4.684-6.482,6.882c-0.791,0.769-4.838,3.536-5.104,4.477c1.421-5.031,7.369-10.546,10.403-14.681
			c4.51-6.148,8.585-13.247,5.171-20.859c-2.114-4.712-5.285-8.643-9.756-11.285c-1.216-0.719-16.514-6.413-16.94-5.338
			C90.047,275.01,101.216,277.158,103.082,277.578z"/>
		<path style="fill:#231815;" d="M129.155,285.813c5.522-2.801,14.208-10.106,20.893-8.589c-0.823-0.187-6.342,3.329-7.298,3.784
			c-2.596,1.235-4.926,2.891-7.439,4.237c-2.116,1.133-6.348,4.356-8.703,4.11C124.174,289.101,128.134,286.813,129.155,285.813z"/>
		<path style="fill:#231815;" d="M135.215,294.97c5.301-0.591,10.463-2.188,15.666-3.296c2.17-0.462,11.2-3.074,13.014-0.728
			c-0.401-0.518-7.475,1.757-8.021,1.877c-3.811,0.842-7.517,2.003-11.3,2.911c-1.545,0.371-3.109,0.522-4.681,0.767
			c-0.477,0.074-11.268,1.337-10.647,0.076C129.572,295.918,134.257,295.338,135.215,294.97z"/>
		<path style="fill:#231815;" d="M135.525,302.96c2.313,0.979,14.29,2.342,14.747,5.337c0.028,0.18-10.531-1.452-11.893-1.843
			c-1.221-0.351-5.772-1.507-6.245-2.922C131.671,302.142,134.626,303.009,135.525,302.96z"/>
		<path style="fill:#231815;" d="M98.918,298.989c-5.958,0.09-4.033-9.982,1.418-8.167
			C105.936,292.687,102.094,301.547,98.918,298.989z"/>
		<path style="fill:#231815;" d="M70.842,259.152c-7.095-8.134-17.237-13.492-26.317-19.081c-0.322,8.852,0.469,17.85,4.538,25.869
			c2.473,4.875,6.055,9.038,10.406,12.339c1.442,1.094,10.217,4.815,10.53,6.233c-0.077-0.352-11.381-4.268-12.35-4.866
			c-4.718-2.912-8.544-7.105-11.176-11.973c-5.676-10.495-5.81-22.532-5.04-34.12c7.806,5.355,16.004,10.059,23.537,15.83
			c5.02,3.846,9.917,8.217,12.915,13.877c1.289,2.433,2.253,5.096,2.574,7.842c0.054,0.463-0.173,5.71-0.542,5.409
			c-0.99-0.659-2.117-8.238-2.922-9.727C75.429,263.892,73.277,261.346,70.842,259.152z"/>
		<path style="fill:#231815;" d="M94.146,259.489c1.237-7.161,1.506-15.165-1.661-21.893c-0.825-1.752-4.578-8.313-6.921-7.754
			c-3.225,0.77-6.445,10.792-7.175,13.2c-0.383,1.263-3.082,15.627-0.955,16.069c-1.746-0.362-2.541-8.503-2.587-9.992
			c-0.166-5.353,1.554-10.629,4.093-15.288c0.868-1.593,3.956-7.614,5.93-8.091c1.405-0.339,3.956,1.859,5.197,2.922
			c6.135,5.257,8.148,12.254,8.252,20.01c0.066,4.91-0.432,9.873-1.457,14.673c-0.223,1.045-3.699,11.789-4.166,11.336
			c-0.876-0.85,0.802-6.825,0.933-7.973C93.902,264.31,94.091,261.903,94.146,259.489z"/>
		<path style="fill:#231815;" d="M63.541,299.054c-0.777,4.073-1.933,8.193-4.222,11.705c-0.598,0.917-4.169,6.038-5.629,5.154
			c-0.555-0.336,4.636-11.498,5.105-12.895c0.476-1.419,1.246-6.614,2.114-7.328C62.715,294.205,62.984,297.141,63.541,299.054z"/>
		<path style="fill:#231815;" d="M53.503,322.88c-5.732,2.461-7.956,5.448-9.522,11.186c-2.149,7.875-5.867,13.927-11.273,19.92
			c-5.019,5.563-10.064,11.588-16.953,14.928c-2.354,1.141-4.114,0.993-5.284,2.981c-0.346,0.588,1.229-0.381,1.325-0.501
			c-0.135,0.126-0.471,0.196-0.654,0.255c0.984,0.42,0.621,0.769,2.314,0.878c2.766,0.178,5.52-2.142,7.613-3.601
			c5.955-4.15,10.214-9.996,14.673-15.624C43.101,344.014,50.325,334.569,53.503,322.88z"/>
		<path style="fill:#231815;" d="M91.017,329.602c-3.736,1.141,1.533,6.513,3.014,7.34c2.207,1.231,4.323,1.177,6.696,1.135
			c7.844-0.14,15.663-1.198,23.475-1.832c8.074-0.655,12.822-2.88,19.052-7.843c1.564-1.246,6.94-6.465,9.103-5.671
			c1.616,0.593,1.904,6.231,2.898,5.837c2.035-0.807,1.054-6.307,0.062-7.407c-2.313-2.564-5.69-0.741-8.04,0.77
			c-6.282,4.039-10.409,9.978-17.928,11.81c-7.095,1.729-14.901,1.072-22.105,0.443c-3.243-0.283-6.462-0.824-9.621-1.616
			C95.093,331.935,93.234,330.379,91.017,329.602z"/>
		<path style="fill:#231815;" d="M99.026,350.361c8.547,2.637,17.851,2.234,26.512,0.385c1.328-0.283,18.355-5.149,18.165-5.959
			c0.126,0.533-3.609,3.21-4.245,3.673c-2.478,1.805-5.26,3.039-8.159,4.001c-5.58,1.851-11.733,3.149-17.619,3.463
			c-3.48,0.186-7.1-0.52-10.514-1.165c-2.888-0.546-13.034-2.173-14.091-5.957C89.181,349.187,97.603,350.244,99.026,350.361z"/>
		<path style="fill:#231815;" d="M146.465,341.121c4.991-1.19,3.179-11.048,7.941-12.668c0.546-0.186-0.491,6.261-0.647,6.841
			c-0.693,2.567-1.062,4.565-2.8,6.516c-1.069,1.199-4.887,4.282-6.585,2.211C143.18,342.565,145.797,342.475,146.465,341.121z"/>
		<path style="fill:#231815;" d="M97.274,365.486c-1.404,5.966-5.392,15.712-10.518,19.596c-0.445,0.337,0.703-5.699,0.979-6.294
			c1.135-2.451,2.416-4.83,3.524-7.298c0.754-1.678,3.522-11.009,4.261-11.008C96.507,360.484,97.119,364.624,97.274,365.486z"/>
		<path style="fill:#231815;" d="M79.691,379.623c5.764,10.069,10.209,20.082,9.879,31.941c-0.191,6.874-0.159,14.532,3.631,20.573
			c1.732,2.761,4.3,5.088,7.419,6.156c1.18,0.404,6.697,1.585,6.693-0.72c-0.002-0.741-6.194-2.132-6.976-2.527
			c-2.947-1.489-4.88-3.949-6.226-6.908c-2.725-5.992-3.235-13.489-2.752-19.977C92.137,397.677,92.329,382.867,79.691,379.623z"/>
		<path style="fill:#231815;" d="M47.297,400.882c3.568,3.861,10.088,11.983,10.067,17.66c-0.004,1.189-5.645-5.445-5.631-5.424
			c-1.369-2.176-2.847-4.328-4.272-6.418c-1.028-1.508-3.973-3.918-4.493-5.586C42.055,398.19,45.527,400.173,47.297,400.882z"/>
		<path style="fill:#231815;" d="M64.908,420.883c0.043,2.362,3.083,7.676,1.827,9.829c-1.259,2.157-3.117-1.963-3.694-3.157
			C61.735,424.85,60.076,415.654,64.908,420.883z"/>
		<path style="fill:#231815;" d="M83.867,447.291c6.409,3.796,15.84,2.433,23.052,3.331c3.152,0.392,9.003,1.356,11.37-1.675
			c1.667-2.135-1.863-4.322-1.884-4.294c0.93-1.218,4.584,1.958,4.792,2.935c0.519,2.433-2.135,4.436-4.015,5.384
			c-5.121,2.581-11.167,0.505-16.579,0.423c-4.726-0.072-9.067-0.194-13.69-1.406c-2.33-0.611-4.895-1.437-6.665-3.164
			c-1.441-1.405-4.033-6.37-1.376-8.007c0.048-0.03,1.292,3.901,1.474,4.162C81.17,446.163,82.472,446.939,83.867,447.291z"/>
		<path style="fill:#231815;" d="M115.036,439.596c2.148,0.233,5.508-0.204,6.413,2.429c0.892,2.596-0.125,1.827-1.594,1.974
			c-0.695,0.07-2.621-0.659-3.35-0.885C114.488,442.487,112.427,441.759,115.036,439.596z"/>
		<path style="fill:#231815;" d="M111.647,433.917c2.615-0.12,6.568-1.794,8.732,0.67c2.764,3.148-1.023,1.941-2.909,2.098
			C114.994,436.891,107.353,438.433,111.647,433.917z"/>
		<path style="fill:#231815;" d="M30.819,396.095c0.208,9.262,0.379,19.408-4.592,27.617c-2.056,3.396-4.924,6.263-8.492,8.056
			c-0.766,0.385-10.018,2.757-9.822,1.937c0.102-0.425,4.666-2.036,5.113-2.281c2.218-1.215,4.436-2.587,6.326-4.28
			c4.465-3.999,6.393-9.446,7.135-15.245c0.475-3.715,1.077-7.368,1.086-11.128c0.007-2.992-2.076-12.054,0.214-14.647
			C27.754,386.164,30.497,394.812,30.819,396.095z"/>
		<path style="fill:#231815;" d="M48.398,432.24c-4.836,3.791-10.929,5.359-16.626,7.355c-2.801,0.981-13.946,4.022-12.242,8.439
			c1.648,4.274,11.667,1.642,14.908,1.506c0.967-0.041,3.413-0.529,4.187,0.09c0.367,0.294,0.909,5.602,0.522,5.753
			c0.774-0.303-1.599-4.001-2.396-4.236c-1.157-0.341-3.93,0.942-5.131,1.194c-2.231,0.468-4.505,0.881-6.793,0.899
			c-5.076,0.041-11.711-3.939-7.625-9.606c4.378-6.071,13.929-7.413,20.512-9.655c4.066-1.385,8.146-3.288,10.868-6.728
			c0.543-0.687,4.287-8.226,4.049-8.352C55.957,420.669,49.636,430.87,48.398,432.24z"/>
		<path style="fill:#231815;" d="M31.543,464.749c-9.183,0.916-18.668,0.798-25.77-5.776c-3.045-2.819-6.419-7.213-5.666-11.677
			c0.356-2.111,1.534-3.804,3.37-4.878c0.298-0.174,3.412-1.298,3.404-0.933c-0.01,0.443-3.096,2.522-3.529,3.447
			c-1.035,2.213-0.626,4.379,0.454,6.533c2.145,4.276,7.016,8.272,11.745,9.246c3.603,0.742,7.679,1.017,11.351,0.964
			c1.765-0.025,5.827,0.202,7.434-0.937c2.108-1.495,0.512-1.423,0.834-3.36c0.028-0.166,2.617,1.954,2.075,3.744
			C36.625,463.162,33.354,464.193,31.543,464.749z"/>
		<path style="fill:#231815;" d="M111.841,299.397c1.52,0.336,6.645-1.754,7.681,0.071c1.021,1.8-1.455,2.097-2.887,2.685
			C114.206,303.15,106.804,302.375,111.841,299.397z"/>
		<path style="fill:#231815;" d="M26.456,378.196c-1.114,0.562-9.127,2.88-9.806,0.562c-0.466-1.59,2.892-1.254,4.453-1.52
			C22.569,376.988,29.791,374.007,26.456,378.196z"/>
		<path style="fill:#231815;" d="M24.711,387.094c-3.73,0.388-14.825,2.34-16.047-3.559c0.439,2.118,9.956,1.708,11.82,1.578
			C24.163,384.855,31.188,383.367,24.711,387.094z"/>
		<path style="fill:#231815;" d="M99.447,317.788c-1.907,2.633-9.105,8.129-12.352,4.315c0.481,0.565,6.479-2.273,7.335-2.853
			c1.119-0.758,4.202-4.833,4.834-4.706C99.951,314.682,99.542,317.26,99.447,317.788z"/>
		<path style="fill:#231815;" d="M81.608,314.658c-2.043,1.52-8.43,4.915-10.361,1.363c-0.004-0.008,5.509-1.38,5.905-1.53
			c0.932-0.354,4.468-2.916,5.074-2.364C82.676,312.538,81.873,314.12,81.608,314.658z"/>
		<path style="fill:#231815;" d="M45.4,261.011c-2.456-3.377-3.279-8.002-3.609-12.068c-0.18-2.212-0.871-8.404,1.34-10.008
			c3.163-2.294,13.52,7.158,15.916,9.248c1.406,1.226,3.563,2.458,1.559,3.097c-1.2,0.382-3.839-1.791-4.994-0.942
			c-1.083,0.796-0.289,3.204-0.15,4.204c0.174,1.258,1.087,2.191,0.038,3.008c-1.248,0.971-4.832-3.321-5.913-2.811
			c-0.948,0.448-0.178,1.172-0.74,2.444C48.141,258.78,46.814,260.024,45.4,261.011z"/>
		<path style="fill:#231815;" d="M76.422,243.372c0.995-2.984,4.018-6.214,6.684-3.203c1.229,1.389,0.927,4.03,3.33,4.171
			c1.034,0.061,1.776-1.313,2.51-1.32c1.138-0.01,2.708,2.832,4.206,2.528c2.091-0.425,0.088-5.58-0.332-7.077
			c-0.992-3.532-3.911-14.89-9.091-10.049C79.954,231.951,78.053,238.597,76.422,243.372z"/>
		<path style="fill:#231815;" d="M336.589,136.473c-13.304,3.799-22.867,14.955-24.878,28.767
			c-0.999,6.861-0.07,14.052,5.049,19.102c5.247,5.177,13.074,6.542,19.672,9.227c2.589,1.053,5.067,2.252,7.297,3.96
			c1.297,0.993,5.681,5.962,6.609,1.676c0.821-3.791-12.118-8.029-15.071-9.132c-5.72-2.137-12.517-3.409-16.883-8.026
			c-5.209-5.509-4.832-13.804-3.035-20.681c1.803-6.899,5.881-14.968,12.306-18.67c3.297-1.899,7.466-1.229,10.675-3.029
			C342.666,137.233,340.693,134.371,336.589,136.473z"/>
		<path style="fill:#231815;" d="M355.536,136.095c6.098-3.76,10.37-7.981,11.335-15.232c1.196-8.986-0.563-18.221,0.885-27.121
			c1.365-8.387,5.202-17.084,9.16-24.515c1.83-3.435,3.874-6.836,6.435-9.781c0.772-0.887,8.225-7.552,7.849-7.919
			c-4.213-4.106-13.83,10.866-15.148,13.199c-4.369,7.737-7.486,16.421-9.317,25.108c-1.692,8.023-1.686,16.27-3.289,24.282
			C361.904,121.824,357.571,128.542,355.536,136.095z"/>
		<path style="fill:#231815;" d="M377.48,141.173c-0.237,1.916-0.449,9.556,3.315,8.29c2.237-0.753,2.924-8.621,3.323-10.35
			c1.951-8.452,3.828-17.025,6.799-25.191c5.955-16.368,21.981-37.169,14.263-55.459c-0.994-2.355-4.217-7.196-5.502-2.685
			c-0.772,2.709,1.261,7.454,1.671,10.202c1.225,8.216,0.263,15.59-2.874,23.259C391.515,106.248,380.807,122.935,377.48,141.173z"
			/>
		<path style="fill:#231815;" d="M339.438,138.008c-3.171-3.29-2.301-8.834-3.653-12.912c-0.691-2.085-1.837-3.847-2.876-5.75
			c-4.154-7.613-7.627-17.09-7.999-25.779c-0.371-8.661,1.362-18.26,4.095-26.458c1.404-4.212,3.245-8.378,5.917-11.947
			c0.598-0.799,6.771-7.707,5.962-8.132c-2.445-1.285-7.044,4.397-8.221,5.933c-2.922,3.814-4.863,8.356-6.27,12.921
			c-2.821,9.156-3.549,18.859-3.18,28.392c0.306,7.894,1.82,15.466,3.885,23.083C328.978,124.287,331.66,135.461,339.438,138.008z"
			/>
		<path style="fill:#231815;" d="M350.592,68.988c1.992,5.627,4.841,10.915,6.317,16.729c1.652,6.502,1.8,13.452,1.629,20.123
			c-0.159,6.24-0.781,12.458-1.549,18.65c-0.271,2.189-0.564,4.375-0.892,6.556c-0.122,0.809-1.266,4.285-1.015,4.883
			c-1.695-4.049-0.914-11.198-0.754-15.385c0.333-8.736,1.189-17.354,0.066-26.082c-0.688-5.348-1.794-10.667-3.727-15.706
			c-1.676-4.371-3.863-8.547-4.963-13.123c-0.161-0.67-1.052-10.494,0.079-9.957c0.92,0.437,1.583,6.178,1.955,7.224
			C348.491,65.016,349.494,67.03,350.592,68.988z"/>
		<path style="fill:#231815;" d="M358.14,186.269c0.928,0.781,7.432,3.571,8.506,3.417c-1.364-0.038-2.751,0.747-4.432,0.577
			c-1.14-0.115-2.18-0.246-3.198-0.692C356.99,188.683,353.795,184.577,358.14,186.269z"/>
		<path style="fill:#231815;" d="M366.129,178.915c0.717,0.618,7.073,2.655,7.822,2.559c-2.414,0.041-4.534,1.501-7.252,0.393
			C364.63,181.025,362.332,177.612,366.129,178.915z"/>
		<path style="fill:#231815;" d="M374.001,173.321c3.232,4.01,9.325,2.961,12.733,6.172c0.16,0.15-3.146,0.525-3.498,0.5
			c-2.026-0.145-4.959-0.905-6.791-1.835c-1.259-0.639-7.089-6.164-5.132-6.621C371.996,171.378,373.184,172.993,374.001,173.321z"
			/>
		<path style="fill:#231815;" d="M338.705,198.087c-9.879,5.402-11.749,16.057-18.068,24.323
			c-7.08,9.262-15.656,17.56-25.836,23.338c-8.73,4.955-19.636,10.76-29.907,10.884c-5.676,0.068-10.396-1.091-15.756,1.365
			c-1.969,0.902-4.569,1.897-6.143,3.393c-0.025,0.024-2.315,2.636-1.359,2.513c2.898-1.348,6.659-3.364,9.901-4.574
			c5.429-2.025,11.241,0.25,16.859-0.533c11.496-1.601,22.435-7.881,32.24-13.792c9.663-5.825,17.669-13.406,24.717-22.166
			c3.451-4.29,5.791-9.325,8.702-13.972c1.477-2.358,3.016-4.735,4.628-7.002C339.436,200.804,343.438,195.213,338.705,198.087z"/>
		<path style="fill:#231815;" d="M247.404,269.285c5.859,2.995,13.16,3.454,19.579,3.384c0.061-0.001-2.044,1.729-2.495,1.902
			c-1.596,0.611-3.436,0.378-5.08,0.253c-2.853-0.216-5.918-0.541-8.634-1.425c-1.496-0.487-6.357-1.803-6.795-3.135
			c-0.397-1.208,3.013-4.017,3.565-2.871C247.959,268.258,245.511,269.111,247.404,269.285z"/>
		<path style="fill:#231815;" d="M241.949,275.079c-3.993,0.798-10.705,1.927-11.941,6.69c-0.678,2.612,0.677,4.361,2.93,5.57
			c2.147,1.152,5.326,0.357,7.163,1.412c-0.185-0.106-3.002,1.188-3.567,1.268c-1.832,0.259-3.626-0.026-5.275-0.866
			c-4.759-2.425-5.133-7.727-2.006-11.712c1.898-2.419,18.948-7.709,19.153-5.787C248.509,272.606,242.657,274.744,241.949,275.079z
			"/>
		<path style="fill:#231815;" d="M243.212,288.671c2.681,2.242,6.527,1.236,9.692,1.445c2.546,0.169,3.619,0.544,0.655,2.021
			c-2.07,1.031-6.353,1.178-8.544,0.553c-0.898-0.257-6.663-3.46-4.798-4.668C240.778,287.658,242.428,288.555,243.212,288.671z"/>
		<path style="fill:#231815;" d="M259.344,285.38c2.834-3.819,7.592-3.423,11.762-4.84c7.664-2.605,15.281-5.382,22.918-8.066
			c7.612-2.675,15.144-5.813,22.233-9.689c6.742-3.687,10.804-8.95,15.805-14.605c1.651-1.867,4.526-5.631,7.242-5.875
			c3.426-0.308-0.101,1.871-1.315,2.955c-4.66,4.16-7.611,9.877-12.155,14.189c-9.588,9.098-24.067,13.807-36.071,18.556
			c-5.894,2.332-11.646,4.773-17.244,7.74c-2.911,1.543-4.129,3.288-7.554,2.561C263.337,287.962,256.787,288.242,259.344,285.38z"
			/>
		<path style="fill:#231815;" d="M390.411,222.213c-3.441-0.357-8.036-0.16-9.747,3.425c-1.607,3.367-0.136,7.794-1.915,11.225
			c-1.28,2.467-3.598,4.512-5.08,7.049c-3.037,5.2-5.991,10.453-9.494,15.361c-5.1,7.144-11.004,13.415-18.216,18.457
			c-9.702,6.783-21.099,10.813-31.881,15.504c-3.881,1.688-7.747,3.157-11.677,4.686c-3.799,1.478-12.457,5.581-12.956,10.332
			c-0.522,4.973,3.499,1.038,4.885-0.508c3.717-4.144,9.071-6.842,14.034-9.17c16.721-7.84,34.817-13.773,48.418-26.752
			c7.812-7.454,13.451-16.259,19.372-25.188c3.004-4.53,6.593-8.297,8.46-13.443c0.943-2.601,1.721-3.504,3.559-5.627
			C389.578,225.945,390.759,224.559,390.411,222.213z"/>
		<path style="fill:#231815;" d="M327.613,315.771c-2.79,3.319-4.647,9.831-9.263,11.101c-4.12,1.134-8.164-4.291-6.735-8.168
			c-0.084,0.227,4.445,5.114,5.59,4.886c1.878-0.374,3.109-4.042,4.121-5.476c1.316-1.864,3.383-5.821,5.624-6.733
			C330.884,309.782,328.005,313.591,327.613,315.771z"/>
		<path style="fill:#231815;" d="M308.211,325.429c-4.955,3.512-10.584,8.35-16.71,3.829c-3.361-2.48-3.616-8.91,1.99-8.304
			c-1.123-0.121-2.676,2.813-2.436,4.061c0.588,3.063,5.533,3.566,7.788,2.975c1.913-0.502,12.957-7.994,13.137-6.756
			C312.073,321.873,308.745,324.673,308.211,325.429z"/>
		<path style="fill:#231815;" d="M289.091,324.753c-8.612,1.217-8.188-13.31-1.279-14.628c-2.037,0.388-3.377,8.314-2.622,10.107
			c0.393,0.934,0.98,1.934,1.946,2.319c0.911,0.364,4.969-1.159,5.235-0.49C292.669,322.811,289.691,324.448,289.091,324.753z"/>
		<path style="fill:#231815;" d="M352.98,298.885c15.728-6.947,30.642-18.786,41.228-32.263c5.142-6.546,9.462-13.667,13.305-21.039
			c1.797-3.446,3.485-6.945,5.167-10.448c0.606-1.262,2.364-6.733,3.541-6.898c-0.771,0.108-2.817,10.005-3.187,11.118
			c-1.864,5.609-4.308,11.004-7.23,16.14c-6.108,10.734-13.889,20.383-23.02,28.689c-5.577,5.073-12.174,8.951-18.663,12.743
			c-5.314,3.106-10.587,5.792-16.332,8.006c-1.098,0.423-12.666,4.834-12.546,5.463C334.788,306.638,350.331,300.436,352.98,298.885
			z"/>
		<path style="fill:#231815;" d="M403.18,180.343c10.203-4.577,18.82,2.803,24.163,10.756c6.867,10.221,12.418,21.093,20.039,30.814
			c8.415,10.733,13.203,22.955,18.707,35.299c2.621,5.877,6.086,11.553,10.187,16.52c1.749,2.119,3.683,4.153,5.812,5.896
			c0.598,0.489,6.902,4.151,7.042,3.798c-1.987,4.116-9.724-1.478-11.462-3.055c-4.488-4.072-7.945-9.403-10.906-14.64
			c-6.427-11.368-9.46-24.333-16.091-35.646c-2.689-4.588-6.114-7.988-9.536-11.981c-4.484-5.229-8.265-11.018-12.43-16.494
			C421.951,192.73,414.001,184.007,403.18,180.343z"/>
		<path style="fill:#231815;" d="M339.119,230.868c8.668-2.669,10.188,5.738,14.486,11.424c3.024,4.001,5.822,7.551,7.347,12.434
			c0.388,1.242,2.962,10.294-0.067,10.469c-1.323,0.076-1.584-7.303-1.839-8.481c-0.888-4.093-2.51-8.533-5.162-11.827
			C349.682,239.667,343.908,235.552,339.119,230.868z"/>
		<path style="fill:#231815;" d="M473.945,285.403c3.361,2.941,8.101,4.301,11.315,7.243c0.294,0.269-2.982,0.326-3.284,0.266
			c-1.811-0.363-4.302-1.766-5.866-2.782c-1.077-0.699-6.191-4.498-5.346-5.458C471.132,284.254,473.422,285.277,473.945,285.403z"
			/>
		<path style="fill:#231815;" d="M472.864,296.834c2.916,2.124,8.756,3.587,10.657,6.751c0.3,0.5-4.47-0.682-4.465-0.68
			c-1.546-0.611-3.281-1.335-4.708-2.179C471.808,299.226,467.101,295.747,472.864,296.834z"/>
		<path style="fill:#231815;" d="M413.717,303.997c-9.512,1.214-11.354,17.255-10.578,24.417c0.811,7.488,4.517,13.685,9.957,18.781
			c14.426,13.51,34.581,18.625,48.975,32.399c6.909,6.611,13.546,14.779,13.367,24.853c-0.183,10.328-7.886,16.805-16.298,21.39
			c-8.639,4.709-17.826,5.354-27.295,7.373c-4.297,0.916-8.98,2.048-12.4,4.985c-1.607,1.38-6.195,8.332-2.465,10.053
			c-0.143-0.066,2.068-5.406,2.487-5.914c2.017-2.446,5.519-3.617,8.438-4.514c6.975-2.144,14.329-2.634,21.398-4.371
			c13.289-3.265,28.919-13.765,28.888-28.866c-0.029-14.229-11.691-24.017-21.696-32.422c-12.332-10.36-28.557-16.269-39.481-28.239
			c-5.142-5.634-7.122-12.166-7.621-19.694c-0.281-4.243-0.132-8.613,0.842-12.766C410.402,310.756,413.626,303.831,413.717,303.997
			z"/>
		<path style="fill:#231815;" d="M349.618,334.699c-0.886,13.217,10.348,25.832,19.869,33.614
			c10.369,8.475,25.687,14.439,29.165,28.77c3.366,13.871-11.534,20.321-22.414,23.398c-5.094,1.441-11.852,1.531-15.916,5.355
			c-1.883,1.772-3.944,5.152-3.593,7.864c0.093,0.72,1.821,4.507,3.212,3.913c-3.081,1.316-4.349-4.881-4.122-6.594
			c0.484-3.648,2.801-6.997,5.88-8.915c6.366-3.965,14.892-4.661,21.782-7.724c8.053-3.579,14.672-9.087,11.038-18.62
			c-3.037-7.966-10.758-12.935-17.592-17.373c-12.157-7.895-23.533-18.04-28.815-31.999c-3.208-8.479-2.215-16.571,0.836-24.951
			c1.199-3.294,6.438-16.301,12.203-14.247c-0.349-0.124-3.569,2.701-3.887,3.038c-2.146,2.279-3.467,5.332-4.533,8.235
			C350.848,323.586,349.662,329.229,349.618,334.699z"/>
		<path style="fill:#231815;" d="M362.651,433.029c-4.624,1.207,1.386,4.96,0.972,6.295c-0.635,2.049-4.581-2.727-4.746-3.757
			c-0.316-1.982,0.409-3.625,2.438-4.447C365.433,429.452,363.729,433.143,362.651,433.029z"/>
		<path style="fill:#231815;" d="M371.571,435.579c-0.73,2.197,4.129,2.956,3.827,4.257c-0.361,1.554-3.355,0.168-4.12-0.37
			C367.901,437.088,370.9,432.037,371.571,435.579z"/>
		<path style="fill:#231815;" d="M379.636,436.551c-0.562,1.312,1.849,4.912,3.133,5.183c-1.267-0.482-2.17,0.56-3.803-0.69
			c-1.147-0.878-1.661-1.599-1.817-2.972C376.651,433.66,380.616,434.892,379.636,436.551z"/>
		<path style="fill:#231815;" d="M400.79,354.733c0.505,2.582,11.613,15.282,9.574,17.159c-1.472,1.355-10.326-9.879-11.215-11.456
			c-1.049-1.862-3.283-6.459-1.612-8.512C399.372,349.671,399.515,353.699,400.79,354.733z"/>
		<path style="fill:#231815;" d="M401.733,330.727c-0.518,2.574,4.889,18.567,2.293,19.516c-1.952,0.713-5.822-13.514-5.987-14.872
			c-0.27-2.218-0.575-6.379,1.33-8.008C402.26,324.891,400.824,329.054,401.733,330.727z"/>
		<path style="fill:#231815;" d="M408.753,376.142c0.857,3.745,6.511,5.992,6.76,9.708c0.228,3.407-3.504-0.05-4.988-1.319
			c-2.362-2.019-4.095-3.422-4.962-6.509c-0.283-1.007-1.184-3.523,0.562-3.956C406.872,373.881,407.979,375.722,408.753,376.142z"
			/>
		<path style="fill:#231815;" d="M419.547,404.49c1.456,4.193,3.197,8.355,2.075,12.857c-1.302,5.228-5.535,9.052-9.994,11.73
			c-1.526,0.916-24.181,9.117-24.252,8.325c-0.154-1.697,9.995-5.718,11.318-6.259c5.769-2.358,12.437-4.566,16.376-9.738
			c2.77-3.637,3.807-7.172,2.529-11.588c-0.876-3.027-5.91-12.344-2.366-15.244C414.458,395.207,418.773,403.258,419.547,404.49z"/>
		<path style="fill:#231815;" d="M473.932,307.774c-0.931,6.212,9.188,9.845,8.005,15.946c0.006-0.03-3.214-2.908-3.361-3.068
			c-1.767-1.923-4.216-4.135-5.598-6.36c-0.781-1.256-1.297-2.646-1.551-4.125c-0.073-0.426,0.193-7.791,2.086-6.287
			C473.767,304.082,473.229,307.774,473.932,307.774z"/>
		<path style="fill:#231815;" d="M475.571,328.801c1.543,5.395,4.311,10.427,6.834,15.409c1.273,2.514,6.799,10.352,5.887,13.281
			c-0.048,0.154-5.032-4.735-5.258-5.056c-2.521-3.586-4.712-7.816-6.763-11.701c-1.035-1.96-6.81-18.132-4.312-17.822
			C472.645,322.997,474.934,327.945,475.571,328.801z"/>
		<path style="fill:#231815;" d="M501.277,383.991c5.583,8.082,11.605,19.325,10.616,29.488
			c-1.099,11.281-10.985,18.3-20.191,23.215c-9.751,5.205-20.502,10.06-31.177,12.975c-4.946,1.351-9.983,2.403-14.846,4.044
			c-1.369,0.462-11.539,4.047-11.105,6.176c-0.671-3.295,10.133-7.998,12.075-8.821c6.065-2.573,12.533-3.948,18.663-6.326
			c12.383-4.803,27.949-10.29,37.129-20.336c8.66-9.477,5.512-20.955,0.156-31.26c-2.966-5.707-7.28-10.433-10.547-15.931
			c-1.66-2.794-2.978-5.792-3.902-8.909c-0.172-0.579-1.085-6.11-0.921-6.035c1.353,0.622,1.928,4.233,2.529,5.56
			c1.13,2.493,2.455,4.92,4.018,7.17C496.003,378.212,498.78,380.994,501.277,383.991z"/>
		<path style="fill:#231815;" d="M425.891,456.969c-1.55-2.554-1.464-14.029,4.362-11.032c-1.22-0.627-3.295,5.173-3.323,6.145
			c-0.042,1.449,2.33,5.509,1.89,6.018C428.393,458.594,426.342,457.26,425.891,456.969z"/>
		<path style="fill:#231815;" d="M418.588,449.897c-0.407-2.064-0.71-4.064,1.008-5.636c1.299-1.189,2.381-0.365,3.325-0.735
			c-1.515,0.742-2.063,3.12-2.352,4.556C420.311,449.359,421.138,452.716,418.588,449.897z"/>
		<path style="fill:#231815;" d="M388.039,158.036c1.31,1.513,17.153,16.568,14.458,17.93c-1.704,0.861-11.604-9.411-13.209-11.043
			c-1.543-1.57-6.155-5.441-6.141-7.649C383.164,154.511,386.261,157.314,388.039,158.036z"/>
		<path style="fill:#231815;" d="M296.099,159.454c-5.856-3.568-12.396-5.961-18.656-8.703c-3.137-1.374-6.293-2.778-9.243-4.529
			c-0.65-0.386-2.16-1.84-2.789-1.946c6.665,1.124,13.396,5.209,19.66,7.659c2.721,1.064,5.244,2.345,7.821,3.712
			c0.419,0.222,10.395,6.533,9.934,6.792C302.124,162.832,296.93,159.778,296.099,159.454z"/>
		<path style="fill:#231815;" d="M294.434,166.854c-10.011-1.548-19.984-0.563-29.655,2.038c0.789-0.212,2.163-1.786,3.137-2.26
			c2.052-0.997,4.35-1.338,6.582-1.65c3.337-0.467,6.812-0.829,10.182-0.829c2.406,0,4.821,0.317,7.214,0.578
			c0.349,0.038,9.594,1.664,9.113,2.276C300.561,167.577,295.546,166.815,294.434,166.854z"/>
		<path style="fill:#231815;" d="M302.065,174.984c-4.433,0.867-8.449,3.416-12.415,5.447c-0.341,0.175-7.692,3.535-7.74,3.089
			c-0.189-1.765,10.397-6.667,11.906-7.45c1.416-0.734,13.112-4.043,12.674-2.672C306.35,173.839,302.789,174.631,302.065,174.984z"
			/>
		<path style="fill:#231815;" d="M320.055,172.58c1.431,0.72,5.764-2.133,6.346,0.692c0.317,1.535-1.096,1.612-2.383,2.244
			c-1.43,0.702-2.431,1.599-4.15,0.739C317.885,175.262,318.004,173.682,320.055,172.58z"/>
		<path style="fill:#231815;" d="M339.345,168.81c-6.779-0.391-4.977-13.781,2.348-9.552
			C347.977,162.887,341.653,175.771,339.345,168.81z"/>
		<path style="fill:#231815;" d="M325.204,74.273c0-4.293,6.266-28.514,14.274-22.187c1.965,1.553,2.713,5.546,3.872,7.785
			c1.139,2.2,2.425,4.315,3.628,6.479c2.496,4.486,4.784,9.347,3.773,14.614c-0.494-4.296-2.885-5.604-6.911-5.311
			c-3.696,0.268-5.05,0.944-6.499,4.386c-0.259,0.616-3.59-4.348-3.739-4.742c-0.74-1.967,0.216-2.616-1.707-2.239
			C329.743,73.479,325.204,81.434,325.204,74.273z"/>
		<path style="fill:#231815;" d="M376.299,68.19c0.673-4.711,6.135-9.259,9.436-12.217c2.238-2.005,7.748-7.745,11.228-6.433
			c4.688,1.766,5.136,15.074,5.669,18.985c0.18,1.321,0.633,19.414-3.83,16.877c-4.577-2.602,5.667-12.206-4.354-7.14
			c-1.26,0.637-4.41,3.314-5.775,1.961c-1.982-1.965,1.363-6.155,1.246-8.126c-0.124-2.099-1.242-3.413-3.821-4.221
			c-2.424-0.759-4.003,0.671-5.662,2.633c-0.483,0.571-2.646,4.956-3.903,4.597C374.849,74.625,376.147,69.252,376.299,68.19z"/>
	</g>
</g>
</svg>
