<?xml version="1.0" encoding="iso-8859-1"?>
<!-- Generator: Adobe Illustrator 21.1.0, SVG Export Plug-In . SVG Version: 6.00 Build 0)  -->
<svg version="1.1" id="_x31_2" xmlns="http://www.w3.org/2000/svg" xmlns:xlink="http://www.w3.org/1999/xlink" x="0px" y="0px"
	 viewBox="0 0 512 512" style="enable-background:new 0 0 512 512;" xml:space="preserve">
<g>
	<path style="fill:#FFFFFF;" d="M300.555,157.08c1.118-8.946,1.118-42.494-7.828-67.095c-8.946-24.602-7.828-52.558,6.71-73.805
		c14.537-21.247,31.311,4.473,35.784,16.774c4.473,12.301,7.828,20.129,8.946,41.375s-5.591,36.902-8.946,44.73
		c-3.355,7.828-8.946,33.548-2.236,24.602c6.71-8.946,13.419-16.774,19.01-34.666c5.591-17.892,6.71-48.085,30.193-69.332
		c23.483-21.247,35.06-21.128,41.375-29.075c6.316-7.946,7.446,30.677,4.473,50.321c-2.973,19.644-16.774,44.73-31.311,59.267
		c-14.537,14.537-25.72,27.956-25.72,27.956s10.064,2.236,20.129,5.591c10.064,3.355,24.58,10.413,32.429,17.892
		c7.849,7.479,9.274,9.254,13.419,14.537c4.145,5.283,30.193,23.483,51.44,53.676c21.247,30.193,21.247,52.558,15.656,73.805
		c-5.591,21.247-12.301,30.193,0,43.612c4.473,13.419-25.72,5.591-25.72,5.591s-14.537,16.774-35.784,30.193
		c-21.247,13.419-46.868,18.829-55.913,24.602c-9.045,5.772-3.355-2.237-7.828-2.237s-31.311,8.946-40.257,13.419
		c-8.946,4.473-20.129,12.301-24.602,12.301c-4.473,0-8.946-4.473-12.301-2.237c-3.355,2.237-59.267,32.429-76.041,43.612
		c-16.774,11.183-49.203,24.602-68.214,25.72c-19.01,1.118-29.113,1.402-40.257-8.946c-15.656-14.537-22.81-18.172-33.548-22.365
		c-10.737-4.193-15.656-10.064-15.656-10.064s-13.419-1.118-11.183-13.419c-5.591-1.118-13.419-8.946-13.419-8.946
		s-15.656-3.355-17.892-10.064c-10.064-2.237-13.419-8.946-13.419-8.946s-12.301-6.71-5.591-14.537
		c6.709-7.828,13.419-11.182,27.956-8.946c14.537,2.237,23.747,8.292,40.257,17.892c16.51,9.6,35.784,7.828,35.784,7.828
		c10.064-2.237,54.794-19.01,69.332-29.075c14.537-10.064,33.548-27.956,33.548-27.956l-3.355-6.71c0,0-12.549,2.551-8.946-12.301
		c-7.011-2.02-5.591-14.537,7.828-21.247c13.419-6.71,52.558-25.72,70.45-40.257c17.892-14.537,32.429-42.494,32.429-42.494
		s-23.483-4.473-35.784-12.301c-12.301-7.828-6.71-26.838-3.355-34.666C275.954,192.864,300.555,157.08,300.555,157.08z"/>
	<g>
		<path style="fill:#231815;" d="M462.832,381.863c-7.949,6.849-16.189,13.378-25.37,18.514
			c-8.357,4.675-17.261,7.464-26.008,11.178c-7.921,3.363-15.907,6.614-24.082,9.314c-0.92,0.304-9.461,1.969-9.755,2.536
			c0.44-0.851,3.677-2.025,4.51-2.519c3.77-2.233,7.56-4.391,11.495-6.327c12.187-5.997,25.43-9.94,37.293-16.524
			c7.018-3.895,14.192-8.048,20.54-12.983c5.134-3.992,9.856-8.477,14.767-12.733c1.327-1.15,7.06-7.291,9.191-6.682
			C475.306,365.607,464.109,380.328,462.832,381.863z"/>
		<path style="fill:#231815;" d="M457.005,196.18c23.139,21.327,45.83,47.352,51.215,79.406c2.727,16.231,0.143,32.519-4.591,48.117
			c-1.912,6.299-4.619,12.45-4.602,19.149c0.008,2.984,0.511,5.999,1.627,8.773c0.243,0.605,3.768,7.809,4.592,7.613
			c-2.38,0.566-7.104-7.531-7.986-9.413c-1.953-4.168-2.537-8.744-2.204-13.305c0.786-10.766,5.137-21.325,6.735-32.024
			c2.896-19.389-0.774-38.385-10.623-55.334c-7.806-13.432-16.763-26.152-27.637-37.276c-7.066-7.229-14.718-13.89-22.403-20.448
			c-1.198-1.023-17.351-16.067-17.069-16.171c1.723-0.64,6.082,3.034,7.354,3.83c3.418,2.136,6.824,4.293,10.198,6.497
			C446.828,189,451.927,192.57,457.005,196.18z"/>
		<path style="fill:#231815;" d="M397.793,284.354c2.206-2.47,16.227-19.347,18.826-16.778c5.1,5.041-10.558,19.23-13.033,21.544
			c-15.573,14.559-32.626,28.879-51.232,39.386c-19.493,11.008-41.342,15.623-62.152,23.355
			c-10.536,3.915-16.697,10.971-24.615,18.626c-3.281,3.172-6.773,6.455-10.828,8.628c-2.518,1.349-9.84,4.281-12.344,1.266
			c1.062,1.279,6.168,0.13,7.555-0.311c3.487-1.11,6.498-3.525,9.171-5.934c5.714-5.148,10.349-11.35,15.851-16.707
			c11.464-11.162,30.49-14.622,45.129-19.963c15.889-5.797,30.522-13.239,44.049-23.453
			C375.796,305.236,388.114,295.295,397.793,284.354z"/>
		<path style="fill:#231815;" d="M280.198,445.146c7.813-4.621,17.448-9.85,26.723-10.567c8.927-0.691,0.312,5.296-3.017,7.156
			c-17.297,9.665-35.505,17.481-52.621,27.583c-19.176,11.318-37.126,25.836-58.622,32.627c-8.416,2.659-17.283,3.787-25.828,5.985
			c-10.629,2.734-21.737,5.729-32.694,2.978c-12.521-3.145-19.644-13.1-28.757-21.261c-4.748-4.252-10.033-7.601-15.868-10.159
			c-3.169-1.389-6.415-2.587-9.64-3.836c-0.974-0.377-6.005-3.163-6.996-2.944c2.701-0.595,8.741,2.595,11.374,3.461
			c4.703,1.547,9.34,3.232,13.675,5.651c9.508,5.304,15.831,14.112,24.638,20.236c18.52,12.878,39.519,2.085,59.079-2.086
			c20.545-4.381,37.634-17.016,54.763-28.49C250.606,461.967,265.553,453.898,280.198,445.146z"/>
		<path style="fill:#231815;" d="M132.821,462.773c8.956,0.276,17.639-3.578,25.869-6.636c7.939-2.95,16.034-5.585,23.705-9.198
			c15.87-7.477,28.906-18.469,42.349-29.505c5.754-4.723,11.378-9.573,16.875-14.594c2.11-1.927,17.46-15.062,10.102-15.38
			c-5.742-0.248-13.855,7.901-17.651,11.221c-5.46,4.776-10.168,10.198-15.18,15.41c-12.157,12.641-25.919,23.938-41.992,31.209
			c-8.22,3.718-16.808,6.778-25.265,9.913c-7.453,2.763-15.061,5.359-23.081,3.742c-15.899-3.206-28.503-16.298-43.483-22.135
			c-7.643-2.978-43.729-14.895-41.136,3.928c0.112,0.814,0.496,3.149,1.454,3.608c2.081,0.997,1.583-1.822,2.219-3.029
			c1.873-3.558,3.285-4.843,7.475-5.555c9.109-1.547,19.397,1.63,27.884,4.618C99.737,446.296,114.432,462.273,132.821,462.773z"/>
		<path style="fill:#231815;" d="M198.476,387.207c2.863-2.58,11.951-10.17,11.306-14.89c-0.638-4.667-8.63,2.337-10.647,3.92
			c-13.062,10.245-25.164,21.005-39.623,29.355c-13.788,7.963-28.661,16.137-44.355,19.482
			c-18.024,3.841-31.453-1.349-46.106-11.635c-14.054-9.865-29.667-17.913-47.47-15.286c-7.231,1.067-14.704,4.536-17.568,11.706
			c-0.836,2.092-2.399,8.137-0.281,10.099c2.546,2.359,3.508-2.65,4.488-4.567c7.272-14.228,28.811-12.434,41.658-7.766
			C64.663,412.998,75.518,426,91.178,429.47c19.297,4.275,38.836-4.465,56.222-11.802
			C166.076,409.787,183.238,400.751,198.476,387.207z"/>
		<path style="fill:#231815;" d="M20.181,418.116c-4.397-0.605-3.899,6.302-3.594,8.731c0.217,1.733,1.249,2.321-0.246,2.785
			c-2.623,0.814-4.226-2.812-4.654-4.631c-1.169-4.967,0.928-9.827,5.957-11.22c1.406-0.39,6.299-1.054,6.061,1.848
			C23.613,416.758,20.984,416.966,20.181,418.116z"/>
		<path style="fill:#231815;" d="M29.947,428.007c-2.797-0.232-2.325,4.467-1.803,6.027c0.204,0.609,1.731,2.624,1.583,2.978
			c-2.122,5.043-6.728-4.346-6.883-5.57c-0.497-3.92,1.196-6.981,5.274-8.015c1.446-0.367,5.251-0.313,4.832,2.135
			C32.83,426.267,30.444,427.114,29.947,428.007z"/>
		<path style="fill:#231815;" d="M62.071,449.342c-4.398-0.599-3.899,6.299-3.594,8.731c0.217,1.732,1.25,2.322-0.246,2.787
			c-2.623,0.815-4.226-2.812-4.654-4.631c-1.169-4.967,0.928-9.827,5.957-11.221c1.405-0.39,6.3-1.054,6.061,1.848
			C65.503,447.987,62.875,448.192,62.071,449.342z"/>
		<path style="fill:#231815;" d="M71.837,459.233c-2.797-0.228-2.326,4.466-1.803,6.028c0.204,0.609,1.732,2.624,1.583,2.978
			c-2.122,5.043-6.728-4.347-6.883-5.57c-0.497-3.92,1.196-6.98,5.274-8.015c1.445-0.367,5.252-0.314,4.832,2.134
			C74.72,457.493,72.334,458.342,71.837,459.233z"/>
		<path style="fill:#231815;" d="M488.289,353.328c0.784,2.146,2.718,3.719,4.519,4.987c1.398,0.984,5.347,2.095,6.147,3.461
			c1.831,3.129-5.505,1.085-7.16,0.27c-3.087-1.521-5.197-3.08-6.588-6.34c-0.416-0.975-1.914-4.1,0.009-4.74
			C485.966,350.718,487.409,352.891,488.289,353.328z"/>
		<path style="fill:#231815;" d="M479.958,362.306c1.562,1.585,3.675,2.421,5.746,3.099c1.386,0.454,5.893,0.731,6.666,1.937
			c1.57,2.449-3.797,2.312-5.733,2.072c-3.436-0.425-6.127-1.176-8.568-3.725C474.479,361.941,476.066,362.103,479.958,362.306z"/>
		<path style="fill:#231815;" d="M275.216,185.657c1.571-3.889,5.984-11.916,11.061-12.188c6.303-0.338,0.66,7.316-0.97,9.925
			c-6.865,10.991-15.488,25.077-14.296,38.589c1.314,14.886,22.763,18.696,34.363,21.49c7.378,1.777,14.82,3.29,22.172,5.177
			c1.282,0.329,17.746,5.867,17.599,6.055c-0.477,0.608-8.203-2.028-8.811-2.168c-5.217-1.205-10.501-2.113-15.78-3.003
			c-12.507-2.11-25.483-3.683-37.391-8.257c-11.963-4.596-19.044-12.751-17.737-26.072
			C266.47,204.572,271.34,195.394,275.216,185.657z"/>
		<path style="fill:#231815;" d="M340.895,143.747c-2.041,4.003-4.847,7.788-8.408,10.574c-1.621,1.268-9.369,6.364-11.525,3.612
			c-2.056-2.624,10.374-13.4,12.328-16.181c11.506-16.386,16.583-36.934,22.002-55.911c5.758-20.163,12.931-37.598,27.818-52.799
			c7.06-7.209,14.337-14.425,22.241-20.711c3.911-3.111,8.101-6.154,12.685-8.201c2.527-1.128,9.518-4.018,11.843-1.488
			c-2.695-2.934-13.061,3.562-15.212,5.012c-5.591,3.768-10.562,8.476-15.315,13.229c-11.158,11.16-22.745,22.784-29.544,37.224
			c-6.85,14.547-9.517,30.748-13.78,46.153C352.231,117.985,347.441,131.096,340.895,143.747z"/>
		<path style="fill:#231815;" d="M430.326,34.717c-0.135-3.439-1.512-18.732,3.021-20.708c4.62-2.014,4.684,10.794,4.695,13.438
			c0.074,18.344-5.297,36.591-12.978,53.107c-8.338,17.926-19.677,34.505-33.173,48.94c-6.769,7.24-14.081,13.983-22.002,19.949
			c-3.118,2.348-6.323,4.584-9.623,6.67c-1.658,1.048-6.859,5.219-8.804,4.936c2.053,0.299,10.676-7.905,12.392-9.258
			c4.902-3.865,9.579-7.999,14.04-12.366c10.436-10.216,19.723-21.613,27.616-33.902C418.364,85.508,431.296,59.205,430.326,34.717z
			"/>
		<path style="fill:#231815;" d="M304.078,142.86c0.298,3.135-0.97,20.007-7.241,19.016c-4.335-0.685-0.638-13.232-0.386-16.125
			c1.487-17.05-2.544-34.123-5.575-50.787c-3.009-16.545-9.72-32.83-4.886-49.684c2.426-8.457,6.251-16.476,10.086-24.366
			c0.722-1.486,7.736-18.093,8.759-17.958c-0.015-0.002-9.186,24.274-10.059,26.506c-4.911,12.565-8.368,24.406-5.53,37.908
			c2.815,13.395,6.927,26.536,9.836,39.942C301.643,119.116,303.37,130.808,304.078,142.86z"/>
		<path style="fill:#231815;" d="M324.339,20.596c-2.235-1.655-12.191-9.202-8.494-12.637c3.112-2.89,10.314,3.992,12.261,5.885
			c9.089,8.834,14.067,21.019,16.622,33.238c2.958,14.147,2.85,29.06,0.229,43.252c-1.203,6.515-2.946,12.95-5.423,19.1
			c-0.681,1.691-7.853,13.073-7.599,13.695c-0.57-1.392,3.49-7.998,4.125-9.699c1.526-4.088,2.733-8.289,3.683-12.546
			c2.192-9.814,3.073-19.919,2.736-29.965C341.922,54.314,338.145,31.773,324.339,20.596z"/>
		<path style="fill:#231815;" d="M378.315,154.832c-4.707,0.344-8.36-6.682-2.834-7.978c4.425-1.037,11.805,3.007,15.775,4.555
			c6.824,2.66,13.52,5.713,19.97,9.183c3.249,1.748,6.466,3.598,9.516,5.678c0.994,0.678,4.647,4.275,5.174,4.299
			c-2.95-0.134-7.45-3.211-10.213-4.364c-4.434-1.85-8.929-3.547-13.469-5.118C395.391,158.719,385.73,154.135,378.315,154.832z"/>
		<path style="fill:#231815;" d="M329.196,213.744c-11.478,5.676-22.837-10.306-11.835-17.362c2.51-1.61,6.056-2.49,7.64-0.271
			c1.621,2.271,1.759,7.23,1.921,9.907c0.389,6.431-1.776,13.285-9.576,10.537"/>
		<path style="fill:#231815;" d="M270.814,230.636c-2.5-0.154-1.258-3.485,0.009-4.44c2.078-1.566,2.473-0.417,4.582,0.354
			c5.267,1.926,9.65,0.632,15.025,0.092c-0.025-0.006-7.401,4.294-8.329,4.528C277.726,232.273,275.009,230.707,270.814,230.636z"/>
		<path style="fill:#231815;" d="M246.068,228.035c-11.101,0.76-22.285,2.104-33.241,4.037c-5.253,0.927-10.442,2.154-15.672,3.201
			c-0.906,0.181-9.516,1.084-9.7,1.488c0.248-0.545,4.03-1.371,4.742-1.616c3.765-1.297,7.576-2.405,11.446-3.346
			c7.825-1.902,15.838-3.32,23.818-4.41c3.949-0.539,7.95-0.684,11.918-1.041c2.556-0.23,17.535-3.278,19.248-0.603
			C258.389,225.369,247.424,227.781,246.068,228.035z"/>
		<path style="fill:#231815;" d="M249.444,243.463c-10.616,4.691-21.16,9.638-31.192,15.492c-4.934,2.879-9.688,6.044-14.327,9.375
			c-0.9,0.646-9.117,5.797-9.072,6.586c-0.038-0.657,3.101-3.326,3.663-3.904c2.98-3.065,6.285-5.749,9.772-8.219
			c6.89-4.88,14.319-9.229,21.821-13.101c2.977-1.536,6.081-2.77,9.144-4.123c4.454-1.967,8.852-4.063,13.317-6.006
			c2.286-0.995,5.921-3.335,8.47-3.156c-0.706-0.05-5.489,3.547-6.473,4.112C252.86,241.5,251.152,242.481,249.444,243.463z"/>
		<path style="fill:#231815;" d="M264.067,256.807c-7.389,7.459-14.595,15.111-21.573,22.956c-3.344,3.76-6.601,7.596-9.877,11.415
			c-0.576,0.671-7.037,7.174-6.889,7.647c-0.156-0.499,2.48-4.155,2.756-4.601c2.348-3.791,5.087-7.274,7.935-10.701
			c4.538-5.461,9.112-11.03,13.978-16.208c2.466-2.625,5.157-5.042,7.68-7.614c1.592-1.623,10.623-13.356,13.38-12.684
			C271.063,246.921,264.928,255.695,264.067,256.807z"/>
		<path style="fill:#231815;" d="M372.829,54.738c0.739-3.913,2.843-9.915,7.919-8.337c4.56,1.417,6.837,7.906,7.632,12.036
			c7.635-6.961,16.414-12.477,24.464-18.919c0.687,4.74-0.047,0.698,3.468,2.081c2.376,0.935,1.291,0.891,1.684,3.163
			c0.513,2.965,0.882,7.025,0.417,9.999c1.576-1.079,3.13-2.189,4.695-3.284c0.234,3.646,2.091,7.11,1.827,10.81
			c4.816-8.32,8.031-17.922,10.528-27.157c2.23-8.249,5.994-21.485,0.725-29.36C425.676-9.944,394.376,22,387.44,28.873
			C382.801,33.468,368.065,46.792,372.829,54.738z"/>
		<path style="fill:#231815;" d="M289.322,58.908c0.796-3.02,2.936-5.648,4.256-8.442c1.898,3.129,5.846,4.377,7.92,7.341
			c2.014-3.296,4.641-6.372,7.875-8.525c4.593-3.057,6.036-2.587,8.289,2.472c0.212-4.398,3.083-7.89,4.627-11.84
			c6.043,3.101,11.687,6.93,17.772,9.953c0.38-11.222-19.662-59.581-35.117-48.123c-8.775,6.506-13.238,20.619-16.132,30.597
			C287.358,37.348,281.445,56.168,289.322,58.908z"/>
		<path style="fill:#231815;" d="M341.879,229.977c5.806,2.895,11.622,0.313,17.284,1.94c0.009,0.003-2.218,1.441-2.491,1.555
			c-2.525,1.05-6.472,1.049-9.166,0.695c-1.442-0.19-10.852-3.378-9.63-4.771C338.203,229.023,341.176,229.927,341.879,229.977z"/>
		<path style="fill:#231815;" d="M359.52,217.7c4.155,1.013,12.021-2.105,15.47,0.082c1.975,1.252-21.269,4.481-18.956,0.355
			C356.265,217.725,358.958,217.775,359.52,217.7z"/>
		<path style="fill:#231815;" d="M374.629,203.179c3.608,1.345,16.962-1.294,19.022,1.526c-0.014-0.019-11.842,1.96-13.233,1.906
			c-1.392-0.054-11.348-2.914-9.846-4.069C370.957,202.247,373.81,203.219,374.629,203.179z"/>
		<path style="fill:#231815;" d="M365.286,232.795c3.007,16.486-5.503,29.638-16.446,40.858
			c-11.901,12.202-24.898,23.677-38.878,33.452c-12.994,9.086-27.274,16.597-41.1,24.325c-6.951,3.885-13.925,7.728-20.914,11.543
			c-6.562,3.581-13.981,6.755-19.98,11.233c-4.188,3.126-10.149,7.711-12.22,12.571c-0.683,1.602-0.173,7.214-2.8,5.992
			c-2.523-1.173-0.726-7.634,0.137-9.13c5.906-10.234,18.877-16.358,28.66-21.856c24.73-13.898,51.723-25.942,73.105-44.868
			c10.975-9.714,22.038-19.284,31.042-30.944c4.997-6.471,9.168-13.506,11.923-21.215c1.331-3.725,2.693-7.469,3.526-11.343
			c0.118-0.551,0.204-4.374,1.215-4.472C364.265,228.773,365.087,231.556,365.286,232.795z"/>
		<path style="fill:#231815;" d="M226.995,367.066c-2.703,1.295-7.169,4.161-7.099,7.598c0.069,3.384,4.794,4.434,6.44,6.787
			c-0.204-0.292-5.674-1.123-6.738-2.012c-2.847-2.382-3.314-5.922-1.505-9.107c1.122-1.976,12.767-9.23,12.812-6.747
			C230.919,364.247,227.645,366.328,226.995,367.066z"/>
		<path style="fill:#231815;" d="M232.553,376.753c-2.864,1.947-0.892,4.655,1.617,5.373c3.07,0.878,6.417-1.298,9.435-0.576
			c0.119,0.029-3.326,2.604-3.683,2.753c-2.903,1.219-7.57,1.453-10.128-0.681c-2.152-1.795-2.322-4.358-1.1-6.807
			c0.448-0.899,7.202-5.74,7-3.027C235.648,374.401,233.035,375.78,232.553,376.753z"/>
		<path style="fill:#231815;" d="M305.923,263.218c1.328-1.757,7.007-10.915,3.348-12.926c-1.816-0.998-5.841,6.505-6.847,7.818
			c-7.102,9.27-15.337,17.906-23.528,26.215c-17.397,17.646-38.694,28.019-60.593,39.032c-8.491,4.27-16.191,7.054-21.812,15.016
			c-1.956,2.771-5.265,7.899-2.472,11.264c0.931,1.122,2.868,1.964,4.32,1.503c4.378-1.388-0.273-1.931-0.678-3.688
			c-0.682-2.96,5.217-8.832,6.973-10.647c2.939-3.038,6.82-4.923,10.402-7.141c9.181-5.685,18.764-10.545,28.242-15.7
			C266.294,301.443,289.841,284.159,305.923,263.218z"/>
		<path style="fill:#231815;" d="M204.885,350.318c-3.014,1.602-3.964,6.028-2.039,8.813c2.253,3.26,5.606,1.703,8.709,2.547
			c0.159,0.043-2.161,2.07-2.621,2.275c-1.426,0.635-2.868,0.803-4.417,0.466c-3.734-0.812-6.518-4.686-6.766-8.384
			c-0.184-2.748,1.045-5.147,2.938-7.142c0.401-0.422,8.329-5.457,8.126-2.053C208.772,347.555,205.52,349.295,204.885,350.318z"/>
		<path style="fill:#231815;" d="M369.364,417.319c-11.352,3.085-21.492,10.005-31.549,15.865
			c-1.264,0.736-24.072,11.87-24.144,10.507c-0.068-1.281,9.751-7.155,10.706-7.774c6.967-4.514,14.175-8.651,21.133-13.19
			c5.376-3.507,10.976-5.852,16.967-8.142c3.867-1.478,15.629-6.422,19.007-2.41C381.132,411.755,370.839,416.473,369.364,417.319z"
			/>
	</g>
</g>
</svg>
