<?xml version="1.0" encoding="iso-8859-1"?>
<!-- Generator: Adobe Illustrator 21.1.0, SVG Export Plug-In . SVG Version: 6.00 Build 0)  -->
<svg version="1.1" id="_x36_" xmlns="http://www.w3.org/2000/svg" xmlns:xlink="http://www.w3.org/1999/xlink" x="0px" y="0px"
	 viewBox="0 0 512 512" style="enable-background:new 0 0 512 512;" xml:space="preserve">
<g>
	<path style="fill:#FFFFFF;" d="M339.351,245.868c-0.855-6.412-4.105-16.408-6.813-23.497c-0.139-0.986-0.304-1.71-0.501-2.103
		c-3.657-7.314,0.609-9.752,1.829-17.676c1.219-7.924,3.048-28.038,2.438-34.743c-0.609-6.705,1.829-44.495-1.828-51.2
		c-3.657-6.705-7.314-10.971-18.286-29.257c-10.971-18.286-11.581-28.038-7.924-39.619c3.657-11.581,16.457-18.895,18.895-22.552
		s-12.8,3.048-17.676,4.267c-4.876,1.219,3.048-4.267,6.705-9.143c3.657-4.876,17.676-14.019,4.876-9.752
		c-12.8,4.267-17.676,15.848-19.505,17.676c-1.829,1.829,1.829-9.143,2.438-13.41s-2.438,1.219-10.362,8.533
		s-11.581,17.067-13.409,28.648c-1.829,11.581,8.533,37.181,15.848,47.543s6.095,24.381,3.048,34.743
		c-3.048,10.362-18.895,59.124-23.771,60.343c-4.876,1.219-11.581-7.924-11.581-7.924s7.314-16.457,8.533-21.333
		c1.219-4.876,2.438-34.133,1.219-43.886c-1.219-9.752-9.143-24.381-15.848-31.695c-6.705-7.314-10.972-6.705-15.848-18.895
		c-4.876-12.191-1.219-15.238,4.267-25.6s8.533-12.19,12.8-21.333c4.267-9.143,0-17.676-1.219-14.019
		c-1.219,3.657-2.438,11.581-10.972,15.238c6.705-11.581,4.876-26.819,2.438-20.724c-2.438,6.095-7.351,17.926-10.971,18.895
		c6.486-10.213,3.465-23.392,2.438-19.505c-1.027,3.887-4.092,4.907-7.924,12.8c-3.831,7.893-10.971,15.848-16.457,27.428
		c-5.486,11.581-6.095,23.162,1.219,34.133c7.314,10.971,16.457,39.009,16.457,39.009s2.439,6.15,4.267,10.362
		c1.828,4.212-3.657,9.752-7.924,19.505c-4.267,9.752-9.143,44.495-9.143,44.495l-0.61,14.629c0,0-6.705,8.533-10.971,13.41
		c-4.267,4.876-15.848,18.895-17.676,29.867c-1.829,10.971-1.219,24.381,4.267,32.305s9.143,47.543,9.143,47.543
		s-0.609,14.019-2.438,18.286c-1.829,4.267-2.532,3.908-9.143,6.095c-6.61,2.188-5.486,7.314-3.048,11.581
		c2.438,4.267,7.314,4.267,11.581,9.143c4.267,4.876,3.048,25.6,3.048,25.6s0,7.924,0,10.362c0,2.438,0,19.505,0.61,27.428
		c0.609,7.924-3.048,17.676-8.533,20.724c-5.486,3.048-15.417,8.626-21.943,9.143c0,0-10.362,1.829-3.657,3.048
		c5.908,1.074,13.229-1.635,14.886-2.295c-0.971,0.399-3.996,1.667-9.401,4.123c-6.705,3.048-6.095,6.095-3.657,4.876
		c2.438-1.219,19.505-6.705,16.457-4.267c-3.048,2.438-12.19,17.067-5.486,12.191c6.705-4.876,21.943-12.191,21.943-12.191
		l-4.876,12.191c0,0,6.095-3.657,12.19-10.971c6.095-7.314,14.019-5.486,17.676-0.61c3.657,4.876,5.486-1.219,3.048-5.486
		c-2.438-4.267-6.717-3.19-10.971-9.143c-4.254-5.953-1.219-8.533,0.61-19.505c1.74-10.438,15.606-31.893,16.952-33.957
		c1.823,0.096,4.446-0.297,6.21-2.005c2.755-2.668,14.019-4.267,21.943-9.752c6.344-4.392,16.195-9.564,18.311-13.955
		c0.255,0.638,2.483,6.243,3.632,9.688c1.219,3.657,4.267,44.495,5.486,56.076c1.219,11.581-2.438,20.114-5.486,26.21
		c-3.048,6.095-12.19,9.143-21.333,12.8c-9.143,3.657-11.776,8.753-9.143,7.924c2.634-0.829,14.629-5.486,8.533-1.829
		c-6.095,3.657-11.581,19.505-9.752,15.848c1.829-3.657,14.019-11.581,19.505-12.8c5.486-1.219-8.12,14.656-3.352,15.848
		c3.657,0.914,6.273-7.377,12.19-11.886c6.4-4.876,6.4-6.4,7.009-2.743c0.61,3.657-3.962,9.448-3.352,14.324
		c0.61,4.876,9.448-5.79,9.448-5.79s12.19-17.676,12.19-20.114s8.661-16.813,7.924-21.943c-0.737-5.13,2.438-15.848,6.705-35.962
		c5.486-17.676,3.657-32.914,3.657-43.276c0-10.362-2.438-39.01-2.438-39.01s0.061-1.046,0.167-2.938
		c1.533-1.067,4.852-3.832,5.319-8.033c0.609-5.486,6.095-12.8,6.705-25.6C341.789,294.02,340.742,256.297,339.351,245.868z"/>
	<g>
		<path style="fill:#231815;" d="M206.606,397.727c0.053,6.695,5.275,15.442,12.73,15.343c7.589-0.1,15.249-7.745,20.705-12.222
			c5.924-4.862,12.076-9.581,18.613-13.597c3.174-1.95,6.537-3.784,10.155-4.75c1.252-0.335,7.252,0.044,7.434-0.135
			c-0.465,0.457-4.247,0.513-5.039,0.79c-2.085,0.728-4.038,1.855-5.912,3.011c-4.518,2.789-8.697,6.116-12.953,9.277
			c-8.824,6.553-16.849,15.493-26.969,20.06c-8.659,3.908-16.599-1.558-20.245-9.569c-2.331-5.12-2.114-10.127-1.706-15.594
			c0.058-0.78,0.505-11.69-0.542-11.655C206.855,378.685,206.221,395.257,206.606,397.727z"/>
		<path style="fill:#231815;" d="M195.688,371.836c-5.983-4.21-11.074-9.919-5.273-16.958c2.436-2.956,6.014-4.863,9.395-6.525
			c1.581-0.777,5.677-3.555,7.48-3.403c0.094,0.008-6.235,6.125-7.005,6.615c-3.432,2.184-8.413,4.714-8.617,9.354
			c-0.154,3.503,2.199,5.428,4.827,7.242c1.497,1.033,3.232,1.923,4.456,3.304c-0.043-0.049,2.764,4.503,1.046,4.099
			c-0.226-0.048-2.393-2.215-2.701-2.393C198.211,372.546,196.875,372.191,195.688,371.836z"/>
		<path style="fill:#231815;" d="M240.352,370.951c-1.968-6.195-5.48-14.205,0.081-19.732c2.666-2.65,6.473-2.954,10.039-3.079
			c1.838-0.064,6.852-0.987,8.428-0.138c-0.128-0.069-3.029,1.829-3.522,2.026c-2.067,0.827-4.236,0.981-6.414,1.326
			c-4.181,0.662-7.28,1.907-7.654,6.586c-0.223,2.799,0.066,5.603,0.973,8.251c0.673,1.964,4.542,10.034,1.191,11.725
			C243.832,377.736,240.715,371.44,240.352,370.951z"/>
		<path style="fill:#231815;" d="M247.331,401.638c4.022-1.637,7.778-3.874,11.814-5.472c4.064-1.61,8.285-2.712,12.297-4.493
			c1.61-0.715,20.043-11.094,19.421-12.349c0.233,0.471-2.843,4.262-3.216,4.742c-1.798,2.31-3.954,4.242-6.344,5.925
			c-5.248,3.697-11.314,6.283-17.283,8.563c-3.515,1.343-7.001,2.446-10.425,4.043c-2.952,1.376-5.872,2.958-9.036,3.806
			c-0.241,0.064-7.492,0.857-6.576-0.427c0.438-0.645,4.017-1.203,4.695-1.518C244.316,403.694,245.852,402.671,247.331,401.638z"/>
		<path style="fill:#231815;" d="M279.307,362.453c7.044,6.703,9.056,19.474,10.55,28.747c1.912,11.864,3.486,24.186,4.462,36.164
			c0.89,10.922,2.094,22.497-0.54,33.261c-2.872,11.74-11.285,16.964-22.055,20.805c-5.439,1.94-9.957,4.519-13.499,9.205
			c-1.087,1.438-2.738,3.136-0.136,2.919c2.656-0.222,5.732-4.359,7.67-5.786c7.9-5.82,18.087-6.716,24.817-14.63
			c13.347-15.694,4.871-43.618,3.08-61.839c-1.262-12.843-2.512-25.547-4.317-38.33c-0.825-5.844-1.875-12.725-7.205-16.307
			c-1.846-1.24-6.174-1.822-6.274,1.644C275.844,358.885,278.851,361.229,279.307,362.453z"/>
		<path style="fill:#231815;" d="M280.297,491.347c-5.262,2.466-10.204,5.858-14.522,9.738c-1.982,1.781-3.789,3.741-5.526,5.759
			c-0.794,0.923-2.847,4.422-4.086,4.659c0.19-0.036,1.06-4.357,1.353-5.021c1.047-2.374,2.803-4.333,4.564-6.202
			c3.096-3.288,6.462-6.537,10.484-8.605c2.358-1.213,9.685-6.709,12.33-5.461C286.629,487.032,281.404,490.319,280.297,491.347z"/>
		<path style="fill:#231815;" d="M287.986,494.777c-3.415,1.705-5.771,4.737-7.779,7.885c-1.294,2.028-2.88,5.981-5.163,7.224
			c-0.178,0.097,0.675-5.385,0.968-6.079c1.216-2.883,3.078-6.481,5.372-8.643c1.638-1.544,5.425-4.413,7.671-4.322
			C292.773,490.994,289.303,492.901,287.986,494.777z"/>
		<path style="fill:#231815;" d="M299.087,494.586c-2.736,2.745-4.066,6.959-5.348,10.526c-0.4,1.113-2.854,6.157-2.579,6.889
			c-1.781-5.172-0.358-11.165,2.626-15.863c0.72-1.133,5.259-7.65,6.879-5.647C301.59,491.634,299.384,492.915,299.087,494.586z"/>
		<path style="fill:#231815;" d="M322.299,339.942c6.418,9.438,6.174,21.778,7.075,32.815c1.095,13.422,1.676,27.536-0.441,40.891
			c-2.049,12.924-6.799,25.126-8.4,38.134c-0.71,5.771-1.249,11.606-2.875,17.212c-1.646,5.675-4.892,10.513-8.298,15.278
			c-3.687,5.159-8.262,10.352-10.498,16.363c-0.425,1.141-1.926,4.688-0.503,5.517c1.759,1.025,6.355-7.205,7.004-8.234
			c6.205-9.847,13.859-19.618,16.441-31.149c1.661-7.416,1.844-15.047,3.044-22.534c0.923-5.758,2.878-11.274,3.792-17.032
			c1.977-12.443,3.362-24.87,3.741-37.479c0.206-6.849-0.101-13.574-0.543-20.391c-0.494-7.615,1.306-15.26,1.02-22.902
			c-0.192-5.132-2.387-14.018-8.594-14.784C317.18,330.774,321.936,336.186,322.299,339.942z"/>
		<path style="fill:#231815;" d="M203.37,417.817c0.278,6.162,0.137,12.363-0.018,18.528c-0.128,5.094-0.062,10.78-2.985,15.21
			c-5.584,8.463-14.751,7.556-22.683,11.721c0.012-0.007,0.39-0.016,0.444,0.029c-0.297-0.249-5.367,2.681-5.846,2.99
			c-1.772,1.145-3.435,2.504-4.457,4.389c2.377-0.336,5.28,0.281,7.54-0.245c2.11-0.492,4.561-2.291,6.549-3.22
			c3.3-1.542,6.592-3.006,9.937-4.428c8.637-3.672,13.316-9.504,15.651-18.509c2.195-8.464,0.906-15.618-0.229-24.104
			c-0.149-1.113-0.023-9.507-1.91-9.465C203.06,410.763,203.309,416.543,203.37,417.817z"/>
		<path style="fill:#231815;" d="M189.032,471.896c-7.134,0.953-14.296,2.586-20.216,6.722c0.016-0.011,0.521-2.385,0.852-2.867
			c0.734-1.07,1.827-1.726,2.937-2.332c2.572-1.404,6.019-2.6,8.874-3.263c1.707-0.396,11.85-2.07,11.988-0.864
			C193.555,470.07,189.706,471.544,189.032,471.896z"/>
		<path style="fill:#231815;" d="M199.577,474.621c-4.485,1.416-8.504,4.203-12.046,7.231c-2.657,2.272-4.884,5.799-7.775,7.715
			c0.164-0.109,0.555-2.747,0.801-3.303c0.572-1.292,1.377-2.415,2.29-3.49c2.101-2.474,4.777-4.926,7.417-6.802
			c1.558-1.107,14.204-6.416,14.128-4.338C204.368,472.261,200.355,474.046,199.577,474.621z"/>
		<path style="fill:#231815;" d="M206.52,479.845c4.183-3.943,8.818-8.762,14.533-10.383c2.516-0.713,5.322-0.87,7.526,0.79
			c0.874,0.659,3.471,3.774,2.557,5.16c0.921-1.395-5.215-3.916-6.153-3.976c-3.983-0.253-6.992,2.717-9.898,4.915
			c-1.393,1.054-11.196,9.643-11.503,9.269C203.033,484.951,206.163,480.453,206.52,479.845z"/>
		<path style="fill:#231815;" d="M222.456,460.984c-4.072-9.288,0.837-21.838,4.523-30.481c1.988-4.661,4.313-9.202,7.076-13.454
			c0.352-0.542,6.562-8.595,6.845-8.054c0.216,0.415-2.51,5.171-2.741,5.69c-1.274,2.864-2.68,5.656-4.075,8.462
			c-2.953,5.938-5.593,12.055-7.122,18.53c-1.054,4.462-2.78,9.186-2.302,13.825c0.313,3.039,1.342,5.594,3.929,7.325
			c0.267,0.179,5.57,2.293,5.451,2.57c-0.527,1.233-5.472,0.017-6.245-0.244C227.072,464.91,222.145,461.111,222.456,460.984z"/>
		<path style="fill:#231815;" d="M199.645,338.19c2.72-3.997,7.246-6.674,7.3-11.984c0.05-4.934-1.264-10.488-2.193-15.302
			c-1.049-5.436-2.702-10.589-3.165-16.124c-0.485-5.81-2.903-9.89-5.461-14.982c-10.667-21.238,1.577-45.199,15.37-61.636
			c3.151-3.755,6.533-7.719,10.719-10.345c2.55-1.6,12.126-5.655,10.907-10.153c-0.773-2.853-5.599,1.966-7.17,3.11
			c-4.919,3.583-9.25,7.606-13.297,12.139c-14.543,16.287-28.247,36.58-24.433,59.51c1.018,6.123,4.034,10.973,5.87,16.75
			c1.479,4.652,0.435,9.675,1.384,14.46c1.206,6.081,2.595,11.929,2.457,18.184C197.809,327.439,197.875,332.782,199.645,338.19z"/>
		<path style="fill:#231815;" d="M249.737,184.48c3.577-1.497,6.9-3.125,10.813-1.657c2.402,0.901,6.379,3.665,6.496,6.593
			c0.028,0.69-6.078-2.7-6.126-2.721c-2.033-0.901-3.821-0.922-5.962-0.386c-1.656,0.415-4.563,2.462-6.25,2.229
			C245.878,188.148,248.694,185.939,249.737,184.48z"/>
		<path style="fill:#231815;" d="M339.559,239.469c3.431,19.429,5.424,40.456,4.303,60.175c-0.524,9.219-2.146,18.466-5.535,27.085
			c-1.69,4.298-3.868,8.408-6.53,12.184c-0.779,1.105-7.089,7.355-6.979,7.936c-0.151-0.801,2.652-4.029,3.119-4.843
			c1.193-2.078,2.288-4.217,3.315-6.381c2.35-4.947,4.218-10.098,5.66-15.381c3.614-13.239,3.841-27.02,2.635-40.618
			c-0.893-10.072-1.223-20.214-2.421-30.257c-0.746-6.258-1.917-12.455-3.379-18.583c-0.233-0.978-2.72-13.649-2.832-13.682
			c2.092,0.628,4.562,10.102,5.294,12.08C337.462,232.565,338.581,235.998,339.559,239.469z"/>
		<path style="fill:#231815;" d="M221.024,185.011c1.398-5.761,1.54-11.736,2.601-17.556c0.908-4.981,2.521-9.868,3.905-14.733
			c1.437-5.052,2.983-10.132,5.379-14.825c0.844-1.652,1.773-3.295,2.896-4.777c0.453-0.598,2.701-2.417,2.75-2.779
			c-0.276,2.034-2.111,4.88-2.782,6.905c-0.923,2.785-1.823,5.58-2.703,8.379c-2.042,6.491-3.99,13.247-5.213,19.946
			c-0.999,5.473-1.818,10.977-2.712,16.47c-0.495,3.042-1.087,6.083-2.284,8.938c-0.117,0.28-3.734,6.917-4.452,5.783
			c-0.412-0.65,1.825-5.566,2.006-6.411C220.787,188.604,220.955,186.795,221.024,185.011z"/>
		<path style="fill:#231815;" d="M226.436,101.563c-3.514-8.998-8.514-16.895-12.936-25.4c-5.277-10.151-4.273-21.333,0.169-31.587
			c4.093-9.45,10.553-17.592,16.356-26.017c2.217-3.219,4.417-6.453,6.492-9.765c0.83-1.324,5.588-7.868,5.119-8.794
			c0.448,0.884-1.857,5.422-2.145,6.155c-1.022,2.604-2.2,5.133-3.5,7.609c-2.942,5.602-6.448,10.855-9.989,16.089
			c-7.09,10.48-14.706,23.107-11.965,36.308c1.793,8.635,7.486,16.193,11.239,24.045c2.854,5.97,5.387,12.084,7.49,18.359
			c0.896,2.674,1.737,5.372,2.464,8.097c0.095,0.357,1.432,6.872,1.114,6.746c-2.014-0.8-4.427-10.088-5.335-12.147
			C229.565,107.992,228.057,104.748,226.436,101.563z"/>
		<path style="fill:#231815;" d="M233.974,28.03c2.964-3.603,5.018-7.994,6.877-12.241c1.599-3.654,2.453-8.277,4.537-11.644
			c-0.012,0.02,0.881,2.928,0.91,3.507c0.106,2.11-0.577,4.093-1.238,6.06c-0.966,2.875-1.913,6.001-3.269,8.711
			c-0.939,1.877-8.918,13.068-10.105,11.182C231.3,32.993,233.653,29.04,233.974,28.03z"/>
		<path style="fill:#231815;" d="M238.952,34.015c7.585-8.415,13.065-20.247,15.092-31.301c-0.046,0.25,1.2,2.904,1.284,3.636
			c0.258,2.242-0.248,4.472-0.918,6.599c-1.398,4.438-3.423,8.88-5.524,13.033c-1.722,3.404-9.717,16.312-13.913,14.792
			C235.031,40.796,238.722,34.501,238.952,34.015z"/>
		<path style="fill:#231815;" d="M267.295,179.062c3.125-5.895,6.192-11.883,7.859-18.38c1.574-6.135,1.546-12.369,1.436-18.654
			c-0.248-14.217-2.104-28.159-8.766-40.933c-5.82-11.16-17.642-17.21-23.752-28.063c-7.108-12.629,0.362-23.85,7.72-34.247
			c3.533-4.992,7.181-10.198,8.903-16.147c0.383-1.325,1.542-14.366-1.811-11.923c-0.684,0.498-0.067,7.106-0.209,8.172
			c-0.241,1.808-0.68,3.5-1.328,5.204c-2.361,6.209-6.777,11.395-10.567,16.759c-8.007,11.331-12.678,24.071-3.561,36.416
			c7.34,9.938,17.859,16.134,22.584,28.063c5.315,13.421,6.64,27.26,5.262,41.571c-0.737,7.652-2.613,14.868-4.44,22.293
			c-0.634,2.576-3.293,9.132-2.453,11.603C265.005,183.243,266.39,180.743,267.295,179.062z"/>
		<path style="fill:#231815;" d="M294.281,161.141c-3.098,6.573-4.717,13.719-7.358,20.47c-0.989,2.528-6.717,16.073-11.299,14.007
			c-1.536-0.692,5.354-13.721,6.242-15.799c2.818-6.6,4.639-13.548,6.979-20.317c4.683-13.549,11.778-27.611,10.173-42.353
			c-1.226-11.264-7.141-21.456-12.076-31.452c-6.207-12.573-11.609-25.747-8.379-39.969c2.337-10.291,10.772-26.491,21.539-30.466
			c7.482-2.762-0.432,4.941-2.182,6.678c-4.753,4.719-9.25,9.865-12.204,15.932c-5.924,12.169-5.312,24.764-0.383,37.213
			c5.556,14.033,15.526,26.46,16.887,41.944c0.66,7.514-0.863,15.236-2.304,22.584C298.539,146.632,297.34,154.619,294.281,161.141z
			"/>
		<path style="fill:#231815;" d="M298.4,27.959c4.206-4.601,7.976-9.587,12.673-13.725c2.088-1.839,10.056-8.795,13.432-7.331
			c-0.612-0.266-7.024,5.533-7.474,5.878c-3.706,2.847-6.5,6.077-9.582,9.518c-1.663,1.858-12.108,12.767-12.528,12.091
			C294.436,33.612,297.86,28.984,298.4,27.959z"/>
		<path style="fill:#231815;" d="M306.856,30.313c3.926-4.685,7.838-9.5,12.688-13.275c2.897-2.255,8.856-6.396,12.766-4.026
			c-1.294-0.782-6.503,2.827-7.719,3.613c-3.697,2.39-6.277,5.447-9.265,8.589c-1.273,1.338-10.713,11.868-11.04,11.524
			C303.663,36.083,306.539,30.999,306.856,30.313z"/>
		<path style="fill:#231815;" d="M326.241,215.798c1.67-2.496,0.999-4.085,0.854-6.786c-0.15-2.788-0.088-1.489,1.831-3.349
			c3.697-3.584,4.288-11.038,4.561-15.813c0.275-4.806-0.563-9.254,0.434-14.009c1.126-5.37,0.332-10.371,0.116-15.797
			c-0.421-10.56,0.21-21.524,0.764-32.072c0.126-2.4,0.153-4.992-0.932-7.208c-1.144-2.336-3.45-3.891-4.864-6.066
			c-2.1-3.23-0.955-7.504-3.268-10.264c2.719,3.244,6.255,3.962,8.042,8.368c2.064,5.091,4.41,10.076,5.305,15.556
			c1.656,10.139-0.821,20.447-0.926,30.621c-0.111,10.714-0.249,21.394-1.243,32.078c-0.522,5.61-1.612,10.745-2.695,16.26
			C333.366,211.661,331.671,216.29,326.241,215.798z"/>
		<path style="fill:#231815;" d="M310.791,81.894c-4.233-9.675-8.937-20.689-5.855-31.378c1.917-6.649,6.215-12.696,11.185-17.418
			c1.979-1.881,4.136-3.607,6.477-5.019c0.375-0.227,5.828-2.745,5.812-2.456c-0.04,0.734-5.416,4.512-6.202,5.301
			c-2.392,2.4-4.704,4.888-6.823,7.534c-4.645,5.799-8.351,12.735-7.638,20.372c0.467,5.001,1.562,10.167,3.346,14.869
			c0.579,1.527,8.064,20.118,7.222,20.059C316.745,93.646,311.849,83.523,310.791,81.894z"/>
		<path style="fill:#231815;" d="M252.391,368.923c-6.308,0-8.859-9.598-1.477-7.383
			C258.297,363.755,257.559,368.923,252.391,368.923z"/>
		<path style="fill:#231815;" d="M296.689,363.017c3.581-0.298,10.161-0.148,9.968,4.88c-0.119,3.1-5.707,11.038-9.035,11.293
			c-4.513,0.345-8.373-9.447-7.63-13.16C290.718,362.397,293.65,363.017,296.689,363.017z"/>
		<path style="fill:#231815;" d="M299.643,400.67c-4.456-1.114-9.803-4.249-9.948-9.428c-0.137-4.917,5.134-8.316,9.681-7.996
			C310.622,384.038,303.571,395.959,299.643,400.67z"/>
		<path style="fill:#231815;" d="M333.604,174.748c-4.445,0-14.386,1.62-13.635,8.072c0.409,3.516,4.501,5.518,7.057,7.257
			c1.446,0.984,4.61,4.17,6.413,4.161c3.056-0.015,1.435-4.944,1.231-7.489C334.349,182.746,333.983,178.746,333.604,174.748z"/>
		<path style="fill:#231815;" d="M332.128,162.935c-3.086-0.857-15.637-4.826-10.288-9.8c2.405-2.237,6.874-2.259,9.811-3.395
			c0.994-0.384,5.101-3.412,6.112-3.085C338.466,146.882,332.795,161.259,332.128,162.935z"/>
		<path style="fill:#231815;" d="M267.895,168.842c-4.161-1.135-11.498-3.524-12.783-8.328c-1.273-4.76,6.357-9.783,10.31-10.813
			C273.843,147.508,269.091,165.11,267.895,168.842z"/>
		<path style="fill:#231815;" d="M270.111,140.048c-12.551-4.43-10.336-8.121-3.692-11.813
			C273.064,124.543,270.111,140.048,270.111,140.048z"/>
		<path style="fill:#231815;" d="M242.054,319.457c-5.498-4.713-3.738-13.975-4.883-20.433c-1.229-6.929-3.36-13.676-4.628-20.578
			c-0.794-4.324-1.098-10.054,0.299-14.25c0.837-2.515,2.746-4.598,4.083-6.874c1.91-3.251,3.64-6.675,4.957-10.212
			c1.015-2.726,2.256-6.107,1.498-9.053c-0.223-0.867-1.077-1.889-0.897-2.646c0.152-0.638,1.736-1.844,2.134-2.282
			c1.66-1.827,3.288-3.722,4.757-5.709c1.524-2.061,2.412-4.139,3.542-6.386c1.848-3.674,4.882-6.558,6.945-10.105
			c1.075-1.848,2.543-7.607,4.745-8.551c1.817-0.779,7.097,2.406,7.679,4.184c0.861,2.629-3.436,5.599-5.026,7.329
			c-2.585,2.812-5.776,6.144-6.898,9.898c-0.853,2.855,0.879,4.807,0.619,7.642c-0.501,5.455-4.227,11.147-7.114,15.673
			c3.4-0.2,6.317,6.523,5.481,9.355c-0.581,1.967-4.32,4.079-6.104,4.615c-0.92,0.276-2.652-0.013-3.199,0.548
			c-1.264,1.295-1.854,5.969-1.346,7.539c1.01,3.125,3.63,2.478,6.191,3.477c5.465,2.131-3.785,7.178-5.823,8.872
			c-4.012,3.334-1.935,7.579-1.846,12.108c0.054,2.738-1.674,4.701-1.827,7.223c-0.196,3.241,2.471,3.184,4.515,4.938
			c3.316,2.846,0.717,8.728-0.952,12.179C247.438,321.098,244.705,322.017,242.054,319.457z"/>
		<path style="fill:#231815;" d="M214.738,322.409c-1.189-5.345,1.659-9.164,4.71-13.532c1.943-2.782,6.55-3.877,2.258-5.741
			c-2.289-0.994-5.867-0.992-7.918-2.216c-1.599-0.955-1.207-0.009-0.765-1.945c0.813-3.558,4.036-6.973,5.329-10.569
			c1.415-3.937,0.545-8.098-1.865-11.033c-1.487-1.81-4.049-4.55-5.018-6.484c-1.619-3.231-0.439-9.419-0.391-12.974
			c0.068-4.974-0.319-10.573,0.661-15.487c1.519-7.623,6.715-16.505,11.571-22.428c1.492-1.82,3.844-3.876,4.681-6.117
			c0.794-2.126,0.604-1.813-1.337-0.891c-5.732,2.723-11.879,10.219-14.288,16.051c-2.131,5.158-1.337,10.978-3.594,16.111
			c-1.592,3.621-4.378,4.939-6.85,7.773c-0.988,1.133-1.962,2.215-1.316,3.678c1.247,2.826,5.709,3.492,6.092,7.392
			c0.421,4.283-10.627,9.641-5.906,12.949c2.331,1.633,5.347,0.682,6.677,3.802c0.766,1.797,0.87,5.232,0.582,7.091
			c-0.392,2.533-3.224,4.504-3.426,6.871c-0.233,2.728,2.852,3.343,4.426,5.367c5.361,6.895,0.033,12.908,0.247,20.362
			c0.046,1.619,0.142,6.996,2.57,6.497C213.164,326.667,214.289,323.497,214.738,322.409z"/>
		<path style="fill:#231815;" d="M259.775,295.092c-6.645-2.954-6.645-5.168-1.477-6.645
			C263.465,286.971,259.775,295.092,259.775,295.092z"/>
		<path style="fill:#231815;" d="M220.644,253.747c-4.162-1.387-5.377-3.219-4.203-7.37c0.605-2.139,3.37-13.216,6.035-13.519
			C225.314,232.537,221.292,251.098,220.644,253.747z"/>
		<path style="fill:#231815;" d="M272.326,241.934c-9.128,1.141,1.223-12.418,5.108-12.114
			C283.18,230.27,274.059,240.718,272.326,241.934z"/>
		<path style="fill:#231815;" d="M274.54,272.205c-3.432-1.144-5.42-4.099-2.738-7.114c0.859-0.966,6.387-5.926,7.78-5.323
			c2.404,1.04,0.125,6.653-0.777,8.103C277.735,269.594,276.222,271.075,274.54,272.205z"/>
		<path style="fill:#231815;" d="M280.447,297.307c-4.431-0.738-8.121-8.859-0.739-5.906
			C287.091,294.354,280.447,297.307,280.447,297.307z"/>
		<path style="fill:#231815;" d="M286.353,211.663c-4.43-2.215-2.954-8.859,2.214-7.383
			C293.737,205.757,286.353,211.663,286.353,211.663z"/>
		<path style="fill:#231815;" d="M222.859,405.1c-4.198,3.358-2.954-5.168,0-6.645C225.812,396.979,226.55,402.147,222.859,405.1z"
			/>
		<path style="fill:#231815;" d="M213.672,385.904c-0.593-1.981-3.095-14.028-0.442-11.813
			C215.883,376.306,214.557,388.857,213.672,385.904z"/>
		<path style="fill:#231815;" d="M223.227,385.166c-2.592-1.477,0.37-14.767,1.481-9.598
			C225.819,380.736,223.227,385.166,223.227,385.166z"/>
	</g>
</g>
</svg>
