<?xml version="1.0" encoding="iso-8859-1"?>
<!-- Generator: Adobe Illustrator 18.1.1, SVG Export Plug-In . SVG Version: 6.00 Build 0)  -->
<svg version="1.1" id="_x31_1" xmlns="http://www.w3.org/2000/svg" xmlns:xlink="http://www.w3.org/1999/xlink" x="0px" y="0px"
	 viewBox="0 0 512 512" style="enable-background:new 0 0 512 512;" xml:space="preserve">
<g>
	<path style="fill:#94C85C;" d="M258.884,72.325c-8.327,0.346-31.043,6.097-34.369,0.554c-3.326-5.543-9.978-16.631-18.849-17.185
		c-8.869-0.554-16.075,14.969-19.957,21.066c-3.88,6.097-12.195,15.521-18.294,22.174c-6.097,6.652-20.511,26.055-18.294,44.349
		c2.219,18.294,10.532,26.055,14.414,28.272c3.88,2.217-8.869,4.989-12.751,9.978c-3.88,4.989-17.184,33.262-24.946,55.435
		c-7.76,22.174-17.185,49.89-19.957,55.435c-2.771,5.545-26.609,33.263-31.043,38.806c-4.435,5.543-11.088,10.532-11.088,10.532
		s-22.729-18.848-36.588-8.315c11.088,1.663,18.848,7.206,19.957,11.641c1.109,4.435-7.206,7.762-7.206,7.762
		s-12.197-0.556-11.642,8.869C14.968,367.243,0,351.167,0,351.167s6.652,21.62,29.935,23.283c3.88,1.663,2.217,4.434,4.434,4.434
		c2.219,0,12.197-0.554,12.197-0.554s0,2.217,8.315,0.554c8.315-1.663,11.642-6.097,11.642-6.097s55.989-41.577,64.304-53.218
		c8.315-11.642,11.641-10.534,11.641-10.534s-14.968,40.469-8.315,49.338c-9.979,2.772-9.979-0.556-28.272,5.543
		c-18.294,6.098-34.924,7.208-46.011,27.165c-11.088,19.957-9.978,40.469,9.978,53.218c19.957,12.749,66.523,18.294,103.11,8.869
		c36.588-9.425,63.751-29.934,69.294-32.152c5.545-2.218,28.272-2.218,43.24,5.543c14.968,7.762,52.111,20.512,68.741,22.729
		c16.631,2.217,43.238,7.206,69.294,0.554c26.055-6.652,29.935-18.292,33.261-32.152c3.326-13.86,3.328-24.391-5.543-29.935
		c-8.869-5.545-38.251-28.826-68.186-36.588c-7.206-19.403-9.425-36.588-13.858-44.903c-4.435-8.315,5.543,1.663,14.412,11.641
		c8.871,9.979,16.077,19.955,27.718,26.054c11.642,6.098,22.174,11.643,25.5,17.186c3.326,5.543,7.762,8.867,8.871,11.086
		c1.108,2.218,6.865,5.912,9.978,7.208c6.652,2.771,15.521,6.652,22.728-6.099c7.761,8.315,23.283-2.219,28.828-14.414
		c-13.86,10.534-25.502,5.545-25.502,5.545s-6.097-12.749-11.086-8.315c-6.098,0-12.197-3.882-8.315-7.762
		c3.88-3.88,13.305-9.425,18.848-6.652c-11.088-6.099-28.826-5.543-33.262,1.109c-16.077-18.294-21.066-24.946-25.5-29.935
		c-4.435-4.989-16.077-17.185-18.294-21.62c-2.219-4.435-3.328-5.543-3.882-8.315c-0.554-2.772-4.434-19.403-6.097-26.055
		c-1.663-6.652-8.871-22.175-13.305-34.371c-4.435-12.195-13.305-26.609-14.968-31.598c-1.663-4.989-5.545-14.414-12.197-16.631
		c-6.652-2.217-17.738-1.661-15.522-2.771c2.217-1.109,9.425-7.208,11.088-17.186c1.663-9.979,5.543-20.509,1.663-27.717
		c-3.882-7.208-12.197-19.958-18.294-27.165c-6.098-7.206-9.423-6.097-12.195-10.532c-2.772-4.435-8.871-15.521-14.414-21.62
		c-5.543-6.099-12.751-11.089-17.74-8.871c-4.989,2.219-12.749,11.088-12.749,11.088S272.189,71.771,258.884,72.325z"/>
	<g>
		<path style="fill:#FFFFFF;" d="M177.949,347.843c-8.871-7.762-13.86-28.826-0.555-51.555
			c13.305-22.729,38.251-69.295,22.175-90.915c-16.077-21.62-10.534-57.098,4.434-56.544c14.968,0.554,29.383,4.435,41.579,6.098
			c12.195,1.663,18.848,1.109,33.261-4.989c14.412-6.099,23.283-6.099,31.043,7.206c7.762,13.305,14.969,39.912,2.219,55.435
			c-12.751,15.523-7.206,32.154,6.652,50.448s31.043,68.742,25.5,84.817c-12.195,1.663-31.045-3.326-48.229,3.88
			c-17.185,7.206-50.446,19.957-50.446,19.957s-2.772-2.772-10.534-6.098C227.286,362.255,184.601,348.952,177.949,347.843z"/>
		<path style="fill:#FFFFFF;" d="M343.702,352.832c0,0,1.663,8.314-1.663,9.423c-3.326,1.109-8.871,0.555-14.414-1.108
			c-5.543-1.663-3.88-3.88-1.109-4.989C329.288,355.049,343.702,352.832,343.702,352.832z"/>
		<path style="fill:#FFFFFF;" d="M341.484,370.57c0,0,0.002,5.543-4.434,4.989c-4.435-0.554-8.315-4.434-8.315-4.434L341.484,370.57
			z"/>
		<path style="fill:#FFFFFF;" d="M180.166,358.375c0,0,0.555,6.654,3.326,6.099c2.772-0.556,7.206-1.109,7.206-1.109
			L180.166,358.375z"/>
	</g>
	<g>
		<g>
			<path style="fill:#231815;" d="M191.703,64.956c-0.812,1.356-1.583,2.737-2.339,4.067c-1.078,1.866-2.966,5.514-4.853,8.756
				c-1.881,3.26-3.899,6.007-4.841,6.599c-1.265,0.828-2.352,2.051-2.649,3.435c-0.289,1.375,0.166,2.998,2.236,4.559
				c1.689,1.27,3.339,0.989,4.544-0.008c1.213-0.987,1.929-2.629,1.942-3.88c0.034-0.82,1.522-4.223,2.867-7.924l3.498-9.582
				c0.737-2.04,1.632-3.873,2.48-4.962c0.317-0.387,1.289-1.991,3.021-3.999c0.867-0.997,1.942-2.076,3.256-3.053
				c1.293-0.955,2.92-1.864,4.585-2.35c1.728-0.482,3.594-0.547,5.335,0.002c1.751,0.53,3.368,1.629,4.783,2.948
				c2.829,2.675,4.952,6.012,6.69,8.742c3.349,5.455,5.283,8.704,6.621,10.653c1.325,1.963,1.876,2.746,2.42,3.505
				c0.557,0.765,1.441,1.086,2.293,1.041c0.854-0.039,1.684-0.456,2.254-1.023c0.577-0.573,0.927-1.299,0.893-1.98
				c-0.034-0.698-0.442-1.347-1.506-2.037c-1.027-0.681-1.809-1.212-3.195-2.769c-1.407-1.561-3.277-4.237-6.68-9.412
				c-1.869-2.727-4.093-6.16-7.425-9.243c-1.671-1.515-3.719-2.922-6.136-3.64c-2.409-0.739-5.027-0.612-7.226,0.038
				c-4.486,1.41-7.516,4.313-9.482,6.659C193.136,62.475,192.096,64.329,191.703,64.956z"/>
			<path style="fill:#231815;" d="M286.487,58.824c-1.239,0.914-2.373,1.923-3.43,2.923c-1.515,1.39-4.081,4.292-6.321,7.031
				c-2.261,2.737-4.356,5.195-5.303,5.699c-2.543,1.436-4.408,4.531-0.274,7.611c3.443,2.524,6.15-0.917,6.121-3.19
				c0.023-0.747,1.458-3.693,3.107-6.782c1.641-3.107,3.674-6.266,4.768-7.74c1.117-1.582,2.444-2.857,3.527-3.411
				c0.392-0.167,1.759-1.19,3.945-1.655c1.086-0.221,2.37-0.239,3.724,0.137c0.333,0.096,0.689,0.213,1.015,0.346
				c0.328,0.123,0.614,0.289,0.97,0.497c0.685,0.399,1.364,0.88,2.033,1.413c2.68,2.145,5.117,5.178,7.274,8.215
				c2.154,3.047,4.057,6.123,5.629,8.671c6.149,10.077,7.082,11.57,7.836,13.001c0.814,1.449,2.945,1.332,4.291,0.429
				c1.355-0.91,1.999-2.454,0.044-3.989c-1.881-1.553-2.909-2.102-9.053-11.437c-1.655-2.491-3.636-5.549-5.923-8.671
				c-2.296-3.11-4.9-6.324-8.049-8.795c-0.786-0.612-1.605-1.178-2.457-1.661c-0.403-0.232-0.914-0.512-1.413-0.69
				c-0.489-0.192-0.942-0.331-1.418-0.46c-1.899-0.492-3.81-0.43-5.34-0.058c-1.538,0.369-2.725,0.952-3.586,1.444
				C287.341,58.199,286.778,58.613,286.487,58.824z"/>
			<path style="fill:#231815;" d="M245.808,74.673c-6.384-0.128-9.205-2.016-9.467-3.083c-0.148-0.541,0.239-0.884,0.892-1.018
				c0.659-0.132,1.629-0.068,2.831,0.265c4.877,1.311,10.092,0.705,14.104,0.614c4.054-0.099,8.077-0.477,12.13-0.82
				c2.03-0.156,5.104-0.388,7.091-0.5c1.978-0.11,2.902,0.088,0.453,1.064c-2.459,0.931-4.197,1.613-6.097,2.233
				c-1.902,0.607-3.977,1.15-7.143,1.468c-3.167,0.322-6.881,0.357-9.785,0.205C247.91,74.957,245.808,74.667,245.808,74.673z"/>
			<path style="fill:#231815;" d="M242.166,140.045c-4.599-10.898-13.22-6.447-9.069-2.376
				C237.248,141.74,242.166,140.045,242.166,140.045z"/>
			<path style="fill:#231815;" d="M263.315,139.816c-3.607,0,2.163-7.213,2.163-7.213l3.605,1.442
				C269.083,134.045,270.525,139.816,263.315,139.816z"/>
			<path style="fill:#231815;" d="M177.176,124.278c-2.282-4.56,0.721-8.653,5.048-15.145c4.328-6.49,8.655-2.165,6.492,1.442
				c-2.163,3.607-3.607,3.607-3.607,7.932C185.108,122.836,180.06,130.048,177.176,124.278z"/>
			<path style="fill:#231815;" d="M322.856,111.297c-2.163-2.163,0.719-10.095,2.163-7.932c1.444,2.163,2.163,8.651,7.934,11.539
				c5.769,2.884,0.721,5.769-2.163,5.048C327.905,119.23,322.856,111.297,322.856,111.297z"/>
			<path style="fill:#231815;" d="M236.314,121.394c-0.723-3.605-7.934-10.818-3.607-15.145c4.327-4.328,2.163,2.163,3.607,7.211
				C237.755,118.507,236.314,121.394,236.314,121.394z"/>
			<path style="fill:#231815;" d="M266.603,117.788c-0.721-2.163-1.442-12.983,2.884-15.145c4.327-2.165,3.606,4.325,2.163,7.932
				C270.209,114.183,266.603,117.788,266.603,117.788z"/>
			<path style="fill:#231815;" d="M172.341,224.067c-3.648,3.253-5.883,6.884-7.096,10.004c-1.207,3.12-1.387,5.761-0.752,7.018
				c0.637,1.252-0.341,5.132-1.99,9.91c-1.617,4.775-4.034,10.505-5.13,15.937c-1.091,5.4-2.373,9.566-3.438,12.852l-0.742,2.293
				l-0.166,0.521l-0.01,0.034l-0.005,0.015c0.034-0.171,0.008-0.046,0.016-0.081l-0.002,0.003l-0.003,0.008l-0.021,0.06
				l-0.044,0.123l-0.086,0.242l-0.312,0.871c-0.396,1.114-0.692,2.017-0.768,2.79c-0.143,1.554-0.944,4.239-2.249,6.748
				c-1.288,2.512-2.956,5-3.797,6.427c-0.864,1.401-2.254,4.145-3.219,6.597c-0.984,2.446-1.619,4.554-1.621,4.551
				c0,0-0.672,2.095-1.379,4.739c-0.719,2.643-1.41,5.835-1.9,7.952c-0.503,2.113-1.402,7.567-1.921,14.26
				c-0.263,3.342-0.443,6.997-0.443,10.685c0.002,1.843,0.05,3.695,0.18,5.514c0.073,0.913,0.135,1.812,0.302,2.672
				c0.167,0.866,0.404,1.713,0.676,2.538c1.277,3.703,2.932,6.438,4.273,8.658c1.376,2.21,2.564,3.886,3.592,5.275
				c2.063,2.776,3.51,4.396,5.228,6.54c2.162,2.676,3.653,4.135,3.821,3.333c0.18-0.818-1.15-3.896-4.81-9.202
				c-3.625-5.314-6.164-9.615-7.663-13.232c-0.747-1.79-1.233-3.422-1.408-4.695l-0.058-0.51l-0.01-0.083
				c-0.013-0.111,0.02,0.145,0.016,0.117v-0.005v-0.008l-0.002-0.018l-0.003-0.039l-0.012-0.146l-0.019-0.292l-0.062-1.166
				l-0.063-2.295c-0.044-3.032,0.089-5.458,0.266-7.874c0.189-2.418,0.438-4.845,0.875-7.953c0.452-3.105,0.767-4.822,1.2-7.04
				c0.463-2.204,0.986-4.965,2.459-9.883c0.929-2.962,1.454-4.447,1.783-5.668c0.346-1.231,0.523-2.238,1.096-4.227
				c0.588-1.986,1.309-3.35,2.207-4.916c0.895-1.578,2.022-3.298,3.508-6.334c1.478-3.06,2.43-5.212,3.212-7.065
				c0.775-1.866,1.418-3.475,1.949-5.689l0.184-0.794l0.172-0.799l0.266-1.286l0.624-2.704c0.51-2.048,1.156-4.867,2.709-9.894
				c1.572-5.017,3.19-9.592,4.422-13.655c1.247-4.052,2.132-7.523,2.859-10.165c1.458-5.298,1.751-9.699,2.993-12.787
				C173.289,229.74,172.352,224.049,172.341,224.067z"/>
			<path style="fill:#231815;" d="M340.038,219.715c-2.068,4.438-2.298,8.994-1.635,12.481c0.653,3.503,2.139,5.955,3.407,6.639
				c1.273,0.688,2.839,4.528,4.94,9.319c2.09,4.798,4.669,10.531,7.473,15.227c2.808,4.702,4.192,8.851,5.017,12.142
				c0.835,3.29,1.12,5.714,1.975,7.214c1.648,2.943,4.694,11.156,5.819,14.229c1.155,3.068,4.619,11.086,4.591,11.097
				c0.023-0.011,3.341,8.08,4.422,12.311c0.556,2.105,2.31,7.367,3.591,14.035c0.635,3.329,1.129,7.016,1.265,10.774
				c0.145,3.757-0.094,7.586-0.773,11.112c-0.767,3.968-1.791,7.047-2.771,9.524c-0.991,2.475-1.938,4.356-2.771,5.922
				c-1.707,3.11-2.897,5.02-4.582,7.299c-2.154,2.829-3.302,4.557-2.464,4.557c0.406-0.016,1.312-0.473,2.69-1.624
				c1.367-1.153,3.242-2.993,5.288-5.908c4.073-5.85,6.138-11.226,7.437-15.763c1.268-4.57,1.772-8.393,1.903-11.892
				c0.111-3.503-0.026-6.204-0.245-8.882c-0.229-2.675-0.562-5.332-1.15-8.692c-0.604-3.357-1.025-5.192-1.587-7.57
				c-0.578-2.371-1.303-5.29-2.938-10.625c-2.043-6.462-2.254-6.292-4.276-10.268c-2.048-3.948-2.232-6.225-5.079-12.172
				c-2.845-5.951-2.969-8.161-4.38-12.312c-0.728-2.111-1.168-3.436-1.923-5.532c-0.765-2.092-1.85-4.963-4.111-10.004
				c-2.267-5.038-4.533-9.415-6.441-13.183c-1.916-3.763-3.485-6.92-4.534-9.415c-2.105-4.966-4.151-8.825-4.573-12.09
				c-0.201-1.622-1.139-3.583-1.964-5.148C340.82,220.951,340.043,219.702,340.038,219.715z"/>
			<path style="fill:#231815;" d="M67.834,438.277c-4.275-5.08-8.39-10.7-10.297-16.718c-0.674-2.11-1.234-4.785-1.216-7.861
				c0.005-3.071,0.62-6.526,1.863-10.073c0.304-0.89,0.658-1.76,1.038-2.733c0.359-0.947,0.724-1.816,1.142-2.722
				c0.825-1.793,1.793-3.568,2.884-5.293c2.181-3.453,4.851-6.698,7.789-9.566c5.874-5.766,12.824-9.905,18.781-12.119
				c0.747-0.283,1.47-0.533,2.176-0.758l2.173-0.682l3.864-1.171c2.332-0.687,4.156-1.176,5.324-1.434l10.031-2.318
				c3.373-0.755,6.594-1.267,9.611-1.695c3.008-0.434,5.735-0.897,7.581-1.618c1.851-0.714,2.834-1.66,2.506-2.892
				c-0.268-1.005-1.702-1.769-3.874-2.314c-2.171-0.536-5.096-0.884-8.429-0.812c-3.333,0.055-6.998,0.676-10.183,1.592
				c-3.201,0.908-6.014,2.024-8.133,3.018c-1.395,0.65-5.837,2.329-11.934,4.681c-6.414,2.386-14.049,6.833-20.564,13.084
				c-3.263,3.112-6.267,6.641-8.755,10.427c-2.491,3.761-4.476,7.856-5.769,11.767c-1.445,3.868-2.322,7.801-2.491,11.31
				c-0.195,3.523,0.296,6.602,0.934,8.938c1.34,4.96,3.882,9.23,6.394,12.814c1.264,1.798,2.534,3.443,3.734,4.949
				c1.187,1.502,2.376,2.901,3.501,4.049c0.824,0.841,2.799,2.839,6.167,5.155c3.351,2.324,8.145,4.867,14.17,6.844
				c6.016,1.999,13.218,3.43,21.146,4.197c7.929,0.783,16.579,0.924,25.58,0.667c9.022-0.271,18.328-0.852,27.837-1.564
				c9.545-0.905,19.012-3.227,27.904-6.418c8.905-3.186,17.254-7.185,24.943-11.287c7.692-4.109,14.743-8.314,21.097-12.119
				c6.251-3.739,11.775-7.139,16.821-9.985c5.127-3.001,9.261-6.139,12.9-8.861c3.628-2.74,6.748-5.111,9.548-7.058
				c2.793-1.951,5.257-3.484,7.442-4.698l0.807-0.439c0.148-0.08,0.213-0.117,0.297-0.153l0.414-0.185
				c0.563-0.258,1.101-0.515,1.613-0.772c1.023-0.515,1.951-1.023,2.794-1.517c1.686-0.989,3.042-1.9,4.203-2.703
				c2.318-1.611,3.88-2.768,5.447-3.802c3.125-2.116,5.748-3.757,7.911-5.045c2.137-1.289,3.672-2.318,3.955-3.154
				c0.286-0.806-0.689-1.491-3.466-1.288c-1.377,0.12-3.221,0.499-5.413,1.429c-2.193,0.914-4.673,2.459-7.159,4.487
				c-2.409,1.949-4.294,3.62-6.682,5.312c-1.192,0.843-2.504,1.689-4.065,2.537c-0.39,0.211-0.796,0.422-1.22,0.633l-0.434,0.214
				l-0.396,0.232l-0.707,0.414c-0.945,0.577-1.952,1.194-3.001,1.89c-4.236,2.737-9.228,6.69-15.869,11.856
				c-3.341,2.55-7.115,5.389-11.71,8.038c-4.788,2.788-9.952,6.016-15.856,9.598c-6.281,3.818-13.228,8.008-20.769,12.085
				c-7.541,4.07-15.692,8.02-24.35,11.164c-8.647,3.151-17.813,5.451-27.064,6.375c-2.297,0.239-4.637,0.365-6.997,0.531
				l-7.003,0.452c-4.642,0.286-9.223,0.523-13.712,0.661c-8.975,0.283-17.587,0.166-25.472-0.596
				c-7.882-0.754-15.028-2.175-20.977-4.187c-5.957-2.001-10.677-4.582-13.995-7.026C70.854,441.603,68.845,439.411,67.834,438.277z
				"/>
			<path style="fill:#231815;" d="M386.853,352.743c7.82,3.089,14.846,6.564,20.826,9.365c5.939,2.797,10.766,4.89,13.1,5.1
				c2.3,0.205,9.47,4.128,17.48,10.54c3.99,3.198,8.231,6.987,11.989,11.164c3.709,4.075,6.438,8.962,7.948,13.93
				c1.535,4.975,1.489,9.86,0.658,14.001c-0.833,4.164-2.415,7.63-4.114,10.412c-1.707,2.793-3.54,4.922-5.158,6.629
				c-1.624,1.708-3.045,3.001-4.111,4.132c-1.064,1.132-2.728,2.599-4.843,4.003c-2.11,1.413-4.671,2.745-7.37,3.742
				c-2.694,1.007-5.515,1.67-8.047,2.016c-2.548,0.359-4.745,0.396-6.383,0.383l-14.505,0.041l-9.594-0.088
				c0,0-4.388-0.052-9.87-0.271c-5.483-0.21-12.056-0.625-16.418-1.09c-2.181-0.231-6.048-0.564-11.047-1.147
				c-4.996-0.593-11.14-1.392-17.793-2.857c-3.333-0.713-6.74-1.772-10.253-2.772c-3.506-1.02-7.096-2.084-10.665-3.289
				c-3.57-1.207-7.114-2.568-10.542-4.081c-1.715-0.752-3.404-1.538-5.059-2.345c-1.653-0.83-3.266-1.598-4.921-2.287
				c-7.412-3.105-13.654-4.814-18.809-6.032c-5.169-1.192-9.3-1.829-12.783-2.24c-6.975-0.775-11.372-0.765-16.848-0.582
				c-6.902,0.309-10.574,1.46-9.366,1.85c0.601,0.224,2.412,0.294,5.663,0.37c3.251,0.085,7.953,0.185,14.334,0.786
				c6.379,0.614,12.054,1.665,17.123,2.884c5.07,1.223,9.543,2.62,13.53,4.086c1.994,0.736,3.867,1.491,5.629,2.261
				c0.892,0.393,1.715,0.768,2.558,1.171l2.441,1.242c3.386,1.705,6.61,3.18,9.767,4.445c6.332,2.521,11.344,4.046,16.256,5.582
				l3.708,1.14l1.889,0.581l2.048,0.601c2.775,0.776,5.73,1.468,9.051,2.131c6.638,1.285,10.319,1.78,15.107,2.422
				c4.788,0.606,10.678,1.324,21.729,2.165c6.722,0.49,10.043,0.598,12.79,0.617c2.748,0.007,4.921-0.094,9.351-0.247
				c4.429-0.159,7.742-0.085,11.616-0.036l3.037,0.02l1.645-0.01c0.599-0.007,1.218-0.023,1.86-0.059
				c2.565-0.146,5.503-0.526,8.89-1.497c3.383-0.978,6.084-2.113,8.382-3.219c2.295-1.121,4.188-2.215,5.902-3.329
				c3.401-2.249,6.196-4.461,9.243-8.034c1.501-1.804,2.61-3.36,3.64-4.968c1.021-1.613,1.97-3.281,2.946-5.428
				c0.96-2.15,1.983-4.786,2.748-8.418c0.729-3.615,1.26-8.304,0.247-14.217c-1.03-5.91-3.541-11.192-6.706-15.429
				c-1.593-2.152-3.326-3.971-4.996-5.644c-1.686-1.679-3.375-3.208-5.031-4.632c-6.646-5.665-12.754-9.641-17.506-12.596
				c-9.558-5.905-18.13-8.781-24.418-11.323c-3.159-1.304-7.724-2.033-11.442-2.079
				C389.656,352.229,386.821,352.757,386.853,352.743z"/>
			<path style="fill:#231815;" d="M202.546,92.079c5.673,5.043,12.606,1.89,17.02,0c4.413-1.89,3.781,4.411,0.63,5.043
				c-2.009,0.401-6.971,1.343-11.072,1.025c-3.445-0.268-5.437-1.657-5.949-1.655C196.241,96.506,198.763,90.188,202.546,92.079z"/>
			<path style="fill:#231815;" d="M286.919,98.098c-1.478,0.192-2.956-4.626-0.593-4.626c2.366,0,4.729,3.083,9.607,2.504
				c4.875-0.577,4.284-3.661,6.206-3.854c1.92-0.192,3.25,3.854,1.033,4.241c-2.215,0.385-2.806,4.239-7.091,4.239
				C291.795,100.602,289.726,98.289,286.919,98.098z"/>
			<path style="fill:#231815;" d="M234.847,152.246c-1.559-0.409-3.13-0.882-4.646-1.389l-4.414-1.509l-2.805-0.983l-1.384-0.495
				l-0.684-0.288l-0.749-0.3c-3.953-1.598-7.917-2.617-9.196-3.175c-1.65-0.809-4.141-1.103-6.175-0.094
				c-0.992,0.489-1.803,1.316-2.037,2.249c-0.25,0.942,0.107,1.873,0.87,2.836c0.63,0.794,1.217,1.317,1.662,1.723
				c0.463,0.403,0.861,0.643,1.343,0.747c0.932,0.2,2.293-0.042,3.308-0.555c0.325-0.174,1.34-0.281,2.8-0.218
				c1.455,0.062,3.347,0.31,5.313,0.716l1.479,0.33l0.802,0.203l0.806,0.163l2.997,0.612c1.895,0.39,3.56,0.732,4.663,0.932
				c2.322,0.429,4.489,0.919,5.923,1.434c0.526,0.179,2.501,0.765,5.454,1.397c2.951,0.62,6.878,1.285,11.268,1.411
				c2.193,0.062,4.502-0.016,6.828-0.348c1.163-0.162,2.329-0.396,3.479-0.702c1.132-0.313,2.205-0.625,3.297-0.968
				c4.319-1.376,8.309-2.923,11.627-4.012c1.629-0.541,3.086-0.991,4.395-1.346c0.648-0.17,1.239-0.343,1.783-0.446l1.683-0.299
				c2.131-0.374,3.708-0.628,4.918-0.806c2.417-0.351,3.362-0.399,4.283-0.466c1.85-0.133,2.933-1.963,2.904-3.516
				c-0.023-1.548-1.322-2.826-4.177-1.673c-1.372,0.559-2.366,0.991-4.632,1.631c-1.132,0.318-2.582,0.692-4.549,1.16l-1.65,0.395
				l-1.864,0.578c-1.273,0.406-2.685,0.891-4.254,1.462c-3.355,1.204-7.3,2.81-11.435,4.192c-1.022,0.339-2.108,0.671-3.138,0.971
				c-1.009,0.284-2.042,0.505-3.091,0.666c-2.098,0.327-4.241,0.43-6.31,0.395c-4.145-0.073-7.987-0.676-10.93-1.26
				C237.667,153.005,235.577,152.433,234.847,152.246z"/>
			<path style="fill:#231815;" d="M180.263,182.955c-1.138-1.437-1.884-2.727-2.532-3.778c-0.648-1.059-1.236-1.912-1.855-2.59
				c-1.216-1.343-2.571-1.999-3.578-1.799c-0.994,0.211-2.789-1.389-4.763-3.724c-1.991-2.326-4.145-5.351-6.42-7.74
				c-3.367-3.542-4.214-7.057-4.867-9.129l0.075,0.166c-0.148-0.718-0.283-1.291-0.552-1.71c-0.517-0.784-1.035-2.434-1.314-4.159
				c-0.292-1.722-0.378-3.493-0.403-4.458l-0.227-4.289c-0.067-1.549-0.08-2.865-0.081-2.865c0,0-0.029-1.312,0.05-2.956
				c0.076-1.64,0.274-3.619,0.578-4.885c0.276-1.244,0.945-4.533,2.814-8.224c1.816-3.708,4.711-7.7,7.463-11.031
				c3.105-3.747,4.726-6.191,5.691-8.07c0.961-1.881,1.346-3.155,1.775-4.721c0.516-1.989,0.213-3.174-0.315-2.977
				c-0.578,0.192-1.255,1.665-2.964,4.835c-1.767,3.18-3.773,5.509-5.463,7.484c-1.712,1.97-3.19,3.583-4.437,5.209
				c-2.474,3.286-3.892,5.192-5.951,9.058c-0.996,1.965-1.459,3.131-1.996,4.666c-0.265,0.785-0.526,1.614-0.815,2.829l-0.19,0.854
				l-0.197,1.015c-0.128,0.689-0.253,1.455-0.382,2.324c-0.554,4.224-0.314,4.198,0.042,7c0.205,1.398,0.185,2.433,0.191,3.651
				c0.015,1.213,0.038,2.616,0.5,4.69c0.476,2.068,0.728,3.448,0.94,4.69c0.219,1.236,0.383,2.334,0.929,3.74l0.01,0.023
				l0.031,0.081l0.052,0.104c0.624,1.236,0.996,2.009,1.634,3.225c0.648,1.208,1.549,2.863,3.442,5.692
				c3.815,5.681,7.891,9.459,10.397,11.84c2.526,2.425,5.114,3.635,6.774,5.14c0.836,0.775,2.389,1.158,3.678,1.15
				c0.646-0.003,1.21-0.088,1.649-0.175C180.063,183.041,180.257,182.952,180.263,182.955z"/>
			<path style="fill:#231815;" d="M325.543,181.688c0.523,1.29,2.228,2.587,4.33,3.058c2.089,0.479,4.595,0.098,6.34-1.751
				c1.746-1.824,5.187-5.256,8.134-9.215c2.983-3.927,5.405-8.374,6.16-11.188c0.788-2.8,2.256-6.15,3.443-9.464
				c1.208-3.299,2.123-6.557,2.417-8.673c0.156-1.054,0.359-2.555,0.473-4.379c0.107-1.808,0.115-4.026-0.253-6.363
				c-0.359-2.339-1.075-4.799-2.102-7.131c-1.02-2.339-2.329-4.549-3.742-6.54c-5.744-7.833-6.517-8.877-12.492-18.034
				c-2.912-4.611-4.492-6.909-5.121-7.003c-0.593-0.117-0.193,2.014,1.799,5.707c2.016,3.667,3.521,5.593,4.954,7.539
				c1.437,1.943,2.876,3.879,4.935,7.417c2.051,3.539,4.086,7.018,5.623,10.371c1.556,3.347,2.556,6.581,3.073,9.459
				c0.53,2.863,0.333,6.259-0.252,9.426c-0.586,3.186-1.605,6.188-2.545,8.671c-0.929,2.495-2.625,5.58-4.422,8.174
				c-1.782,2.61-3.61,4.755-4.403,5.809c-0.784,1.064-2.72,3.329-4.601,5.189c-1.865,1.874-3.628,3.367-3.625,3.367l-3.633,2.199
				C328.139,179.504,326.074,180.761,325.543,181.688z"/>
			<path style="fill:#231815;" d="M168.287,174.454c-1.13-1.452-2.854-2.311-4.619-2.535c-1.764-0.239-3.471,0.091-4.827,0.637
				c-2.742,1.125-4.138,2.946-4.247,4.059c-0.06,0.568-0.659,1.376-1.554,2.391c-0.807,0.892-2.157,2.17-3.466,3.573
				c-2.683,2.815-5.602,6.633-7.141,10.446c-1.551,3.782-3.045,6.605-4.302,8.822c-1.247,2.214-2.222,3.796-2.383,5.017
				c-0.356,2.439-2.274,8.518-2.988,10.763c-0.71,2.248-2.266,8.4-2.279,8.398c0.011,0-1.609,6.144-2.707,9.119
				c-0.974,3.014-5.015,15.307-7.643,25.289l-3.344,11.385c-0.71,2.452-1.091,4.018-1.702,5.959
				c-0.773,2.431-0.995,3.929-0.387,3.739c0.577-0.197,2.072-2.129,3.807-6.745c1.7-4.609,2.862-8.254,3.877-11.288
				c1.001-3.034,1.808-5.47,2.469-7.721c0.664-2.269,1.186-3.946,1.765-5.694l2.082-5.561c1.658-4.469,1.863-4.953,4.564-12.45
				c1.622-4.57,1.432-4.574,1.981-7.757c0.526-3.168,1.541-4.575,2.475-9.251c0.952-4.658,1.955-5.973,3.027-8.89
				c0.549-1.455,0.945-2.34,1.58-3.747c0.651-1.398,1.493-3.347,3.311-6.691c3.664-6.691,7.476-11.374,10.383-14.094
				c1.364-1.348,2.546-2.555,3.698-3.484c1.145-0.93,2.264-1.577,3.316-1.77c1.044-0.2,2.18-0.822,3.238-1.239
				c0.517-0.211,1.031-0.388,1.361-0.502C168.009,174.518,168.297,174.459,168.287,174.454z"/>
			<path style="fill:#231815;" d="M117.901,288.636c-2.219-2.118-4.91-2.332-6.602-1.79c-1.748,0.536-2.61,1.728-2.53,2.649
				c0.065,0.931-1.415,2.141-3.135,3.815c-1.726,1.662-3.693,3.778-4.815,6.024c-0.952,1.897-2.074,3.187-3.115,4.14l0.11-0.127
				c-1.554,1.137-2.875,1.689-3.248,2.495c-0.648,1.397-3.373,4.161-4.396,5.2c-1.026,1.036-3.375,4.184-3.372,4.185
				c-0.005-0.003-2.334,3.159-3.652,4.587c-1.314,1.447-6.024,7.872-9.738,12.957c-2.223,2.788-3.544,4.476-4.457,5.753
				c-0.916,1.273-1.419,2.141-2.132,3.18c-0.903,1.298-1.212,2.27-0.699,2.412c0.494,0.133,1.873-0.582,3.906-2.849
				c3.989-4.552,6.358-7.065,8.135-9.425l0.313-0.427l0.078-0.105l0.037-0.05l0.005-0.007l0.002-0.003
				c0.088-0.115-0.12,0.156-0.097,0.127h0.002l0.01-0.013l0.02-0.024l0.153-0.187l0.586-0.713l1.087-1.304
				c0.71-0.846,1.436-1.682,2.378-2.754c1.902-2.131,2.105-2.37,5.39-5.855c2.021-2.11,1.874-2.196,2.852-3.939
				c0.983-1.742,2.03-2.072,3.706-4.507c1.679-2.436,2.728-2.771,4.09-4.166c0.697-0.713,1.155-1.127,1.892-1.826l0.014-0.013
				l0.159-0.188c0.629-0.741,1.462-1.783,2.905-3.618c2.928-3.747,5.121-6.781,6.87-8.283c1.7-1.497,2.953-2.93,4.367-3.104
				c0.692-0.08,1.34-0.659,1.885-1.194C117.336,289.174,117.932,288.635,117.901,288.636z"/>
			<path style="fill:#231815;" d="M145.545,303.464c-3.964,1.619-7.016,3.773-9.152,5.874c-2.126,2.097-3.324,4.158-3.342,5.389
				c-0.013,1.226-2.321,4.012-5.494,7.31c-3.162,3.311-7.19,7.11-10.402,10.755c-6.493,7.334-12.195,9.715-14.045,11.968
				c-0.928,1.142-2.865,2.964-4.895,4.669c-2.025,1.708-4.146,3.29-5.319,4.13c-1.515,1.112-4.645,3.493-6.716,4.918l0.115-0.062
				c-1.233,0.684-2.033,1.216-2.035,1.215c-0.002-0.002-1.684,1.083-3.669,2.524c-1.99,1.436-4.336,3.169-5.983,4.189
				c-0.734,0.455-1.941,1.267-3.557,2.219c-1.616,0.94-3.657,2.03-6.115,2.761l-0.119,0.036l-0.008,0.107
				c-0.149,1.743-1.475,3.336-3.052,4.489c-1.598,1.169-3.485,2.053-5.475,2.637l-0.005,0.002l-0.01,0.003
				c-1.6,0.323-3.425,0.505-4.991-0.356c-1.551-0.877-2.369-2.43-3.133-3.768l-0.975-1.759l-0.01-0.018l-0.007-0.015
				c-1.163-2.862-2.668-5.03-2.884-7.268c-0.119-1.101,0.128-2.131,0.542-2.94c0.413-0.828,0.942-1.442,1.436-1.996
				c0.504-0.547,1.022-1.022,1.614-1.385c0.586-0.361,1.29-0.591,2.001-0.565c1.455,0.079,2.478,0.887,3.427,1.601
				c1.246,1.005,2.186,1.605,2.823,1.756c0.632,0.161,0.893-0.01,0.848-0.281c-0.058-0.294-0.359-0.661-1.22-1.657
				c-0.456-0.503-0.989-1.182-2.077-2.119c-0.559-0.45-1.294-1.028-2.522-1.415c-0.606-0.187-1.343-0.282-2.074-0.222
				c-0.732,0.06-1.426,0.268-2.019,0.541c-1.26,0.601-2.032,1.319-2.708,1.975c-0.628,0.635-1.299,1.381-1.838,2.334
				c-0.541,0.927-0.913,2.042-1.027,3.131c-0.11,1.088,0.01,2.1,0.208,2.948c0.409,1.705,1.01,2.912,1.478,3.973
				c0.484,1.049,0.883,1.936,1.168,2.732l0.049,0.135l0.158,0.286c0.803,1.453,1.419,2.98,2.758,4.711
				c0.677,0.854,1.652,1.743,2.807,2.313c1.151,0.575,2.342,0.806,3.344,0.859c1.387,0.073,2.464-0.096,3.44-0.266l0.125-0.021
				l0.128-0.036c2.387-0.663,4.283-1.488,6.227-2.725c0.965-0.632,1.939-1.379,2.894-2.457c0.929-1.06,1.921-2.581,2.22-4.66
				l-2.654,2.956l0.715-0.19c3.266-0.983,4.833-1.843,6.849-2.899c1.983-1.072,4.336-2.55,8.362-5.217l4.049-2.654
				c0.861-0.578,1.439-1.027,2.34-1.652l0.617-0.429l-0.328,0.273l1.281-1.061c3.066-2.595,5.041-3.271,9.456-7.307
				c4.335-4.08,6.11-5.005,9.075-7.591c2.933-2.603,3.776-3.149,10.973-9.707c7.29-6.643,12.281-12.811,15.492-16.546
				c3.229-3.743,5.208-7.198,7.354-9.311C144.259,308.514,145.587,303.438,145.545,303.464z"/>
			<path style="fill:#231815;" d="M38.275,378.657c0.556,0.346,1.434,0.374,2.282,0.367c0.853-0.016,1.679-0.065,2.444-0.098
				c1.614-0.101,2.915,0.085,3.891,0.107c1.975,0.104,2.977-0.237,3.5-0.25c0.498-0.042,0.507,0.408-0.265,1.047
				c-0.763,0.645-2.396,1.088-4.171,0.986c-0.9-0.029-1.718-0.086-2.537-0.032c-0.864,0.042-1.727,0.101-2.616,0.122
				c-0.885,0.006-1.822,0.039-2.862-0.335c-0.515-0.184-1.004-0.52-1.374-0.897c-0.377-0.377-0.654-0.78-0.892-1.171
				c-0.911-1.569-1.473-3.031-2.11-4.448c-0.614-1.429-1.163-2.829-1.59-4.187c-0.841-2.711-1.501-5.562-1.376-8.557
				c0.036-0.747,0.127-1.501,0.296-2.246c0.083-0.373,0.185-0.745,0.31-1.111l0.109-0.317c0.033-0.132,0.164-0.305,0.188-0.362
				l0.297-0.481c0.82-1.262,1.863-2.394,3.128-3.256c1.229-0.851,3.178-1.679,5.158-1.257c0.97,0.2,1.839,0.723,2.438,1.359
				c0.609,0.632,0.984,1.343,1.228,1.968c0.474,1.262,0.495,2.191,0.422,2.361c-0.115,0.19-0.244-0.427-0.979-1.889
				c-0.765-1.449-1.92-2.274-3.055-2.427c-1.14-0.166-2.227,0.21-3.195,0.806c-0.973,0.611-1.863,1.465-2.67,2.597
				c-0.201,0.284-0.398,0.586-0.585,0.908l-0.265,0.478l-0.12,0.403c-0.201,0.754-0.335,1.601-0.369,2.553
				c-0.158,3.856,1.348,8.46,2.693,11.947c0.682,1.769,1.262,3.313,1.764,4.213C37.894,378.473,38.28,378.637,38.275,378.657z"/>
			<path style="fill:#231815;" d="M7.849,356.498c-1.921-1.618-3.026-3.122-3.627-4.232c-0.598-1.125-0.723-1.864-0.624-2.223
				c0.229-0.721,1.309,0.003,2.379,1.613c1.083,1.627,2.509,3.004,3.974,4.125c1.473,1.121,2.988,1.988,4.343,2.715
				c2.708,1.475,5.66,2.428,8.699,2.933c0.762,0.122,1.722,0.26,2.688,0.328c0.966,0.073,1.933,0.065,2.693,0.049
				c1.507-0.076,2.238,0.015,0.257,0.672c-2.001,0.557-3.476,0.781-5.061,0.859c-1.582,0.057-3.316-0.034-5.748-0.781
				c-2.436-0.739-5.069-2.141-6.931-3.501C9.015,357.703,7.857,356.486,7.849,356.498z"/>
			<path style="fill:#231815;" d="M23.289,371.956c2.84,0.432,4.916,0.253,6.368,0.151c1.454-0.123,2.314-0.19,2.712-0.037
				c0.395,0.146,0.31,0.499-0.227,0.911c-0.534,0.405,1.564,2.969,0.232,3.117c-2.652,0.292-8.429-1.996-10.883-2.597
				c-2.456-0.593-4.672-1.626-6.414-2.847c-3.49-2.448-6.212-5.835-8.025-9.561c-0.935-1.858-1.895-4.811-2.23-6.701
				c-0.336-1.899-0.278-2.681,0.629-0.356c0.952,2.31,1.837,3.826,2.819,5.39c1.007,1.549,2.082,3.19,3.943,5.405
				c1.851,2.228,4.473,4.39,6.831,5.559C21.386,371.597,23.299,371.941,23.289,371.956z"/>
			<path style="fill:#231815;" d="M58.292,333.129c1.514,0.854,2.651,1.772,3.596,2.53l2.314,1.892
				c1.243,0.995,1.978,1.54,2.201,1.929c0.222,0.38-0.089,0.585-0.825,0.502c-0.726-0.081-1.86-0.52-2.996-1.389
				c-2.254-1.738-4.273-3.539-6.529-4.496c-1.119-0.487-2.239-0.794-3.372-0.945l-3.388-0.469c-4.255-0.542-8.559-0.641-12.7,0.14
				c-1.035,0.193-2.314,0.508-3.55,0.947c-1.238,0.432-2.41,1.018-3.297,1.528c-0.888,0.51-1.496,0.929-1.676,0.921
				c-0.164,0.01,0.067-0.45,1.124-1.392c2.16-1.832,3.984-2.772,5.982-3.549c2.012-0.742,4.287-1.288,7.687-1.359
				c3.406-0.073,7.312,0.473,10.303,1.106c1.582,0.317,2.902,0.867,3.773,1.322C57.813,332.805,58.29,333.13,58.292,333.129z"/>
			<path style="fill:#231815;" d="M41.879,341.299c-4.611-1.918-6.589-2.61-7.107-3.138c-0.278-0.263-0.128-0.591,0.484-0.76
				c0.594-0.162,1.544-0.107,2.584,0.268c2.074,0.755,4.057,1.567,5.936,2.42c1.869,0.859,3.615,1.775,5.044,2.867
				c0.711,0.552,1.408,1.143,2.046,1.902c0.315,0.385,0.625,0.811,0.857,1.379c0.059,0.143,0.109,0.287,0.157,0.491
				c0.031,0.177,0.049,0.268,0.065,0.411c0.034,0.262,0.05,0.533,0.041,0.81c0,1.111-0.564,2.319-1.389,3.022
				c-0.812,0.729-1.733,1.109-2.618,1.369c-1.798,0.544-4.416,0.525-6.019,0.338c-1.61-0.187-2.249-0.445-0.158-0.7
				c2.082-0.274,3.514-0.646,4.9-1.186c1.306-0.564,2.922-1.278,2.944-2.886c0.007-0.201-0.026-0.487-0.062-0.669
				c-0.019-0.076-0.117-0.314-0.255-0.51c-0.278-0.421-0.7-0.869-1.153-1.281c-0.918-0.835-1.968-1.572-2.91-2.185
				C43.37,342.038,41.874,341.304,41.879,341.299z"/>
			<path style="fill:#231815;" d="M404.502,282.95c0.006-0.003-0.892-1.741-1.897-4.093c-1.017-2.34-0.723-9.257-1.574-11.426
				c-1.707-4.353-1.372-7.001-3.003-11.497l-2.972-8.593c-1.226-3.175-2.365-6.332-3.242-9.079
				c-1.746-5.445-5.697-11.843-7.216-16.577c-0.78-2.366-2.165-5.923-3.542-9.475c-1.377-3.536-2.834-6.933-3.536-8.895
				c-1.397-3.927-3.351-8.643-6.532-14.113c-1.595-2.73-3.906-5.943-6.831-9.118c-2.802-2.961-5.967-6.811-11.07-9.085
				c-1.502-0.646-2.832-0.883-3.83-0.927c-1.004-0.044-1.684,0.091-2.084,0.239c-0.801,0.317-0.351,1.739-0.75,1.887
				c-0.802,0.317-0.531,0.655,0.091,0.892c0.619,0.266,1.238,0.484,2.698,0.955c1.432,0.5,3.748,1.328,6.836,3.833
				c1.53,1.259,2.396,2.176,2.977,2.774c0.573,0.604,0.843,0.911,1.004,1.104c0.32,0.388,0.185,0.339,1.033,1.434
				c1.647,2.217,1.018,2.451,1.403,3.886c0.187,0.719,0.943,2.118,1.721,3.658c0.789,1.536,1.585,3.224,2.095,4.416
				c0.515,1.189,1.863,2.732,3.152,4.213c1.296,1.468,2.532,2.862,2.928,3.427c0.817,1.111,2.186,4.94,2.303,6.847
				c0.076,0.945,1.072,3.006,2.269,5.189c1.197,2.173,2.61,4.476,3.618,5.731c2.004,2.514,1.829,4.781,2.589,6.766
				c0.763,1.981,1.184,3.545,1.777,7.036c0.601,3.488,2.116,2.839,4.034,6.789c0.963,1.975,2.21,4.442,3.388,6.954l0.875,1.917
				c0.275,0.663,0.523,1.335,0.745,1.955c0.45,1.263,0.82,2.478,1.082,3.581c0.526,2.206,1.33,5.421,2.067,8.215
				c0.732,2.795,1.432,5.161,1.613,5.753c0.339,1.203,1.35,9.519,2.329,12.085c0.968,2.618,2.712,3.232,2.699,3.23
				C403.758,284.835,404.517,282.952,404.502,282.95z M394.304,249.229c-0.273-0.712-0.541-1.419-0.806-2.123l0.469,1.025
				c0.273,0.663,0.521,1.335,0.746,1.956c0.367,1.033,0.663,2.017,0.91,2.951L394.304,249.229z"/>
			<path style="fill:#231815;" d="M401.676,286.962c0.849,3.016,1.345,4.838,2.139,5.964c0.762,1.103,1.767,1.523,2.626,1.272
				c0.849-0.263,2.106,0.937,3.471,2.683c1.377,1.741,2.857,4.007,4.616,5.71c1.494,1.444,2.314,2.948,2.876,4.25l-0.068-0.159
				l0.167,0.296c0.96,1.682,1.382,3.063,2.149,3.519c1.33,0.796,3.83,3.768,4.765,4.884c0.937,1.111,3.807,3.762,3.807,3.762
				c0.002-0.002,2.855,2.668,4.054,4.193c0.603,0.758,2.323,2.529,4.302,4.809c0.994,1.137,2.04,2.41,3.047,3.737
				c1.005,1.358,1.87,2.779,2.704,4.125c1.845,3.039,3.139,4.746,4.166,5.912c1.033,1.161,1.793,1.791,2.712,2.59
				c1.164,1.002,2.102,1.246,2.262,0.76c0.172-0.5-0.418-1.67-2.105-3.88c-3.347-4.492-4.624-7.684-6.159-10.105l-0.279-0.453
				l-0.226-0.352l-0.146-0.21l-0.554-0.797l-1.028-1.455c-0.674-0.945-1.359-1.877-2.251-3.068c-1.795-2.365-1.99-2.634-5.069-6.471
				c-1.886-2.314-1.996-2.17-3.638-3.346c-1.642-1.169-1.874-2.244-4.141-4.146c-2.266-1.898-2.493-2.971-3.729-4.458
				c-0.632-0.759-0.981-1.257-1.585-2.059l0.156,0.216c-0.49-0.823-1.165-1.967-2.501-3.979c-2.732-4.135-5.706-6.99-7.505-8.798
				c-1.804-1.856-3.753-2.728-4.809-4.015c-0.541-0.656-1.639-0.976-2.579-1.043C402.311,286.756,401.7,286.982,401.676,286.962z"/>
			<path style="fill:#231815;" d="M374.401,297.697c-0.801,4.189-0.011,8.137,1.28,11.02c1.293,2.897,3.053,4.744,4.252,5.109
				c1.202,0.37,3.328,3.396,6.194,7.099c2.85,3.714,6.466,8.096,10.188,11.344c3.687,3.3,6.56,6.09,8.796,8.257
				c2.246,2.17,3.875,3.758,5.241,4.391c2.728,1.293,9.329,5.463,11.754,7.053l6.959,4.325l0.136,0.085l-0.026-0.013
				c1.195,0.594,1.984,1.173,1.986,1.166c-0.002-0.003,1.548,1.014,3.219,2.725c1.686,1.682,3.497,3.979,4.673,5.541
				c0.531,0.693,1.442,1.864,2.774,3.266c1.33,1.359,3.138,3.097,5.707,3.87l-0.114-0.149c0.177,1.887,1.531,3.466,3.074,4.635
				c1.572,1.181,3.414,2.087,5.335,2.73l-0.015-0.005c1.553,0.38,3.247,0.598,4.642-0.065c1.395-0.656,2.309-2.03,3.198-3.284
				l1.16-1.674l-0.018,0.031c1.478-2.792,3.099-4.836,3.386-6.871c0.156-0.996-0.031-1.892-0.383-2.62
				c-0.344-0.729-0.843-1.312-1.311-1.814c-0.935-1.005-1.959-1.572-2.781-1.441c-0.827,0.11-1.561,0.734-2.381,1.491
				c-1.075,1.035-1.975,2.003-2.646,2.615c-0.659,0.62-0.987,0.978-0.562,1.051c0.4,0.081,1.593-0.261,2.995-1.184
				c0.689-0.434,1.458-1.022,2.102-1.4c0.31-0.201,0.585-0.247,0.567-0.271c-0.073-0.364-0.031-0.463-0.053-0.334
				c-0.007,0.062-0.054,0.239-0.101,0.362l0.055,0.028c0.331,0.118,1.45,1.439,1.606,1.938c0.232,0.59,0.208,0.867-0.042,1.617
				c-0.263,0.715-0.804,1.606-1.39,2.524c-0.588,0.924-1.223,1.899-1.786,2.948l0.239-0.403c-1.103,1.502-2.014,2.836-2.642,3.396
				c-0.312,0.279-0.474,0.341-0.604,0.383c-0.133,0.037-0.331,0.078-0.685,0.065c-0.461-0.007-1.085-0.13-1.689-0.291l0.245,0.076
				c-1.575-0.565-2.941-1.312-4.031-2.144c-0.541-0.416-1.012-0.874-1.332-1.303c-0.333-0.438-0.443-0.791-0.457-0.991l-0.138-2.368
				l-2.272-0.789c-0.119-0.041-0.24-0.086-0.364-0.138c-0.797-0.343-1.46-0.843-2.063-1.372c-0.604-0.538-1.15-1.116-1.762-1.829
				c-0.614-0.716-1.291-1.579-2.186-2.771c-0.903-1.191-1.99-2.73-3.651-4.757c-1.759-2.119-3.018-3.245-4.054-4.029
				c-1.054-0.778-1.899-1.262-3.308-1.881l0.271,0.176l-1.306-0.695c-3.542-1.861-4.923-3.378-10.133-6.111
				c-5.191-2.722-6.514-4.206-9.619-6.423c-1.541-1.122-2.461-1.876-3.904-3.095c-1.428-1.247-3.417-2.883-6.636-6.319
				c-6.586-7.034-11.752-12.777-14.591-16.667c-2.837-3.87-5.35-6.841-6.396-9.574C377.938,301.251,374.403,297.748,374.401,297.697
				z"/>
			<path style="fill:#231815;" d="M475.795,382.46c-0.614,0.354-1.273,0.49-1.834,0.534c-0.57,0.045-1.077,0.021-1.551-0.015
				c-0.947-0.076-1.777-0.203-2.542-0.322c-1.442-0.261-4.408,1.431-5.512,1.189c-1.091-0.221-2.979-2.422-3.524-2.818
				c-0.551-0.398-1.327-1.517-1.41-1.762c-0.143-0.512,0.702-1.613,1.41-1.41c0.723,0.214,4.689,2.43,6.368,2.597
				c0.827,0.096,1.739,0.146,2.634,0.297c0.849,0.13,1.697,0.257,2.514,0.33c0.81,0.073,1.614,0.091,2.175-0.101
				c0.544-0.172,0.944-0.603,1.348-1.231c0.78-1.257,1.418-2.78,2.071-4.15c0.637-1.379,1.213-2.699,1.718-3.947
				c1.002-2.491,1.793-5.075,1.941-7.628c0.032-0.637,0.023-1.267-0.044-1.882c-0.032-0.309-0.079-0.614-0.143-0.913l-0.039-0.182
				c-0.008-0.036,0.007,0-0.036-0.101l-0.198-0.432c-0.547-1.138-1.275-2.196-2.173-3.056c-0.88-0.854-2.233-1.756-3.711-1.778
				c-1.484-0.073-2.845,0.963-3.605,1.964c-0.788,0.997-1.184,1.853-1.361,1.951c-0.133,0.118-0.174-0.544,0.664-2.173
				c0.858-1.606,2.28-2.772,3.864-3.047c1.577-0.287,3.053,0.161,4.302,0.87c1.259,0.728,2.368,1.762,3.323,3.146
				c0.237,0.346,0.464,0.715,0.677,1.111c0.112,0.206,0.2,0.379,0.32,0.63c0.171,0.421,0.172,0.594,0.245,0.845
				c0.21,0.968,0.301,2.024,0.252,3.144c-0.205,4.533-2.344,9.142-4.091,12.544c-0.885,1.694-1.624,3.169-2.386,4.236
				C476.722,382.001,475.772,382.48,475.795,382.46z"/>
			<path style="fill:#231815;" d="M505.808,359.635c1.76-1.54,2.969-2.72,3.878-3.505c0.9-0.789,1.51-1.171,1.892-1.202
				c0.749-0.093,0.539,1.298-0.948,2.792c-2.928,2.938-6.155,5.696-9.282,7.053c-3.069,1.374-6.467,2.176-9.855,1.964
				c-0.844-0.057-1.895-0.208-2.899-0.476c-1.007-0.263-1.957-0.653-2.646-1.017c-1.368-0.78-1.757-1.254,0.115-0.71
				c1.91,0.455,3.303,0.425,4.746,0.328c1.445-0.118,2.969-0.297,5.212-0.796c2.249-0.489,4.785-1.465,6.659-2.483
				C504.561,360.579,505.803,359.624,505.808,359.635z"/>
			<path style="fill:#231815;" d="M490.776,375.798c-3.169,0.482-5.551-0.068-7.034-0.666c-1.499-0.619-2.168-1.283-2.329-1.665
				c-0.278-0.804,1.215-0.533,3.459,0.136c2.29,0.671,4.772,0.609,6.972,0.078c2.215-0.525,4.154-1.488,5.791-2.452
				c3.299-1.944,6.014-4.785,8.387-7.905c1.212-1.548,2.876-4.034,3.901-5.642c1.017-1.606,1.59-2.215,0.7,0.174
				c-0.937,2.37-1.652,4.026-2.556,5.748c-0.929,1.701-2.019,3.518-4.237,5.767c-2.206,2.266-5.379,4.338-8.146,5.306
				C492.927,375.694,490.763,375.78,490.776,375.798z"/>
			<path style="fill:#231815;" d="M457.75,339.555c-1.364,0.757-2.504,1.556-3.547,2.204c-1.036,0.654-1.97,1.159-2.779,1.486
				c-1.626,0.664-2.667,0.648-3.065,0.474c-0.408-0.177-0.236-0.515,0.299-0.901c0.538-0.392,1.418-0.874,2.582-1.489
				c2.331-1.228,4.523-3.066,7.109-4.145c1.277-0.543,2.628-0.913,3.914-1.067c1.224-0.166,2.402-0.294,3.524-0.349
				c4.453-0.211,9.087,0.041,13.376,1.722c1.065,0.414,2.35,1.072,3.508,1.874c1.166,0.799,2.171,1.767,2.836,2.582
				c0.668,0.819,1.007,1.475,0.994,1.64c-0.031,0.182-0.379-0.149-1.377-1.026c-2.048-1.71-3.825-2.399-5.696-2.99
				c-1.892-0.561-3.953-0.999-7.118-1.32c-3.172-0.325-6.941-0.223-9.904,0.044C459.601,338.517,457.758,339.594,457.75,339.555z"/>
			<path style="fill:#231815;" d="M472.334,342.751c4.765-2.082,7.568-1.635,8.031-0.968c0.226,0.317-0.013,0.555-0.448,0.75
				c-0.452,0.198-1.195,0.39-2.196,0.546c-4.043,0.684-7.81,2.836-10.472,4.531c-0.663,0.429-1.298,0.9-1.795,1.397
				c-0.245,0.245-0.452,0.505-0.559,0.711c-0.062,0.065-0.167,0.516-0.184,0.77c-0.049,0.583,0.086,1.062,0.466,1.546
				c0.377,0.482,0.983,0.914,1.653,1.281c1.334,0.768,3.745,1.554,5.266,2.074c1.52,0.526,2.116,0.909-0.005,0.718
				c-2.123-0.213-3.643-0.344-5.29-0.786c-0.817-0.24-1.684-0.536-2.61-1.212c-0.456-0.339-0.932-0.796-1.301-1.444
				c-0.369-0.643-0.577-1.488-0.515-2.323c0.031-0.432,0.096-0.789,0.227-1.242c0.2-0.543,0.44-0.888,0.708-1.225
				c0.534-0.65,1.122-1.127,1.713-1.562c1.187-0.851,2.404-1.489,3.487-2.009C470.685,343.281,472.336,342.761,472.334,342.751z"/>
			<path style="fill:#231815;" d="M186.339,383.578c1.104,0.039,2.223,0.101,3.313,0.182c3.056,0.232,11.825,0.939,13.395,1.411
				c2.111,0.7,5.366,0.513,5.139-1.955c-0.179-2.003-3.318-2.077-4.811-1.522c-0.963,0.411-10.255,0.414-13.288,0.5
				c-1.597,0.047-3.1,0.039-4.122-0.066c-0.745-0.06-5.556-0.338-11.403-0.146c-2.922,0.099-6.1,0.343-9.132,0.793
				c-3.031,0.44-5.91,1.098-8.239,1.812c-4.583,1.418-7.018,2.767-8.527,3.55c-1.497,0.82-2.069,1.161-2.631,1.488
				c-1.142,0.677-1.392,1.951-1.004,2.62c0.4,0.682,1.325,0.796,2.704-0.556c0.68-0.65,1.184-1.133,2.468-1.978
				c1.296-0.814,3.365-2.066,7.52-3.443c2.215-0.729,4.98-1.4,7.924-1.861c2.943-0.471,6.059-0.737,8.957-0.858
				C180.401,383.311,185.306,383.555,186.339,383.578z"/>
			<path style="fill:#231815;" d="M167.007,379.595c0.622-0.236,1.26-0.445,1.891-0.62c0.883-0.25,2.6-0.685,4.227-0.9
				c1.628-0.229,3.148-0.237,3.617-0.052c1.265,0.468,2.995,0.25,2.909-2.207c-0.083-2.03-2.251-2.007-3.133-1.277
				c-0.292,0.231-1.899,0.622-3.586,1.187c-1.696,0.552-3.474,1.267-4.32,1.673c-0.895,0.419-1.743,0.786-2.355,0.944
				c-0.447,0.11-3.229,1.139-6.42,2.75c-3.203,1.588-6.8,3.74-9.285,5.303c-4.877,3.094-5.577,3.484-6.279,3.826
				c-1.392,0.721-0.021,4.018,1.629,2.115c0.809-0.905,1.13-1.415,5.609-4.463c2.396-1.616,5.891-3.773,9.029-5.381
				C163.668,380.862,166.426,379.808,167.007,379.595z"/>
			<path style="fill:#231815;" d="M175.855,376.927l3.165,0.133c1.462,0.083,4.276,0.208,6.888,0.422
				c2.615,0.209,5.015,0.554,5.713,0.849c1.912,0.754,4.746,0.987,4.983-1.455c0.19-2.034-3-2.519-4.479-2.003
				c-0.489,0.154-2.975,0.18-5.671,0.291l-7.053,0.318c-1.509,0.089-2.935,0.101-3.898-0.007c-0.7-0.107-5.267-0.176-10.662-1.033
				c-2.693-0.437-5.58-1.132-8.198-2.173c-2.623-1.026-4.942-2.423-6.646-3.82c-1.683-1.371-2.805-2.66-3.625-3.726
				c-0.82-1.072-1.337-1.929-1.715-2.592c-0.737-1.337-0.927-1.903-1.143-2.439c-0.416-1.078-1.497-1.574-2.262-1.406
				c-0.752,0.159-1.203,1.09-0.037,2.771l1.918,2.654c0.468,0.633,1.061,1.445,1.949,2.475c0.892,1.025,2.077,2.284,3.823,3.644
				c1.855,1.458,4.343,2.91,7.11,3.961c2.764,1.067,5.77,1.764,8.559,2.197C170.165,376.831,174.87,376.862,175.855,376.927z"/>
			<path style="fill:#231815;" d="M175.185,367.796c1.059-0.086,2.186-0.19,3.214-0.346c2.901-0.382,11.146-1.556,12.694-1.395
				c2.092,0.252,5.043-0.541,4.356-2.915c-0.559-1.939-3.518-1.402-4.785-0.551c-0.818,0.58-9.398,2.551-12.181,3.24
				c-1.457,0.395-2.836,0.567-3.804,0.562c-0.693,0.019-5.204,0.211-10.61-0.668c-5.403-0.817-11.682-2.387-16.189-3.186
				c-4.427-0.81-7.013-1.028-8.611-1.166l-2.84-0.214c-1.246-0.085-2.123,0.812-2.183,1.583c-0.06,0.784,0.603,1.419,2.42,1.08
				c0.888-0.154,1.544-0.274,3.014-0.294c1.47-0.005,3.76,0.083,7.903,0.749c4.421,0.685,10.68,2.196,16.239,2.996
				c2.776,0.406,5.369,0.604,7.393,0.635C173.237,367.941,174.683,367.832,175.185,367.796z"/>
			<path style="fill:#231815;" d="M183.776,349.774c0.695,0.195,1.39,0.422,2.056,0.672c0.937,0.351,2.727,1.074,4.323,1.911
				c1.601,0.827,3.013,1.744,3.352,2.178c0.923,1.163,2.755,2.003,3.903-0.177c0.94-1.788-0.978-2.935-2.165-2.849
				c-0.388,0.026-2.033-0.586-3.861-1.164c-1.825-0.591-3.831-1.127-4.828-1.329c-1.049-0.223-2.025-0.453-2.665-0.702
				c-0.464-0.182-3.567-1.091-7.435-1.595c-3.864-0.543-8.442-0.611-11.637-0.526c-6.284,0.195-7.148,0.208-7.992,0.143
				c-1.697-0.075-2.266,3.468,0.343,2.651c1.259-0.374,1.847-0.679,7.714-1.033c3.13-0.175,7.58-0.164,11.364,0.318
				C180.039,348.721,183.13,349.592,183.776,349.774z"/>
			<path style="fill:#231815;" d="M174.345,355.346c0.672,0.21,1.345,0.448,1.99,0.707c0.906,0.364,2.641,1.095,4.184,1.926
				c1.546,0.825,2.904,1.723,3.216,2.163c0.866,1.15,2.589,1.994,3.818-0.14c1.005-1.754-0.861-2.948-2.033-2.86
				c-0.38,0.018-1.986-0.593-3.76-1.168c-1.772-0.586-3.714-1.124-4.679-1.341c-1.015-0.227-1.957-0.476-2.569-0.741
				c-0.448-0.188-3.422-1.156-7.122-1.925c-3.692-0.797-8.091-1.371-11.19-1.648c-6.099-0.507-6.954-0.536-7.77-0.682
				c-1.661-0.218-2.455,3.264,0.102,2.667c1.242-0.254,1.83-0.525,7.533-0.227c3.04,0.179,7.347,0.682,11.002,1.426
				C170.728,354.217,173.716,355.15,174.345,355.346z"/>
			<path style="fill:#231815;" d="M196.842,353.743c2.275,1.718,3.008,2.985,3.69,3.354c0.633,0.401,1.173,0.067,1.509-0.677
				c0.312-0.75,1.34-0.638,2.611-0.245c1.278,0.382,2.779,1.036,4.326,1.106c3.152,0.179,3.882,2.881,4.887,2.8
				c1.028-0.067,3.152,1.055,3.94,1.494c0.789,0.426,3.144,1.163,3.144,1.166c0-0.003,2.357,0.754,3.406,1.364
				c1.052,0.598,5.811,2.261,9.202,4.266c3.841,2.23,4.921,2.103,6.409,2.214c0.955,0.042,1.486-0.391,1.45-0.856
				c-0.042-0.482-0.521-0.942-2.022-1.557c-3.048-1.315-4.646-2.873-6.188-3.711l-3.99-2.287l-4.383-2.543
				c-1.616-0.927-1.682-0.767-3.005-0.921c-1.324-0.151-1.609-0.905-3.487-1.327c-1.876-0.414-2.191-1.145-3.308-1.699
				c-1.13-0.534-1.303-0.866-4.224-2.1c-2.956-1.221-5.66-1.408-7.318-1.644c-1.702-0.26-3.078,0.271-4.231-0.062
				c-0.607-0.179-1.321,0.273-1.814,0.81c-0.13,0.138-0.241,0.276-0.333,0.403c-0.068,0.123-0.109,0.232-0.151,0.33L196.842,353.743
				z"/>
			<path style="fill:#231815;" d="M208.201,380.547c3.24-0.989,5.475-2.007,8.466-1.616c1.839,0.226,2.396,0.203,3.07,0.029
				c0.679-0.183,1.478-0.507,3.841-1.096c0.596-0.149,2.05-0.637,4.205-1.455c1.082-0.408,2.332-0.901,3.813-1.423
				c0.742-0.26,1.545-0.525,2.439-0.757l0.689-0.164l0.338-0.068l0.21-0.047c0.375-0.104,0.785-0.2,1.184-0.327
				c3.238-0.942,6.873-2.534,10.693-4.513c3.83-1.968,7.854-4.312,12.074-6.562c2.111-1.122,4.275-2.217,6.496-3.209
				c1.106-0.495,2.246-0.96,3.37-1.384c1.125-0.395,2.149-0.846,3.271-1.268c4.393-1.689,8.729-3.107,12.764-4.208
				c8.069-2.225,14.88-3.185,18.404-3.624c1.765-0.219,3.594-0.417,5.477-0.586c1.905-0.177,3.862-0.247,5.819-0.258
				c3.921-0.021,7.872,0.189,11.682,0.333c3.807,0.146,7.481,0.223,10.816,0.047c3.336-0.164,6.326-0.596,8.777-1.21
				c2.452-0.611,4.268-1.225,5.619-1.66c1.35-0.434,2.241-0.681,2.733-0.658c0.492,0.024,0.575,0.31,0.213,0.799
				c-0.362,0.482-1.184,1.161-2.508,1.796c-1.319,0.629-3.243,1.473-5.54,2.136c-2.29,0.684-4.936,1.186-7.547,1.489
				c-5.231,0.596-10.264,0.521-12.328,0.427l-6.053-0.258c-2.787-0.091-6.137-0.159-9.395,0.053
				c-6.547,0.492-13.001,1.777-14.576,2.085c-0.797,0.159-5.007,0.932-10.776,2.633c-2.883,0.851-6.15,1.939-9.569,3.258
				c-1.728,0.661-3.412,1.369-5.272,2.149c-1.8,0.698-3.482,1.463-5.213,2.337c-6.857,3.487-13.501,7.918-19.19,10.864
				c-2.832,1.494-5.405,2.65-7.43,3.425c-1.01,0.393-1.884,0.69-2.566,0.921c-0.195,0.073-0.49,0.145-0.607,0.175l-0.291,0.097
				c-0.177,0.062-0.318,0.12-0.417,0.166l-7.183,3.311c-2.823,1.281-5.632,2.418-7.06,3.284c-4.401,2.662-8.31,0.705-11.784-1.678
				C207.766,383.258,206.2,381.14,208.201,380.547z"/>
			<path style="fill:#231815;" d="M333.06,353.88c-0.692,0.133-1.4,0.237-2.094,0.313c-0.973,0.109-2.855,0.275-4.627,0.289
				c-1.769,0.024-3.42-0.086-3.922-0.296c-1.356-0.562-3.347-0.356-3.224,2.106c0.104,2.017,2.248,2.04,3.204,1.384
				c0.314-0.211,1.991-0.491,3.82-0.84c1.829-0.341,3.802-0.775,4.757-1.041c1.009-0.276,1.959-0.5,2.626-0.56
				c0.484-0.049,3.589-0.57,7.198-1.819c3.623-1.202,7.624-3.333,10.178-5.204c2.529-1.819,3.812-3.066,4.637-3.795
				c0.814-0.747,1.137-1.031,1.457-1.306c1.283-1.179-0.944-3.948-2.082-1.673c-0.292,0.549-0.507,0.958-1.138,1.728
				c-0.645,0.755-1.686,1.915-3.917,3.627c-2.365,1.843-6.142,3.929-9.647,5.142C336.798,353.193,333.703,353.75,333.06,353.88z"/>
			<path style="fill:#231815;" d="M338.232,368.204c-0.903,0.088-1.824,0.143-2.72,0.162c-1.259,0.032-3.691,0.032-5.956-0.146
				c-2.267-0.169-4.354-0.505-4.963-0.789c-1.653-0.742-4.158-0.906-4.384,1.543c-0.18,2.024,2.594,2.436,3.901,1.915
				c0.429-0.161,2.612-0.193,4.988-0.343c2.378-0.13,4.95-0.391,6.202-0.58c1.32-0.193,2.563-0.349,3.42-0.365
				c0.621-0.023,4.645-0.317,9.386-1.52c2.366-0.601,4.901-1.445,7.232-2.519c2.337-1.062,4.45-2.375,6.061-3.641
				c3.167-2.519,4.473-4.523,5.306-5.683c0.802-1.202,1.072-1.697,1.361-2.17c0.565-0.979,0.063-2.056-0.625-2.399
				c-0.708-0.352-1.507-0.085-1.865,1.426c-0.187,0.737-0.333,1.288-0.918,2.384c-0.609,1.067-1.631,2.774-4.362,5.067
				c-1.465,1.207-3.422,2.474-5.631,3.513c-2.204,1.051-4.637,1.892-6.94,2.501C343.113,367.782,339.072,368.116,338.232,368.204z"
				/>
			<path style="fill:#231815;" d="M339.058,361.974c-0.734,0.117-1.481,0.21-2.21,0.263c-1.025,0.078-3.003,0.182-4.824,0.028
				c-1.824-0.132-3.454-0.533-3.898-0.843c-1.221-0.785-3.034-1.15-3.734,1.2c-0.27,0.97,0.167,1.658,0.856,2.028
				c0.684,0.375,1.583,0.403,2.167,0.19c0.383-0.13,2.254-0.072,4.244-0.245c1.995-0.153,4.106-0.52,5.124-0.755
				c1.077-0.242,2.087-0.448,2.79-0.495c0.517-0.021,3.784-0.549,7.64-1.558c3.862-0.986,8.312-2.387,11.439-3.331
				c6.147-1.856,7.044-1.89,7.887-2.028c1.684-0.234,1.718-3.848-0.841-2.535c-1.213,0.658-1.79,0.957-7.581,2.886
				c-3.087,1.03-7.469,2.469-11.291,3.49C343.004,361.315,339.744,361.873,339.058,361.974z"/>
			<path style="fill:#231815;" d="M299.545,381.424c2.969,1.882,4.718,2.847,5.9,3.011c1.164,0.174,1.829-0.465,1.99-1.475
				c0.138-1.007,1.561-1.317,3.396-1.371c1.842-0.065,4.059,0.143,6.113-0.292c2.071-0.44,3.674,0.14,4.866,0.739
				c1.199,0.604,2.035,1.242,2.717,1.043c0.084-0.026,0.177-0.047,0.278-0.065l0.156-0.024l0.039-0.003l0.021-0.003l0.005-0.002l0,0
				l-0.099-0.019h0.002l0.01-0.002l0.083-0.007c0.223-0.011,0.468-0.011,0.725,0c0.513,0.021,1.086,0.088,1.658,0.174
				c1.14,0.172,2.269,0.419,2.888,0.552c1.233,0.281,4.694,0.305,4.694,0.289c0.002,0.015,3.455-0.047,5.144,0.067
				c0.845,0.07,3.04-0.052,5.618-0.533c2.589-0.465,5.485-1.377,8.023-2.271c2.871-1.009,4.429-2.033,5.484-2.844
				c1.051-0.825,1.597-1.499,2.31-2.284c0.895-0.996,1.083-1.931,0.583-2.246c-0.508-0.331-1.674-0.019-3.633,1.213
				c-3.971,2.436-6.643,2.656-8.663,3.226c-2.063,0.521-3.222,0.693-5.371,0.805c-1.078,0.034-1.687,0.02-2.486-0.013
				c-0.801-0.044-1.785-0.096-3.695-0.357c-2.339-0.349-2.348-0.164-4.05,0.162c-1.722,0.304-2.392-0.485-4.963-0.403
				c-1.289,0.039-2.111-0.145-2.813-0.379l-1.112-0.37c-0.336-0.109-0.689-0.213-1.104-0.288c-1.679-0.268-2.019-0.646-6.397-1.158
				c-4.436-0.473-8.096,0.432-10.318,0.838c-2.285,0.396-3.821,1.576-5.333,1.514c-0.775-0.029-1.52,0.669-1.985,1.377
				C299.717,380.75,299.545,381.429,299.545,381.424z"/>
			<path style="fill:#231815;" d="M338.054,375.093c-0.591-0.094-1.186-0.218-1.752-0.367c-0.799-0.21-2.336-0.646-3.656-1.254
				c-1.333-0.591-2.37-1.367-2.535-1.751c-0.557-1.041-1.15-1.531-3.224-0.223c-0.823,0.575-0.884,1.424-0.471,2.077
				c0.398,0.659,1.163,1.033,1.725,1.022c0.375,0.021,1.86,0.635,3.463,0.981c1.603,0.378,3.326,0.601,4.177,0.658
				c0.895,0.067,1.725,0.154,2.277,0.314c0.401,0.119,3.044,0.572,6.279,0.732c3.232,0.188,7.04,0.05,9.712-0.283
				c2.626-0.315,4.122-0.692,5.059-0.924c0.934-0.252,1.311-0.354,1.679-0.466c0.768-0.235,0.854-1.286,0.461-1.946
				c-0.409-0.669-0.965-1.095-1.67-0.435c-0.365,0.322-0.653,0.57-1.405,0.905c-0.754,0.327-1.993,0.745-4.367,1.122
				c-2.53,0.406-6.222,0.601-9.394,0.461C341.235,375.605,338.603,375.188,338.054,375.093z"/>
		</g>
		<path style="fill:#231815;" d="M145.831,191.818c7.047-8.457,12.684-9.16,11.274-3.524c-1.408,5.639,2.819,12.684-1.408,14.094
			c-4.229,1.41-1.41-4.226-7.047-4.931C143.013,196.75,145.831,191.818,145.831,191.818z"/>
		<path style="fill:#231815;" d="M139.489,234.099c-6.227-2.043-7.047-9.16-0.705-11.275
			C145.126,220.71,145.715,236.142,139.489,234.099z"/>
		<path style="fill:#231815;" d="M364.938,188.847c-2.78,4.01-2.763,0.151-11.219,3.675c-8.457,3.523-15.57,16.848-7.047,11.979
			c4.932-2.818,19.101,1.374,19.731-4.932C367.033,193.263,366.997,185.877,364.938,188.847z"/>
		<path style="fill:#231815;" d="M364.288,224.939c-6.342-0.705-4.228-9.16-0.703-10.571c3.523-1.41,4.932-3.523,8.455-2.113
			c3.524,1.408,4.229,4.931,1.41,7.75C370.63,222.825,364.288,224.939,364.288,224.939z"/>
		<path style="fill:#231815;" d="M401.637,356.012c9.655,6.034,8.457,7.399,5.286,12.686c-3.172,5.285-9.514,12.684-12.686,10.57
			c-3.17-2.115,2.115-7.399,1.057-11.627C394.238,363.411,393.18,350.727,401.637,356.012z"/>
		<path style="fill:#231815;" d="M427.007,370.811c6.701,0.957,4.228,13.741-1.057,13.741
			C420.665,384.552,419.608,369.754,427.007,370.811z"/>
		<path style="fill:#231815;" d="M113.385,364.829c5.082,0.906,12.363,0.697,12.363,8.096s4.227,12.684-1.057,11.627
			c-5.285-1.056-12.489-10.076-16.913-13.741C103.354,367.147,109.48,364.134,113.385,364.829z"/>
		<path style="fill:#231815;" d="M84.521,372.925c7.487-2.451,15.856,13.742,9.514,13.742
			C87.693,386.667,79.227,374.658,84.521,372.925z"/>
		<path style="fill:#231815;" d="M156.402,323.244c-4.229-3.172-2.115-8.457,3.17-11.628c5.286-3.17,4.229,14.799,4.229,14.799
			L156.402,323.244z"/>
		<path style="fill:#231815;" d="M172.258,278.848c0-7.399,5.285-9.514,5.285-2.114c0,7.399-3.172,15.856-6.342,13.741
			C168.029,288.36,172.258,278.848,172.258,278.848z"/>
		<path style="fill:#231815;" d="M346.671,294.704c-4.229-5.286-9.514-12.686-3.172-12.686c6.342,0,4.229,6.342,7.399,8.457
			C354.071,292.589,346.671,294.704,346.671,294.704z"/>
		<path style="fill:#231815;" d="M358.298,327.472c-1.057-6.342-9.512-13.741,0-11.627c9.514,2.113,8.457,5.285,7.399,10.57
			C364.64,331.701,358.298,327.472,358.298,327.472z"/>
	</g>
</g>
</svg>
