<?xml version="1.0" encoding="iso-8859-1"?>
<!-- Generator: Adobe Illustrator 21.1.0, SVG Export Plug-In . SVG Version: 6.00 Build 0)  -->
<svg version="1.1" id="_x31_1" xmlns="http://www.w3.org/2000/svg" xmlns:xlink="http://www.w3.org/1999/xlink" x="0px" y="0px"
	 viewBox="0 0 512 512" style="enable-background:new 0 0 512 512;" xml:space="preserve">
<g>
	<path style="fill:#FFFFFF;" d="M296.182,162.721c-5.768-5.768-19.706-20.667-19.706-29.799s12.496-25.474,20.187-32.683
		c7.69-7.21,8.171-11.535,8.171-11.535s-7.21-75.94,21.148-80.266c13.938-1.442,17.784,42.296,17.784,42.296
		s12.496-27.396,28.357-33.645c15.861-6.248,13.938,30.28,9.132,43.257c-4.806,12.977-23.551,32.683-25.474,34.125
		c-1.923,1.442-3.845,3.845-1.923,5.287c1.923,1.442,18.745,32.683,16.342,58.638c20.187,10.574,37.009,40.854,38.451,51.428
		c1.442,10.574,11.055,63.444,11.535,65.367c0.481,1.922,8.171,16.342,4.326,28.838c-3.845,12.496-14.9,16.342-24.512,12.016
		c0,0,2.403,11.535,5.768,19.706c3.364,8.171,10.574,45.18,3.845,76.421c-6.729,31.241-9.613,46.141-8.171,55.273
		c1.442,9.132,3.845,18.745,10.093,20.667c6.248,1.922,14.419,3.364,20.667,5.287c6.248,1.923,6.119,9.659,3.845,11.535
		c-2.274,1.876-2.274,1.876-2.274,1.876s-5.315,3.497-8.3,1.488c-3.845,0.961-5.287,3.364-15.861,0
		c-10.574-3.365-36.009-22.501-37.49-53.351c-2.386-25.443-2.403-31.722-1.923-39.893c0.481-8.171-6.729-20.667-10.093-31.241
		c-3.365-10.574-9.613-20.187-15.38-22.109c-5.768-1.923-9.132,20.187-10.093,27.396c-0.961,7.21-1.922,25.474-1.922,31.722
		c0,6.248-0.481,27.396,0.481,36.048c0.961,8.651-1.442,29.319-15.38,38.451c-13.938,9.132-18.264,14.9-27.396,12.016
		c-0.481,0.961-5.287-2.403-5.287-2.403s-9.613-1.442-9.613-7.21c-5.287,0.961-8.171-4.806-1.442-8.171
		c6.729-3.365,14.419-3.845,25.474-8.171c11.055-4.326,12.977-18.264,12.016-28.357c-0.961-10.093-12.016-29.799-15.861-38.451
		c-3.845-8.651-18.264-68.25-5.287-98.53c-2.403-19.706-6.248-82.189-2.884-94.205c1.27-4.445,1.922-5.768-8.171,4.326
		c-10.093,10.093-18.264,23.551-36.048,25.474c-17.783,1.923-30.28-1.923-48.544-21.629s-26.435-27.396-30.761-27.877
		c-4.326-0.481-12.016,4.326-24.032-0.961c-12.016-5.287-14.9-25.954,0.481-32.683l3.845-1.442c0,0,4.806-6.729,15.38-6.729
		c10.574,0,19.706,10.093,23.551,15.861c3.845,5.768,24.993,28.838,32.203,35.086c7.21,6.248,22.109,12.977,32.203,3.845
		c10.093-9.132,24.512-28.838,30.761-33.645c6.248-4.806,15.372-10.276,16.342-11.055c0.97-0.778,4.326-1.442,4.326-1.442
		L296.182,162.721z"/>
	<g>
		<path style="fill:#231815;" d="M299.052,100.527c2.562-2.266,6.066-8.941-0.219-5.936c-5.751,2.749-10.385,9.026-13.842,14.184
			c-3.833,5.718-7.584,12.245-8.911,19.083c-1.385,7.132,1.001,14.05,4.943,19.959c4.089,6.127,9.646,11.08,13.87,17.097
			c1.755,2.5,2.782,5.073,3.964,7.861c0.797,1.881,2.436,4.786,3.738,1.602c2.41-5.892-4.523-12.703-8.22-16.133
			c-5.117-4.749-10.125-9.825-13.241-16.165C273.173,125.878,287.556,110.627,299.052,100.527z"/>
		<path style="fill:#231815;" d="M301.779,86.676c-0.13,1.371-1.091,8.021,1.391,7.336c2.414-0.666,2.847-6.579,3.015-8.416
			c0.57-6.215-0.017-12.483-0.516-18.681c-1.174-14.581-2.721-30.872,4.882-44.038c3.693-6.396,8.936-11.857,15.199-15.776
			c2.386-1.493,4.985-2.527,7.418-3.924c3.541-2.033,2.706-3.737-1.226-3.004c-7.473,1.394-13.331,7.55-17.851,13.217
			c-4.667,5.852-8.509,12.319-10.283,19.649c-2.059,8.51-1.452,17.938-1.493,26.637C302.273,68.647,302.714,77.739,301.779,86.676z"
			/>
		<path style="fill:#231815;" d="M329.164,86.242c-1.037,1.078-5.866,5.083-3.764,6.308c2.136,1.244,6.403-2.798,7.583-4.101
			c5.286-5.839,7.176-13.846,8.69-21.349c3.174-15.734,6.9-31.597,19.23-42.942c5.368-4.939,11.769-8.121,18.412-10.963
			c0.873-0.373,6.686-2.508,5.815-4.25c-0.945-1.889-6.976,0.592-8.172,1.049c-12.007,4.58-22.492,15.266-28.47,26.492
			c-4.363,8.191-6.481,16.982-8.779,25.898C337.67,70.29,335.398,80.426,329.164,86.242z"/>
		<path style="fill:#231815;" d="M388.389,21.842c-0.173-1.666-2.121-9.833-4.021-5.094c-1.036,2.583-0.206,6.552-0.043,9.217
			c0.266,4.32,0.667,8.624,0.673,12.956c0.023,15.453-5.83,28.517-15.796,40.157c-5.18,6.05-10.949,11.478-16.735,16.934
			c-0.835,0.787-5.372,4.489-4.46,6.129c0.68,1.222,2.457,0.061,3.331-0.442c5.219-2.997,9.064-8.341,12.839-12.862
			c4.661-5.582,9.699-10.907,13.667-17.025C387.297,57.236,390.245,38.961,388.389,21.842z"/>
		<path style="fill:#231815;" d="M339.392,4.552c-0.62-2.42-2.834-3.077-3.255-0.317c-0.415,2.727,1.728,6.349,2.682,8.805
			c3.258,8.381,3.675,16.735,2.004,25.488c-0.827,4.333,2.119,3.803,3.042,0.061c0.797-3.231,0.112-7.109-0.001-10.411
			C343.596,20.242,341.317,12.224,339.392,4.552z"/>
		<path style="fill:#231815;" d="M358.633,105.306c-1.922-4.104-5.499-3.83-4.022,1.049c1.73,5.714,5.402,10.834,7.678,16.343
			c2.56,6.197,3.981,12.825,4.854,19.455c0.432,3.283,0.701,6.587,0.822,9.896c0.102,2.772-0.472,6.126,0.171,8.822
			c1.341,5.619,3.612-0.954,3.65-3.204c0.094-5.566-1.632-11.616-2.424-17.147C367.642,128.519,363.564,116.354,358.633,105.306z"/>
		<path style="fill:#231815;" d="M288.604,176.697c1.234-0.982,8.251-5.455,7.105-7.064c-2.123-2.984-9.891,2.91-11.247,3.986
			c-9.204,7.309-16.155,17.235-24.035,25.856c-6.613,7.234-15.318,16.923-25.587,18.292c-5.576,0.743-10.43-2.881-14.59-6.141
			c-4.523-3.543-8.647-7.599-12.629-11.729c-7.064-7.327-13.008-16.242-20.541-23.04c-1.11-1.001-3.961-3.813-4.439-1.245
			c-0.273,1.467,1.946,4.231,2.69,5.336c5.559,8.265,13.355,14.828,20.524,21.625c6.856,6.5,15.774,17.062,25.726,18.124
			c11.564,1.233,22.553-10.455,30.102-17.743C270.668,194.279,278.83,184.515,288.604,176.697z"/>
		<path style="fill:#231815;" d="M178.287,172.157c0.857,0.917,3.753,3.829,4.783,1.957c0.911-1.655-3.824-5.731-4.745-6.555
			c-4.377-3.917-10.021-6.939-15.779-8.214c-6.484-1.435-13.84-0.493-18.287,4.9c-3.962,4.804-4.194,12.001,1.202,15.812
			c2.162,1.527,5.812,2.913,8.514,2.355c4.321-0.891,0.632-2.386-1.587-2.904c-6.283-1.468-11.736-5.401-7.808-12.359
			C152.568,152.999,170.475,164.345,178.287,172.157z"/>
		<path style="fill:#231815;" d="M133.258,177.348c0.79-1.622,1.482-5.06-1.4-4.248c-2.278,0.642-3.346,4.62-3.719,6.477
			c-1.01,5.023,0.276,10.525,2.18,15.195c5.158,12.652,16.875,8.434,27.831,9.022c1.332,0.072,5.092,0.859,4.815-1.492
			c-0.213-1.805-3.712-2.216-5.067-2.279c-4.971-0.232-9.675,2.059-14.734,1.749c-5.245-0.322-8.747-2.571-10.505-7.63
			C130.835,188.889,130.858,182.425,133.258,177.348z"/>
		<path style="fill:#231815;" d="M170.421,203.653c11.114,5.659,18.53,17.347,26.559,26.49c7.977,9.084,17.239,17.695,29.308,20.666
			c11.594,2.854,23.303-2.119,32.307-9.273c10.122-8.042,18.89-17.63,30.205-24.142c-0.332-0.238-20.622,21.367-22.77,23.31
			c-8.015,7.255-18.066,13.561-29.121,14.178c-23.033,1.285-39.424-17.802-53.779-33.042c-4.259-4.521-8.949-8.708-12.813-13.587
			C168.694,206.202,165.148,201.023,170.421,203.653z"/>
		<path style="fill:#231815;" d="M290.591,206.837c0.081-1.038,0.436-7.9-1.685-8.052c-1.418-0.101-1.73,2.905-1.91,3.818
			c-1.637,8.321-1.738,17.19-2.239,25.638c-1.052,17.749-0.894,35.616-0.522,53.39c0.168,8.023,0.448,16.151,1.594,24.105
			c0.148,1.024,0.798,6.985,2.507,7.012c1.314,0.021,1.27-1.991,1.334-3.011c0.412-6.626-1.428-13.435-2.271-19.956
			c-1.054-8.153-0.784-16.391-0.777-24.591c0.009-9.58-0.613-19.034,0.372-28.594C288.018,226.66,289.88,216.807,290.591,206.837z"
			/>
		<path style="fill:#231815;" d="M381.621,162.28c-1.116-0.982-7.202-5.812-9.091-3.605c-1.841,2.15,4.896,7.632,6.035,8.746
			c6.733,6.584,13.128,13.476,18.202,21.449c10.938,17.188,14.768,37.824,17.422,57.715c0.694,5.201,1.293,10.415,1.904,15.626
			c0.497,4.239,0.598,8.994,2.11,13.026c0.589,1.571,1.75,4.355,3.473,2.569c1.047-1.085,0.739-4.235,0.718-5.525
			c-0.156-9.181-3.119-18.09-4.767-27.053c-1.409-7.663-2.45-15.391-4.226-22.984C408.265,200.283,398.643,177.652,381.621,162.28z"
			/>
		<path style="fill:#231815;" d="M377.08,215.274c7.029,11.543,11.577,24.929,14.954,37.954c1.63,6.286,2.937,12.688,3.538,19.161
			c0.123,1.326,1.297,11.271-0.173,11.852c0.623-0.246-2.841-13.484-2.987-14.162c-1.9-8.841-3.837-17.579-6.902-26.106
			c-2.139-5.949-4.25-12.061-6.754-17.862c-1.737-4.024-3.804-8.049-6.481-11.537c-1.037-1.351-2.396-3.177-4.085-3.743
			c-0.569-0.191-4.636,0.243-4.414,0.728c-0.35-0.922,1.582-2.144,2.168-2.405c1.637-0.73,3.286-0.296,4.813,0.459
			C373.27,210.857,375.309,213.159,377.08,215.274z"/>
		<path style="fill:#231815;" d="M394.552,287.902c0.848-1.133-0.306-1.824-1.139-1.701c0.774,0.312,2.325-0.101,1.376-1.108
			c-1.449-1.536-3.819,2.14-4.228,2.826c-2.834,4.745-6.505,13.938-0.854,18.154c1.242,0.926,7.279,2.653,6.885-0.359
			c-0.292-2.228-5.445-0.771-6.77-2.327C385.461,298.267,391.867,291.589,394.552,287.902z"/>
		<path style="fill:#231815;" d="M424.988,281.943c-0.775-2.191-4.503-5.808-4.556-1.446c-0.034,2.799,1.582,6.036,2.144,8.783
			c1.247,6.094,1.766,12.824-0.826,18.663c-2.634,5.935-8.236,8.647-14.578,8.682c-2.712,0.015-5.666-0.434-8.006-1.903
			c-1.835-1.152-3.203-5.526-4.884-5.972c-2.731-0.724-1.748,3.786-1.005,5.218c1.206,2.325,3.517,3.827,5.986,4.523
			c5.458,1.537,12.814,0.95,17.849-1.77C427.891,310.896,428.604,292.105,424.988,281.943z"/>
		<path style="fill:#231815;" d="M283.045,355.645c0.851-8.433,0.782-16.93,1.648-25.359c0.375-3.65,0.879-7.417,2.179-10.871
			c0.534-1.42,1.215-3.248,2.386-4.27c1.518-1.326,1.832-1.358,1.961,0.352c0.22,2.915-0.836,6.844-1.182,9.795
			c-0.368,3.135-0.883,6.24-1.17,9.387c-0.607,6.657-0.86,13.339-0.958,20.02c-0.216,14.865,0.014,29.942,3.182,44.53
			c2.804,12.91,9.654,23.506,15.499,35.107c6.153,12.211,9.82,27.418,2.152,39.925c-7.702,12.564-25.424,10.766-36.459,18.732
			c-1.231,0.889-5.192,5.823-5.839,3.133c-0.703-2.923,4.176-6.697,6.187-7.971c6.761-4.285,15.171-5.012,22.52-7.904
			c4.769-1.877,9.351-4.576,11.747-9.307c3.586-7.081,4.319-15.331,2.416-22.979c-1.847-7.419-5.716-13.815-9.512-20.342
			c-4.524-7.777-8.492-15.807-10.623-24.591c-1.824-7.522-2.759-15.299-3.922-22.944
			C284.066,372.246,282.279,363.605,283.045,355.645z"/>
		<path style="fill:#231815;" d="M278.208,497.156c-0.964,1.82-0.188,5.223-0.045,7.16c1.536,0.263,3.383,1.391,4.399,2.591
			c-0.267-0.315-4.256-0.006-5.207-0.477c-1.297-0.642-1.282-1.211-1.626-2.975c-0.288-1.476-0.539-2.878-0.398-4.361
			c0.073-0.769,0.307-3.351,0.917-3.897c0.631-0.566,4.979-0.633,4.925,0.627C281.148,496.388,278.642,496.755,278.208,497.156z"/>
		<path style="fill:#231815;" d="M287.559,501.356c-3.425,3.959,3.335,5.043,4.961,6.978c0.36,0.428-4.123,0.173-4.314,0.097
			c-2.045-0.803-4.054-2.673-3.988-4.97c0.043-1.489,1.13-3.891,2.485-4.54c0.392-0.188,1.163-0.701,1.61-0.256
			C288.365,498.718,287.606,501.328,287.559,501.356z"/>
		<path style="fill:#231815;" d="M261.409,118.66c-6.016-4.967-12.986-8.878-19.986-12.268c-3.387-1.641-6.848-3.136-10.365-4.476
			c-0.629-0.24-7.289-3.048-7.571-2.772c1.035-1.013,8.437,1.54,9.386,1.845c5.646,1.815,11.093,4.54,16.353,7.258
			c3.331,1.721,6.325,3.839,9.359,6.031c2.505,1.81,5.001,3.65,7.237,5.792c0.19,0.182,3.437,3.829,3.134,3.899
			C267.777,124.242,262.706,119.488,261.409,118.66z"/>
		<path style="fill:#231815;" d="M255.926,129.385c-8.52-2.589-17.373-4.273-26.204-5.351c-4.206-0.513-8.434-0.83-12.666-1.027
			c-1.874-0.087-6.493-1.06-8.184-0.406c3.05-1.179,7.538-1.01,10.715-0.995c6.588,0.032,13.202,0.935,19.71,1.89
			c4.139,0.607,8.111,1.72,12.148,2.788c3.225,0.854,6.458,1.691,9.616,2.776c0.286,0.098,5.11,2.141,4.967,2.253
			c-0.733,0.576-5.172-0.999-5.959-1.155C258.692,129.885,257.31,129.629,255.926,129.385z"/>
		<path style="fill:#231815;" d="M260.745,139.824c-6.5,0.156-12.92,1.367-19.267,2.688c-1.271,0.264-11.269,3.288-12.064,2.117
			c0.038,0.056,5.646-2.25,5.967-2.349c4.35-1.337,8.89-2.201,13.341-3.141c2.761-0.583,5.484-0.732,8.293-0.925
			c2.181-0.15,8.538-1.423,10.453,0.32C267.14,138.237,261.816,139.609,260.745,139.824z"/>
		<path style="fill:#231815;" d="M298.467,131.423c1.54,0.29,5.044-0.098,5.75,1.808c0.515,1.389-0.426,1.096-1.697,1.152
			C300.848,134.457,294.711,133.826,298.467,131.423z"/>
		<path style="fill:#231815;" d="M325.232,145.777c0.47,0.692,4.841,3.784,5.572,3.796c-0.992-0.211-2.106,0.254-3.353-0.122
			c-0.836-0.252-1.601-0.514-2.276-1.023C323.787,147.38,322.367,143.784,325.232,145.777z"/>
		<path style="fill:#231815;" d="M341.827,144.872c1.702,2.336,7.209,3.599,8.12,6.092c0.21,0.575-4.193-0.859-4.323-0.92
			c-1.201-0.569-2.395-1.134-3.391-1.99c-0.613-0.527-3.158-2.933-2.729-3.853C339.912,143.326,341.088,144.568,341.827,144.872z"/>
		<path style="fill:#231815;" d="M357.54,141.995c0.596,1.348,5.972,4.681,5.646,6.006c-0.233,0.945-4.821-1.881-5.206-2.254
			C356.525,144.338,353.628,139.349,357.54,141.995z"/>
		<path style="fill:#231815;" d="M344.398,236.799c-1.94,2.399-3.702,4.939-5.498,7.445c-1.27,1.772-2.722,4.827-4.699,5.854
			c-0.116,0.06-0.038-1.525-0.032-1.661c0.078-1.627,1.049-3.059,1.862-4.4c1.126-1.857,2.181-3.864,3.509-5.558
			c1.001-1.278,3.296-5.04,4.866-5.323C346.401,232.798,344.737,235.435,344.398,236.799z"/>
		<path style="fill:#231815;" d="M326.934,252.315c-2.293,2.819-3.967,6.113-5.957,9.141c-1.405,2.138-3.703,6.151-6.483,6.777
			c-0.721,0.162,12.123-22.46,13.904-20.171C328.771,248.542,327.137,251.629,326.934,252.315z"/>
		<path style="fill:#231815;" d="M298.992,241.265c0.268,3.626,1.244,7.165,2.608,10.524c0.942,2.32,3.15,5.22,3.334,7.774
			c-0.003-0.04-3.865-3.383-4.217-3.951c-1.375-2.216-2.771-5.098-3.483-7.627c-0.435-1.545-1.763-10.714-0.346-10.746
			C297.555,237.224,298.689,240.652,298.992,241.265z"/>
		<path style="fill:#231815;" d="M345.931,360.034c6.19,5.094,10.889,12.18,13.888,19.565c1.449,3.568,2.514,7.307,2.967,11.138
			c0.07,0.596,0.221,7.611-0.208,7.459c-0.407-0.145-1.276-4.609-1.41-5.056c-0.703-2.351-1.31-4.73-2.022-7.078
			c-1.423-4.695-3.517-9.074-6.328-13.091c-2.112-3.019-3.94-6.199-6.621-8.777c-0.473-0.454-9.364-6.341-9.453-5.917
			C337.193,356.134,344.98,359.526,345.931,360.034z"/>
		<path style="fill:#231815;" d="M371.379,400.051c0.044,5.422,0.044,10.849-0.186,16.267c-0.11,2.598-0.272,5.194-0.552,7.78
			c-0.105,0.973-0.116,4.688-0.906,5.406c0.13-0.119-0.842-2.456-0.903-2.686c-0.628-2.36-0.596-4.733-0.551-7.154
			c0.077-4.152-0.386-8.389-0.072-12.508c0.284-3.732-0.343-7.649,0.149-11.326C368.973,391.247,370.915,398.502,371.379,400.051z"
			/>
		<path style="fill:#231815;" d="M372.338,443.435c1.659,6.188,1.52,12.775,2.484,19.093c1.249,8.186,3.583,16.364,7.716,23.586
			c7.242,12.655,20.894,21.363,35.288,23.011c0.528,1.773-11.5,0.806-12.246,0.643c-4.497-0.987-8.525-2.953-12.127-5.801
			c-7.184-5.682-12.489-13.459-16.425-21.661c-3.551-7.4-6.342-15.715-7.872-23.797c-0.808-4.268-1.921-9.205-0.463-13.465
			C369.237,443.452,371.666,439.684,372.338,443.435z"/>
		<path style="fill:#231815;" d="M421.361,503.691c2.554,0.326,2.915,0.149,3.854,2.644c0.454,1.207,1.497,3.472,0.723,4.748
			c-0.84,1.384-0.316,0.977-1.237,0.247c-1.228-0.974-1.028-4.228-2.214-5.041C420.618,505.009,417.64,505.929,421.361,503.691z"/>
		<path style="fill:#231815;" d="M429.196,499.419c2.552,0.312,2.919,0.158,3.854,2.643c0.454,1.206,1.498,3.473,0.723,4.748
			c-0.84,1.383-0.316,0.977-1.237,0.246c-1.228-0.974-1.028-4.228-2.214-5.04C428.459,500.739,425.467,501.649,429.196,499.419z"/>
		<path style="fill:#231815;" d="M403.598,326.07c2.444,6.622,5.282,13.128,7.109,19.96c1.832,6.852,2.248,13.875,2.805,20.915
			c1.299,16.414-0.322,32.391-3.458,48.514c-4.422,22.73-21.228,71.103,15.904,74.884c2.32,0.236,4.419-0.065,6.62,0.997
			c3.157,1.524,5.362,4.702,6.049,8.109c0.217,1.078,0.714,6.882-1.473,7.052c-1.056,0.082-1.285-6.313-1.816-7.698
			c-2.233-5.82-6.224-4.917-11.297-5.847c-6.91-1.266-13.681-4.031-18.37-9.449c-9.025-10.427-7.394-26.716-4.578-39.191
			c3.283-14.544,5.884-29.338,7.196-44.197c0.616-6.981,1.362-13.961,1-20.977c-0.386-7.482-1.64-14.941-3.046-22.293
			c-1.351-7.065-3.357-14.042-4.497-21.138c-0.345-2.147-0.601-4.31-0.819-6.473c-0.148-1.464-0.888-4.263-0.344-5.666
			C401.643,320.834,403.013,324.464,403.598,326.07z"/>
		<path style="fill:#231815;" d="M339.499,369.73c-2.258,4.748-3.28,10.182-3.702,15.39c-0.204,2.516-0.208,5.04-0.065,7.559
			c0.068,1.188,1.084,5.141,0.505,6.131c0.125-0.213-1.989-3.124-2.143-3.474c-0.878-1.988-1.1-4.078-1.187-6.228
			c-0.144-3.57-0.04-7.362,0.544-10.899c0.506-3.066,3.756-15.132,7.415-14.953C340.965,363.262,339.624,368.936,339.499,369.73z"/>
		<path style="fill:#231815;" d="M333.044,408.353c-0.707,5.148,0.115,10.516,0.762,15.626c0.32,2.526,0.675,5.049,0.903,7.586
			c0.061,0.681,0.59,2.89,0.115,3.574c-0.15,0.216-3.12-6.842-3.202-7.223c-0.856-3.982-2.003-8.624-1.956-12.712
			c0.038-3.351-0.094-7.512,1.158-10.623c0.496-1.233,1.161-2.795,1.832-1.201C333.127,404.501,332.776,407.096,333.044,408.353z"/>
		<path style="fill:#231815;" d="M332.581,446.477c2.345,5.072,1.977,11.437,1.661,16.904c-0.449,7.791-2.047,15.102-5.249,22.224
			c-5.29,11.766-16.476,17.566-28.992,18.188c-0.13-0.338,15.913-8.801,17.632-10.01c5.162-3.629,8.895-8.839,10.688-14.877
			c1.947-6.556,1.721-12.948,1.06-19.662c-0.353-3.593-1.534-7.713-0.266-11.231C329.64,446.557,331.472,443.672,332.581,446.477z"
			/>
		<path style="fill:#231815;" d="M319.108,129.868c-5.186-2.074-1.467-16.136,3.667-14.668
			C327.909,116.666,326.443,132.802,319.108,129.868z"/>
		<path style="fill:#231815;" d="M289.529,125.249c-3.974-1.59-1.124-12.363,2.811-11.239
			C296.273,115.134,295.149,127.496,289.529,125.249z"/>
		<path style="fill:#231815;" d="M347.182,43.469c2.18-1.696,5.461-6.323,8.18-6.951c2.813-0.65,0.226,4.362,0.348,6.074
			c0.252,3.518,2.674,0.85,4.193-0.857c0.929-1.044,1.53-2.333,2.875-2.909c1.651-0.706,3.895-0.583,5.664-1.173
			c2.263-0.755,4.785-2.293,3.897,1.34c-0.411,1.681-4.166,6.301-3.176,7.982c0.875,1.485,5.354-0.433,6.799-0.68
			c2.587-0.443,3.511-0.064,4.223,2.675c0.563,2.167-0.313,12.29,3.486,7.905c4.617-5.329,3.42-14.329,2.896-20.755
			c-0.589-7.221-0.805-14.029-0.455-21.255c0.072-1.487,0.516-4.056-1.046-4.945c-1.748-0.995-5.094,1.204-6.555,1.936
			C365.328,18.459,351.478,28.668,347.182,43.469z"/>
		<path style="fill:#231815;" d="M305.047,35.407c0.475-1.537,3.585-9.276,5.966-8.706c2.624,0.628-0.24,7.415,2.094,8.756
			c1.662,0.955,6.523-5.501,8.416-6.605c2.801-1.634,5.846-5.823,8.709-2.423c1.582,1.879,1.885,4.376,0.981,6.621
			c-0.692,1.717-2.493,3.426-0.922,5.31c3.236,3.882,3.883-4.697,5.587-5.419c2.879-1.22,5.91,9.337,6.681,11.479
			c0.635-6.307,0.822-12.722,0.395-19.047c-0.319-4.735-1.296-9.058-2.649-13.585c-0.832-2.784-1.322-8.712-3.868-10.645
			c-3.811-2.892-13.786,7.173-16.512,9.626C312.57,17.388,307.352,25.742,305.047,35.407z"/>
		<path style="fill:#231815;" d="M80.268,87.502c-1.974-2.329-9.158-6.593-6.529-0.183c2.43,5.925,8.745,11.073,13.296,15.401
			c12.492,11.877,23.89,24.537,35.452,37.31c5.323,5.88,10.202,12.287,15.663,18.019c1.039,1.09,4.443,4.508,5.407,1.711
			c0.46-1.336-1.093-3.661-1.711-4.669c-3.426-5.582-8.9-9.428-13.566-13.88c-3.79-3.616-7.257-7.548-10.746-11.45
			C105.002,115.747,92.428,101.847,80.268,87.502z"/>
		<path style="fill:#231815;" d="M170.031,182.94c-0.625-1.034-2.492,0.2-2.784,0.922c-0.649,1.605,0.907,2.623,2.036,3.413
			c1.68,1.175,3.225,2.021,4.729,3.46c1.311,1.255,2.759,3.371,4.381,4.248c1.247,0.674,3.131,0.841,2.731-1.417
			c-0.28-1.577-2.034-1.411-3.155-2.098C174.845,189.555,171.955,186.015,170.031,182.94z"/>
	</g>
</g>
</svg>
