<?xml version="1.0" encoding="iso-8859-1"?>
<!-- Generator: Adobe Illustrator 18.1.1, SVG Export Plug-In . SVG Version: 6.00 Build 0)  -->
<svg version="1.1" id="_x31_2" xmlns="http://www.w3.org/2000/svg" xmlns:xlink="http://www.w3.org/1999/xlink" x="0px" y="0px"
	 viewBox="0 0 512 512" style="enable-background:new 0 0 512 512;" xml:space="preserve">
<g>
	<path style="fill:#94C85C;" d="M346.98,500.884c-1.281-1.281-3.844-4.271-7.26-4.271s-7.474,0.214-7.474,0.214
		s1.495-2.776,4.057-2.776c2.563,0,7.474-0.641,3.417-1.922s-5.979-1.495-7.901-1.495c-1.922,0-12.385,0.641-17.083,0.854
		c-4.698,0.214-10.036-0.641-9.609-5.552c0.427-4.911,12.385-41.639,10.89-46.124c-1.495-4.484-4.057-10.25-2.776-15.375
		c1.281-5.125,5.979-16.229,6.62-16.869s16.656-43.561,14.093-50.181c-2.562-6.62-4.413-8.542-3.132-10.25
		c1.271-1.694,6.95-14.589,6.834-18.131c4.61-24.521-2.028-79.116-2.279-82.372c-0.285-3.701,2.277-9.111,4.84-15.659
		c2.562-6.548-3.986-38.152-7.118-47.832c-3.132-9.68-9.396-25.055-10.25-27.902c-0.854-2.847-18.222-37.582-21.354-42.991
		c-3.132-5.409-8.826-22.208-8.826-22.208s4.556-15.66,5.694-19.931c1.139-4.271-5.694-27.617-6.263-34.166
		c-0.569-6.549,1.993-19.645,3.701-23.062c1.708-3.417-3.132-5.694-3.701-4.555c-0.569,1.139-3.132,6.833-2.847,4.84
		c0.285-1.993-2.847-11.958-2.847-8.541s-3.132,9.68-3.986,10.819c-0.854,1.139-1.423-3.417-2.278-6.548
		c-0.854-3.131-1.993-1.708-2.847-1.708c-0.756,0-1.288,5.122-1.4,6.3c0.314-4.024-5.137-10.769-4.579-6.585
		c0.57,4.271-2.847,34.451-2.847,34.451s1.424-0.285-1.993,7.687c-3.417,7.973,8.257,26.763,9.68,29.325
		c1.423,2.563-10.534,20.784-10.534,20.784s-8.541,14.236-9.396,15.944c-0.854,1.708-4.84,7.118-10.819,17.367
		c-31.888,54.665-16.513,100.792-16.513,100.792s0.569,3.417,1.708,11.958c-3.417,5.125-10.819,26.193-14.805,51.817
		c-2.663,17.122,2.927,33.976,8.55,43.794c-3.907,3.507-14.006,9.463-20.508,15.424c-6.833,6.263-19.93,17.652-28.472,20.499
		c-8.541,2.847-8.541,7.402-8.541,14.805c0,7.403,2.847,13.666,19.93,15.375c17.083,1.708,38.152-9.11,54.665-16.513
		c16.513-7.403,31.888-11.389,31.888-11.389c5.125,3.417,9.68,3.986,11.958,15.375c2.278,11.389-2.277,22.208-0.569,26.764
		c1.708,4.555,4.556,5.694,6.264,10.819c1.708,5.125-5.695,21.071-3.986,31.32c1.708,10.25,4.555,18.222,2.847,25.624
		c-1.708,7.402,0.57,17.083,5.694,17.083c5.125,0,30.18-1.708,37.582,3.417c6.263,0.569,6.263,5.124,6.263,0.569
		c0-4.555,0.997-6.122-3.06-7.404c-4.057-1.281-5.338-1.281-5.338-1.281s8.542-2.135,11.531-0.854
		C345.485,501.738,348.261,502.165,346.98,500.884z M296.656,176.88c0,0-4.556-0.854-5.979-0.854s-14.236,1.424-16.229,1.424
		c-1.993,0-3.132,0.285-4.271-0.854c-1.139-1.139-5.979-6.833-5.979-6.833s9.965-35.589,10.535-38.436
		c0.227-1.135,3.355-1.481,5.125-3.417c2.668-2.917,4.271-7.403,4.271-7.403s3.416,12.813,4.84,19.076
		c1.424,6.264,8.826,31.033,9.396,33.88C298.934,176.311,296.656,176.88,296.656,176.88z"/>
	<path style="fill:#FFFFFF;" d="M280.143,206.489c-6.833,0.57-22.208,5.695-25.624,8.541c-1.281,1.068-0.829,10.231-3.612,20.24
		c-1.744,6.273-7.483,15.004-9.432,23.491c-3.234,14.078-6.124,29-7.456,40.545c-3.417,29.61,0,47.832,14.236,55.804
		c14.236,7.972,18.359,6.917,21.138,4.312c2.778-2.604,2.778-8.868,10.75-10.007c7.972-1.139,30.75-6.263,35.305-9.11
		c4.555-2.848,10.819-55.804,6.833-81.998c-1.189-7.811-5.951-15.405-7.018-20.715c-2.51-12.499-2.145-21.978-5.411-23.392
		C305.198,212.184,280.143,206.489,280.143,206.489z"/>
	<g>
		<g>
			<path style="fill:#231815;" d="M255.647,211.162c5.761,3.278,18.955-6.418,27.932-4.71c8.979,1.709,21.757,5.179,26.106,5.454
				c4.349,0.274,3.725,2.52,0.167,2.295c-3.559-0.224-25.316-5.404-26.859-5.882c-1.544-0.477-4.745-0.298-10.077,1.269
				c-5.331,1.568-7.027,2.603-12.321,3.791c-5.293,1.189-5.09,3.106-8.138,1.772C249.41,213.815,252.638,209.45,255.647,211.162z"/>
			<path style="fill:#231815;" d="M271.592,203.031c2.603-2.12,4.031-0.507,2.258,1.285
				C272.076,206.107,271.592,203.031,271.592,203.031z"/>
			<path style="fill:#231815;" d="M286.501,205.113c-1.479-0.511-0.203-1.915,0.703-3.001c0.905-1.084-0.088-3.051,1.454-2.572
				C290.202,200.016,289.193,206.045,286.501,205.113z"/>
			<path style="fill:#231815;" d="M299.851,214.712c5.102,0.702,11.478,4.531,15.343,1.728c3.867-2.802,6.43-4.543,2.553-5.549
				c-3.877-1.006-12.533-1.557-6.963-1.962c2.806-0.204,5.535,0.349,7.946,0.12c2.411-0.23,4.312,0.653,3.251,3.251
				c-1.059,2.599-3.15,3.608-5.358,5.754c-2.207,2.145-1.851,2.548-4.976,1.971C308.522,219.447,299.851,214.712,299.851,214.712z"
				/>
			<path style="fill:#231815;" d="M244.845,219.819c-2.368-2.281-8.837-7.031-6.158-9.907c2.68-2.877,8.652-14.683,11.013-18.341
				c2.361-3.659,1.685-4.843-2.806,0.203c-4.491,5.048-7.822,14.355-10.502,17.231c-2.68,2.878-3.113,3.23,0.253,5.347
				c3.366,2.115,5.316,6.427,7.14,8.064C245.609,224.054,247.382,222.263,244.845,219.819z"/>
			<path style="fill:#231815;" d="M251.248,180.246c2.173-3.368,5.017-14.15,9.57-11.96c4.553,2.19,7.891,8.493,9.357,9.728
				c1.467,1.234,2.993,0.005,0.664-2.624c-2.499-2.823-5.469-4.913-7.253-6.928c-1.787-2.017-4.796-3.73-6.645-1.181
				c-1.851,2.547-5.832,6.484-7.758,9.789C247.256,180.376,249.36,183.174,251.248,180.246z"/>
			<path style="fill:#231815;" d="M277.203,175.411c3.9,0.692,4.667,1.056,11.108,0.319c6.442-0.736,6.288,0.779,3.839,1.385
				c-2.45,0.607-6.836,0.711-11.618,0.791c-4.784,0.078-4.657,2.752-7.232,0.686C270.725,176.525,270.56,174.23,277.203,175.411z"/>
			<path style="fill:#231815;" d="M296.22,176.229c3.914,0.247,6.1-9.133,10.958-9.969c4.86-0.837,4.438,3.326,9.156,7.812
				c4.718,4.484,3.965,4.057,1.593,3.907c-2.374-0.149-4.794-3.729-5.75-6.073c-0.956-2.345-3.378-5.924-5.19-3.754
				c-1.813,2.17-4.771,3.887-6.227,6.461c-1.454,2.572-0.229,2.27-3.508,3.205C293.973,178.753,292.662,176.005,296.22,176.229z"/>
			<path style="fill:#231815;" d="M306.796,175.992c2.092-1.009,2.69,0.931,1.747,2.395c-0.945,1.463-1.773,1.791-2.844,0.582
				c-1.071-1.21-1.621,0.278-1.071-1.21C305.177,176.271,306.796,175.992,306.796,175.992z"/>
			<path style="fill:#231815;" d="M261.775,176.579c2.217,0.767,2.538,2.444,0.445,3.455c-2.092,1.01-2.296-0.906-3.444-1.36
				C257.628,178.221,259.084,175.648,261.775,176.579z"/>
			<path style="fill:#231815;" d="M264.55,186.52c0.795-0.794,0.509-2.671,1.701-1.158c1.192,1.513,3.403,3.091,3.148,4.426
				c-0.255,1.335-2.051-1.737-0.255,1.335c1.798,3.071,3.546,6.731,2.305,5.806c-1.24-0.925-1.589-3.819-3.211-5.443
				C266.615,189.862,264.55,186.52,264.55,186.52z"/>
			<path style="fill:#231815;" d="M318.076,188.268c3.974,0.251,2.614,1.687,4.438,3.326c1.823,1.638,5.036,5.267,2.79,7.79
				c-2.245,2.524-2.958,1.717-2.652-1.31c0.307-3.025-0.802-3.857-2.269-5.092c-1.466-1.235-3.367-2.116-4.476-2.948
				C314.798,189.203,315.308,188.094,318.076,188.268z"/>
			<path style="fill:#231815;" d="M326.542,188.707c3.328,9.204,11.667,25.284,6.075,29.798c-5.592,4.516-5.783,9.482-7.555,8.578
				c-1.771-0.902,2.015-5.418,4.394-8.578c2.38-3.16,2.588-8.578,0.992-13.995c-1.597-5.419-5.816-13.094-7.032-16.706
				C322.201,184.193,325.726,186.45,326.542,188.707z"/>
			<path style="fill:#231815;" d="M229.161,243.593c-3.287-4.923-1.459-16.019-3.261-22.429c-1.803-6.41-7.462-42.243,17.498-87.273
				c0,0,3.824-4.951,3.598-2.393c-0.224,2.559-1.234,6.364-2.752,8.217c-1.519,1.853-8.939,14.337-10.681,18.749
				c-1.742,4.412-1.053,10.403-3.2,13.6c-2.146,3.198-3.989,16.858-3.564,23.906c0.425,7.048-1.119,12.383,0.119,15.588
				c1.24,3.206,1.711,8.973,2.974,11.539c1.263,2.566,1.665,10.253,2.181,14.739C232.592,242.322,230.446,245.518,229.161,243.593z"
				/>
			<path style="fill:#231815;" d="M276.233,130.577c0.287,12.22-8.249,39.384-10.631,40.725c-2.383,1.341-4.086,0.631-2.572-3.85
				c1.515-4.479,11.52-25.394,10.167-33.17C271.844,126.507,276.233,130.577,276.233,130.577z"/>
			<path style="fill:#231815;" d="M250.429,131.025c-1.036-1.742-1.185-9.694,4.156-16.499c0.954-3.166,5.737-3.573,3.32,0.804
				c-2.418,4.379-4.16,8.791-4.495,12.629C253.074,131.797,251.613,133.01,250.429,131.025z"/>
			<path style="fill:#231815;" d="M231.708,247.808c-8.644,13.918-18.349,36.782-14.227,70.393
				c4.121,33.61,27.75,35.514,34.45,37.417c6.699,1.902,3.819,6.341-3.533,3.803c-7.352-2.536-15.911-8.878-21.183-12.684
				c-5.271-3.805-8.485-8.245-9.693-12.048c-1.208-3.805-3.819-6.343-3.672-10.148c0.146-3.804-0.409-6.975-0.964-10.146
				c-0.555-3.171-0.189-12.684-0.091-15.219c0.098-2.537,3.729-8.878,3.974-15.221c0.244-6.341,3.9-13.318,4.047-17.123
				c0.146-3.804,5.058-8.244,6.706-15.853C229.171,243.369,236.041,240.832,231.708,247.808z"/>
			<path style="fill:#231815;" d="M337.429,245.906c-1.914,15.857,8.079,53.905,2.287,81.174
				c-5.791,27.269-11.209,27.269-15.975,27.905c-4.764,0.634-4.715-0.635,0.147-3.807c4.864-3.17,12.174-17.121,12.394-22.83
				c0.219-5.707,1.32-34.246,0.741-36.782c-0.58-2.537-2.693-35.514-3.274-38.051c-0.578-2.536-0.334-8.878-0.26-10.78
				C333.562,240.832,338.424,237.662,337.429,245.906z"/>
			<path style="fill:#231815;" d="M223.879,345.471c-10.306,3.805-39.751,29.806-50.783,34.88c-8.249,3.171-6.046-1.27-1.232-3.17
				c4.815-1.904,16.117-7.834,21.483-12.685c6.666-6.024,19.818-22.196,29.397-24.732L223.879,345.471z"/>
			<path style="fill:#231815;" d="M167.483,385.424c-1.599,6.343,0.499,22.196,18.155,20.928c2.057-0.634,1.208,3.805-2.83,3.171
				c-4.04-0.634-12.142-1.269-15.912-8.88c-3.77-7.609-2.44-6.975-2.269-11.414C164.798,384.79,167.483,385.424,167.483,385.424z"/>
			<path style="fill:#231815;" d="M199.231,405.084c8.478-2.614,51.888-19.66,69.765-26.637c4.04,0.634,4.378,0.634-5.298,5.709
				c-6.71,3.517-22.038,9.512-28.256,12.684c-6.217,3.17-12.484,7.611-17.297,9.512c-4.814,1.902-8.829,0.634-17.657,1.268
				c-8.828,0.634-9.628,3.805-12.239,1.27C185.638,406.352,193.063,406.986,199.231,405.084z"/>
			<path style="fill:#231815;" d="M288.86,194.124c2.967-1.455,3.822-5.417,4.775-6.771c0.956-1.354,0.104-2.709,2.831-3.16
				c2.727-0.451,1.771,0.903,1.25,2.709c-0.521,1.806-2.38,3.161-2.38,3.161s-1.459,2.709-2.866,4.062
				C291.064,195.479,287.018,195.028,288.86,194.124z"/>
			<path style="fill:#231815;" d="M333.477,347.126c7.832,7.611-7.853,43.756-18.243,76.099c-2.288,6.658-5.116,0.951-1.775-6.66
				c3.34-7.609,18.048-44.706,18.195-48.511c0.147-3.805-3.476-15.219-3.476-15.219L333.477,347.126z"/>
			<path style="fill:#231815;" d="M219.696,373.761c0,0,37.394-8.616,41.388-10.782c2.466-1.336,2.018,1.516,0.991,1.833
				c-1.029,0.317-4.064,0-6.12,0.634c-2.057,0.636-4.463,1.586-6.507,1.904c-2.044,0.317-2.382,0.317-4.451,1.268
				c-2.069,0.953-5.854,2.537-7.208,2.537c-1.355,0-3.412,0.634-7.523,1.902c-4.113,1.27-5.152,1.904-8.914,2.854
				c-3.761,0.953-2.456,2.219-5.479,1.585C212.849,376.864,213.88,374.146,219.696,373.761z"/>
			<path style="fill:#231815;" d="M284.569,387.327c6.674,9.913,2.608,35.936-0.908,33.398c-3.514-2.536,1.467-24.52,0.244-27.903
				c-1.224-3.382-2.53-4.65-4.704-6.765C277.025,383.944,283.715,386.058,284.569,387.327z"/>
			<path style="fill:#231815;" d="M285.337,424.109c-0.228,5.919,2.835,8.456,4.575,10.146c1.741,1.692-6.955,14.312-3.931,29.533
				c3.025,15.219,2.802,20.356,2.443,29.658c-0.359,9.301,2.252,11.836,5.847,12.26c3.595,0.424,19.414,0,27.04,1.268
				c7.627,1.268,15.656,3.805,13.899,2.536c-1.758-1.268-1.677-3.38-7.078-3.804c-5.401-0.422-10.368-0.422-15.318-0.846
				c-4.95-0.422-11.705-0.846-16.64-1.692c-4.934-0.846-3.127-0.846-5.238-4.649c-2.11-3.805-0.224-5.919-0.528-9.726
				c-0.304-3.804-0.561-19.932-1.316-23.738c-0.756-3.805,1.381-21.921,1.947-24.882c0.566-2.96,3.405-6.341,1.213-8.033
				c-2.193-1.69-2.53-4.651-3.319-7.609C288.144,421.571,285.337,424.109,285.337,424.109z"/>
			<path style="fill:#231815;" d="M313.102,430.028c-1.066,4.227,0.092,9.302,1.333,12.26c1.24,2.961-11.379,34.668-9.9,43.126
				c-0.581,3.38,2.144,2.958,1.839-0.846c-0.305-3.805,11.155-40.589,10.867-44.816c-0.287-4.227-2.48-5.919-2.382-8.455
				C314.956,428.76,313.102,430.028,313.102,430.028z"/>
			<path style="fill:#231815;" d="M337.234,233.404c1.356-17.608,0.682-35.216-6.741-53.501
				c-7.421-18.285-4.334-15.491-4.334-15.491s-4.276-13.117-0.758-6.83c3.518,6.286,3.557,9.453,4.755,13.516
				c1.197,4.064,5.442,16.931,6.692,19.64c1.25,2.708,1.508,13.545,2.733,16.931c1.224,3.385,0.129,14.221,1.274,19.639
				c1.145,5.418-0.549,14.222-3.882,12.867C333.639,238.822,337.234,233.404,337.234,233.404z"/>
			<path style="fill:#231815;" d="M296.185,168.181c-0.419-2.675-10.89-32.663-10.22-40.339c0.672-7.676,0.899-2.526,2.929,5.282
				c2.028,7.809,7.157,26.69,8.679,32.547c1.521,5.856,1.092,8.923,1.092,8.923S297.288,175.231,296.185,168.181z"/>
			<path style="fill:#231815;" d="M280.453,124.442c1.586-3.477,4.337-11.821,7.048-21.25c0.655-2.279,2.122-2.659,2.756-5.011
				c3.667-13.613,7.96-26.769,7.048-30.728c-1.718-7.471-5.69-20.193-6.706-27.952c-1.017-7.758,1.823-13.08,2.33-11.128
				c0.507,1.952,0.256,4.831-0.024,8.029c-0.28,3.198,3.046,19.422,4.398,23.342c1.351,3.921,2.338,8.145,2.199,9.744
				c-0.141,1.6-14.58,50.915-16.266,54.687C281.548,127.947,279.556,126.408,280.453,124.442z"/>
			<path style="fill:#231815;" d="M259.121,109.18c0.895-10.235,19.286-31.09,22.602-37.994c3.316-6.904,3.939,1.478,2.421,3.331
				c-1.518,1.853-4.611,6.198-6.242,9.33c-1.629,3.132-6.802,8.018-8.657,13.709c-1.854,5.69-8.322,14.282-8.322,14.282
				L259.121,109.18z"/>
			<path style="fill:#231815;" d="M281.131,66.338c-6.67-5.145-5.884-10.245-6.535-18.307c-0.651-8.063,0.276-10.908,0.53-9.932
				c0.253,0.976,1.437,6.816,1.721,11.326c0.283,4.511-0.024,8.029,1.495,10.031c1.521,2.002,2.758,3.347,4.025,4.372
				C283.633,64.856,281.131,66.338,281.131,66.338z"/>
			<path style="fill:#231815;" d="M278.727,40.846c-0.393-3.218-2.706-15.551,1.642-23.904c4.346-8.351,3.745-11.808,3.932-13.94
				c0.186-2.132,1.761-4.624,2.399-1.595c0.64,3.03-0.299,3.412-0.448,5.116c-0.149,1.707-1.308,9.787-4.307,13.066
				c-2.999,3.28-2.02,12.75-1.456,16.632C281.054,40.103,278.992,43,278.727,40.846z"/>
			<path style="fill:#231815;" d="M282.964,33.772c0.261-2.985,1.197-8.506,2.544-13.58c1.349-5.074,5.534-9.637,5.172-12.595
				c-0.264-2.154,2.473-2.449,2.25,0.11c-0.224,2.559-4.872,9.184-5.77,14.279c-0.896,5.095-2.207,9.743-2.395,11.875
				C284.578,35.993,282.779,35.904,282.964,33.772z"/>
			<path style="fill:#231815;" d="M288.4,28.472c0.861-4.669,3.671-10.956,5.356-14.727c1.688-3.771,3.226-0.698,2.14,1.39
				c-1.086,2.088-6.67,14.234-7.005,18.073C288.553,37.045,288.4,28.472,288.4,28.472z"/>
			<path style="fill:#231815;" d="M318.438,151.919c-0.537-8.558-10.701-24.937-11.826-27.561
				c-1.127-2.626-10.604-18.294-12.182-23.511c-1.576-5.217-1.224-9.269-0.264-4.725c0.958,4.544,9.29,17.801,11.71,21.132
				c2.421,3.332,6.475,11.239,6.815,15.111c2.984,4.643,7.489,15.142,9.742,20.392C324.686,158.008,318.721,156.43,318.438,151.919z
				"/>
			<path style="fill:#231815;" d="M273.453,77.12c-3.603-5.317-9.798-19.754-9.35-24.87c0.449-5.118,4.385-11.349,3.881-5.592
				c-0.505,5.757-1.798,5.051-1.516,9.562c0.283,4.511,5.013,12.453,6.138,15.077c1.125,2.625,3.715,4.037,3.491,6.595
				C275.874,80.451,273.453,77.12,273.453,77.12z"/>
			<path style="fill:#231815;" d="M269.521,49.303c-2.56-2.695-1.496-14.849-1.177-23.827c0.32-8.978,2.273-15.308,1.271-19.854
				c-1-4.545,2.714-4.362,2.378-0.525c-0.336,3.839-0.545,11.538-1.048,17.294c-0.505,5.758-2.159,14.027-0.455,21.177
				C272.196,50.718,269.521,49.303,269.521,49.303z"/>
			<path style="fill:#231815;" d="M276.762,8.33c-0.564-1.313,0.711-5.534,1.349-2.504c0.639,3.029-6.14,23.682-5.087,29.73
				c1.052,6.047-1.783-0.301-1.54-3.074c0.243-2.772,1.889-13.826,2.956-15.701C275.508,14.906,276.762,8.33,276.762,8.33z"/>
			<path style="fill:#231815;" d="M269.393,359.422c0.946-6.977,2.373-8.878,8.541-10.78c6.168-1.903,38.387-6.131,43.976-10.57
				c5.589-4.439,4.354-1.69,5.75-2.748c1.395-1.058,2.677,0.844,0.394,1.48c-2.282,0.634-3.218,1.48-4.83,2.324
				c-1.613,0.846-26.254,7.611-33.058,8.458c-6.806,0.846-14.57,3.17-16.24,5.495c-1.669,2.326-1.857,7.187-4.622,8.668
				c-2.766,1.478-3.62,0.21-2.024-0.212C268.875,361.114,269.393,359.422,269.393,359.422z"/>
			<path style="fill:#231815;" d="M276.391,376.969c3.5-2.959,9.323-7.611,10.952-8.878c1.629-1.27,30.467,0.21,36.559-11.416
				c-0.644-0.844-8.912,8.667-21.062,7.611c-4.753-0.414-14.021,1.393-16.46,2.431c-4.476,1.902-12.606,10.78-20.844,13.634
				c-4.717,1.635,3.722,0.105,5.092-0.317C272,379.61,276.391,376.969,276.391,376.969z"/>
			<path style="fill:#231815;" d="M294.95,358.155c2.825,2.744,24.945-2.96,31.753-9.724c-0.903,0,0.275-1.268-2.507,0.636
				c-2.783,1.902-21.57,9.089-28.092,8.455C289.581,356.887,294.297,357.521,294.95,358.155z"/>
			<path style="fill:#231815;" d="M299.612,354.349c2.458,0.635,21.583-3.593,24.583-5.283c-4.306,0.422-21.173,4.649-24.543,4.227
				C296.282,352.87,299.612,354.349,299.612,354.349z"/>
			<path style="fill:#231815;" d="M301.105,350.756c3.128,0.846,22.408-7.399,24.779-10.358c-1.129,0-20.886,8.878-24.738,9.302
				C297.292,350.122,301.105,350.756,301.105,350.756z"/>
			<path style="fill:#231815;" d="M313.761,497.885c5.36,1.264,20.428,2.959,22.653,3.804c2.225,0.846,3.724,2.961,5.214,5.287
				c1.491,2.324,1.022,2.746-0.92,0.422c-1.942-2.326-2.755-4.651-4.56-4.651c-1.806,0-11.247-1.058-14.165-1.48
				c-2.918-0.422-3.829-0.212-7.174-1.268C311.464,498.941,310.183,497.039,313.761,497.885z"/>
			<path style="fill:#231815;" d="M316.319,495.982c6.459,1.747,15.808-0.212,22.122,0c6.314,0.212,10.399,5.497,9.036,5.707
				c-1.363,0.212-4.402-2.958-4.402-2.958s0.904,0-1.546-0.846c-2.452-0.846-3.605-0.212-6.531-0.424
				c-2.927-0.212-13.997,0-17.617,0.212C313.761,497.885,314.754,495.558,316.319,495.982z"/>
			<path style="fill:#231815;" d="M311.272,492.178c4.512,1.713,16.294-1.058,19.68-1.058c3.387,0,9.633,1.902,9.876,1.48
				c0.242-0.422,2.34-2.114-3.296-2.326c-5.636-0.212-8.329-0.635-11.28-0.212c-2.949,0.424-14.052,1.481-16.971,1.058
				c-2.918-0.424-1.884-3.805-3.537-1.904C304.089,491.121,310.16,491.754,311.272,492.178z"/>
		</g>
		<path style="fill:#231815;" d="M229.465,190.963c0.108-2.806-1.123-6.713,0.312-8.094c1.434-1.382,2.741,0.592,4.281,1.579
			c1.542,0.987-1.465,2.172-1.89,2.962c-0.425,0.789,1.914,1.578,0.683,2.763C231.621,191.357,229.45,191.357,229.465,190.963z"/>
		<path style="fill:#231815;" d="M233.11,178.328c-2.581,0.395-1.109-1.974-0.264-3.357c0.842-1.381,2.467-2.566,2.467-2.566
			s0.319,1.974,1.07,2.961c0.752,0.987-0.661,1.777-1.45,1.777c-0.79,0,1.077,2.764,0.098,2.567
			C234.053,179.512,233.11,178.328,233.11,178.328z"/>
		<path style="fill:#231815;" d="M234.532,161.942c-0.714-1.974,2.432-4.514,2.894-3.356c1.259,3.159,1.973,5.133,0.591,5.133
			c-1.381,0-1.8,0.592-2.794,0.789C234.228,164.706,234.532,161.942,234.532,161.942z"/>
		<path style="fill:#231815;" d="M241.307,150.097c1.896,0.479,1.785-5.331,3.713-4.146c1.928,1.185,1.062,3.159,0.614,4.54
			c-0.447,1.382,4.162-0.395,4.511,0.79c0.349,1.184-1.26,1.974-2.849,2.171c-1.586,0.199-1.746-0.789-3.545-0.197
			c-1.8,0.592-0.417,0.592-2.802,0.988C238.565,154.637,240.525,149.899,241.307,150.097z"/>
		<path style="fill:#231815;" d="M320.47,160.362c1.085,2.567,2.567,5.133,0.782,5.33c-1.785,0.199-1.746-0.789-4.29-1.381
			c-2.543-0.592-5.157,0.592-4.883-1.382c0.275-1.974,1.155-4.343,2.537-4.343c1.382,0,1.974,0,3.789-0.988
			c1.814-0.986,2.717-3.948,3.827-1.974C323.341,157.598,320.47,160.362,320.47,160.362z"/>
		<path style="fill:#231815;" d="M309.797,140.226c0.607-0.394,2.954,0.198,3.492,1.579c0.539,1.382,0.714,1.975-0.881,2.369
			c-1.595,0.395-2.286,2.962-2.802,0.987c-0.516-1.974-0.471-3.159-0.471-3.159L309.797,140.226z"/>
		<path style="fill:#231815;" d="M312.604,149.307c1.788,0,2.477,2.369,0.866,3.159C311.86,153.256,311.222,149.307,312.604,149.307
			z"/>
		<path style="fill:#231815;" d="M307.268,134.106c-2.528-0.988-1.518,3.553-0.524,3.356
			C307.739,137.264,307.268,134.106,307.268,134.106z"/>
		<path style="fill:#231815;" d="M330.174,241.503c2.263,2.763,1.153,11.055-0.684,7.5c-1.838-3.553-4.008-8.687-2.748-10.66
			C328.002,236.369,330.174,241.503,330.174,241.503z"/>
		<path style="fill:#231815;" d="M238.8,235.579c1.29-2.763,4.449-2.763,4.783-1.184c0.335,1.579,0.593,5.132-3.356,5.132
			C236.278,239.527,238.8,235.579,238.8,235.579z"/>
		<path style="fill:#231815;" d="M234.561,253.347c2.278,2.369-1.002,5.527-3.448,7.502c-2.445,1.974-2.809,1.185-2.748-0.395
			c0.061-1.579,1.778-5.133,3.402-6.318C233.391,252.952,234.561,253.347,234.561,253.347z"/>
		<path style="fill:#231815;" d="M221.832,286.513c2.204-4.718,3.766-5.529,3.629-1.975c-0.137,3.555-1.442,6.713-2.294,8.293
			C222.316,294.411,219.25,292.04,221.832,286.513z"/>
		<path style="fill:#231815;" d="M328.393,277.431c-2.127,3.949-2.249,7.107,0.074,8.291c2.324,1.186,0.138-3.553,1.839-6.711
			C332.008,275.853,328.393,277.431,328.393,277.431z"/>
		<path style="fill:#231815;" d="M331.782,261.244c-2.84,1.974-4.116,4.343-0.609,5.528c3.508,1.185,2.764,0,2.917-3.949
			C334.242,258.875,331.782,261.244,331.782,261.244z"/>
		<path style="fill:#231815;" d="M217.436,349.293c-2.87,2.764,2.187,4.738,2.537,5.922c0.348,1.184,0.683,2.764-0.199,5.133
			c-0.881,2.369,1.715,6.713-0.973,4.738c-2.688-1.975-3.006-3.947-4.495-6.318c-1.486-2.369-5.42-2.764-5.42-2.764
			s-1.945-0.789,2.11-3.553C215.052,349.688,217.436,349.293,217.436,349.293z"/>
		<path style="fill:#231815;" d="M203.237,359.164c2.794-0.791,1.139,1.184,1.063,3.16c-0.076,1.972,2.551,5.527-0.168,4.342
			c-2.718-1.184-0.683-2.764-3.827-3.158C197.162,363.111,203.237,359.164,203.237,359.164z"/>
		<path style="fill:#231815;" d="M194.488,371.009c-1.533-1.185-1.897-1.974,1.306-3.158c3.205-1.184,3.099,1.58,2.233,3.553
			C197.161,373.377,194.488,371.009,194.488,371.009z"/>
		<path style="fill:#231815;" d="M327.275,367.85c-4.116,3.325-3.341,4.738-9.734,6.711c-6.394,1.975-12.68,1.185-8.398,2.764
			c4.281,1.58,2.673,2.369,8.2,2.369c5.528,0,6.24,1.975,6.24,1.975s0.775,0.394,3.281-3.16
			C329.371,374.957,329.721,365.877,327.275,367.85z"/>
		<path style="fill:#231815;" d="M316.947,389.961c0.44-1.185,4.332-4.531,6.029-2.764c1.898,1.974,5.633,7.502,1.32,6.711
			C319.984,393.119,316.947,389.961,316.947,389.961z"/>
		<path style="fill:#231815;" d="M314.198,399.832c2.494-2.402,2.171-5.133,4.464-3.158c2.294,1.974,2.294,1.974,2.294,1.974
			s-1.292,2.764-2.902,3.553C316.445,402.99,312.967,401.017,314.198,399.832z"/>
	</g>
</g>
</svg>
