<?xml version="1.0" encoding="iso-8859-1"?>
<!-- Generator: Adobe Illustrator 21.1.0, SVG Export Plug-In . SVG Version: 6.00 Build 0)  -->
<svg version="1.1" id="_x32_" xmlns="http://www.w3.org/2000/svg" xmlns:xlink="http://www.w3.org/1999/xlink" x="0px" y="0px"
	 viewBox="0 0 512 512" style="enable-background:new 0 0 512 512;" xml:space="preserve">
<g>
	<g>
		<path style="fill:#FFFFFF;" d="M329.968,428.681c-0.726-0.062-1.478-0.169-2.243-0.3c0.042-0.156,0.064-0.245,0.064-0.245
			s-2.723-3.812-8.713-5.99c-17.971-8.169-40.843-44.655-40.843-44.655s17.971-24.506,21.783-28.318
			c3.812-3.812,20.149-34.852,20.149-34.852s9.802,1.634,11.436-3.812c17.971-33.763-5.99-84.408-5.99-84.408
			s28.862,29.951,28.862,38.664c2.223-0.131,5.202-1.303,8.441-3.001l-3.54,2.456c0,0,1.634,7.08,7.079,5.446
			c0.484-0.145,1.099-0.372,1.807-0.661c0.5,2.045,0.856,4.287,0.916,6.651c0.244,9.714,4.356,15.248,4.356,15.248
			s-3.267,2.178-4.356,7.624c-1.089,5.446,16.882,8.168,23.961,5.446c7.079-2.723,11.98-21.783,8.713-29.407
			c-2.251-5.253-5.054-11.813-9.23-18.938c0.337-0.298,0.52-0.526,0.517-0.666c-0.032-1.501-7.079-9.258-7.079-9.258
			s-2.178-3.812-5.446-9.802c-1.459-2.676-18.673-27.516-38.1-54.815c-16.03-23.956-31.125-46.334-34.872-50.831
			c-8.168-9.802-35.397-43.021-53.912-65.348c-18.515-22.327-34.308-25.595-49.011-31.04c-14.704-5.446-9.258-10.347-12.525-17.426
			c-3.267-7.08-10.347-8.713-15.793-5.99c-5.446,2.723-10.346,19.06-11.436,21.238c-1.089,2.178-13.07-0.544-20.149-5.446
			c-7.079-4.901-9.258-25.595-21.238-24.506c-11.98,1.089-13.07,16.882-14.703,24.506c-1.634,7.624-6.535,17.426-13.614,17.971
			c-7.079,0.544-30.496,8.713-26.139,17.426c4.356,8.713,12.525,11.981,26.139,12.525l3.486,1.135
			c0.605,0.725,1.836,1.749,4.138,3.221c8.492,5.434,21.783,24.505,26.139,33.219c4.356,8.713,8.168,25.05,8.168,25.05
			s0,0-2.178,4.901c0.03,0.652,0.085,1.334,0.151,2.027c-1.219-1.001-2.049-1.553-2.329-1.482
			c-2.178,0.545-9.258,51.734-9.258,51.734l-21.238,47.922l-16.882,32.129c-1.514-2.524-7.705,8.984-8.601,10.678
			c-0.772,0.586-1.544,1.054-2.29,1.302c-4.901,1.634-19.06,7.079-20.149,15.793c-1.089,8.713,1.634,23.961,14.159,27.773
			c12.525,3.812,17.426-5.446,17.971-11.436c11.98-0.544,14.703-15.792,14.703-15.792l2.415-2.812
			c0.928,0.397,1.615,0.633,1.942,0.633c2.178,0,7.624-5.99,7.624-5.99c5.99-2.723,23.416-27.228,23.416-27.228l16.851,27.611
			c0,0,0,0,0.575,13.232c2.637,27.424,32.343,76.298,41.139,84.796c-4.939,10.314-11.811,24.251-18.847,37.198
			c-5.092,7.678-9.645,13.872-11.401,15.238c0.414,0.782,0.863,1.523,1.326,2.246c-0.445,0.716-0.888,1.424-1.326,2.111
			c-16.337,25.595-46.833,30.496-62.081,35.397c-15.248,4.901,13.07,4.901,34.308,3.268c21.238-1.634-57.18,10.891-38.12,15.248
			c19.06,4.356,48.467-12.525,49.011-9.258c0.545,3.268-14.703,16.882-14.703,17.971c45.744-7.624,64.888-44.566,65.893-46.833
			c0,0,25.05-20.694,45.744-47.377c8.713,17.426,59.358,33.219,59.358,33.219s6.535,1.634,12.525-1.089
			c0.058-0.026,0.114-0.064,0.172-0.093c8.719,3.411,29.157,11.637,34.68,15.885c7.079,5.446,4.356,18.516,1.089,25.05
			c11.981-1.089,11.981-18.515,12.525-11.98c0.544,6.535-3.812,13.07-4.901,17.971c10.347-1.089,14.704-21.783,14.704-19.604
			c0,2.178-2.723,15.792,0,18.516c6.535-4.901,15.42-18.108,11.436-34.308C382.619,445.155,355.563,430.859,329.968,428.681z"/>
		<path style="fill:#FFFFFF;" d="M440.515,314.322c-13.07-1.089-95.844,4.901-95.844,4.901l-2.178,0.544
			c-8.169,1.634-16.337,7.624-14.159,9.258c0.503,0.377,1.446,2.687,2.593,5.996c-1.386-1.811-2.485-3.11-3.137-3.273
			c-2.178-0.545-5.446-1.089-4.901,4.357c0.544,5.446,1.87,27.399,3.812,32.13c0,0,0,10.891,1.634,21.783
			c1.634,10.892,7.624,17.426,20.693,21.783c13.07,4.357,84.953-5.446,84.953-5.446s20.149-2.723,20.694-5.99
			c0.441-2.649-0.191-39.302-0.446-53.079c1.661-2.138,2.813-3.944,3.169-5.19C459.575,334.471,453.585,315.411,440.515,314.322z"/>
	</g>
	<g>
		<path d="M108.227,18.341c1.792-5.457,3.214-11.987,7.906-15.791c4.114-3.335,10.356-3.303,14.737-0.465
			c4.702,3.045,6.699,8.571,8.646,13.551c0.387,0.989,5.791,11.896,6.395,11.294c-0.883,0.88-5.9-3.472-6.448-4.069
			c-2.08-2.265-3.361-5.098-4.65-7.849c-2.347-5.011-6.042-12.161-12.919-9.875c-3.759,1.25-5.929,4.914-7.287,8.369
			c-1.279,3.25-1.959,6.699-3.173,9.973c-0.216,0.581-3.957,8.54-5.09,6.979c-0.534-0.735,1.209-5.265,1.353-6.235
			C107.983,22.276,108.105,20.302,108.227,18.341z"/>
		<path d="M187.069,10.179c-4.079-2.32-9.718-2.137-13.656,0.393c-4.329,2.781-6.009,7.768-8.135,12.197
			c-1.129,2.352-6.658,15.281,1.075,13.001c5.337-1.573,3.967-11.65,5.133-15.645c1.793-6.144,7.529-10.873,14.011-7.277
			c6.464,3.587,8.23,11.871,11.815,17.687c0.891,1.444,4.041,4.764,5.711,2.05c1.397-2.271-2.444-6.049-3.472-7.542
			C195.926,19.775,192.873,13.409,187.069,10.179z"/>
		<path d="M85.384,50.215c1.66-0.469,11.521-2.241,11.126-5.096c-0.564-4.08-12.599-1.244-14.457-0.696
			c-9.882,2.912-25.087,14.256-12.864,24.395c9.54,7.913,25.237,6.665,36.786,8.046c13.209,1.579,26.326,6.271,38.46,11.592
			c12.264,5.379,23.88,12.113,35.223,19.2c3.836,2.396,8.181,6.09,12.751,6.768c4.596,0.682,2.021-2.764,0.061-4.674
			c-8.357-8.14-20.173-12.608-30.542-17.409c-11.13-5.153-22.173-10.43-33.9-14.111c-7.062-2.217-14.277-4.014-21.629-4.924
			c-6.952-0.86-13.973-1.271-20.822-2.825c-4.561-1.035-15.745-3.741-15.084-10.267C71.066,54.557,80.973,51.491,85.384,50.215z"/>
		<path d="M104.454,76.984c7.839,6.666,14.998,14.375,20.382,23.176c2.558,4.181,4.771,8.663,5.962,13.438
			c0.417,1.669,0.75,3.401,0.84,5.123c0.027,0.522-0.342,3.658-0.355,3.645c-0.755-0.761-1.307-3.159-1.816-4.159
			c-1.686-3.313-3.322-6.657-5.029-9.958c-3.291-6.362-7.66-11.315-12.368-16.581c-4.786-5.352-9.236-10.029-14.917-14.543
			c-1.296-1.03-5.321-3.437-2.761-4.036C96.805,72.526,102.245,75.874,104.454,76.984z"/>
		<path d="M235.641,43.788c14.819,12.483,28.335,26.374,40.372,41.561c5.755,7.26,11.189,14.797,16.004,22.717
			c0.689,1.133,8.249,16.154,8.033,16.165c-0.561,0.031-3.79-4.629-4.233-5.136c-1.785-2.042-3.551-4.097-5.265-6.199
			c-4.913-6.025-9.351-12.403-14.138-18.525c-7.861-10.052-17.084-18.591-25.414-28.159c-8.762-10.064-19.073-18.108-29.307-26.596
			c-1.586-1.315-9.635-8.404-2.933-5.211C224.555,37.169,230.101,40.555,235.641,43.788z"/>
		<path d="M129.123,170.705c-2.522,12.348-1.956,26.065-1.572,38.603c0.41,13.378,1.459,27.182,4.681,40.206
			c2.986,12.068,8.482,23.57,14.531,34.384c2.049,3.664,4.224,7.289,6.735,10.658c2.303,3.09,5.5,5.039,7.955,7.803
			c-0.514-0.579-2.92-1.227-3.746-1.736c-2.388-1.47-4.493-3.358-6.425-5.378c-3.29-3.439-6.103-7.317-8.638-11.336
			c-7.102-11.259-12.605-23.796-15.557-36.786c-5.155-22.681-4.704-45.161-3.564-68.189c0.36-7.269,2.134-14.199,3.947-21.214
			c0.857-3.315,1.752-6.622,2.434-9.979c0.15-0.736,1.507-7.555,1.462-7.582c2.839,1.753,0.178,13.403-0.176,15.827
			C130.474,160.889,129.636,165.773,129.123,170.705z"/>
		<path d="M305.377,120.912c-1.423-1.879-7.341-8.733-10.419-6.436c-2.568,1.917,2.683,8.583,3.774,10.201
			c5.864,8.698,11.852,17.327,18.169,25.703c6.947,9.211,14.717,17.732,21.675,26.925c6.821,9.012,13.036,18.454,19.231,27.9
			c2.911,4.439,5.817,8.882,8.796,13.277c2.661,3.926,5.438,9.213,9.665,11.683c6.051,3.535,2.601-5.056,1.343-7.36
			c-4.504-8.251-11.125-15.084-17.055-22.286c-4.783-5.81-9.006-12.015-13.418-18.102c-6.842-9.438-15.105-17.85-21.476-27.609
			C318.459,143.774,313.297,131.493,305.377,120.912z"/>
		<path d="M184.403,116.074c-4.487-4.01-5.138-0.62-1.585,2.688c3.716,3.459,9.239,5.617,14.331,4.803
			c4.518-0.722,9.04-3.932,9.282-8.818c0.251-5.066-3.599-9.665-7.31-12.653c-1.311-1.056-3.655-3.151-5.423-3.17
			c-2.361-0.025-1.86,0.782-0.483,2.235c3.419,3.609,8.779,4.85,10.884,9.804c1.891,4.45-0.228,8.965-4.839,10.469
			C193.774,123.223,188.335,119.55,184.403,116.074z"/>
		<path d="M120.167,33.678c1.329,1.031,15.613,7.27,14.463,9.502c-0.516,1.001-11.079-3.864-12.311-4.572
			c-1.485-0.853-5.571-2.977-5.792-4.638C116.213,31.615,118.457,33.434,120.167,33.678z"/>
		<path d="M174.637,44.552c1.323,0.353,19.488,3.325,18.226,5.191c-0.882,1.303-12.202-0.93-14.127-1.281
			c-1.795-0.327-6.773-0.8-7.78-2.354C169.745,44.241,173.119,44.848,174.637,44.552z"/>
		<path d="M272.398,133.632c-18.418,17.918-40.872,29.702-61.484,44.689c-17.243,12.538-33.621,26.259-50.998,38.61
			c-0.219-0.316-0.528-1.119-0.584-1.499c1.076,0.077,2.27-1.466,2.633-2.405c-0.586,1.518-0.945,3.037-2.564,3.293
			c15.488-14.909,32.021-28.334,49.263-41.184c18.092-13.484,38.499-23.983,55.336-39.093c5.366-4.815,10.513-9.993,14.856-15.764
			c1.935-2.572,3.707-5.265,5.142-8.15c0.357-0.717,2.866-5.853,2.789-5.952c2.086,2.938-3.364,11.849-4.723,14.203
			C279.314,125.139,275.927,129.439,272.398,133.632z"/>
		<path d="M139.725,150.784c1.944,11.974,5.202,23.764,8.725,35.358c0.574,1.889,9.12,28.986,10.649,28.436
			c-1.219,0.439-5.573-6.126-6.173-7.077c-2.261-3.587-3.797-7.542-5.212-11.52c-2.646-7.44-5.043-14.969-7.439-22.492
			c-1.687-5.296-2.325-10.995-3.415-16.443c-0.827-4.132-1.673-8.266-2.061-12.467c-0.037-0.401-0.443-8.02,0.574-7.654
			c1.124,0.405,2.143,7.202,2.528,8.43C138.472,147.175,139.082,148.986,139.725,150.784z"/>
		<path d="M299.736,202.956c13.697,9.025,26.341,19.824,37.141,32.174c4.781,5.467,9.954,11.017,13.449,17.415
			c0.815,1.493,8.961,16.625,9.426,16.172c-2.272,2.219-14.849-17.419-16.103-18.983c-6.474-8.074-13.58-16.025-21.452-22.758
			c-5.935-5.076-11.529-10.61-17.823-15.249c-4.073-3.002-8.382-6.007-12.854-8.389c-1.823-0.971-3.1-1.519-5.175-1.394
			c0.098-0.006-6.211,0.859-5.715-0.241c0.669-1.747,7.908-2.655,9.324-2.47C293.318,199.672,296.695,201.54,299.736,202.956z"/>
		<path d="M293.868,360.962c-9.12,10.275-18.573,20.147-27.168,30.883c-8.776,10.961-17.436,22.016-26.277,32.926
			c-8.368,10.326-16.774,20.717-26.337,29.973c-4.088,3.957-8.316,7.768-12.575,11.539c-2.028,1.796-4.051,3.602-6.112,5.36
			c-0.181,0.154-3.205,2.265-3.202,2.505c-0.011-0.689,2.257-2.635,2.628-3.071c1.838-2.16,3.623-4.365,5.477-6.512
			c4.203-4.871,8.606-9.562,12.941-14.315c9.48-10.396,18.306-21.374,26.975-32.45c7.543-9.638,14.535-19.828,22.446-29.164
			c7.591-8.959,15.751-17.405,23.617-26.116c5.146-5.7,9.861-11.398,13.926-17.931c1.695-2.723,3.371-5.482,5.358-8.007
			c0.36-0.457,4.601-4.508,4.623-4.115c0.194,1.368-2.262,3.883-2.901,4.971c-1.654,2.816-3.029,5.788-4.457,8.721
			C300.262,351.43,297.316,356.228,293.868,360.962z"/>
		<path d="M209.033,329.189c9.234,10.113,3.419,24.215-0.506,35.522c-5.921,17.056-11.097,33.742-20.038,49.568
			c-4.488,7.943-9.639,15.477-14.194,23.376c-4.169,7.229-8.868,13.642-14.896,19.442c-9.938,9.563-21.739,16.678-34.862,20.834
			c-8.66,2.743-17.283,5.609-26.305,6.891c-3.8,0.54-7.642,0.898-11.481,0.94c-2.068,0.023-6.682,0.576-8.551-0.711
			c-2.128-1.465,0.603-1.392,2.408-1.531c3.424-0.264,6.846-0.277,10.269-0.649c8.245-0.897,16.049-2.934,23.9-5.538
			c6.756-2.241,13.681-3.958,20.162-6.969c5.782-2.686,11.478-7.045,16.407-11.119c11.571-9.563,18.179-21.831,25.83-34.482
			c10.239-16.93,18.09-34.274,23.053-53.447c2.084-8.05,5.705-16.637,4.869-25.021c-0.408-4.095,0.454-7.893,0.765-11.952
			C205.985,332.756,205.839,325.595,209.033,329.189z"/>
		<path d="M138.71,484.455c-10.508,4.415-21.227,8.266-32.427,10.514c-5.188,1.041-10.462,1.739-15.754,1.915
			c-1.964,0.065-3.934,0.064-5.896-0.054c-0.932-0.056-3.685-0.918-4.269-0.617c1.047-0.541,3.075-0.518,4.24-0.755
			c3.011-0.613,6.026-1.181,9.065-1.642c8-1.216,15.892-2.607,23.553-5.292c4.834-1.694,9.804-2.966,14.577-4.84
			c0.897-0.352,17.451-7.17,17.491-6.654C149.417,478.673,140.181,483.498,138.71,484.455z"/>
		<path d="M149.089,493.325c-9.388,5.018-19.024,10.471-29.527,12.704c-5.112,1.087-10.33,1.575-15.519,2.14
			c-1.535,0.167-8.649,0.013-9.665,0.965c3.401-3.186,11.242-3.985,15.568-4.681c7.269-1.169,13.901-2.715,20.54-5.971
			c4.329-2.123,8.838-3.761,13.113-6.022c0.709-0.375,14.585-7.986,14.728-7.457C158.768,486.629,150.384,492.278,149.089,493.325z"
			/>
		<path d="M192.559,477.851c-7.64,8.504-15.001,18.14-24.924,24.11c-4.696,2.825-9.845,4.757-15.003,6.55
			c-1.215,0.422-9.366,2.217-9.745,2.944c1.049-2.009,5.054-4.094,6.963-5.275c3.833-2.37,8.074-3.907,12.04-6.018
			c7.296-3.884,11.929-9.977,17.907-15.404c5.38-4.883,9.538-10.889,14.741-15.935c1.188-1.152,4.126-4.408,3.73-1.389
			C197.858,470.554,194.096,475.035,192.559,477.851z"/>
		<path d="M157.109,313.243c1.052,7.684,2.667,15.134,5.834,22.255c3.276,7.364,7.56,14.345,11.207,21.539
			c3.454,6.813,6.883,13.639,10.348,20.447c0.728,1.43,6.924,11.326,6.094,12.548c0.157-0.231-5.61-6.308-5.97-6.751
			c-2.856-3.52-5.314-7.34-7.533-11.288c-5.308-9.441-10.037-19.172-15.642-28.451c-4.205-6.961-6.256-14.711-7.777-22.664
			c-0.928-4.853-1.823-9.878-1.947-14.829c-0.055-2.183-0.026-4.484,0.582-6.599c0.013-0.045,2.266-4.876,2.752-3.519
			c0.271,0.805-0.601,2.673-0.667,3.535c-0.144,1.872,0.188,3.796,0.54,5.626C155.459,307.849,156.252,310.571,157.109,313.243z"/>
		<path d="M256.509,426.809c8.939,7.29,19.615,12.525,30.393,16.487c5.058,1.859,10.216,3.313,15.44,4.617
			c2.368,0.591,4.751,1.104,7.138,1.616c0.817,0.175,4.406,1.492,4.751,1.295c-2.003,1.142-6.877,0.904-9.086,0.891
			c-4.074-0.023-8.025-0.822-11.942-1.879c-7.29-1.967-14.445-4.52-21.389-7.487c-4.848-2.071-9.225-5.543-13.525-8.557
			c-3.373-2.364-6.718-4.801-9.63-7.73c-0.764-0.769-4.865-4.55-4.229-6.06C244.459,419.935,255.381,426.212,256.509,426.809z"/>
		<path d="M286.539,386.251c-0.82-1.315-6.834-12.32-8.57-11.167c-3.136,2.083,2.753,12.288,3.814,14.097
			c6.43,10.96,15.51,18.415,25.043,26.474c4.667,3.945,9.149,8.207,14.722,10.872c5.805,2.776,12.443,3.511,18.67,4.919
			c12.135,2.744,25.395,6.121,34.695,14.931c9.777,9.26,13.528,23.774,9.208,36.573c-0.663,1.963-1.621,3.686-2.437,5.57
			c-0.87,2.007-1.842,3.61,1.041,2.831c4.949-1.336,7.258-9.549,7.863-13.795c3.276-23.009-16.014-39.004-35.862-45.196
			c-12.731-3.971-27.7-3.796-38.181-12.809C305.299,409.88,294.359,398.919,286.539,386.251z"/>
		<path d="M329.484,454.366c10.083,3.268,23.551,5.835,27.311,17.32c1.593,4.864,1.116,10.731-2.032,14.89
			c-1.18,1.559-2.732,2.823-4.509,3.642c-0.225,0.104-5.706,1.633-5.561,0.768c0.048-0.286,4.218-2.577,4.925-3.355
			c1.888-2.08,3.171-4.766,3.62-7.543c1.108-6.848-2.666-12.021-8.558-14.849c-4.037-1.937-7.911-3.901-12.221-5.211
			c-0.459-0.14-16.14-4.525-14.878-6.317C318.33,452.649,327.887,454.285,329.484,454.366z"/>
		<path d="M364.869,469.153c2.439,5.598,3.482,12.257,1.515,18.158c-0.921,2.762-2.645,5.401-5.035,7.113
			c-0.859,0.615-3.985,2.571-5.101,1.826c0.743,0.496,5.745-6.94,6.056-7.536c1.962-3.77,1.562-7.789,1.15-11.849
			c-0.392-3.865-2.814-6.617-3.644-10.201C358.809,462.342,363.535,467.681,364.869,469.153z"/>
		<path d="M375.156,469.364c1.706,6.396,2.403,12.312-0.579,18.51c-1.247,2.592-2.995,4.911-5.094,6.877
			c-0.921,0.862-4.318,4.107-5.775,3.733c0.164,0.042,4.335-6.38,4.747-6.933c2.586-3.472,4.164-6.768,4.494-11.108
			c0.201-2.642,0.402-4.914-0.266-7.521c-0.408-1.593-3.431-8.362-1.131-9.61C371.657,463.254,374.706,468.687,375.156,469.364z"/>
		<path d="M318.431,446.739c3.451-2.99,4.915-7.515,6.356-11.685c0.199-0.576,2.811-8.221,3.954-7.579
			c1.123,0.631,0.914,5.193,0.783,6.167c-0.428,3.194-1.343,8.249-3.064,11.055c-1.333,2.174-4.165,5.312-6.277,6.56
			c-1.113,0.657-2.951,1.577-3.443,0.1C316.454,450.499,318.189,447.787,318.431,446.739z"/>
		<path d="M173.102,452.696c4.093,4.579,10.831,6.892,16.501,8.725c2.735,0.885,5.513,1.698,8.323,2.308
			c0.45,0.098,5.262,0.609,5.35,0.821c0.324,0.786-3.893,2.294-4.667,2.45c-2.303,0.464-4.608-0.001-6.858-0.492
			c-4.313-0.941-9.712-1.975-13.63-4.107c-3.587-1.951-8.851-5.742-10.481-9.489c-0.532-1.225-1.447-4.928,0.828-4.641
			c-0.179-0.023,1.744,2.733,1.717,2.707C170.976,451.744,172.093,452.313,173.102,452.696z"/>
		<path d="M126.789,189.433c-5.345,18.023-13.426,34.465-22.58,50.836c-4.403,7.875-9.075,15.715-14.751,22.751
			c-1.931,2.394-3.982,4.744-6.303,6.772c-1.144,0.999-2.356,1.968-3.701,2.684c-0.149,0.079-3.426,1.243-3.351,1.005
			c0.202-0.643,3.978-3.005,4.636-3.798c1.548-1.865,2.884-3.931,4.21-5.957c3.31-5.055,6.503-10.207,9.592-15.399
			c5.668-9.527,10.644-19.419,15.334-29.458c3.995-8.55,8.263-16.664,11.023-25.747c1.601-5.268,2.978-10.606,4.41-15.922
			c0.154-0.572,2.716-9.507,3.305-9.056c1.45,1.108-0.434,10.018-0.619,11.748C127.652,183.08,127.26,186.263,126.789,189.433z"/>
		<path d="M81.668,285.802c4.445,3.81,9.383,7.118,14.499,9.954c2.637,1.462,5.376,2.859,8.245,3.811
			c1.428,0.474,4.858,0.458,5.967,1.248c0.053,0.038-4.841,1.714-5.887,1.672c-3.333-0.134-6.607-1.873-9.555-3.307
			c-3.135-1.525-6.445-3.01-9.149-5.216c-1.823-1.487-3.608-3.019-5.45-4.49c-1.443-1.153-5.229-3.49-5.556-5.443
			C74.345,281.422,80.221,285.211,81.668,285.802z"/>
		<path d="M133.104,277.538c-4.763,6.54-10.014,12.769-16.156,18.064c-0.517,0.446-15.496,11.169-16.137,9.035
			c-0.037-0.125,2.551-2.805,2.708-2.981c2.179-2.436,4.679-4.395,7.186-6.478c4.4-3.656,7.506-8.073,11.451-12.07
			c3.652-3.701,6.48-7.626,9.63-11.788c1.016-1.342,3.028-4.583,3.478-1.669C135.596,271.803,133.712,275.528,133.104,277.538z"/>
		<path d="M88.177,274.996c3.887,3.729,8.49,6.776,13.138,9.466c2.111,1.221,4.275,2.369,6.493,3.383
			c1.033,0.473,4.542,1.301,5.126,2.278c0.066,0.111-4.468,0.707-4.824,0.679c-3.023-0.238-5.812-1.838-8.463-3.184
			c-2.889-1.466-5.917-2.839-8.384-4.937c-2.321-1.975-8.977-6.145-9.25-9.356C81.793,270.753,86.81,274.425,88.177,274.996z"/>
		<path d="M360.4,259.899c5.343-2.125,10.387-4.833,15.254-7.883c2.085-1.307,9.579-7.817,12.284-6.957
			c0.638,0.203-7.926,8.266-8.218,8.473c-3.191,2.267-6.502,5.046-10.096,6.653c-3.534,1.581-7.605,3.573-11.328,4.504
			C352.371,266.172,358.375,261.709,360.4,259.899z"/>
		<path d="M335.551,239.077c5.251,13.559,7.886,28.41,6.797,42.944c-0.517,6.911-1.958,13.69-4.462,20.156
			c-0.516,1.331-5.058,12.609-7.111,12.205c0.936,0.184,5.666-21.42,6.03-23.467c1.463-8.207,1.658-16.711,0.272-24.944
			c-0.944-5.608-1.434-11.315-2.982-16.807c-1.292-4.582-3.059-9.021-4.931-13.393c-0.726-1.697-4.751-8.42-3.693-10.116
			C325.801,225.127,334.737,237.772,335.551,239.077z"/>
		<path d="M368.933,265.944c2.184,0.083,15.926-9.53,16.879-8.405c1.869,2.209-10.013,9.905-11.881,10.582
			c-1.962,0.71-6.652,2.563-7.875-0.214c-0.352-0.846-0.288-1.634,0.192-2.364c0.566-0.579,0.942-0.506,1.125,0.222
			C366.301,265.893,369.883,266.838,368.933,265.944z"/>
		<path d="M370.348,281.152c-0.968,2.741,0.172,5.525,2.264,7.357c0.753,0.659,5.084,3.429,5.93,3.429
			c-1.018-0.011-2.026,0.93-3.152,0.959c-1.683,0.043-3.378-0.823-4.72-1.759c-2.139-1.492-3.738-3.44-4.073-6.002
			c-0.249-1.911-0.051-5.85,1.595-7.128C370.857,275.941,369.76,279.199,370.348,281.152z"/>
		<path d="M400.753,267.229c3.917,12.954,7.555,34.717-9.42,39.799c-6.612,1.979-15.153,0.912-20.654-3.427
			c-2.249-1.774-4.364-4.535-3.294-7.564c0.566-1.602,5.302-3.884,5.33-4.133c-0.094,0.834-2.936,2.182-3.433,3.412
			c-0.826,2.046-0.21,3.573,1.382,5.086c2.82,2.678,7.477,3.836,11.21,4.241c8.752,0.949,16.684-3.252,17.984-12.376
			c1.033-7.251,0.419-14.47-1.586-21.498c-0.269-0.943-5.955-17.506-6.8-17.306C394.401,252.901,399.787,265.118,400.753,267.229z"
			/>
		<path d="M61.013,295.012c-4.492,3.816-5.756,11.016-5.236,16.573c0.255,2.723,0.944,5.588,2.639,7.8
			c1.151,1.501,3.798,2.22,4.712,3.574c-0.125-0.186-3.842-0.147-4.323-0.328c-2.119-0.793-3.616-2.567-4.605-4.541
			c-1.975-3.943-2.173-8.863-1.787-13.176c0.333-3.721,2.013-7.084,4.25-10.066c1.186-1.582,7.248-7.539,9.762-4.593
			C66.127,289.908,61.521,294.116,61.013,295.012z"/>
		<path d="M70.718,305.499c-0.743,3.059,4.226,4.856,6.393,4.329c3.404-0.828,3.645-4.498,5.82-6.577
			c0.081-0.078,0.566,2.664,0.542,3.104c-0.102,1.84-0.942,3.5-2.265,4.774c-2.258,2.174-6.112,2.949-9.047,1.725
			c-2.111-0.881-3.895-3.035-4.541-5.247c-0.469-1.608-0.424-3.328,0.597-4.731c0.299-0.411,2.788-2.741,3.35-1.477
			C71.99,302.349,70.074,304.002,70.718,305.499z"/>
		<path d="M87.039,320.587c0.239,6.752-3.156,11.999-10.122,12.93c-3.517,0.47-7.289-0.22-10.451-1.802
			c-1.193-0.597-5.412-2.89-5.193-4.621c-0.221,1.74,13.897,3.365,15.322,3.074c6.277-1.284,7.293-6.206,6.808-11.783
			c0.451,0.259,1.069,0.68,1.433,1.05c-1.402-0.014-2.53-0.407-3.1-1.751c-0.104-0.246-0.437-1.765,0.083-1.816
			c1.452-0.144,2.3,2.541,3.568-0.162C85.93,317.336,86.511,318.953,87.039,320.587z"/>
		<path d="M92.215,316.547c1.683-1.68,3.495-3.273,4.807-5.281c1.059-1.622,1.38-3.827,2.473-5.352
			c0.957-1.335,0.357-1.563,1.377-0.67c1.37,1.199,0.608,3.938,0.157,5.283c-1.011,3.016-2.481,4.864-4.798,6.799
			c-0.518,0.432-2.859,3.662-3.841,3.462C91.205,320.545,92.014,317.297,92.215,316.547z"/>
		<path d="M142.079,139.155c4.539,3.63,8.992,7.371,13.683,10.806c2.282,1.671,4.627,3.245,7.036,4.727
			c1.023,0.629,4.773,2.082,5.207,3.309c-0.069-0.196-4.604-0.374-5.156-0.517c-2.98-0.772-5.573-2.595-8.121-4.254
			c-2.833-1.845-5.848-3.641-8.404-5.846c-3.071-2.648-6.499-5.196-9.396-8.019C132.333,134.882,139.717,138.232,142.079,139.155z"
			/>
		<path d="M185.841,151.542c17.599-4.662,34.676-11.549,51.075-19.403c7.691-3.684,15.262-7.632,22.614-11.957
			c2.564-1.509,5.103-3.063,7.622-4.646c0.676-0.424,5.711-2.984,5.719-3.413c-0.015,0.754-3.122,2.849-3.693,3.378
			c-2.034,1.883-4.172,3.671-6.387,5.339c-5.204,3.92-10.861,7.166-16.614,10.201c-9.538,5.032-19.298,9.646-29.198,13.921
			c-7.349,3.173-15.234,5.319-22.879,7.66c-5.885,1.802-11.805,3.509-17.849,4.7c-0.617,0.122-10.049,1.148-9.928,0.892
			c0.737-1.55,8.568-2.794,10.132-3.311C179.611,153.858,182.728,152.706,185.841,151.542z"/>
		<path d="M332.593,332.136c-2.857-3.076-9.105-5.03-10.52,0.698c-0.426,1.724-0.485,2.408,1.306,1.966
			c2.241-0.553,1.788-2.31,4.339-1.057c4.043,1.985,6.923,9.815,9.449,13.305c1.849,2.555,3.334,3.97,6.299,4.892
			c10.686,3.323,24.157,0.925,35.095-0.076c12.006-1.098,24.011-1.867,36.042-2.623c10.08-0.633,20.704-0.924,30.53-3.468
			c1.3-0.336,9.552-2.913,7.852-5.199c-0.936-1.258-9.514,1.407-11.019,1.662c-15.419,2.609-30.595,4.631-46.171,5.841
			c-12.591,0.978-25.163,2.884-37.823,2.333c-4.679-0.204-11.754-0.047-15.515-3.291
			C338.232,343.475,336.348,336.411,332.593,332.136z"/>
		<path d="M352.968,316.015c21.955-2.022,44.052-3.578,66.061-4.834c10.451-0.596,22.467-0.543,31.422,5.679
			c4.349,3.022,7.322,7.432,8.593,12.575c0.507,2.054,0.711,4.123,0.706,6.235c0,0.101-0.67,5.68-0.702,5.652
			c-0.849-0.728-0.791-6.866-1.261-8.448c-0.872-2.937-2.141-5.743-4.065-8.144c-4.446-5.546-11.423-7.959-18.262-8.882
			c-13.925-1.879-28.61,1.012-42.498,2.35c-8.993,0.867-18.077,0.634-27.094,1.31c-7.424,0.557-14.847,1.28-22.232,2.23
			c-2.879,0.37-5.78,0.738-8.613,1.382c-0.291,0.066-6.398,2.487-5.448,2.882c-3.863-1.853,10.002-6.805,11.03-7.087
			C344.684,317.792,348.824,316.866,352.968,316.015z"/>
		<path d="M329.602,375.986c0.139,11.049,0.384,24.72,11.631,30.442c10.657,5.421,24.758,3.993,36.272,3.368
			c4.459-0.242,64.327-6.364,64.647-2.942c0.077,0.826-54.784,6.67-57.47,6.897c-13.016,1.099-27.839,3.035-40.591-0.63
			c-12.122-3.484-17.288-14.308-18.522-26.09c-0.818-7.81-0.592-15.688-0.81-23.527c-0.094-3.379-0.28-6.753-0.521-10.125
			c-0.059-0.819-0.315-7.175-0.05-7.052c1.497,0.689,1.885,5.408,2.204,6.885c0.668,3.09,1.187,6.207,1.627,9.336
			C328.648,367.014,329.1,371.504,329.602,375.986z"/>
		<path d="M456.872,352.087c0.141-1.573-0.354-4.195-2.393-3.812c-1.788,0.336-1.987,3.939-2.079,5.246
			c-0.313,4.438,0.776,8.874,1.394,13.239c1.598,11.285,0.775,21.942-1.791,32.91c-1.246,5.322,3.22,2.786,4.359-0.624
			c1.449-4.337,0.551-9.838,0.723-14.38C457.498,373.794,455.803,362.964,456.872,352.087z"/>
		<path d="M157.531,304.861c6.472,3.361,13.499,4.525,20.713,4.241c3.566-0.14,5.257-0.4,7.54-3.113
			c0.447-0.532,6.062-7.592,6.746-6.721c0.331,0.42-2.117,5.776-2.421,6.489c-1.222,2.863-2.763,5.622-5.794,6.836
			c-5.159,2.067-13.48,2.236-18.759,0.453c-4.956-1.674-10.551-3.471-14.63-6.817c-1.078-0.884-3.321-2.629-1.901-3.646
			C149.543,302.212,156.407,304.702,157.531,304.861z"/>
		<path d="M222.023,309.762c18.256,9.669,38.246,10.904,58.503,9.867c9.708-0.497,19.474-1.406,29.013-3.325
			c3.296-0.663,6.584-1.437,9.779-2.493c0.854-0.282,7.902-2.59,7.886-3.112c0.031,0.984-5.749,4.182-6.406,4.566
			c-2.044,1.195-4.192,2.181-6.399,3.032c-5.773,2.226-11.855,3.412-17.969,4.237c-12.765,1.722-25.89,2.548-38.77,2.162
			c-10.18-0.305-20.086-3.229-29.487-7.044c-5.622-2.282-11.056-5.022-16.123-8.366c-1.668-1.101-11.933-7.493-11.09-9.785
			c0.124-0.337,9.581,5.107,10.517,5.592C214.891,306.863,218.418,308.421,222.023,309.762z"/>
		<path d="M172.583,245.805c-3.2,1.471-4.291,5.262-2.731,8.288c0.935,1.813,3.967,5.226,6.257,4.737
			c1.786-0.381,2.664-2.823,1.448-4.278c-1.371-1.641-3.775-0.177-5.3-1.901c-2.365-2.674,0.716-5.366,3.522-5.208
			c2.354,0.132,4.511,3.434,6.632,2.808c3.855-1.137-0.857-3.617-2.216-4.12C177.704,245.208,175.122,244.673,172.583,245.805z"/>
		<path d="M181.244,275.384c-3.1,3.355-0.558,7.505,3.319,9.503c1.784,0.919,4.247,1.639,4.928-0.886
			c1.181-4.381-2.762-2.461-4.415-2.679c-2.752-0.363-3.986-3.47-1.566-5.072c2.261-1.496,5.02,0.631,6.846-0.621
			c1.941-1.331,0.632-2.697-0.803-3.07C187.039,271.905,182.843,273.565,181.244,275.384z"/>
		<path d="M160.041,184.107c0.897-2.882,1.8-5.949,1.855-8.989c0.029-1.611-0.081-3.368-0.825-4.838
			c-0.073-0.144-1.817-2.03-1.833-2.182c-0.286-2.736,5.672-6.917,2.86-10.556c-3.629-4.697-5.344,6.253-5.778,7.851
			c-0.272,1.002-1.414,2.435-1.291,3.329c0.24,1.734,1.113,0.664,2.598,1.754c7.019,5.154-3.638,22.305-6.029,27.734
			c-0.506,1.149-2.264,5.237,0.311,5.428c1.781,0.132,2.454-3.766,2.778-4.766C156.301,193.887,158.369,189.073,160.041,184.107z"/>
		<path d="M174.506,186.097c0.078-2.919,0.061-6.019,0.819-8.858c0.603-2.261,1.588-2.302,2.632-3.764
			c1.865-2.61,1.14-11.038-1.208-13.8c-1.386-1.631-3.034-1.993-4.012,0.244c-0.974,2.228,0.575,4.753,1.514,6.651
			c0.574,1.16,1.758,2.83,1.536,4.191c-0.139,0.856-0.727,0.789-1.156,1.616c-2.419,4.657-2.007,10.043-2.302,15.183
			c-0.298,5.191-0.755,10.202-1.545,15.318c-0.21,1.357-0.808,4.685,1.366,4.218c1.924-0.413,1.975-4.099,2.077-5.493
			C174.602,196.476,174.414,191.239,174.506,186.097z"/>
		<path d="M113.982,69.613c-7.387-4.104-5.746-10.671-2.463-8.209C114.803,63.867,113.982,69.613,113.982,69.613z"/>
		<path d="M132.862,73.717c-7.388-1.642,0.821-6.567,4.925-4.104C141.891,72.075,132.862,73.717,132.862,73.717z"/>
		<path d="M361.913,289.811c-6.06,1.093-4.661,11.651-4.522,15.885c0.107,3.244,0.3,6.485,0.47,9.727
			c0.066,1.266,0.93,5.782,0.184,6.891c0.057-0.085-3.065-6.595-3.201-7.182c-1.178-5.116-1.237-10.741-1.408-15.98
			c-0.128-3.927,0.674-8.274,3.825-11.013c1.887-1.64,10.003-4.326,11.949-1.191C369.292,287.079,362.784,289.232,361.913,289.811z"
			/>
		<path d="M407.221,288.125c4.786,1.798,6.693,6.11,7.369,10.891c0.535,3.792,1.278,9.521,0.161,13.28
			c-0.161,0.542-2.905-5.316-2.988-5.808c-0.488-2.869-0.355-5.827-1.27-8.629c-0.492-1.508-1.098-3.733-2.14-4.873
			c-0.994-1.087-7.215-2.185-7.072-3.44C401.411,288.4,406.526,288.113,407.221,288.125z"/>
		<path d="M264.368,90.059c-4.755,0.594-9.947,7.427-5.496,11.489c1.988,1.814,4.484,2.106,6.436,4.253
			c1.996,2.196,3.311,2.774,6.411,2.263c7.599-1.253,6.851-5.751,3.954-11.483C273.414,92.112,269.612,88.98,264.368,90.059z"/>
		<path d="M233.11,66.308c2.366,1.841,6.765,8.145,2.253,10.381c-2.477,1.227-6.388-0.758-8.395-2.198
			c-2.68-1.923-6.203-5.138-4.038-8.798C225.269,61.739,230.415,64.213,233.11,66.308z"/>
	</g>
</g>
</svg>
