<?xml version="1.0" encoding="iso-8859-1"?>
<!-- Generator: Adobe Illustrator 21.1.0, SVG Export Plug-In . SVG Version: 6.00 Build 0)  -->
<svg version="1.1" id="_x31_2" xmlns="http://www.w3.org/2000/svg" xmlns:xlink="http://www.w3.org/1999/xlink" x="0px" y="0px"
	 viewBox="0 0 512 512" style="enable-background:new 0 0 512 512;" xml:space="preserve">
<g>
	<path style="fill:#FFFFFF;" d="M237.885,111.077c-0.34-9.87-3.618-25.846-6.203-31.016c-2.585-5.169-13.957-22.228-17.576-32.049
		c-3.618-9.822-1.551-28.431,3.618-35.668c3.372-4.721,7.185-7.683,9.428-9.171c1.059-0.703,2.479-0.455,3.235,0.567
		c2.422,3.27,7.755,10.541,11.632,16.358c5.169,7.754,15.508,22.228,16.542,26.88c1.034,4.652,1.034,11.889,0.517,23.779
		c-0.517,11.889-2.068,24.813-1.551,32.566c0.517,7.754,0.517,12.406,2.585,14.474c2.068,2.068,8.271,3.102,11.889,0.517
		c3.618-2.585-2.411,4.058,2.068,5.686c5.686,2.068,11.372-2.585,10.855-0.517c-0.517,2.068-1.034,6.72-3.618,8.788
		c-2.585,2.068,4.135,1.551,7.754-0.517c3.618-2.068,32.049,2.068,36.185,1.551c4.135-0.517,17.576-0.517,25.846,0.517
		c8.271,1.034,33.083,1.034,37.219,1.034c4.135,0,6.203-3.102,12.406,4.135c6.203,7.237,5.686,8.788,2.585,13.44
		c-3.102,4.652-13.44,18.092-20.677,23.779s-9.822,10.339-8.788,16.025c1.034,5.686,6.203,13.44,11.372,16.025
		c5.169,2.585,9.305-0.517,11.372,3.102l1.448,2.534c0.397,0.694,0.419,1.537,0.061,2.252c-0.887,1.775-1.69,5.135-3.69,6.932
		c-0.92,0.827-2.096,1.219-1.309,2.174c0.905,1.098,1.422,2.391-0.129,3.166c-3.102,1.551-14.474,0.517-20.677-4.652
		c-6.203-5.169-17.576-17.576-20.677-23.262c-3.102-5.686-1.551-14.991,0.517-18.092c2.068-3.102,6.72-9.822,7.754-12.923
		c1.034-3.102-1.034-6.203-5.686-6.203c-4.652,0-20.677,0-25.846,1.034c-2.611,0.522-5.221,0.78-7.166,0.908
		c-1.58,0.104-2.628,1.672-2.101,3.165c3.841,10.882,17.002,47.969,22.708,61.576c6.72,16.025,8.788,40.32,9.305,49.108
		c0.517,8.788,0,30.499-2.068,45.49c-2.068,14.991-0.517,22.228-11.372,45.49c-10.855,23.262-19.126,32.049-22.745,37.736
		c-3.618,5.686-13.44,21.194-17.576,26.88c-4.135,5.686-9.822,12.406-11.372,18.609c-1.551,6.203-2.068,20.677,8.271,28.431
		c10.339,7.754,20.16,9.822,21.194,14.474c0.92,4.6-2.253,7.563-4.421,8.888c-0.488,0.299-0.859,0.748-1.04,1.291l-0.117,0.35
		c-0.425,1.276-1.386,2.301-2.637,2.796c-1.939,0.767-4.855,1.594-6.777,0.632c-6.62-3.31-17.748-8.616-22.4-10.166
		c-4.652-1.551,3.102,4.308-2.068-3.446s-6.548-11.2-9.649-16.369c-3.102-5.169-4.652-7.237-8.788-13.44
		c-4.135-6.203-4.135-11.889-1.034-16.542c3.102-4.652,10.339-11.372,11.889-22.745c1.551-11.372,3.102-16.542,4.135-22.228
		c1.034-5.686,2.585-14.474,5.169-20.16l2.192-4.822c0.223-0.49,0.597-0.902,1.08-1.139c1.284-0.63,4.095-2.569,6.034-7.996
		c2.585-7.237,8.788-29.465-1.551-46.007c-10.339-16.542-19.126-27.914-24.813-29.465c-5.686-1.551-2.585,9.305-1.551,11.889
		s2.068,16.025,3.102,19.126c1.034,3.102,3.618,12.406,6.203,14.991s1.034,4.652-0.517,9.305
		c-1.551,4.652-4.652,21.194-6.203,25.846c-1.521,4.564-9.014,18.582-15.642,19.599c-0.253,0.039-0.498,0.111-0.727,0.226
		c-3.939,1.957-8.488,0.417-9.69-0.056c-0.199-0.078-0.382-0.177-0.552-0.306c-1.126-0.852-5.576-4.649-2.853-9.642
		c3.102-5.686-2.068,1.551,3.102-5.686c5.169-7.237,12.406-9.822,10.855-25.846c-1.551-16.025,0.517-14.991-3.618-21.194
		c-4.135-6.203-19.126-21.711-24.813-28.948s-15.508-21.194-11.372-35.668c4.135-14.474,14.991-25.329,29.982-21.194
		c14.991,4.135,11.889-0.517,9.305-5.169c-2.585-4.652-4.135-14.474-18.609-20.16c-14.474-5.686-20.677-5.686-26.363-3.102
		c-5.686,2.585-27.397,13.44-38.253,16.025c-10.855,2.585-19.126,3.618-20.16-7.237c-1.034-10.855,5.341-23.089,4.825-32.394
		c-0.517-9.305-4.825-17.231-9.994-17.748c-5.169-0.517-12.406,2.585-20.677,3.618c-6.203,0.775-7.463-1.939-7.706-3.344
		c-0.096-0.557-0.41-1.047-0.832-1.421c-0.976-0.864-2.494-2.512-2.317-4.281c0.258-2.585,2.326-4.911,5.428-5.428
		c3.102-0.517,1.292-2.068,1.809-3.102c0.517-1.034,7.754-7.237,11.372-5.686c3.618,1.551,15.766,3.877,17.576,4.652
		c1.809,0.775,5.686,1.809,11.631,5.945c5.945,4.135,10.855,12.148,12.665,17.834s2.585,15.249,2.843,17.059
		c0.258,1.809,11.631-1.809,15.766-3.877c4.135-2.068,21.969-10.855,26.105-14.991c4.135-4.135,9.046-7.237,9.822-7.495
		c0.775-0.258-1.551-2.843-4.911-3.36c-3.36-0.517,0,6.462-3.36-0.517s-2.326-14.474-2.585-20.419
		c-0.258-5.945,3.877-14.215,6.979-17.576c2.112-2.288,3.865-4.577,4.768-5.804c0.428-0.581,0.564-1.318,0.38-2.016
		c-0.515-1.958-1.669-6.025-2.822-7.947c-1.551-2.585-12.148-12.148-15.249-13.957c-3.102-1.809-8.012-6.979-10.597-9.563
		c-2.585-2.585-13.699-7.237-16.025-8.012c-2.326-0.775-5.686-3.618-10.08-2.585c-4.394,1.034-14.474,6.203-23.779,3.36
		s-13.699-4.911-14.732-9.046c-1.034-4.135-0.258-4.911,1.292-5.169c1.551-0.258,4.911-1.292,11.114-2.843
		c6.203-1.551,10.597-3.618,13.44-5.169c2.843-1.551,19.385-8.271,24.813-7.495c5.428,0.775,14.732,3.877,19.126,9.305
		c4.394,5.428,13.44,13.957,16.8,19.902s11.372,15.249,12.923,19.385c1.025,2.734,2.728,6.371,3.765,8.523
		c0.62,1.288,2.236,1.76,3.43,0.974C236.63,116.827,238.019,114.955,237.885,111.077z"/>
	<g>
		<path style="fill:#221714;" d="M274.516,247.313c-1.997,0.818-3.805,1.83-5.442,2.722c-1.634,0.904-3.086,1.736-4.262,2.28
			c-1.188,0.556-2.008,0.802-2.682,0.988c-0.672,0.187-1.337,0.303-1.813,0.546c-0.469,0.226-1.545,0.105-3.069-0.561
			c-1.521-0.639-3.456-1.779-5.73-2.958c-2.277-1.176-4.931-2.36-7.763-3.117c-1.408-0.399-2.86-0.662-4.291-0.863
			c-0.735-0.07-1.396-0.143-2.173-0.186c-0.679-0.017-1.351-0.026-2.011-0.025c-2.803,0.072-5.202,0.289-7.395,0.613
			c-2.177,0.333-4.111,0.734-5.772,1.268c-3.341,1.012-5.654,2.307-6.849,3.515c-1.21,1.205-3.356,3.424-5.064,5.944
			c-0.855,1.257-1.615,2.567-2.234,3.754c-0.605,1.194-1.074,2.26-1.382,3.021c-0.635,1.516-1.465,4.42-1.814,6.981
			c-0.193,1.277-0.273,2.466-0.316,3.33c-0.033,0.866-0.032,1.409-0.032,1.409s0.003,0.136,0.008,0.383
			c0.011,0.256,0.002,0.582,0.035,1.065c0.031,0.427,0.069,0.936,0.11,1.502c0.038,0.565,0.076,1.188,0.181,1.864
			c0.26,2.703,1.029,5.803,1.633,7.85c0.298,1.021,0.893,2.821,1.978,5.006c1.063,2.192,2.596,4.767,4.555,7.385
			c1.95,2.626,4.304,5.299,6.764,7.924c2.463,2.623,5.017,5.22,7.315,7.772c5.203,5.715,7.906,9.533,9.722,12.401
			c1.798,2.883,2.81,4.78,3.887,7.272c0.304,0.796,0.593,1.5,0.86,2.101c0.232,0.61,0.439,1.116,0.627,1.501
			c0.375,0.769,0.656,1.056,0.777,0.726c0.109-0.327,0.111-1.288-0.214-2.972c-0.355-1.671-1.042-4.087-2.535-7.1
			c-3.04-6.007-6.403-10.03-9.121-13.361c-2.777-3.289-5.088-5.83-7.213-8.121c-2.129-2.286-3.716-4.072-5.223-5.897
			c-1.505-1.825-2.932-3.686-4.504-6.195c-1.538-2.522-2.226-3.993-3.056-5.924c-0.366-0.982-0.813-2.066-1.211-3.523
			c-0.439-1.439-0.829-3.272-1.142-5.655c-0.069-0.708-0.129-1.326-0.182-1.872c-0.051-0.563-0.051-1.14-0.08-1.607
			c-0.046-0.876-0.081-1.536-0.112-2.136c-0.029-1.177-0.121-2.126-0.01-4.091c0.133-1.967,0.527-3.414,1.079-5.044
			c0.584-1.62,1.261-3.472,2.6-6.102c1.344-2.642,2.72-4.107,3.964-5.264c1.269-1.146,2.478-1.967,4.122-2.969
			c1.665-0.972,2.788-1.44,4.621-2.04c0.928-0.272,2.035-0.582,3.538-0.82c1.479-0.272,3.424-0.425,5.831-0.375
			c5.04,0.127,9.382,1.155,13.008,2.574c3.632,1.408,6.542,3.126,9.074,4.305c1.262,0.59,2.591,1.076,3.986,1.28
			c1.391,0.214,2.816,0.08,4.017-0.3c1.21-0.371,2.224-0.919,3.082-1.473c0.441-0.271,0.851-0.542,1.224-0.817
			c0.39-0.264,0.762-0.518,1.103-0.77c1.436-0.982,2.752-2.781,3.626-4.348c0.464-0.78,0.774-1.471,1.009-1.977
			C274.379,247.624,274.516,247.313,274.516,247.313z"/>
		<path style="fill:#221714;" d="M267.407,350.85c-2.233,6.841-3.818,11.334-6.262,20.499c-1.251,4.575-2.214,7.063-3.109,9.082
			c-0.914,2.01-1.708,3.592-3.084,6.156c-1.403,2.547-2.107,3.464-3.003,4.57c-0.235,0.265-0.482,0.544-0.762,0.859
			c-0.293,0.298-0.636,0.611-1.025,0.985c-0.82,0.671-1.88,1.615-3.547,2.29c-0.21,0.07-0.407,0.135-0.591,0.196
			c-0.199,0.067-0.337,0.118-0.315,0.093l-0.053-0.047l0.016-0.084l-0.027-0.005l-0.081,0.093l-0.087-0.074
			c-0.122-0.282-0.301-0.695-0.458-1.3c-0.611-2.427-0.096-4.056,0.324-5.139c0.106-0.273,0.212-0.508,0.316-0.705
			c0.091-0.205,0.178-0.371,0.252-0.501c0.141-0.266,0.2-0.409,0.2-0.409s-0.082,0.039-0.226,0.107
			c-0.139,0.075-0.366,0.16-0.6,0.311c-0.496,0.275-1.117,0.74-1.679,1.339c-0.57,0.594-0.999,1.342-1.284,1.941
			c-0.275,0.602-0.394,1.04-0.394,1.04s0,0.06,0,0.172c-0.004,0.113,0.001,0.276,0.023,0.482c0.028,0.414,0.098,1.003,0.27,1.675
			c0.077,0.34,0.19,0.696,0.323,1.066c0.059,0.188,0.14,0.371,0.219,0.559l0.121,0.285c0.035,0.089,0.081,0.191,0.162,0.341
			c0.276,0.54,0.563,1.092,0.895,1.647l0.24,0.415c0.132,0.019,0.311-0.071,0.464-0.101l0.949-0.263
			c0.309-0.092,0.639-0.162,0.922-0.27c0.219-0.098,0.437-0.195,0.653-0.292c0.201-0.092,0.401-0.183,0.598-0.273
			c0.191-0.099,0.366-0.22,0.544-0.326c0.729-0.411,1.322-0.896,1.83-1.307c0.507-0.411,0.865-0.814,1.144-1.068
			c0.277-0.257,0.408-0.425,0.408-0.425s0.137-0.137,0.385-0.382c0.243-0.249,0.621-0.592,1.011-1.068
			c0.836-0.915,1.848-2.271,2.855-3.807c1.983-3.09,3.783-6.944,4.655-9.19c1.802-4.474,4.401-11.199,5.418-14.638
			c1.06-3.424,2.011-10.595,3.983-16.157c1.001-2.753,1.105-3.985,0.475-3.791C269.863,345.633,268.536,347.417,267.407,350.85z"/>
		<path style="fill:#221714;" d="M241.376,396.106c-0.841,0.283-1.575,0.269-2.187,0.14c-0.605-0.188-1.048-0.313-1.733-1.066
			c-0.333-0.391-0.511-0.823-0.589-1.189c-0.091-0.365-0.092-0.679-0.069-0.958c0.043-0.562,0.197-1.003,0.316-1.742
			c0.133-0.742,0.236-1.034,0.4-1.377c0.178-0.333,0.421-0.75,1.097-1.538c0.695-0.755,0.723-0.702,0.626-0.693
			c-0.083,0.029-0.279,0.066,0.135-0.5c0.415-0.556,0.592-1.036,0.68-1.434c0.093-0.382,0.074-0.677,0.074-0.677
			s-0.149-0.034-0.372-0.084c-0.226-0.045-0.55-0.107-0.865-0.125c-0.648-0.062-1.325-0.01-1.325-0.01s-0.611,0.875-1.011,1.809
			c-0.418,0.93-0.656,1.892-0.656,1.892s-0.452,0.782-0.803,1.828c-0.375,1.034-0.56,2.362-0.491,3.144
			c0.053,0.771,0.103,1.787,0.485,2.812c0.349,1.025,1.174,1.983,1.888,2.339c0.695,0.409,1.931,0.472,2.946,0.149
			c1.037-0.302,1.926-0.824,2.748-1.167c0.822-0.365,0.905-0.95,0.572-1.318C242.902,395.959,242.207,395.811,241.376,396.106z"/>
		<path style="fill:#221714;" d="M234.041,394.771c-0.684-0.462-0.963-1.072-1.168-1.736c-0.204-0.675-0.325-1.472-0.456-2.716
			c-0.105-1.263,0.121-2.004,0.342-2.566c0.229-0.571,0.504-0.994,0.798-1.758c0.635-1.512,0.488-1.241,1.956-3.078
			c1.524-1.792-0.011-0.004,0.798-1.444c0.83-1.42,0.405-2.496,0.405-2.496s-0.633,0.103-1.265,0.207
			c-0.636,0.122-1.271,0.243-1.271,0.243s-0.395,0.891-0.749,1.796c-0.357,0.904-0.667,1.823-0.667,1.823s-0.497,0.729-1.015,1.667
			c-0.523,0.932-1.039,2.098-1.229,2.81c-0.194,0.706-0.509,1.586-0.72,2.499c-0.218,0.905-0.298,1.861-0.202,2.507
			c0.094,0.641,0.575,1.61,1.358,2.424c0.783,0.832,1.822,1.366,2.672,1.8c0.884,0.438,1.387,0.048,1.406-0.436
			C235.064,395.802,234.701,395.216,234.041,394.771z"/>
		<path style="fill:#221714;" d="M269.719,340.598c-0.927-0.961-1.541-1.885-2.219-2.872c-0.641-1.015-1.386-2.061-2.351-3.528
			c-0.962-1.479-1.245-2.456-1.449-3.251c-0.121-0.825-0.241-1.469-0.392-2.556c-0.202-1.077-0.223-1.519-0.21-2.071
			c0.005-0.276,0.023-0.579,0.052-1.004c0.062-0.424,0.142-0.971,0.254-1.737c0.602-3.022-0.018,0.002,0.102-2.177
			c0.062-1.088-0.014-1.878-0.204-2.411c-0.172-0.531-0.378-0.796-0.378-0.796s-0.549,0.494-1.097,0.988
			c-0.552,0.522-1.105,1.045-1.105,1.045s-0.023,0.325,0.001,0.819c0.015,0.49,0.035,1.144,0.054,1.798
			c0.103,1.307,0.258,2.595,0.258,2.595s-0.003,0.296-0.007,0.77c0.013,0.474-0.04,1.134,0.036,1.847
			c0.084,1.433,0.368,3.112,0.679,4.03c0.162,0.456,0.284,0.991,0.458,1.534c0.185,0.538,0.345,1.118,0.544,1.667
			c0.214,0.541,0.41,1.081,0.623,1.552c0.226,0.464,0.44,0.875,0.632,1.192c0.404,0.619,1.23,1.398,2.17,2.178
			c0.951,0.773,1.991,1.572,2.826,2.382C270.681,344.212,271.599,342.48,269.719,340.598z"/>
		<path style="fill:#221714;" d="M352.669,303.759c-1.434-0.25-3.282,1.251-4.624,3.417c-0.335,0.543-0.637,1.131-0.89,1.752
			c-0.258,0.622-0.543,1.301-0.727,2c-0.406,1.41-0.46,2.914-0.373,4.585c0.394,3.301,0.249,9.809-0.394,16.451
			c-0.193,1.657-0.316,3.334-0.539,4.96c-0.23,1.626-0.441,3.217-0.622,4.728c-0.188,1.51-0.444,2.921-0.597,4.218
			c-0.178,1.291-0.256,2.472-0.368,3.457c-0.212,1.973-0.581,4.24-1.195,6.565c-0.323,1.157-0.678,2.339-1.052,3.523l-0.573,1.774
			c-0.206,0.586-0.442,1.16-0.664,1.735c-0.915,2.289-1.773,4.536-2.742,6.463c-0.458,0.974-0.89,1.892-1.286,2.734
			c-0.194,0.422-0.38,0.825-0.555,1.206c-0.191,0.373-0.371,0.725-0.538,1.053c-0.678,1.306-1.577,3.195-2.811,5.381
			c-1.293,2.151-2.693,4.742-4.517,7.34c-0.437,0.663-0.882,1.338-1.334,2.023c-0.432,0.701-0.982,1.326-1.474,2.008
			c-1.033,1.346-1.994,2.714-3.113,4.135c-2.226,2.811-4.32,5.802-6.221,8.759c-3.742,5.95-5.813,9.355-8.113,12.917
			c-2.307,3.554-4.672,7.359-9.091,13.974c-4.457,6.585-6.813,9.849-6.725,10.603c0.029,0.362,0.621,0.048,1.706-0.938
			c0.544-0.492,1.214-1.15,1.955-2.005c0.755-0.844,1.613-1.862,2.522-3.074c3.661-4.839,5.383-7.915,7.195-10.911
			c1.802-3.001,3.591-6.005,7.102-10.822c3.515-4.811,7.054-9.561,10.509-13.9c0.87-1.079,1.725-2.141,2.563-3.179
			c0.825-1.104,1.632-2.185,2.418-3.237c0.387-0.529,0.769-1.051,1.145-1.566c0.372-0.516,0.676-1.066,1.007-1.585
			c0.635-1.053,1.249-2.07,1.839-3.047c0.607-0.964,1.129-2.012,1.697-3.057c0.574-1.04,1.159-2.099,1.749-3.169
			c1.133-2.16,2.224-4.394,3.346-6.578c0.993-2.241,2.048-4.426,2.942-6.559c0.844-2.151,1.686-4.189,2.353-6.088
			c0.615-1.916,1.433-4.097,2.217-6.392c0.373-1.154,0.753-2.331,1.132-3.504c0.383-1.173,0.785-2.338,1.092-3.497
			c0.329-1.155,0.65-2.279,0.954-3.346c0.152-0.534,0.3-1.055,0.443-1.557c0.122-0.508,0.24-0.998,0.352-1.467
			c0.441-1.879,0.79-3.425,0.977-4.421c0.187-0.995,0.416-2.628,0.736-4.504c0.35-1.872,0.584-4.021,0.833-6.043
			c0.289-2.017,0.388-3.934,0.497-5.337c0.104-1.404,0.17-2.298,0.17-2.298s0.046-0.19,0.084-0.534
			c0.042-0.345,0.103-0.84,0.176-1.443c0.066-0.607,0.145-1.324,0.231-2.105c0.072-0.786,0.188-1.635,0.18-2.525
			c0.017-0.887,0.023-1.802,0.014-2.699c-0.012-0.897-0.012-1.774-0.148-2.599C353.304,305.887,353.022,304.502,352.669,303.759z"/>
		<path style="fill:#221714;" d="M279.753,314.019c3.925,4.835,7.319,11.52,9.445,18.86c2.123,7.323,3.06,15.357,1.946,22.574
			c-0.548,3.598-1.566,6.589-2.764,8.881c-0.568,1.162-1.262,2.109-1.848,2.943c-0.685,0.773-1.219,1.482-1.823,1.956
			c-1.097,1.047-2.006,1.478-2.398,1.714c-0.411,0.216-0.408,0.137,0.003-0.198c0.207-0.169,0.43-0.371,0.677-0.606
			c0.122-0.118,0.251-0.244,0.388-0.378c0.127-0.145,0.247-0.311,0.381-0.48c0.261-0.345,0.562-0.716,0.87-1.149
			c0.276-0.454,0.581-0.957,0.921-1.515c0.286-0.582,0.6-1.221,0.946-1.926c0.144-0.364,0.295-0.745,0.453-1.144
			c0.169-0.392,0.327-0.808,0.456-1.259c0.633-1.754,1.109-3.902,1.527-6.446c0.218-1.274,0.301-2.537,0.402-3.76
			c0.028-1.23,0.091-2.423,0.033-3.582c-0.037-2.316-0.301-4.473-0.58-6.443c-0.632-3.937-1.54-7.112-2.354-9.386
			c-0.83-2.271-1.006-2.933-1.604-4.734c-0.137-0.456-0.342-0.964-0.585-1.589c-0.241-0.626-0.528-1.366-0.944-2.228
			c-0.787-1.743-1.971-4.064-4.086-6.973c-2.13-2.897-4.195-4.881-5.908-6.242c-1.735-1.326-3.069-2.149-3.94-2.625
			c-1.746-0.975-1.379-1.221,0.71-0.594c2.042,0.699,4.613,2.109,6.493,3.57c0.965,0.703,1.739,1.415,2.302,1.923
			C279.447,313.68,279.753,314.019,279.753,314.019z"/>
		<path style="fill:#221714;" d="M290.221,369.993c-1.843,1.88-3.987,4.22-6.326,6.541c-2.335,2.323-4.848,4.643-7.3,6.542
			c-2.451,1.902-4.326,3.017-5.474,3.607c-1.15,0.588-1.573,0.66-1.204,0.384c0.733-0.567,1.775-2.247,5.318-5.152
			c3.539-2.924,6.076-5.589,7.467-7.217c0.69-0.823,0.944-0.997,1.588-1.541c0.636-0.549,1.69-1.442,3.866-3.802
			c2.17-2.364,3.587-3.667,4.37-4.159c0.78-0.494,0.904-0.19,0.375,0.575C291.862,367.309,290.221,369.993,290.221,369.993z"/>
		<path style="fill:#221714;" d="M278.104,392.557c-1.796,0.861-3.726,2.376-5.564,4.128c-1.851,1.743-3.659,3.697-5.458,5.351
			c-1.791,1.663-3.231,2.646-4.122,3.138c-0.895,0.491-1.203,0.57-0.91,0.355c0.588-0.447,1.52-1.6,4.116-4.094
			c2.588-2.524,4.525-4.714,5.738-5.938c0.597-0.622,0.815-0.753,1.352-1.164c0.57-0.373,1.405-1.112,3.644-2.455
			c2.278-1.312,3.898-1.516,4.605-1.529c0.72-0.016,0.624,0.191-0.055,0.427c-0.337,0.13-0.741,0.238-1.118,0.443
			c-0.374,0.197-0.756,0.397-1.099,0.578C278.596,392.225,278.104,392.557,278.104,392.557z"/>
		<path style="fill:#221714;" d="M272.277,406.022c-2.017,3.749-3.07,7.145-3.955,10.843c-0.887,3.709-1.413,7.77-2.41,13.051
			c-0.132,0.66-0.257,1.283-0.376,1.874c-0.152,0.581-0.296,1.129-0.432,1.649c-0.141,0.52-0.275,1.011-0.402,1.477
			c-0.149,0.458-0.31,0.884-0.455,1.293c-0.305,0.811-0.543,1.556-0.846,2.206c-0.315,0.644-0.603,1.234-0.878,1.796
			c-0.515,1.142-1.19,2.053-1.821,3.102c-0.598,1.072-1.473,2.084-2.418,3.446c-2.075,2.731-2.844,4.034-3.645,5.643
			c-0.396,0.819-0.82,1.747-1.179,3.172c-0.334,1.403-0.63,3.438,0.106,6.083c0.379,1.306,0.826,2.192,1.144,2.85
			c0.336,0.645,0.572,1.051,0.726,1.302c0.304,0.511,0.271,0.416,0.193,0.255c-0.075-0.17-0.185-0.423-0.031-0.253
			c0.152,0.168,0.582,0.764,1.612,2.152c1.032,1.378,1.892,2.447,2.515,3.354c0.619,0.903,0.992,1.631,1.225,2.233
			c0.204,0.599,0.319,1.073,0.357,1.394c0.041,0.321,0.079,0.488,0.079,0.488s0.043-0.089,0.119-0.245
			c0.073-0.159,1.414,0.938,1.493,0.638c0.218-0.592,1.045-1.406,0.957-2.325c-0.078-0.916-0.887-3.44-1.094-4.102
			c-0.206-0.665-1.231-0.957-1.231-0.957s-1.063-0.747-1.944-1.841c-0.87-1.102-2.028-2.517-2.877-4.047
			c-0.87-1.522-1.341-3.182-1.383-4.465c-0.051-0.64,0.014-1.178,0.031-1.555c0.057-0.376,0.09-0.59,0.09-0.59
			s0.148-0.781,0.658-1.96c0.495-1.181,1.391-2.735,2.6-4.293c0.308-0.392,0.623-0.792,0.941-1.196
			c0.327-0.432,0.657-0.868,0.988-1.304c0.656-0.876,1.348-1.733,1.863-2.654c0.539-0.904,1.099-1.751,1.525-2.569
			c0.399-0.832,0.76-1.584,1.065-2.217c2.459-5.086,5.598-13.675,6.289-17.664c0.372-2.009,1.982-5.477,2.598-8.752
			c0.621-3.258-0.643-5.932,1.274-8.634c0.23-0.342,0.436-0.663,0.62-0.964c0.219-0.273,0.414-0.528,0.584-0.765
			c0.341-0.473,0.587-0.871,0.746-1.193c0.318-0.643,0.29-0.976-0.049-0.949C276.64,400.908,274.372,402.272,272.277,406.022z"/>
		<path style="fill:#221714;" d="M294.65,437.255c-1.486,1.449-3.133,3.344-4.588,5.477c-1.472,2.123-2.762,4.463-3.803,6.661
			c-1.028,2.21-1.75,3.763-2.181,4.69c-0.441,0.921-0.651,1.181-0.536,0.83c0.257-0.69,0.142-2.296,1.644-5.731
			c1.511-3.421,3.081-5.992,4.009-7.484c0.471-0.743,0.653-0.923,1.104-1.445c0.474-0.502,1.189-1.374,2.982-3.282
			c1.803-1.899,3.071-2.82,3.697-3.187c0.632-0.363,0.659-0.146,0.157,0.399c-0.507,0.54-1.136,1.307-1.632,1.938
			C295.009,436.754,294.65,437.255,294.65,437.255z"/>
		<path style="fill:#221714;" d="M268.048,485.212c1.308,2.977,2.041,5.624,2.965,8.528c0.462,1.453,0.964,2.977,1.617,4.646
			c0.171,0.415,0.345,0.84,0.524,1.277c0.284,0.644,0.575,1.305,0.875,1.986l0.074,0.103l0.157-0.012l0.315-0.023
			c0.209-0.015,0.42-0.03,0.632-0.046c0.338-0.027,0.681-0.055,1.03-0.083c0.489-0.051,0.987-0.011,1.508-0.027
			c2.078,0.056,3.653,0.591,4.89,1.163c1.242,0.577,2.168,1.195,2.99,1.792c1.652,1.192,2.853,2.345,5.223,3.916
			c1.201,0.767,2.088,1.254,2.835,1.617c0.375,0.181,0.709,0.342,1.031,0.497c0.333,0.14,0.654,0.274,0.992,0.416
			c0.69,0.256,1.449,0.557,2.605,0.795c0.286,0.068,0.6,0.122,0.947,0.159c0.342,0.055,0.721,0.071,1.133,0.085
			c0.823,0.004,1.806-0.055,2.937-0.45c1.131-0.398,1.916-0.988,2.428-1.496c0.519-0.51,0.775-0.949,0.927-1.222
			c0.307-0.553,0.215-0.493,0.135-0.312c-0.11,0.164-0.277,0.399-0.198,0.173c0.045-0.109,0.134-0.344,0.269-0.784
			c0.104-0.442,0.287-1.115,0.164-2.081c-0.128-0.96-0.533-1.784-1.023-2.384c-0.494-0.597-1.029-1.049-1.554-1.336
			c-1.044-0.605-1.95-0.774-2.635-0.872c-0.691-0.065-1.18-0.048-1.499-0.003c-0.318,0.035-0.466,0.067-0.466,0.067
			s0.339,0.156,0.847,0.39c0.247,0.129,0.527,0.293,0.817,0.459c0.28,0.202,0.583,0.379,0.845,0.615
			c0.552,0.427,0.957,0.966,1.194,1.348c0.232,0.397,0.3,0.663,0.3,0.663s0.108,0.096,0.244,0.293
			c0.152,0.189,0.315,0.486,0.426,0.866c0.247,0.747,0.008,1.94-0.926,2.765c-0.907,0.834-2.275,1.207-3.304,1.254
			c-1.039,0.07-1.754-0.056-1.754-0.056s-0.641-0.103-1.632-0.449c-0.988-0.337-2.321-0.94-3.678-1.786
			c-2.719-1.657-5.594-4.27-7.601-5.473c-0.967-0.622-2.122-1.283-3.417-1.822c-1.282-0.579-2.738-0.904-4.154-1.124
			c-0.709-0.041-1.423-0.165-2.099-0.125c-0.24,0.006-0.146-0.004-0.192-0.007l-0.028-0.01l-0.062-0.171l-0.06-0.212
			c-0.086-0.239-0.169-0.47-0.25-0.693c-0.171-0.467-0.327-0.895-0.467-1.276c-0.573-1.52-1.546-3.789-2.639-6.362
			c-1.099-2.566-2.359-5.398-3.67-7.897c-0.644-1.257-1.262-2.048-1.708-2.448c-0.444-0.405-0.711-0.43-0.777-0.138
			C265.996,480.504,266.725,482.263,268.048,485.212z"/>
		<path style="fill:#221714;" d="M308.845,507.281c0.704-0.464,1.33-0.892,1.875-1.548c0.53-0.645,0.976-1.58,0.914-2.768
			c-0.082-1.165-0.176-1.74-0.181-2.252c-0.026-0.532,0.057-0.802-0.227-1.871c-0.12-0.461-0.206-0.789-0.228-0.875
			c-0.993-0.147-1.597-0.328-2.835-0.756c-1.863-0.521,0.009-0.018-1.348-0.056c-0.69-0.002-1.18,0.258-1.462,0.51
			c-0.284,0.252-0.375,0.486-0.375,0.486s0.409,0.359,0.746,0.751c0.345,0.393,0.635,0.806,0.635,0.806s0.611-0.13,1.271-0.195
			c0.655-0.069,1.336-0.094,1.336-0.094c0.042,0.006,0.214,0.072,0.58,0.188c-0.014,0.094-0.043,0.298-0.076,0.521
			c-0.013,0.014,0.001,0.152,0.008,0.252c0.01,0.105,0.019,0.21,0.02,0.308c0.007,0.198,0.026,0.381,0.042,0.525
			c0.032,0.432-0.039,0.982-0.217,1.415c-0.173,0.438-0.376,0.775-0.491,0.99c-0.09,0.228-0.092,0.645-0.267,1.149
			c-0.169,0.495-0.532,1.055-1.038,1.326c-0.493,0.267-0.541,0.75-0.282,1.099C307.498,507.531,308.121,507.739,308.845,507.281z"/>
		<path style="fill:#221714;" d="M314.425,504.385c0.735-0.55,1.335-1.25,1.766-2.042c0.447-0.801,0.595-1.725,0.583-2.637
			c-0.046-0.915-0.312-1.8-0.724-2.681c-0.444-0.856-1.038-1.707-1.826-2.539c-1.608-1.616-2.551-2.402-3.294-3.138
			c-0.76-0.706-1.339-1.321-2.471-2.118c-1.142-0.782-1.595-1.092-2.171-1.486c-0.568-0.403-1.214-0.931-2.885-1.991
			c-1.7-1.029-1.735-0.994-1.613-0.9c0.112,0.104,0.337,0.301-0.989-0.214c-1.344-0.495-2.416-0.514-3.088-0.437
			c-0.691,0.107-0.989,0.283-0.989,0.283s0.16,0.13,0.401,0.325c0.237,0.187,0.531,0.457,0.805,0.742
			c0.277,0.269,0.534,0.566,0.721,0.786c0.184,0.217,0.306,0.361,0.306,0.361s1.369,0.313,2.723,0.823
			c1.354,0.491,2.673,1.118,2.673,1.118s1.111,0.725,2.356,1.701c1.257,0.962,2.618,2.184,3.377,2.883
			c0.769,0.69,1.619,1.674,2.27,2.664c0.662,0.99,1.09,1.962,1.332,2.56c0.259,0.602,0.739,1.419,0.728,2.402
			c0.054,0.992-0.78,2.14-1.858,2.754c-0.514,0.336-0.911,0.565-1.082,0.836c-0.181,0.256-0.184,0.49-0.013,0.645
			C311.784,505.364,312.932,505.504,314.425,504.385z"/>
		<path style="fill:#221714;" d="M285.963,456.503c-0.62,1.622-1.063,3.012-1.344,4.586c-0.261,1.569-0.379,3.347,0.07,5.615
			c0.469,2.257,0.832,3.474,1.083,4.518c0.261,1.038,0.466,1.887,1.079,3.195c0.63,1.3,0.966,1.777,1.306,2.423
			c0.394,0.617,0.723,1.445,2.087,3.084c0.7,0.809,1.118,1.174,1.312,1.336c0.195,0.164,0.171,0.131,0.123,0.063
			c-0.084-0.15-0.311-0.362,1,0.463c1.35,0.801,2.52,0.898,3.221,0.863c0.723-0.079,1.031-0.245,1.031-0.245
			s-0.162-0.136-0.404-0.341c-0.238-0.193-0.53-0.477-0.789-0.78c-0.529-0.59-0.898-1.231-0.898-1.231s-1.278-0.448-2.414-1.302
			c-1.157-0.81-2.117-1.917-2.117-1.917s-0.046-0.068-0.129-0.191c-0.076-0.128-0.186-0.312-0.322-0.538
			c-0.271-0.451-0.609-1.094-0.934-1.812c-0.673-1.431-1.169-3.205-1.445-4.211c-0.294-1.006-0.439-2.32-0.463-3.555
			c-0.021-1.237,0.061-2.393,0.108-3.158c0.029-0.764-0.093-1.929-0.026-3.246c0.053-1.312,0.301-2.778,0.858-3.983
			c0.556-1.187,0.495-1.852,0.017-1.896C287.526,454.211,286.602,454.87,285.963,456.503z"/>
		<path style="fill:#221714;" d="M323.04,181.601c-1.453-4.844-3.715-9.521-6.188-13.647c-1.183-2.103-2.565-3.964-3.752-5.793
			c-0.659-0.864-1.292-1.704-1.882-2.528c-0.301-0.407-0.57-0.829-0.867-1.212c-0.305-0.375-0.598-0.747-0.879-1.115
			c-2.241-2.944-1.427-3.185,0.441-2.144c0.467,0.26,0.999,0.599,1.561,0.992c0.567,0.389,1.162,0.835,1.684,1.359
			c1.067,1.026,2.158,2.126,2.842,3.133c0.666,1.017,1.464,2.238,2.346,3.586c0.787,1.398,1.684,2.911,2.544,4.508
			c1.664,3.219,3.296,6.715,4.56,9.829c0.643,1.552,2.203,5.392,3.93,10.434c1.76,5.032,3.712,11.254,5.674,17.407
			c1.953,6.166,4.021,12.194,5.915,16.979c0.465,1.225,0.901,2.376,1.303,3.434c0.369,1.07,0.706,2.046,1.004,2.909
			c0.61,1.723,0.981,3.024,1.194,3.713c0.191,0.695,0.63,1.96,1.057,3.718c0.225,0.876,0.479,1.865,0.759,2.951
			c0.266,1.089,0.511,2.286,0.797,3.557c1.093,5.092,3.424,11.21,4.01,17.832c0.605,6.621,0.8,13.411,0.789,19.192
			c-0.044,5.78-1.512,10.874-1.528,13.505c-0.026,5.27-0.935,8.793-1.73,10.385c-0.801,1.595-1.542,1.273-1.477-1.099
			c0.072-2.371,0.541-8.271,0.726-13.942c0.146-2.834,0.144-5.611,0.202-7.854c-0.007-2.244-0.012-3.956-0.015-4.665
			c-0.019-1.413,0.244-9.698-0.578-18.426c-0.104-1.09-0.209-2.188-0.313-3.281c-0.122-1.091-0.278-2.172-0.414-3.239
			c-0.249-2.139-0.654-4.181-0.967-6.068c-0.358-1.878-0.751-3.575-1.069-5.012c-0.368-1.425-0.696-2.58-0.945-3.373
			c-0.239-0.795-0.554-1.769-0.922-2.878c-0.374-1.107-0.722-2.376-1.208-3.705c-0.478-1.331-0.922-2.779-1.49-4.241
			c-0.551-1.47-1.121-2.99-1.693-4.517c-2.324-6.119-4.248-12.489-5.411-16.106c-1.157-3.618-3.296-8.924-5.356-13.725
			C325.618,187.658,323.625,183.385,323.04,181.601z"/>
		<path style="fill:#221714;" d="M233.809,116.582c-5.087,0.338-7.434,3.057-7.213,4.554c0.123,0.736-1.05,2.075-2.612,3.722
			c-1.553,1.65-3.504,3.623-4.79,5.721c-1.268,2.104-2.623,3.493-3.689,4.62c-1.105,1.09-1.905,1.915-2.161,2.627
			c-0.465,1.459-2.327,4.901-2.863,6.272c-0.326,0.66-0.727,1.948-1.067,3.055c-0.085,0.286-0.166,0.522-0.238,0.806
			c-0.06,0.243-0.116,0.464-0.162,0.65c-0.09,0.374-0.146,0.609-0.146,0.609s-0.05,0.246-0.131,0.644
			c-0.089,0.397-0.193,0.944-0.287,1.547c-0.213,1.206-0.37,2.657-0.494,3.618c-0.15,0.959-0.214,3.433,0.025,6.403
			c0.123,1.486,0.315,3.095,0.542,4.716c0.118,0.81,0.237,1.624,0.354,2.428c0.065,0.395,0.115,0.815,0.183,1.183
			c0.078,0.393,0.155,0.782,0.231,1.164c0.396,1.658,1.24,2.853,2.13,3.515c0.893,0.686,1.793,0.878,2.513,0.949
			c1.468,0.101,2.377-0.231,3.412-0.652c1.316-0.608,1.679-1.354,1.332-1.522c-0.179-0.103-0.507-0.084-1.081,0.019
			c-0.574,0.086-1.406,0.268-2.452,0.304c-2.122-0.027-2.883-1.057-3.361-2.26c-0.102-0.292-0.14-0.546-0.234-0.805
			c-0.068-0.433-0.134-0.847-0.197-1.247l-0.012-0.075l-0.001-0.009c-0.006-0.033,0.051,0.282,0.027,0.147l0-0.002l0-0.005
			l-0.002-0.018l-0.004-0.037l-0.014-0.145l-0.029-0.285c-0.02-0.189-0.041-0.374-0.06-0.556c-0.042-0.363-0.082-0.716-0.122-1.061
			c-0.332-2.753-0.438-4.275-0.463-6.986c0.021-1.35,0.053-2.096,0.136-3.058c0.078-0.962,0.194-2.145,0.647-4.299
			c0.304-1.317,0.468-1.913,0.538-2.434c0.042-0.287,0.08-0.549,0.126-0.86c0.02-0.158,0.041-0.327,0.065-0.518l0.019-0.147
			l0.007-0.103c0.018-0.103,0.037-0.211,0.057-0.327c0.168-0.927,0.421-1.58,0.732-2.328c0.35-0.729,0.69-1.59,1.152-2.908
			c0.233-0.659,0.457-1.198,0.675-1.657c0.239-0.447,0.469-0.816,0.693-1.155c0.437-0.684,0.898-1.213,1.403-1.986
			c0.489-0.783,0.879-1.22,1.435-1.959c0.573-0.73,1.36-1.728,2.863-3.522c3.054-3.56,5.441-6.621,7.018-8.44
			c1.603-1.805,2.552-3.532,3.776-4.424c0.628-0.445,1.06-1.316,1.355-2.075C233.664,117.23,233.809,116.582,233.809,116.582z"/>
		<path style="fill:#221714;" d="M222.733,174.987c0.517-0.486,1.141-0.692,1.828-0.861c0.697-0.165,1.487-0.29,2.583-0.479
			c2.221-0.326,2.519-0.008,3.926,0.028c1.428,0.048,1.116,0.072,3.157,0.337c1.043,0.105,1.072,0.069,0.984,0.054
			c-0.075-0.034-0.247-0.058,0.538-0.15c0.776-0.089,1.458-0.49,1.707-0.997c0.128-0.25,0.129-0.441,0.109-0.566
			c-0.013-0.12-0.033-0.17-0.033-0.17s-0.095,0.118-0.231,0.233c-0.155,0.109-0.369,0.176-0.567,0.154
			c-0.39-0.035-0.716-0.225-0.716-0.225s-0.152,0.051-0.399,0.12c-0.257,0.059-0.617,0.126-0.994,0.167
			c-0.751,0.087-1.532,0.122-1.532,0.122s-0.708-0.083-1.552-0.182c-0.849-0.099-1.851-0.195-2.429-0.202
			c-1.145-0.03-2.924-0.202-3.847-0.026c-0.883,0.139-2.75,1.04-3.646,2.44c-0.23,0.341-0.273,0.635-0.24,0.816
			c0.029,0.181,0.134,0.254,0.272,0.242C221.945,175.814,222.257,175.474,222.733,174.987z"/>
		<path style="fill:#221714;" d="M250.346,176.169c2.189,1.669,5.353,3.892,8.382,4.38c1.497,0.283,2.603,0.367,3.263,0.418
			c0.661,0.064,0.881,0.155,0.641,0.178c-0.24,0.021-0.585,0.172-1.187,0.335c-0.303,0.061-0.67,0.122-1.12,0.17
			c-0.447,0-0.984,0.039-1.599-0.08c-1.234-0.182-2.322-0.513-3.207-0.873c-0.896-0.344-1.599-0.702-2.127-0.95
			c-1.022-0.531-0.54-0.423-3.296-2.385c-1.371-0.979-2.132-1.622-2.44-2.001c-0.307-0.378-0.154-0.48,0.286-0.266
			C248.827,175.492,250.346,176.169,250.346,176.169z"/>
		<path style="fill:#221714;" d="M265.477,166.651c1.319,0.619,2.896,1.361,4.592,1.685c1.695,0.338,3.516,0.199,5.178,0.004
			c1.664-0.193,2.848-0.358,3.557-0.404c0.71-0.049,0.943,0.002,0.694,0.06c-0.502,0.1-1.386,0.807-3.949,1.227
			c-2.553,0.44-4.704,0.36-5.949,0.167c-0.615-0.114-0.792-0.169-1.237-0.367c-0.454-0.18-1.179-0.508-2.824-1.231
			c-1.637-0.727-2.57-1.222-2.978-1.531c-0.406-0.309-0.275-0.423,0.223-0.283C263.777,166.227,265.477,166.651,265.477,166.651z"/>
		<path style="fill:#221714;" d="M268.209,158.793c2.915,0.622,7.249,0.161,10.4-1.064c1.593-0.581,2.602-1.177,3.239-1.54
			c0.596-0.398,0.893-0.482,0.712-0.276c-0.19,0.188-0.278,0.646-0.72,1.214c-0.407,0.596-1.168,1.321-2.47,1.906
			c-1.302,0.571-2.521,0.942-3.571,1.197c-1.048,0.272-1.931,0.442-2.584,0.569c-0.655,0.14-0.849,0.09-1.368,0.039
			c-0.259-0.024-0.6-0.056-1.122-0.105c-0.522-0.035-1.221-0.106-2.199-0.209c-1.961-0.243-3.042-0.812-3.484-1.163
			c-0.445-0.361-0.273-0.572,0.267-0.509c0.539,0.078,1.273,0.077,1.863,0.042c0.293-0.005,0.555-0.043,0.741-0.063
			C268.096,158.807,268.209,158.793,268.209,158.793z"/>
		<path style="fill:#221714;" d="M238.065,100.914c-0.428-2.903-0.744-5.605-1.203-8.248c-0.465-2.641-1.076-5.227-2.029-7.844
			c-1.931-5.15-4.552-10.539-8.795-17.224c-2.121-3.339-3.829-5.899-5.215-8.044c-0.689-1.072-1.326-2.032-1.866-2.929
			c-0.504-0.903-0.965-1.731-1.405-2.52c-0.235-0.386-0.396-0.797-0.565-1.197c-0.169-0.4-0.335-0.794-0.501-1.187
			c-0.165-0.393-0.331-0.784-0.498-1.18c-0.167-0.395-0.268-0.821-0.409-1.24c-0.253-0.85-0.573-1.717-0.824-2.686
			c-0.224-0.977-0.465-2.031-0.733-3.202c-0.17-1.19-0.315-2.202-0.442-3.087c-0.129-0.885-0.116-1.657-0.17-2.347
			c-0.031-0.691-0.083-1.306-0.083-1.9c0.023-0.594,0.045-1.166,0.069-1.768c0.034-0.601,0.036-1.233,0.109-1.944
			c0.092-0.709,0.194-1.499,0.314-2.424c0.085-0.928,0.341-1.969,0.588-3.197c0.21-1.236,0.641-2.616,1.092-4.231
			c1.028-3.195,1.676-4.739,2.005-5.444c0.31-0.713,0.253-0.607,0.139-0.395c-0.114,0.212-0.285,0.53-0.202,0.241
			c0.041-0.145,0.146-0.442,0.353-0.981c0.105-0.269,0.234-0.599,0.391-1.001c0.173-0.395,0.406-0.849,0.666-1.389
			c0.997-2.184,2.042-3.935,2.831-5.459c0.91-1.447,1.55-2.691,2.145-3.602c1.179-1.831,1.626-2.734,1.626-2.734
			s-0.457,0.413-1.143,1.034c-0.675,0.633-1.652,1.434-2.481,2.364c-0.843,0.917-1.774,1.799-2.349,2.547
			c-0.603,0.734-1.006,1.224-1.006,1.224s-0.167,0.302-0.459,0.83c-0.314,0.517-0.657,1.31-1.097,2.246
			c-0.438,0.937-0.964,2.022-1.396,3.241c-0.231,0.602-0.469,1.225-0.712,1.858c-0.253,0.628-0.415,1.301-0.628,1.954
			c-0.201,0.658-0.401,1.315-0.598,1.962c-0.177,0.653-0.308,1.307-0.458,1.933c-0.144,0.627-0.283,1.234-0.415,1.809
			c-0.118,0.578-0.184,1.134-0.269,1.641c-0.153,1.018-0.298,1.863-0.371,2.459c-0.048,0.599-0.075,0.941-0.075,0.941
			s-0.037,0.31-0.104,0.867c-0.049,0.559-0.201,1.361-0.239,2.359c-0.033,0.998-0.108,2.186-0.122,3.499
			c0.026,0.657,0.054,1.346,0.083,2.057c0.038,0.712,0.031,1.452,0.152,2.197c0.199,1.493,0.332,3.064,0.726,4.592
			c0.176,0.767,0.318,1.543,0.524,2.296c0.237,0.744,0.472,1.481,0.702,2.202c0.116,0.361,0.231,0.718,0.344,1.07
			c0.126,0.348,0.285,0.678,0.422,1.01c0.286,0.66,0.563,1.299,0.827,1.909c0.242,0.621,0.57,1.164,0.86,1.682
			c0.293,0.517,0.566,0.999,0.816,1.44c0.49,0.904,1.065,1.756,1.637,2.685c0.57,0.924,1.163,1.883,1.768,2.863
			c1.198,1.963,2.419,4.016,3.568,6.032c2.314,4.026,4.271,7.934,5.522,10.557c0.632,1.309,1.44,2.935,2.298,4.808
			c0.872,1.866,1.71,3.929,2.372,6.253c1.365,4.617,1.982,10.017,2.943,14.896c0.482,2.441,1.06,4.107,1.526,5.034
			c0.461,0.931,0.749,1.151,0.832,0.734c0.091-0.421-0.065-1.459-0.332-3.108C238.856,106.076,238.494,103.813,238.065,100.914z"/>
		<path style="fill:#221714;" d="M256.247,114.597c1.019,0.172,2.27-0.964,3.135-2.611c0.409-0.819,0.816-1.8,1.021-2.867
			c0.181-1.058,0.299-2.246,0.106-3.494c-0.351-2.508-0.547-7.453-0.477-12.555c0.043-5.097,0.236-10.333,0.002-13.361
			c-0.235-3.027,0.046-6.961,0.386-10.708c0.176-1.876,0.347-3.706,0.501-5.349c0.066-0.825,0.129-1.603,0.186-2.316
			c0.006-0.732,0.011-1.397,0.016-1.977c0-0.581,0-1.283-0.001-2.088c-0.077-0.8-0.163-1.703-0.258-2.69
			c-0.056-0.493-0.083-1.012-0.169-1.54c-0.103-0.525-0.209-1.069-0.319-1.629c-0.112-0.56-0.227-1.136-0.345-1.726
			c-0.104-0.594-0.323-1.171-0.486-1.776c-1.339-4.84-3.859-10.064-6.78-14.491c-2.923-4.428-4.686-6.859-6.474-9.51
			c-1.799-2.634-3.702-5.42-7.091-10.381c-3.339-4.979-4.989-7.519-5.522-7.676c-0.251-0.084-0.179,0.409,0.23,1.432
			c0.205,0.511,0.494,1.154,0.868,1.922c0.384,0.76,0.889,1.619,1.467,2.603c2.366,3.893,3.988,5.983,5.541,8.111
			c1.554,2.124,3.119,4.245,5.418,8.099c2.293,3.855,4.498,7.728,6.333,11.451c1.824,3.731,3.155,7.338,4.173,10.487
			c0.195,0.803,0.395,1.627,0.599,2.465c0.091,0.422,0.208,0.846,0.276,1.279c0.052,0.436,0.104,0.875,0.157,1.315
			c0.088,0.883,0.233,1.773,0.262,2.67c-0.002,0.898-0.004,1.797-0.007,2.69c-0.107,3.599-0.531,7.159-0.758,10.14
			c-0.253,2.989-0.763,6.9-1.218,10.449c-0.446,3.551-0.833,6.74-0.908,8.252c-0.085,1.51-0.357,4.904-0.463,7.949
			c-0.083,1.518-0.084,2.953-0.11,4.003c-0.031,1.05-0.005,1.724-0.005,1.724s-0.05,0.581-0.128,1.484
			c-0.092,0.904-0.11,2.148-0.124,3.469c-0.022,1.319,0.118,2.733,0.238,3.948C255.728,113.018,255.973,114.047,256.247,114.597z"/>
		<path style="fill:#221714;" d="M222.997,99.209c-3.346-5.384-6.036-9.957-9.334-14.796c-0.848-1.195-1.693-2.431-2.622-3.683
			c-0.965-1.227-1.897-2.549-3.02-3.837c-0.553-0.649-1.12-1.314-1.702-1.997c-0.585-0.68-1.247-1.33-1.897-2.022
			c-1.278-1.406-2.812-2.728-4.401-4.167c-1.696-1.328-3.156-2.564-4.627-3.482c-0.722-0.474-1.376-0.964-2.044-1.357
			c-0.676-0.38-1.316-0.74-1.925-1.082c-1.191-0.732-2.354-1.211-3.409-1.689c-0.527-0.24-1.032-0.47-1.52-0.693
			c-0.509-0.194-1.024-0.35-1.515-0.52c-3.997-1.098-7.451-1.107-12.712,0.051c-2.632,0.611-4.4,1.241-5.863,1.719
			c-1.452,0.508-2.58,0.92-3.827,1.39c-2.492,0.934-5.48,2.115-12.288,4.995c-3.404,1.425-5.108,2.078-5.899,2.382
			c-0.79,0.307-0.665,0.269-0.414,0.193c0.251-0.076,0.627-0.19,0.338-0.035c-0.29,0.148-1.241,0.602-3.675,1.478
			c-4.863,1.735-8.34,2.382-10.5,2.171c-0.27-0.022-0.528-0.026-0.761-0.053c-0.228-0.045-0.439-0.086-0.633-0.124
			c-0.197-0.036-0.377-0.069-0.54-0.098c-0.154-0.053-0.292-0.1-0.414-0.141c-0.493-0.163-0.745-0.229-0.745-0.229
			s0.126,0.092,0.345,0.252c0.112,0.082,0.248,0.182,0.404,0.296c0.155,0.123,0.338,0.247,0.559,0.343
			c0.431,0.217,0.942,0.502,1.546,0.665c0.592,0.23,1.254,0.337,1.928,0.469c0.672,0.1,1.359,0.154,2.005,0.189
			c0.638-0.002,1.253,0.026,1.767-0.006c0.517-0.032,0.948-0.058,1.25-0.076c0.305-0.015,0.474-0.04,0.474-0.04
			s0.359-0.104,0.989-0.288c0.636-0.169,1.508-0.485,2.561-0.846c2.092-0.752,4.794-1.907,7.445-3.131
			c5.262-2.475,10.525-4.95,10.525-4.95s0.305-0.124,0.853-0.348c0.548-0.226,1.34-0.549,2.32-0.927
			c1.958-0.76,4.662-1.782,7.667-2.631c3-0.848,6.316-1.507,9.354-1.545c1.511,0.025,2.958,0.105,4.22,0.412
			c0.316,0.071,0.629,0.128,0.926,0.203c0.29,0.096,0.573,0.19,0.846,0.281c0.273,0.096,0.538,0.161,0.792,0.271
			c0.255,0.115,0.5,0.226,0.733,0.332c0.93,0.434,1.942,0.845,2.944,1.375c0.977,0.579,1.993,1.18,3.029,1.793
			c0.975,0.71,1.97,1.434,2.969,2.161c0.957,0.782,1.883,1.614,2.813,2.406c3.62,3.318,6.554,6.975,8.525,9.388
			c1.934,2.45,4.886,6.114,7.93,10.412c3.059,4.285,6.245,9.151,9.071,13.629c1.408,2.242,2.521,3.734,3.255,4.559
			c0.731,0.826,1.083,0.985,1.036,0.538C228.033,107.871,226.324,104.601,222.997,99.209z"/>
		<path style="fill:#221714;" d="M130.068,83.38c2.186,2.472,4.479,4.156,7.248,5.397c0.701,0.287,1.409,0.617,2.184,0.83
			c0.385,0.117,0.776,0.236,1.177,0.358c0.408,0.088,0.824,0.177,1.251,0.269c0.851,0.209,1.765,0.266,2.722,0.392
			c0.964,0.04,1.981,0.119,3.062,0.057c4.318-0.172,6.672-0.678,8.648-1.003c1.97-0.356,3.561-0.642,6.095-1.499
			c2.53-0.868,3.497-1.329,4.746-1.811c1.223-0.542,2.765-1.036,6.097-2.834c1.658-0.918,2.452-1.451,2.825-1.688
			c0.372-0.24,0.309-0.211,0.183-0.154c-0.126,0.058-0.315,0.144-0.196,0.02c0.124-0.117,0.544-0.461,1.61-1.303
			c2.124-1.708,3.284-3.289,3.944-4.327c0.62-1.086,0.784-1.627,0.784-1.627s-0.291,0.197-0.727,0.492
			c-0.215,0.143-0.466,0.31-0.735,0.489c-0.279,0.161-0.577,0.332-0.875,0.504c-0.58,0.348-1.195,0.641-1.647,0.861
			c-0.451,0.221-0.751,0.359-0.751,0.359s-0.513,0.476-1.283,1.192c-0.404,0.34-0.875,0.736-1.38,1.161
			c-0.528,0.398-1.082,0.837-1.654,1.254c-1.15,0.826-2.345,1.593-3.256,2.15c-0.925,0.534-1.541,0.891-1.541,0.891
			s-2.351,1.106-5.288,2.091c-2.928,1.022-6.446,1.805-8.465,2.129c-2.016,0.351-4.578,0.523-6.971,0.382
			c-2.395-0.136-4.608-0.534-6.034-0.916c-1.428-0.348-3.624-0.783-5.865-1.876c-2.242-1.06-4.471-2.834-5.924-4.92
			c-0.757-1.016-1.226-1.773-1.632-2.159c-0.395-0.39-0.662-0.446-0.751-0.18C127.524,78.849,127.887,80.859,130.068,83.38z"/>
		<path style="fill:#221714;" d="M178.315,89.383c2.92,0.901,5.125,2.376,7.442,4.06c2.319,1.711,4.735,3.762,8.059,6.468
			c3.337,2.76,5.204,4.304,6.764,5.595c1.628,1.291,2.928,2.209,5.13,3.73c2.202,1.509,3.06,2.135,4.099,2.962
			c0.516,0.417,1.078,0.883,1.842,1.562c0.762,0.68,1.743,1.565,2.99,2.878c1.244,1.315,1.742,2.033,1.993,2.351
			c0.239,0.325,0.21,0.269,0.152,0.156c-0.058-0.113-0.146-0.283-0.023-0.182c0.116,0.102,0.493,0.459,1.167,1.477
			c1.339,2.042,1.715,3.551,1.813,4.594c0.056,0.52,0.061,0.923,0.053,1.189c-0.003,0.268,0.008,0.406,0.008,0.406
			s0.198-0.25,0.472-0.679c0.252-0.431,0.567-1.068,0.723-1.782c0.165-0.707,0.223-1.478,0.193-2.048
			c-0.01-0.581-0.076-0.961-0.076-0.961s-0.317-0.772-0.982-1.761c-0.653-1.001-1.665-2.181-2.755-3.245
			c-1.088-1.068-2.247-2.028-3.131-2.72c-0.884-0.692-1.489-1.129-1.489-1.129s-2.064-1.765-4.669-3.687
			c-1.298-0.966-2.719-1.987-4.03-2.918c-0.665-0.47-1.276-0.903-1.811-1.311c-0.539-0.424-1.026-0.807-1.436-1.129
			c-3.264-2.641-7.672-7.408-10.257-9.453c-1.271-1.033-3.34-2.421-5.806-3.702c-2.465-1.276-5.361-2.392-8.151-2.801
			c-1.396-0.199-2.401-0.084-2.958,0.124c-0.563,0.196-0.697,0.413-0.476,0.604C173.622,88.44,175.412,88.525,178.315,89.383z"/>
		<path style="fill:#221714;" d="M221.664,222.244c1.889,0.456,3.392,1.162,5.004,1.97c1.613,0.823,3.345,1.765,5.689,3.052
			c2.336,1.315,3.499,2.307,4.406,3.168c0.909,0.867,1.561,1.635,2.717,2.825c1.145,1.201,1.555,1.722,2.028,2.397
			c0.455,0.678,1.019,1.53,1.939,3.563c0.423,1.024,0.562,1.534,0.637,1.769c0.078,0.234,0.077,0.193,0.074,0.113
			c-0.029-0.158,0.041-0.496,0.523,0.924c0.413,1.412,0.649,2.345,0.778,3.008c0.096,0.337,0.109,0.581,0.17,0.764
			c0.048,0.178,0.085,0.273,0.085,0.273s0.164-0.156,0.409-0.391c0.275-0.244,0.535-0.63,0.826-1.065
			c0.244-0.431,0.482-0.919,0.617-1.292c0.127-0.382,0.212-0.636,0.212-0.636s-0.028-0.131-0.078-0.36
			c-0.068-0.219-0.165-0.533-0.282-0.909c-0.124-0.37-0.311-0.777-0.49-1.222c-0.218-0.42-0.428-0.882-0.682-1.309
			c-0.497-0.864-1.049-1.675-1.491-2.256c-0.221-0.29-0.405-0.531-0.534-0.7c-0.136-0.163-0.213-0.255-0.213-0.255
			s-0.911-1.513-2.25-3.144c-1.32-1.645-3.061-3.39-4.14-4.287c-1.077-0.897-2.39-2.064-3.705-3.109
			c-1.313-1.045-2.633-1.959-3.566-2.48c-0.943-0.505-2.474-1.053-4.217-1.489c-1.744-0.443-3.668-0.799-5.436-1.061
			c-0.446-0.055-0.828-0.073-1.145-0.055c-0.321,0.038-0.573,0.102-0.758,0.184c-0.371,0.164-0.472,0.4-0.345,0.645
			C218.713,221.387,219.791,221.805,221.664,222.244z"/>
		<path style="fill:#221714;" d="M144.382,234.348c-1.012-0.885-2.154-2.099-2.402-3.522c-0.259-1.436-0.168-2.848-0.168-2.848
			s0.021-0.888,0.056-2.066c0.028-1.179,0.45-2.932,0.578-4.034c0.236-2.206,0.436-4.844,0.602-6.602
			c0.111-1.766,1.183-10.502,1.503-13.551c0.077-0.763,0.175-1.843,0.24-3.061c0.078-1.214,0.031-2.572,0.011-3.904
			c-0.064-2.66-0.374-5.151-0.502-6.115c-0.473-3.228-1.331-5.268-2.122-6.322c-0.204-0.258-0.366-0.487-0.523-0.659
			c-0.167-0.16-0.303-0.29-0.409-0.391c-0.205-0.21-0.324-0.267-0.324-0.267c-0.011,0.017-0.266-0.251-0.774-0.524
			c-0.487-0.312-1.252-0.569-2.119-0.734c-1.759-0.297-3.926,0.022-5.206,0.229c-2.572,0.412-6.032,1.068-7.739,1.559
			c-1.712,0.494-1.32,0.103-3.932,0.49c-1.31,0.19-2.635,0.162-3.344,0.052c-0.71-0.105-0.811-0.272,0.267-0.43
			c1.079-0.145,2.907-0.353,4.466-0.597c1.56-0.252,2.851-0.46,2.851-0.46l5.55-1.512c0,0,0.569,0.06,1.461,0.045
			c0.893-0.021,2.096-0.107,3.447-0.313c0.676-0.118,1.546-0.122,2.5-0.005c0.952,0.147,1.984,0.519,2.857,1.128
			c0.896,0.591,1.547,1.429,2.045,2.184c0.494,0.768,0.801,1.49,1.056,2.017c0.931,2.136,1.963,4.868,2.138,7.996
			c0.042,0.782,0.056,1.59,0.087,2.412c0.001,0.82,0.001,1.654,0.002,2.488c-0.036,1.708-0.267,2.716-0.424,4.257
			c-0.294,3.065-0.614,8.076-0.782,9.827c-0.095,0.871-0.186,3.529-0.391,6.142c-0.214,2.613-0.339,5.553-0.335,6.421
			c-0.016,0.87-0.459,2.145-0.179,3.524c0.269,1.386,1.519,3.232,1.519,3.232s-0.155,0.118-0.247,0.659
			c-0.053,0.274-0.074,0.648-0.026,1.161c0.043,0.515-0.711,0.417-0.4,1.197c0.341,0.758,0.549,1.147,0.571,1.383
			c0.023,0.234-0.119,0.286-0.337,0.23c-0.213-0.057-0.52-0.216-0.744-0.385C144.547,234.508,144.382,234.348,144.382,234.348z"/>
		<path style="fill:#221714;" d="M152.673,169.924c-1.228-1.359-2.874-2.326-4.494-2.918c-1.618-0.622-3.171-0.945-4.461-1.321
			c-1.29-0.393-1.126-0.923-0.313-1.312c0.404-0.186,0.977-0.374,1.561-0.427c0.581-0.04,1.184-0.01,1.643,0.1
			c0.446,0.15,0.98,0.331,1.571,0.53c0.587,0.208,1.194,0.518,1.84,0.797c0.623,0.321,1.253,0.681,1.868,1.038
			c0.584,0.401,1.181,0.769,1.697,1.163c0.255,0.201,0.696,0.549,1.276,1.006c0.534,0.505,1.254,1.078,1.949,1.832
			c1.448,1.455,3.042,3.403,4.391,5.484c1.364,2.073,2.509,4.255,3.346,6.042c0.835,1.79,1.358,3.188,1.556,3.692
			c0.187,0.509,0.678,1.894,1.219,3.774c0.526,1.885,1.087,4.268,1.485,6.738c0.404,2.47,0.638,5.024,0.701,7.217
			c0.085,2.192-0.053,4.021-0.059,5.041c-0.032,2.057-0.839,3.363-1.462,3.819c-0.625,0.468-1.109,0.177-0.972-0.669
			c0.17-0.84,0.576-2.949,0.666-5.025c0.116-2.071,0.014-4.069-0.018-4.589c-0.011-0.516,0.01-3.581-0.462-6.809
			c-0.425-3.231-1.326-6.578-1.844-7.705c-0.511-1.13-1.352-3.354-2.382-5.548c-1.006-2.206-2.259-4.34-3.045-5.511
			c-0.769-1.187-2.325-2.679-3.82-3.879c-0.768-0.583-1.487-1.131-2.113-1.544C153.396,170.497,152.906,170.173,152.673,169.924z"/>
		<path style="fill:#221714;" d="M176.975,203.989c1.114-0.28,2.144-0.5,3.151-0.723c1-0.259,1.977-0.511,2.999-0.775
			c1.01-0.313,2.062-0.661,3.209-1.095c1.124-0.495,2.379-0.993,3.716-1.768c1.359-0.726,2.391-1.335,3.264-1.81
			c0.882-0.457,1.559-0.864,2.203-1.184c0.644-0.321,1.223-0.612,1.838-0.961c0.615-0.348,1.3-0.704,2.085-1.251
			c1.597-1.06,2.208-1.519,3.017-2.032c0.812-0.51,1.805-1.098,4.046-2.579c4.441-3.01,0.01,0.008,2.946-2.42
			c2.9-2.456,3.406-4.173,3.406-4.173l-4.111,0.999c0,0-1.496,1.434-3.014,2.835c-1.52,1.397-3.088,2.737-3.088,2.737
			s-1.559,1.047-3.469,2.212c-1.9,1.185-4.191,2.406-5.484,3.122c-0.636,0.379-1.398,0.718-2.188,1.074
			c-0.784,0.368-1.629,0.686-2.451,0.99c-0.41,0.154-0.815,0.305-1.207,0.452c-0.399,0.131-0.785,0.258-1.151,0.378
			c-0.728,0.254-1.378,0.481-1.898,0.663c-2.038,0.777-6.026,2.999-9.715,3.757C171.426,203.178,172.463,204.944,176.975,203.989z"
			/>
		<path style="fill:#221714;" d="M372.941,185.231c-1.22,2.107-1.72,4.274-1.57,6.576c0.216,2.293,1.194,4.722,3.292,7.076
			c2.145,2.294,3.497,3.337,4.559,4.31c1.08,0.945,1.952,1.706,3.567,2.732c0.817,0.496,1.392,0.836,1.873,1.098
			c0.475,0.274,0.847,0.488,1.261,0.727c0.828,0.479,1.786,1.12,4.205,2.327c2.446,1.161,2.478,1.109,2.303,1.007
			c-0.16-0.134-0.504-0.32,1.346,0.222c1.855,0.536,3.239,0.572,4.126,0.493c0.893-0.089,1.298-0.262,1.298-0.262
			s-0.865-0.622-1.67-1.274c-0.395-0.331-0.79-0.662-1.086-0.91c-0.286-0.259-0.476-0.431-0.476-0.431s-1.955-0.354-3.877-0.922
			c-1.925-0.549-3.796-1.297-3.796-1.297s-1.623-0.854-3.441-2.053c-1.831-1.186-3.791-2.766-4.864-3.697
			c-1.092-0.913-2.289-2.242-3.188-3.607c-0.918-1.361-1.501-2.734-1.82-3.626c-0.339-0.885-0.958-2.181-1.067-3.804
			c-0.162-1.613,0.407-3.507,1.453-4.913c0.499-0.715,0.859-1.225,0.974-1.628c0.12-0.398,0.032-0.657-0.233-0.722
			C375.62,182.538,374.188,183.101,372.941,185.231z"/>
		<path style="fill:#221714;" d="M323.609,166.032c4.052-0.175,6.795-0.252,11.872-1.66c5.077-1.38,5.797-0.948,8.998-1.195
			c1.605-0.123,2.245-0.058,3.045-0.02c0.4,0.02,0.838,0.072,1.449,0.189c0.305,0.053,0.654,0.114,1.064,0.185
			c0.41,0.062,0.878,0.153,1.416,0.3c2.153,0.517,2.135,0.553,1.995,0.462c-0.142-0.092-0.431-0.276,1.109,0.055
			c1.547,0.287,2.655,0.429,3.419,0.396c0.76-0.023,1.151-0.158,1.151-0.158s-0.64-0.691-1.281-1.382
			c-0.337-0.35-0.674-0.701-0.926-0.963c-0.255-0.272-0.439-0.421-0.439-0.421s-0.464-0.069-1.161-0.173
			c-0.695-0.102-1.616-0.26-2.552-0.298c-0.932-0.06-1.856-0.153-2.555-0.124c-0.695,0.002-1.159,0.003-1.159,0.003
			s-0.105-0.014-0.293-0.039c-0.188-0.02-0.461-0.072-0.796-0.085c-0.671-0.037-1.598-0.114-2.61-0.141
			c-2.022-0.027-4.385,0.093-5.705,0.299c-2.657,0.357-6.642,0.648-8.56,0.984c-1.907,0.329-5.599,1.937-8.836,1.905
			c-1.587-0.061-2.273,0.395-2.068,0.881c0.105,0.244,0.442,0.496,1.017,0.698c0.287,0.1,0.633,0.188,1.035,0.255
			C322.644,166.045,323.1,166.046,323.609,166.032z"/>
		<path style="fill:#221714;" d="M361.005,170.542c-2.798,3.851-5.739,8.269-7.729,13.338c-0.504,1.263-0.888,2.574-1.215,3.905
			c-0.291,1.336-0.47,2.698-0.504,4.064c-0.003,1.364,0.165,2.722,0.521,4.035l0.306,0.974l0.398,0.897
			c0.334,0.614,0.66,1.238,1.062,1.855c1.548,2.478,3.357,4.907,5.199,7.294c1.851,2.386,3.766,4.733,5.71,7.022
			c1.944,2.273,3.919,4.558,5.935,6.547c1.986,1.906,4.374,3.344,6.874,4.4c2.594,1.123,5.164,1.773,7.539,2.204
			c2.381,0.423,4.586,0.592,6.573,0.619c0.497,0.004,0.981,0.019,1.45-0.005l0.174-0.005l0.055,0.003l0.114,0.005l0.121,0.005
			l0.059-0.002l0.02-0.05c0.028-0.07,0.049-0.135,0.073-0.22l0.035-0.139l0.049-0.295c0.059-0.393,0.105-0.781,0.132-1.16
			c0.059-0.756,0.067-1.469,0.039-2.122c-0.009-0.162-0.018-0.322-0.027-0.478c-0.01-0.133-0.021-0.263-0.03-0.39
			c-0.01-0.168-0.03-0.342-0.059-0.512c-0.417-0.153-1.5-0.248-2.142-0.297c-0.687-0.054-1.199-0.101-1.52-0.149
			c-0.645-0.1-0.542-0.147,0.277-0.138c0.475,0.003,1.014-0.025,1.649-0.052c0.644-0.022,1.344-0.054,2.274,0.049
			c0.35,1.013,0.559,2.238,0.643,3.673c0.022,0.361,0.026,0.738,0.023,1.131c-0.007,0.196-0.01,0.397-0.024,0.602l-0.021,0.311
			l-0.048,0.386c-0.033,0.264-0.089,0.537-0.148,0.819l-0.047,0.213l-0.024,0.108l-0.1,0.018l-0.425,0.054
			c-0.516,0.055-1.05,0.111-1.604,0.169c-1.917,0.155-4.115,0.182-6.598-0.07c-2.48-0.248-5.251-0.795-8.215-1.887
			c-2.048-0.761-3.979-1.71-5.725-2.865c-1.757-1.138-3.276-2.578-4.574-3.965c-2.632-2.79-4.952-5.487-7.064-7.999
			c-4.198-5.055-7.527-9.294-9.663-12.888c-0.273-0.438-0.495-0.897-0.689-1.335c-0.219-0.43-0.324-0.828-0.449-1.2
			c-0.267-0.739-0.364-1.403-0.494-2.029c-0.171-1.261-0.258-2.427-0.1-4.088c0.154-1.655,0.513-3.826,1.626-6.902
			c1.132-3.063,3.071-6.995,6.422-12.008c3.376-4.994,6.439-8.662,8.793-11.483c2.373-2.808,4.082-4.743,5.183-5.95
			c2.176-2.431,2.159-1.77,0.212,1.049c-1.965,2.793-4.644,6.472-6.725,9.51C362.485,168.148,361.005,170.542,361.005,170.542z"/>
		<path style="fill:#221714;" d="M324.85,131.088c-4.519-0.034-7.492-0.723-13.587-0.706c-6.11,0.015-6.842-0.517-10.679-0.663
			c-1.918-0.076-2.693-0.04-3.657-0.109c-0.482-0.037-1.014-0.072-1.769-0.102c-0.755-0.029-1.727-0.116-3.109-0.086
			c-0.692,0.006-1.211,0.011-1.597,0.014c-0.388,0.029-0.643,0.047-0.804,0.059c-0.323,0.028-0.272,0.035-0.169,0.049
			c0.206,0.029,0.612,0.086-1.343,0.392c-0.977,0.182-1.789,0.467-2.456,0.707c-0.669,0.239-1.169,0.585-1.557,0.823
			c-0.771,0.508-1.049,0.853-1.049,0.853s1.101,0.139,2.127,0.304c0.51,0.066,1.024,0.194,1.406,0.294
			c0.377,0.096,0.628,0.16,0.628,0.16s0.483-0.142,1.206-0.355c0.744-0.151,1.729-0.396,2.736-0.573
			c1.013-0.141,2.023-0.333,2.795-0.397c0.771-0.076,1.285-0.127,1.285-0.127s0.469-0.001,1.22,0.037
			c0.752,0.046,1.785,0.108,2.912,0.177c2.26,0.192,4.891,0.415,6.394,0.543c3.018,0.195,7.528,1.06,9.827,1.205
			c2.295,0.159,6.944-0.51,10.776-0.59C330.242,132.866,329.321,131.03,324.85,131.088z"/>
		<path style="fill:#221714;" d="M268.913,145.776c1.687,0.154,3.751,0.097,5.739-0.427c1.995-0.504,3.856-1.482,5.239-2.752
			c0.671-0.653,1.245-1.231,1.645-1.785c0.207-0.27,0.434-0.492,0.584-0.722c0.152-0.229,0.292-0.427,0.417-0.596
			c0.501-0.674,0.76-0.86,0.634-0.58c-0.126,0.279-0.163,0.754-0.342,1.541c-0.238,0.75-0.665,1.826-1.766,3.025
			c-2.329,2.285-4.87,3.202-6.296,3.655c-0.726,0.219-0.951,0.208-1.541,0.243c-0.591-0.013-1.555,0.072-3.756,0.02
			c-2.203-0.07-3.454-0.455-4.017-0.714c-0.564-0.275-0.442-0.505,0.179-0.525c0.621-0.021,1.448-0.1,2.113-0.193
			C268.41,145.881,268.913,145.776,268.913,145.776z"/>
		<path style="fill:#221714;" d="M268.998,134.465c2.078-0.096,4.588-0.672,6.953-1.735c2.373-1.052,4.564-2.62,6.154-4.407
			c0.762-0.914,1.424-1.706,1.845-2.45c0.225-0.363,0.466-0.674,0.633-0.974c0.153-0.306,0.294-0.572,0.421-0.799
			c0.507-0.908,0.775-1.178,0.651-0.815c-0.123,0.361-0.146,0.945-0.306,1.929c-0.11,0.479-0.326,1.029-0.591,1.701
			c-0.119,0.344-0.317,0.68-0.554,1.034c-0.23,0.358-0.486,0.741-0.775,1.146c-2.589,3.047-5.453,4.607-7.093,5.459
			c-0.823,0.453-1.106,0.462-1.814,0.638c-0.353,0.092-0.821,0.199-1.542,0.335c-0.715,0.16-1.685,0.343-3.056,0.513
			c-2.752,0.319-4.448-0.125-5.141-0.524c-0.692-0.404-0.439-0.598,0.279-0.51c0.363,0.045,0.813,0.008,1.248-0.007
			c0.447-0.061,0.894-0.11,1.292-0.19c0.396-0.091,0.746-0.172,0.997-0.231C268.849,134.523,268.998,134.465,268.998,134.465z"/>
		<path style="fill:#221714;" d="M267.496,119.195c1.598-0.13,3.488-0.675,5.288-1.555c1.815-0.861,3.499-2.092,4.959-3.288
			c1.461-1.202,2.429-2.14,3.061-2.664c0.613-0.54,0.898-0.655,0.726-0.412c-0.181,0.234-0.267,0.712-0.615,1.394
			c-0.325,0.696-0.906,1.614-2.017,2.66c-2.241,2.067-4.356,3.343-5.604,4.086c-0.626,0.376-0.84,0.411-1.396,0.542
			c-0.278,0.065-0.636,0.174-1.197,0.293c-0.554,0.146-1.306,0.309-2.365,0.508c-2.136,0.357-3.434,0.058-3.996-0.164
			c-0.569-0.235-0.447-0.482,0.138-0.56c0.293-0.039,0.634-0.097,0.976-0.165c0.337-0.097,0.68-0.196,0.989-0.285
			c0.305-0.085,0.568-0.186,0.755-0.266C267.383,119.241,267.496,119.195,267.496,119.195z"/>
		<path style="fill:#221714;" d="M134.703,162.591c-1.179-0.435-2.546-0.712-4.076-0.898c-0.766-0.099-1.579-0.192-2.418-0.33
			c-0.823-0.128-1.736-0.349-2.512-0.561c-1.41-0.358-3.025-0.324-4.567-0.105c-0.774,0.112-1.54,0.271-2.271,0.478
			c-0.695,0.189-1.407,0.48-2.091,0.775c-1.358,0.597-2.489,1.213-3.174,1.798c-0.35,0.298-0.515,0.55-0.561,0.693
			c-0.055,0.174,0.019,0.377,0.194,0.592c0.339,0.414,0.721,0.659,0.86,0.806c0.152,0.147,0.119,0.188-0.096,0.098
			c-0.215-0.089-0.502-0.152-0.866-0.301c-0.183-0.072-0.388-0.167-0.592-0.337c-0.203-0.161-0.432-0.43-0.493-0.803
			c-0.126-0.805,0.397-1.581,1.034-2.22c0.661-0.654,1.536-1.253,2.628-1.8c0.547-0.272,1.089-0.515,1.63-0.734
			c0.547-0.222,1.11-0.397,1.631-0.538c1.06-0.287,2.07-0.473,3.017-0.58c0.945-0.112,1.828-0.132,2.628-0.094
			c0.782,0.029,1.56,0.174,2.094,0.279c1.026,0.178,1.299,0.274,2.103,0.495c0.404,0.107,0.941,0.229,1.806,0.376
			c0.86,0.156,2.072,0.305,3.75,0.739c1.688,0.434,2.934,1.115,3.8,1.62c0.872,0.516,1.459,0.891,1.832,1.17
			c0.746,0.547,0.526,0.795-0.418,0.562c-0.934-0.234-2.182-0.63-3.156-0.869C135.443,162.66,134.703,162.591,134.703,162.591z"/>
		<path style="fill:#221714;" d="M113.502,167.982c-1.57,0.316-3.46,1.067-5.068,2.169c-0.802,0.557-1.469,1.205-1.732,1.836
			c-0.27,0.682-0.299,1.531-0.118,2.322c0.35,1.617,1.17,2.541,1.717,2.977c0.28,0.236,0.511,0.35,0.62,0.451
			c0.111,0.096,0.1,0.145-0.045,0.122c-0.278-0.044-0.767,0.108-1.573-0.169c-0.769-0.275-1.853-1.061-2.385-2.684
			c-0.522-1.595-0.382-3.299,0.376-4.525c0.768-1.189,1.608-1.804,2.188-2.314c0.595-0.492,0.82-0.533,1.372-0.744
			c0.566-0.175,1.439-0.551,3.538-1.199c2.116-0.624,3.55-0.424,4.144-0.121c0.598,0.31,0.409,0.597-0.15,0.663
			c-0.578,0.094-1.319,0.366-1.893,0.662C113.919,167.718,113.502,167.982,113.502,167.982z"/>
		<path style="fill:#221714;" d="M110.977,175.537c-0.549,0.6-1.095,1.316-1.43,2.091c-0.356,0.784-0.419,1.548-0.101,2.136
			c0.176,0.343,0.36,0.474,0.685,0.703c0.355,0.184,0.755,0.365,1.217,0.48c0.904,0.252,1.895,0.38,2.842,0.47
			c3.82,0.325,5.463,0.215,4.936,0.463c-0.279,0.093-0.658,0.422-1.397,0.74c-0.734,0.31-1.823,0.642-3.403,0.597
			c-1.577-0.057-3.004-0.208-4.257-0.621c-0.625-0.187-1.211-0.497-1.713-0.887c-0.512-0.461-0.818-0.91-1.03-1.354
			c-0.406-0.905-0.306-1.255-0.188-1.96c0.172-0.694,0.538-1.813,1.899-3.607c0.339-0.45,0.672-0.818,0.979-1.132
			c0.153-0.159,0.302-0.297,0.443-0.428c0.158-0.142,0.306-0.274,0.444-0.397c0.195-0.189,0.378-0.325,0.539-0.453
			c0.084-0.051,0.148-0.147,0.236-0.146c0.096,0.037,0.188,0.072,0.276,0.105c0.338,0.133,0.583,0.3,0.737,0.426
			c0.221,0.221,0.296,0.378,0.243,0.492c-0.037,0.118-0.306,0.15-0.545,0.114c-0.112-0.013-0.224-0.02-0.327-0.009
			c-0.12-0.035-0.151,0.178-0.203,0.268c-0.032,0.162-0.259,0.553-0.399,0.844C111.16,175.071,110.977,175.537,110.977,175.537z"/>
		<path style="fill:#221714;" d="M388.134,224.684c0.874,0.225,1.644,0.464,2.564,0.515c0.9,0.045,2.027-0.145,3.077-0.963
			c0.528-0.41,0.858-0.715,1.196-1.005c0.355-0.318,0.59-0.584,0.799-0.826c0.409-0.484,0.754-0.884,1.011-1.66
			c0.239-0.778,0.268-1.098,0.38-1.498c0.052-0.201,0.116-0.423,0.185-0.755c0.06-0.337,0.156-0.766,0.101-1.49
			c-0.057-0.73-0.308-1.209-0.411-1.401c-0.131-0.207-0.121-0.167-0.098-0.09c0.023,0.077,0.051,0.19-0.034,0.14
			c-0.103-0.037-0.216-0.287-0.893-0.738c-0.722-0.442-1.471-0.374-1.869-0.219c-0.432,0.155-0.659,0.381-0.808,0.572
			c-0.156,0.19-0.205,0.369-0.246,0.487c-0.035,0.12-0.039,0.19-0.039,0.19s0.611,0.205,1.047,0.568
			c0.22,0.182,0.371,0.402,0.43,0.578c0.059,0.179,0.041,0.299,0.041,0.299l0.009-0.062l0.021-0.081l0.004-0.014
			c-0.051,0.089-0.018,0.014,0.029,0.04c0.047,0.006,0.117,0.065,0.186,0.148c0.142,0.169,0.259,0.458,0.32,0.683
			c0.065,0.227,0.091,0.393,0.091,0.393s-0.111,0.604-0.402,1.257c-0.279,0.666-0.749,1.283-0.983,1.525l-0.196,0.177l-0.11,0.06
			l-0.176,0.086c-0.247,0.123-0.513,0.214-0.765,0.277c-0.509,0.131-0.952,0.135-1.231,0.19c-0.277,0.051-0.679,0.344-1.277,0.535
			c-0.587,0.199-1.346,0.273-1.978,0.081c-0.626-0.192-1.045,0.157-1.108,0.647C386.941,223.814,387.253,224.45,388.134,224.684z"/>
		<path style="fill:#221714;" d="M398.215,216.356c0.716-0.95,1.215-1.972,1.252-3.203c0.014-1.193-0.53-2.657-1.943-3.541
			c-0.691-0.44-1.259-0.65-1.72-0.823c-0.469-0.164-0.828-0.283-1.155-0.388c-0.649-0.197-1.174-0.392-2.047-0.441
			c-1.723-0.037-1.38-0.045-3.749-0.393c-2.328-0.317-0.009,0-1.632,0.115c-0.804,0.058-1.327,0.318-1.674,0.57
			c-0.34,0.245-0.501,0.487-0.501,0.487s0.395,0.479,0.829,0.939c0.44,0.458,0.88,0.916,0.88,0.916s0.894-0.182,1.789-0.364
			c0.877-0.173,1.754-0.346,1.754-0.346s0.812,0.071,1.735,0.213c0.93,0.134,1.922,0.389,2.417,0.542
			c0.499,0.144,1.019,0.517,1.325,0.946c0.314,0.429,0.426,0.843,0.507,1.077c0.08,0.232,0.423,0.528,0.561,1.1
			c0.153,0.553-0.009,1.356-0.515,1.847c-0.485,0.469-0.482,1.027-0.104,1.354C396.575,217.263,397.451,217.317,398.215,216.356z"/>
		<path style="fill:#221714;" d="M259.514,316.119c0.579,1.158,1.352,2.517,2.335,3.734c0.98,1.217,2.16,2.285,3.435,2.878
			c1.264,0.602,2.28,0.841,2.888,0.976c0.61,0.147,0.813,0.27,0.583,0.265c-0.229-0.01-0.57,0.117-1.165,0.201
			c-0.296,0.015-0.658,0.035-1.094,0.001c-0.426-0.08-0.946-0.145-1.498-0.406c-1.113-0.477-2.028-1.102-2.714-1.718
			c-0.357-0.296-0.643-0.603-0.923-0.858c-0.259-0.271-0.488-0.511-0.682-0.715c-0.367-0.42-0.443-0.566-0.647-0.951
			c-0.195-0.389-0.546-1.009-1.332-2.43c-1.548-2.833-1.337-3.641-0.785-2.901C258.473,314.942,259.514,316.119,259.514,316.119z"/>
		<path style="fill:#221714;" d="M257.719,303.357c0.263,1.473,0.692,3.225,1.339,4.937c0.643,1.71,1.525,3.372,2.632,4.557
			c0.296,0.268,0.563,0.532,0.827,0.749c0.283,0.194,0.542,0.371,0.777,0.533c0.516,0.231,0.92,0.493,1.264,0.573
			c0.666,0.234,0.891,0.388,0.628,0.348c-0.256-0.059-0.67,0.066-1.358-0.011c-0.172-0.032-0.361-0.066-0.567-0.105
			c-0.105-0.023-0.214-0.047-0.328-0.073c-0.107-0.047-0.218-0.095-0.333-0.146c-0.23-0.108-0.486-0.223-0.748-0.374
			c-0.24-0.18-0.497-0.381-0.768-0.606c-2.004-1.99-2.782-4.108-3.34-5.241c-0.469-1.177-0.208-0.718-1.064-4.367
			c-0.783-3.644-0.375-4.447-0.023-3.444C257.008,301.702,257.719,303.357,257.719,303.357z"/>
		<path style="fill:#221714;" d="M265.312,299.794c-0.502-0.571-0.86-1.113-1.349-1.633c-0.473-0.529-1.103-1.025-2.088-1.416
			c-1.002-0.357-1.506-0.608-1.922-0.869c-0.416-0.255-0.735-0.521-1.369-0.724c-0.637-0.187-0.898-0.244-1.214-0.371
			c-0.326-0.103-0.688-0.326-1.665-0.6c-2.001-0.426-0.003-0.029-1.409,0.059c-0.35,0.049-0.639,0.149-0.865,0.278
			c-0.223,0.146-0.386,0.31-0.502,0.463c-0.233,0.305-0.284,0.565-0.284,0.565s0.452,0.38,0.838,0.778
			c0.39,0.385,0.72,0.832,0.72,0.832s0.534-0.221,1.117-0.341c0.289-0.082,0.587-0.094,0.813-0.136
			c0.227-0.041,0.379-0.033,0.379-0.033s0.531,0.178,1.118,0.471c0.296,0.133,0.601,0.323,0.886,0.465
			c0.277,0.174,0.534,0.309,0.726,0.404c0.795,0.366,1.586,1.501,2.058,1.909c0.479,0.37,2.123,0.593,2.872,1.508
			C264.877,302.292,266.315,300.983,265.312,299.794z"/>
		<path style="fill:#221714;" d="M193.98,159.849c-2.871-1.84-6.321-4.043-10.213-5.733c-3.888-1.806-7.734-3.955-11.335-5.676
			c-7.173-3.53-10.49-3.662-9.269-3.595c0.592,0.097,1.497,0.163,2.964,0.531c1.467,0.356,3.488,1.022,6.225,2.291
			c2.731,1.278,5.134,2.528,7.195,3.556c2.059,1.033,3.773,1.848,5.058,2.385c1.298,0.562,1.658,0.758,2.628,1.297
			c0.967,0.543,2.555,1.433,6.12,3.678c3.536,2.251,5.639,3.59,6.626,4.219c0.962,0.637,0.737,0.641-0.341,0.099
			C197.488,161.815,193.98,159.849,193.98,159.849z"/>
		<path style="fill:#221714;" d="M196.209,169.204c-3.087-0.626-6.734-1.608-10.533-2.472c-3.793-0.865-7.776-1.56-11.398-1.469
			c-3.631,0.074-6.044,1.013-7.384,1.653c-1.336,0.674-1.743,0.917-1.288,0.602c0.46-0.299,1.098-0.844,2.351-1.455
			c1.241-0.606,3.13-1.302,5.926-1.446c2.79-0.137,5.286,0.171,7.386,0.492c2.102,0.326,3.818,0.688,5.084,0.946
			c1.266,0.261,1.619,0.369,2.596,0.638c0.978,0.255,2.567,0.744,6.325,1.569c3.761,0.81,6.03,0.985,7.08,1.073
			c1.051,0.085,0.882,0.198-0.23,0.253c-1.109,0.033-2.592-0.029-3.793-0.144C197.128,169.335,196.209,169.204,196.209,169.204z"/>
		<path style="fill:#221714;" d="M199.408,175.686c-2.237,0.193-4.909,0.688-7.634,1.386c-2.726,0.697-5.509,1.584-8.05,2.365
			c-5.077,1.584-7.189,1.998-6.432,1.739c0.76-0.25,2.175-1.048,5.974-2.291c3.798-1.245,6.862-2.182,8.669-2.688
			c0.903-0.259,1.169-0.3,1.896-0.424c0.726-0.122,1.91-0.363,4.7-0.725c2.798-0.331,4.482-0.241,5.248-0.158
			c0.768,0.086,0.633,0.2-0.163,0.253c-0.796,0.04-1.853,0.173-2.706,0.291C200.063,175.576,199.408,175.686,199.408,175.686z"/>
		<path style="fill:#221714;" d="M246.072,167.188c2.048,0.42,4.273,1.022,6.576,1.784c2.302,0.759,4.691,1.68,7.097,2.612
			c4.815,1.79,10.041,3.121,14.575,5.006c2.27,0.929,4.132,1.901,5.597,2.825c0.361,0.239,0.704,0.465,1.028,0.679
			c0.314,0.23,0.598,0.462,0.87,0.671c0.555,0.405,0.973,0.838,1.343,1.186c0.379,0.339,0.644,0.667,0.853,0.926
			c0.206,0.257,0.359,0.447,0.458,0.572c0.19,0.25,0.155,0.238-0.093-0.031c-0.252-0.267-0.566-0.602-1.001-1.004
			c-0.479-0.355-1.001-0.869-1.777-1.351c-1.491-1.039-3.718-2.28-7.078-3.673c-3.371-1.371-6.52-2.318-9.194-3.151
			c-2.678-0.821-4.892-1.533-6.504-2.135c-1.599-0.59-2.044-0.786-3.285-1.278c-0.621-0.246-1.44-0.569-2.714-1.011
			c-1.275-0.437-3.001-1.02-5.475-1.598c-4.957-1.147-8.013-1.077-9.401-1.135c-1.398-0.026-1.172-0.149,0.294-0.266
			c1.463-0.095,3.427-0.087,5.02,0.049C244.855,166.986,246.072,167.188,246.072,167.188z"/>
		<path style="fill:#221714;" d="M231.867,155.674c-5.469,2.635-7.61-6.727-1.96-8.418c6.481-1.94,9.283,6.173,4.43,8.829
			C233.158,156.039,231.778,155.682,231.867,155.674z"/>
		<path style="fill:#221714;" d="M223.247,177.747c0.449,0.198,0.56,0.421,0.881,0.846c0.16,0.215,0.425,0.502,0.776,0.743
			c0.361,0.231,0.784,0.393,1.252,0.462c0.457,0.057,0.794,0.099,1.069,0.133c0.271,0.039,0.482,0.111,0.668,0.158
			c0.371,0.102,0.67,0.268,1.177,0.318c1.016,0.101,0.807,0.097,2.199,0.576c1.399,0.469,0.002,0.008,1.009,0.045
			c1.009,0.031,1.422-0.753,1.422-0.753l-0.944-1.619c0,0-0.539,0.08-1.077,0.161c-0.539,0.067-1.078,0.133-1.078,0.133
			s-0.48-0.128-1.038-0.291c-0.569-0.144-1.188-0.358-1.55-0.415c-0.349-0.076-0.768-0.27-1.075-0.489
			c-0.16-0.106-0.262-0.225-0.373-0.31c-0.073-0.105-0.158-0.158-0.211-0.217c-0.111-0.061-0.438-0.166-1.057-0.497
			c-0.625-0.329-1.333-0.432-1.845-0.609C222.361,175.829,222.388,177.443,223.247,177.747z"/>
		<path style="fill:#221714;" d="M210.486,216.112c-3.748,0.929-6.815,1.894-10.104,3.129c-3.29,1.237-6.765,2.817-11.267,5.097
			c-4.505,2.273-7.128,3.326-9.35,4.08c-1.447,0.491-2.972,0.968-6.978,2.659c-2.902,1.221-4.066,1.678-5.547,2.181
			c-1.481,0.469-3.28,1.116-7.481,1.992c-2.1,0.41-3.136,0.463-3.616,0.526c-0.479,0.044-0.403,0.042-0.253,0.058
			c0.15,0.017,0.378,0.019,0.199,0.088c-0.176,0.048-0.77,0.197-2.228,0.271c-2.921,0.124-4.733-0.336-5.891-0.781
			c-0.568-0.235-0.999-0.433-1.264-0.593c-0.277-0.147-0.427-0.21-0.427-0.21s0.16,0.331,0.451,0.859
			c0.171,0.234,0.362,0.54,0.612,0.833c0.263,0.272,0.538,0.613,0.874,0.867c0.167,0.138,0.335,0.276,0.5,0.412
			c0.178,0.118,0.353,0.234,0.523,0.347c0.344,0.241,0.686,0.409,0.984,0.565c0.298,0.163,0.553,0.275,0.733,0.347
			c0.181,0.076,0.284,0.12,0.284,0.12s0.958,0.115,2.345,0.037c1.389-0.063,4.575,0.14,6.313-0.282
			c1.741-0.415,3.426-0.958,4.673-1.395c1.248-0.436,2.065-0.757,2.065-0.757s3.061-0.927,6.622-2.29
			c1.768-0.686,3.683-1.429,5.451-2.115c0.876-0.339,1.714-0.662,2.468-0.927c0.784-0.288,1.493-0.549,2.09-0.769
			c4.786-1.817,11.872-4.622,15.316-6.099c1.724-0.755,2.826-2.547,5.669-3.835c2.838-1.289,6.067-2.499,9.124-3.09
			c1.521-0.318,2.583-0.549,3.199-0.822c0.615-0.267,0.787-0.533,0.525-0.738C216.586,215.486,214.253,215.191,210.486,216.112z"/>
		<path style="fill:#221714;" d="M339.392,132.863c12.965,0.619,21.562,2.287,39.007,2.641c4.36,0.09,7.763,0.16,10.588,0.219
			c1.412,0.046,2.678,0.088,3.848,0.126c0.324,0.012,0.497,0.029,0.727,0.058c0.223,0.035,0.446,0.081,0.67,0.144
			c0.446,0.122,0.884,0.282,1.305,0.472c1.688,0.764,3.123,1.788,4.521,3.024c1.362,1.244,2.837,2.772,3.81,4.853
			c0.466,1.037,0.558,1.903,0.438,2.539c-0.01,0.168-0.087,0.305-0.115,0.454c-0.079,0.149-0.094,0.238-0.203,0.432
			c-0.208,0.372-0.403,0.72-0.588,1.05c-0.36,0.664-0.711,1.242-1.072,1.788c-0.36,0.546-0.677,1.085-1.076,1.618
			c-1.532,2.16-3.464,4.719-8.604,10.182c-2.595,2.713-3.958,4.016-4.573,4.637c-0.62,0.616-0.513,0.532-0.299,0.365
			c0.419-0.342,1.31-0.992-2.414,2.908c-3.746,3.883-6.214,6.788-7.702,8.757c-1.492,1.965-2.025,2.971-2.025,2.971l9.578-5.807
			c0,0,4.117-4.367,8.033-8.95c1.951-2.296,3.865-4.628,5.224-6.445c0.697-0.892,1.243-1.667,1.634-2.2
			c0.388-0.535,0.611-0.841,0.611-0.841s0.211-0.272,0.591-0.762c0.369-0.499,0.944-1.186,1.577-2.094
			c0.321-0.451,0.673-0.943,1.05-1.471c0.358-0.544,0.739-1.125,1.139-1.735c0.412-0.602,0.778-1.281,1.188-1.962
			c0.101-0.172,0.202-0.345,0.304-0.519c0.097-0.15,0.214-0.389,0.326-0.64c0.225-0.485,0.364-1.02,0.443-1.556
			c0.155-1.083-0.01-2.154-0.313-3.114c-0.305-0.965-0.749-1.843-1.253-2.653c-1.014-1.619-2.279-2.97-3.589-4.144
			c-1.322-1.161-2.703-2.136-4.093-2.879c-1.385-0.747-2.778-1.275-4.171-1.468c-0.807-0.085-1.249-0.073-1.848-0.107
			c-0.572-0.027-1.158-0.055-1.756-0.084c-1.196-0.061-2.438-0.129-3.704-0.222c-2.533-0.169-5.165-0.388-7.728-0.612
			c-5.125-0.458-9.976-0.968-13.221-1.204c-6.482-0.441-19.601-0.292-30.508-0.612c-2.728-0.077-4.642,0.072-5.767,0.321
			c-1.125,0.242-1.463,0.575-1.056,0.914C329.148,131.943,332.919,132.567,339.392,132.863z"/>
		<path style="fill:#221714;" d="M217.05,36.314c1.235-2.47,3.704-6.997,5.762-2.058c2.058,4.939-0.823,11.113,2.058,4.939
			c2.881-6.174,2.881-6.174,2.881-6.174s8.232,0.411,9.055-0.823c0.823-1.235-0.412,4.528,0.823-1.235
			c1.235-5.762,4.939-3.704,6.997-1.646c2.058,2.058,4.528-1.235,0-6.585c-4.527-5.351-11.524-21.402-14.405-22.637
			c-2.881-1.235-12.347,9.878-14.405,18.11c-2.058,8.232-4.939,14.405-3.704,17.698C213.345,39.195,217.05,36.314,217.05,36.314z"/>
		<path style="fill:#221714;" d="M149.55,71.299c3.293-2.058,8.232-1.235,6.585,1.646c-1.646,2.881-6.174,3.704-1.646,2.881
			c4.527-0.823-0.412-0.823,4.527-0.823c4.939,0,1.235,7.409,6.174,4.116c4.939-3.293,14.406-2.47,6.585,2.469
			c-7.82,4.939-18.521,9.467-27.576,7.82c-9.055-1.646-23.46-13.171-12.348-13.582C142.964,75.415,149.55,71.299,149.55,71.299z"/>
		<path style="fill:#221714;" d="M248.101,351.172c0.127,3.033,0.061,6.748-0.751,10.492c-0.804,3.741-2.246,7.436-3.856,10.578
			c-1.605,3.15-2.956,5.21-3.791,6.405c-0.841,1.191-1.196,1.499-0.953,1.034c0.467-0.939,0.907-3.094,3.196-7.788
			c2.297-4.7,3.377-8.729,3.661-11.099c0.115-1.192,0.273-1.507,0.43-2.432c0.071-0.462,0.236-1.066,0.306-2.015
			c0.038-0.474,0.092-1.03,0.125-1.694c-0.001-0.665,0.016-1.437-0.013-2.337c-0.169-3.601-0.442-5.758-0.365-6.789
			c0.059-1.03,0.341-0.915,0.608,0.11c0.134,0.511,0.304,1.107,0.484,1.715c0.156,0.615,0.314,1.241,0.457,1.804
			c0.153,0.563,0.273,1.066,0.339,1.431C248.055,350.951,248.101,351.172,248.101,351.172z"/>
	</g>
</g>
</svg>
