<?xml version="1.0" encoding="iso-8859-1"?>
<!-- Generator: Adobe Illustrator 21.1.0, SVG Export Plug-In . SVG Version: 6.00 Build 0)  -->
<svg version="1.1" id="_x31_1" xmlns="http://www.w3.org/2000/svg" xmlns:xlink="http://www.w3.org/1999/xlink" x="0px" y="0px"
	 viewBox="0 0 512 512" style="enable-background:new 0 0 512 512;" xml:space="preserve">
<g>
	<path style="fill:#FFFFFF;" d="M232.658,177.693c0,0-6.92-33.736-12.11-41.521c-5.19-7.785-18.165-46.711-14.705-64.877
		c3.46-18.166,9.515-35.466,15.57-41.521c6.055-6.055,9.704-22.966,13.84-22.491c4.136,0.476,17.63,17.088,21.626,29.411
		s7.785,25.086,2.595,38.926c-5.19,13.84-10.38,36.331-11.245,44.116c-0.865,7.785,4.923,34.867,6.92,38.061
		c1.997,3.194,12.11,1.73,11.245-12.11c-0.865-13.84,2.595-44.116,9.515-63.147c6.92-19.031,16.709-41.916,32.006-49.307
		c15.297-7.391,16.922-0.802,19.896,5.19c2.974,5.992,5.123,19.353,1.73,32.006s-13.84,31.141-19.896,39.791
		s-22.656,28.179-25.086,41.521c-2.429,13.342-3.46,20.761,2.595,23.356c6.055,2.595,12.975,7.785,20.761,18.166
		c7.785,10.38,12.11,24.221,11.245,29.411c-0.865,5.19-6.92,12.975-6.92,12.975s-17.301,12.11-20.761,20.761
		c-3.46,8.65-4.325,22.491-1.73,32.871s10.38,57.092,14.705,62.282c4.325,5.19,16.436,13.84,18.166,25.086
		c1.73,11.245,1.73,15.57,1.73,15.57l30.276,4.325c0,0,15.57,16.435,20.761,28.546c5.19,12.11,3.46,32.006-9.515,45.846
		c-12.975,13.84-36.331,12.975-47.577,10.38c-11.245-2.595-32.006-6.92-32.006-6.92s-9.515-2.595-16.435,2.595
		c-6.92,5.19-66.607,26.816-80.447,31.141c-13.84,4.325-34.601,4.325-51.902-1.73c-17.3-6.055-31.141-18.166-25.951-44.116
		c5.19-25.951,22.491-43.251,24.221-45.846c1.73-2.595-0.673-19.284,2.595-25.951s1.73-48.441,6.055-64.012
		c4.325-15.57,33.736-59.687,38.061-65.742c4.325-6.055,21.626-25.086,20.761-30.276c-0.865-5.19,10.38-40.656,16.436-44.116
		C225.738,182.883,232.658,177.693,232.658,177.693z"/>
	<g>
		<path style="fill:#231815;" d="M272.284,162.452c2.502,6.214,4.153,8.372,5.619,9.32c0.72,0.432,1.382,0.432,1.869,0.39
			c0.48-0.02,0.799-0.167,0.799-0.167s1.095,0.277,2.832,0.715c0.848,0.308,1.853,0.672,2.958,1.074
			c1.095,0.448,2.242,1.061,3.48,1.621c4.852,2.484,9.742,6.807,12.344,8.968c1.298,1.092,5.234,5.726,9.123,12.98
			c1.939,3.614,3.936,7.836,5.749,12.387c1.732,4.444,2.83,9.532,1.57,14.188c-1.193,4.67-4.516,8.489-8.022,11.647
			c-3.533,3.176-7.248,5.899-10.367,8.547c-3.143,2.624-5.711,5.163-7.442,7.296c-1.759,2.11-2.7,3.752-3.024,4.303
			c-0.671,1.1-0.884,2.338-0.882,3.326c0.052,1.02,0.348,1.82,0.786,2.253c0.436,0.435,1.01,0.514,1.613,0.138
			c0.598-0.383,1.208-1.211,1.929-2.622c0.382-0.696,1.215-2.332,2.83-4.441c1.58-2.129,3.992-4.677,7.07-7.42
			c3.061-2.77,6.812-5.685,10.512-9.299c1.831-1.819,3.654-3.827,5.155-6.183c1.502-2.34,2.644-5.043,3.129-7.866
			c1-5.709-0.593-11.294-2.572-15.876c-1.913-4.57-3.96-8.755-5.876-12.333c-3.81-7.18-7.349-11.768-7.628-12.771
			c-0.623-1.933-4.376-6.818-9.385-10.549c-4.932-3.817-10.86-6.223-12.744-6.995c-1.811-1.062-4.702-1.765-7.096-2.217
			C274.201,162.582,272.284,162.452,272.284,162.452z"/>
		<path style="fill:#231815;" d="M250.323,233.913c-2.193,1.701-4.771,3.801-7.691,5.662c-2.906,1.866-6.133,3.52-9.282,4.415
			c-3.148,0.905-5.498,0.9-6.87,0.717c-1.379-0.192-1.814-0.514-1.357-0.601c0.936-0.214,2.484-1.945,6.741-3.387
			c4.296-1.511,7.309-3.665,8.863-5.092c0.781-0.721,1.069-0.811,1.845-1.131c0.742-0.36,2.015-0.912,4.423-2.954
			c2.379-2.055,3.97-3.126,4.977-3.415c1.002-0.29,1.358,0.202,0.865,1.038C251.908,230.923,250.323,233.913,250.323,233.913z"/>
		<path style="fill:#231815;" d="M280.256,237.363c-2.433,1.939-5.202,5.433-8.331,7.34c-3.119,1.899-5.217,1.391-4.778,1.091
			c0.431-0.32,0.372-2.209,2.446-3.807c2.08-1.61,3.416-3.278,4.053-4.375c0.618-1.118,0.813-0.125,3.416-2.67
			c2.526-2.573,4.442-1.848,4.029-0.774C280.682,235.23,280.256,237.363,280.256,237.363z"/>
		<path style="fill:#231815;" d="M260.962,163.822c-1.588-8.676-2.566-15.042-3.724-19.951c-0.242-1.227-0.522-2.327-0.811-3.294
			c-0.235-0.984-0.443-1.846-0.657-2.547c-0.208-0.702-0.399-1.251-0.537-1.625c-0.135-0.376-0.208-0.577-0.208-0.577
			s-0.103-0.458-0.294-1.296c-0.172-0.843-0.503-2.058-0.758-3.611c-0.487-3.104-1.108-7.515-1.086-12.615
			c-0.029-5.091,0.4-10.844,1.38-16.495c0.267-1.407,0.517-2.819,0.821-4.206c0.338-1.38,0.672-2.749,1.004-4.096
			c0.767-2.662,1.566-5.225,2.384-7.664c1.651-4.838,3.181-10.69,4.026-17.052c0.872-6.347,0.968-13.225-0.049-19.777
			c-0.978-6.56-3.036-12.694-5.302-17.841c-1.191-2.549-2.31-4.924-3.491-6.969c-1.093-2.098-2.213-3.876-3.137-5.398
			c-3.719-6.087-7.981-10.29-9.556-11.049c-0.796-0.38-0.963,0.114-0.198,1.717c0.767,1.603,2.5,4.287,5.236,8.486
			c2.673,4.226,6.261,9.955,9.14,16.805c2.874,6.824,5.018,14.803,5.237,22.709c0.341,7.893-0.767,15.53-2.166,21.713
			c-0.667,3.105-1.483,5.841-2.183,8.132c-0.696,2.289-1.325,4.171-1.826,5.455c-1.935,5.178-3.774,12.498-4.675,19.999
			c-0.96,7.494-0.951,15.125-0.517,20.773c0.196,2.825,0.672,6.261,1.551,9.769c0.468,1.749,0.892,3.544,1.581,5.244
			c0.316,0.857,0.629,1.708,0.938,2.545c0.348,0.823,0.755,1.609,1.12,2.386c0.377,0.774,0.743,1.527,1.095,2.253
			c0.426,0.691,0.835,1.356,1.223,1.988c0.779,1.265,1.465,2.407,2.2,3.258C260.112,162.747,260.962,163.822,260.962,163.822z"/>
		<path style="fill:#231815;" d="M291.267,167.871c-4.636,0.142-8.101-0.985-9.897-2.93c-1.879-1.932-2.078-4.526-0.879-6.809
			c1.264-2.272,3.2-5.013,4.812-7.32c1.566-2.345,2.691-4.411,1.97-5.937c-0.367-0.757,0.443-3.369,2.112-6.822
			c1.669-3.452,4.244-7.672,7.099-11.843c5.727-8.35,12.374-16.632,14.449-19.797c1.034-1.577,3.72-5.285,6.783-10.184
			c1.522-2.451,3.144-5.211,4.486-8.173c0.639-1.434,1.298-3.101,1.955-4.761c0.652-1.653,1.311-3.322,1.968-4.989
			c2.592-6.655,4.883-13.313,6.104-18.739c1.267-5.425,1.374-9.538,1.086-10.951c-0.297-1.423-0.699-2.815-0.951-4.2
			c-0.434-1.349-0.62-2.732-1.027-4.03c-0.186-0.654-0.348-1.308-0.485-1.967c-0.144-0.657-0.389-1.273-0.537-1.922
			c-0.257-1.319-0.727-2.539-1.005-3.876c-0.767-2.527,0.228-4.524,1.61-5.355c1.348-0.835,3.158-0.185,3.46,2.145
			c0.064,0.575,0.159,1.354,0.395,2.23c0.228,0.88,0.576,1.872,0.789,3.011c0.247,1.126,0.637,2.32,0.797,3.614
			c0.225,1.282,0.495,2.609,0.576,3.956c0.586,5.371,0.196,10.79-0.155,12.683c-0.115,0.961-0.934,4.874-2.504,10.097
			c-1.573,5.223-4.019,11.696-6.55,18.079c-1.259,3.174-2.465,6.432-4.009,9.308c-1.5,2.886-3.082,5.492-4.516,7.731
			c-2.859,4.485-5.06,7.557-5.457,8.182c-0.801,1.248-5.851,8.503-10.716,15.994c-2.423,3.752-4.753,7.595-6.466,10.769
			c-1.705,3.18-2.842,5.657-3.066,6.601c-0.948,3.744-1.391,6.739-1.803,10.408c-0.184,1.825-1.238,3.124-1.945,4.64
			c-0.351,0.753-0.564,1.553-0.578,2.431c0.032,0.875,0.341,1.834,1.076,2.826c1.554,1.959,1.803,3.235,1.676,4.239
			C291.836,167.18,291.267,167.871,291.267,167.871z"/>
		<path style="fill:#231815;" d="M265.382,149.492c4.271-6.739,6.025-12.899,6.728-17.655c0.701-4.72,0.319-7.941,0.319-7.941
			s-0.025-1.776,0.068-4.727c0.101-2.95,0.28-7.086,0.799-11.773c0.938-9.373,3.267-21.002,6.834-29.558
			c3.43-8.559,8.498-19.949,15.456-29.146c3.448-4.601,7.358-8.585,11.225-11.543c3.844-3.022,7.721-4.749,10.549-5.966
			c1.471-0.464,2.852-1.001,4.149-1.477c1.324-0.374,2.543-0.769,3.622-1.162c2.179-0.634,3.823-1.174,4.506-1.691
			c0.684-0.498,0.411-0.895-1.259-1.038c-0.831-0.057-2.021-0.111-3.587,0.029c-0.777,0.117-1.651,0.264-2.625,0.447
			c-0.487,0.095-0.999,0.195-1.538,0.3c-0.532,0.132-1.076,0.328-1.651,0.507c-4.629,1.336-10.58,4.291-15.956,8.976
			c-5.403,4.64-10.282,10.769-13.977,17.19c-7.517,12.838-11.249,26.076-13.222,30.718c-1.951,4.682-3.889,11.289-5.362,17.998
			c-1.497,6.706-2.555,13.497-3.371,18.507c-0.845,5.008-1.509,12.24-1.7,18.241C265.161,144.723,265.382,149.492,265.382,149.492z"
			/>
		<path style="fill:#231815;" d="M241.97,0c-5.025,2.245-8.701,3.082-11.014,4.185c-2.321,1.091-3.396,2.655-3.502,5.181
			c-0.11,4.991-1.473,14.575-5.234,15.26c-0.939,0.181-2.876,2.64-5.388,6.409c-2.482,3.823-5.641,8.775-8.334,14.869
			c-0.645,1.521-1.301,3.279-1.717,5.048c-0.358,1.553-0.693,3.108-0.975,4.656c-0.568,3.094-0.951,6.14-1.164,8.945
			c-0.436,5.621-0.194,10.189-0.188,12.568c0.02,2.42,0.287,8.045,0.904,15.352c0.659,7.668,3.095,16.477,6.023,24.881
			c2.928,8.416,6.266,16.511,8.758,23.03c2.512,6.512,4.176,11.446,4.386,13.293c0.809,7.407,2.465,14.781,5.178,21.664
			c1.243,3.426,3.641,4.498,5.368,4.124c1.727-0.367,2.742-2.335,1.262-4.7c-0.718-1.178-1.615-3.322-2.423-6
			c-0.929-2.641-1.843-5.8-2.852-8.916c-1.96-6.252-3.926-12.447-4.778-14.618c-0.443-1.077-2.274-5.528-4.79-11.651
			c-2.506-6.119-5.675-13.916-8.221-21.882c-1.233-3.991-2.374-8.008-3.124-11.864c-0.346-1.931-0.759-3.798-0.89-5.609
			c-0.204-1.802-0.384-3.524-0.456-5.15c-0.422-6.477-0.591-11.087-0.579-11.992c-0.007-0.903-0.064-4.057,0.226-8.331
			c0.296-4.273,1.113-9.648,2.541-14.911c0.612-2.676,1.651-5.143,2.884-7.443c1.21-2.294,2.495-4.407,3.676-6.27
			c2.37-3.719,4.32-6.449,5.129-7.316c3.262-3.458,5.994-6.026,9.204-9.659c1.602-1.827,2.026-4.049,2.729-6.167
			c0.701-2.156,1.661-4.113,4.45-6.094c2.808-2.002,3.788-4.837,3.796-7.099c-0.017-1.179-0.199-2.095-0.454-2.794
			C242.17,0.332,241.97,0,241.97,0z"/>
		<path style="fill:#231815;" d="M230.975,185.148c-2.739-2.209-5.259-3.273-7.329-3.653c-1.992-0.275-3.55,0.094-4.663,0.65
			c-1.085,0.589-1.657,1.426-2,2.045c-0.335,0.632-0.402,1.092-0.402,1.092s-0.419,0.798-0.963,2.159
			c-0.289,0.659-0.635,1.449-1.024,2.335c-0.38,0.876-0.716,1.879-1.14,2.895c-1.635,4.108-3.35,9.026-5.711,12.504
			c-2.392,3.475-4.523,8.626-6.285,13.46c-1.767,4.839-3.29,9.368-4.438,11.857c-1.059,2.529-1.037,5.057-0.167,6.249
			c0.824,1.16,2.492,0.782,4.298-3.017c1.801-3.799,3.633-10.555,5.418-16.714c1.769-6.172,3.852-11.733,5.536-13.34
			c1.673-1.608,3.323-3.999,5.021-6.279c0.84-1.145,1.76-2.202,2.57-3.221c0.875-0.958,1.749-1.776,2.511-2.44
			c0.779-0.649,1.75-1.354,2.649-2.181c0.919-0.806,1.968-1.477,2.822-2.2C229.522,186.118,230.975,185.148,230.975,185.148z"/>
		<path style="fill:#231815;" d="M129.796,424.516c-1.497,1.711-5.229,6.405-8.944,13.28c-3.756,6.811-7.365,15.952-8.458,25.474
			c-0.542,4.743-0.404,9.549,0.536,13.939c0.921,4.397,2.661,8.333,4.79,11.473c0.571,0.759,1.036,1.563,1.64,2.223
			c0.591,0.67,1.162,1.318,1.712,1.94c0.59,0.585,1.2,1.108,1.755,1.627c0.281,0.257,0.556,0.508,0.823,0.752
			c0.294,0.216,0.579,0.426,0.857,0.63c2.159,1.709,4.11,2.635,5.214,3.235c0.598,0.239,1.659,0.729,3.12,1.446
			c0.737,0.346,1.632,0.651,2.597,1.05c0.485,0.193,0.993,0.398,1.529,0.611c0.552,0.174,1.132,0.356,1.735,0.545
			c4.79,1.57,11.431,2.962,19.355,3.463c0.99,0.061,1.997,0.122,3.021,0.185c1.024,0.047,2.053-0.024,3.102-0.029
			c2.097-0.058,4.251-0.039,6.462-0.151c4.435-0.519,9.086-0.852,13.85-1.869c4.785-0.74,9.647-2.051,14.599-3.209
			c2.465-0.652,4.932-1.398,7.415-2.097l3.729-1.067l3.708-1.2c19.813-6.314,39.232-14.244,54.546-20.364
			c15.305-6.156,26.54-10.493,29.32-11.503c17.057-6.578,19.483-9.022,21.768-7.091c2.485,2.169,3.712,5.408-1.098,7.843
			c-4.756,2.258-17.02,2.294-19.602,4.373c-1.286,0.981-10.147,4.393-19.485,8.029c-9.36,3.612-19.174,7.4-22.447,8.662
			c-1.647,0.607-13.665,5.64-31.274,11.892c-4.384,1.603-9.199,3.079-14.224,4.733c-5.097,1.456-10.402,3.126-16.025,4.378
			c-11.161,2.652-23.369,4.769-35.762,4.183c-6.133-0.246-12.274-1.123-18.194-2.639c-5.91-1.532-11.612-3.837-16.574-7.123
			c-4.947-3.272-9.155-7.518-11.901-12.334c-2.798-4.785-4.291-9.9-4.916-14.651c-1.221-9.584,0.558-17.574,2.081-23.056
			c1.571-5.526,3.058-8.729,3.268-9.286c0.879-2.221,2.205-6.881,4.155-11.58c1.894-4.716,4.526-9.351,6.856-11.642
			c1.191-1.126,2.556-1.98,3.942-2.528c1.406-0.531,2.796-0.787,3.986-0.803c2.381-0.031,3.97,0.889,3.408,2.38
			c-0.551,1.503-2.105,2.884-3.413,4.017C131.021,423.766,129.796,424.516,129.796,424.516z"/>
		<path style="fill:#231815;" d="M176.222,308.443c-1.507,1.421-2.882,3.022-4.112,4.711c-1.056,1.724-1.899,3.542-2.646,5.351
			c-1.203,3.637-1.798,7.253-1.676,10.291c-0.079,3.074,0.503,5.556,0.894,7.281c0.203,0.862,0.389,1.533,0.522,1.988
			c0.135,0.454,0.255,0.685,0.255,0.685s0.683,2.123,1.816,5.651c0.669,1.713,1.472,3.768,2.372,6.075
			c1.031,2.246,2.122,4.754,3.433,7.343c2.617,5.188,5.959,10.75,9.536,16.104c3.692,5.278,7.542,10.392,11.191,14.739
			c0.857,1.136,1.904,2.185,2.931,3.326c1.046,1.124,2.097,2.32,3.318,3.409c1.206,1.104,2.385,2.293,3.715,3.394
			c1.362,1.065,2.705,2.233,4.204,3.195c5.866,4.073,12.626,7.37,19.392,9.908c13.56,5.139,27.133,6.967,34.986,7.433
			c7.905,0.581,14.462-0.979,16.049-1.977c0.813-0.497,0.427-0.888-1.509-1.037c-1.933-0.147-5.422-0.016-10.933-0.209
			c-5.506-0.16-12.943-0.81-21.046-2.457c-8.111-1.587-16.826-4.318-24.827-7.882c-3.948-1.875-7.797-3.832-11.146-6.148
			c-0.874-0.529-1.657-1.153-2.448-1.743c-0.775-0.612-1.593-1.136-2.293-1.795c-1.434-1.268-2.838-2.462-4.121-3.656
			c-1.232-1.249-2.397-2.433-3.489-3.54c-1.088-1.111-1.98-2.258-2.849-3.254c-1.744-1.987-2.953-3.763-3.768-5.023
			c-3.249-5.042-7.591-11.872-11.031-19.153c-3.492-7.25-6.033-14.885-7.162-20.621c-0.243-1.441-0.682-3.006-0.877-4.698
			c-0.221-1.684-0.454-3.46-0.691-5.269c-0.101-1.81-0.203-3.652-0.304-5.465c0.058-1.801,0.113-3.574,0.166-5.258
			c0.085-1.678,0.412-3.23,0.568-4.655c0.128-1.436,0.473-2.666,0.745-3.7C175.906,309.712,176.222,308.443,176.222,308.443z"/>
		<path style="fill:#231815;" d="M218.385,308.812c-5.474,1.211-8.268,4.008-9.527,6.386c-0.618,1.2-0.9,2.286-1.025,3.062
			c-0.139,0.772-0.063,1.261-0.063,1.261s-0.105,0.998-0.279,2.652c-0.236,1.629-0.319,3.969-0.537,6.554
			c-0.348,5.235-0.064,11.618,0.257,16.719c0.035,0.644,0.071,1.315,0.11,2.01c0.108,0.684,0.255,1.389,0.4,2.115
			c0.297,1.451,0.581,3.001,1.21,4.488c0.586,1.497,1.059,3.107,1.94,4.53l1.21,2.193l0.612,1.09l0.737,0.998
			c1,1.306,1.924,2.652,2.95,3.822c1.091,1.109,2.139,2.177,3.124,3.178c0.938,1.053,2.058,1.745,2.943,2.517
			c0.914,0.738,1.73,1.397,2.421,1.955c2.909,2.035,5.863,2.857,6.908,2.558c1.061-0.316,0.377-1.78-3.665-4.419
			c-1.063-0.605-2.085-1.587-3.349-2.515c-0.622-0.477-1.272-0.977-1.946-1.494c-0.676-0.518-1.255-1.178-1.919-1.785
			c-0.65-0.623-1.318-1.262-1.994-1.911c-0.71-0.626-1.22-1.434-1.85-2.155c-0.607-0.745-1.216-1.496-1.826-2.245
			c-0.531-0.804-1.017-1.636-1.524-2.45c-0.468-0.832-1.071-1.592-1.411-2.465c-0.377-0.856-0.745-1.696-1.107-2.515
			c-0.177-0.411-0.355-0.818-0.527-1.216c-0.145-0.41-0.247-0.827-0.368-1.229c-0.225-0.81-0.441-1.59-0.649-2.331
			c-0.098-0.372-0.193-0.734-0.286-1.086c-0.049-0.361-0.096-0.711-0.142-1.05c-0.078-0.678-0.15-1.31-0.216-1.887
			c-0.056-0.577-0.095-1.1-0.115-1.56c0.008-0.463,0.066-0.868,0.117-1.199c0.383-2.647,0.656-6.137,1.328-9.59
			c0.162-0.861,0.324-1.722,0.483-2.568c0.189-0.841,0.429-1.662,0.634-2.455c0.387-1.59,0.873-3.04,1.367-4.247
			c0.236-0.605,0.48-1.277,0.73-1.989c0.281-0.706,0.576-1.451,0.877-2.21c0.552-1.528,1.216-3.084,1.799-4.497
			c0.551-1.421,1.149-2.659,1.536-3.566C218.145,309.365,218.385,308.812,218.385,308.812z"/>
		<path style="fill:#231815;" d="M238.058,377.853c-0.26,1.355-0.302,2.694-0.182,3.969c0.149,1.249,0.539,2.331,0.97,3.368
			c0.419,1.063,1.034,1.855,1.632,2.617c0.612,0.74,1.233,1.421,1.896,1.879c1.309,0.954,2.504,1.622,3.418,1.862
			c0.902,0.283,1.456,0.345,1.456,0.345s4.568,1.423,10.583,2.353c2.999,0.529,6.386,0.801,9.733,1.074
			c3.366,0.16,6.697,0.245,9.713,0.178c1.505-0.09,3.163-0.176,4.905-0.662c0.879-0.158,1.76-0.525,2.663-0.913
			c0.95-0.361,1.679-0.835,2.495-1.287c3.168-1.85,6.302-3.942,9.4-5.837c3.085-1.89,6.128-3.64,8.848-4.672
			c1.345-0.51,2.636-0.812,3.548-0.766c0.909,0.038,1.267,0.33,1.556,0.753c0.563,0.936,0.765,2.773,0.946,4.105
			c0.184,1.39,0.348,2.501,0.694,3.025c0.331,0.525,0.774,0.466,1.279-0.496c0.265-0.476,0.522-1.185,0.718-2.187
			c0.191-0.999,0.365-2.295,0.052-4.04c-0.137-0.856-0.524-1.891-1.323-2.876c-0.823-0.943-2.176-1.513-3.393-1.591
			c-1.227-0.108-2.359,0.107-3.433,0.417c-1.093,0.297-2.12,0.732-3.154,1.195c-4.08,1.924-8.015,4.644-11.794,7.245
			c-3.805,2.565-7.265,5.357-10.725,6.089c-1.723,0.405-3.318,0.635-4.673,0.649c-1.345,0.084-2.445-0.023-3.208-0.165
			c-3.046-0.542-7.12-1.132-11.091-2.206c-3.972-1.029-7.812-2.445-10.453-3.827c-2.622-1.413-6.265-3.468-8.883-5.551
			c-1.235-1.099-2.401-2.021-3.046-2.828C238.493,378.315,238.058,377.853,238.058,377.853z"/>
		<path style="fill:#231815;" d="M308.12,386.853c4.808,3.316,7.858,4.702,9.372,5.519c0.747,0.412,1.169,0.612,1.558,0.71
			c0.331,0.141,0.635,0.169,0.622,0.184c0,0,0.115,0.071,0.323,0.2c0.189,0.166,0.476,0.42,0.789,0.87
			c0.605,0.9,1.157,2.74,1.051,5.055c-0.096,2.299-0.757,4.971-1.938,7.382c-1.191,2.407-2.872,4.566-4.935,5.574
			c-3.96,2.236-10.178,3.397-16.263,3.785c-6.065,0.445-11.921,0.532-15.348,0.718c-3.44,0.105-6.28,1.362-6.87,2.302
			c-0.307,0.467-0.089,0.866,0.772,1.073c0.86,0.195,2.36,0.223,4.763,0.09c4.778-0.349,13.131-0.514,20.879-1.766
			c3.864-0.636,7.561-1.641,10.424-3.048c2.862-1.399,4.829-3.147,5.918-4.053c2.23-1.801,4.381-5.056,5.665-8.73
			c1.287-3.632,1.755-7.948,0.225-11.436c-0.693-1.712-2.494-3.635-4.675-4.53c-2.159-0.908-4.364-1.049-6.178-0.962
			c-1.823,0.101-3.359,0.387-4.437,0.631C308.772,386.689,308.12,386.853,308.12,386.853z"/>
		<path style="fill:#231815;" d="M196.964,253.106c-12.085-3.202-16.951-7.991-18.762,1.429c-1.384,6.99-7.035,15.016-10.188,18.688
			c-1.575,1.83-4.707,6.859-7.608,12.191c-2.95,5.295-5.525,10.92-6.731,13.381c-0.576,1.243-2.697,5.721-5.17,11.951
			c-2.443,6.25-5.16,14.215-7.4,22.301c-2.252,8.632-2.962,16.949-3.457,23.348c-0.463,6.401-0.612,10.885-0.667,11.779
			c-0.21,3.595,0.024,15.439-0.265,20.102c-0.336,4.628,0.331,7.711-2.058,14.901c-0.63,1.766-1.167,3.373-1.576,4.813
			c-0.471,1.39-0.797,2.624-0.966,3.691c-0.465,2.001-0.274,3.404,0.728,4.025c1,0.615,2.822,0.384,4.459-0.907
			c1.688-1.263,2.935-3.675,2.717-6.733c-0.267-3.057,0.365-7.718,0.794-12.362c0.483-4.632,0.907-9.205,0.672-11.882
			c-0.106-1.338,0.037-6.722,0.378-14.154c0.37-7.426,0.909-16.927,2.477-26.363c0.807-4.713,2.068-9.368,3.497-13.661
			c0.656-2.17,1.38-4.254,2.097-6.244c0.698-1.996,1.367-3.905,2.085-5.663c2.702-7.1,5.16-12.159,5.834-13.639
			c1.318-2.982,5.293-9.689,9.458-15.783c4.15-6.107,8.37-11.712,9.306-13.22c1.875-2.995,8.527-10.717,10.063-13.3
			c1.538-2.552,5.264-4.492,7.76-5.888C196.95,254.527,196.964,253.106,196.964,253.106z"/>
		<path style="fill:#231815;" d="M341.692,204.609c4.511-2.651,9.441-6.804,15.557-10.003c5.962-2.978,12.151-6.03,18.091-8.23
			c5.934-2.207,10.353-3.027,12.955-3.295c2.614-0.246,3.421-0.095,2.5,0.07c-0.926,0.172-2.267,0.68-4.453,1.523
			c-2.18,0.842-5.217,2.016-9.553,3.69c-4.33,1.695-8.123,3.504-11.32,5.118c-3.168,1.619-5.866,3.029-7.66,4.108
			c-1.799,1.116-2.342,1.391-3.825,2.197c-1.497,0.8-3.817,2.287-9.277,6.015c-5.491,3.747-9.509,4.959-11.348,5.126
			c-1.858,0.182-1.613-0.307,0.1-0.963c1.715-0.705,3.827-1.988,5.439-3.171C340.519,205.622,341.692,204.609,341.692,204.609z"/>
		<path style="fill:#231815;" d="M344.363,216.955c11.595-2.552,27.814-7.397,41.898-8.978c7.025-0.809,12.006-0.686,14.912-0.449
			c2.913,0.25,3.781,0.501,2.732,0.519c-2.114,0.088-6.293,0.921-16.637,2.208c-10.362,1.383-18.478,3.556-23.178,4.896
			c-4.703,1.389-2.777,0.342-17.055,3.874c-14.319,3.492-17.376,2.635-13.318,1.512C337.76,219.395,344.363,216.955,344.363,216.955
			z"/>
		<path style="fill:#231815;" d="M353.103,227.871c4.827,0.25,10.664,0.42,16.714,1.038c6.043,0.607,12.315,1.68,17.804,3.507
			c5.494,1.831,8.993,4.009,10.904,5.415c1.908,1.44,2.369,2.011,1.634,1.589c-1.524-0.791-4.793-1.93-12.714-4.548
			c-8.022-2.477-14.805-3-18.715-3.159c-3.942-0.035-2.178-0.683-14.003-1.146c-11.835-0.261-14.116-1.483-10.712-1.759
			C347.407,228.548,353.103,227.871,353.103,227.871z"/>
		<path style="fill:#231815;" d="M287.028,293.099c-1.384-0.016-2.772,0.139-3.965,0.518c-1.149,0.404-2.315,0.895-3.173,1.568
			c-1.836,1.29-3.036,2.945-3.764,4.445c-0.348,0.756-0.615,1.475-0.801,2.123c-0.15,0.652-0.237,1.232-0.287,1.712
			c-0.11,0.96-0.029,1.524-0.029,1.524s-0.061,1.219-0.078,3.199c0.014,1.982,0.076,4.717,0.377,7.767
			c0.517,6.116,1.843,13.452,2.259,19.351c0.389,5.91,1.872,13.706,3.355,20.965c1.502,7.264,2.779,14.056,3.154,18.015
			c0.439,3.942,1.24,7.19,2.07,8.136c0.419,0.462,0.845,0.318,1.171-0.715c0.328-1.028,0.557-2.962,0.301-5.94
			c-0.419-5.99-2.7-15.724-4.872-24.692c-2.188-8.973-3.796-17.374-3.621-20.565c0.122-3.179-0.09-7.408-0.022-11.587
			c0.044-4.178,0.431-8.297,1.173-11.187c0.681-2.908,1.906-6.883,3.497-9.783c0.193-0.365,0.38-0.721,0.561-1.063
			c0.21-0.323,0.412-0.633,0.603-0.928c0.382-0.59,0.706-1.131,1.054-1.527C286.634,293.605,287.028,293.099,287.028,293.099z"/>
		<path style="fill:#231815;" d="M331.296,389.539c1.62,4.52,3.298,7.475,4.925,9.176c0.818,0.872,1.632,1.38,2.472,1.581
			c0.835,0.257,1.7,0.164,2.634-0.225c1.836-0.675,4.56-1.678,7.057-1.732c2.502-0.149,4.692,0.52,5.062,2.069
			c0.204,0.752,2.82,2.214,6.244,4.786c1.679,1.335,3.59,2.919,5.428,4.88c1.838,1.956,3.644,4.223,5.248,6.7
			c3.251,4.932,5.521,10.738,6.606,15.714c1.135,4.981,1.164,9.069,1.036,10.809c-0.056,0.874-0.174,2.88-0.704,5.656
			c-0.558,2.75-1.603,6.4-3.514,10.146c-1.904,3.757-4.788,7.635-8.753,10.792c-3.989,3.115-8.917,5.564-14.199,7.085
			c-10.61,3.064-22.045,3.036-30.764,2.288c-8.769-0.774-15.01-2.129-16.365-2.772c-5.437-2.64-11.259-4.717-17.505-5.343
			c-6.244-0.645-6.716,6.212-2.196,5.576c2.247-0.329,7.457,0.899,12.631,2.133c5.165,1.259,10.321,2.462,12.207,2.719
			c0.943,0.095,7.011,1.042,15.724,1.34c8.659,0.28,20.188-0.165,30.879-4.074c5.295-1.995,10.252-4.938,14.129-8.598
			c3.871-3.678,6.54-7.996,8.268-11.927c3.404-7.97,3.46-14.114,3.546-14.805c0.02-0.732,0.297-4.077-0.262-8.688
			c-0.512-4.603-1.967-10.446-4.526-15.863c-1.269-2.709-2.773-5.316-4.394-7.663c-1.654-2.325-3.401-4.392-5.067-6.111
			c-3.355-3.42-6.326-5.416-7.044-6.089c-2.891-2.717-5.422-4.797-9.145-6.774c-0.944-0.455-1.913-0.658-2.87-0.727
			c-0.968-0.024-1.921,0.051-2.862,0.049c-1.909,0.084-3.712-0.101-6-1.81c-2.315-1.684-4.447-1.795-5.815-1.393
			C332.014,388.814,331.296,389.539,331.296,389.539z"/>
		<path style="fill:#231815;" d="M295.42,270.436c-1.377,0.139-2.85,1.059-3.876,2.233c-1.088,1.163-1.885,2.532-2.487,3.884
			c-1.183,2.726-1.59,5.411-1.652,7.646c-0.054,2.244,0.221,4.078,0.503,5.338c0.269,1.266,0.561,1.96,0.561,1.96
			s0.405,1.577,1.076,4.198c0.696,2.604,1.7,6.216,2.901,10.293c2.379,8.163,5.558,18.172,7.444,26.262
			c0.939,4.049,2.235,8.741,3.808,13.656c0.201,0.614,0.404,1.233,0.607,1.854c0.247,0.645,0.461,1.317,0.745,1.947
			c0.536,1.283,1.162,2.521,1.833,3.724c1.338,2.411,2.877,4.657,4.406,6.821c3.072,4.313,6.15,8.299,8.282,12.054
			c2.164,3.732,3.284,7.219,3.342,9.772c0.326,5.066-1.76,9.317-1.815,10.841c-0.015,0.771,0.443,0.853,1.556-0.21
			c0.289-0.258,0.583-0.612,0.902-1.059c0.329-0.44,0.696-0.961,1.02-1.62c0.71-1.273,1.384-3.051,1.644-5.326
			c0.28-2.271,0.017-4.992-0.889-7.708c-0.865-2.739-2.337-5.44-4.035-8.093c-3.423-5.296-7.917-10.366-11.36-15.789
			c-1.769-2.717-3.028-5.484-3.996-8.393c-1.021-2.852-1.933-5.571-2.718-8.05c-1.573-4.956-2.625-8.952-2.975-11.162
			c-0.683-4.425-2.01-10.298-3.19-16.184c-1.201-5.881-2.23-11.777-2.625-16.141c-0.412-4.345-1.027-10.571-0.725-15.411
			c0.135-2.417,0.525-4.423,0.941-5.644c0.108-0.293,0.206-0.558,0.292-0.791c0.093-0.216,0.198-0.35,0.265-0.489
			C295.344,270.583,295.42,270.436,295.42,270.436z"/>
		<path style="fill:#231815;" d="M296.477,381.22c-2.193-3.954-3.806-5.001-4.609-4.992c-0.84-0.02-0.868,0.844-0.868,0.844
			s-0.128,0.294-0.334,0.765c-0.21,0.43-0.471,1.104-0.743,1.782c-0.556,1.434-0.909,2.972-1.257,4.475
			c-0.079,0.378-0.078,0.824-0.02,1.286c0.118,0.413,0.257,0.917,0.505,1.306c0.485,0.815,1.189,1.476,1.911,1.931
			c1.455,0.962,2.919,1.195,3.72,1.451c1.728,0.387,3.082-2.794,1.176-3.207c-0.926-0.241-2.652-0.317-3.962-1.064
			c-0.676-0.341-1.147-0.886-1.336-1.403c-0.186-0.523-0.032-0.99,0.26-1.144c0.662-0.308,0.99-0.537,1.517-0.805
			c0.454-0.259,0.985-0.518,1.502-0.528c0.465-0.03,1.118-0.191,1.613-0.368C296.087,381.398,296.477,381.22,296.477,381.22z"/>
		<path style="fill:#231815;" d="M230.718,447.983c-0.703-2.236-1.747-3.75-2.805-4.733c-1.051-0.879-2.102-1.214-2.965-1.298
			c-0.87-0.084-1.504,0.229-1.941,0.454c-0.431,0.246-0.642,0.487-0.642,0.487s-0.132,0.08-0.375,0.227
			c-0.25,0.133-0.584,0.369-0.993,0.662c-0.826,0.583-1.985,1.323-3.186,2.252c-2.46,1.774-5.31,3.99-8.003,4.99
			c-2.707,0.981-5.959,2.832-9.061,4.195c-3.094,1.368-6.101,2.238-7.895,2.23c-0.887,0.12-1.698,0.274-2.377,0.534
			c-0.679,0.275-1.227,0.667-1.497,1.074c-0.561,0.786,0.096,1.757,3.168,1.846c0.758-0.056,1.647-0.152,2.617-0.277
			c0.95-0.235,1.987-0.501,3.045-0.83c2.078-0.781,4.246-1.803,6.178-2.989c3.889-2.328,7.24-4.704,8.846-4.982
			c3.154-0.634,7.586-3.061,10.402-3.306c0.698-0.064,1.515-0.156,2.342-0.311c0.821-0.075,1.671-0.153,2.438-0.224
			C229.526,447.984,230.718,447.983,230.718,447.983z"/>
		<path style="fill:#231815;" d="M179.256,459.161c3.736-2.73,5.013-3.824,5.232-4.503c0.237-0.649-0.539-0.817-0.539-0.817
			s-0.914-0.617-1.708-1.677c-0.789-0.969-1.473-2.762-0.958-3.35c0.306-0.349,0.412-0.679,0.575-0.913
			c0.62,0.106,1.046,0.067,1.497,0.004c0.914-0.091,1.892-0.207,2.44-0.218c0.819-0.018,1.36-0.846,1.683-1.639
			c0.48-0.769-0.047-1.787-1.363-1.756c-0.769,0.009-1.788,0.2-2.894,0.438c-1.529,0.265-2.97,0.531-4.166,0.686
			c0.183,1.913,0.433,3.36,0.034,4.068c-0.946,1.69-0.529,3.902-0.689,5.474c-0.09,0.768,0.078,1.82,0.319,2.681
			C178.957,458.501,179.256,459.161,179.256,459.161z"/>
		<path style="fill:#231815;" d="M172.41,447.571c4.45-1.42,6.018-1.891,6.494-2.348c0.439-0.427-0.149-0.809-0.166-0.829
			c0,0-0.608-0.83-0.699-2.032c-0.149-1.18,0.492-2.735,1.723-2.975c1.191-0.226,2.404-0.658,3.712-0.9
			c1.289-0.247,2.605-0.325,3.372-0.237c1.397,0.199,3.533-2.822,0.803-3.325c-1.372-0.189-3.803,0.145-5.788,1.043
			c-2.022,0.886-3.389,2.241-4.313,2.39c-0.941,0.14-1.869,0.868-2.597,1.77c-0.704,0.914-1.203,1.956-1.668,2.719
			c-0.214,0.381-0.427,0.877-0.579,1.401c-0.123,0.519-0.216,1.069-0.28,1.569C172.375,446.793,172.41,447.571,172.41,447.571z"/>
		<path style="fill:#231815;" d="M174.056,436.943c3.528-3.097,4.908-4.077,5.258-4.475c0.377-0.342-0.294-0.367-0.311-0.423
			c0.071,0.013-0.858-0.24-0.694-1.25c0.193-1.039,1.935-2.051,3.266-1.602c1.338,0.385,3.053,0.517,4.731,0.642
			c1.669,0.123,3.271,0.231,4.18,0.396c1.743,0.337,3.894-2.64,1.042-3.253c-1.424-0.28-3.901-0.223-6.167-0.026
			c-2.279,0.166-4.303,0.552-5.214,0.189c-0.911-0.371-2.174-0.372-3.526,0.241c-0.669,0.302-1.348,0.802-1.911,1.425
			c-0.536,0.623-0.938,1.326-1.206,1.956c-0.607,1.309-0.483,3.092-0.161,4.243c0.154,0.592,0.333,1.081,0.48,1.401
			C173.966,436.739,174.056,436.943,174.056,436.943z"/>
		<path style="fill:#231815;" d="M205.188,425.673c3.872,3.744,6.996,4.656,9.191,4.643c2.188-0.013,3.464-0.964,3.464-0.964
			s2.992-1.309,7.108-2.465c4.1-1.173,9.377-2.122,13.548-1.651c4.154,0.432,9.676,0.742,14.69,1.776
			c2.502,0.511,4.876,1.183,6.863,2.002c1.985,0.816,3.609,1.716,4.714,2.489c2.22,1.488,4.271,2.636,5.379,2.581
			c0.541-0.036,0.794-0.385,0.517-1.161c-0.269-0.771-1.075-2.01-2.857-3.384c-1.762-1.388-4.425-2.859-7.52-3.887
			c-3.09-1.06-6.582-1.677-9.933-1.98c-6.719-0.618-12.867-0.115-15.178-0.551c-4.648-0.905-12.489,0.142-17.079,0.444
			c-2.308,0.122-5.55,0.622-8.197,1.128C207.248,425.192,205.188,425.673,205.188,425.673z"/>
		<path style="fill:#231815;" d="M237.473,440.31c3.345,3.508,5.099,4.553,6.303,4.617c1.188,0.093,1.705-0.797,1.705-0.797
			s1.417-1.134,3.519-2.18c2.092-1.051,4.834-2.016,7.155-1.852c4.621,0.323,12.114-1.448,15.238-2.157
			c3.171-0.698,4.28-4.473-0.03-3.459c-4.317,0.982-14.731,4.323-17.326,3.704c-2.617-0.673-6.775,0.187-9.36,0.314
			c-1.292,0.045-3.094,0.427-4.572,0.875C238.625,439.819,237.473,440.31,237.473,440.31z"/>
		<path style="fill:#231815;" d="M304.475,225.876c1.132,9.041,2.264,6.215,2.264,6.215s2.514-2.825,4.148-1.695
			c1.635,1.13,4.401,0.565,5.531,0.565c1.132,0,1.887-3.39,0.252-3.39c-1.634,0-5.531,1.695-6.412,0.565
			c-0.88-1.13-2.387-1.13-3.269-1.695C306.111,225.876,304.475,225.876,304.475,225.876z"/>
		<path style="fill:#231815;" d="M291.622,433.768c6.518-1.678,14.276-3.17,22.301-4.874c8.023-1.677,16.282-3.483,23.753-5.211
			c14.908-3.482,20.982-4.87,18.857-3.969c-2.169,0.748-6.091,3.733-17.375,6.665c-11.272,2.856-20.33,4.887-25.564,6.291
			c-2.62,0.69-3.394,0.758-5.498,1.052c-2.085,0.33-5.58,0.721-13.359,2.625c-1.933,0.497-3.646,0.979-5.111,1.475
			c-1.421,0.477-2.754,1.078-3.3,1.556c-0.191,0.133-0.318,0.357-0.314,0.59c0.003,0.227,0.112,0.42,0.33,0.731
			c0.459,0.585,0.998,1.052,1.392,1.417c1.666,1.412,1.166,1.768-0.999,0.697c-0.531-0.288-1.093-0.63-1.659-1.129
			c-0.559-0.485-1.21-1.45-1.004-2.419c0.068-0.487,0.331-0.933,0.633-1.34c0.301-0.363,0.607-0.65,0.907-0.901
			c0.608-0.505,1.223-0.872,1.809-1.22c1.171-0.669,2.225-1.155,2.982-1.502C291.162,433.969,291.622,433.768,291.622,433.768z"/>
		<path style="fill:#231815;" d="M356.548,419.692c1.032,0.063,2.225,0.2,3.394,0.76c1.189,0.481,2.311,1.437,3.055,2.651
			c0.801,1.206,1.051,2.727,0.933,4.119l-0.172,1.036c-0.088,0.33-0.228,0.639-0.351,0.953c-0.218,0.648-0.629,1.146-0.988,1.651
			c-0.796,0.935-1.632,1.531-2.379,1.837c-0.72,0.374-1.352,0.463-1.823,0.499c-0.938,0.076-1.267-0.123-1.01-0.259
			c0.497-0.335,1.169-1.812,2.695-3.657c0.752-0.985,0.921-2.092,0.789-2.902c-0.095-0.843-0.612-1.34-0.924-1.621
			c-0.422-0.21-0.357-0.384-0.563-0.674c-0.12-0.117-0.191-0.409-0.537-0.574c-0.302-0.226-0.797-0.452-1.586-0.508
			c-0.791-0.066-1.472,0.022-2.046-0.055c-0.566,0.024-1.024-0.035-1.358-0.161c-0.674-0.244-0.821-0.715-0.297-1.078
			C354.282,420.883,356.465,419.608,356.548,419.692z"/>
		<path style="fill:#231815;" d="M357.943,427.78c1.247,0.079,2.636,0.186,4.124,0.59c1.475,0.356,3.114,1.145,4.408,2.569
			c0.287,0.393,0.618,0.767,0.84,1.208c0.196,0.457,0.38,0.928,0.544,1.401c0.166,0.966,0.26,1.959,0.064,2.848
			c-0.071,0.955-0.495,1.678-0.767,2.489c-0.406,0.69-0.792,1.399-1.252,1.987c-0.482,0.563-0.938,1.071-1.374,1.513
			c-0.471,0.393-0.912,0.736-1.318,1.031c-0.792,0.621-1.548,0.908-2.086,1.148c-1.098,0.443-1.544,0.389-1.242,0.132
			c0.564-0.566,1.186-2.423,3.413-5.316c1.058-1.489,1.585-3.052,1.487-4.213c-0.098-1.174-0.801-1.749-1.257-2.097
			c-0.605-0.264-0.612-0.466-1.076-0.804l-0.39-0.325c-0.182-0.102-0.419-0.197-0.699-0.319c-0.277-0.131-0.62-0.263-1.076-0.324
			c-0.444-0.08-0.951-0.21-1.593-0.19c-1.254-0.089-2.298,0.003-3.12-0.112c-0.823-0.004-1.438-0.11-1.852-0.263
			c-0.83-0.306-0.838-0.808-0.069-1.123c0.76-0.315,1.774-0.867,2.673-1.198c0.449-0.189,0.85-0.357,1.137-0.477
			C357.761,427.838,357.943,427.78,357.943,427.78z"/>
		<path style="fill:#231815;" d="M357.526,449.028c-3.541,2.388-7.822,3.73-12.261,5.151c-4.437,1.364-9.032,2.553-13.153,3.59
			c-4.122,1.03-6.937,1.73-8.549,2.276c-1.581,0.555-2.161,0.786-1.695,0.349c0.465-0.412,1.063-1.247,2.418-2.275
			c1.347-1.016,3.433-2.147,6.569-3.083c6.278-1.808,11.207-3.327,13.964-4.514c1.379-0.585,1.806-0.627,2.945-0.869
			c0.573-0.116,1.314-0.298,2.423-0.649c1.095-0.359,2.595-0.888,4.366-1.941c1.747-1.095,2.629-2.105,2.727-2.936
			c0.157-0.878-0.107-1.808-0.27-2.378c-0.316-1.197,0.122-1.438,1.086-0.406c0.441,0.536,0.924,1.233,1.237,2.145
			c0.221,0.912,0.225,2.062-0.16,2.897c-0.138,0.466-0.358,0.807-0.549,1.141c-0.186,0.35-0.383,0.604-0.549,0.815
			C357.74,448.773,357.526,449.028,357.526,449.028z"/>
		<path style="fill:#231815;" d="M223.014,43.935c5.256-2.627,15.766-7.883,15.766-7.883l14.454,11.825c0,0,6.569,9.198,5.256-2.627
			c-1.314-11.826-6.57-18.395-14.454-28.906c-7.883-10.511-9.198-10.511-14.452,5.255c-5.256,15.767-15.766,18.394-15.766,18.394
			L223.014,43.935z"/>
		<path style="fill:#231815;" d="M303.163,42.62c11.316-13.579,24.964-27.591,28.906-5.254c3.942,22.335-1.314,27.591-1.314,27.591
			s0-13.139-5.256-11.825c-5.256,1.313-5.256,1.313-5.256,1.313l-5.254-7.883c0,0-1.314,0-10.512,3.942
			C295.279,54.446,296.592,50.504,303.163,42.62z"/>
		<path style="fill:#231815;" d="M272.404,201.946c3.026,2.849,8.584,4.968,13.241,6.185c2.337,0.65,4.008,1.132,5.006,1.501
			c0.998,0.363,1.309,0.65,0.931,0.624c-0.732-0.082-2.364,1.039-6.201,0.253c-3.793-0.815-6.765-1.804-8.539-2.374
			c-0.89-0.28-1.086-0.487-1.681-0.906c-0.573-0.459-1.568-1.097-3.779-2.736c-2.2-1.676-3.085-3.143-3.325-3.916
			c-0.243-0.781,0.15-0.944,0.76-0.497c0.598,0.465,1.51,0.944,2.244,1.304C271.817,201.702,272.404,201.946,272.404,201.946z"/>
	</g>
</g>
</svg>
