<?xml version="1.0" encoding="iso-8859-1"?>
<!-- Generator: Adobe Illustrator 21.1.0, SVG Export Plug-In . SVG Version: 6.00 Build 0)  -->
<svg version="1.1" id="_x31_" xmlns="http://www.w3.org/2000/svg" xmlns:xlink="http://www.w3.org/1999/xlink" x="0px" y="0px"
	 viewBox="0 0 512 512" style="enable-background:new 0 0 512 512;" xml:space="preserve">
<g>
	<path style="fill:#FFFFFF;" d="M508.345,47.33c0,0-29.819-22.517-80.938-22.517c-36.513-3.651-83.372,6.694-108.932,19.474
		c-25.559,12.78-56.596,35.905-77.895,70.593c-9.737,17.039-13.997,18.865-13.997,18.865s-45.642,52.944-40.165,122.32
		c-13.388,9.737-48.076,33.471-73.636,97.978c-6.694,25.559-15.214,32.862-17.039,46.859c-1.826,13.996-18.865,55.379-40.165,59.638
		c-21.3,4.26-24.342-1.217-40.165,1.218c-15.823,2.434-13.388,23.734-2.434,24.951c8.663,0.603,17.648,6.086,22.516,2.434
		c8.52,1.826,20.082-4.26,24.342-3.651c4.26,0.608,17.648,1.826,32.254-7.303c14.605-9.128,38.947-56.596,41.382-60.247
		c2.434-3.651,13.996-13.389,14.605-16.431c0.608-3.043,27.385-33.471,29.819-38.339c2.434-4.869,24.951-24.342,34.688-32.254
		c9.737-7.911,26.777-17.648,59.03,1.218c32.254,18.865,31.036,31.644,35.905,47.467c4.869,15.822,9.128,32.253,9.128,32.253
		s-3.651,27.385-1.826,36.513c1.826,9.128,0,11.563,13.997,15.822c13.996,4.26,42.599,11.563,50.51,15.214
		c7.911,3.651,9.128-0.609,10.346-3.651c1.217-3.043,7.303-9.128,5.477-10.345c-1.826-1.218-0.608-5.477-0.608-5.477
		s-11.693-2.016-27.994-10.954c-16.3-8.938-21.299-22.517-18.865-35.297c2.434-12.78,17.039-41.382,16.431-53.553
		c-0.608-12.171-12.171-40.773-18.257-49.293c-6.085-8.52-17.648-22.516-22.516-28.602c-4.869-6.086-4.26-9.128-3.043-15.822
		c1.217-6.695,8.52-18.866,17.648-20.691s31.036-6.086,37.122-14.605c6.085-8.519,2.434-15.214-1.826-26.168
		c-4.26-10.954-7.303-16.431-9.737-26.167c-2.435-9.737-6.694-17.649-1.826-17.04c4.868,0.609,16.431-0.609,21.908-6.694
		c5.477-6.086,9.128-22.517,6.694-29.211c-2.434-6.695,2.435-7.911,10.346-6.086c7.911,1.826,24.951,1.826,45.033,18.866
		c20.082,17.039,21.299,1.217,18.257-12.172c-3.043-13.388-9.737-22.516-15.823-24.951s-23.734-7.303-34.688-7.911
		c-10.954-0.608,9.737-4.259,19.474-2.434c9.737,1.826,33.47,2.434,42.599,1.826c9.128-0.609,12.171-4.869,6.085-10.954
		c-6.085-6.086-13.996-13.389-23.734-17.649c-9.737-4.259-22.516-10.345-22.516-10.345s12.78-4.26,23.734,3.043
		c10.954,7.303,34.864,13.031,37.122,10.954c2.258-2.076,2.434-7.911,2.434-7.911s9.128,5.477,10.954-1.218
		C511.388,52.198,508.345,47.33,508.345,47.33z M333.69,220.768c-4.26,4.868-13.996,5.477-20.691,12.171
		c-6.694,6.694-6.086,13.997-7.911,9.737c-1.826-4.26,6.085-23.126,11.562-31.645c5.477-8.52,10.346-13.389,10.346-13.389
		C333.081,203.12,337.95,215.899,333.69,220.768z"/>
	<g>
		<g>
			<path style="fill:#231815;" d="M237.874,115.504c8.157-3.397,9.984-9.045,14.855-15.862c5.448-7.625,11.7-14.376,18.836-20.436
				c16.108-13.68,34.283-25.281,52.868-35.291c15.503-8.349,31.303-11.193,48.268-14.53c9.094-1.789,18.018-3.635,27.29-4.298
				c3.741-0.268,20.04,0.771,22.358-3.318c0.663-1.169-18.5,0.076-19.94,0.237c-8.265,0.924-16.54,1.211-24.795,2.347
				c-21.244,2.924-41.358,8.351-60.63,17.798c-15.043,7.374-29.289,18.405-41.971,29.302
				C260.981,83.51,245.169,98.158,237.874,115.504z"/>
			<path style="fill:#231815;" d="M229.596,120.024c4.185,5.535,6.82,9.703,2.484,15.598c-4.259,5.792-8.869,9.89-12.469,16.37
				c-5.535,9.966-12.606,18.923-17.482,29.282c-5.793,12.306-9.67,26.039-11.963,39.429c-0.987,5.765-1.427,11.201-1.137,17.073
				c0.121,2.461,2.286,13.671-0.732,14.88c-7.728,3.096-2.305-31.634-1.598-35.233c2.571-13.067,5.997-26.559,11.294-38.79
				c4.931-11.385,11.034-22.097,17.948-32.371c2.808-4.173,5.947-8.398,8.442-12.753
				C226.776,129.335,226.705,123.643,229.596,120.024z"/>
			<path style="fill:#231815;" d="M302.321,261.05c0.455,1.891,3.044,6.334,5.668,5.004c2.309-1.17-0.146-8.628-0.375-10.326
				c-1.095-8.118-0.868-16.453,1.161-24.407c2.212-8.668,6.452-16.974,11.667-24.215c2.617-3.634,5.522-7.088,8.818-10.129
				c2.61-2.409,8.266-4.841,10.133-7.671c4.744-7.19-5.99-2.91-8.943-0.485c-6.211,5.101-11.252,13.279-15.545,20.042
				C306.206,222.569,297.689,244.616,302.321,261.05z"/>
			<path style="fill:#231815;" d="M369.208,177.518c-3.572,4.366-6.98,7.91-4.849,13.532c2.188,5.773,6.24,8.664,7.464,15.363
				c1.819,9.962,4.516,22.096-5.297,28.529c-9.198,6.03-21.453,5.221-31.215,10.553c-5.189,2.834-10.1,6.567-13.175,11.722
				c-1.21,2.029-6.146,12.062-3.138,14.286c4.751,3.513,6.265-9.054,6.789-10.804c1.838-6.137,6.45-9.172,11.904-12.005
				c11-5.715,25.893-4.045,35.256-12.615c7.967-7.292,7.714-19.378,5.36-29.043c-1.378-5.659-3.68-10.878-5.639-16.319
				C371.309,186.947,371.838,180.6,369.208,177.518z"/>
			<path style="fill:#231815;" d="M320.872,289.563c12.715,1.036,22.235,19.413,27.494,29.383
				c6.859,13.002,10.867,27.516,11.129,42.294c0.437,24.66-25.81,55.521-9.243,78.799c3.497,4.913,9.05,9.432,14.47,12.119
				c7.574,3.755,11.418,0.766,3.478-4.187c-11.788-7.352-21.573-12.588-19.111-28.9c2.35-15.572,13.212-28.516,16.199-43.866
				c2.551-13.103-2.25-25.206-6.642-37.298c-5.969-16.435-13.535-31.34-21.528-46.78c-3.129-6.046-10.321-15.254-18.144-9.768
				C311.741,286.43,318.323,286.567,320.872,289.563z"/>
			<path style="fill:#231815;" d="M265.74,326.308c8.444,3.608,27.456,13.246,25.155,25.297c0.08-0.419-5.287-5.806-5.653-6.229
				c-3.563-4.116-6.952-6.643-11.418-9.56c-2.191-1.431-16.639-8.208-16.262-9.188C258.009,325.466,264.417,326.248,265.74,326.308z
				"/>
			<path style="fill:#231815;" d="M303.874,353.592c3.436,10.805,10.946,32.619,3.615,43.238c0.448-0.649-1.372-7.668-1.484-8.715
				c-0.651-6.086-1.181-11.923-2.603-17.897c-0.718-3.017-6.965-23.345-6.27-23.797
				C298.542,345.503,303.038,352.379,303.874,353.592z"/>
			<path style="fill:#231815;" d="M318.683,408.014c-0.406-2.352-2.969-10.037-6.413-7.192c-2.151,1.777,0.971,13.882,1.172,16.478
				c0.901,11.691-2.359,24.011-0.468,35.484c1.548,9.394,9.968,12.313,18.31,14.669c11.879,3.355,23.29,7.695,35.06,11.454
				c2.636,0.842,11.139,5.015,13.644,3.441c4.507-2.831-3.75-5.957-6.572-7.015c-10.499-3.937-22.49-6.298-33.362-9.331
				c-11.977-3.341-24.473-4.224-23.588-19.456C317.229,433.395,321.078,421.361,318.683,408.014z"/>
			<path style="fill:#231815;" d="M385.444,469.017c3.475,2.26,8.329,6.143,6.078,10.91c-2.74,5.803-2.389,0.717-3.509-1.251
				C386.695,476.36,377.417,468.223,385.444,469.017z"/>
			<path style="fill:#231815;" d="M388.122,460.932c3.67,0.688,8.393,1.671,8.634,6.246c0.26,4.909-2.019,1.362-3.676,0.602
				C390.196,466.458,383.216,464.049,388.122,460.932z"/>
			<path style="fill:#231815;" d="M390.863,453.791c3.398,1.876,15.763,13.816,5.579,9.519
				C394.304,462.408,381.644,453.494,390.863,453.791z"/>
			<path style="fill:#231815;" d="M176.109,268.121c1.068-0.876,6.828-5.856,5.166-8.108c-2.007-2.72-8.974,3.312-10.075,4.163
				c-9.372,7.241-17.003,16.942-24.064,26.357c-15.529,20.706-31.215,45.728-39.468,70.442c-3.375,10.106,2.129,7.279,5.629,0.737
				c5.578-10.427,8.222-22.165,13.73-32.712C139.638,304.856,155.398,285.755,176.109,268.121z"/>
			<path style="fill:#231815;" d="M234.609,323.914c-10.293-1.264-19.424,6.269-25.987,13.221
				c-3.527,3.736-6.697,7.785-9.928,11.774c-1.458,1.799-4.392,7.09-6.734,7.59c0.849-0.181,4.897-10.965,5.527-11.964
				c4.146-6.576,9.686-12.981,15.694-17.936c4.346-3.585,9.027-5.662,14.597-6.623c1.582-0.273,21.439,1.954,18.902,4.613
				C245.945,325.361,236.598,323.589,234.609,323.914z"/>
			<path style="fill:#231815;" d="M186.217,354.457c-7.607,6.597-5.285,15.019-9.486,22.498c-0.319,0.568-2.411-5.293-2.479-5.912
				c-0.409-3.681,0.956-9.361,2.775-12.639c1.212-2.183,10.052-12.275,11.702-9.526C189.401,350,186.733,353.028,186.217,354.457z"
				/>
			<path style="fill:#231815;" d="M160.898,382.262c-3.607,4.44-6.294,9.558-8.613,14.762c-1.861,4.177-2.99,10.752-6.243,14.132
				c-0.016,0.016,0.679-11.298,1.225-12.917c1.33-3.951,2.756-8.029,4.869-11.613c1.479-2.509,6.786-11.179,9.316-11.19
				C165.109,375.421,161.856,378.999,160.898,382.262z"/>
			<path style="fill:#231815;" d="M138.029,415.201c-12.451-3.269-8.902,5.274-12.655,12.705
				c-3.553,7.036-8.775,14.25-12.588,21.556c-4.024,7.71-8.545,15.616-14.387,22.11c-3.15,3.502-6.006,5.818-10.314,7.581
				c-3.201,1.31-13.976,2.161-15.02,5.684c-1.695,5.715,18.906-3.99,21.262-5.821c6.684-5.195,11.417-12.671,15.924-19.721
				c5.433-8.5,9.795-17.731,15.835-25.801c2.471-3.302,3.846-6.903,6.031-10.173C133.98,420.531,138.137,419.065,138.029,415.201z"
				/>
			<path style="fill:#231815;" d="M306.739,101.51c-1.849,3.435-3.64,15.539,2.159,9.699c3.54-3.565,5.249-10.198,8.784-14.263
				c9.27-10.659,22.03-18.702,34.81-24.473c25.251-11.401,57.201-19.494,84.782-15.808c5.43,0.726,9.094-0.092,2.969-4.117
				c-4.679-3.075-11.915-2.988-17.292-2.576c-14.542,1.114-29.221,6.21-43.309,9.801C355.145,66.017,319.534,77.472,306.739,101.51z
				"/>
			<path style="fill:#231815;" d="M449.812,22.368c12.366,2.333,76.419,15.476,59.3,38.906c3.774-4.366-3.127-12.629-6.219-15.271
				c-7.302-6.236-16.807-9.736-25.933-12.281c-6.186-1.726-12.357-3.737-18.612-5.202c-5.401-1.264-10.904-2.083-16.375-2.976
				c-2.311-0.378-7.001-0.214-8.896-1.711C433.652,24.288,446.96,22.33,449.812,22.368z"/>
			<path style="fill:#231815;" d="M505.725,53.064c5.365,3.326,4.701,5.23,2.908,9.665c1.565-5.664-3.522-5.517-5.441-8.96
				C502.668,52.829,505.457,53.045,505.725,53.064z"/>
			<path style="fill:#231815;" d="M499.773,58.67c2.687,3.009-1.487,5.261-1.341,7.274c0.196-1.513-0.764-3.446-0.156-5.332
				C497.999,61.473,498.731,55.681,499.773,58.67z"/>
			<path style="fill:#231815;" d="M455.827,52.169c-4.051-3.368-5.103,2.764-3.19,5.358c2.145,2.907,8.036,3.826,11.18,4.782
				c6.878,2.09,20.911,9.087,28.109,6.823c3.064-0.964,3.952-2.68,1.275-4.991c-2.586-2.232-9.363-0.014-12.785-0.595
				C471.38,62.011,462.884,57.929,455.827,52.169z"/>
			<path style="fill:#231815;" d="M385.904,105.814c3.471,4.61,4.105,14.508,5.01,20.357c1.732,11.185,0.895,24.801-9.414,31.731
				c-7.455,5.012-17.708,4.521-26.24,3.851c-2.81-0.221-24.416-2.698-23.412-4.457c1.689-2.96,19.234,0.818,22.905,1.124
				c7.886,0.656,18.252,1.081,24.962-4.036c8.613-6.569,8.227-19.486,5.391-28.844c-1.028-3.392-4.088-7.011-4.574-10.329
				C380.445,114.621,383.551,102.721,385.904,105.814z"/>
			<path style="fill:#231815;" d="M395.719,122.762c14.652-1.133,29.048,5.569,41.325,12.849c3.682,2.183,7.221,4.539,10.451,7.356
				c0.724,0.631,3.717,4.499,4.84,4.573c7.333,0.483,0.56-5.722-1.805-7.207c-10.239-6.427-19.999-13.099-31.756-16.796
				c-5.712-1.796-14.355-4.974-20.295-5.087C390.933,118.306,389.994,126.098,395.719,122.762z"/>
			<path style="fill:#231815;" d="M391.105,97.485c7.275-10.77,21.811-6.643,32.778-4.43c11.94,2.409,31.625,6.066,39.855,15.638
				c7.812,9.086,16.479,32.037,6.304,42.597c-2.486,2.58-2.563,1.366-4.276,2.319c1.401-0.779-0.974-2.155,1.893,0.123
				c-3.546-1.351-0.828-3.599,0.423-6.477c5.478-12.597,1.798-31.36-9.257-40.188c-8.429-6.731-27.078-7.57-37.362-9.001
				C411.294,96.651,401.316,97.439,391.105,97.485z"/>
			<path style="fill:#231815;" d="M453.652,71.13c1.803-15.341,20.665-1.443,26.6,3.704c9.082,7.876,13.266,18.529-1.615,21.431
				c-4.955,0.966-10.662-1.204-2.934-3.241c6.067-1.599,13.582-1.829,9.465-10.009C480.487,73.715,462.839,70.01,453.652,71.13z"/>
			<path style="fill:#231815;" d="M104.96,381.271c1.042-3.078,6.171-16.14-0.963-11.033c-5.159,3.694-7.112,15.307-8.738,20.835
				c-5.174,17.588-8.652,36.429-19.481,51.676c-9.958,14.022-24.016,20.222-40.991,17.323c-8.431-1.44-16.789-3.793-24.639,1.001
				c-6.205,3.79-12.735,12.968-9.108,20.5c1.443,2.997,10.697,8.348,9.934,3.138c-0.217-1.486-4.385-3.426-5.042-5.49
				c-0.691-2.171,0.04-4.543,0.85-6.559c7.14-17.777,27.635-6.857,41.313-8.285C85.533,460.469,94.746,409.779,104.96,381.271z"/>
			<path style="fill:#231815;" d="M19.803,475.493c-0.599,0.371-5.09-8.522-6.25,0.029c-0.514,3.787,3.783,11.737,8.091,11.788
				c4.486,0.053,3.35-2.95,0.773-5.334c-0.264-0.244-1.469,1.602-2.412,0.574C18.122,480.5,17.556,477.559,19.803,475.493z"/>
			<path style="fill:#231815;" d="M36.808,478.429c0.513-0.607-4.405-4.594-6.418-0.608c-1.495,2.96,2.99,11.272,5.506,12.25
				c5.882,2.286,3.637-1.96,1.942-4.375c-0.178-0.254-1.27,1.122-1.766,0.255C34.612,483.398,35,480.738,36.808,478.429z"/>
			<path style="fill:#231815;" d="M52.588,484.006c-1.783-0.289-2.112,5.761,3.073,5.842c3.161,0.049,6.059-1.657,9.657-1.424
				c1.625,0.105,5.938,1.807,7.096,0.675c3.248-3.174-1.648-4.516-3.242-4.806C64.288,483.403,57.915,484.864,52.588,484.006z"/>
			<path style="fill:#231815;" d="M330.163,198.472c-2.763-2.474-5.515-1.741-5.771,1.847c-0.114,1.596,3.864,4.94,4.474,5.66
				c4.35,5.133,7.902,11.067,1.862,16.482c-4.171,3.74-10.664,3.292-15.304,6.536c-2.211,1.546-11.551,9.663-11.047,12.783
				c1.166,7.219,9.02-4.033,10.03-5.456c3.804-5.353,6.613-5.477,12.581-7.933C341.101,222.582,340.333,208.024,330.163,198.472z"/>
			<path style="fill:#231815;" d="M242.493,176.163c-1.311,6.085,3.611,14.041,1.063,19.664c-1.168,2.578-5.998-27.632-1.357-23.983
				C242.628,172.182,242.592,175.324,242.493,176.163z"/>
			<path style="fill:#231815;" d="M258.143,198.317c0.415,7.658,6.582,12.462,8.308,19.321c0.111,0.44-5.21-4.066-5.047-3.875
				c-1.886-2.203-3.95-5.951-4.888-8.759c-0.445-1.331-1.935-11.742-0.033-11.207C256.919,193.92,258.06,197.858,258.143,198.317z"
				/>
			<path style="fill:#231815;" d="M276.73,217.07c0.32,3.445,6.645,11.437,3.361,14.871c-1.425,1.49-7.924-18.86-4.937-17.822
				C275.461,214.225,276.632,216.758,276.73,217.07z"/>
			<path style="fill:#231815;" d="M293.769,220.188c2.931-4.321,9.643-12.591,15.373-13.066
				c-1.267,0.105-14.723,18.306-15.854,17.725C292.652,224.52,293.585,220.664,293.769,220.188z"/>
			<path style="fill:#231815;" d="M393.458,176.682c5.976,10.063,17.979,22.792,17.039,35.464
				c0.109-1.466-23.954-41.221-23.31-41.44C388.206,170.36,392.471,175.704,393.458,176.682z"/>
			<path style="fill:#231815;" d="M404.033,170.048c7.109,7.06,13.731,14.769,19.571,22.913c1.078,1.503,7.616,14.732,8.733,14.975
				c-2.942-0.641-35.346-44.461-37.471-42.735C395.994,164.284,402.67,169.159,404.033,170.048z"/>
			<path style="fill:#231815;" d="M410.776,162.494c9.193,6.491,25.103,15.752,28.165,27.614
				c-0.505-1.956-36.04-30.744-36.39-30.401C403.345,158.929,409.471,162.004,410.776,162.494z"/>
			<path style="fill:#231815;" d="M380.126,146.53c-1.962,0-5.537-3.299-6.17,0.203c-0.308,1.702,5.823,6.952,7.081,8.198
				c0.943,0.914,2.648-4.595,2.639-4.734C383.736,151.14,377.126,147.438,380.126,146.53z"/>
			<path style="fill:#231815;" d="M359.215,120.167c-8.223,3.794-5.858-5.858,2.197-10.25
				C369.464,105.524,368.732,115.773,359.215,120.167z"/>
			<path style="fill:#231815;" d="M462.181,97.333c-7.622-0.938-15.236-1.979-22.82-3.19c-5.614-0.897-13.397-0.982-18.358-3.895
				c0.469,0.275,7.458-1.44,8.542-1.44c5.888,0,12.036,1.153,17.89,1.841c2.981,0.35,24.201,3.171,23.901,4.563
				C471.065,96.465,463.669,97.068,462.181,97.333z"/>
			<path style="fill:#231815;" d="M436.397,131.13c-6.986-4.075-0.868-3.566,1.373-5.766c5.511-5.411-2.797,5.153,2.154-3.68
				c0.162-0.288,0.075-2.076,0.369-2.685c1.039-2.151,5.758-5.222,8.184-5.439c2.061-0.184,4.987,2.509,7.078,1.464
				c-1.661,0.831-23.172-15.857-3.23-11.105c14.676,3.497,18.958,14.992,19.445,28.967c0.256,7.337,1.303,30.493-10.556,20.995
				C452.717,147.076,444.148,138.804,436.397,131.13z"/>
			<path style="fill:#231815;" d="M446.28,92.694c-4.411-2.522,2.602-5.773,4.323-6.814c4.113-2.488,4.955-2.696,2.438-7.668
				c-1.589-3.139-6.502-6.566-5.699-10.447c1.34-6.472,14.318-2.797,18.294-1.488c6.541,2.154,27.705,14.352,21.995,23.32
				C480.632,100.59,456.214,94.723,446.28,92.694z"/>
		</g>
		<g>
			<path style="fill:#231815;" d="M335.726,137.105c-1.007-0.412-2.298-0.735-3.625-1.27c-1.325-0.516-2.667-1.302-3.603-2.306
				c-1.847-2.069-1.376-3.623-1.194-3.294c0.255,0.283,1.491,0.234,2.735,1.342c1.28,1.145,2.664,1.499,3.47,1.564
				c0.836,0.029,0.244,0.492,2.594,1.205c2.391,0.633,2.616,2.05,1.822,2.164C337.154,136.624,335.726,137.105,335.726,137.105z"/>
			<path style="fill:#231815;" d="M332.51,124.383c-1.747-1.383-4.297-3.077-5.577-5.379c-0.631-1.132-0.729-2.146-0.649-2.744
				c0.091-0.615,0.307-0.824,0.371-0.661c0.15,0.367,1.351,0.559,2.248,1.892c0.963,1.367,2.12,2.156,2.858,2.469
				c0.759,0.28,0.086,0.578,1.929,1.901c0.927,0.6,1.348,1.127,1.533,1.579c0.178,0.464,0.05,0.854-0.36,0.861
				c-0.407,0.02-0.988,0.047-1.473,0.07C332.9,124.379,332.51,124.383,332.51,124.383z"/>
			<path style="fill:#231815;" d="M329.648,109.623c-1.139-1.842-2.311-4.356-2.501-6.438c-0.178-2.047,0.624-3.082,0.713-2.811
				c0.08,0.281,1.334,0.617,1.683,2.149c0.342,1.516,0.924,2.593,1.407,3.103c0.517,0.467-0.223,0.53,0.734,2.103
				c0.505,0.716,0.695,1.26,0.697,1.742c-0.004,0.474-0.25,0.806-0.603,0.711c-0.355-0.075-0.868-0.184-1.328-0.302
				C330.005,109.738,329.648,109.623,329.648,109.623z"/>
		</g>
	</g>
</g>
</svg>
