<?xml version="1.0" encoding="iso-8859-1"?>
<!-- Generator: Adobe Illustrator 18.1.1, SVG Export Plug-In . SVG Version: 6.00 Build 0)  -->
<svg version="1.1" id="_x37_" xmlns="http://www.w3.org/2000/svg" xmlns:xlink="http://www.w3.org/1999/xlink" x="0px" y="0px"
	 viewBox="0 0 512 512" style="enable-background:new 0 0 512 512;" xml:space="preserve">
<g>
	<path style="fill:#BAD17D;" d="M380.806,123.113c-13.482-11.375-32.441-26.964-37.076-29.912
		c-4.634-2.949,4.213-16.01,7.162-21.066c2.949-5.056-5.898-26.122-8.848-32.862c-2.949-6.741-8.426-16.852-15.588-23.594
		c-7.162-6.742-6.741-13.06-14.325-13.903c-7.584-0.843-11.797,14.325-11.797,14.325s-7.162,0.421-11.796-0.843
		c-4.634-1.264-24.436,0.843-29.07,0c-4.634-0.843-12.639-10.532-18.538-12.639s-10.111,8.848-13.06,15.167
		c-2.949,6.32,0.421,16.431-1.264,19.38c-1.685,2.949-14.325,25.701-16.853,28.649c-2.528,2.949,8.426,13.903,11.797,17.695
		c0,0,2.949,5.056-6.32,4.634c-9.269-0.422-21.908,11.798-30.756,23.173c-8.848,11.375-22.751,24.856-26.543,26.964
		c-3.792,2.107-5.898,7.163-4.213,15.167c1.685,8.005,11.797,11.375,33.705,14.746c-7.584,18.117-2.949,65.724,5.056,83.84
		c0.886,2.006,2.053,3.972,3.412,5.893c-0.009,0.001-0.041,0.005-0.041,0.005c-5.056,5.056-21.065,14.325-31.177,23.594
		c-10.111,9.268-29.492,26.122-42.131,30.334c-12.639,4.213-12.639,10.953-12.639,21.908s4.213,20.223,29.492,22.751
		c25.279,2.528,56.456-13.481,80.892-24.436c24.436-10.955,47.186-16.853,47.186-16.853c7.584,5.056,14.324,5.897,17.695,22.751
		c3.371,16.853-3.37,32.863-0.842,39.604c2.528,6.741,6.741,8.425,9.269,16.009c2.528,7.584-8.427,31.18-5.899,46.347
		c2.528,15.167,6.741,26.965,4.213,37.918c-2.528,10.953,0.843,25.279,8.427,25.279c7.584,0,44.659-2.528,55.613,5.056
		c9.268,0.842,9.268,7.582,9.268,0.842c0-6.74,1.475-9.06-4.529-10.956c-6.004-1.896-7.9-1.896-7.9-1.896s12.639-3.16,17.063-1.264
		c4.424,1.896,8.531,2.528,6.636,0.632c-1.896-1.896-5.688-6.32-10.743-6.32s-11.059,0.316-11.059,0.316s2.212-4.108,6.004-4.108
		s11.059-0.948,5.056-2.844s-8.848-2.212-11.691-2.212c-2.844,0-18.327,0.948-25.279,1.264c-6.952,0.316-14.851-0.948-14.219-8.215
		c0.632-7.268,18.327-61.617,16.115-68.252c-2.212-6.636-6.004-15.167-4.108-22.751c1.896-7.584,8.847-24.015,9.795-24.963
		c0.948-0.948,24.647-64.461,20.855-74.256c-2.095-5.413-2.643-8.022-2.397-9.705c0.822-0.39,1.37-0.679,1.555-0.827
		c1.333-1.066,2.836-3.322,4.933-10.594c3.253-6.188,6.847-14.013,6.653-17.108c-0.022-0.351-0.894-0.586-2.449-0.728
		c0.044-0.216,0.088-0.422,0.132-0.641c4.635-22.751-2.949-84.682-2.949-84.682s12.218,1.264,23.172,1.685
		s18.116-10.111,18.959-17.274C405.664,136.173,394.288,134.488,380.806,123.113z"/>
	<path style="fill:#FFFFFF;" d="M211.86,164.404c-3.37,5.056-16.853,86.789,10.111,108.698
		c14.325,8.427,18.226,20.514,27.393,18.381c9.167-2.133,16.423-0.685,16.423-6.584s4.385-14.096,8.512-14.632
		c4.127-0.536,60.297-11.365,65.074-15.641c4.777-4.276,9.833-89.38-0.278-99.492c-25.279-4.213-27.807-5.899-30.334-3.371
		c-2.528,2.528-16.852,7.585-21.065,1.686c-4.213-5.899-11.797-17.695-11.797-17.695s-3.159,9.186-12.955,16.389
		c-9.796,7.203-21.592,5.52-26.648,6.362C231.241,159.348,211.86,164.404,211.86,164.404z"/>
	<path style="fill:#FFFFFF;" d="M236.296,71.716c-10.111,4.213-12.639,5.897-10.111,13.481c2.528,7.584,10.954,15.169,9.269,21.909
		c-1.686,6.741-22.75,24.435-13.482,26.12c9.269,1.686,35.703-3.013,39.603-16.852c3.9-13.839,6.956-42.847,8.955-48.387
		c1.999-5.541,6.106-4.34,7.055,0.358c0.949,4.698,10.111,50.559,13.482,53.928c3.37,3.37,42.025,8.363,50.557,6.741
		c-7.584-17.695-21.908-32.863-18.538-41.289c3.37-8.425,13.482-5.897,13.482-9.268c0-3.371-13.482-6.741-22.751-9.268
		c-9.269-2.528-33.705-7.584-39.603-7.584C268.316,61.605,236.296,71.716,236.296,71.716z"/>
	<path style="fill:#595959;" d="M327.316,491.113c7.932,1.871,30.229,4.379,33.521,5.628c3.293,1.252,5.51,4.382,7.716,7.823
		c2.206,3.439,1.512,4.063-1.361,0.625c-2.873-3.441-4.077-6.883-6.748-6.883c-2.672,0-16.643-1.565-20.961-2.19
		c-4.318-0.625-5.667-0.314-10.616-1.876C323.917,492.676,322.021,489.862,327.316,491.113z"/>
	<path style="fill:#595959;" d="M331.1,488.297c9.557,2.585,23.393-0.313,32.735,0c9.342,0.314,15.388,8.134,13.371,8.445
		c-2.017,0.313-6.513-4.377-6.513-4.377s1.338,0-2.288-1.252c-3.628-1.252-5.335-0.314-9.665-0.627
		c-4.331-0.314-20.712,0-26.069,0.313C327.316,491.113,328.785,487.67,331.1,488.297z"/>
	<path style="fill:#595959;" d="M323.633,482.668c6.676,2.535,24.111-1.565,29.122-1.565c5.011,0,14.255,2.814,14.614,2.19
		c0.358-0.625,3.462-3.128-4.878-3.441c-8.34-0.313-12.324-0.94-16.691-0.313c-4.365,0.627-20.793,2.192-25.113,1.565
		c-4.318-0.627-2.788-5.631-5.235-2.817C313.003,481.103,321.986,482.041,323.633,482.668z"/>
	<g>
		<path style="fill:#595959;" d="M237.731,66.829c8.75,4.851,27.605-9.497,41.008-6.97c13.405,2.529,32.554,7.664,39.008,8.07
			c6.454,0.406,5.687,3.729,0.405,3.396c-5.283-0.331-37.835-7.996-40.151-8.704c-2.318-0.706-7.042-0.441-14.824,1.877
			c-7.781,2.32-10.219,3.852-17.97,5.61c-7.75,1.76-7.317,4.596-11.92,2.622C228.684,70.755,233.159,64.297,237.731,66.829z"/>
		<path style="fill:#595959;" d="M260.765,54.797c3.705-3.137,5.93-0.75,3.43,1.901C261.693,59.349,260.765,54.797,260.765,54.797z"
			/>
		<path style="fill:#595959;" d="M282.97,57.878c-2.223-0.757-0.432-2.834,0.833-4.441c1.264-1.604-0.342-4.515,1.974-3.806
			C288.093,50.337,287.017,59.257,282.97,57.878z"/>
		<path style="fill:#595959;" d="M303.388,72.083c7.598,1.039,17.298,6.705,22.824,2.557c5.529-4.146,9.199-6.722,3.394-8.212
			c-5.807-1.489-18.653-2.304-10.44-2.903c4.138-0.302,8.214,0.516,11.767,0.178c3.552-0.34,6.424,0.966,5.036,4.81
			c-1.389,3.846-4.413,5.34-7.532,8.514c-3.118,3.175-2.563,3.771-7.227,2.917C316.547,79.089,303.388,72.083,303.388,72.083z"/>
		<path style="fill:#595959;" d="M222.345,79.639c-3.662-3.375-13.563-10.404-9.797-14.66c3.767-4.257,11.788-21.728,15.029-27.141
			c3.24-5.414,2.159-7.166-4.139,0.301c-6.296,7.47-10.583,21.242-14.349,25.498c-3.767,4.258-4.383,4.78,0.744,7.912
			c5.126,3.13,8.311,9.51,11.123,11.933C223.769,85.907,226.268,83.256,222.345,79.639z"/>
		<path style="fill:#595959;" d="M229.085,21.081c2.982-4.984,6.444-20.939,13.334-17.698c6.889,3.241,12.264,12.568,14.519,14.394
			c2.256,1.827,4.429,0.007,0.801-3.883c-3.893-4.177-8.432-7.27-11.211-10.252c-2.783-2.985-7.355-5.52-9.915-1.748
			c-2.564,3.77-8.182,9.596-10.804,14.486C223.186,21.274,226.493,25.413,229.085,21.081z"/>
		<path style="fill:#595959;" d="M267.158,13.927c5.82,1.024,6.979,1.563,16.459,0.472c9.482-1.089,9.359,1.153,5.777,2.049
			c-3.583,0.899-10.066,1.053-17.137,1.17c-7.075,0.116-6.701,4.072-10.654,1.015C257.648,15.575,257.246,12.179,267.158,13.927z"/>
		<path style="fill:#595959;" d="M295.355,15.137c5.81,0.365,8.394-13.515,15.525-14.751c7.135-1.238,6.799,4.921,14.09,11.559
			c7.291,6.636,6.147,6.004,2.628,5.782c-3.524-0.221-7.353-5.517-8.929-8.987c-1.577-3.47-5.409-8.766-7.94-5.556
			c-2.532,3.212-6.791,5.752-8.767,9.561c-1.974,3.807-0.183,3.359-4.968,4.742C292.205,18.872,290.074,14.806,295.355,15.137z"/>
		<path style="fill:#595959;" d="M310.989,14.786c3.027-1.493,4.046,1.378,2.751,3.544c-1.299,2.165-2.501,2.65-4.17,0.862
			c-1.669-1.791-2.379,0.411-1.669-1.791C308.611,15.198,310.989,14.786,310.989,14.786z"/>
		<path style="fill:#595959;" d="M244.408,15.655c3.334,1.136,3.925,3.617,0.898,5.113c-3.027,1.495-3.461-1.34-5.19-2.012
			C238.385,18.084,240.361,14.278,244.408,15.655z"/>
		<path style="fill:#595959;" d="M249.202,30.365c1.122-1.175,0.568-3.952,2.437-1.713c1.869,2.239,5.249,4.574,4.964,6.549
			c-0.285,1.975-3.155-2.57-0.285,1.975c2.872,4.545,5.712,9.961,3.812,8.592c-1.9-1.369-2.616-5.651-5.129-8.055
			C252.488,35.31,249.202,30.365,249.202,30.365z"/>
		<path style="fill:#595959;" d="M328.528,32.951c5.898,0.371,3.984,2.497,6.796,4.921c2.812,2.424,7.816,7.793,4.667,11.527
			c-3.148,3.735-4.259,2.541-4.014-1.938c0.245-4.477-1.454-5.708-3.709-7.534c-2.255-1.828-5.129-3.131-6.827-4.362
			C323.743,34.335,324.42,32.693,328.528,32.951z"/>
		<path style="fill:#595959;" d="M341.087,33.602c5.561,13.619,19.011,37.414,11.048,44.095
			c-7.962,6.683-7.902,14.032-10.585,12.694c-2.684-1.336,2.607-8.018,5.909-12.694c3.303-4.676,3.238-12.694,0.5-20.709
			c-2.738-8.018-9.512-19.376-11.559-24.721C334.352,26.922,339.723,30.262,341.087,33.602z"/>
		<path style="fill:#595959;" d="M198.247,134.073c2.135-4.806,4.377-9.157,6.592-13.016c5.93-10.324-4.062-6.569-5.973,4.693
			c-0.521,3.07-1.423,5.782-2.451,8.23C197.027,134.003,197.637,134.033,198.247,134.073z"/>
		<path style="fill:#595959;" d="M242.217,280.592c-10.045-2.817-45.143-5.633-53.564-55.369
			c-4.077-24.074-3.178-44.41,0.167-61.333c-0.679-0.067-1.35-0.165-2.014-0.289c-0.886,3.574-1.602,7.329-1.572,10.946
			c0.076,9.386-4.857,18.769-4.827,22.524c0.031,3.752,0.144,17.828,1.186,22.521c1.039,4.693,2.08,9.386,2.127,15.014
			c0.046,5.631,4.084,9.386,6.135,15.017c2.051,5.628,7.115,12.197,15.177,17.828c8.064,5.631,21.167,15.017,32.222,18.769
			C248.307,289.975,252.261,283.406,242.217,280.592z"/>
		<path style="fill:#595959;" d="M361.273,127.868c-0.258-3.609-0.327-6.854-0.122-9.626c0.902-12.199-6.074-7.508-6.051-4.692
			c0.02,2.557,0.089,10.529,0.874,14.782C357.731,128.033,359.498,127.898,361.273,127.868z"/>
		<path style="fill:#595959;" d="M359.893,157.045c1.634,13.338,3.287,26.859,3.812,28.764c1.033,3.752,1.377,45.983,1.447,54.428
			c0.069,8.448-9.784,29.093-16.762,33.783c-6.976,4.693-6.961,6.572,0.046,5.633c7.009-0.94,15.025-0.94,21.71-41.293
			c4.094-24.706-0.845-55.386-4.894-80.85C363.455,157.435,361.668,157.302,359.893,157.045z"/>
		<path style="fill:#595959;" d="M194.311,265.576c-15.25,5.631-58.822,44.107-75.147,51.614c-12.206,4.693-8.946-1.879-1.823-4.69
			c7.124-2.817,23.849-11.593,31.791-18.772c9.863-8.914,29.326-32.845,43.501-36.597L194.311,265.576z"/>
		<path style="fill:#595959;" d="M110.858,324.696c-2.366,9.386,0.738,32.845,26.865,30.969c3.044-0.938,1.787,5.631-4.188,4.693
			c-5.978-0.938-17.968-1.879-23.546-13.141c-5.579-11.259-3.61-10.321-3.357-16.89
			C106.884,323.758,110.858,324.696,110.858,324.696z"/>
		<path style="fill:#595959;" d="M157.838,353.789c12.546-3.868,76.783-29.093,103.236-39.416c5.978,0.938,6.479,0.938-7.84,8.448
			c-9.929,5.204-32.612,14.076-41.812,18.769c-9.199,4.69-18.473,11.262-25.596,14.076c-7.124,2.814-13.065,0.938-26.128,1.876
			c-13.064,0.938-14.248,5.631-18.111,1.879C137.722,355.665,148.71,356.603,157.838,353.789z"/>
		<path style="fill:#595959;" d="M285.701,41.617c4.289-2.153,5.28-8.016,6.599-10.02c1.321-2.004-0.033-4.009,3.971-4.677
			c4.003-0.668,2.682,1.337,2.037,4.009c-0.647,2.672-3.303,4.677-3.303,4.677s-1.971,4.009-3.96,6.011
			C289.056,43.622,283.038,42.955,285.701,41.617z"/>
		<path style="fill:#595959;" d="M356.49,268.024c11.59,11.262-11.621,64.749-26.996,112.608c-3.386,9.852-7.57,1.407-2.627-9.855
			c4.942-11.259,26.707-66.154,26.924-71.785c0.217-5.631-5.143-22.521-5.143-22.521L356.49,268.024z"/>
		<path style="fill:#595959;" d="M188.121,307.438c0,0,55.334-12.75,61.244-15.955c3.649-1.977,2.987,2.244,1.466,2.713
			c-1.523,0.469-6.013,0-9.056,0.938c-3.044,0.94-6.605,2.348-9.629,2.817c-3.025,0.469-3.525,0.469-6.586,1.876
			c-3.061,1.41-8.662,3.755-10.667,3.755c-2.004,0-5.048,0.938-11.132,2.814c-6.086,1.879-7.624,2.817-13.191,4.224
			c-5.566,1.41-3.634,3.283-8.108,2.345C177.989,312.03,179.515,308.009,188.121,307.438z"/>
		<path style="fill:#595959;" d="M284.119,327.513c9.876,14.668,3.858,53.176-1.343,49.422c-5.2-3.752,2.171-36.284,0.361-41.29
			c-1.812-5.004-3.744-6.88-6.962-10.01C272.955,322.507,282.855,325.634,284.119,327.513z"/>
		<path style="fill:#595959;" d="M285.254,381.941c-0.337,8.759,4.196,12.513,6.77,15.014c2.576,2.503-10.292,21.178-5.817,43.702
			c4.477,22.521,4.146,30.122,3.615,43.887c-0.531,13.763,3.333,17.515,8.652,18.142c5.32,0.627,28.729,0,40.013,1.876
			c11.287,1.876,23.168,5.631,20.567,3.752c-2.601-1.876-2.481-5.001-10.473-5.628c-7.992-0.625-15.342-0.625-22.667-1.251
			c-7.324-0.625-17.321-1.252-24.623-2.503c-7.301-1.252-4.627-1.252-7.751-6.88c-3.123-5.631-0.331-8.759-0.781-14.392
			c-0.449-5.628-0.829-29.495-1.948-35.126c-1.118-5.631,2.044-32.438,2.881-36.819c0.837-4.379,5.039-9.383,1.795-11.886
			c-3.245-2.501-3.744-6.883-4.911-11.259C289.408,378.186,285.254,381.941,285.254,381.941z"/>
		<path style="fill:#595959;" d="M326.34,390.7c-1.577,6.256,0.137,13.765,1.973,18.142c1.834,4.382-16.839,51.3-14.65,63.816
			c-0.859,5.001,3.172,4.377,2.722-1.252c-0.452-5.631,16.508-60.062,16.081-66.317c-0.424-6.255-3.67-8.759-3.525-12.511
			C329.084,388.824,326.34,390.7,326.34,390.7z"/>
		<path style="fill:#595959;" d="M261.661,286.22c1.4-10.324,3.512-13.138,12.639-15.952c9.128-2.817,56.804-9.072,65.074-15.641
			c8.27-6.569,6.443-2.501,8.508-4.066c2.065-1.565,3.961,1.249,0.584,2.19c-3.377,0.938-4.762,2.19-7.148,3.439
			c-2.387,1.252-38.85,11.262-48.918,12.516c-10.071,1.252-21.561,4.69-24.032,8.132c-2.47,3.441-2.748,10.635-6.841,12.827
			c-4.093,2.187-5.357,0.311-2.996-0.313C260.894,288.724,261.661,286.22,261.661,286.22z"/>
		<path style="fill:#595959;" d="M272.017,312.185c5.179-4.379,13.796-11.262,16.206-13.138c2.411-1.879,45.084,0.311,54.099-16.893
			c-0.953-1.249-13.187,12.824-31.166,11.262c-7.033-0.612-20.747,2.061-24.357,3.597c-6.623,2.814-18.654,15.952-30.844,20.176
			c-6.98,2.419,5.508,0.155,7.535-0.469C265.519,316.093,272.017,312.185,272.017,312.185z"/>
		<path style="fill:#595959;" d="M299.48,284.344c4.181,4.061,36.913-4.379,46.987-14.39c-1.337,0,0.406-1.876-3.71,0.94
			c-4.118,2.814-31.919,13.449-41.57,12.511C291.535,282.468,298.513,283.406,299.48,284.344z"/>
		<path style="fill:#595959;" d="M306.378,278.714c3.638,0.94,31.938-5.317,36.378-7.818c-6.372,0.625-31.332,6.88-36.318,6.256
			C301.451,276.524,306.378,278.714,306.378,278.714z"/>
		<path style="fill:#595959;" d="M308.588,273.396c4.629,1.252,33.158-10.948,36.667-15.328c-1.671,0-30.906,13.138-36.607,13.765
			C302.945,272.458,308.588,273.396,308.588,273.396z"/>
		<path style="fill:#595959;" d="M350.11,111.726c3.54,4.088,2.47,16.358-0.494,11.099c-2.965-5.258-6.531-12.854-4.803-15.774
			C346.542,104.13,350.11,111.726,350.11,111.726z"/>
		<path style="fill:#595959;" d="M214.488,102.961c1.718-4.089,6.393-4.089,6.996-1.753c0.604,2.336,1.232,7.595-4.611,7.595
			S214.488,102.961,214.488,102.961z"/>
		<path style="fill:#595959;" d="M192.901,178.332c2.934-6.981,5.19-8.181,5.233-2.923c0.043,5.261-1.67,9.934-2.822,12.271
			C194.164,190.018,189.461,186.511,192.901,178.332z"/>
		<path style="fill:#595959;" d="M349.96,164.893c-2.875,5.843-2.836,10.516,0.682,12.269c3.522,1.755-0.041-5.258,2.258-9.931
			C355.199,162.557,349.96,164.893,349.96,164.893z"/>
		<path style="fill:#595959;" d="M184.777,271.231c-4.247,4.09,3.236,7.011,3.753,8.764c0.516,1.753,1.011,4.091-0.294,7.596
			c-1.304,3.505,2.538,9.934-1.439,7.011c-3.977-2.923-4.448-5.841-6.652-9.349c-2.199-3.505-8.02-4.09-8.02-4.09
			s-2.877-1.168,3.123-5.258C181.249,271.816,184.777,271.231,184.777,271.231z"/>
		<path style="fill:#595959;" d="M163.765,285.838c4.135-1.17,1.685,1.753,1.573,4.676c-0.112,2.918,3.775,8.179-0.248,6.426
			s-1.011-4.091-5.663-4.673C154.776,291.679,163.765,285.838,163.765,285.838z"/>
		<path style="fill:#595959;" d="M150.818,303.365c-2.269-1.753-2.807-2.92,1.933-4.673c4.742-1.753,4.585,2.338,3.304,5.258
			C154.774,306.871,150.818,303.365,150.818,303.365z"/>
		<path style="fill:#595959;" d="M347.313,298.692c-6.091,4.92-4.944,7.011-14.404,9.931c-9.461,2.923-18.764,1.753-12.427,4.091
			c6.336,2.338,3.955,3.505,12.134,3.505c8.18,0,9.234,2.923,9.234,2.923s1.147,0.583,4.856-4.676
			C350.415,309.208,350.933,295.772,347.313,298.692z"/>
		<path style="fill:#595959;" d="M332.03,331.411c0.652-1.753,6.411-6.705,8.922-4.09c2.809,2.92,8.335,11.101,1.954,9.931
			C336.524,336.084,332.03,331.411,332.03,331.411z"/>
		<path style="fill:#595959;" d="M327.962,346.018c3.69-3.555,3.213-7.596,6.606-4.673c3.394,2.92,3.394,2.92,3.394,2.92
			s-1.912,4.091-4.294,5.258C331.287,350.691,326.141,347.771,327.962,346.018z"/>
		<path style="fill:#595959;" d="M154.249,143.929c7.768-7.771,27.238-15.113,51.115-13.508c23.878,1.605,49.998-1.765,53.369-7.663
			c3.371-5.9,5.056-19.381,5.056-32.02c0-12.639,3.37-16.853,2.528-20.223c-0.842-3.37,5.9-8.425,4.214-2.528
			s-1.686,10.111-3.371,16.009c-1.685,5.9-1.685,8.428-1.685,18.539c0,8.425-1.685,20.222-7.584,24.434
			c-5.899,4.214-18.539,6.742-29.493,6.742c-10.953,0-32.018,0.843-41.288,1.686c-9.27,0.842-22.751,2.633-26.122,6.004
			C157.618,144.771,150.879,147.299,154.249,143.929z"/>
		<path style="fill:#595959;" d="M152.35,148.353c-2.797,4.661,0.632,5.688,1.896,8.215c1.264,2.528,7.584,5.056,5.056,2.528
			c-2.528-2.528-5.056-3.792-5.688-6.004c-0.632-2.212,0.948-3.792,0.948-5.372S153.298,146.773,152.35,148.353z"/>
		<path style="fill:#595959;" d="M166.254,159.413c10.627,2.656,35.706,8.216,51.189,1.896c15.483-6.32,38.866-7.9,45.502-9.163
			c6.636-1.264,14.219-17.379,11.691-27.491c-2.528-10.111-4.74-22.435-3.792-29.386c0.948-6.952,0.632-10.111,0.948-6.952
			c0.316,3.16,0.948,10.427,0.316,14.219c-0.632,3.792,3.476,18.327,3.792,21.803c0.316,3.476,2.844,11.375-3.16,20.539
			s-6.004,10.743-10.743,10.743c-4.74,0-26.543,3.16-34.126,5.372c-7.584,2.212-20.539,7.268-28.755,7.9
			c-8.216,0.632-14.851,0.948-24.963-1.58C164.042,164.784,163.726,158.781,166.254,159.413z"/>
		<path style="fill:#595959;" d="M277.27,94.952c-2.874-15.328-0.842-16.431-0.842-24.015c0-7.584-2.528-5.057-0.843-5.478
			c1.685-0.421,2.106-5.056,2.949,7.584c0.843,12.639,2.949,20.223,6.32,29.493c3.371,9.268,2.949,17.694,11.375,21.065
			c8.427,3.371,45.924,3.792,53.928,3.792c8.004,0,30.756-5.372,42.553,1.79c11.796,7.164,11.796,12.641,6.741,9.692
			c-5.056-2.95-10.218-6.636-14.853-7.9c-4.635-1.264-14.395-2.323-21.381-1.896c-6.986,0.425-27.384,0-33.704,0
			c-6.32,0-15.167-0.422-22.33-1.264c-7.163-0.843-9.269-0.001-15.588-2.95c-6.32-2.949-4.635-5.477-7.163-10.532
			c-2.528-5.056-2.107-9.691-3.792-11.796C278.956,100.428,278.534,101.692,277.27,94.952z"/>
		<path style="fill:#595959;" d="M279.377,138.767c7.426,10.21,9.69,13.903,20.223,13.482c10.532-0.421,4.635-3.793,25.279-0.421
			c20.644,3.37,58.14,10.531,67.409,6.32c9.27-4.214,9.689-5.478,8.848-8.006c-0.842-2.528,7.161-2.106,1.264-8.425
			c2.107-3.371,0.421-4.214,2.528-1.264c2.107,2.949,0.421,5.897-1.264,9.689c-1.685,3.792-1.263,3.792-7.162,7.584
			c-5.899,3.792-9.27,5.9-13.061,5.056c-3.792-0.842-58.984-9.689-65.724-10.532c-6.741-0.843-12.217,2.949-18.116,2.949
			c-5.899,0-13.905,0.844-17.274-4.633c-3.37-5.478-2.949-6.321-5.477-10.534C274.321,135.819,276.006,134.133,279.377,138.767z"/>
		<path style="fill:#595959;" d="M347.628,93.056c9.775,2.665,13.903,12.007,27.175,22.119
			c13.271,10.112,23.383,20.223,23.383,20.223s-18.959-9.479-23.383-14.535c-4.424-5.056-10.743-13.271-18.959-18.959
			c-8.216-5.688-9.479-3.792-13.271-4.424C338.78,96.848,340.676,91.16,347.628,93.056z"/>
		<path style="fill:#595959;" d="M213.019,85.472c-9.981,2.495-18.327,12.007-25.911,18.327
			c-7.583,6.32-17.695,29.703-29.702,33.494c-12.007,3.792-3.16,5.688-0.632,3.16c2.528-2.528,24.015-18.959,29.07-27.175
			c5.056-8.215,17.695-19.591,23.383-20.855c5.688-1.264,11.375-2.528,9.479-4.424C216.811,86.104,215.547,84.84,213.019,85.472z"/>
	</g>
</g>
</svg>
