<svg id="Layer_1" height="512" viewBox="0 0 128 128" width="512" xmlns="http://www.w3.org/2000/svg" xmlns:xlink="http://www.w3.org/1999/xlink" data-name="Layer 1"><linearGradient id="linear-gradient" gradientUnits="userSpaceOnUse" x1="98.581" x2="29.439" y1="107.094" y2="37.953"><stop offset="0" stop-color="#fb4c1e"/><stop offset="1" stop-color="#b465e5"/></linearGradient><path d="m95 98.6a1.75 1.75 0 0 1 -1.371 2.061l-.543.105a1.75 1.75 0 1 1 -.66-3.437l.514-.1a1.751 1.751 0 0 1 2.06 1.371zm19.5-9.8c0 4.025-4.468 7.4-13.279 10.021a1.749 1.749 0 1 1 -1-3.354c7.945-2.367 10.779-4.992 10.779-6.667 0-2.228-4.594-5.328-14.709-7.7 2.585 1.372 3.859 2.969 3.859 4.826 0 7.79-23.645 9.849-36.146 9.849-2.68 0-5.349-.072-7.933-.215a1.75 1.75 0 1 1 .193-3.494c2.52.139 5.124.209 7.739.209 21.539 0 32.646-4.45 32.646-6.349 0-.419-1.209-1.9-6.4-3.412-5.007 3.245-11.239 4.029-16.053 4.029a44.841 44.841 0 0 1 -7.052-.548c-1.565.348-2.589.5-2.762.52a1.692 1.692 0 0 1 -.242.017c-.029 0-.057-.006-.086-.008s-.034.008-.051.008-.034-.007-.051-.008-.057.008-.086.008a1.692 1.692 0 0 1 -.242-.017c-.791-.109-19.439-2.827-26.091-15.373-2.248-4.24-3.51-10.423-3.781-18.349-3.13-.723-5.916-1.209-7.782-1.5 1.3 5.807 5.122 20.6 11.595 26.664a18.7 18.7 0 0 0 9.12 4.382 1.75 1.75 0 0 1 -.358 3.463 1.776 1.776 0 0 1 -.362-.037 24.121 24.121 0 0 1 -8.2-3.252c-5.193 1.508-6.4 2.994-6.4 3.413 0 .608 2.706 3.447 15.21 5.215a1.75 1.75 0 0 1 -.243 3.482 1.773 1.773 0 0 1 -.247-.018c-8.312-1.174-18.22-3.634-18.22-8.68 0-1.857 1.273-3.453 3.857-4.825-10.122 2.377-14.722 5.476-14.722 7.7 0 4.565 17.879 10.935 47 10.935a166.962 166.962 0 0 0 23.27-1.554 1.75 1.75 0 0 1 .5 3.465 170.64 170.64 0 0 1 -23.77 1.592c-13.166 0-25.563-1.34-34.91-3.771-10.197-2.654-15.59-6.341-15.59-10.667 0-6.168 10.812-9.684 18.93-11.455-7.034-9.687-10.26-27-10.409-27.823a1.751 1.751 0 0 1 1.923-2.052 107.143 107.143 0 0 1 11.9 2.219 1.746 1.746 0 0 1 1.322 1.579.326.326 0 0 1 .026.088c.153 8.043 1.3 14.147 3.423 18.143 3.532 6.651 11.325 10.201 16.969 11.977-3.984-4.014-8.907-10.276-10.16-17.613a1.75 1.75 0 1 1 3.449-.59c1.569 9.186 10.141 16.86 13.127 19.289 3.292-2.679 13.375-11.739 13.375-22.162 0-10.356-9.684-25.465-13.375-30.848-2.65 3.862-8.387 12.735-11.414 21.285a1.75 1.75 0 0 1 -3.3-1.168c.648-1.83 1.406-3.663 2.226-5.455a120.1 120.1 0 0 0 -13.525-8.234c-.215 1.867-.491 4.677-.657 7.938a1.751 1.751 0 0 1 -1.746 1.661h-.091a1.751 1.751 0 0 1 -1.659-1.837c.31-6.077.974-10.517 1-10.7a1.751 1.751 0 0 1 2.485-1.317 121.714 121.714 0 0 1 15.736 9.3 121.122 121.122 0 0 1 9.539-15.555 1.814 1.814 0 0 1 2.813 0c.632.853 15.469 21.041 15.469 34.927 0 8.806-5.847 16.432-10.444 21.068 5.646-1.782 13.433-5.335 16.947-11.962 4.852-9.15 3.373-27.037 2.633-33.521-2.14 1.117-5.623 3.023-9.395 5.44a1.75 1.75 0 0 1 -1.889-2.947 122.258 122.258 0 0 1 11.951-6.754 1.751 1.751 0 0 1 2.485 1.317 121.491 121.491 0 0 1 1.162 16.148c5.406-1.2 9.531-1.689 9.726-1.711a1.751 1.751 0 0 1 1.923 2.052c-.149.819-3.375 18.135-10.408 27.823 8.118 1.77 18.933 5.285 18.933 11.45zm-38-5.849c4.68-.269 10.158-1.448 13.944-5 6.479-6.074 10.3-20.86 11.595-26.664-1.862.289-4.64.774-7.764 1.495-.229 6.576-1.2 13.461-3.8 18.354-3.082 5.809-8.725 9.506-13.981 11.818zm-27.594-24.388a1.7 1.7 0 0 0 .279.022 1.749 1.749 0 0 0 1.726-1.473q.059-.36.128-.725a1.75 1.75 0 1 0 -3.439-.648c-.052.274-.1.547-.144.818a1.749 1.749 0 0 0 1.45 2.006z" fill="url(#linear-gradient)"/></svg>