<?xml version="1.0" encoding="iso-8859-1"?>
<!-- Generator: Adobe Illustrator 18.1.1, SVG Export Plug-In . SVG Version: 6.00 Build 0)  -->
<svg version="1.1" id="_x31_2" xmlns="http://www.w3.org/2000/svg" xmlns:xlink="http://www.w3.org/1999/xlink" x="0px" y="0px"
	 viewBox="0 0 512 512" style="enable-background:new 0 0 512 512;" xml:space="preserve">
<g>
	<path style="fill:#EE752A;" d="M258.023,469.028c-13.295-39.884-25.626-91.294-52.854-118.522
		c-27.228-27.228-73.676-108.912-92.895-139.343c-19.22-30.431-11.211-123.327,27.228-161.766
		C177.94,10.958,243.608-6.66,293.259,9.356c49.651,16.016,88.09,40.041,105.708,88.09c17.618,48.049,8.008,112.115-9.61,144.148
		c-17.618,32.033-54.456,83.285-65.667,108.912c-11.211,25.626-40.041,89.692-46.448,108.912
		C270.836,478.638,261.226,478.638,258.023,469.028z"/>
	<path style="fill:#FBEABD;" d="M235.6,220.773c-20.914-6.1-38.439-19.22-41.643-52.854c-3.203-33.635,20.821-62.464,56.057-68.871
		c35.236-6.407,64.066,17.618,68.871,36.838c4.805,19.22,8.008,52.854-14.415,68.871C282.047,220.773,274.039,231.985,235.6,220.773
		z"/>
	<g>
		<path style="fill:#231815;" d="M212.893,211.42c-4.315-2.023-8.612-4.831-12.431-8.391c-3.827-3.547-7.15-7.85-9.625-12.543
			c-2.496-4.684-4.128-9.732-4.965-14.63c-0.846-4.904-0.909-9.647-0.538-13.896c0.095-1.063,0.264-2.617,0.598-4.578
			c0.17-0.979,0.375-2.061,0.646-3.231l0.439-1.82l0.258-0.956l0.033-0.117l0.085-0.435c1.012-5.413,2.97-12.235,6.752-19.293
			c3.754-7.048,9.363-14.26,16.678-20.227c7.281-5.994,16.191-10.714,25.697-13.473c9.501-2.79,19.556-3.615,28.974-2.635
			c4.706,0.483,9.278,1.388,13.534,2.629c4.256,1.218,8.283,2.708,11.976,4.44c7.404,3.436,13.409,7.828,17.692,12
			c4.32,4.157,7.006,7.964,8.601,10.196c6.369,8.973,10.187,21.105,9.727,36.246c-0.246,7.569-1.563,15.894-4.3,24.934
			c-0.679,2.262-1.462,4.562-2.327,6.91c-0.429,1.177-0.895,2.356-1.373,3.554l-0.743,1.807l-0.843,1.946
			c-0.311,0.658-0.716,1.374-1.076,2.035c-0.366,0.618-0.709,1.256-1.104,1.871c-0.759,1.248-1.599,2.476-2.487,3.699
			c-1.796,2.431-3.848,4.807-6.188,7.028c-3.366,3.213-7.494,6.156-12.112,8.465c-4.616,2.316-9.691,4.028-14.872,5.06
			c-10.387,2.115-21.054,1.543-30.118-0.341c-9.1-1.874-16.641-5.001-21.794-7.589c-5.162-2.601-8.019-4.598-8.035-4.567
			c0.03-0.626,4.353,1.322,11.507,3.51c7.129,2.189,17.236,4.415,28.133,4.361c5.434-0.003,11.035-0.585,16.397-1.806
			c5.357-1.232,10.467-3.113,14.903-5.535c4.448-2.401,8.218-5.301,11.164-8.235c2.956-2.931,5.133-5.847,6.688-8.246
			c0.4-0.59,0.773-1.232,1.159-1.863c0.352-0.621,0.727-1.234,1.031-1.969c0.644-1.386,1.328-2.989,1.975-4.57
			c1.306-3.202,2.523-6.658,3.577-10.275c2.112-7.229,3.451-15.155,3.485-22.814c0.07-7.656-1.217-14.988-3.382-20.934
			c-2.135-5.97-5.03-10.523-7.221-13.422c-2.144-2.889-7.583-9.21-16.763-14.116c-9.081-4.907-21.585-8.57-33.966-8.346
			c-6.192,0.054-12.316,1.012-17.901,2.604c-5.59,1.595-10.623,3.846-14.822,6.274c-8.435,4.888-13.359,10.37-14.967,12.311
			c-3.222,3.924-8.515,11.115-11.604,21.142c-0.768,2.495-1.408,5.145-1.869,7.913l-0.158,1.045l-0.117,0.735l-0.188,0.809
			c-0.16,0.687-0.306,1.38-0.436,2.08c-0.264,1.4-0.477,2.822-0.627,4.258c-0.611,5.745-0.184,11.746,1.461,17.346
			c1.637,5.603,3.965,10.074,6.317,13.771c2.368,3.694,4.772,6.632,6.934,9.105c4.368,4.911,7.647,8.088,9.757,10.461
			c2.176,2.318,0.452,2.568-1.946,2.105C215.789,212.762,212.889,211.425,212.893,211.42z"/>
		<path style="fill:#231815;" d="M98.615,129.01c-1.91,10.979-2.617,22.288-1.99,33.486c0.613,11.201,2.546,22.264,5.465,32.83
			c2.038,7.437,5.108,16.433,9.422,26.226c4.293,9.801,9.824,20.376,16.284,31.198c12.891,21.685,29.457,44.255,45.017,66.041
			c15.619,21.758,29.954,43.022,40.007,61.088c10.159,18.015,16.148,32.64,18.364,39.584c3.045,9.416,6.269,19.928,9.087,30.418
			c2.845,10.488,5.279,20.955,7.434,30.221c2.171,9.261,4.109,17.327,6.455,22.897c2.338,5.556,5.151,8.642,8.895,7.618
			c3.04-0.833,5.38-5.453,6.699-12.537c1.315-7.068,1.536-16.585,0.405-26.82c-1.106-10.235-3.579-21.144-6.877-31.012
			c-3.278-9.883-7.333-18.715-11.032-25.218c-2.424-4.255-8.904-18.126-19.748-35.936c-5.399-8.913-11.865-18.804-19.123-29.13
			c-7.248-10.332-15.281-21.1-23.595-31.967c-16.623-21.734-34.309-43.948-48.163-64.82c-6.948-10.417-12.932-20.484-17.657-29.688
			c-4.741-9.198-8.213-17.522-10.614-24.246c-5.118-14.159-7.893-28.685-8.288-41.976c-0.45-13.3,1.331-25.256,3.719-34.64
			c0.878-3.407,2.88-11.594,7.315-23.024c4.478-11.354,11.668-26.055,23.957-40.679c6.128-7.292,13.536-14.496,22.27-21.023
			c8.725-6.529,18.782-12.357,29.937-16.967c22.274-9.269,49.016-13.447,76.378-10.586c27.306,2.787,55.289,12.576,78.712,29.538
			c11.698,8.449,22.204,18.655,30.808,30.234c8.621,11.563,15.308,24.482,19.806,37.983c9.066,27.028,9.144,56.073,4.345,82.007
			c-2.501,12.988-6.624,25.215-11.831,36.452c-5.191,11.254-11.376,21.551-17.635,31.152c-6.167,9.442-12.377,18.228-18.176,26.662
			c-5.811,8.427-11.224,16.497-16.091,24.304c-4.874,7.802-9.208,15.332-13.026,22.573c-3.838,7.203-7.089,14.289-10.032,20.659
			c-11.972,25.684-21.244,44.533-28.205,59.078c-3.491,7.268-6.422,13.448-8.92,18.815l-3.441,7.47l-0.77,1.7
			c-0.134,0.308-0.355,0.749-0.485,1.123l-0.358,1.043l-1.117,3.29c-2.756,8.467-4.368,14.501-5.965,20.44
			c-3.15,12.007-4.378,22.597-4.724,30.668c-0.307,8.064,0.349,13.742,2.148,15.725c1.766,1.976,4.902,0.12,8.531-7.326
			c1.802-3.712,3.66-8.802,5.438-15.338c1.794-6.531,3.461-14.505,5.269-23.878c0.885-4.532,1.755-8.713,2.75-12.848
			c0.494-2.071,1.021-4.128,1.602-6.205c0.091-0.317,0.113-0.41,0.136-0.527c0.033-0.138,0.056-0.192,0.121-0.385l0.61-1.595
			l1.276-3.267c3.494-8.862,7.825-19.029,14.089-33.007l25.326-56.062c5.265-11.857,12.094-24.881,21.014-39.176
			c4.45-7.156,9.411-14.633,14.811-22.573c5.387-7.946,11.224-16.353,17.157-25.559c6.314-9.821,12.691-20.537,18.114-32.416
			c5.437-11.856,9.804-24.899,12.42-38.665c2.637-13.785,3.624-28.117,3.128-42.745c-0.552-14.656-3.017-29.62-7.819-44.066
			c-4.777-14.445-11.915-28.323-21.118-40.732c-9.184-12.426-20.385-23.371-32.831-32.408
			c-24.932-18.133-54.567-28.555-83.608-31.536c-29.089-3.052-57.719,1.391-81.793,11.554c-12.05,5.05-22.964,11.479-32.435,18.73
			c-9.483,7.248-17.526,15.293-24.151,23.468c-13.295,16.403-20.914,33.003-25.587,46.111
			C101.481,113.913,99.497,123.893,98.615,129.01z"/>
	</g>
</g>
</svg>
