<?xml version="1.0" encoding="iso-8859-1"?>
<!-- Generator: Adobe Illustrator 21.1.0, SVG Export Plug-In . SVG Version: 6.00 Build 0)  -->
<svg version="1.1" id="_x39_" xmlns="http://www.w3.org/2000/svg" xmlns:xlink="http://www.w3.org/1999/xlink" x="0px" y="0px"
	 viewBox="0 0 512 512" style="enable-background:new 0 0 512 512;" xml:space="preserve">
<g>
	<path style="fill:#E50012;" d="M127.489,115.854C75.331,130.756,12.694,163.303,18.816,265.853s99.489,110.203,122.448,113.264
		s90.305-1.531,113.264-26.02c19.303-20.59,38.265-56.632,39.796-99.489s-4.592-90.305-53.571-114.795
		S159.631,106.671,127.489,115.854z"/>
	<path style="fill:#FFFFFF;" d="M289.732,278.098c-26.02,1.531-53.571-3.061-81.122-1.531s-40.269,0.33-47.449,7.653
		c-7.179,7.323-12.245,26.02,12.245,33.673c24.49,7.653,46.398,4.608,65.816,3.061c19.418-1.547,35.204,0,39.796,9.184
		c4.592,9.184,7.653,22.959-16.837,27.551s-65.816,1.531-76.53,1.531c-10.714,0-38.852-4.239-52.04-3.061
		c-13.189,1.178-24.49,4.592-24.49,22.959s13.775,24.49,41.326,26.02s208.162-1.531,208.162-1.531s104.081-1.531,123.979-1.531
		c19.898,0,26.02-36.734,0-42.857c-30.612-6.122-113.265-1.531-136.224-3.061c-22.959-1.531-33.673-29.081-10.714-32.143
		c22.959-3.061,32.143,1.531,48.979,0c16.837-1.531,32.143-33.673,7.653-39.796C367.793,278.098,289.732,278.098,289.732,278.098z"
		/>
	<g>
		<path style="fill:#231815;" d="M23.417,282.497c1.748,17.867,14.302,36.248,26.008,49.03c7.597,8.295,16.425,15.145,25.821,21.276
			c3.827,2.497,23.888,12.11,20.016,17.744c-4.226,6.149-22.806,0.435-27.958-1.445c-9.372-3.419-17.143-9.884-24.174-16.811
			c-12.192-12.013-21.788-26.243-29.649-41.385c-20.227-38.958-16.018-85.171,1.552-124.476
			c18.275-40.882,55.222-72.428,98.66-83.606c43.591-11.218,90.794-0.901,128.674,22.393c37.876,23.291,60.066,66.396,61.331,110.75
			c0.27,9.488-0.889,20.28-5.962,28.543c-1.505,2.451-4.773,7.371-8.248,5.79c-3.415-1.553-2.33-8.416-2.24-11.302
			c0.719-22.888-0.527-45.683-8.449-67.408c-14.383-39.445-49.175-65.27-88.641-76.911c-41.412-12.216-85.343-3.658-120.243,21.751
			c-18.029,13.126-34.218,30.727-43.284,51.296c-8.975,20.362-10.987,44.134-8.639,66.073
			C19.034,263.554,22.021,272.842,23.417,282.497z"/>
		<path style="fill:#231815;" d="M231.983,283.785c14.591,0.538,30.719,1.513,44.922-2.616c2.358-0.686,8.317-2.047,7.647-5.527
			c-0.773-4.019-11.64-5.322-14.599-5.956c-14.332-3.07-29.11-4.37-43.735-4.903c-16.044-0.584-32.312-1.277-48.284,0.752
			c-8.611,1.094-17.014,2.943-23.887,8.49c-10.838,8.747-14.167,24.161-7.773,36.598c7.352,14.3,25.452,17.058,39.96,17.226
			c13.552,0.157,27.176-0.864,40.719-1.308c12.377-0.406,27.942-3.522,39.822,1.082c16.04,6.216,9.016,23.204-5.237,26.026
			c-11.786,2.334-24.917,1.406-36.863,1.459c-17.503,0.077-35.003-0.331-52.49-1.064c-22.58-0.947-71.517-12.043-75.558,22.543
			c-1.8,15.404,12.927,27.287,26.226,31.29c15.96,4.805,33.152,2.357,49.492,1.695c33.079-1.34,66.574,0.69,99.675,1.197
			c18.548,0.284,37.314,1.318,55.803-0.75c3.19-0.357,17.947-1.028,18.996-5.7c1.062-4.73-11.919-6.284-14.513-6.755
			c-47.296-8.583-97.326-2.447-144.905-0.787c-14.34,0.5-28.639,2.536-42.981,2.62c-12.347,0.072-28.665-2.097-35.319-14.264
			c-7.333-13.409,9.976-22.759,21.095-22.371c15.38,0.536,30.736,1.79,46.123,2.308c26.882,0.905,53.969,1.226,80.83-0.463
			c12.536-0.788,25.804-6.605,29.387-19.785c4.04-14.862-7.821-26.319-21.29-29.591c-14.724-3.576-31.675-1.536-46.731-1.693
			c-13.932-0.146-28.938,1.072-42.659-1.889c-5.097-1.1-11.652-2.765-14.368-7.676c-2.988-5.404-1.366-12.208,3.41-15.875
			c5.492-4.216,13.938-4.294,20.479-4.678C200.878,282.51,216.477,283.39,231.983,283.785z"/>
		<path style="fill:#231815;" d="M332.686,340.227c-1.344-2.478-2.196-5.436-2.477-8.225c-0.277-2.753,1.337-5.744,0.965-8.243
			c-1.126-7.564-11.145-1.8-13.758,1.614c-8.933,11.673-1.892,29.037,10.297,35.014c6.415,3.146,14.034,3.313,21.023,3.547
			c15.189,0.508,30.406-0.669,45.541-1.824c15.342-1.171,30.674-2.479,46.04-3.307c14.968-0.806,31.949-2.921,46.366,2.219
			c11.602,4.136,20.953,20.478,10.802,31.337c-8.221,8.794-28.519,6.48-39.299,6.497c-16.358,0.026-32.716-0.601-49.056-1.295
			c-14.359-0.61-29.402-2.742-43.736-1.382c-4.195,0.398-19.091,2.645-13.057,9.738c3.366,3.957,11.23,5.027,15.927,5.86
			c25.862,4.589,52.35-0.237,78.294-1.322c24.632-1.03,66.916,3.866,65.402-31.926c-1.661-39.271-57.781-30.868-83.828-30.876
			c-18.777-0.006-37.563-0.182-56.327-0.898c-7.867-0.3-15.741-0.663-23.583-1.364C343.288,344.951,335.569,345.326,332.686,340.227
			z"/>
		<path style="fill:#231815;" d="M306.627,268.898c-12.083-0.764-21.239,11.591-7.227,17.084c14.979,5.873,34.778,1.65,50.096-0.588
			c13.269-1.939,32.547-7.495,44.828,0.562c10.531,6.909,9.097,22.308-1.744,27.706c-15.404,7.67-32.524,0.914-48.529,0.736
			c-4.998-0.056-15.217,2.418-12.616,9.747c1.779,5.013,10.21,6.647,14.728,7.466c14.651,2.655,32.351-0.79,46.148-5.917
			c14.744-5.479,23.293-17.853,18.953-33.594c-5.412-19.626-27.185-21.006-44.217-20.745
			C346.837,271.664,326.779,270.143,306.627,268.898z"/>
	</g>
</g>
</svg>
