<?xml version="1.0" encoding="iso-8859-1"?>
<!-- Generator: Adobe Illustrator 21.1.0, SVG Export Plug-In . SVG Version: 6.00 Build 0)  -->
<svg version="1.1" id="_x31_2" xmlns="http://www.w3.org/2000/svg" xmlns:xlink="http://www.w3.org/1999/xlink" x="0px" y="0px"
	 viewBox="0 0 512 512" style="enable-background:new 0 0 512 512;" xml:space="preserve">
<g>
	<path style="fill:#B4B4B5;" d="M77.642,184.212c-22.857,12.857-52.046,30.36-66.142,69.394
		c-14.096,39.034-9.254,53.96-9.759,59.636c-0.505,5.676,3.253,22.77,5.421,36.866c2.169,14.096,10.843,46.624,32.529,65.057
		c21.686,18.433,50.961,32.529,96.502,35.781c45.54,3.253-23.854-59.636-37.95-103.007c-14.096-43.371,8.674-100.839,8.674-100.839
		s53.13-42.287,72.647-43.371c19.517-1.084,57.467,9.759,55.299,5.421c-2.169-4.337,0-20.601-39.034-29.276
		C156.795,171.201,112.34,164.695,77.642,184.212z"/>
	<path style="fill:#9E9E9F;" d="M260.887,227.584c-19.846-21.4-79.153-61.804-157.222-33.613
		c-26.456,9.554-73.731,35.781-75.9,120.356c2.169,94.333,45.54,111.682,76.984,125.777c31.444,14.096,66.142,15.18,95.417,6.506
		c29.276-8.674,87.827-58.551,88.911-116.018C290.163,273.124,280.733,248.984,260.887,227.584z M172.518,328.423
		c-1.372,1.088-30.36,11.927-35.781,8.674c-5.422-3.253-9.759-22.228-9.759-22.228l-2.711-13.012
		c-2.711-5.963,3.795-11.385,10.843-12.469c7.048-1.084,24.396-4.879,24.396-4.879s3.795,7.048,6.506,16.264
		C168.722,309.99,173.889,327.334,172.518,328.423z"/>
	<path style="fill:#717071;" d="M160.048,282.882c5.964-1.084,14.096-3.253,15.18-0.542c1.084,2.711,10.843,53.13,10.843,53.13
		s-13.012-7.048-13.554-9.216c-0.542-2.169-6.506-25.481-6.506-25.481L160.048,282.882z"/>
	<path style="fill:#888888;" d="M136.736,337.097c0.542,1.626,17.891-1.626,23.854-4.879c5.964-3.253,11.927-3.795,11.927-3.795
		s11.226,6.312,13.011,9.216c1.785,2.905-3.253,4.879-8.132,6.506c-4.879,1.626-24.396,5.964-28.734,6.506
		c-4.337,0.542-8.132,1.084-10.301-4.879C136.194,339.807,136.736,337.097,136.736,337.097z"/>
	<path style="fill:#94C85C;" d="M265.657,119.327c-4.232,0.639-14.239,3.741-16.156-0.172c-1.917-3.913-2.169-5.421,1.626-8.674
		c3.795-3.253,23.854-15.722,25.481-17.349c1.626-1.627,5.646-5.245,6.347-10.483c0.701-5.239,5.143-18.141,8.784-20.057
		c3.641-1.916,10.827,11.262,10.859,13.04c0.032,1.778,14.67-5.812,14.67-5.812s5.034-11.328,9.294-15.646
		c4.259-4.318,13.476,3.719,19.44,9.683c5.964,5.964,17.348,10.301,26.565,13.554c9.216,3.253,48.965,16.913,58.367,26.347
		c9.401,9.434,46.267,38.168,57.11,59.854c10.843,21.686,9.759,31.444,10.301,40.661c0.542,9.216-9.758,56.925-10.843,59.094
		c-1.084,2.169-7.119,24.383-11.927,26.023c-4.809,1.64-9.76,1.761-9.76,1.761s8.694,66.083,14.256,75.479
		c5.562,9.396,22.612,21.43,26.949,34.441c4.337,13.011,6.191,18.729,1.198,28.611c-4.993,9.882-7.161,16.929-18.547,19.64
		c-11.385,2.711-19.974,6.932-28.691,4.821c-8.717-2.111-38.535,0.058-47.751,5.479c-9.216,5.421,9.759-11.927,14.096-11.927
		c0,0-16.455-2.312-27.745,6.705c0.095-5.079,10.938-15.379,17.444-16.464c-11.385,2.169-20.601,10.301-20.601,10.301
		s4.879-16.264,23.312-20.059c18.433-3.795,52.588-2.711,52.588-2.711s11.427-4.3,7.882-11.908
		c-3.545-7.609-9.915-14.622-9.915-14.622l-6.642-12.504c0,0-33.071-27.107-38.492-33.613c-5.421-6.506-20.602-31.986-21.686-43.914
		c-1.084-11.927-13.011-8.674-13.011-8.674s-2.711-1.084-9.216,4.337c-6.506,5.421-24.991,25.47-27.107,27.107
		c-2.116,1.637-0.542,16.264-0.542,21.686c0,5.421-4.879,13.554,0.542,28.734c5.421,15.18,5.975,26.288-5.382,34.514
		c-11.356,8.226-13.051,4.521-13.051,4.521s-38.492,2.169-52.046,8.132c-13.554,5.964,5.964-10.301,5.964-10.301
		s-21.882,3.839-31,10.052c-9.118,6.213-0.444-12.22,15.278-16.015c-7.59-1.084-16.806,4.337-13.554,0
		c3.253-4.337,8.132-9.758,19.517-9.758c11.385,0,19.202,2.587,29.931-0.333c10.73-2.92,22.115-13.763,22.657-20.811
		c0.542-7.048-3.385-21.412-9.282-31.579c-5.898-10.166-11.319-23.178-11.319-29.141s12.469-21.144,18.975-27.107
		c6.506-5.964,24.839-23.039,24.839-23.039l4.45-6.87l-0.487-9.352c0,0-24.464,6.732-29.886,8.358
		c-5.422,1.626-46.624,9.216-52.588,9.216c-5.964,0-15.035-2.042-21.071-2.647c-6.036-0.605-20.188,1.281-16.365-0.746
		c3.823-2.027,19.891-8.928,30.494-10.039c10.603-1.111-24.502-5-32.092-0.663c-7.59,4.337-8.447-1.849-3.953-2.822
		c4.495-0.973,21.453-12.631,33.575-7.615c-7.395-2.032-20.584-7.136-25.645-4.042c-5.062,3.094-0.06-7.541,27.528-7.103
		c-6.567-8.778-7.339-13.242-7.339-13.242s17.711,1.56,21.982,6.265c4.271,4.705,7.998,18.874,29.989,14.771
		c21.991-4.103,27.181-8.344,30.82-11.374c3.64-3.03-1.606-9.836-2.236-14.565c-0.63-4.729-5.086-8.52-6.924-6.082
		c-1.838,2.438-17.97,13.891-30.505,11.417c-12.536-2.474-56.694-13.176-56.694-13.176l-16.019-14.778
		c0,0-14.638-10.843-20.059-11.927c-5.421-1.084-1.394-6.186,2.421-5.659c3.816,0.527,20.349,8.37,27.396,12.165
		c7.048,3.795,17.891,4.879,23.854,6.506s36.479,5.524,40.458,5.381c3.979-0.143,7.793-0.502,9.961-3.212
		c2.169-2.711,14.186-12.566,14.141-14.957c-0.045-2.391-2.876-27.294-2.756-31.667c0.12-4.373-10.843-11.927-11.385-13.554
		C316.185,137.588,269.89,118.688,265.657,119.327z"/>
	<path style="fill:#FFFFFF;" d="M265.657,119.327c7.157-2.883,46.191-2.34,60.829-2.883c14.638-0.542,34.697-3.253,33.613,9.216
		c-1.084,12.469-1.084,25.481,11.927,30.902c13.012,5.421,11.927,18.433,11.927,18.433s-22.154,46.352-28.734,52.046
		s-6.506,10.301-9.216-1.626c-2.711-11.927-12.161-29.272-15.026-38.219c-2.865-8.947-9.464-26.238-9.394-31.844
		c0.07-5.606-26-23.185-39.553-28.606C268.477,121.324,265.657,119.327,265.657,119.327z"/>
	<path style="fill:#FFFFFF;" d="M418.143,205.978c4.845,3.715,20.567,17.81,21.109,34.617c0.542,16.806-29.818,32.529-36.324,41.745
		s-2.169,18.433-2.169,18.433s-2.998,1.841-15.053-7.483c-12.055-9.323-24.931-28.751-26.083-38.283
		c11.859-8.448,33.545-19.833,37.34-24.712C400.76,225.415,418.143,205.978,418.143,205.978z"/>
	<g>
		<path style="fill:#231815;" d="M321.704,150.979c-0.469-1.094-1.602-1.97-2.798-2.751c-1.244-0.735-2.576-1.352-3.439-2.104
			c-0.868-0.753-4.511-3.355-8.505-5.868c-4.01-2.504-8.381-4.892-10.2-6.309c-1.924-1.577-6.534-4.165-10.984-6.241
			c-4.438-2.109-8.714-3.658-9.643-3.973c-1.826-0.707-8.369-3.359-10.477-4.407c-2.112-1.022-5.252-2.057-4.232,0.639
			c1.001,2.677,4.461,3.325,6.321,3.876c0.936,0.241,6.797,2.152,12.473,4.418c5.689,2.242,11.172,4.839,11.986,5.009
			c0.822,0.138,5.209,2.581,9.357,5.483c4.176,2.864,8.116,6.099,9.122,6.615c2.15,0.953,5.61,6.461,7.384,7.708
			c1.944,1.184,2.877,2.996,4.201,2.287c1.285-0.697,4.246-1.23,2.843-1.377c-0.7-0.073-1.543-0.825-2.216-1.561
			C322.232,151.68,321.704,150.979,321.704,150.979z"/>
		<path style="fill:#231815;" d="M289.782,82.891c10.082-7.839,14.849-11.112,16.816-11.066c1.899-0.023,0.578,3.368-3.818,6.729
			c-8.73,6.633-17.276,13.408-24.633,18.024c-7.33,4.615-14.84,8.894-21.98,13.332c-1.763,1.125-3.981,2.521-5.834,4.127
			c-0.884,0.809-1.745,1.668-2.175,2.563c-0.193,0.441-0.353,0.888-0.358,1.336c-0.061,0.233,0.034,0.443,0.054,0.667l0.05,0.339
			l0.12,0.492c0.118,1.242-0.281,1.997-0.344,2.645c-0.063,0.304,0.007,0.658,0.29,0.82c0.254,0.144,0.43,0.161,0.528,0.231
			l-0.043,0.221c-0.118,0.032-0.458,0.344-1.185-0.144c-0.598-0.573-0.582-1.174-0.655-1.655c-0.05-0.496-0.052-1.065-0.165-1.494
			c0.009-0.121-0.598-1.099-0.687-1.892c-0.177-0.838-0.061-1.645,0.104-2.367c0.372-1.458,1.097-2.482,1.747-3.48
			c1.38-1.91,2.848-3.352,4.391-4.793c3.106-2.851,6.65-5.481,12.169-8.911c5.526-3.335,11.972-7.225,17.04-10.283
			C286.234,85.259,289.782,82.891,289.782,82.891z"/>
		<path style="fill:#231815;" d="M311.379,87.008c1.84-0.014,3.224-1.672,3.976-3.385c0.773-1.746,1.033-3.575,1.697-4.725
			c0.73-1.152,2.63-5.952,3.931-11.086c0.707-2.559,1.362-5.196,2.048-7.468c0.686-2.226,1.384-4.315,2.195-5.033
			c0.378-0.357,0.786-0.785,1.337-1.137c0.523-0.36,1.282-0.617,2.073-0.392c1.359,0.512,1.819,1.38,3.691,2.84
			c1.572,1.333,3.129,2.761,4.584,4.067c2.877,2.648,5.44,4.829,6.165,5.334c0.9,0.669,2.8,2.464,4.898,4.236
			c2.075,1.797,4.373,3.478,5.451,4.448c2.18,1.977,5.773,3.607,5.54-1.449c-0.136-4.991-3.65-5.898-5.508-6.876
			c-0.449-0.232-2.053-1.111-4.096-2.574c-2.06-1.438-4.536-3.515-7.101-5.708c-2.556-2.19-5.272-4.393-7.574-5.958
			c-0.952-0.606-2.664-1.865-3.863-2.285c-1.226-0.474-2.139-0.443-2.538-0.335c-0.417,0.015-0.471,0.057-0.512,0.077
			c-0.553,0.222-2.939,0.681-4.599,3.401c-0.426,0.65-0.813,1.408-1.16,2.245c-0.247,0.625-0.505,1.281-0.77,1.957
			c-0.501,1.248-1.029,2.569-1.559,3.896c-2.096,5.318-4.672,10.171-4.744,11.42c-0.036,1.284-1.665,3.089-3.392,4.374
			c-1.76,1.321-3.371,1.928-3.673,2.733c-0.349,0.855-0.958,1.305-1.393,1.705c-0.417,0.517-0.759,1.049-0.732,2.476
			c0.063,1.425-0.252,3.482-0.621,4.928c-0.363,1.443-0.553,2.272,0.213,1.243c0.743-1.032,2.266-1.427,3.582-2.006
			C310.287,87.542,311.343,86.958,311.379,87.008z"/>
		<path style="fill:#231815;" d="M379.968,71.197c5.601,5.345,9.681,8.091,13.445,9.929c3.745,1.804,7.06,2.723,10.302,4.4
			c1.595,0.879,5.472,3.087,10.411,6.262c4.912,3.216,10.88,7.391,16.809,11.969c11.906,9.109,23.423,19.964,29.067,24.52
			c2.778,2.227,9.702,8.134,16.66,15.419c6.987,7.24,13.88,15.981,17.65,22.393c0.899,1.629,3.367,5.797,5.635,11.938
			c1.083,3.102,2.214,6.633,2.744,10.724c0.514,4.227,0.152,8.271-0.358,12.167c-1.09,7.775-3.045,15.005-4.518,20.772
			c-1.518,5.746-2.581,9.964-2.839,11.387c-1.468,7.756-1.876,14.17-2.245,16.134c-0.471,3.05-1.414,10.034-4.341,16.847
			c-0.363,0.844-0.725,1.69-1.151,2.504c-0.387,0.775-0.773,1.546-1.153,2.306c-0.73,1.421-1.402,2.82-1.978,4.162
			c-1.178,2.667-2.017,5.074-2.486,6.805c-0.328,1.241-1.45,5.224-3.405,8.082c-0.972,1.441-2.286,2.63-3.947,3.14
			c-0.39,0.19-0.825,0.167-1.228,0.247c-0.408,0.082-0.813,0.094-1.212,0.043c-0.396-0.031-0.788-0.059-1.171-0.088
			c-0.381-0.109-0.757-0.214-1.121-0.318c-1.461-0.326-2.719-1.236-3.72-1.791c-0.918-0.696-1.577-1.329-1.933-1.862
			c-0.732-1.081-0.116-1.729,1.595-2.123c1.702-0.399,3.31-0.318,4.939-0.403c0.807,0.003,1.767-0.317,2.361-1.082
			c0.598-0.74,1.008-1.605,1.391-2.454c0.43-0.939,0.865-1.884,1.289-2.808c0.523-1.149,1.076-2.277,1.602-3.341
			c1.09-2.114,2.062-3.996,2.778-5.382c0.322-0.709,1.065-1.989,2.089-3.797c1.004-1.759,2.252-3.985,3.312-6.908
			c1.069-2.905,1.983-6.428,2.635-10.457c0.684-4.024,1.149-8.536,1.901-13.369c0.231-1.738,0.865-6.481,1.967-12.604
			c1.042-6.126,2.413-13.712,3.027-21.188c0.297-3.724,0.397-7.437,0.041-10.72c-0.301-3.192-1.396-6.139-2.397-8.763
			c-2.189-5.231-4.549-8.962-5.204-10.271c-1.248-2.318-3.233-6.236-5.961-10.666c-2.701-4.437-6.031-9.413-9.398-14.043
			c-6.768-9.244-13.692-17.015-14.138-17.712c-1.441-2.138-10.617-10.677-20.826-18.274c-10.121-7.734-21.209-14.385-23.994-16.614
			c-2.769-2.278-9.869-4.367-16.956-5.73c-7.101-1.419-14.029-2.241-17.038-3.741c-1.498-0.829-2.848-1.702-4.047-2.617
			c-1.196-0.919-2.22-1.969-3.095-2.924c-1.745-1.917-2.812-3.906-2.973-5.413c-0.308-3.011,0.299-10.665,3.072-7.999
			c1.355,1.347,3.412,2.046,5.073,2.611C378.604,71.018,379.968,71.197,379.968,71.197z"/>
		<path style="fill:#231815;" d="M381.595,176.986c4.393-14.032,8.372-19.92,10.051-20.756c1.699-0.845,1.112,2.867-1.353,8.36
			c-4.885,11.098-7.633,23.189-11.958,32.244c-2.121,4.522-4.559,8.973-7.635,13.053c-0.809,0.993-1.588,2.006-2.431,2.97
			l-2.669,2.762c-1.593,1.527-3.127,3.401-4.676,5.262c-3.079,3.704-7.982,9.602-12.282,11.854
			c-2.087,1.195-3.788,1.287-4.069,1.135c-0.154-0.079,0.002-0.261,0.503-0.546c0.501-0.27,1.346-0.709,2.486-1.593
			c2.291-1.762,3.854-3.813,5.25-5.701c1.382-1.918,2.558-3.775,3.806-5.698c1.26-1.925,2.533-3.937,4.314-6.182
			c0.43-0.563,0.958-1.132,1.486-1.722c0.458-0.52,0.934-1.057,1.425-1.617c1.026-1.064,1.96-2.377,3.047-3.745
			c4.191-5.635,7.88-13.209,10.42-19.355C379.871,181.571,381.595,176.986,381.595,176.986z"/>
		<path style="fill:#231815;" d="M354.649,224.218c-1.581,0.632-3.12,1.951-4.518,3.557c-1.511,1.459-2.918,3.195-4.439,4.056
			c-1.45,0.938-7.155,4.672-13.796,7.661c-6.582,3.096-14.106,5.198-17.643,5.205c-1.874-0.043-4.871,0.319-8.046-0.165
			c-0.773-0.163-1.486-0.335-2.261-0.618c-0.773-0.339-1.554-0.689-2.32-1.151c-1.547-0.859-3.063-1.93-4.525-3.045
			c-2.925-2.232-5.676-4.6-7.989-6.387c-2.307-1.796-4.16-3.012-4.849-3.404c-1.348-0.781-4.384-2.928-8.451-3.857
			c-3.768-0.758-7.2-1.179-8.322-1.901c-1.264-0.616-2.021-1.38-2.848-1.862c-0.786-0.457-1.817-0.565-2.361,1.356
			c-0.254,0.986-0.059,2.015,0.526,2.972c0.582,0.956,1.604,1.735,2.71,2.234c2.266,1.004,4.556,0.965,6.038,1.075
			c0.367,0.032,1.23,0.107,2.465,0.212c1.269,0.112,2.504,0.39,4.137,0.971c3.186,1.246,6.96,3.951,10.671,6.902
			c3.729,2.924,7.554,5.997,11.177,7.757c1.76,0.928,3.494,1.451,4.96,1.634c1.412,0.214,2.261,0.028,2.619,0
			c0.349-0.053,1.117-0.088,2.182-0.203c0.537-0.036,1.153-0.079,1.84-0.126c0.671-0.086,1.409-0.18,2.2-0.281
			c3.163-0.406,7.114-1.171,11.007-2.259c7.828-2.052,15.404-5.387,16.811-6.566c1.443-1.116,4.658-2.338,7.855-3.768
			c1.57-0.768,3.186-1.478,4.511-2.291c1.321-0.817,2.417-1.601,3.043-2.293c1.203-1.461,2.492-2.657,3.369-3.706
			c0.822-1.13,1.235-2.079,0.691-2.948c-1.047-1.781-2.316-5.637-2.306-3.737c-0.002,0.946-0.981,2.261-2.001,3.283
			C355.703,223.493,354.649,224.218,354.649,224.218z"/>
		<path style="fill:#231815;" d="M431.665,187.012c-1.731,1.049-2.925,2.031-3.865,2.948c-0.979,0.902-1.62,1.77-2.087,2.621
			c-0.945,1.692-1.131,3.36-1.948,4.854c-0.431,0.735-1.552,2.498-3.025,4.814c-0.698,1.18-1.622,2.416-2.596,3.729
			c-0.967,1.313-1.989,2.705-3.029,4.118c-4.38,5.483-9.382,10.902-11.467,13.601c-2.03,3.102-7.742,8.551-13.558,12.982
			c-5.791,4.486-11.7,7.786-12.964,8.495c-2.524,1.439-11.46,6.904-14.353,8.776c-2.843,1.976-7.187,4.112-6.28,0.034
			c0.895-4.06,5.807-5.776,8.401-6.969c1.285-0.604,9.464-4.573,17.022-9.437c7.622-4.777,14.471-10.506,15.545-11.072
			c1.135-0.485,6.435-5.678,10.887-11.656c4.484-5.961,8.175-12.504,9.296-13.744c1.081-1.272,1.724-4.743,1.917-8.249
			c0.179-3.536,0.405-6.852,1.228-8.226c1.815-2.654,5.263-3.854,7.384-3.62c2.114,0.255,7.481,1.599,5.626,2.541
			C431.95,184.474,431.665,187.012,431.665,187.012z"/>
		<path style="fill:#231815;" d="M321.584,155.352c-0.705,1.32-0.421,3.058,0.15,4.662c0.539,1.628,1.355,3.144,1.627,4.432
			c0.199,1.32,1.745,6.226,3.77,11.21c1.996,5.003,4.321,10.18,4.826,12.78c1.078,5.621,8.403,22.386,9.11,24.424
			c0.446,1.006,1.176,3.423,1.772,5.901c0.576,2.484,0.954,5.018,0.945,6.272c0.045,2.499,0.233,5.801,3.217,3.655
			c3.027-2.344,1.541-6.555,0.784-8.635c-0.317-1.099-2.624-7.943-5.487-14.396c-2.816-6.484-5.759-12.788-6.435-13.494
			c-0.689-0.7-2.689-6.083-4.454-11.583c-1.785-5.507-3.081-11.117-3.684-12.239c-0.677-1.119-0.766-3.583-0.657-5.946
			c0.073-2.388,0.514-4.581,0.145-5.727c-0.671-2.342,0.197-4.239-1.631-4.999c-1.89-0.695-4.917-3.522-3.926-1.921
			c0.498,0.799,0.34,2.166,0.247,3.37C321.733,154.307,321.584,155.352,321.584,155.352z"/>
		<path style="fill:#231815;" d="M460.362,284.042c-1.663,5.234,2.143,12.636,2.93,17.71c0.304,2.59,2.32,12.53,4.978,22.923
			c2.578,10.424,5.957,21.234,6.861,26.391c0.258,1.382,0.671,3.139,1.201,5.167c0.551,2.021,1.364,4.272,2.189,6.706
			c0.46,1.204,1.015,2.427,1.552,3.69c0.521,1.267,1.103,2.547,1.853,3.797l1.065,1.904l0.539,0.957l0.693,0.914l1.412,1.823
			l0.709,0.898l0.659,0.733c3.507,3.97,6.6,8.293,8.961,11.685c2.356,3.419,3.999,5.995,4.57,6.909
			c0.591,0.905,1.475,2.458,2.395,4.359c0.927,1.875,1.901,4.212,2.354,6.261c0.147,0.554,0.084,0.835,0.154,1.315
			c0.002,0.603,0.005,1.203,0.005,1.793c-0.034,1.162-0.095,2.269-0.251,3.243c-0.27,1.948-0.832,3.478-1.292,4.714
			c-0.986,2.401-1.785,6.199-1.416,8.405c0.342,2.266,1.43,3.138,3.779,1.226c2.347-1.921,3.532-4.537,4.547-7.305
			c0.494-1.405,0.904-3.043,1.069-4.648c0.172-1.601,0.129-3.08,0.077-4.272c-0.025-0.597-0.093-1.986-0.29-3.921
			c-0.342-2.606-1.4-4.914-2.698-7.56c-2.644-5.204-6.525-11.206-10.801-16.935c-2.146-2.863-4.371-5.65-6.709-8.203
			c-0.566-0.62-1.305-1.299-1.717-1.833c-0.444-0.539-0.881-1.067-1.307-1.585c-0.922-0.935-1.543-2.264-2.252-3.303
			c-2.66-4.416-4.225-8.006-4.79-8.735c-1.269-1.408-4.747-12.228-7.087-23.511c-2.479-11.262-3.888-22.862-4.828-25.282
			c-0.884-2.435-1.013-7.367-0.85-12.244c0.125-4.884,0.478-9.665-0.07-12.097c-1.251-4.98-0.159-9.178-2.857-10.155
			c-2.771-0.898-7.429-5.338-5.83-2.599c0.852,1.353,0.643,4.071,0.73,6.346c-0.011,1.153-0.079,2.232-0.143,3.025
			C460.398,283.54,460.362,284.042,460.362,284.042z"/>
		<path style="fill:#231815;" d="M406.316,331.379c-2.807-7.745-5.356-15.729-6.716-23.509c-1.389-7.755-1.572-15.205-0.58-21.207
			c1.067-6.004,2.424-5.003,3.453-1.78c0.958,3.241,1.892,8.645,2.064,12.194c0.107,1.781,0.107,3.93,0.442,6.268
			c0.143,1.17,0.249,2.404,0.435,3.663c0.229,1.252,0.465,2.542,0.705,3.854c1.078,5.221,2.75,10.674,4.722,15.246
			c1.026,2.257,3.464,7.927,8.018,14.497c4.454,6.624,11.007,14.044,18.309,20.739c7.253,6.753,15.103,12.893,21.289,18.237
			c6.237,5.243,10.583,10.147,11.924,12.254c0.696,0.917,2.019,3.088,3.095,5.929c0.813,2.321,2.257,4.872,4.86,7.538
			c0.707,0.723,1.436,1.469,2.186,2.236c0.775,0.813,1.749,1.887,2.463,3.48c0.161,0.425,0.322,0.854,0.437,1.296
			c0.068,0.466,0.118,0.941,0.147,1.416c0.007,0.902-0.163,1.824-0.401,2.578c-0.51,1.531-1.237,2.735-1.989,3.861l-1.178,1.622
			l-1.516,1.643c-1.106,0.999-2.318,1.905-3.632,2.576c-2.615,1.378-5.413,2.078-8.145,2.48c-5.485,0.742-10.812,0.402-15.851,0.105
			c-5.064-0.339-9.756-0.647-14.127-0.511c-8.759,0.187-15.887,1.475-19.523,2.686c-7.384,2.382-11.245,4.204-13.223,5.543
			c-0.977,0.663-1.89,1.021-2.302,0.633c-0.208-0.194-0.301-0.58-0.229-1.188c0.054-0.617,0.281-1.458,0.943-2.288
			c1.142-1.825,4.056-4.163,7.855-5.674c3.786-1.581,8.356-2.633,12.837-3.297c8.972-1.337,17.627-1.135,19.888-1.022
			c1.135,0.013,4.957,0.424,10.107,0.929c2.578,0.237,5.501,0.492,8.596,0.489c3.079-0.017,6.394-0.211,9.466-1.267
			c3.113-1.015,5.728-3.03,7.504-5.851c0.872-1.342,1.622-2.79,1.554-4.22c-0.059-1.434-1.047-2.667-2.028-3.736
			c-2.048-2.114-3.995-4.101-5.263-6.038c-1.337-1.902-2.069-3.66-2.624-4.847c-0.999-2.365-2.923-5.536-5.936-8.722
			c-2.97-3.199-6.731-6.526-10.583-9.824c-7.76-6.536-15.626-13.294-19.893-17.403c-4.336-4.018-11.147-9.804-16.725-16.003
			C411.495,340.879,407.288,334.31,406.316,331.379z"/>
		<path style="fill:#231815;" d="M449.312,442.032c11.618-0.635,16.927,0.289,18.135,1.111c1.205,0.856-1.69,1.748-6.507,1.593
			c-9.643-0.326-19.245,0.671-26.855,1.339c-7.613,0.681-15.21,1.615-22.494,3.544c-3.675,0.863-9.017,2.755-12.01,4.781
			c-2.828,2.118-4.33,3.002-0.877-0.67c3.766-3.314,7.015-4.741,10.388-6.288c3.439-1.421,7.252-2.576,13.053-3.566
			c5.807-0.971,12.618-1.464,17.953-1.649C445.438,442.018,449.312,442.032,449.312,442.032z"/>
		<path style="fill:#231815;" d="M449.326,432.844c11.605-0.515,16.913,0.139,18.121,0.676c1.205,0.572-1.69,1.163-6.509,1.067
			c-9.647-0.205-19.267,0.553-26.905,1.221c-7.633,0.684-15.273,1.622-22.587,3.684c-3.684,0.927-9.031,2.991-11.942,5.146
			c-2.751,2.252-4.09,3.187-0.646-0.394c3.761-3.233,7.021-4.568,10.386-6.032c3.435-1.339,7.228-2.428,12.996-3.412
			c5.777-0.966,12.565-1.489,17.89-1.704C445.454,432.861,449.326,432.844,449.326,432.844z"/>
		<path style="fill:#231815;" d="M345.899,276.512c-5.32,3.563-11.179,11.386-16.089,15.932c-1.21,1.148-4.203,3.945-7.837,7.975
			c-3.525,4.048-7.953,9.489-9.783,16.312c-0.906,3.375-1.088,6.981-0.533,10.372c0.562,3.392,1.704,6.567,3.045,9.367
			c2.639,5.622,4.946,10.41,6.135,13.523c1.285,3.337,3.543,8.488,5.855,14.526c1.162,3.009,2.334,6.273,3.133,9.593
			c0.242,0.836,0.31,1.644,0.444,2.461c0.1,0.428,0.018,0.757,0.036,1.129c0.014,0.354,0.002,0.727-0.104,1.157
			c-0.281,1.648-0.77,3.266-1.455,4.784c-2.694,6.167-8.007,10.572-12.529,12.894c-4.597,2.39-8.46,3.132-9.774,3.464
			c-2.662,0.684-9.013,1.33-15.529,0.805c-3.267-0.228-6.754-0.578-10.014-0.292c-1.586,0.11-3.254,0.468-4.445,0.781
			c-1.187,0.282-2.216,0.528-3.036,0.723c-3.312,0.832-7.751,2.035-10.316,5.479c-0.605,0.859-0.972,1.829-1.067,2.646
			c-0.109,0.794,0.077,1.405,0.238,1.667c0.419,0.598,0.822-0.234,1.982-1.391c1.219-1.1,2.658-1.585,4.262-2.098
			c1.597-0.501,3.376-0.973,5.227-1.459c0.931-0.25,1.869-0.503,2.794-0.751c0.909-0.259,1.803-0.515,2.667-0.761
			c1.615-0.411,3.213-0.59,4.563-0.665c0.675-0.041,2.263-0.07,4.629,0.019c2.359,0.09,5.562,0.228,9.224,0.045
			c3.666-0.186,7.853-0.656,12.171-1.844c4.3-1.179,8.759-3.114,12.586-6.027c3.82-2.877,7.021-6.628,8.999-10.781
			c0.992-2.069,1.674-4.228,2.032-6.344c0.224-0.971,0.204-2.32,0.116-3.393c-0.186-1.007-0.306-2.044-0.585-2.907
			c-0.945-3.592-2.141-6.409-3.038-8.563c-0.92-2.139-1.606-3.562-1.926-4.073c-0.614-1.036-2.354-4.97-4.81-10.302
			c-1.23-2.661-2.626-5.679-4.108-8.884c-1.436-3.206-3.145-6.572-4.196-9.92c-1.101-3.376-1.511-6.893-1.137-10.141
			c0.331-3.258,1.432-6.224,2.782-8.714c2.717-4.993,5.92-8.264,6.829-9.589c3.673-5.435,19.594-15.748,24.05-20.909
			c4.484-5.034,9.011-9.198,8.274-11.13c-0.718-1.967-0.566-7.154-1.484-4.271c-0.453,1.447-2.452,3.911-4.43,5.919
			C347.786,274.902,345.899,276.512,345.899,276.512z"/>
		<path style="fill:#231815;" d="M315.879,405.551c-2.128-1.337-5.653,0.361-7.919,0.327c-1.149-0.045-5.63,0.225-10.334,0.749
			c-4.713,0.505-9.609,1.438-11.936,1.44c-2.517-0.099-7.762,0.955-12.484,2.574c-4.715,1.651-8.773,3.973-9.606,4.516
			c-0.804,0.604-2.884,1.628-4.889,2.896c-1.944,1.34-4.11,2.559-5.062,3.312c-2.057,1.361-4.622,3.709-1.314,4.316
			c3.287,0.709,5.22-2.061,6.774-3.201c0.689-0.623,5.374-4.464,10.85-6.982c5.408-2.605,11.195-4.246,11.902-4.693
			c0.684-0.504,5.592-1.459,10.631-1.686c5.03-0.314,10.119-0.1,11.231-0.384c2.277-0.689,8.412,1.873,10.608,1.53
			c2.259-0.364,4.148,0.364,4.735-1.252c0.576-1.638,2.594-4.45,1.389-3.479c-0.603,0.488-1.74,0.463-2.732,0.34
			C316.73,405.776,315.879,405.551,315.879,405.551z"/>
		<path style="fill:#231815;" d="M331.417,77.583c-1.276,4.039-6.999-1.542-4.815-6.115
			C328.786,66.896,335.545,64.507,331.417,77.583z"/>
		<path style="fill:#231815;" d="M282.038,119.109c13.325-0.667,27.356-0.436,34.058,0.411c6.693,0.902,16.839,0.261,15.991-3.515
			c-0.678-3.039-10.71-2.824-15.393-1.85c-4.663,0.983-26.737,2.515-36.099,2.817c-9.378,0.163-18.767,0.621-26.81,1.227
			c-8.068,0.665-11.283,6.448,1.121,4C267.375,119.968,269.398,119.82,282.038,119.109z"/>
		<path style="fill:#231815;" d="M332.663,103.997c0.854,1.135,2.941,0.11,4.078,0.586c0.532,0.227,2.832,0.884,4.674,2.64
			c0.915,0.855,1.686,1.952,2.053,3.037c0.394,1.077,0.365,2.094,0.147,2.668c-0.385,1.26-1.443,3.662-3.272,5.284
			c-1.736,1.643-3.877,2.625-4.305,2.875c-0.437,0.248-1.545,0.623-2.735,0.893c-0.596,0.138-1.205,0.258-1.754,0.348
			c-0.446,0.054-0.716-0.014-0.89-0.096l-0.19-0.128l-0.036-0.057l-0.05,0.368c-0.107,0.651-0.335,0.928-0.354,0.938l0.179-0.088
			l-0.002,0.001c-0.168,0.062-0.43,0.173-0.646,0.373c-0.467,0.392-0.449,1.055-0.082,1.487c0.356,0.443,0.904,0.658,1.393,0.719
			c0.986,0.138,1.912-0.343,2.329-0.528c0.458-0.251,3.788-1.25,6.82-3.36c1.502-1.036,2.819-2.458,3.575-3.713
			c0.775-1.264,1.06-2.329,1.015-2.603c-0.039-0.276,0.27-1.11,0.431-2.35c0.17-1.233,0.057-2.9-0.53-4.423
			c-1.135-3.113-3.838-5.216-4.547-5.335c-0.711-0.151-1.67-1.056-2.753-1.852c-1.069-0.804-2.202-1.498-2.898-1.433
			c-1.393,0.129-2.39-0.479-2.911,0.855c-0.521,1.339-1.892,3.663-1.146,2.857C331.009,103.151,332.663,103.997,332.663,103.997z"/>
		<path style="fill:#231815;" d="M352.898,256.364c2.866-0.503-20.258,8.079-30.546,10.302c-10.216,2.355-21.214,4.903-27.091,4.966
			c-5.852,0.127-15.189,1.314-19.94,1.667c-2.361,0.211-8.712,0.061-14.124-1.039c-5.433-1.099-9.659-3.14-8.712-3.057
			c0.476-0.003,1.815,0.288,3.596,0.731c0.888,0.233,1.933,0.323,3.016,0.52c1.085,0.181,2.232,0.386,3.408,0.447
			c1.171,0.097,2.35,0.195,3.48,0.289c1.137,0.012,2.23,0.024,3.217,0.034c1.976,0.043,3.543-0.109,4.255-0.254
			c2.855-0.387,12.461-1.289,14.915-1.86c1.228-0.292,4.482-0.911,7.735-1.509c3.254-0.628,6.516-1.165,7.796-1.161
			c2.567,0.146,15.357-2.002,17.46-2.521c2.116-0.432,14.373-3.385,17.511-4.203C342.018,258.929,349.694,256.941,352.898,256.364z"
			/>
		<path style="fill:#231815;" d="M284.626,241.193c-3.108,0.417-5.211,1.231-7.717-0.016c-1.606-0.784-4.255-1.743-7.205-2.361
			c-2.945-0.634-6.169-0.92-8.741-0.816c-2.569,0.079-6.163,0.442-9.307,1.108c-3.158,0.598-5.68,1.784-6.493,2.338
			c-1.758,1.069-2.202,2.732-3.068,2.56c-0.924-0.087-0.471-1.859,0.743-2.837c0.281-0.245,1.144-1,2.461-1.714
			c1.305-0.738,3.045-1.391,4.817-1.862c3.53-0.921,7.196-1.307,8.206-1.177c1.008,0.125,3.711-0.215,6.362-0.319
			c2.644-0.129,5.211-0.009,5.789,0.197c1.158,0.395,4.126,0.76,5.682,1.144c1.566,0.317,4.316,0.843,6.174,1.043
			c0.902,0.101,2.152,0.672,3.163,1.278C286.565,240.384,285.464,241.079,284.626,241.193z"/>
		<path style="fill:#231815;" d="M269.566,248.273c8.197,1.047,11.523,3.256,12.14,3.881c0.596,0.765-1.425,0.423-4.565-0.617
			c-6.339-2.119-13.139-2.21-18.391-1.843c-5.293,0.332-10.531,1.368-15.577,3.045c-5.157,1.342-14.668,6.653-9.008,2.925
			c2.884-1.801,5.005-2.923,7.345-3.984c2.343-1.048,4.93-2.02,8.956-2.904c4.031-0.872,8.852-1.223,12.62-1.094
			c1.883,0.111,3.51,0.191,4.654,0.367C268.886,248.189,269.566,248.273,269.566,248.273z"/>
		<path style="fill:#231815;" d="M267.463,261.055c0.854-0.086,1.722-0.155,2.569-0.154c2.386-0.171,9.165,0.202,10.27,0.935
			c1.538,0.775,3.856,0.947,4.176-1.762c0.247-2.173-2.411-2.651-3.666-2.037c-0.412,0.184-2.492,0.24-4.742,0.431
			c-2.254,0.182-4.681,0.464-5.861,0.681c-1.248,0.185-2.418,0.371-3.229,0.369c-0.591-0.012-4.373,0.32-8.886,1.188
			c-4.516,0.846-9.711,2.366-13.261,3.743c-3.503,1.323-5.413,2.317-6.614,2.89c-1.201,0.576-1.67,0.802-2.134,1.024
			c-1.894,0.936-0.48,4.568,1.679,2.402c0.523-0.546,0.936-0.912,1.951-1.577c1.015-0.664,2.646-1.631,5.832-2.942
			c3.389-1.422,8.426-2.965,12.874-3.85C262.861,261.484,266.663,261.121,267.463,261.055z"/>
		<path style="fill:#231815;" d="M267.001,238.61c0.31,0.031,0.622,0.045,0.926,0.108c0.652,0.133,1.305,0.242,1.961,0.348
			c0.177,0.024,0.527,0.073,0.864,0.122c-0.365-0.766-0.735-1.53-1.13-2.283c-3.857-7.37-8.76-14.25-14.269-20.584
			c-3.295-3.224-6.729-6.295-10.311-9.175c-3.534-2.863-7.341-5.739-11.426-7.993c-8.134-4.621-16.956-7.64-25.829-9.893
			c-17.752-4.354-35.966-6.756-54.25-6.495c0,0-1.559,0.023-4.359,0.062c-2.803,0.079-6.854,0.248-11.823,0.737
			c-9.91,0.964-23.611,3.382-37.59,9.071c-13.995,5.54-28.017,14.58-38.607,25.47c-5.318,5.387-9.754,11.311-13.216,16.883
			c-3.523,5.575-6.303,10.857-8.496,15.373c-4.273,9.078-8.288,19.686-11.047,31.137c-2.807,11.433-4.334,23.686-4.316,35.67
			c0.045,11.858,0.841,23.433,2.694,33.875c1.858,10.572,5.456,19.579,8.814,26.409c3.362,6.854,8.456,14.961,15.276,23.234
			c6.774,8.312,15.377,16.675,25.194,24.441c9.79,7.74,21.094,14.883,33.292,19.809c12.126,5.097,25.004,8.214,37.404,9.641
			c12.434,1.391,21.23,0.459,26.289-0.276c5.071-0.926,6.52-1.561,4.622-1.817c-0.949-0.129-2.732-0.163-5.318-0.092
			c-2.599-0.069-5.997,0.032-10.189-0.153c-8.363-0.294-19.961-1.242-34.04-5.033c-14.07-3.797-26.291-9.625-37.064-16.921
			c-5.397-3.63-10.511-7.666-15.396-11.943c-4.878-4.293-9.625-8.81-14.063-13.802c-8.861-9.943-17.226-21.35-23.255-35.499
			c-6.24-14.033-8.426-31.136-9.092-50.707c-0.539-19.493,2.787-34.632,6.455-46.697c3.775-12.094,8.229-21.203,12.731-29.145
			c4.64-7.895,9.366-14.61,15.574-21.011c6.244-6.347,13.769-12.588,24.306-18.582c5.263-3.003,9.969-5.137,14.156-6.806
			c4.173-1.715,7.864-2.883,11.199-3.896c6.698-1.94,12.083-2.992,18.092-3.86c6.013-0.825,12.69-1.444,22.115-1.431
			c9.412,0.116,21.624,0.827,38.356,4.182c16.764,3.4,24.528,6.618,28.101,8.065c3.557,1.507,2.998,1.296,1.942,0.752
			c-1.063-0.533-2.705-1.253-1.289-0.775c0.704,0.246,2.175,0.795,4.765,2.006c2.56,1.243,6.333,3.059,11.065,6.542
			c9.595,7.237,17.02,14.51,22.6,20.974C262.467,232.196,264.956,235.528,267.001,238.61z"/>
		<path style="fill:#231815;" d="M292.936,314.481c-2.084,2.486-4.563,4.316-6.643,6.527c-1.024,1.104-1.826,2.275-2.479,3.691
			c-0.589,1.406-0.958,3.036-0.988,5.091c-0.023,2.055-0.195,4.799-0.523,7.889c-0.412,3.09-0.904,6.529-1.688,9.949
			c-1.446,6.852-3.664,13.596-5.114,17.63c-0.714,1.995-1.976,5.8-3.795,10.294c-1.819,4.511-4.454,9.834-7.694,15.202
			c-6.441,10.766-15.717,21.359-22.501,27.469c-6.666,6.176-16.073,14.144-26.108,19.788c-9.98,5.729-20.602,8.518-26.853,8.314
			c-2.195-0.05-4.074,0.036-5.678-0.011c-1.609,0.043-2.945,0.165-4.019,0.237c-2.15,0.239-3.319,0.889-3.389,1.645
			c-0.075,0.757,0.977,1.629,3.24,2.324c1.126,0.4,2.565,0.542,4.282,0.6c1.72,0.131,3.713-0.134,5.934-0.528
			c3.67-0.798,8.913-1.801,14.539-3.906c5.644-2.02,11.686-4.902,17.235-8.186c11.145-6.526,20.224-14.485,23.085-16.619
			c2.866-2.112,14.587-12.92,23.686-25.775c4.581-6.376,8.49-13.186,11.113-18.818c2.644-5.609,4.28-9.856,4.957-11.057
			c1.312-2.407,3.392-8.4,5.08-14.898c1.749-6.486,2.902-13.497,3.954-17.643c1.135-4.134,1.405-8.968,1.187-12.743
			c-0.077-1.888-0.299-3.509-0.507-4.654C293.052,315.152,292.936,314.481,292.936,314.481z"/>
		<path style="fill:#231815;" d="M227.347,196.185c-24.689-15.058-69.573-25.417-112.716-20.882
			c-10.717,1.246-21.363,3.415-30.881,7.446c-9.529,4.173-18.454,9.386-26.216,15.18c-15.64,11.569-26.878,25.25-33.902,36.706
			c-7.216,11.395-11.843,23.025-14.994,34.09c-3.022,11.144-4.461,21.854-5.664,32.013c-1.595,9.945,1.165,19.249,2.687,28.644
			c0.387,2.351,0.716,4.714,0.872,7.101c0.202,2.34,0.324,4.571,0.591,6.836c0.523,4.504,1.282,8.947,2.32,13.327
			c2.048,8.756,5.612,18.948,11.319,29.299c5.725,10.304,13.576,20.825,23.67,29.727c10.098,8.886,22.455,15.926,35.628,20.875
			c13.127,5.117,26.989,8.281,40.334,10.899c13.381,2.534,22.691,3.833,28.579,4.856c5.904,0.953,8.419,1.497,8.392,1.708
			c-0.029,0.213-2.601,0.094-6.865-0.28c-4.262-0.389-10.218-1.026-16.993-2.01c-13.524-1.945-32.757-5.154-50.627-11.367
			c-8.918-3.102-17.428-7.004-24.626-11.332c-7.214-4.297-13.15-8.927-17.294-12.913c-4.248-3.834-12.581-12.368-20.158-25.03
			c-3.777-6.316-7.323-13.636-10.146-21.599c-2.857-7.95-4.83-16.58-5.889-25.276c-0.553-4.378-0.614-8.717-1.285-12.878
			c-0.634-4.198-1.532-8.325-2.248-12.407c-0.73-4.075-1.251-8.133-1.237-12.077c0.057-3.988,0.666-7.634,1.042-11.134
			c1.634-13.988,4.121-24.642,5.404-29.049c1.223-4.422,3.902-12.952,8.78-23.044c1.187-2.535,2.66-5.091,4.101-7.785
			c1.613-2.595,3.14-5.382,5.03-8.03c3.566-5.44,7.855-10.779,12.495-15.881c9.278-10.239,20.523-18.973,31.151-25.295
			c5.376-3.081,10.431-5.782,15.178-7.734c4.735-1.926,8.963-3.214,12.323-4.045c13.422-3.494,31.915-5.038,50.79-3.939
			c18.898,0.989,38.157,4.343,53.745,8.558c7.81,2.065,13.535,4.197,17.931,6.109c2.211,0.928,4.076,1.841,5.698,2.711
			c1.645,0.824,3.025,1.652,4.253,2.445c4.905,3.153,7.586,5.576,12.411,10.601c2.377,2.55,4.115,4.872,5,6.543
			c0.927,1.641,1.176,2.499,0.546,2.295c-0.315-0.103-0.847-0.47-1.624-1.139c-0.77-0.674-1.772-1.66-3.213-2.845
			C238.265,203.734,234.019,200.195,227.347,196.185z"/>
		<path style="fill:#231815;" d="M127.287,305.72c0.838,8.87,5.166,20.695,9.108,30.274c1.939,4.823,3.215,8.287,3.84,10.429
			c0.632,2.135,0.571,2.956,0.172,2.266c-0.75-1.382-4.151-3.14-7.583-10.488c-3.349-7.336-5.764-13.348-7.255-16.87
			c-0.734-1.765-0.759-2.327-0.979-3.808c-0.163-1.495-0.616-3.889-1.606-9.472c-0.961-5.597-0.637-9.034-0.147-10.613
			c0.494-1.583,1.212-1.357,1.586,0.197c0.354,1.559,1.069,3.598,1.679,5.229C126.77,304.475,127.287,305.72,127.287,305.72z"/>
		<path style="fill:#231815;" d="M145.252,283.658c4.345-1.097,9.171-2.15,14.326-2.965c2.576-0.401,5.234-0.735,7.948-1.004
			c1.414-0.102,2.605-0.261,4.25-0.302c0.834-0.001,1.826,0.062,2.898,0.458c1.081,0.399,2.078,1.17,2.723,2.02
			c1.312,1.733,1.647,3.428,1.982,4.876l0.825,4.085c0.539,2.715,1.076,5.433,1.611,8.129c1.051,5.398,2.046,10.725,2.907,15.813
			c3.439,20.355,3.176,28.815,2.592,25.776c-0.585-3.045-3.571-8.773-6.493-23.978c-1.459-7.601-2.887-14.42-4.178-20.215
			c-0.666-2.892-1.273-5.533-1.817-7.893c-0.462-2.382-1.314-3.786-1.799-3.793c-0.406-0.155-1.434-0.112-2.452-0.053
			c-1.04,0.027-1.987,0.052-3.378,0.087c-2.76,0.154-7.393,0.142-17.756,2.633c-10.3,2.671-16.308,4.809-19.274,5.383
			c-2.948,0.63-2.794-0.201-0.043-1.695c2.753-1.467,6.466-3.413,9.575-4.865C142.798,284.692,145.252,283.658,145.252,283.658z"/>
		<path style="fill:#231815;" d="M150.218,346.095c6.299-0.555,14.861-3.113,22.179-4.256c7.323-1.145,10.644-0.101,9.564,0.176
			c-1.085,0.254-2.825,2.603-8.308,3.817c-5.474,1.202-9.783,2.515-12.275,3.457c-2.497,0.926-1.554-0.137-9.296,1.191
			c-7.762,1.275-9.575-0.851-7.434-1.627C146.785,348.067,150.218,346.095,150.218,346.095z"/>
		<path style="fill:#231815;" d="M145.086,334.577c5.755-0.389,13.334-3.351,19.625-5.582c1.59-0.539,2.968-0.958,4.142-1.255
			c0.358-0.088,0.7-0.173,1.024-0.254c0.392-0.075,0.793-0.117,1.235-0.091c0.886,0.034,2.123,0.537,2.354,1.843
			c0.082,0.419-0.091,0.936-0.304,1.151c-0.217,0.256-0.415,0.34-0.576,0.404c-0.329,0.113-0.566,0.107-0.793,0.079
			c-0.236-0.043-0.43-0.076-0.716-0.271c-0.376-0.219-0.392-0.821-0.261-0.911c0.193-0.255,0.297-0.205,0.329-0.181
			c0.041,0.075-0.025,0.085-0.063,0.382c0.097,0.441,0.478,0.353,0.612,0.299l0.449-0.41c0.075-0.227-0.111-0.246-0.301-0.296
			l-0.532,0.207c-0.39,0.247-0.836,0.771-1.683,1.357c-0.784,0.571-1.765,1.13-2.975,1.653c-4.853,2.065-8.764,3.708-11.045,4.817
			c-2.304,1.021-1.468,0.081-8.752,1.458c-3.67,0.609-5.941,0.222-6.992-0.318c-1.054-0.54-0.924-1.25,0.075-1.576
			C141.962,336.453,145.086,334.577,145.086,334.577z"/>
		<path style="fill:#231815;" d="M175.311,328.004c2.134,1.654,5.898,2.419,8.576,4.023c2.685,1.606,3.251,3.751,2.803,3.593
			c-0.439-0.17-2.003,1.243-4.255,0.317c-2.234-0.927-4.182-1.316-5.41-1.389c-1.223-0.083-0.406-0.672-3.433-2.218
			c-3.027-1.595-2.415-3.953-1.366-3.886C173.283,328.507,175.311,328.004,175.311,328.004z"/>
		<path style="fill:#231815;" d="M166.581,294.804c1.21,6.395,4.441,15.02,5.943,22.522c1.502,7.501,0.489,10.929,0.197,9.821
			c-0.292-1.108-2.669-2.849-4.13-8.388c-1.461-5.539-3.077-9.849-4.205-12.316c-1.133-2.469,0.054-1.596-1.989-9.349
			c-2.048-7.753-0.199-9.821,0.834-7.723C164.263,291.465,166.581,294.804,166.581,294.804z"/>
		<path style="fill:#231815;" d="M378.912,301.44c-1.076-0.458-1.717,0.348-2.177,1.371c-0.473,1.01-0.784,2.182-1.375,2.613
			c-0.56,0.497-2.565,2.632-4.432,4.985c-1.858,2.376-3.673,4.867-5.134,5.574c-1.629,0.708-3.938,3.254-5.768,5.743
			c-1.828,2.513-3.315,4.752-3.614,5.249c-0.276,0.526-1.264,1.438-2.343,2.195c-0.555,0.339-1.108,0.688-1.627,0.9
			c-0.528,0.181-0.986,0.297-1.319,0.324c-0.666,0.097-1.323,0.071-1.393,0.652c-0.063,0.539,0.285,1.619,1.91,3.311
			c1.636,1.671,3.061,1.957,4.069,1.645c0.963-0.348,1.631-1.152,2.028-1.694c0.168-0.279,1.121-1.187,2.062-2.518
			c1.026-1.314,2.114-3.016,3.136-4.683c2.003-3.37,3.87-6.5,3.75-7.185c-0.168-0.709,2.03-2.931,4.373-4.853
			c2.402-1.881,4.935-3.4,5.157-4.164c0.222-0.775,1.586-1.088,2.995-1.161c1.423-0.077,2.707-0.168,3.031-0.89
			c0.648-1.483,2.001-1.381,0.949-4.042c-1.078-2.651-2.363-7.8-2.15-5.747C381.262,301.11,378.912,301.44,378.912,301.44z"/>
		<path style="fill:#231815;" d="M352.483,347.014c-0.804,2.105-1.067,4.824-1.362,7.721c-0.292,2.889-0.501,5.898-0.938,8.283
			c-0.213,1.188-0.746,4.162-0.659,8.143c0.005,1.988,0.365,4.206,0.897,6.5c0.618,2.299,1.618,4.556,2.63,6.828
			c2.051,4.514,4.139,9.23,4.742,13.675c0.281,2.211,0.184,4.292-0.181,6.052c-0.238,0.866-0.471,1.668-0.761,2.359
			c-0.335,0.677-0.634,1.28-0.931,1.783c-1.396,2.073-3.7,5.491-7.166,8.25c-0.865,0.657-1.817,1.252-2.787,1.569
			c-0.535,0.174-0.845,0.217-1.527,0.271c-0.632,0.048-1.266,0.095-1.905,0.144c-2.556,0.205-5.168,0.416-7.731,0.622
			c-10.248,0.862-19.711,1.789-21.753,2.022c-2.05,0.236-6.736,0.532-11.566,0.784c-4.874,0.19-10.082,1.094-12.711,2.03
			c-1.312,0.406-2.753,1.071-4.046,1.905c-1.264,0.893-2.393,1.918-3.022,2.94c-1.292,2.082-1.031,3.162,1.26,2.413
			c2.277-0.667,4.495-1.743,6.953-2.613c2.433-0.884,5.077-1.622,7.024-2.009c1.797-0.547,14.926-1.628,27.866-3.003
			c6.473-0.691,12.926-1.38,17.972-1.918c1.28-0.184,2.318-0.165,3.813-0.607c1.31-0.423,2.229-1.06,2.982-1.612
			c1.477-1.14,2.243-2.07,2.508-2.448c0.519-0.771,2.751-3.103,4.987-6.905c0.58-0.933,1.047-2.087,1.57-3.261
			c0.387-1.23,0.773-2.529,0.931-3.913c0.362-2.756,0.095-5.69-0.526-8.462c-1.262-5.566-3.675-10.6-4.996-14.568
			c-1.378-3.851-1.357-6.918-1.609-8.022c-0.48-2.228,0.453-6.534,1.933-10.772c1.461-4.221,3.041-8.78,3.054-11.384
			c0.109-2.552,0.14-5.053-0.07-6.963c-0.301-1.917-0.752-3.233-1.763-3.429c-1.98-0.53-5.714-2.335-4.173-0.812
			c0.809,0.757,1.33,2.865,1.339,4.793c0.014,0.962-0.016,1.865-0.127,2.531C352.54,346.592,352.483,347.014,352.483,347.014z"/>
		<path style="fill:#231815;" d="M314.347,411.469c-2.069-0.942-5.077,0.841-7.107,1.056c-1.033,0.131-5.018,0.854-9.16,1.908
			c-4.155,1.004-8.462,2.334-10.544,2.56c-2.254,0.181-6.856,1.51-11.034,3.074c-4.16,1.608-7.864,3.486-8.619,3.974
			c-1.588,0.804-7.332,3.819-9.262,4.971c-1.957,1.084-4.368,3.192-1.554,3.727c1.391,0.31,2.551-0.096,3.557-0.709
			c1.067-0.553,1.967-1.352,2.633-1.887c0.34-0.261,1.674-1.117,3.494-2.276c0.945-0.53,2.014-1.132,3.147-1.767
			c1.162-0.583,2.39-1.197,3.618-1.811c4.96-2.361,10.125-4.197,10.735-4.656c0.598-0.475,4.966-1.708,9.473-2.515
			c4.497-0.879,9.09-1.32,10.048-1.724c1.967-0.791,7.737,0.48,9.616,0.131c1.987-0.574,3.677,0.045,4.108-1.382
			c0.397-1.398,2.069-3.852,1.026-2.975c-0.519,0.44-1.554,0.497-2.47,0.446C315.142,411.537,314.347,411.469,314.347,411.469z"/>
		<path style="fill:#231815;" d="M281.757,88.041c1.364-1.135,0.668-3.877,1.198-5.392c0.528-1.515,3.301-12.111,5.179-14.823
			c0.573-0.75,1.201-2.25,2.05-3.544c0.435-0.652,0.981-1.299,1.554-1.69c0.501-0.368,1.024-0.387,1.468-0.18
			c0.331,0.156,0.662,0.563,1.115,1.15c0.417,0.554,0.804,1.067,1.144,1.518c0.659,0.915,1.137,1.578,1.316,1.828
			c0.863,1.055,2.862,5.473,3.104,7.06c0.322,1.557,1.031,3.633,2.712,1.664c1.674-2.014,0.222-4.254-0.51-5.442
			c-0.22-0.369-1.106-1.993-2.413-3.969c-0.653-0.989-1.411-2.064-2.225-3.122l-1.257-1.572c-0.231-0.272-0.485-0.561-0.813-0.85
			c-0.369-0.324-0.788-0.596-1.233-0.771c-1.248-0.506-2.603-0.225-3.546,0.424c-0.881,0.602-1.355,1.245-1.745,1.807
			c-0.743,1.129-0.979,1.972-1.001,2.23c0.007,1.331-6.036,12.944-6.133,14.643c-0.086,1.68-3.423,5.252-3.51,6.932
			c-0.086,1.68-0.931,2.908,0.322,3.621c1.255,0.713,3.326,2.556,2.664,1.575C280.543,90.156,281.757,88.041,281.757,88.041z"/>
		<path style="fill:#231815;" d="M292.628,73.475h0.002c0.122,0.406,0.243,0.822,0.351,1.243c0.532,2.076,0.56,3.861-0.63,5.659
			C288.695,79.445,287.258,73.703,292.628,73.475z"/>
		<path style="fill:#231815;" d="M356.627,258.5c-0.356,1.145,0.31,2.318,1.16,3.267c0.85,0.967,1.878,1.76,2.325,2.591
			c0.446,0.832,2.465,3.894,4.611,7.12c2.132,3.238,4.395,6.633,4.939,8.497c0.625,2.006,2.533,5.824,5.066,9.207
			c2.605,3.465,6.049,5.542,6.677,5.962c1.414,0.862,5.811,4.548,7.078,6.061c1.26,1.501,3.383,3.122,3.981-0.361
			c0.596-3.483-2.107-4.676-3.487-5.481c-0.337-0.213-1.579-1.001-3.269-2.073c-1.69-1.084-3.781-2.392-5.558-3.886
			c-3.469-2.91-6.043-7.314-6.772-7.597c-0.659-0.348-2.635-3.957-4.441-7.703c-1.824-3.738-3.473-7.605-4.214-8.251
			c-0.736-0.635-1.16-2.446-1.466-4.165c-0.319-1.734-0.392-3.284-0.938-3.895c-1.144-1.307-0.709-2.602-2.694-2.787
			c-2.017-0.073-5.576-1.756-4.264-0.689c0.641,0.532,0.879,1.57,1.044,2.479C356.561,257.705,356.627,258.5,356.627,258.5z"/>
		<path style="fill:#231815;" d="M327.615,182.589c-1.479-0.342-0.983,2.25-1.545,2.896c-0.313,0.323-1.217,1.853-2.214,3.377
			c-0.986,1.535-2.1,3.076-3.079,3.389c-2.107,0.716-6.183,5.161-6.675,5.643c-0.444,0.598-2.848,1.774-3.829,1.816
			c-0.988,0.035-1.985,0.549,0.471,2.753c2.51,2.175,3.408,0.872,3.915,0.306c0.29-0.265,2.121-1.943,3.72-3.752
			c1.604-1.808,3.025-3.68,2.95-4.138c-0.073-0.459,1.427-1.724,2.945-2.948c1.522-1.226,3.063-2.376,3.099-2.905
			c0.077-1.157,3.512-0.832,3.603-1.83c0.131-1.073,1.008-1.087-0.109-2.761c-1.128-1.652-2.807-4.936-2.325-3.6
			C329.031,182.166,327.615,182.589,327.615,182.589z"/>
		<path style="fill:#231815;" d="M291.294,197.794c10.336,0.641,14.854,3.306,15.472,4.811c0.618,1.576-2.094,2.172-6.072,1.128
			c-8.093-2.1-16.714-1.612-23.472-2.335c-6.779-0.698-13.667-1.433-20.396-3.469c-3.358-0.991-8.281-3.247-10.801-5.472
			c-2.431-2.388-2.857-3.494,0.639-1.583c3.72,1.657,6.672,1.977,9.715,2.433c3.124,0.377,6.423,0.777,11.358,1.374
			c5.03,0.639,10.898,1.384,15.515,1.971C287.9,197.25,291.294,197.794,291.294,197.794z"/>
		<path style="fill:#231815;" d="M247.122,189.603c-0.378-1.628-2.966-0.468-4.004-0.929c-0.521-0.248-2.716-0.888-4.989-1.605
			c-2.275-0.724-4.64-1.509-5.521-2.423c-0.94-0.989-3.34-2.216-5.676-3.101c-2.331-0.898-4.565-1.469-5.066-1.558
			c-0.505-0.082-1.609-0.553-2.993-0.907c-1.393-0.377-2.993-0.454-3.816-0.527c-0.825-0.097-1.846,0.075-2.286,0.605
			c-0.46,0.537-0.24,1.291,0.943,2.506c2.272,2.467,3.099,1.819,3.951,1.704c0.195-0.027,0.856-0.068,1.905,0.114
			c1.029,0.17,2.54,0.582,3.994,0.957c2.925,0.759,5.789,1.657,6.285,1.45c0.487-0.197,2.73,0.949,4.901,2.254
			c2.184,1.289,4.3,2.71,4.953,2.637c1.355-0.167,2.88,3.587,4.148,3.499c1.319-0.087,1.908,0.861,3.079-0.767
			c1.16-1.631,3.684-4.343,2.549-3.452C248.347,190.954,247.122,189.603,247.122,189.603z"/>
		<path style="fill:#231815;" d="M333.87,213.624c-2.88,0.067-6.024,3.574-8.891,4.574c-0.7,0.256-2.406,0.911-4.656,1.874
			c-1.144,0.491-2.352,1.088-3.65,1.592c-1.321,0.49-2.757,0.947-4.262,1.244c-6.029,1.302-12.704,0.586-15.543-0.341
			c-1.543-0.497-3.978-1.119-6.824-1.79c-2.848-0.667-6.045-1.35-8.877-2.42c-2.814-1.064-5.469-2.564-7.742-3.622
			c-2.259-1.081-4.115-1.715-4.774-1.873c-1.307-0.402-4.309-1.26-7.341-1.85c-3.032-0.604-5.997-1.188-7.373-1.672
			c-2.791-0.87-6.367-2.05-5.225,1.577c0.65,1.843,2.315,2.872,4.074,3.383c1.765,0.52,3.605,0.559,4.873,0.654
			c0.634,0.061,2.991,0.231,6.02,0.738c1.514,0.261,3.179,0.642,4.855,1.226c1.683,0.589,3.451,1.422,5.277,2.294
			c1.826,0.871,3.725,1.771,5.658,2.447c1.933,0.675,3.779,1.1,5.381,1.404c3.208,0.585,5.453,0.792,6.015,0.72
			c1.122-0.233,7.556,1.463,14.541,1.938c3.482,0.249,7.108,0.04,9.999-0.585c1.445-0.301,2.703-0.685,3.671-1.072
			c1.024-0.384,1.5-0.638,1.84-0.858c1.212-0.851,4.035-1.276,6.924-1.75c2.882-0.47,5.875-1.109,7.198-2.113
			c2.612-1.896,5.429-3.166,4.645-5.056c-0.707-1.961-1.731-5.713-1.767-4.007c-0.011,0.86-0.965,1.799-2.003,2.396
			C334.895,213.293,333.87,213.624,333.87,213.624z"/>
		<path style="fill:#231815;" d="M503.453,437.652c-0.437,1.299-0.947,2.479-1.559,3.286c-0.609,0.769-1.35,1.201-2.476,1.598
			c-2.22,0.731-4.944,1.483-7.372,2.324c-5.03,1.586-10.445,3.465-17.824,5.052c-3.695,0.777-6.641,0.965-9.061,0.922
			c-1.269-0.04-2.406-0.074-3.457-0.107c-1.06,0.001-2.035,0.002-2.964,0.003c-3.686,0.086-6.636,0.116-11.483,0.703
			c-4.831,0.632-6.756,0.885-9.183,1.203c-2.418,0.319-5.336,0.555-12.117,1.583c-13.551,2.321-0.011-0.107-9.545,2.252
			c-4.758,1.284-7.964,2.789-9.912,4.007c-0.981,0.578-1.64,1.178-2.059,1.516c-0.419,0.36-0.598,0.551-0.598,0.551
			c3.437-0.705,6.759-0.681,10.069-0.692c6.611-2.21,13.476-3.957,20.38-5.44c0,0,4.774-0.684,10.515-1.262
			c5.737-0.602,12.445-1.015,16.175-1.01c0.94-0.005,1.871,0.055,2.923,0.103c1.126,0.083,2.293,0.147,3.485,0.158
			c2.379,0.025,4.842-0.116,7.216-0.378c4.753-0.522,9.133-1.538,11.976-2.378c2.83-0.804,6.983-2.667,11.319-4.529
			c1.11-0.467,2.295-0.893,3.603-1.578c1.314-0.638,2.678-1.874,3.385-3.212c1.45-2.624,1.722-5.25,2.665-7.232
			c0.224-0.542,0.396-0.727,0.802-1.52c0.285-0.672,0.22-1.468,0.199-1.84c-0.068-0.89-0.195-1.552-0.335-2.055
			c-0.285-0.997-0.662-1.296-1.035-0.931c-0.378,0.352-0.727,1.427-1.031,3.018c-0.086,0.418-0.141,0.582-0.304,0.793
			c-0.091,0.035-0.632,0.786-0.89,1.314C504.341,434.993,503.89,436.349,503.453,437.652z"/>
		<path style="fill:#231815;" d="M406.828,115.077L406.828,115.077c0.353,1.17,0.184,2.943-1.038,2.976
			c-0.689,0.018-1.196-0.597-1.658-1.106c-1.955-2.15-5.018-3.23-7.889-2.779c0.272-1.615-0.471-3.209-1.178-4.688
			C389.412,97.642,404.791,108.351,406.828,115.077z"/>
		<path style="fill:#231815;" d="M445.315,143.499L445.315,143.499c-2.141-0.343-4.932,1.101-6.174-0.677
			c-0.322-0.46-0.419-1.034-0.501-1.588c-1.357-9.336,9.493-7.315,13.875-2.781c1.901,1.965,5.399,7.26,1.928,9.371
			C451.07,149.872,448.438,144,445.315,143.499z"/>
		<path style="fill:#231815;" d="M459.521,183.515L459.521,183.515c1.586,3.361,7.35,2.916,8.87-0.472
			C472.841,173.12,454.503,172.868,459.521,183.515z"/>
		<path style="fill:#231815;" d="M480.742,221.028c-1.794-2.559-4.586-4.399-7.644-5.04c-0.594-2.982-1.131-6.309,0.503-8.872
			l0.002-0.001C481.43,194.85,481.131,221.583,480.742,221.028z"/>
		<path style="fill:#231815;" d="M473.96,243.965L473.96,243.965c0.308,0.535,0.397,1.162,0.474,1.774
			c0.533,4.256,0.72,8.554,0.56,12.841c-0.052,1.405-0.446,3.175-1.828,3.427c-0.619,0.111-1.244-0.15-1.774-0.485
			C461.955,255.573,471.083,238.984,473.96,243.965z"/>
		<path style="fill:#231815;" d="M447.253,225.23h0.002c0.58,0.114,1.004,0.603,1.38,1.062c3.016,3.688,6.432,11.177-1.228,10.797
			C439.701,236.706,441.672,224.133,447.253,225.23z"/>
		<path style="fill:#231815;" d="M219.845,342.228L219.845,342.228l0.426,0.326c0.927,1.134,1.976,3.435-0.378,3.318
			C217.525,345.756,218.13,341.892,219.845,342.228z"/>
		<path style="fill:#231815;" d="M211.306,399.804L211.306,399.804l0.426,0.326c0.927,1.134,1.976,3.436-0.378,3.319
			C208.985,403.332,209.59,399.467,211.306,399.804z"/>
		<path style="fill:#231815;" d="M87.569,337.936L87.569,337.936l0.424,0.326c0.927,1.134,1.978,3.435-0.376,3.318
			C85.247,341.463,85.854,337.599,87.569,337.936z"/>
		<path style="fill:#231815;" d="M155.624,246.679L155.624,246.679l0.426,0.326c0.927,1.134,1.976,3.436-0.378,3.319
			C153.304,250.207,153.909,246.343,155.624,246.679z"/>
		<path style="fill:#231815;" d="M119.323,206.243L119.323,206.243l0.426,0.326c0.927,1.134,1.976,3.435-0.378,3.318
			C117.003,209.77,117.608,205.906,119.323,206.243z"/>
		<path style="fill:#231815;" d="M70.556,237.399L70.556,237.399l0.424,0.326c0.927,1.134,1.978,3.436-0.378,3.319
			C68.234,240.927,68.841,237.063,70.556,237.399z"/>
		<path style="fill:#231815;" d="M93.757,397.484L93.757,397.484l0.424,0.326c0.927,1.134,1.978,3.436-0.378,3.319
			C91.435,401.011,92.042,397.147,93.757,397.484z"/>
		<path style="fill:#231815;" d="M130.103,430.738L130.103,430.738l0.426,0.326c0.927,1.134,1.976,3.435-0.378,3.318
			C127.783,434.266,128.388,430.402,130.103,430.738z"/>
		<path style="fill:#231815;" d="M193.52,427.645L193.52,427.645l0.424,0.326c0.927,1.134,1.978,3.436-0.378,3.319
			C191.197,431.172,191.805,427.308,193.52,427.645z"/>
		<path style="fill:#231815;" d="M179.6,364.23L179.6,364.23l0.424,0.326c0.927,1.133,1.978,3.435-0.378,3.318
			C177.277,367.757,177.884,363.893,179.6,364.23z"/>
		<path style="fill:#231815;" d="M228.366,227.897L228.366,227.897l0.426,0.326c0.927,1.134,1.976,3.436-0.378,3.319
			C226.046,231.424,226.651,227.56,228.366,227.897z"/>
		<path style="fill:#231815;" d="M272.796,291.76L272.796,291.76l0.426,0.326c0.927,1.133,1.976,3.435-0.378,3.318
			C270.476,295.286,271.081,291.422,272.796,291.76z"/>
		<path style="fill:#231815;" d="M79.062,192.545L79.062,192.545l0.426,0.326c0.927,1.133,1.976,3.435-0.378,3.318
			C76.742,196.072,77.346,192.208,79.062,192.545z"/>
		<path style="fill:#231815;" d="M11.403,301.813L11.403,301.813l0.424,0.326c0.927,1.134,1.978,3.436-0.378,3.319
			C9.081,305.34,9.688,301.476,11.403,301.813z"/>
		<path style="fill:#231815;" d="M24.549,370.642L24.549,370.642l0.426,0.326c0.927,1.133,1.976,3.435-0.378,3.318
			C22.229,374.169,22.834,370.305,24.549,370.642z"/>
		<path style="fill:#231815;" d="M35.377,249.225L35.377,249.225l0.424,0.326c0.927,1.134,1.978,3.435-0.376,3.318
			C33.054,252.753,33.662,248.888,35.377,249.225z"/>
		<path style="fill:#231815;" d="M41.564,220.61L41.564,220.61l0.424,0.326c0.927,1.134,1.978,3.436-0.378,3.319
			C39.242,224.138,39.849,220.274,41.564,220.61z"/>
		<path style="fill:#231815;" d="M16.044,265.465L16.044,265.465l0.424,0.326c0.927,1.134,1.978,3.435-0.378,3.318
			C13.721,268.993,14.328,265.129,16.044,265.465z"/>
		<path style="fill:#231815;" d="M443.455,200.23c0.768-0.398,4.321,7.977,0.086,8.836
			C439.085,209.971,440.784,201.616,443.455,200.23z"/>
		<path style="fill:#231815;" d="M98.358,244.764c0.768-0.232,4.321,4.65,0.084,5.151C93.986,250.441,95.687,245.571,98.358,244.764
			z"/>
		<path style="fill:#231815;" d="M82.048,289.941c0.564-0.171,3.174,3.418,0.061,3.786
			C78.833,294.115,80.083,290.535,82.048,289.941z"/>
		<path style="fill:#231815;" d="M152.515,398.888c0.564-0.17,3.176,3.419,0.063,3.787
			C149.303,403.063,150.553,399.482,152.515,398.888z"/>
		<path style="fill:#231815;" d="M58.94,366.408c0.564-0.17,3.174,3.419,0.061,3.787C55.725,370.582,56.976,367.001,58.94,366.408z"
			/>
		<path style="fill:#231815;" d="M251.506,361.767c0.564-0.17,3.174,3.419,0.061,3.787
			C248.291,365.942,249.541,362.361,251.506,361.767z"/>
		<path style="fill:#231815;" d="M259.302,306.779c0.564-0.17,3.174,3.419,0.061,3.787
			C256.087,310.954,257.338,307.373,259.302,306.779z"/>
		<path style="fill:#231815;" d="M196.66,220.936c0.564-0.17,3.174,3.419,0.061,3.787
			C193.445,225.111,194.696,221.53,196.66,220.936z"/>
		<path style="fill:#231815;" d="M222.117,296.033c0.564-0.171,3.176,3.418,0.063,3.786
			C218.905,300.206,220.155,296.626,222.117,296.033z"/>
		<path style="fill:#231815;" d="M401.848,182.534v0.002c-4.692-0.528-9.251-2.214-13.157-4.868c-0.589-0.4-1.183-0.844-1.509-1.477
			c-0.299-0.581-0.338-1.259-0.335-1.911c0.007-2.529,0.696-5.274,2.723-6.782C396.003,162.718,401.128,178.574,401.848,182.534z"/>
		<path style="fill:#231815;" d="M391.19,202.632l0.002,0.001c-3.466-0.751-6.931-1.502-10.397-2.253
			c-1.18-0.256-2.433-0.549-3.281-1.412c-1.228-1.248-1.18-3.345-0.367-4.895C381.905,185.018,389.878,197.386,391.19,202.632z"/>
		<path style="fill:#231815;" d="M419.704,300.675c1.337,0.073,2.744,0.197,3.843,0.961c1.099,0.765,1.711,2.394,0.936,3.485
			c-5.345,0.096-8.612,5.628-12.525,9.27c-1.344,1.25-3.276,2.37-4.921,1.56c-3.487-1.714-4.676-10.634-2.243-13.475
			C407.748,299.024,415.748,300.458,419.704,300.675z"/>
		<path style="fill:#231815;" d="M424.582,325.916L424.582,325.916c3.677-1.478,8.179-2.37,11.36-0.009
			c-0.97,3.149-5.562,3.14-7.935,5.429c-2.007,1.937-2.105,5.234-3.997,7.284c-2.209,2.389-6.319,2.184-8.879,0.177
			C404.401,330.388,418.743,328.262,424.582,325.916z"/>
		<path style="fill:#231815;" d="M361.476,291.316L361.476,291.316c0.263,0.469,0.532,0.964,0.53,1.501
			c-0.002,1.149-1.291,1.947-2.438,1.865c-1.144-0.084-2.143-0.774-3.079-1.441c-4.581-3.267-9.165-6.534-13.746-9.801
			c-1.729-1.232,7.037-7.938,9.817-6.947C356.09,277.752,359.749,288.231,361.476,291.316z"/>
		<path style="fill:#231815;" d="M341.374,298.824c-0.263,1.013-0.909,1.924-0.99,2.966c-0.147,1.879,1.5,3.334,2.54,4.905
			c1.04,1.57,1.015,4.377-0.85,4.65c-0.496,0.073-0.997-0.077-1.47-0.243c-3.528-1.242-6.686-3.513-8.986-6.463
			c-0.533-0.682-1.137-1.468-2.001-1.517c-0.594-0.034-1.144,0.304-1.731,0.398c-1.924,0.308-3.294-2.209-2.692-4.061
			c0.603-1.851,2.35-3.051,3.983-4.109C332.627,293.115,343.908,289.066,341.374,298.824z"/>
		<path style="fill:#231815;" d="M271.766,108.16h-0.002c-1.674-1.123-4.35,0.117-4.579,2.12
			C266.432,116.843,277.316,111.884,271.766,108.16z"/>
	</g>
</g>
</svg>
