<?xml version="1.0" encoding="iso-8859-1"?>
<!-- Generator: Adobe Illustrator 21.1.0, SVG Export Plug-In . SVG Version: 6.00 Build 0)  -->
<svg version="1.1" id="_x31_2" xmlns="http://www.w3.org/2000/svg" xmlns:xlink="http://www.w3.org/1999/xlink" x="0px" y="0px"
	 viewBox="0 0 512 512" style="enable-background:new 0 0 512 512;" xml:space="preserve">
<g>
	<path style="fill:#FFFFFF;" d="M96.466,440.054l1.016-22.36c0,0-11.18,2.033-13.213-7.115c-2.033-9.148,4.066-29.475,2.033-42.688
		c-2.033-13.213,6.098-57.934,24.393-91.475c18.295-33.541,44.721-71.147,49.803-77.245c5.082-6.098,27.442-52.852,27.442-52.852
		s1.016-31.508,0-34.557c-1.016-3.049-40.655-42.688-21.344-84.36c7.115-24.393,21.344-9.147,34.557,5.082
		s17.279,33.541,20.328,47.77c5.082,10.164,1.016-18.295,4.066-28.459c3.049-10.164,16.774-33.501,28.459-36.59
		c11.685-3.089,14.229,26.426,10.164,42.688c-4.066,16.262-12.197,49.803-7.115,57.934c15.246,7.115,27.442,14.229,32.524,35.574
		c5.082,21.344,3.049,31.508-5.082,36.59c-8.131,5.082-22.36,17.279-22.36,17.279s6.098,25.41,44.721,24.393
		c38.623-1.016,56.432-8.332,56.918-14.229c0.485-5.898-5.082-17.279,4.066-25.41c9.147-8.131,11.18-3.049,14.229,7.115
		c3.049,10.164,12.197,17.279,22.361,20.328c10.164,3.049,15.246,10.164,9.147,13.213c-6.098,3.049-6.098,3.049-6.098,3.049
		s2.033,14.229-7.115,14.229c1.016,1.016,7.678,9.827-7.115,8.131c-14.792-1.695-23.377-8.131-23.377-8.131
		s-23.377,14.229-51.836,14.229s-59.967-13.213-59.967-13.213s-16.262,39.639-11.18,51.836c-7.115,6.098-22.36,15.246-25.41,22.361
		c-3.049,7.115-6.098,76.229-6.098,76.229L96.466,440.054z"/>
	<path style="fill:#B4B4B5;" d="M249.941,353.661c-24.393-9.148-41.672-21.344-31.508-36.59
		c10.164-15.246,35.574-20.328,63.016-24.393c27.442-4.065,91.304,0.465,94.524,17.279c3.22,16.813-6.098,38.623-27.443,48.786
		C327.186,368.907,249.941,353.661,249.941,353.661z"/>
	<path style="fill:#708CBA;" d="M289.58,320.12c-26.373,2.637-56.918,6.098-28.459,23.377s81.311,6.098,90.458-1.016
		C360.727,335.366,309.907,318.087,289.58,320.12z"/>
	<path style="fill:#C8C9CA;" d="M233.678,331.301c18.295,7.115,51.836,14.229,87.409,8.131
		c35.574-6.098,48.861-16.163,51.836-24.393c2.975-8.23,6.098-14.229,7.115,4.065c1.016,18.295,4.986,128.465,2.033,136.196
		c-2.953,7.73-42.688,31.508-80.294,30.492c-37.606-1.016-79.278-11.18-83.344-17.279c-4.066-6.098-2.033-15.246-2.033-15.246
		s0-109.77,1.016-118.917c1.016-9.147,4.066-11.18,4.066-11.18L233.678,331.301z"/>
	<path style="fill:#E95513;" d="M214.367,495.955c-16.272-5.811-12.197-22.36-12.197-22.36s7.121,7.971,9.147,5.082
		c2.026-2.889-1.016-10.164,3.049-10.164c4.066,0,10.164,13.213,13.213,18.295c3.049,5.082,7.115,4.065,6.098-3.049
		c-1.016-7.115,5.082-15.246,8.131-8.131c3.049,7.115,13.213,19.311,15.246,13.213c2.033-6.098,5.082-6.098,5.082-6.098
		l9.147,13.213c0,0,14.105,13.807,13.213,4.066c-0.892-9.741-0.324-20.864,5.082-17.279c5.406,3.585,11.18,12.197,11.18,12.197
		s5.082-16.262,10.164-9.147c5.082,7.115,6.098,13.213,6.098,13.213s16.262,3.049,18.295-4.065
		c2.033-7.115,13.361-16.834,14.229-11.18c0.869,5.654,13.213,11.18,14.229,4.066c1.016-7.115,18.996-24.299,21.344-21.344
		c2.349,2.954,4.111,13.925,4.066,11.18s9.147-16.262,9.147-7.115c0,9.148-2.033,21.344-19.311,28.459
		c-17.278,7.115-66.065,14.229-94.524,12.197C256.039,509.168,228.596,501.037,214.367,495.955z"/>
	<g>
		<path style="fill:#231815;" d="M275.133,123.317c16.912,16.74,32.757,45.712,12.325,65.823
			c-8.035,7.909-18.714,12.834-29.047,16.978c-2.903,1.164-5.83,2.268-8.767,3.343c-1.184,0.433-3.721,1.939-4.974,1.827
			c-4.104-0.366,1.327-1.829,1.347-2.093c-0.043,0.549-2.164,1.53-2.7,1.92c2.137-3.981,10.384-7.019,14.311-9.147
			c7.052-3.822,14.421-7.319,20.844-12.167c6.308-4.761,11.996-11.122,13.028-19.26c0.92-7.258-2.141-14.797-4.948-21.364
			c-5.484-12.828-15.874-25.127-28.502-31.356c-0.755-0.372-7.927-2.659-7.96-3.338c-0.077-1.586,5.592-0.398,6.396-0.235
			C263.292,115.625,269.663,119.112,275.133,123.317z"/>
		<path style="fill:#231815;" d="M245.874,19.862c-8.816,10.983-13.831,25.011-16.482,38.706
			c-1.516,7.827-2.171,15.738-2.198,23.703c-0.007,1.897,1.735,15.802,0.358,16.659c-0.265,0.165-4.342-12.885-4.563-14.231
			c-1.104-6.738-0.688-13.604,0.046-20.362c1.084-9.984,2.703-21.139,7.471-30.114c4.461-8.397,9.293-17.076,16.134-23.771
			c1.611-1.576,3.277-3.083,5.188-4.287c1.438-0.905,3.741-2.822,3.614-0.603c-0.088,1.548-4.647,6.006-5.538,7.337
			C248.402,15.141,247.155,17.492,245.874,19.862z"/>
		<path style="fill:#231815;" d="M221.96,92.543c-4.593-20.695-7.943-43.398-21.273-60.507c-6.307-8.096-14.001-15.1-22.273-21.144
			c-2.849-2.082-5.791-4.027-8.79-5.885c-1.413-0.875-6.18-4.858-7.33-4.66c1.732-0.298,5.628,1.628,7.25,2.165
			c3.292,1.09,6.492,2.449,9.56,4.063c7.669,4.035,14.351,9.637,20.335,15.862c9.653,10.041,17.398,22.298,20.723,35.932
			c1.912,7.839,3.202,15.838,5.081,23.696c1.895,7.924,3.909,15.829,5.238,23.875c0.166,1.006,2.072,9.293,0.725,10.012
			C230.295,116.436,223.027,95.338,221.96,92.543z"/>
		<path style="fill:#231815;" d="M164.429,25.351c-1.092,10.748-1.947,21.7-0.859,32.482c1.072,10.625,5.177,20.636,10.038,30.064
			c4.758,9.227,10.629,17.86,16.978,26.06c2.182,2.818,4.446,5.568,6.712,8.317c1.07,1.298,4.217,6.743,5.321,6.958
			c-1.256-0.244-3.834-2.916-4.858-3.678c-2.473-1.84-4.872-3.768-7.15-5.845c-5.028-4.583-9.379-9.809-13.255-15.389
			c-8.176-11.769-15.721-25.476-19.027-39.533c-2.097-8.917-1.022-18.514-0.444-27.572c0.437-6.859,0.981-13.711,1.724-20.544
			c0.25-2.295,0.403-15.927,2.711-16.669C163.028-0.226,164.332,23.069,164.429,25.351z"/>
		<path style="fill:#231815;" d="M191.009,144.067c-2.887,11.462-7.164,22.713-12.769,33.122
			c-2.936,5.453-6.288,10.752-10.374,15.423c-1.676,1.916-7.028,8.56-10.042,8.188c0.815,0.101,4.02-6.715,4.549-7.622
			c2.534-4.346,5.413-8.471,7.936-12.821c4.125-7.114,6.235-14.773,9.71-22.098c3.533-7.446,5.418-14.965,7.099-23.024
			c0.138-0.664,0.698-5.382,1.75-5.545c1.193-0.186,1.299,2.529,1.465,3.574C190.893,136.784,191.102,140.504,191.009,144.067z"/>
		<path style="fill:#231815;" d="M141.235,226.988c-14.865,21.074-27.018,44.254-36.932,68.031
			c-4.79,11.487-8.895,23.191-12.453,35.111c-1.661,5.564-3.168,11.211-4.433,16.881c-0.24,1.078-1.644,11.627-2.689,11.637
			c-1.896,0.018,3.19-31.912,3.85-34.595c3.38-13.746,8.86-27.217,14.385-40.228c8.882-20.916,20.015-40.082,32.815-58.866
			c1.101-1.616,18.544-26.886,21.693-24.501C157.479,200.464,142.645,224.344,141.235,226.988z"/>
		<path style="fill:#231815;" d="M218.847,339.473c-0.583,23.803,0.283,47.622,0.146,71.429
			c-0.065,11.337-0.287,22.693-1.191,33.999c-0.08,0.997-0.349,11.963-1.668,12.255c-0.058,0.013-2.328-27.609-2.351-28.892
			c-0.304-17.137-0.358-34.232-1.208-51.356c-0.337-6.785,0.374-13.589,0.499-20.376c0.168-9.134-0.034-18.276,0.402-27.404
			c0.131-2.743-0.566-11.815,1.661-14.043c1.855-1.857,1.517,3.717,1.623,4.996C217.294,326.559,218.046,333.023,218.847,339.473z"
			/>
		<path style="fill:#231815;" d="M384.57,336.561c-0.579,22.697,0.273,45.413,0.149,68.114c-0.059,10.729-0.272,21.474-1.12,32.173
			c-0.13,1.633,0.094,11.69-1.73,12.684c0.394-0.215-0.71-6.203-0.788-6.787c-0.88-6.625-1.404-13.27-1.556-19.953
			c-0.376-16.582-0.287-33.133-1.191-49.703c-0.348-6.38,0.303-12.74,0.443-19.121c0.199-9.065-0.03-18.139,0.417-27.198
			c0.143-2.902-0.534-11.106,1.633-13.527c1.788-1.998,1.495,2.853,1.614,4.21C382.997,323.837,383.749,330.205,384.57,336.561z"/>
		<path style="fill:#231815;" d="M383.183,462.013c2.034-2.225,7.465-11.321,3.357-14.19c-2.535-1.77-8.43,8.251-10.269,9.998
			c-9.253,8.786-22.326,13.973-34.248,17.937c-26.554,8.828-53.691,9.719-80.919,3.636c-12.484-2.789-26.985-6.546-36.675-15.407
			c-1.904-1.741-7.541-11.323-9.944-8.652c-3.345,3.72,2.718,11.562,5.176,13.931c8.886,8.567,22.176,10.74,33.77,13.271
			c12.977,2.834,26.239,5.49,39.563,5.79c16.034,0.361,32.866-2.858,48.4-6.567C355.841,478.311,372.953,473.542,383.183,462.013z"
			/>
		<path style="fill:#231815;" d="M232.131,327.619c-2.921-1.263-7.06-2.623-6.419-6.315c0.232-1.332,2.663-4.054,1.15-5.302
			c-1.202-0.991-4.376,1.453-5.115,2.158c-9.358,8.928,6.348,16.775,13.197,18.922c10.15,3.181,20.563,3.85,31.107,4.333
			c10.382,0.475,20.726,1.646,31.121,1.871c21.541,0.465,44.389-5.477,63.423-15.609c7.452-3.967,17.771-10.947,15.303-20.869
			c-2.243-9.021-12.551-12.228-20.56-14.038c-10.84-2.449-22.021-2.979-33.085-3.501c-11.036-0.521-22.059-1.582-33.114-1.553
			c-9.111,0.024-19.001,0.264-27.391,4.225c-1.444,0.682-7.029,3.335-5.856,5.456c1.051,1.9,10.858-0.804,12.67-1.054
			c18.202-2.511,36.831-1.965,55.157-1.879c8.731,0.041,55.082,0.206,47.228,18.496c-3.892,9.065-18.134,13.899-26.545,16.966
			c-12.219,4.456-25.068,7.93-38.142,8.013c-12.774,0.081-25.392-2.271-38.064-3.542
			C256.003,333.175,243.585,332.439,232.131,327.619z"/>
		<path style="fill:#231815;" d="M201.655,338.389c-4.252,2.055-11.713,5.374-8.082,11.457c1.497,2.509,4.787,3.409,7.302,4.519
			c3.435,1.516,6.919,2.932,10.505,4.052c5.744,1.795,12.156,3.136,18.006,1.056c0.913-0.325,10.918-6.448,10.338-7.195
			c0.317,0.408-2.229,4.703-2.534,5.199c-1.315,2.14-3.019,3.971-5.127,5.34c-5.441,3.533-12.061,3.102-18.145,1.819
			c-5.674-1.197-11.12-3.27-16.509-5.37c-5.04-1.965-9.498-3.968-10.395-9.859c-1.718-11.276,11.913-17.145,20.795-19.584
			c1.205-0.331,9.012-1.863,7.206,0.695c-0.271,0.384-3.539,1.373-4.038,1.617c-1.389,0.676-2.728,1.518-4.019,2.363
			C205.124,335.697,203.361,337.013,201.655,338.389z"/>
		<path style="fill:#231815;" d="M329.296,329.037c-2.179,2.811-5.4,12.207,1.228,7.099c6.116-4.712,10.32-13.004,13.995-19.634
			c9.897-17.855,19.662-35.776,29.63-53.597c4.137-7.396,8.682-14.704,12.427-22.307c0.719-1.46,3.557-7.298,0.167-7.266
			c-4.259,0.04-8.548,11.559-9.729,14.291c-3.575,8.274-7.311,16.191-11.743,24.047
			C354.096,291.479,343.007,310.825,329.296,329.037z"/>
		<path style="fill:#231815;" d="M317.56,329.619c-2.119,2.856-5.14,12.319,1.379,7.072c6.014-4.841,10.041-13.22,13.575-19.926
			c9.517-18.06,18.899-36.185,28.487-54.213c3.979-7.482,8.368-14.885,11.951-22.565c0.688-1.475,3.401-7.372,0.013-7.268
			c-4.257,0.13-8.301,11.737-9.423,14.494c-3.399,8.349-6.967,16.343-11.231,24.291C341.558,291.544,330.882,311.12,317.56,329.619z
			"/>
		<path style="fill:#231815;" d="M310.157,329.617c-1.96,2.967-4.461,12.582,1.763,6.987c5.741-5.162,9.305-13.749,12.468-20.637
			c8.517-18.553,16.898-37.162,25.488-55.686c3.565-7.688,7.544-15.319,10.703-23.183c0.607-1.51,2.994-7.546-0.383-7.257
			c-4.244,0.363-7.649,12.172-8.619,14.986c-2.939,8.522-6.065,16.699-9.89,24.868C332.042,290.291,322.451,310.421,310.157,329.617
			z"/>
		<path style="fill:#231815;" d="M299.964,334.359c-1.904,3.489-2.639,11.338,2.406,5.351c4.458-5.29,6.921-12.82,9.236-19.232
			c6.346-17.579,12.758-35.115,19.286-52.629c2.406-6.455,6.073-13.398,7.266-20.21c0.422-2.409,0.124-5.355-2.528-2.957
			c-4.337,3.923-5.293,12.742-6.63,17.971c-1.372,5.364-3.223,10.553-5.178,15.727C316.605,297.478,309.542,316.272,299.964,334.359
			z"/>
		<path style="fill:#231815;" d="M274.546,217.114c13.584,10.633,35.717,8.367,51.672,6.642c1.88-0.203,32.318-3.609,32.362-4.821
			c-0.045,1.256-8.059,4.34-9.125,4.788c-5.882,2.471-12.111,3.733-18.396,4.678c-11.398,1.714-24.592,3.971-36.127,2.148
			c-10.754-1.7-24.676-5.903-30.167-16.112c-1.151-2.141-2.069-4.678-2.163-7.129c-0.134-3.486,0.58-4.337,2.031-1.124
			C266.85,211.092,269.553,214.721,274.546,217.114z"/>
		<path style="fill:#231815;" d="M360.75,197.809c1.957-8.192,12.476-18.23,20.56-10.28c3.446,3.389,4.45,9.922,6.12,14.255
			c0.979,2.54,2.068,5.023,3.882,7.082c0.32,0.363,5.161,4.577,5.439,4.233c-0.539,0.668-5.281-1.465-5.889-1.818
			c-2.4-1.395-4.106-3.668-5.391-6.08c-2.293-4.304-3.089-12.48-7.24-15.419c-3.705-2.623-9.205-0.061-11.55,3.059
			c-1.848,2.458-2.704,5.65-2.876,8.691c-0.046,0.816,0.735,7.976,0.456,8.003C361.549,209.798,360.716,199.553,360.75,197.809z"/>
		<path style="fill:#231815;" d="M409.909,216.937c4.751,1.183,8.148,4.614,9.238,9.376c0.251,1.098,0.679,2.861,0.148,3.691
			c-1.21,1.889-6.603,3.098-8.398,3.444c-1.959,0.378-11.771,0.9-12.399-2.706c0.251,1.439,16.407-0.287,17.194-3.074
			c0.271-0.958-1.698-4.266-2.355-5.041c-1.003-1.182-10.94-3.406-10.932-3.627C402.454,217.608,408.742,216.986,409.909,216.937z"
			/>
		<path style="fill:#231815;" d="M409.474,241.298c0.196,3.793-1.138,7.095-5.223,7.975c-3.083,0.664-9.447-1.09-9.666-5.105
			c-0.016-0.289,5.442,1.473,5.511,1.488c1.853,0.402,3.922,0.536,5.202-1.119c1.331-1.722-0.545-4.396,0.503-5.774
			C406.935,237.27,409.73,240.878,409.474,241.298z"/>
		<path style="fill:#231815;" d="M396.343,258.633c-6.086-0.57-12.202-1.987-17.885-4.241c-2.772-1.1-5.632-2.427-7.928-4.372
			c-0.185-0.157-2.168-2.403-2.017-2.403c3.06-0.01,6.975,2.129,9.767,3.17c3.867,1.442,7.879,1.999,11.803,3.107
			c3.459,0.977,6.669,0.963,10.207,1.256C405.348,255.569,398.342,258.149,396.343,258.633z"/>
		<path style="fill:#231815;" d="M276.635,255.466c14.034,5.614,30.092,6.556,44.982,4.872c7.246-0.82,14.47-2.239,21.405-4.513
			c1.596-0.523,12.278-5.993,13.327-5.313c0.257,0.167-8.36,7.386-9.354,7.982c-5.59,3.35-12.026,4.985-18.368,6.198
			c-9.966,1.907-21.996,3.714-32.064,1.874c-9.976-1.823-20.619-4.314-29.497-9.326c-2.06-1.163-4.018-2.381-5.752-4.012
			c-1.463-1.377-3.12-2.631-0.549-2.663c2.162-0.027,5.894,2.417,8.105,3.081C271.445,254.419,273.997,254.976,276.635,255.466z"/>
		<path style="fill:#231815;" d="M259.265,252.129c-4.109,11.68-6.709,23.903-8.613,36.119c-0.881,5.656-1.551,11.34-2.254,17.019
			c-0.144,1.164-2.201,10.673-1.881,11.073c-1.015-1.27-1.436-5.526-1.747-7.09c-1.131-5.699-0.605-11.437,0.001-17.165
			c0.828-7.826,1.266-16.356,3.359-23.98c1.98-7.211,4.51-14.612,7.106-21.605c0.247-0.667,3.368-9.503,4.874-8.923
			C261.656,238.172,259.423,250.341,259.265,252.129z"/>
		<path style="fill:#231815;" d="M252.086,91.795c3.406-17.147,10.494-33.38,13.486-50.619c1.262-7.27,1.858-15.059-0.555-22.16
			c-0.916-2.695-2.272-5.162-3.943-7.458c-0.439-0.604-5.483-6.682-5.582-6.622c1.623-0.983,9.184,6.024,10.198,7.181
			c2.91,3.318,4.733,7.46,5.559,11.78c2.182,11.412-1.129,23.661-3.757,34.721c-2.003,8.429-5.335,16.269-7.652,24.597
			c-1.562,5.616-2.734,11.396-3.305,17.201c-0.091,0.926-0.247,12.032-0.882,11.963C251.776,111.951,252.035,94.452,252.086,91.795z
			"/>
		<path style="fill:#231815;" d="M313.027,148.733c7.314-4.996,15.196-9.359,23.471-12.545c4.099-1.578,8.359-2.911,12.721-3.511
			c0.412-0.057,9.936-0.177,9.562,0.536c-0.408,0.779-9.728,2.407-10.681,2.678c-5.96,1.695-11.746,3.743-17.185,6.744
			c-2.631,1.452-24.731,14.009-24.254,14.701C305.714,155.96,311.986,149.796,313.027,148.733z"/>
		<path style="fill:#231815;" d="M317.018,159.079c9.974-2.655,19.848-5.676,30.065-7.289c4.707-0.743,9.467-1.203,14.235-1.179
			c1.246,0.006,7.991,1.312,8.671,0.919c-2.773,1.602-8.564,1.674-11.605,2.088c-7.246,0.987-14.353,1.944-21.392,4.008
			c-4.361,1.279-8.788,2.031-13.179,3.195c-0.509,0.135-17.199,4.72-17.126,3.54C306.773,162.986,315.543,159.82,317.018,159.079z"
			/>
		<path style="fill:#231815;" d="M316.554,167.365c10.031-0.387,20.197,0.504,30.096,2.102c4.442,0.717,8.878,1.612,13.206,2.854
			c0.414,0.119,4.476,1.77,4.551,1.717c-1.494,1.068-7.868,0.047-9.482-0.097c-6.626-0.593-13.134-1.953-19.802-2.229
			c-4.15-0.172-8.242-0.768-12.385-0.92c-3.069-0.112-6.139,0.079-9.196,0.328c-1.408,0.115-5.319,1.186-6.708,0.465
			C306.543,171.434,315.182,167.685,316.554,167.365z"/>
		<path style="fill:#231815;" d="M253.016,325.037c8.982-6.15,20.413-6.803,30.945-6.81c5.26-0.004,10.516,0.22,15.775,0.298
			c0.806,0.012,9.509,0.565,9.633,0.375c-1.391,2.14-7.438,3.509-9.86,3.975c-4.897,0.943-9.998,0.617-14.959,0.801
			c-4.697,0.174-9.134,0.94-13.752,1.625c-3.705,0.55-7.151,0.52-10.665,2.11c-1.296,0.586-3.982,1.546-4.73,2.814
			c-1.321,2.238,4.228,4.519,0.203,4.739c-1.992,0.109-6.385-2.548-6.209-4.735C249.519,328.709,251.939,326.212,253.016,325.037z"
			/>
		<path style="fill:#231815;" d="M278.56,174.156c2.778,1.188,7.86-2.747,10.212-0.689c2.137,1.869-2.105,3.437-3.818,4.156
			c-2.44,1.023-5.128,2.048-7.767,0.493C273.927,176.195,276.976,175.52,278.56,174.156z"/>
		<path style="fill:#231815;" d="M234.819,187.363c-2.318,2.605-5.41,6.119-9.333,5.723c-4.888-0.493-0.518-1.874,1.362-2.766
			c1.865-0.884,3.458-2.432,4.984-3.812C234.333,184.247,235.305,183.094,234.819,187.363z"/>
		<path style="fill:#231815;" d="M218.183,187.776c-1.399,0.48-9.082,5.505-10.275,4.235c-1.185-1.261,3.522-3.966,4.113-4.377
			c1.566-1.086,2.683-1.807,4.584-2.247C220.047,184.591,219.811,185.113,218.183,187.776z"/>
		<path style="fill:#231815;" d="M197.458,188.246c-1.224,1.443-9.27,10.187-11.731,6.715c-0.078-0.11,6.45-5.534,7.166-6.244
			c0.749-0.743,2.655-3.196,3.554-3.432C198.573,184.726,197.713,186.441,197.458,188.246z"/>
		<path style="fill:#231815;" d="M145.015,293.632c-7.505,12.111-11.473,26.325-14.737,40.07c-1.631,6.867-3.029,13.786-4.44,20.701
			c-0.475,2.33-0.939,4.664-1.457,6.985c-0.234,1.047-1.854,5.154-1.722,5.606c-2.756-9.444-0.366-20.95,1.459-30.259
			c1.772-9.039,3.117-19.264,6.929-27.72c3.621-8.032,7.331-16.593,12.676-23.616c1.594-2.094,3.347-4.283,5.521-5.803
			c1.369-0.957,2.643-2.124,2.508-0.057c-0.137,2.094-3.385,5.874-4.309,7.928C146.535,289.482,145.795,291.564,145.015,293.632z"/>
		<path style="fill:#231815;" d="M129.356,382.176c5.036,5.657,8.323,14.025,0.552,19.302c-3.293,2.236-7.739,2.564-11.449,1.249
			c-0.766-0.272-7.76-5.229-6.199-5.926c0.171-0.076,3.395,1.658,4.022,1.841c2.401,0.704,5.161,1.261,7.649,0.848
			c4.35-0.721,6.94-4.442,6.062-8.827c-0.822-4.106-5.203-5.996-7.042-9.503C120.099,375.72,127.287,381.097,129.356,382.176z"/>
		<path style="fill:#231815;" d="M87.341,371.93c-0.663,5.708-1.439,11.418-1.873,17.15c-0.382,5.032-1.719,10.672-1.205,15.692
			c0.42,4.098,3.586,9.172,7.927,10.157c2.005,0.455,3.136-0.165,4.308-1.779c0.266-0.366,1.546-3.893,1.623-3.859
			c0.496,0.222,0.084,3.953-0.043,4.477c-0.412,1.705-1.293,3.177-2.944,3.971c-3.856,1.855-8.293-1.044-10.858-3.788
			c-5.968-6.386-3.778-14.831-3.636-22.729c0.056-3.134,0.775-6.109,1.241-9.203c0.293-1.944,1.833-23.352,2.508-23.407
			C86.446,358.379,87.207,370.409,87.341,371.93z"/>
		<path style="fill:#231815;" d="M97.457,408.946c0.49,1.692,2.449,4.013,4.412,3.879c1.721-0.118,2.26-2.532,3.66-2.99
			c3.152-1.031,0.487,6.285-3.039,7.053c-4.053,0.883-6.471-1.599-8.17-4.805c-0.536-1.011-2.273-4.462-0.453-5.343
			C94.874,406.252,96.403,408.426,97.457,408.946z"/>
		<path style="fill:#231815;" d="M109.962,409.568c1.879,3.758,2.997-0.894,4.862-0.409c2.186,0.568,0.562,4.966-0.627,5.726
			c-1.928,1.233-4.478,0.374-5.932-0.944c-0.922-0.835-2.702-2.539-1.945-4.011C107.033,408.544,108.75,409.583,109.962,409.568z"/>
		<path style="fill:#231815;" d="M49.003,457.055c-1.73,0.59-16.487,7.343-8.481,7.839c4.964,0.307,10.757-2.301,15.325-3.857
			c7.096-2.419,14.067-5.181,20.996-8.04c24.88-10.264,49.436-21.646,75.104-29.825c13.374-4.262,26.739-8.576,40.071-12.967
			c5.318-1.751,11.344-3.262,15.923-6.589c1.105-0.803,4.158-2.959,2.692-4.442c-0.939-0.95-5.826,1.106-6.733,1.385
			c-11.982,3.686-23.475,8.701-35.145,13.236c-12.103,4.703-24.751,7.833-36.821,12.634c-14.677,5.837-29.119,12.079-44.021,17.365
			C74.998,448.375,61.959,452.591,49.003,457.055z"/>
		<path style="fill:#231815;" d="M391.749,344c-2.355,0.636-8.269,4.139-3.581,5.942c4.725,1.817,13.117-2.592,17.408-4.409
			c14.686-6.219,29.342-11.994,44.359-17.402c6.503-2.342,13.226-4.441,19.56-7.216c3.366-1.475,7.215-5.961,1.177-5.587
			c-5.764,0.357-10.996,4.36-15.965,6.872c-4.295,2.171-8.832,3.743-13.36,5.343C424.85,333.372,408.652,339.384,391.749,344z"/>
		<path style="fill:#231815;" d="M247.967,165.395c-6.296-7.704,1.309-19.969,5.77-11.62
			C258.196,162.125,250.193,168.119,247.967,165.395z"/>
		<path style="fill:#231815;" d="M163.121,60.22c0.604-7.248,2.429-9.323,9.85-9.148c1.719,0.041,5.554,1.752,7.038,1.371
			c1.843-0.473,1.66-2.41,2.006-4.276c0.429-2.318,0.784-7.889,3.168-9.385c2.947-1.849,5.069,2.915,7.678,3.691
			c3.834,1.141,6.96-1.95,10.75-1.646c3.266,0.262,8.455,0.1,5.089-4.169c-2.445-3.101-6.326-5.493-9.313-8.052
			c-3.977-3.406-7.912-6.861-11.905-10.25c-3.462-2.938-6.955-5.847-10.578-8.586c-2.583-1.953-5.722-4.898-8.878-5.832
			c-5.33-1.577-6.546,5.203-7.103,9.053C158.73,28.153,159.756,45.363,163.121,60.22z"/>
		<path style="fill:#231815;" d="M233.479,41.222c3.07-2.456,8.538-0.122,12.171,0.026c1.53,0.063,3.824,0.728,5.328,0.293
			c1.68-0.486,2.469-3.002,4.285-2.873c4.403,0.315,9.545,22.491,12.415,7.527c2.085-10.875,1.611-23.592-4.287-33.243
			c-1.547-2.531-4.854-9.533-8.748-8.186c-3.56,1.232-7.058,6.946-9.201,9.93c-3.443,4.794-6.461,9.962-8.972,15.303
			C235.32,32.442,231.809,38.44,233.479,41.222z"/>
		<path style="fill:#231815;" d="M190.398,263.659c2.337,2.646,4.808,5.171,7.225,7.743c1.44,1.532,4.266,3.787,4.983,5.892
			c0.021,0.061-3.333-0.948-3.75-1.202c-2.176-1.324-4.527-3.824-6.326-5.635c-1.162-1.17-7.163-7.423-6.163-8.341
			C186.87,261.652,189.722,263.357,190.398,263.659z"/>
		<path style="fill:#231815;" d="M208.342,272.669c1.927,2.595,5.691,7.135,3.758,10.683c-1.657,3.042-1.917-1.82-2.489-3.26
			c-0.722-1.82-2.074-3.532-3.086-5.207C204.749,271.948,204.962,271.612,208.342,272.669z"/>
		<path style="fill:#231815;" d="M220.26,279.714c-0.258,1.131,0.975,5.435-0.483,6.083c-1.476,0.656-2.029-2.084-2.202-2.898
			C217.201,281.132,218.102,275.783,220.26,279.714z"/>
		<path style="fill:#231815;" d="M227.24,282.729c0.604-1.541,5.847-16.555,8.883-15.065c0.753,0.369-3.938,10.795-4.449,12.066
			c-0.601,1.496-1.666,5.514-2.847,6.287C226.819,287.332,227.408,284.512,227.24,282.729z"/>
		<path style="fill:#231815;" d="M95.024,437.078c-0.179,1.549,2.332,1.963,3.387,1.545c1.968-0.779,1.727-2.756,1.427-4.475
			c-0.425-2.437-1.473-4.496-1.514-7.033c-0.055-3.423,1.423-6.387,1.842-9.64c0.222-1.723-0.052-4.124-2.692-3.171
			c-2.246,0.811-1.312,3.456-1.302,5.204C96.207,425.23,95.662,431.377,95.024,437.078z"/>
		<path style="fill:#231815;" d="M197.702,398.301c1.819-0.012,1.077-3.757,0.156-4.433c-1.85-1.358-4.146,0.367-5.553,1.601
			c-3.501,3.072-8.279,7.181-9.8,11.713c-0.612,1.825-0.899,3.467,1.628,3.395c3.057-0.087,1.993-2.31,2.449-4.245
			C187.647,401.82,193.513,398.685,197.702,398.301z"/>
		<path style="fill:#231815;" d="M209.736,498.043c-4.848-2.96-9.112-7.578-11.578-12.702c-1.81-3.76-3.501-11.591,2.204-12.987
			c-2.081,0.283-1.614,6.246-1.364,7.445c0.791,3.793,3.023,6.7,5.501,9.562c1.461,1.687,2.75,3.428,4.524,4.815
			c0.468,0.366,7.582,3.595,7.58,3.738C216.583,499.562,210.353,498.239,209.736,498.043z"/>
		<path style="fill:#231815;" d="M206.319,475.577c1.883,2.991,7.473,5.657,7.026,0.21c-0.225-2.741-1.632-5.662-2.482-8.255
			c4.336,3.066,8.977,6.002,12.204,10.319c1.674,2.239,2.988,4.817,3.424,7.603c0.074,0.469,0.144,5.143-0.321,4.922
			c-0.304-0.145-2.816-7.659-3.417-8.588c-1.647-2.544-4.005-5.698-6.83-7.001c2.497,4.247-1.746,8.107-5.945,6.965
			c-2.865-0.78-5.558-3.262-6.751-5.93c-0.818-1.831-1.68-7.046,1.026-7.973c0.004-0.001,0.008,3.904,0.063,4.16
			C204.611,473.377,205.335,474.584,206.319,475.577z"/>
		<path style="fill:#231815;" d="M234.613,493.261c-5.398-9.916,0.692-16.742,9.834-20.033c-0.366,4.902,0.286,8.641,3.893,12.47
			c1.541,1.636,4.645,4.48,6.788,2.449c1.309-1.24,0.334-3.66,1.373-4.838c3.694-4.19,17.396,15.726,17.509,20.058
			c-0.05-1.924-4.513-6.314-5.679-7.824c-1.479-1.914-6.237-8.966-8.976-8.858c-1.493,0.059-0.801,1.234-1.891,2.772
			c-3.591,5.066-9.826,0.001-12.489-3.332c-1.517-1.898-2.52-3.929-3.346-6.198c-0.112-0.308-0.317-1.978-0.537-2.06
			c-1.631-0.609-4.72,3.572-5.201,4.712c-1.816,4.301,0.623,9.216,3.433,12.481c0.769,0.894,8.38,7.414,9.152,6.603
			c-1.383,1.223-6.695-1.909-7.79-2.604C238.308,497.551,236.218,495.577,234.613,493.261z"/>
		<path style="fill:#231815;" d="M287.429,508.356c-3.396-5.168-5.278-11.948-3.823-18.076c0.668-2.814,2.067-5.502,4.361-7.329
			c1.176-0.936,5.605-3.47,7.135-2.097c-1.04-0.934-6.433,4.77-6.859,5.379c-2.136,3.053-2.582,6.755-1.973,10.364
			c0.445,2.632,0.891,5.361,2.079,7.776c1.017,2.066,5.233,5.342,5.464,7.535C293.888,512.625,288.054,508.933,287.429,508.356z"/>
		<path style="fill:#231815;" d="M298.254,487.291c1.016,1.807,8.122,11.218,4.937,13.3c-0.314,0.205-5.096-7.835-5.702-8.83
			c-0.491-0.805-3.024-4.443-2.503-5.434C295.704,484.962,297.165,486.728,298.254,487.291z"/>
		<path style="fill:#231815;" d="M306.916,490.179c1.142-2.217,3.086-3.413,5.113-4.762c1.6,4.417,7.328,12.529,4.432,16.783
			c0.364-0.534-3.767-8.18-4.275-9.104c-0.551-1.002-1.359-2.201-1.73-3.049c-0.635,0.434-2.081,5.111-2.917,4.888
			C306.671,494.703,306.85,490.965,306.916,490.179z"/>
		<path style="fill:#231815;" d="M331.814,498.927c2.776-3.989,4.122-8.891,7.624-12.392c1.582-1.581,3.513-2.813,5.647-3.497
			c1.098-0.352,4.936-1.516,5.793-0.834c1.285,1.021-0.051,5.221-0.463,7.21c-0.178,0.86-1.139,8.25-2.269,8.469
			c-0.473,0.092,0.342-12.007,0.425-12.789c-4.822,0.305-7.552,4.032-10.004,7.728c-1.886,2.843-6.444,14.622-11.157,12.664
			C328.174,505.801,331.391,500.049,331.814,498.927z"/>
		<path style="fill:#231815;" d="M373.416,472.704c5.967-3.821,12.7-5.968,19.374-8.163c-1.353,3.14-3.478,6.842-3.65,10.375
			c3.827-1.518,6.619-6.654,8.99-9.997c3.673,7.334,4.797,13.919,0.203,21.343c-1.87,3.022-4.416,5.666-7.378,7.633
			c-1.039,0.69-8.133,2.953-8.249,3.224c0.403-0.943,5.223-2.807,6.289-3.666c2.751-2.217,5.14-4.928,6.949-7.965
			c2.487-4.175,4.617-10.635,1.717-15.19c-1.569,2.412-6.655,9.758-10.331,7.477c-2.371-1.471-1.212-6.442,0.138-8.341
			c-4.423,0.649-9.377,3.461-12.997,5.981c-2.08,1.447-4.058,3.101-5.542,5.174c-1.116,1.559-1.848,6.06-3.093,6.943
			c-0.258,0.183-0.17-3.085-0.115-3.398c0.32-1.832,1.052-3.543,2.002-5.134C369.192,476.536,371.232,474.533,373.416,472.704z"/>
	</g>
</g>
</svg>
