<?xml version="1.0" encoding="iso-8859-1"?>
<!-- Generator: Adobe Illustrator 21.1.0, SVG Export Plug-In . SVG Version: 6.00 Build 0)  -->
<svg version="1.1" id="_x31_2" xmlns="http://www.w3.org/2000/svg" xmlns:xlink="http://www.w3.org/1999/xlink" x="0px" y="0px"
	 viewBox="0 0 512 512" style="enable-background:new 0 0 512 512;" xml:space="preserve">
<g>
	<path style="fill:#E73828;" d="M279.446,264.211l45.208-2.33c0,0-9.321,15.38-15.38,18.176c-6.059,2.796-11.185,0-16.312-2.33
		c-5.127-2.33-6.991-5.593-6.991-5.593L279.446,264.211z"/>
	<path style="fill:#C30D23;" d="M301.351,268.405c-4.181-0.336-13.516,0.466-17.71-1.864c-4.194-2.33-8.855-6.525-1.864-9.787
		c6.991-3.262,20.507-3.262,30.76-3.262s13.982,3.728,13.05,6.059C324.654,261.881,318.382,269.775,301.351,268.405z"/>
	<path style="fill:#F48458;" d="M300.885,258.618c-6.525,0-13.05,6.059-6.059,9.321c2.049,0.956,4.492,0.422,6.525,0.466
		c4.904,0.107,8.935-1.093,10.253-3.728C313.469,260.948,307.876,258.618,300.885,258.618z"/>
	<path style="fill:#FFFFFF;" d="M367.997,243.704c-12.584-9.787-20.041-20.04-16.312-28.896
		c3.728-8.855,18.642-22.837,24.235-25.167c5.593-2.33,3.728-6.991,3.728-6.991s-6.059-17.244-10.253-27.031
		c-4.195-9.787-2.796-26.099,2.796-32.158c5.593-6.059,20.507,13.05,22.371,14.914c1.864,1.864,6.525-12.118,13.516-14.914
		c6.991-2.796,14.448,7.923,17.71,25.167c3.262,17.244-8.855,43.344-11.185,46.606c0,0,9.321,15.38,14.914,24.701
		c5.593,9.321,14.914,18.642,14.914,18.642s41.945,30.76,51.267,48.936c9.321,18.176,11.651,42.411,2.33,55.461
		c11.185,12.117,14.914,21.439,12.117,28.896c-2.796,7.457-18.642,20.973-31.692,21.905c-13.05,0.932-33.09-2.796-38.217-6.991
		c-5.127-4.194-30.927-22.289-34.488-22.837c-3.561-0.548-39.149-1.864-43.81-0.466c-4.661,1.398-24.701-1.398-24.701-1.398
		s-20.507-6.525-18.176-20.507c2.33-13.982,17.785-18.416,24.701-19.108c6.916-0.692,36.819-5.593,45.674-5.127
		c8.855,0.466,8.855,0,9.787-4.661c0.932-4.66,0.466-21.905-2.33-24.701c-2.796-2.796-5.774,2.07-12.584,6.059
		c-6.809,3.989-27.497,21.439-41.013,22.837c-13.516,1.398-20.973-6.059-25.633-10.719c-4.661-4.661-11.268-15.234-14.448-18.642
		c-3.179-3.408-3.262-4.195-5.593-4.195s-13.05-3.728-11.651-11.185c6.991,0.466,9.321,2.796,9.321,2.796s-1.398,3.728,4.194,4.194
		c5.593,0.466,11.652-2.796,12.118-4.661c0.466-1.864,3.864-2.466,6.059-5.127c2.195-2.66,3.096-4.401,5.593-5.593
		c2.496-1.192,6.064-0.003,3.262,5.593c-2.801,5.595-5.127,11.185-5.127,11.185s6.059,9.321,13.516,12.117
		c7.457,2.796,19.574-2.796,24.235-6.991c4.66-4.194,18.176-19.108,21.439-23.303c3.262-4.195,0.466-7.923,0.466-7.923
		L367.997,243.704z"/>
	<path style="fill:#E73828;" d="M51.699,218.693c0,0,165.917-55.306,168.403-52.82c2.486,2.486-5.593,31.071-22.992,48.47
		c-13.138,17.072-18.642,19.264-18.642,19.264s-1.243,5.593-3.729,8.7c-2.486,3.107-14.292,6.835-19.885,8.7
		c-5.593,1.864-13.671,1.243-13.671,1.243s-38.527-0.621-51.577-3.107c-13.05-2.486-43.499-14.292-43.499-14.292
		S37.406,225.528,51.699,218.693z"/>
	<path style="fill:#C30D23;" d="M87.741,195.7c19.885-11.807,71.462-31.692,89.483-34.799c18.021-3.107,34.799-4.971,40.392,1.864
		c5.593,6.835-1.864,12.428-9.321,19.264c-7.457,6.836-39.149,23.614-54.063,29.828c-14.914,6.214-29.206,9.321-38.527,11.807
		c-9.321,2.486-21.749,4.35-36.663,4.971s-19.885-3.107-19.885-3.107L87.741,195.7z"/>
	<path style="fill:#F48458;" d="M78.42,214.343c7.457-6.214,41.013-19.885,61.52-21.128c20.507-1.243,26.099,6.836,24.856,11.807
		c-1.243,4.971-9.942,4.971-10.564,6.835c-0.621,1.864-44.614,12.983-51.577,14.914c-6.963,1.931-29.206,2.486-37.906,1.864
		C56.049,228.014,78.42,214.343,78.42,214.343z"/>
	<path style="fill:#94C85C;" d="M10.064,349.189c-11.185-16.157-8.7-38.527-9.943-45.363c-1.243-6.836,21.127-48.397,24.235-53.441
		c3.108-5.044,3.107-7.457,3.107-7.457s7.457-33.556,21.749-46.606c3.107-12.428,6.836-22.992,12.428-24.857
		c5.593-1.864,8.7,6.214,15.535,5.593c6.835-0.621,8.078-4.35,8.7-8.7c0.621-4.35,3.729-12.428,8.078-13.05s8.7,8.7,13.05,9.321
		c4.35,0.621,22.371-0.621,26.099,1.864c3.729,2.486,0.622,4.35-6.835,9.321c-7.457,4.971-54.923,45.88-58.413,54.684
		c-3.49,8.804,40.392,24.857,45.984,24.235c5.593-0.621,24.235-16.778,22.371-19.264c-1.864-2.486-8.7-16.157,6.214-20.507
		c0,4.971,0.621,9.943,11.185,8.7s16.778-5.593,21.128-9.321c4.35-3.728,3.729,7.457-6.835,11.807
		c19.264-9.943,17.142-9.387,13.671-3.107c-3.471,6.28-12.428,9.943-16.778,11.185c16.157-4.35,19.264-3.107,9.943,1.864
		c-9.321,4.971-18.642,5.593-18.642,5.593l-4.35,2.486l-6.214,8.7c0,0,8.7-0.621,13.671-3.107c4.971-2.486,0.621,3.107-2.486,9.321
		c-3.107,6.214-11.185,9.943-22.992,10.564c-4.35,4.35-0.622,19.264,4.35,20.507c4.971,1.243,19.264-4.35,38.528-0.621
		c19.264,3.728,17.4,18.021,13.671,27.342c-3.729,9.321-30.449,28.585-37.906,32.935c-7.457,4.35-22.992,10.564-28.585,11.185
		s-7.457,0.621-7.457,0.621s-21.128,18.642-37.285,26.099c-16.157,7.457-28.585,9.943-43.499,9.321s-20.507-8.078-24.235-18.021
		c-3.728-9.943,1.864-27.342,1.864-27.342L10.064,349.189z"/>
	<path style="fill:#FFFFFF;" d="M60.399,291.398c-3.729,10.564-3.107,35.421,4.971,37.906c8.078,2.486,35.032,6.767,37.285,8.078
		c2.253,1.311,5.593,1.864,6.214-3.107c0.621-4.971,5.593-11.807,14.293-18.642c8.7-6.835,15.535-19.264,14.914-25.478
		c-0.621-6.214-4.35-20.507-4.35-20.507l-0.622-3.107c0,0-9.942,12.428-18.642,18.642c-8.7,6.214-19.885,9.321-27.963,9.943
		C78.42,295.748,60.399,291.398,60.399,291.398z"/>
	<path style="fill:#FFFFFF;" d="M67.856,230.499c-2.486,4.35-1.864,8.078,1.864,11.807c3.729,3.728-1.243,16.157-2.486,18.642
		c-1.243,2.486,18.642,8.7,26.721,7.457c8.078-1.243,19.264-7.457,22.371-11.185c3.107-3.728,10.564-11.185,10.564-11.185
		s-11.185-2.486-18.642-3.107c-7.457-0.621-24.235-3.729-31.071-5.593C70.341,235.471,67.856,230.499,67.856,230.499z"/>
	<g>
		<path style="fill:#231815;" d="M120.933,163.882c-0.978,0.125-8.584,1.64-7.769,3.808c0.556,1.478,9.925-0.352,11.151-0.389
			c2.426-0.072,5.027,0.042,7.307,0.959c0.309,0.124,2.155,0.819,2.195,1.261c0.054,0.588-2.463,1.798-2.814,2.042
			c-1.75,1.217-3.475,2.472-5.193,3.735c-16.049,11.796-31.477,24.442-45.555,38.55c-2.851,2.857-5.65,5.766-8.365,8.752
			c-1.289,1.417-2.597,2.834-3.764,4.354c-0.687,0.895-2.653,3.074-2.481,4.349c0.229,1.693,2.035,0.09,2.835-0.558
			c2.299-1.863,4.29-4.158,6.247-6.363c6.269-7.064,12.113-14.216,19.147-20.564c6.348-5.729,12.882-11.287,19.611-16.562
			c4.723-3.702,9.606-7.202,14.634-10.478c2.325-1.515,4.694-2.949,7.071-4.379c0.543-0.327,3.014-1.411,3.103-2.002
			c0.152-1.014-2.278-3.32-3.03-3.95C131.45,163.255,125.577,163.365,120.933,163.882z"/>
		<path style="fill:#231815;" d="M49.467,191.813c-0.104,0.857-0.02,3.028,1.106,3.354c1.498,0.433,1.889-1.984,2.109-2.974
			c0.837-3.774,1.31-7.597,2.671-11.242c1.137-3.044,3.037-7.079,5.897-8.908c2.682-1.715,5.632,0.433,7.663,2.221
			c2.318,2.041,5.56,5.002,8.986,4.084c1.475-0.395,2.434-1.62,0.759-2.419c-1.093-0.521-2.594-0.438-3.769-0.786
			c-4.551-1.344-10.113-8.658-15.029-4.399C54.321,175.544,50.423,184.633,49.467,191.813z"/>
		<path style="fill:#231815;" d="M84.171,169.197c-0.99,1.262-1.131,3.844,1.183,3.009c1.442-0.52,2.383-2.281,2.932-3.595
			c1.411-3.383,0.801-7.376,2.764-10.561c2.308-3.745,5.121-3.098,7.665-0.138c1.37,1.594,5.135,8.071,7.9,7.184
			c3.062-0.982-2.947-5.112-3.726-5.757c-2.236-1.852-4.136-5.309-7.184-5.901C88.118,151.964,87.369,165.26,84.171,169.197z"/>
		<path style="fill:#231815;" d="M163.032,207.09c12.048-5.015,23.565-11.632,34.443-18.81c5.271-3.479,10.489-7.156,15.181-11.397
			c1.956-1.768,3.878-3.651,5.406-5.809c0.394-0.556,3.43-5.942,2.335-6.404c0.979,0.412,0.02,4.46-0.182,5.109
			c-0.534,1.713-1.453,3.302-2.48,4.763c-2.49,3.54-5.778,6.437-9.148,9.112c-7.072,5.612-14.71,10.521-22.369,15.284
			c-4.787,2.977-10.085,5.253-15.176,7.663c-4.118,1.949-8.24,3.937-12.592,5.316c-1.96,0.621-3.935,1.215-5.931,1.707
			c-0.367,0.09-3.88,0.813-3.777,0.443c0.195-0.7,2.047-1.149,2.647-1.409c1.501-0.65,2.998-1.31,4.488-1.985
			C158.315,209.57,160.692,208.391,163.032,207.09z"/>
		<path style="fill:#231815;" d="M82.943,226.501c8.818,0.245,17.652-1.639,26.248-3.386c4.177-0.849,8.345-1.748,12.544-2.486
			c0.884-0.155,7.281-1.704,7.786-0.913c-0.09-0.141-3.443,1.485-3.664,1.58c-2.945,1.27-6.005,2.183-9.119,2.934
			c-6.579,1.586-13.392,3.605-20.114,4.472c-5.294,0.683-11.082,0.995-16.379,0.593c-1.655-0.125-3.374-0.334-4.969-0.822
			c-0.751-0.23-3.017-0.84-1.907-1.494c0.717-0.423,3.715,0.133,4.629,0.089C79.657,226.989,81.303,226.763,82.943,226.501z"/>
		<path style="fill:#231815;" d="M127.74,176.02c-1.101,0.473-6.146,2.695-5.792,4.529c0.268,1.389,2.745,0.392,3.58,0.14
			c7.311-2.209,14.277-5.869,21.312-8.812c13.847-5.793,28.368-10.065,43.298-11.887c7.345-0.896,15.572-1.576,22.707,0.851
			c1.458,0.496,2.833,1.185,4.16,1.961c0.633,0.37,2.222,1.816,2.98,1.782c1.587-0.072,0.616-1.85,0.024-2.739
			c-1.015-1.524-2.635-2.612-4.263-3.389c-6.503-3.103-14.431-1.825-21.32-1.102c-6.176,0.648-12.315,1.57-18.374,2.944
			C159.688,164.01,143.144,169.342,127.74,176.02z"/>
		<path style="fill:#231815;" d="M92.767,204.529c-0.613,0.285-5.262,2.576-4.707,3.914c0.427,1.029,2.52,0.005,3.215-0.246
			c6.076-2.2,11.872-5.173,17.936-7.432c11.648-4.339,24.289-7.051,36.771-6.452c5.421,0.26,12.313,1.087,16.15,5.408
			c0.921,1.037,1.498,2.247,2.011,3.524c0.235,0.586,0.609,2.588,1.321,2.753c2.193,0.508-0.041-6.07-0.363-6.588
			c-3.212-5.164-10.08-6.07-15.607-6.544c-5.029-0.431-10.103-0.348-15.12,0.203C120.329,194.613,105.575,198.504,92.767,204.529z"
			/>
		<path style="fill:#231815;" d="M135.793,235.452c0.712,0.777,2.143,1.058,2.571-0.13c0.388-1.076-0.858-2.235-1.425-2.999
			c-1.581-2.131-3.027-4.053-3.122-6.824c-0.089-2.592,0.904-5.37,2.697-7.252c0.767-0.805,1.672-1.429,2.705-1.844
			c0.786-0.315,2.477-0.363,2.533-1.54c0.112-2.373-3.754-0.761-4.562-0.089c-1.701,1.416-3.217,3.692-4.068,5.738
			C131.137,225.281,132.391,231.626,135.793,235.452z"/>
		<path style="fill:#231815;" d="M145.518,214.61c0.754-1.136,2.144-4.006-0.471-2.851c-1.42,0.627-2.448,2.704-2.734,4.135
			c-0.879,4.397,3.301,6.758,6.949,7.562c8.578,1.891,19.005-2.225,25.617-7.678c0.591-0.488,3.034-2.501,1.431-3.085
			c-0.675-0.246-1.993,0.835-2.477,1.155c-3.383,2.236-6.08,4.919-9.927,6.432c-3.96,1.557-8.382,2.833-12.647,2.05
			C147.46,221.632,142.692,218.988,145.518,214.61z"/>
		<path style="fill:#231815;" d="M162.152,227.783c-1.538,0.484-1.876,1.717-0.025,1.648c2.262-0.084,4.791-1.742,6.777-2.722
			c4.193-2.07,9.627-4.26,12.523-8.155c1.298-1.745,0.125-2.016-1.156-0.896c-1.651,1.443-2.761,3.193-4.639,4.417
			C171.444,224.805,166.905,226.372,162.152,227.783z"/>
		<path style="fill:#231815;" d="M164.318,233.53c3.609-0.808,7.183-1.901,10.587-3.352c1.741-0.742,3.417-1.607,5.042-2.576
			c0.842-0.502,2.72-2.236,3.682-2.311c-0.298,0.023-0.969,1.127-1.164,1.334c-1.007,1.068-2.174,1.938-3.43,2.697
			c-2.503,1.511-5.344,2.813-8.127,3.731c-1.438,0.474-10.804,2.733-10.859,2.25C160.006,234.927,163.851,233.721,164.318,233.53z"
			/>
		<path style="fill:#231815;" d="M222.947,172.622c-4.499,13.821-10.924,26.654-19.749,38.21
			c-3.396,4.447-6.979,8.743-10.674,12.943c-0.829,0.943-7.408,7.945-7.62,7.639c-0.509-0.731,5.444-7.072,6.111-7.899
			c1.527-1.892,3.024-3.799,4.575-5.672c4.883-5.899,9.407-12.383,12.926-19.19c3.509-6.788,6.903-13.344,8.801-20.793
			c0.445-1.747,0.575-4.578,1.746-6.038c0.703-0.877,1.847-0.798,2.721-1.469c0.529-0.406,2.347-3.5,2.418-3.449
			C224.949,167.445,223.211,171.867,222.947,172.622z"/>
		<path style="fill:#231815;" d="M83.3,237.544c-3.181-1.047-6.833-2.696-9.255-5.051c-0.755-0.734-1.271-1.716-2.502-1.545
			c-1.45,0.202-2.614,2.124-1.858,3.428c0.63,1.087,2.052,1.051,3.117,1.372c1.857,0.561,3.643,1.377,5.499,1.957
			c2.507,0.783,5.001,1.619,7.518,2.365c7.039,2.086,14.266,2.698,21.544,3.298c1.332,0.11,4.822,0.924,4.32-1.702
			c-0.356-1.866-4.032-0.566-5.412-0.544C98.682,241.247,90.44,240.186,83.3,237.544z"/>
		<path style="fill:#231815;" d="M40.366,207.692c0.709-1.333,8.625-14.668,10.951-12.157c1.291,1.394-4.236,7.322-4.989,8.438
			c-2.146,3.176-3.944,6.579-5.603,10.029c-3.366,6.998-6.538,14.12-9.176,21.426c-1.176,3.257-2.313,6.551-3.15,9.913
			c-0.404,1.623-0.769,3.283-0.881,4.956c-0.07,1.048,0.498,3.018,0.2,3.959c-0.096,0.307-0.915-1.071-0.958-1.161
			c-0.471-0.983-0.607-2.17-0.716-3.241c-0.234-2.303-0.08-4.668,0.176-6.963c0.481-4.32,1.566-8.53,3.038-12.614
			C32.096,222.405,35.925,214.781,40.366,207.692z"/>
		<path style="fill:#231815;" d="M78.431,267.441c-6.141-1.813-13.398-4.393-18.369-8.574c-1.587-1.335-1.073-1.862,0.839-1.423
			c3.63,0.834,6.953,2.956,10.352,4.408c7.333,3.131,15.616,5.736,23.685,4.938c7.812-0.773,14.435-6.65,20.18-11.541
			c3.34-2.843,6.594-5.809,9.734-8.87c1.442-1.406,2.861-2.837,4.254-4.291c0.785-0.819,2.117-2.936,3.277-3.331
			c0.077-0.028-0.995,2.093-1.1,2.254c-0.823,1.258-1.752,2.451-2.662,3.647c-1.715,2.255-3.498,4.456-5.357,6.595
			c-3.783,4.352-7.897,8.407-12.496,11.896c-4.996,3.79-10.307,6.882-16.721,7.099C88.746,270.429,83.413,269.175,78.431,267.441z"
			/>
		<path style="fill:#231815;" d="M45.797,286.233c2.407,0.727,4.154-0.197,6.521-0.163c2.252,0.032,3.97,1.442,5.838,2.502
			c3.02,1.714,5.638,2.83,9.048,2.661c4.509-0.224,9.289,1.407,13.791,1.76c5.309,0.417,10.674,0.359,15.904-0.724
			c8.075-1.672,16.014-5.971,22.149-11.401c4.263-3.773,7.979-8.12,11.825-12.303c3.281-3.568,6.841-6.81,9.756-10.703
			c2.713-3.623,4.573-7.766,7.425-11.299c0.87-1.079,8.189-9.024,9.684-5.727c0.705,1.554-2.4,2.643-3.276,3.243
			c-2.062,1.413-3.759,3.392-5.327,5.316c-2.723,3.34-5.011,7.007-7.707,10.365c-2.498,3.112-5.456,5.752-8.201,8.633
			c-3.589,3.766-6.953,7.749-10.677,11.385c-5.759,5.624-12.626,9.933-20.182,12.718c-5.254,1.936-10.812,2.79-16.398,2.871
			c-5.111,0.073-10.045-0.749-15.116-1.145c-2.739-0.214-5.488-0.239-8.224-0.532c-2.649-0.283-4.777-1.554-7.311-2.194
			C52.251,290.72,45.586,291.276,45.797,286.233z"/>
		<path style="fill:#231815;" d="M17.693,265.58c-7.768,13.404-13.155,28.646-13.8,44.214c-0.316,7.632,0.822,15.077,2.226,22.55
			c0.602,3.206,1.223,6.41,1.693,9.638c0.208,1.426,0.398,2.859,0.499,4.297c0.007,0.094-0.038,2.158-0.041,2.156
			c-0.517-0.44-0.73-2.422-0.961-3.072c-0.724-2.037-1.527-4.045-2.247-6.084c-1.584-4.479-3.007-9.079-3.836-13.765
			c-1.646-9.298-1.59-18.773-0.091-28.083c1.255-7.791,3.669-14.509,6.901-21.665c3.666-8.117,7.857-16.229,13.318-23.301
			c0.55-0.712,2.63-3.946,3.67-3.915c1.129,0.034-0.987,3.262-1.292,3.838C21.466,256.664,19.497,261.092,17.693,265.58z"/>
		<path style="fill:#231815;" d="M10.005,379.995c-3.696-12.171-1.563-27.164,5.323-37.851c0.634-0.983,3.896-5.554,3.701-2.033
			c-0.188,3.392-1.718,7.313-2.834,10.496c-1.156,3.299-2.522,6.562-3.09,10.033c-0.619,3.781-0.446,7.776-0.082,11.576
			c0.654,6.817,4.456,12.75,9.38,17.367c6.183,5.797,13.203,8.221,21.636,7.399c13.225-1.29,25.994-7.063,37.869-12.749
			c14.196-6.798,27.769-16.626,37.218-29.397c4.474-6.047,8.275-12.667,11.926-19.235c2.592-4.663,5.159-10.684,9.89-13.623
			c3.515-2.184,2.062,1.086,0.924,2.838c-1.706,2.628-3.313,5.321-4.918,8.011c-3.832,6.423-7.561,12.909-11.637,19.183
			c-3.14,4.833-6.897,9.008-11.099,12.946c-5.83,5.463-11.962,10.71-18.831,14.825c-12.424,7.443-26.067,14.143-40.114,17.789
			c-6.844,1.777-14.191,2.944-21.241,1.739c-7.332-1.254-14.084-5.845-18.978-11.317C13.02,385.726,10.843,382.976,10.005,379.995z"
			/>
		<path style="fill:#231815;" d="M139.678,289.372c8.824-3.957,19.174-4.517,28.696-3.651c9.751,0.887,20.043,4.645,25.913,12.948
			c5.139,7.268,0.166,17.41-4.206,24.004c-4.835,7.291-12.082,12.879-19.147,17.859c-8.028,5.659-17.173,10.393-26.572,13.303
			c-0.015-0.016,9.522-6.124,10.28-6.612c4.363-2.805,8.639-5.742,12.885-8.72c7.685-5.391,15.385-10.806,20.723-18.711
			c2.193-3.247,4.127-6.896,5.168-10.69c1.561-5.692-1.422-9.544-5.667-13c-6.727-5.477-15.146-6.526-23.552-6.432
			c-6.021,0.067-11.865,1.234-17.828,1.872c-2.285,0.244-4.623,0.419-6.917,0.198C136.577,291.462,137.691,290.318,139.678,289.372z
			"/>
		<path style="fill:#231815;" d="M164.317,238.742c3.062,0.217,6.151-0.721,8.943-1.887c1.072-0.447,4.96-3.062,6.175-2.598
			c-0.057-0.022-0.899,1.271-0.944,1.326c-0.914,1.117-2.072,1.831-3.34,2.494c-1.959,1.024-4.277,2.229-6.484,2.534
			c-1.941,0.269-4.668,0.542-6.515-0.147C159.127,239.338,163.019,239.171,164.317,238.742z"/>
		<path style="fill:#231815;" d="M151.702,251.008c-1.724,0.374-2.487,1.71-0.202,1.652c2.418-0.062,5.04-1.313,7.272-2.136
			c5.655-2.084,12.208-3.737,17.02-7.554c1.973-1.565,0.876-2.156-0.892-1.159c-2.352,1.326-4.237,3.122-6.748,4.22
			C162.84,248.355,157.344,249.767,151.702,251.008z"/>
		<path style="fill:#231815;" d="M93.27,217.421c-2.057-4.995,6.715-8.223,10.072-9.564c2.391-0.956,4.905-1.558,7.481-1.689
			c0.527-0.027,4.538,0.453,4.664,0.305c-0.268,0.315-2.606,0.204-3.01,0.25c-1.488,0.171-2.983,0.363-4.449,0.676
			c-2.928,0.625-5.599,1.849-8.198,3.302c-1.705,0.953-4.237,1.878-5.351,3.563c-0.681,1.03-0.725,2.426,0.138,3.367
			c1.287,1.404,2.599,0.391,4.083,0.625c0.165,0.026-1.22,0.663-1.191,0.655c-0.549,0.152-1.137,0.198-1.7,0.127
			C94.734,218.904,93.828,218.361,93.27,217.421z"/>
		<path style="fill:#231815;" d="M114.127,215.423c1.504-0.375,2.985-1.005,4.259-1.893c0.83-0.578,3.568-2.86,3.079-4.095
			c-0.859-2.173-5.708,0.818-7.411,0.155c0.379,0.148,1.947-0.799,2.375-0.947c1.151-0.399,2.4-0.75,3.628-0.76
			c3.235-0.026,2.481,2.569,1.12,4.468c-1.172,1.636-2.813,2.54-4.632,3.295c-1.185,0.492-5.216,2.108-6.392,0.671
			C110.519,216.763,113.554,215.669,114.127,215.423z"/>
		<path style="fill:#231815;" d="M72.854,194.098c-3.942,0.162-9.207-8.491-4-10.322C73.229,182.238,78.66,194.495,72.854,194.098z"
			/>
		<path style="fill:#231815;" d="M99.905,174.327c-3.282-1.415-7.245-10.099-1.575-8.685
			C102.071,166.575,103.943,174.81,99.905,174.327z"/>
		<path style="fill:#231815;" d="M105.44,186.006c-1.339,0.416-3.001,0.597-4.293-0.087c-0.305-0.162-1.474-0.961-1.432-1.411
			c0.039-0.411,1.51-1.035,1.839-1.106c0.947-0.203,3.299,0.415,3.43,1.691C105.059,185.821,103.252,186.496,105.44,186.006z"/>
		<path style="fill:#231815;" d="M113.727,178.989c-0.939-0.24-2.79-1.011-2.786-1.898c0.002-0.598,0.697-1.405,1.155-1.712
			C114.549,173.736,114.237,177.431,113.727,178.989z"/>
		<path style="fill:#231815;" d="M54.11,356.904c-0.351,0.211-3.842,2.387-3.36,3.086c0.532,0.771,4.318-1.758,4.927-2.082
			c3.11-1.655,6.259-3.223,9.515-4.573c9.032-3.743,18.634-5.667,27.849-8.863c4.414-1.531,8.792-3.351,12.797-5.778
			c0.733-0.444,3.817-2.099,3.814-3.127c-0.004-1.035-1.745,0.188-2.297,0.499c-3.712,2.094-7.25,4.463-11.175,6.162
			c-3.533,1.53-7.244,2.611-10.933,3.69C74.786,348.978,63.617,351.366,54.11,356.904z"/>
		<path style="fill:#231815;" d="M108.04,331.506c-0.377,1.195,0.09,4.859,2.05,3.401c1.041-0.775,1.633-3.838,2.287-4.983
			c2.026-3.545,4.679-6.785,7.618-9.61c3.482-3.346,7.312-6.326,10.818-9.653c2.853-2.707,6.62-6.036,8.026-9.815
			c0.613-1.648,0.167-3.437-1.695-2.075c-1.244,0.91-2.184,2.889-2.949,4.179c-2.127,3.585-4.574,6.272-7.656,9.049
			c-3.362,3.029-6.786,5.988-10.146,9.019C113.202,323.896,109.336,327.245,108.04,331.506z"/>
		<path style="fill:#231815;" d="M133.554,313.306c-0.301,0.431-0.689,1.389-0.035,1.707c0.683,0.333,1.581-1.049,1.885-1.455
			c1.15-1.531,1.975-3.284,3.113-4.827c1.432-1.942,3.146-3.683,4.859-5.376c0.765-0.757,3.543-2.592,3.643-3.733
			c0.214-2.448-4.385,3.099-4.956,3.704C139.078,306.485,136.108,309.785,133.554,313.306z"/>
		<path style="fill:#231815;" d="M135.176,316.032c-1.607,1.653-0.279,2.329,1.32,0.989c1.488-1.246,2.707-2.822,4.062-4.204
			c1.92-1.96,4.065-3.658,6.102-5.491c1.665-1.498,4.445-3.608,5.223-5.806c0.757-2.138-0.839-1.117-1.634-0.118
			c-1.388,1.745-2.331,3.505-4.005,5.032C142.645,309.717,138.628,312.6,135.176,316.032z"/>
		<path style="fill:#231815;" d="M138.878,317.24c-1.488,0.526-0.772,1.573,0.459,1.507c1.522-0.082,3.113-1.731,4.248-2.595
			c1.661-1.265,3.424-2.38,5.174-3.515c0.877-0.569,3.702-1.781,4.142-2.709c0.447-0.943,0.164-1.262-0.93-1.024
			c-1.255,0.273-2.349,1.956-3.4,2.72C145.579,313.801,142.357,315.936,138.878,317.24z"/>
		<path style="fill:#231815;" d="M89.314,335.86c-6.076-1.909-12.4-3.037-18.655-4.179c-3.168-0.578-6.342-1.129-9.505-1.738
			c-1.174-0.226-2.35-0.451-3.516-0.715c-0.443-0.1-2.596-0.922-2.707-0.852c0.826-0.522,3.169-0.48,4.116-0.56
			c3.182-0.271,6.315,0.251,9.453,0.714c4.108,0.607,8.576,0.77,12.575,1.927c4.32,1.25,8.894,2.244,13.037,3.978
			c1.358,0.568,4.582,2.285,1.204,1.964C93.314,336.208,91.324,335.971,89.314,335.86z"/>
		<path style="fill:#231815;" d="M74.675,339.173c2.613,0.468,2.327-1.103,0.016-1.652c-2.275-0.541-4.68-0.552-7-0.74
			c-3.396-0.276-6.753-0.851-10.127-1.313c-2.555-0.349-5.52-1.083-8.107-0.828c-2.901,0.286-0.418,1.384,1.038,1.5
			c2.166,0.173,4.308-0.073,6.478,0.198C62.912,337.078,68.787,338.105,74.675,339.173z"/>
		<path style="fill:#231815;" d="M68.727,343.6c-1.778-0.238-21.204-1.085-21.155-1.717c0.084-1.083,14.31-0.512,16.218-0.287
			c1.447,0.171,2.891,0.334,4.341,0.488c0.978,0.104,4.014,0.051,4.763,0.886c0.549,0.611,0.414,0.14-0.211,0.472
			C71.858,343.88,69.728,343.524,68.727,343.6z"/>
		<path style="fill:#231815;" d="M51.077,348.006c3.623-0.384,7.251-0.856,10.902-0.845c0.766,0.002,6.075-0.152,6.424,1.063
			c-0.152-0.53-20.856,1.599-20.833,1.24C47.599,349.014,50.58,348.194,51.077,348.006z"/>
		<path style="fill:#231815;" d="M121.261,360.218c-2.567,0.281-1.543,1.682,0.446,1.586c2.565-0.125,5.087-1.386,7.438-2.319
			c2.666-1.059,5.363-2.034,7.987-3.195c1.615-0.714,5.503-1.847,6.414-3.486c0.991-1.784-1.484-0.622-2.2-0.209
			c-2.008,1.159-3.736,2.479-5.892,3.392C130.885,357.925,126.237,359.708,121.261,360.218z"/>
		<path style="fill:#231815;" d="M63.773,240.858c0.471-0.132,2.042-0.839,1.525-1.554c-0.445-0.615-2.175,0.1-2.807,0.143
			c-3.03,0.203-3.106-2.832-2.523-5.181c0.812-3.269,3.117-6.078,5.281-8.566c0.749-0.861,4.389-3.66,4.087-5.014
			c-0.317-1.424-2.556,1.169-2.871,1.549c-1.757,2.12-3.493,4.49-5.023,6.786C59.056,232.6,55.909,242.644,63.773,240.858z"/>
		<path style="fill:#231815;" d="M56.062,261.22c-2.675,3.927-2.536,9.403,1.844,12.039c4.563,2.746,9.964,0.177,12.735-3.88
			c3.447-5.047-2.897-7.32-6.523-9.3C61.103,258.431,55.985,255.337,56.062,261.22z"/>
		<path style="fill:#231815;" d="M81.448,266.928c2.063,0.529,4.21,0.611,6.281,1.099c0.84,0.198,3.101,0.546,3.769,1.107
			c2.078,1.748-1.719,5.423-3.218,6.509C83.041,279.436,77.575,271.254,81.448,266.928z"/>
		<path style="fill:#231815;" d="M14.823,350.255c1.451-1.856,5.649-1.654,7.685-1.556c2.452,0.118,6.825,0.551,7.891,3.278
			c1.421,3.638-3.443,5.949-6.08,6.782c-3.815,1.205-9.169,1.627-11.524,5.343c-1.698-1.893-0.636-6.428-0.235-8.602
			C12.635,355.09,14.21,349.17,14.823,350.255z"/>
		<path style="fill:#231815;" d="M12.126,374.142c1.105-5.013,9.352-7.07,13.627-7.895c2.165-0.417,5.283-0.24,5.145,2.66
			c-0.151,3.171-3.799,5.507-5.819,7.501c-2.608,2.573-3.81,4.939-5.021,8.279c-0.836,2.307-2.125,2.84-4.155,1.239
			C13.636,384.137,8.916,376.805,12.126,374.142z"/>
		<path style="fill:#231815;" d="M149.668,289.768c4.883,0.431,9.714-0.956,14.599-0.713c-0.74,1.921-2.659,3.656-4.086,5.052
			c-1.786,1.746-4.033,3.938-6.479,4.709c-2.641,0.833-4.163-1.566-4.65-3.903c-0.296-1.421-0.116-2.758,0.273-4.141
			C149.434,290.38,150.027,290.079,149.668,289.768z"/>
		<path style="fill:#231815;" d="M181.26,291.694c-4.278,0.249-6.931,4.726-9.551,7.523c-2.162,2.309-5.423,4.038-6.546-0.196
			c-0.938-3.534,2.253-7.626,4.998-9.54C174.317,286.585,177.337,290.843,181.26,291.694z"/>
		<path style="fill:#231815;" d="M4.018,308.691c1.013-4.042,4.881-5.241,8.58-5.69c-0.004,2.837-2.07,5.099-2.982,7.659
			c-0.937,2.63-0.227,5.188-0.426,7.876c-0.158,2.126-2.962,7.542-5.837,5.302C0.135,321.331,0.535,310.852,4.018,308.691z"/>
		<path style="fill:#231815;" d="M16.734,280.371c-0.543,2.045-1.361,5.17,0.297,6.933c2.293,2.439,5.246-0.263,6.149-2.641
			c0.945-2.486,0.583-5.261,1.204-7.818c0.585-2.412,1.672-4.729,2.522-7.055c0.412-1.129,1.794-3.685,1.091-4.864
			c-0.7-1.175-2.556-0.807-3.558-0.428c-3.472,1.311-6.369,4.915-8.236,7.979C14.911,274.597,12.355,280.028,16.734,280.371z"/>
		<path style="fill:#231815;" d="M37.54,226.042c3.36,4.353,2.131,12.015-3.735,14.421C23.194,244.815,32.462,229.193,37.54,226.042
			z"/>
		<path style="fill:#231815;" d="M133.117,296.516c2.345-5.559,2.598-11.378,1.626-17.268c-0.429-2.602-1.006-5.178-1.374-7.791
			c-0.067-0.478-0.263-5.291-0.129-5.209c0.461,0.282,1.14,1.923,1.437,2.412c1.208,1.992,1.962,4.153,2.536,6.402
			c1.071,4.197,2.649,9.658,1.856,14.04c-0.704,3.896-2.169,8.482-4.182,11.866c-0.497,0.836-2.19,3.592-2.638,1.767
			c-0.207-0.843,0.479-2.488,0.596-3.341C132.975,298.44,133.078,297.477,133.117,296.516z"/>
		<path style="fill:#231815;" d="M141.427,267.836c4.742-0.301,9.702-1.74,13.082-5.243c1.642-1.702,2.768-3.817,3.688-5.975
			c0.171-0.401,1.953-5.017,2.037-4.968c0.239,0.139-0.084,3.193-0.11,3.447c-0.167,1.602-0.589,3.122-1.277,4.579
			c-1.541,3.263-4.037,5.916-7.132,7.753c-2.499,1.483-5.408,1.892-8.255,2.283c-1.649,0.227-6.638,1.15-7.906-0.326
			C135.622,269.463,140.693,268.061,141.427,267.836z"/>
		<path style="fill:#231815;" d="M378.711,190.902c1.099-0.439,5.646-1.915,4.629-3.711c-1.229-2.171-6.37-0.117-7.78,0.529
			c-5.268,2.413-9.59,6.61-13.439,10.847c-4.103,4.517-8.253,9.463-11.061,14.914c-2.879,5.59-1.727,10.322,1.369,15.579
			c2.966,5.037,6.848,9.551,10.833,13.803c1.615,1.723,3.308,3.932,5.512,4.914c1.705,0.759,2.547,0.148,1.858-1.673
			c-1.8-4.759-7.624-8.278-11.04-11.756c-3.527-3.592-7.975-9.172-8.006-14.484c-0.036-6.24,6.222-12.798,10.315-16.912
			C366.708,198.126,372.345,193.49,378.711,190.902z"/>
		<path style="fill:#231815;" d="M276.845,262.988c-3.202-6.037,6.405-9.07,10.602-10.165c8.022-2.093,17.053-2.017,25.272-1.386
			c5.313,0.408,18.911,2.878,13.034,11.116c-2.063,2.892-5.837,4.202-9.131,5.056c-0.687,0.178-6.914,1.674-7.059,1.248
			c0.049,0.143,7.599-2.656,8.09-2.865c2.639-1.123,6.163-2.754,7.176-5.712c2.577-7.523-15.769-6.869-19.658-6.778
			c-7.251,0.169-15.169,0.233-21.972,3.057c-1.673,0.694-4.943,2.029-4.799,4.289c0.125,1.963,2.863,3.286,4.37,3.97
			c1.855,0.842,3.888,1.381,5.905,1.641c0.411,0.053,4.025,0.366,4.05,0.307c-0.958,1.754-7.051,0.564-8.403,0.27
			C281.639,266.453,278.488,265.343,276.845,262.988z"/>
		<path style="fill:#231815;" d="M393.713,194.787c2.076-1.7,4.775-2.509,5.568-5.325c0.898-3.184,1.341-6.693,1.979-9.941
			c1.216-6.191,1.349-11.924-0.931-17.896c-2.31-6.048-5.179-11.546-5.235-18.185c-0.055-6.499,1.735-12.91,4.685-18.67
			c1.267-2.474,2.745-4.784,4.455-6.973c0.531-0.68,3.874-4.308,2.851-5.389c-1.779-1.882-7.289,9.319-7.934,10.552
			c-5.599,10.707-7.785,21.796-3.838,33.387c1.205,3.539,2.784,7.015,3.256,10.756c0.341,2.699-0.042,5.19-0.489,7.84
			C396.958,181.587,393.593,188.009,393.713,194.787z"/>
		<path style="fill:#231815;" d="M420.566,125.363c6.25,12.069,9.046,25.469,7.197,39.005c-0.896,6.56-2.931,12.937-5.954,18.828
			c-1.088,2.121-2.313,4.171-3.692,6.116c-0.719,1.015-2.542,4.399-3.749,4.493c0.852-0.066,2.92-6.149,3.35-7.178
			c1.455-3.484,2.856-6.969,4.085-10.541c2.464-7.161,3.661-14.683,3.213-22.264c-0.297-5.031-1.237-10.347-2.5-15.241
			c-1.786-6.925-5.436-13.209-9.195-19.225c-0.662-1.059-3.265-3.865-3.069-5.189c0.174-1.171,2.066,1.289,2.508,1.75
			C415.602,118.884,418.163,122.033,420.566,125.363z"/>
		<path style="fill:#231815;" d="M376.756,175.706c-3.179-10.812-10.866-19.513-11.739-31.097
			c-0.395-5.247,0.393-10.505,1.954-15.512c0.677-2.173,1.478-4.308,2.4-6.389c0.265-0.598,2.299-3.634,2.194-4.07
			c0.136,0.567-0.457,1.773-0.578,2.346c-0.294,1.391-0.539,2.794-0.824,4.187c-0.611,2.986-1.263,5.963-1.774,8.968
			c-1.219,7.163-0.675,14.245,2.389,20.891c2.277,4.938,4.779,9.767,6.915,14.778c1.378,3.233,2.607,6.557,3.021,10.067
			c0.117,0.993,0.583,7.711-1.062,7.879c-0.129,0.013-0.743-5.898-0.871-6.446C378.327,179.378,377.637,177.484,376.756,175.706z"/>
		<path style="fill:#231815;" d="M381.584,122.29c2.496,2.391,5.16,4.608,7.475,7.184c1.014,1.129,5.479,5.956,4.524,7.826
			c0.003-0.006-5.282-5.489-5.684-5.913c-1.438-1.52-3.166-2.697-4.56-4.229c-0.874-0.96-1.76-1.863-2.723-2.743
			c-0.777-0.71-2.792-2.078-2.911-3.209C377.544,119.677,380.76,121.924,381.584,122.29z"/>
		<path style="fill:#231815;" d="M421.757,203.23c3.013,6.442,6.869,12.524,10.935,18.346c2.026,2.9,4.168,5.716,6.292,8.544
			c0.793,1.056,1.595,2.105,2.368,3.176c0.238,0.33,1.428,2.609,1.548,2.653c-5.652-2.067-9.781-8.247-13.199-12.798
			c-3.007-4.004-5.708-7.806-7.907-12.286c-1.442-2.936-3.1-5.769-4.394-8.777c-0.384-0.892-2.088-4.065-1.453-5.083
			c0.542-0.87,1.121,0.35,1.553,0.914C418.882,199.722,420.287,201.499,421.757,203.23z"/>
		<path style="fill:#231815;" d="M444.27,270.472c5.353,8.986,11.803,17.589,15.007,27.665c1.529,4.81,2.192,10.143,0.611,15.03
			c-0.635,1.963-1.637,3.795-2.933,5.399c-0.109,0.135-4.124,3.782-4.159,3.59c-0.064-0.355,1.968-2.505,2.214-2.914
			c0.703-1.165,1.32-2.372,1.822-3.639c1.158-2.919,1.657-6.101,1.474-9.236c-0.417-7.116-3.919-13.517-7.53-19.478
			c-2.325-3.838-4.318-7.843-6.718-11.649c-1.828-2.9-3.693-5.777-5.251-8.835c-0.301-0.591-2.722-4.901-1.962-5.576
			C436.775,260.89,443.424,269.453,444.27,270.472z"/>
		<path style="fill:#231815;" d="M385.555,259.555c6.003,10.712,12.271,21.563,14.993,33.662c1.356,6.028,1.763,12.289,0.551,18.378
			c-0.5,2.512-1.262,4.97-2.32,7.304c-0.46,1.015-1.971,4.998-3.174,5.196c0.974-0.16,2.086-6.673,2.301-7.687
			c0.758-3.581,1.172-7.231,1.221-10.891c0.109-8.04-2.122-15.997-5.476-23.254c-2.048-4.431-3.937-8.961-6.209-13.285
			c-3.147-5.99-6.98-11.641-9.806-17.799c-0.185-0.403-1.417-2.858-1.049-3.116c0.577-0.405,2.278,2.525,2.566,2.924
			C381.236,253.88,383.408,256.709,385.555,259.555z"/>
		<path style="fill:#231815;" d="M456.935,251.031c-3.71-3.785-8.228-6.672-12.724-9.425c-1.262-0.773-10.146-5.497-8.338-7.042
			c1.025-0.876,4.294,0.233,5.295,0.553c1.892,0.605,3.493,1.611,5.145,2.688c3.931,2.561,7.762,5.285,11.487,8.138
			c14.003,10.725,27.109,23.388,36.682,38.288c5.395,8.398,9.662,17.878,11.363,27.755c0.857,4.978,1.063,10.055,0.492,15.079
			c-0.501,4.404-1.143,9.852-3.951,13.457c-0.654,0.84-2.798,3.332-3.69,1.713c-0.552-1.003,1.207-3.959,1.554-4.91
			c1.689-4.618,2.781-9.412,2.997-14.333c0.41-9.349-1.401-18.693-5.184-27.245c-4.065-9.19-10.58-17.441-17.128-24.979
			c-3.325-3.828-6.726-7.425-10.784-10.487C465.971,257.129,460.615,254.753,456.935,251.031z"/>
		<path style="fill:#231815;" d="M372.282,275.045c-7.931,7.88-17.73,15.838-28.902,18.295c-5.435,1.196-11.212,0.779-15.785-2.642
			c-1.927-1.442-3.534-3.334-4.723-5.424c-0.722-1.269-1.306-2.629-1.743-4.021c-0.069-0.221-0.268-1.441-0.366-1.527
			c0.753,0.659,1.204,2.293,1.761,3.141c0.953,1.455,2.05,2.806,3.281,4.029c2.451,2.436,5.488,4.15,8.913,4.753
			c7.185,1.264,14.545-2.154,20.419-5.981c4.981-3.245,9.764-6.498,14.037-10.673c2.284-2.231,4.467-4.57,6.553-6.986
			c0.467-0.541,3.117-4.396,3.857-4.25c0.32,0.063-2.991,5.447-3.307,5.91C375.019,271.517,373.663,273.288,372.282,275.045z"/>
		<path style="fill:#231815;" d="M302.443,288.511c3.599,2.632,4.849,5.842,7.283,9.378c2.346,3.407,5.115,6.578,8.1,9.435
			c6.612,6.329,15.121,11.714,24.597,10.656c15.716-1.754,28.557-12.613,40.793-21.783c2.526-1.893,5.105-3.516,7.808-5.125
			c1.069-0.636,6.564-4.444,2.205-4.184c-3.072,0.183-5.982,3.365-8.246,5.176c-2.491,1.993-4.948,4.026-7.482,5.964
			c-7.185,5.497-15.275,9.838-23.828,12.8c-7.383,2.557-15.104,5.753-22.967,3.553c-4.748-1.329-8.814-5.114-12.061-8.665
			c-2.86-3.129-5.667-6.126-6.951-10.223c-1.257-4.013-1.619-10.627-6.87-11.63c-0.893-0.171-3.792,0.028-4.251,1.007
			C300.236,285.585,302.143,287.453,302.443,288.511z"/>
		<path style="fill:#231815;" d="M296.751,284.602c-3.677-0.934-7.247-2.707-9.658-5.713c-1.082-1.349-1.951-2.931-2.246-4.657
			c-0.147-0.864-0.317-4.061,0.807-4.476c-0.691,0.255,1.927,6.193,2.293,6.736c1.403,2.081,3.55,3.212,5.612,4.505
			c2.071,1.297,4.471,1.091,6.594,2.049c1.158,0.523,1.042,0.648-0.118,1.059C299.028,284.463,297.812,284.527,296.751,284.602z"/>
		<path style="fill:#231815;" d="M319.12,264.055c3.006-3.189,8.563-3.14,9.793,1.706c0.744,2.928-0.841,6.176-2.428,8.547
			c-0.198,0.296-5.132,6.073-5.484,5.453c-0.249-0.44,2.369-4.26,2.716-4.828c1.368-2.238,3.406-4.988,3.073-7.782
			c-0.211-1.773-1.911-3.514-3.773-3.115c-1.321,0.283-2.42,1.598-3.159,2.641c-0.497,0.701-1.088,2.62-1.815,3.077
			c-0.631,0.396-0.045-3.042-0.01-3.169C318.275,265.704,318.641,264.834,319.12,264.055z"/>
		<path style="fill:#231815;" d="M421.256,277.339c5.074,5.817,10.494,11.631,13.686,18.754c1.531,3.417,2.54,7.111,2.427,10.876
			c-0.058,1.938-0.457,6.913-2.297,8.189c0.656-0.455,0.542-4.189,0.563-4.992c0.061-2.387-0.098-4.767-0.553-7.115
			c-0.944-4.876-3.607-9.383-6.647-13.24c-2.425-3.076-4.616-6.279-7.229-9.21c-1.628-1.826-3.305-3.609-4.857-5.501
			c-0.454-0.553-2.473-2.588-2.211-3.383C414.11,271.798,420.57,276.773,421.256,277.339z"/>
		<path style="fill:#231815;" d="M390.717,313.263c-4.508,2.625-8.69,4.068-13.905,4.372c-4.706,0.275-9.404-0.035-14.098,0.477
			c-5.992,0.653-11.923,1.891-17.776,3.312c-4.676,1.135-9.591,2.221-13.969,4.277c-8.084,3.795-15.086,11.594-13.418,21.018
			c1.892,10.691,13.62,14.871,22.799,17.364c4.486,1.219,9.158,2.453,13.775,3.07c0.72,0.096,3.616,0.711,3.985-0.305
			c0.454-1.254-2.873-2.59-3.604-2.875c-3.567-1.389-7.49-1.619-11.219-2.347c-4.746-0.927-9.551-2.201-13.866-4.43
			c-4.797-2.478-8.804-6.33-9.51-11.91c-0.629-4.975,1.664-9.476,5.022-12.999c6.74-7.069,16.458-8.912,25.746-10.511
			c5.361-0.923,10.753-1.496,16.181-1.817c2.35-0.139,4.493,0.436,6.804,0.795c3.181,0.494,6.412,0.675,9.629,0.653
			c4.315-0.03,11.67-0.698,13.658-5.419c0.37-0.879,1.046-3.345-0.146-3.865c-0.588-0.256-2.221,0.645-2.836,0.774
			C392.908,313.12,391.801,313.228,390.717,313.263z"/>
		<path style="fill:#231815;" d="M495.052,333.462c-0.786,3.395-0.791,6.82,0.881,9.953c1.581,2.961,4.14,5.288,6.405,7.714
			c5.383,5.766,7.953,12.669,4.386,20.255c-2.467,5.248-7.383,9.376-12.024,12.686c-6.377,4.549-13.734,8.05-21.647,8.466
			c-29.391,1.544-50.982-20.441-74.379-34.525c-6.217-3.742-11.655-8.525-17.785-12.359c-5.483-3.429-13.287-6.164-19.799-4.281
			c-3.445,0.996,1.47,2.223,2.844,2.523c3.303,0.72,6.625,1.275,9.863,2.275c7.492,2.313,13.415,7.388,19.953,11.51
			c11.865,7.48,23.15,15.791,34.913,23.415c12.519,8.114,26.153,14.367,41.295,14.645c13.851,0.254,29.034-6.242,37.226-17.767
			c4.179-5.88,6.064-13.357,3.93-20.384c-2.001-6.591-7.186-11.963-11.05-17.526C498.51,337.825,497.108,335.292,495.052,333.462z"
			/>
		<path style="fill:#231815;" d="M371.928,328.454c5.692,0.336,11.469,1.046,16.808,3.156c2.346,0.927,4.63,2.14,6.526,3.823
			c0.699,0.62,1.393,1.313,1.926,2.086c0.186,0.27,0.768,1.779,0.834,1.804c-0.95-0.362-2.071-1.637-2.987-2.187
			c-1.368-0.821-2.773-1.609-4.206-2.311c-3.014-1.475-6.188-2.368-9.499-2.841c-2.525-0.361-4.961-1.023-7.519-1.207
			c-0.468-0.034-8.174-0.188-8.015-0.887C365.983,329.063,371.035,328.595,371.928,328.454z"/>
		<path style="fill:#231815;" d="M429.488,351.216c5.326,1.155,10.578,2.666,15.807,4.191c2.514,0.733,5.026,1.473,7.529,2.244
			c0.646,0.199,4.42,1.91,4.788,1.75c-1.755,0.762-5.702-0.145-7.386-0.509c-3.823-0.826-7.56-2.029-11.39-2.84
			c-2.425-0.514-4.7-1.471-7.111-2.06c-0.51-0.125-8.926-1.747-8.662-2.383C423.394,350.807,428.558,351.224,429.488,351.216z"/>
		<path style="fill:#231815;" d="M368.148,361.411c7.52,0.394,15.059,0.244,22.578,0.693c3.838,0.229,7.68,0.584,11.461,1.296
			c1.242,0.234,2.482,0.497,3.699,0.837c0.515,0.144,2.712,1.195,2.876,1.156c-1.727,0.415-4.092,0.297-5.853,0.347
			c-4.09,0.116-8.172-0.406-12.258-0.532c-4.264-0.131-8.591,0.417-12.825-0.068c-2.764-0.316-5.535-0.408-8.315-0.473
			c-2.791-0.066-6.426,0.24-9.066-0.897c-1.17-0.504-1.212-0.628-0.121-1.095C362.472,361.754,365.802,361.856,368.148,361.411z"/>
		<path style="fill:#231815;" d="M429.786,342.259c4.355-0.575,8.746-0.217,13.116-0.478c4.165-0.249,8.158-1.931,12.003-3.43
			c3.855-1.503,7.731-3.065,11.83-3.763c0.873-0.149,7.321-1.092,7.667,0.108c-0.516-1.789-25.872,8.443-28.134,9.04
			c-3.999,1.055-8.225,0.236-12.314,0.395c-2.281,0.089-5.171,0.117-7.237,1.244c-0.844,0.461-1.391,0.969-1.62,1.92
			c-0.071,0.294,0.105,2.387-0.1,2.372c-1.837-0.133-0.526-4.346-0.013-4.938C426.162,343.368,428.108,342.73,429.786,342.259z"/>
		<path style="fill:#231815;" d="M473.006,348.966c-2.909,2.026-5.166,4.846-8.308,6.567c-1.154,0.632-6.816,2.996-8.056,1.219
			c0.085,0.121,6.059-2.536,6.334-2.682c1.949-1.027,3.26-2.687,4.949-4.009c1.777-1.391,3.782-3.466,5.927-4.187
			C476.876,344.859,473.734,347.858,473.006,348.966z"/>
		<path style="fill:#231815;" d="M382.98,227.779c1.178,2.291,3.93,1.431,5.466,2.917c0.271,0.262-1.962,0.642-2.031,0.64
			c-1.149-0.039-2.613-0.504-3.488-1.221c-0.46-0.377-2.043-2.241-1.533-2.948C381.784,226.626,382.497,227.571,382.98,227.779z"/>
		<path style="fill:#231815;" d="M393.576,226.53c1.37,1.115,3.098,1.689,4.782,2.126c1.086,0.282,2.961,0.342,3.904,1.051
			c0.059,0.044-2.397,0.599-2.782,0.572c-1.427-0.097-3.249-0.425-4.542-1.056c-0.928-0.453-2.795-1.485-3.194-2.426
			C391.076,225.226,392.553,226.314,393.576,226.53z"/>
		<path style="fill:#231815;" d="M407.538,225.158c0.542,0.815,3.555,1.642,3.623,2.5c0.075,0.958-2.297,0.158-2.609,0.046
			C407.19,227.218,404.657,224.475,407.538,225.158z"/>
		<path style="fill:#231815;" d="M335.724,213.612c-5.785-3.028-12.006-5.217-18.083-7.573c-0.819-0.318-12.316-4.519-12.086-5.274
			c0.203-0.667,17.713,5.829,19.356,6.413c2.789,0.993,5.411,2.234,8.09,3.485c2.053,0.958,4.134,1.887,6.058,3.091
			c0.064,0.04,3.405,2.587,3.042,2.718c-0.535,0.193-3.194-1.606-3.7-1.823C337.523,214.271,336.628,213.928,335.724,213.612z"/>
		<path style="fill:#231815;" d="M332.452,221.111c-6.695-1.863-13.625-2.823-20.517-3.609c-3.181-0.362-6.367-0.678-9.547-1.049
			c-0.982-0.115-1.965-0.229-2.945-0.366c-0.719-0.1-2.126-0.685-2.724-0.523c2.463-0.666,5.986-0.212,8.469-0.069
			c4.864,0.281,9.721,0.868,14.56,1.426c3.019,0.348,5.914,1.052,8.869,1.743c2.508,0.587,5.018,1.16,7.472,1.95
			c0.169,0.054,4.205,1.647,4.042,1.786c-0.49,0.42-3.422-0.586-4.019-0.695C334.897,221.486,333.677,221.285,332.452,221.111z"/>
		<path style="fill:#231815;" d="M336.465,229.773c-5.95,0.43-11.892,1.207-17.742,2.383c-2.757,0.554-5.489,1.212-8.205,1.939
			c-0.967,0.258-4.214,0.594-4.878,1.204c2.193-2.015,6.568-3.009,9.293-3.708c3.94-1.011,8.003-1.927,12.037-2.493
			c2.17-0.305,16.075-1.655,16.137-0.794C343.135,228.69,337.244,229.603,336.465,229.773z"/>
		<path style="fill:#231815;" d="M426.516,322.777c-3.911,2.465-7.831,4.917-11.832,7.235c-4.124,2.39-8.754,4.183-12.209,7.539
			c-2.942,2.859-6.133,6.838-6.723,11.024c-0.236,1.671,0.09,3.282,1.254,4.564c0.339,0.373,3.073,2.551,3.375,2.303
			c-0.357,0.293-2.868-0.854-3.222-1.043c-1.328-0.709-2.351-1.815-2.835-3.252c-1.14-3.383,0.616-7.076,2.411-9.888
			c1.697-2.659,3.837-5.113,6.276-7.115c2.413-1.98,5.375-3.301,8.046-4.905c3.66-2.197,7.495-4.044,11.118-6.324
			c2.773-1.745,5.499-3.563,8.255-5.334c0.259-0.166,4.44-2.711,4.481-2.442c0.142,0.956-3.575,3.533-4.198,4.077
			C429.33,320.424,427.921,321.598,426.516,322.777z"/>
		<path style="fill:#231815;" d="M410.259,356.166c3.394-0.438,5.898-2.909,7.624-5.701c0.881-1.424,1.559-2.952,2.264-4.467
			c0.278-0.597,1.058-3.014,1.742-3.271c-0.109,0.041,0.072,2.632,0.04,2.939c-0.167,1.589-0.785,3.07-1.473,4.498
			c-1.149,2.386-2.659,5.165-5.048,6.478c-2.175,1.195-4.933,2.232-7.436,1.751c-1.267-0.243-2.164-0.518-0.83-1.177
			C408.108,356.74,409.272,356.741,410.259,356.166z"/>
		<path style="fill:#231815;" d="M448.011,327.02c-5.5,4.246-10.114,9.64-16.248,13.043c-2.405,1.334-5.221,2.503-8.023,2.449
			c-0.301-0.006-1.089,0.051-1.342-0.193c-0.484-0.465,0.154-2.612,0.507-2.51c0.313,0.091-0.302,1.264-0.207,1.439
			c0.375,0.691,1.544-0.005,2.015-0.184c1.707-0.649,3.41-1.366,5.025-2.22c3.682-1.946,6.478-4.821,9.542-7.556
			c1.335-1.191,2.834-2.205,4.208-3.353c0.312-0.26,8.958-7.061,9.195-5.886C452.815,322.712,448.614,326.308,448.011,327.02z"/>
		<path style="fill:#231815;" d="M372.241,224.851c-1.77-1.878-4.004-11.68,0.577-11.309c2.855,0.231,3.422,4.632,3.417,6.834
			c-0.003,1.214-0.207,3.146-1.233,3.967C374.204,224.982,373.183,224.681,372.241,224.851z"/>
		<path style="fill:#231815;" d="M281.642,265.662c2.274,2.63,4.822,4.414,8.015,5.764c1.171,0.495,6.692,2.281,6.63,4.132
			c-0.001,0.036-6.012-1.647-6.329-1.762c-2.437-0.886-5.19-1.646-7.031-3.544c-1.444-1.49-3.791-3.258-4.613-5.178
			c-0.5-1.168-0.502-1.334,0.773-0.83C279.973,264.592,280.806,265.198,281.642,265.662z"/>
		<path style="fill:#231815;" d="M322.528,266.426c-2.725,2.509-5.58,4.901-8.926,6.543c-1.635,0.802-3.364,1.432-5.176,1.679
			c-0.66,0.09-3.297,0.459-3.813-0.24c0.087,0.118,5.667-2.27,5.958-2.387c2.478-0.999,4.252-2.604,6.395-4.082
			c2.074-1.43,3.77-3.138,5.732-4.716c0.672-0.54,1.315-1.216,1.642-0.434C324.553,263.297,322.826,265.866,322.528,266.426z"/>
		<path style="fill:#231815;" d="M297.265,276.789c2.841,1.826,7.072,0.515,9.882-0.658c1.591-0.664,3.121-1.475,4.586-2.384
			c0.619-0.384,2.356-2.021,3.07-2.067c-0.083,0.006-1.138,2.45-1.366,2.74c-1.038,1.318-2.518,2.183-3.975,2.96
			c-2.392,1.276-5.341,2.745-8.112,2.598c-2.455-0.131-5.322-0.658-6.909-2.72c-0.554-0.72-1.435-2.345-0.332-2.339
			c0.31,0.002,1.274,1.163,1.666,1.369C296.243,276.534,296.738,276.715,297.265,276.789z"/>
		<path style="fill:#231815;" d="M290.173,265.117c-2.513-7.912,10.799-8.636,15.497-7.563c2.72,0.621,8.214,2.36,7.606,6.088
			c-0.26,1.597-1.778,2.648-3.12,3.308c-0.683,0.336-3.267,0.662-3.521,0.98c1.469-1.832,7.291-3.551,3.487-6.378
			c-2.769-2.058-6.655-2.335-9.931-1.868c-2.382,0.339-6.336,0.078-7.579,2.543c-1.958,3.885,5.257,4.646,5.059,5.122
			c-0.321,0.775-3.95,0.196-4.565,0.019C291.872,267.011,290.751,266.309,290.173,265.117z"/>
		<path style="fill:#231815;" d="M353.655,221.627c1.311,0.797,4.544,1.018,5.079,2.745c0.531,1.715-1.826,0.707-2.795,0.483
			c-1.213-0.281-2.172-0.353-3.181-1.218C351.234,222.329,352.299,222.17,353.655,221.627z"/>
		<path style="fill:#231815;" d="M368.774,151.259c-0.536-3.598,3.841-4.458,4.585-0.758c0.693-0.353,1.383-1.003,2.142-1.206
			c0.914-0.245,1.04,0.238,1.688,0.364c1.225,0.238,2.054-0.483,1.931-1.9c-0.151-1.736-2.685-5.398,0.305-6.366
			c1.328-0.43,0.98,0.442,1.758,1.329c0.954,1.087,3.244,1.572,4.642,1.079c0.639-0.225,0.988-1.055,1.694-1.132
			c0.661-0.072,1.131,0.635,1.761,0.675c1.84,0.117,3.278-2.337,3.994-3.714c2.04-3.926-1.693-7.627-4.189-10.37
			c-2.917-3.206-6.336-5.938-10.09-8.103c-1.449-0.835-3.264-2.235-4.814-2.736c-1.706-0.551-3.313,1.217-4.286,2.39
			c-2.118,2.554-2.625,5.415-2.937,8.657c-0.364,3.791-0.499,7.588-0.896,11.379C365.639,144.891,366.7,147.777,368.774,151.259z"/>
		<path style="fill:#231815;" d="M394.449,148.296c0.09-2.031,1.08-1.33,2.44-1.236c1.706,0.118,3.406-1.129,4.613-2.239
			c2.344-2.156,2.538-5.664,6.319-5.691c-0.359,3.283,2.1,3.133,3.998,1.275c0.661,4.253,3.292,0.191,5.283,0.439
			c0.664,0.083,1.439,1.826,2.337,2.427c1.13,0.756,2.844,1.375,4.111,0.571c2.788-1.769-0.185-6.195-1.092-8.255
			c-1.706-3.877-3.387-7.772-5.576-11.408c-1.799-2.991-3.659-5.82-5.336-8.886c-1.223-2.238-2.65-3.762-5.071-1.971
			c-2.806,2.076-5.063,5.533-6.88,8.454c-1.963,3.156-3.682,6.633-4.336,10.321c-0.511,2.878-1.285,5.676-1.861,8.541
			C392.961,142.822,392.073,146.844,394.449,148.296z"/>
	</g>
</g>
</svg>
