<?xml version="1.0" encoding="iso-8859-1"?>
<!-- Generator: Adobe Illustrator 21.1.0, SVG Export Plug-In . SVG Version: 6.00 Build 0)  -->
<svg version="1.1" id="_x31_2" xmlns="http://www.w3.org/2000/svg" xmlns:xlink="http://www.w3.org/1999/xlink" x="0px" y="0px"
	 viewBox="0 0 512 512" style="enable-background:new 0 0 512 512;" xml:space="preserve">
<g>
	<path style="fill:#FFFFFF;" d="M211.704,187.884c-11.598-6.379-29.574-20.876-39.432-30.154
		c-9.858-9.278-22.035-23.195-26.094-37.112c-4.059-13.917-9.858-55.668-11.598-61.467c-1.74-5.799-6.379-6.958-7.538-15.077
		c-1.16-8.118-2.32-23.195,13.337-30.154c2.669-2.377,6.379-8.118,6.379-8.118s5.799-5.799,9.858-2.32
		c4.059,3.479,1.74,13.337,2.899,17.396c1.16,4.059,1.74,5.799,1.74,5.799s5.219-5.799,8.118-5.799s3.479,4.639,1.16,11.018
		s-11.598,15.657-11.018,25.515c0.58,9.858,8.118,48.13,12.177,53.349c4.059,5.219,27.254,25.515,43.491,32.473
		c16.236,6.958,27.254,9.858,27.834,4.059c0.58-5.799,5.799-17.396,11.018-24.355c5.219-6.958,16.237-11.597,13.337-13.337
		c-2.899-1.74-15.657-9.278-26.674-22.615C229.68,73.648,230.84,53.932,232,40.015c1.16-13.917,3.479-12.177,8.118-9.278
		c4.639,2.899,16.236,5.799,18.556,11.598c2.32,5.799,8.698,20.875,10.438,34.793c1.74,13.917,11.018,23.195,13.337,25.514
		c2.32,2.32,4.634-4.424,1.16-13.917c-3.474-9.493-8.118-39.432,2.319-51.029c10.438-11.598,20.876-9.278,21.456,4.639
		c0.58,13.917-1.16,27.254-7.538,38.852c-6.379,11.598-5.799,19.716-4.639,22.035c1.16,2.319,16.237,4.059,24.355,10.438
		c8.118,6.379,8.698,12.177,2.899,21.455c-5.799,9.278-14.497,19.136-15.077,25.515c-0.58,6.379,1.16,12.757,9.858,20.875
		c5.766,5.382,24.355,33.633,34.213,70.165c5.219,16.816,6.958,26.674,2.899,34.793c-4.059,8.118-10.438,16.236-14.497,15.657
		c-4.059-0.58-7.538-4.059-9.858-10.438c-2.319-6.379,5.219-9.278,5.219-9.278s-1.16-9.278-3.479-16.237
		c-2.32-6.958-6.959-25.514-12.177-32.473c-5.219-6.958-12.177-16.236-12.757-12.177c-0.58,4.059-6.958,26.674-4.639,46.97
		c2.319,20.296,2.319,25.515,11.018,36.532c8.698,11.018,19.716,27.834,21.456,47.55c1.74,19.716,2.899,23.775-8.118,40.012
		c-11.018,16.236-15.077,22.035-16.816,33.633c-1.74,11.598,2.464,19.001,11.598,23.775c9.134,4.774,23.775,6.379,32.473,8.698
		c8.698,2.319,9.858,14.497,4.059,15.657c3.479,1.74-5.502,7.727-8.118,6.379c-2.616-1.348,3.479,3.914-4.059,3.334
		c-7.538-0.58-6.958-3.914-20.296-9.133c-13.337-5.219-26.674-12.757-30.154-19.136c-3.479-6.379-9.278-26.094-8.698-41.751
		c0.58-15.657,0.58-40.011-1.16-48.13c-1.74-8.118-4.059-25.515-16.237-30.733c-11.018,32.473-26.094,85.242-29.574,96.839
		c-3.479,11.598-7.87,24.975,1.74,32.473c9.61,7.498,29.574,14.497,39.432,19.716s6.958,16.237,0,16.237
		c0.58,3.479-5.219,8.118-8.118,8.118c-1.73,1.408-1.16,2.899-13.337-1.16c-12.177-4.059-31.893-17.976-41.751-26.094
		c-9.858-8.118-15.077-12.177-13.917-22.035c1.16-9.858,4.639-34.213,3.479-44.651c-1.16-10.438-4.639-8.698-4.059-15.077
		c0.58-6.379,0-16.816,0-26.094c0-9.278,0-38.272-3.479-41.171c-3.479-2.899-8.118,4.059-13.337,4.059
		c-5.219,0-10.438,0-6.379-6.379c4.059-6.379,16.816-30.154,19.136-53.349c2.319-23.195,2.899-44.65,3.479-51.609
		c0.58-6.958,6.379-20.296,9.278-25.515C214.604,194.263,211.704,187.884,211.704,187.884z"/>
	<g>
		<path style="fill:#231815;" d="M300.967,103.128c13.427,3.878,31.361,11.608,25.624,28.628c-2.461,7.3-7.556,13.474-11.935,19.689
			c-0.519,0.737-9.151,15.612-5.893,15.67c-2.034-0.036-1.319-7.609-1.098-8.536c0.964-4.063,3.313-7.818,5.567-11.271
			c4.324-6.623,12.935-16.516,10.073-25.2c-2.087-6.331-10.603-10.582-16.34-12.811c-4.402-1.71-9.027-2.878-13.648-3.827
			c-1.673-0.343-9.114-0.528-10.099-2.083c-0.412-0.651,8.307-0.956,8.881-0.944C295.065,102.506,298.025,102.749,300.967,103.128z"
			/>
		<path style="fill:#231815;" d="M339.214,101.354c7.977-6.713,16.364-13.001,25.536-18c4.364-2.378,8.901-4.485,13.645-5.988
			c0.828-0.262,9.669-1.788,9.75-1.983c-0.162,0.39-3.543,1.306-3.981,1.483c-2.947,1.191-5.867,2.466-8.776,3.746
			c-6.582,2.894-12.863,6.336-18.702,10.54c-3.502,2.522-7.135,4.881-10.548,7.527c-3.117,2.416-6.059,5.047-9.05,7.613
			c-1.428,1.225-3.591,3.877-5.482,4.266c0.159-0.033,3.165-4.211,3.449-4.536C336.425,104.451,337.813,102.899,339.214,101.354z"/>
		<path style="fill:#231815;" d="M343.754,113.752c6.002-2.166,11.983-4.539,18.372-5.277c3.044-0.352,13.59-0.764,15.258,3.091
			c-0.385-0.889-7.499-1.027-8.517-1.081c-4.679-0.25-8.97,0.545-13.403,1.928c-2.23,0.695-17.973,5.341-17.973,5.335
			C337.46,116.79,342.955,114.247,343.754,113.752z"/>
		<path style="fill:#231815;" d="M348.819,125.185c6.151,0.602,12.313,1.146,18.432,2.028c2.757,0.398,5.534,0.812,8.239,1.487
			c0.138,0.034,2.919,1.057,3.034,0.996c-2.43,1.287-36.182-3.54-36.195-3.503C342.617,125.375,347.872,125.31,348.819,125.185z"/>
		<path style="fill:#231815;" d="M255.402,38.967c10.159,12.963,10.342,29.148,14.267,44.457c1.167,4.552,3.814,15.569,10.219,15.66
			c6.121,0.087-3.74-12.3-4.952-14.766c-3.431-6.98-4.511-15.11-6.406-22.582c-1.866-7.361-4.68-14.169-8.905-20.497
			c-6.696-10.028-15.834-16.656-27.913-18.553c0.574,16.242-5.952,32.856-0.424,48.688c5.561,15.929,16.053,27.087,29.662,36.552
			c1.999,1.39,5.028,4.01,7.631,3.627c2.875-0.422,1.659-1.875-0.031-3.379c-5.451-4.851-12.845-7.39-18.419-12.361
			c-6.651-5.933-11.517-13.331-14.991-21.512c-3.972-9.352-4.142-18.252-2.811-28.207c0.734-5.491,1.666-10.972,1.812-16.522
			c0.019-0.71-0.307-3.768,0.199-4.081c2.018-1.249,9.372,3.272,11.026,4.298C249.258,32.203,252.568,35.392,255.402,38.967z"/>
		<path style="fill:#231815;" d="M298.752,78.74c4.258-10.981,7.873-22.731,7.932-34.608c0.027-5.43-0.85-10.819-2.711-15.927
			c-0.527-1.448-2.785-8.625-4.061-9.205c4.957,2.255,8.475,10.863,9.57,15.603c1.876,8.119,1.178,16.937-0.237,25.078
			c-0.926,5.327-3.184,10.467-4.968,15.558c-0.165,0.469-6.853,18.003-7.861,17.162C295.151,91.348,298.411,80.563,298.752,78.74z"
			/>
		<path style="fill:#231815;" d="M280.135,79.232c-1.514-11.446-2.509-23.285-0.679-34.754c0.815-5.111,2.17-10.386,5.08-14.738
			c1.326-1.983,2.94-3.828,5.021-5.049c0.378-0.222,4.458-1.749,4.409-1.308c-0.028,0.25-4.763,4.351-5.215,5.063
			c-1.985,3.125-3.327,6.833-4.271,10.394c-1.884,7.113-1.768,14.221-1.453,21.493c0.207,4.77-0.049,9.435,0.528,14.207
			c0.105,0.874,2.733,16.665,1.988,16.693C283.603,91.306,280.746,81.004,280.135,79.232z"/>
		<path style="fill:#231815;" d="M252.551,127.238c-6.386,4.685-3.284,19.114-11.148,22.047c-0.024,0.009,1.883-10.429,2.069-11.227
			c0.751-3.228,1.012-6.132,2.717-8.98c1.387-2.319,3.357-5.565,6.103-6.466C257.72,120.832,253.294,124.902,252.551,127.238z"/>
		<path style="fill:#231815;" d="M263.318,143.272c-2.025,1.87-2.851,4.631-4.692,6.612c-1.388,1.493-1.879,2.532-1.931,0.013
			c-0.02-0.965,5.356-11.349,7.205-9.166C264.136,141.007,263.467,142.997,263.318,143.272z"/>
		<path style="fill:#231815;" d="M280.352,146.837c-3.448,2.876-8.303,8.11-12.579,9.624c-0.219,0.077,1.267-3.106,1.512-3.423
			c1.35-1.749,3.619-3.594,5.383-4.952c1.104-0.851,6.412-5.348,7.036-4.77C282.162,143.74,280.633,146.283,280.352,146.837z"/>
		<path style="fill:#231815;" d="M292.386,151.152c-2.314,2.414-10.086,8.903-13.877,7.82c0.133,0.038,7.366-5.894,8.315-6.538
			c1.029-0.698,5.863-5.197,6.259-4.989C293.715,147.777,292.607,150.583,292.386,151.152z"/>
		<path style="fill:#231815;" d="M314.322,172.976c-1.305,9.964,3.619,14.484,9.26,21.663c5.006,6.37,8.53,13.6,12.054,20.862
			c3.757,7.743,7.371,15.553,10.396,23.616c1.094,2.918,1.502,8.175,3.27,10.497c2.589,3.399,2.056-2.15,1.6-3.997
			c-3.584-14.501-11.615-27.159-17.109-40.872c-2.746-6.855-6.88-12.22-10.684-18.487c-1.795-2.956-3.064-5.928-4.243-9.158
			C318.357,175.706,315.15,167.497,314.322,172.976z"/>
		<path style="fill:#231815;" d="M208.207,142.404c-15.249-8.68-34.553-21.808-40.25-39.461c-2.975-9.22-7.048-18.642-8.629-28.203
			c-0.742-4.485-1.138-9.103-0.94-13.65c0.093-2.144,0.29-4.31,0.789-6.401c0.087-0.366,1.89-4.562,1.87-4.601
			c0.306,0.573-0.801,4.338-0.828,5.091c-0.098,2.704,0.231,5.454,0.572,8.13c0.734,5.76,1.805,11.582,3.454,17.156
			c1.671,5.65,4.466,10.837,6.102,16.533c1.725,6.005,3.795,11.09,7.908,15.876c6.557,7.629,14.62,14.79,22.918,20.467
			c5.188,3.55,10.703,6.646,16.411,9.279c1.504,0.694,13.268,5.856,13.68,5.379c-1.483,1.714-9.514-0.981-11.296-1.454
			C215.934,145.475,212.055,143.997,208.207,142.404z"/>
		<path style="fill:#231815;" d="M163.966,39.943c1.521-2.601,9.431-15.213,4.792-17.584c-2.881,2.196-5.996,5.076-8.728,7.776
			c-0.487,0.482-7.279,8.118-7.39,8.074c-2.327-0.929,19.003-32.418,21.142-13.768c0.517,4.508-2.261,8.809-4.243,12.643
			c-0.451,0.873-6.638,13.676-8.29,13.094C160.131,49.732,163.569,41.162,163.966,39.943z"/>
		<path style="fill:#231815;" d="M157.912,18.635c0.303-3.949,1.48-12.705-3.275-14.884c-2.271-1.041-4.199,0.205-5.991,1.667
			c-1.621,1.323-3.685,5.527-5.597,6.126c0.233-0.073,0.916-4.292,1.098-4.723c0.98-2.33,2.766-4.487,4.985-5.737
			c4.393-2.476,9.046-0.487,11.405,3.726c1.469,2.624,1.562,21.989-0.698,21.626C158.828,26.273,158.102,19.49,157.912,18.635z"/>
		<path style="fill:#231815;" d="M134.351,19.193c-6.408,4.587-7.55,14.496-6.538,21.664c0.505,3.572,1.572,7.169,3.609,10.185
			c0.11,0.163,3.463,4.182,3.51,4.134c-0.569,0.59-4.763-2.243-5.158-2.576c-2.343-1.974-3.67-4.824-4.525-7.7
			c-1.426-4.802-1.76-10.245-0.997-15.199c0.599-3.886,2.693-7.759,5.244-10.747c1.635-1.916,9.272-8.035,12.141-4.46
			C141.157,13.894,135.192,18.093,134.351,19.193z"/>
		<path style="fill:#231815;" d="M224.188,192.474c-13.493,2.854-24.78-5.1-34.156-13.565c-10.302-9.302-20.27-19.007-29.714-29.181
			c-8.015-8.635-12.776-17.233-16.174-28.602c-3.863-12.926-6.242-26.314-8.077-39.663c-0.524-3.81-5.034-25.336-1.47-26.053
			c2.393-0.482,5.283,27.152,5.604,29.119c2.168,13.28,5.218,26.277,8.734,39.254c3.402,12.557,11.108,20.061,20.595,28.512
			c9.409,8.382,18.276,17.264,28.725,24.417c5.808,3.976,11.82,6.987,18.372,9.481c2.248,0.856,7.194,1.518,8.856,2.895
			C227.243,190.547,226.891,191.668,224.188,192.474z"/>
		<path style="fill:#231815;" d="M306.152,229.284c-2.839,12.553-2.379,26.007-1.515,38.76c0.412,6.084,0.956,12.206,2.021,18.215
			c0.094,0.532,2.528,10.345,3.213,9.891c-3.312,2.19-7.826-16.856-7.955-17.731c-1.171-7.937-1.651-15.978-2.077-23.984
			c-0.324-6.101,0.345-11.977,1.115-18.028c0.546-4.292,1.126-8.65,2.522-12.763c0.674-1.986,1.476-4.209,2.842-5.835
			c0.072-0.086,3.342-3.421,3.438-2.226c0.201,1.148-2.512,5.399-2.834,6.854C306.426,224.678,306.234,226.996,306.152,229.284z"/>
		<path style="fill:#231815;" d="M205.765,207.952c-8.168,19.646-3.981,42.064-7.359,62.649c-1.398,8.521-3.066,17.152-5.364,25.478
			c-1.065,3.857-2.361,7.653-3.794,11.388c-1.476,3.845-4.025,7.621-5.201,11.527c0.141-0.169,0.275-0.344,0.404-0.523
			c-1.839,1.975-3.044,6.131-4.768,8.5c-2.09,2.872-4.515,5.435-7.709,7.081c15.217,0.912,19.368-20.684,22.611-31.582
			c3.983-13.389,6.678-26.879,8.654-40.697c2.037-14.247,1.183-28.632,3.065-42.82c0.49-3.693,1.27-7.41,2.759-10.842
			c1.229-2.832,3.387-4.837,4.793-7.472c1.345-2.52,0.801-2.684-1.667-1.223C209.175,201.201,207.056,204.838,205.765,207.952z"/>
		<path style="fill:#231815;" d="M314.115,303.418c10.51,7.634,15.897,15.921,19.221,28.389c3.607,13.528,5.655,27.827,3.393,41.76
			c-2.28,14.046-10.931,23.373-18.385,34.878c-6.123,9.451-9.168,23.37-4.765,34.257c0.843,2.085,7.044,8.024,3.36,8.185
			c-4.708,0.205-6.855-8.01-7.549-11.452c-2.243-11.123-0.439-22.757,5.577-32.354c5.462-8.713,13.803-16.194,16.671-26.299
			c2.102-7.405,2.041-15.11,1.19-22.716c-1.097-9.814-2.822-19.13-6.653-28.308c-2.742-6.568-6.683-12.141-10.61-18.003
			C314.13,309.608,306.813,298.161,314.115,303.418z"/>
		<path style="fill:#231815;" d="M276.577,339.366c3.401,4.546,6.755,9.499,8.019,15.124c0.377,1.678,1.111,12.071-2.852,11.796
			c0.689,0.048,0.377-7.135,0.322-7.672c-0.349-3.437-1.628-6.174-3.272-9.174c-0.988-1.803-8.464-12.598-7.869-13.088
			C271.686,335.724,275.711,338.796,276.577,339.366z"/>
		<path style="fill:#231815;" d="M287.845,374.094c0.387,6.254,0.787,12.534-0.213,18.757c-0.361,2.246-1.982,11.652-4.957,12.299
			c0.212-0.046,0.688-6.663,0.752-7.04c0.738-4.355,1.26-8.343,1.224-12.761c-0.018-2.226-0.741-17.606,0.227-17.626
			C285.838,367.704,287.561,373.371,287.845,374.094z"/>
		<path style="fill:#231815;" d="M290.165,427.464c0.246,8.126,0.688,17.405,4.364,24.821c3.369,6.797,9.734,11.136,16.301,14.516
			c6.865,3.533,14.167,6.124,21.063,9.593c2.771,1.394,5.506,2.91,8.007,4.754c0.472,0.348,5.299,5.002,5.145,5.041
			c-0.316,0.078-3.825-2.465-4.232-2.677c-1.843-0.956-3.787-1.748-5.707-2.534c-4.651-1.904-9.377-3.625-14.038-5.507
			c-10.401-4.2-21.979-8.715-28.749-18.183c-3.939-5.509-4.682-12.838-5.392-19.402c-0.576-5.328-0.923-10.686-0.908-16.047
			c0.007-2.428-0.919-11.881,1.32-13.331c0.243-0.158,1.393,8.861,1.48,9.583C289.197,421.225,289.639,424.352,290.165,427.464z"/>
		<path style="fill:#231815;" d="M349.471,478.254c0.461,2.279,1.361,5.537-1.114,7.083c-0.534,0.333-2.332,1.021-2.826,0.307
			c-0.548-0.792,0.671-0.72,0.777-1.525c0.107-0.813,0.802-1.749,0.907-2.729c0.071-0.661-0.161-1.353-0.116-2.017
			C347.21,477.764,347.476,475.643,349.471,478.254z"/>
		<path style="fill:#231815;" d="M354.659,469.316c2.399,1.914,4.588,4.732,2.72,7.814c-1.422,2.346-2.508,2.675-2.602,0.362
			c-0.043-1.064,0.938-1.93,0.722-3.077c-0.194-1.031-1.404-1.954-1.951-2.717C352.252,469.889,351.035,468.862,354.659,469.316z"/>
		<path style="fill:#231815;" d="M362.254,464.92c1.362,2.456,2.848,5.684,0.567,8.126c-0.455,0.487-2.062,1.848-2.835,1.332
			c-0.843-0.563,0.622-1.766,0.884-2.636C361.675,469.071,357.587,462.341,362.254,464.92z"/>
		<path style="fill:#231815;" d="M324.198,446.884c5.098,3.732,11.883,5.094,17.863,6.72c2.624,0.713,14.189,2.555,15.179,5.811
			c0.074,0.244-11.747-1.033-12.347-1.17c-4.717-1.079-9.991-1.62-14.459-3.482c-3.799-1.584-9.347-3.96-11.658-7.48
			c-0.587-0.894-2.207-3.737-0.458-4.081C318.413,443.183,323.292,446.658,324.198,446.884z"/>
		<path style="fill:#231815;" d="M272.178,335.51c-8.648,15.032-12.431,33.572-16.262,50.315
			c-3.523,15.397-10.824,29.51-14.261,44.845c-1.56,6.96-4.115,14.842-3.654,22.014c0.509,7.913,6.248,12.147,12.936,15.254
			c7.8,3.624,15.99,6.342,23.576,10.441c3.762,2.033,7.554,4.288,10.526,7.406c0.566,0.594,4.698,5.902,3.433,6.328
			c-0.527,0.234-4.734-4.284-5.334-4.756c-2.893-2.276-6.101-4.082-9.392-5.711c-7.427-3.676-15.326-6.237-22.859-9.665
			c-5.703-2.595-11.639-5.982-14.498-11.842c-3.533-7.24-1.084-15.577,0.436-23.007c2.851-13.932,7.861-26.913,11.495-40.62
			c1.815-6.845,2.801-13.879,4.576-20.737c2.088-8.067,4.778-15.966,6.984-24.001c1.786-6.506,1.93-15.883,7.458-20.524
			c1.387-1.164,6.874-5.024,8.09-2.239C276.05,330.437,272.737,334.542,272.178,335.51z"/>
		<path style="fill:#231815;" d="M279.17,496.022c1.068,1.191,3.248,2.977,2.74,4.865c-0.718,2.674-1.379,0.821-2.478-0.453
			C278.432,499.274,275.237,495.418,279.17,496.022z"/>
		<path style="fill:#231815;" d="M274.072,504.997c-0.035,1.868,0.755,4.836-1.163,6.108c-3.298,2.188-2.088-0.208-2.047-1.142
			C270.922,508.611,271.607,500.916,274.072,504.997z"/>
		<path style="fill:#231815;" d="M202.491,343.295c0.299,8.892,1.272,17.771,0.598,26.673c-0.309,4.078-0.901,8.187-2.234,12.068
			c-0.206,0.6-2.808,6.464-3.141,6.151c-0.323-0.304,0.738-5.49,0.796-6.004c0.539-4.801,1.337-9.551,1.445-14.393
			c0.103-4.625-0.554-9.186-0.487-13.792c0.053-3.63-0.206-7.219-0.37-10.844c-0.084-1.848-0.957-6.811,0.257-8.314
			c0.965-1.195,0.337-1.173,1.163,0.241C201.734,337.166,201.84,340.895,202.491,343.295z"/>
		<path style="fill:#231815;" d="M207.983,387.875c-1.697,6.03-3.152,12.137-5.281,18.037c-0.995,2.758-2.099,5.557-3.635,8.065
			c-0.08,0.13-2.526,3.379-2.586,3.172c-0.641-2.231,9.756-36.521,10.719-36.273C208.168,381.124,207.936,386.766,207.983,387.875z"
			/>
		<path style="fill:#231815;" d="M209.588,432.139c-1.136,11.105-3.861,23.166-1.888,34.31c1.549,8.753,8.817,12.138,15.522,16.958
			c8.877,6.381,17.871,12.672,27.274,18.259c3.354,1.993,6.766,3.923,10.304,5.576c1.192,0.557,8.433,4.154,9.163,3.41
			c-1.891,1.929-12.549-2.496-14.629-3.322c-6.262-2.487-12.096-5.891-17.758-9.513c-5.977-3.823-11.818-7.852-17.637-11.909
			c-5.275-3.678-11.957-6.939-14.851-12.947c-4.323-8.976-1.802-20.323-0.731-29.771c0.751-6.629,1.526-13.272,1.858-19.939
			c0.07-1.408,0.637-15.566-0.204-15.827c2.488,0.855,2.904,10.644,3.09,12.544C209.496,424.012,209.57,428.078,209.588,432.139z"/>
		<path style="fill:#231815;" d="M321.834,234.484c3.855,6.45,6.503,13.715,8.453,20.948c0.94,3.485,1.709,7.023,2.209,10.599
			c0.231,1.651,1.461,7.113,0.412,8.571c0.374-0.52-2.79-7.743-2.966-8.395c-1.461-5.412-2.568-10.84-4.659-16.066
			c-1.324-3.308-2.355-6.798-3.882-10.013c-1.107-2.331-2.461-4.578-3.924-6.703c-0.784-1.137-2.935-3.007-2.958-4.454
			C314.512,228.617,321.032,233.627,321.834,234.484z"/>
		<path style="fill:#231815;" d="M355.236,260.805c1.635,9.685,4.083,18.181-0.382,27.383c-1.995,4.112-4.615,8.268-8.119,11.267
			c-1.638,1.402-3.619,2.869-5.83,3.088c-0.186,0.018-3.84-0.542-3.471-0.841c-0.053,0.043,2.93-0.099,2.767-0.051
			c1.096-0.321,2.085-1.234,2.927-1.954c2.346-2.004,4.312-4.712,5.992-7.277c2.903-4.433,5.667-9.827,5.239-15.227
			c-0.323-4.076-0.799-8.22-1.498-12.252c-0.514-2.963-3.569-10.988-2.024-13.979C350.735,251.158,354.724,259.458,355.236,260.805z
			"/>
		<path style="fill:#231815;" d="M330.882,296.424c-3.979-2.941-5.201-8.726-1.993-12.718c2.158-2.685,7.942-4.879,10.952-2.162
			c-0.177-0.16-5.139,1.622-5.751,1.919c-2.256,1.093-3.414,2.341-3.69,4.927c-0.137,1.276,0.096,2.952,0.762,4.054
			c0.497,0.822,5.341,3.111,5.118,3.985C335.994,297.547,331.716,296.657,330.882,296.424z"/>
		<path style="fill:#231815;" d="M341.505,273.77c-2.437,4.191,3.913,2.77,4.773,3.986c1.627,2.3-3.712,2.756-5.688,1.699
			c-2.441-1.306-3.643-4.821-1.744-7.271C341.133,269.234,340.993,272.057,341.505,273.77z"/>
		<path style="fill:#231815;" d="M314.249,125.276c3.145-0.153,7.416-1.781,10.097,0.738c3.503,3.29-0.886,1.888-2.809,1.801
			C318.907,127.695,308.76,130.03,314.249,125.276z"/>
		<path style="fill:#231815;" d="M196.932,327.123c-2.766,2.548-6.103,14.387-12.198,10.29c0.782,0.525,4.569-2.179,5.065-2.686
			c1.411-1.441,1.788-3.319,2.734-5.009c0.557-0.996,1.344-2.063,2.085-2.92c-0.154,0.178,4.486-4.083,4.537-2.258
			C199.167,324.983,197.248,326.401,196.932,327.123z"/>
		<path style="fill:#231815;" d="M290.565,132.633c-7.117-0.038-8.906-9.457-0.952-9.999
			C297.371,122.105,296.089,130.438,290.565,132.633z"/>
		<path style="fill:#231815;" d="M250.865,224.855c0.968,3.438,3.059,6.53,4.784,9.611c0.632,1.13,4.068,5.958,3.39,7.539
			c-0.279,0.65-4.815-5.168-5.059-5.543c-1.474-2.264-3.011-4.352-4.068-6.805c-0.655-1.521-3.282-6.71-1.589-8.007
			C249.332,220.877,250.064,223.993,250.865,224.855z"/>
		<path style="fill:#231815;" d="M270.171,241.311c1.581,2.842,7.654,10.791,6.111,14.27c0.058-0.13-11.562-14.785-9.219-16.168
			C267.574,239.112,269.641,240.955,270.171,241.311z"/>
		<path style="fill:#231815;" d="M283.851,251.144c-0.368,2.275-0.579,12.775-2.426,4.923
			C280.973,254.151,282.247,245.973,283.851,251.144z"/>
		<path style="fill:#231815;" d="M294.742,229.398c-0.296,4.011,0.475,14.798-5.72,15.612c1.832-0.241,2.739-9.85,2.846-11.684
			c0.059-1.009-0.155-6.582,0.923-7.101C294.201,225.547,294.21,228.17,294.742,229.398z"/>
		<path style="fill:#231815;" d="M230.829,50.27c-2.345-6.822-0.209-14.786,0.62-21.701c0.47-3.914,0.518-5.438,4.855-5.004
			c3.068,0.307,6.11,2.058,8.619,3.727c4.672,3.108,9.769,7.614,11.809,13.001c2.538,6.702-3.616,5.119-7.686,2.784
			c1.309,7.568-8.804,9.881-9.35,1.818C237.075,46.583,234.29,50.41,230.829,50.27z"/>
		<path style="fill:#231815;" d="M280.609,42.125c-2.964-3.604,2.185-10.308,4.369-12.941c3.103-3.743,8.64-9.143,14.061-8.199
			c10.548,1.838,10.096,24.158,6.076,31.02c-4.098-2.79-8.224-11.914-12.559-3.769c-0.754-5.896-3.628-2.887-6.585-0.423
			c-0.876,0.73-3.227,3.108-4.636,2.581C280.437,50.058,280.564,43.512,280.609,42.125z"/>
	</g>
</g>
</svg>
