<?xml version="1.0" encoding="iso-8859-1"?>
<!-- Generator: Adobe Illustrator 21.1.0, SVG Export Plug-In . SVG Version: 6.00 Build 0)  -->
<svg version="1.1" id="_x31_2" xmlns="http://www.w3.org/2000/svg" xmlns:xlink="http://www.w3.org/1999/xlink" x="0px" y="0px"
	 viewBox="0 0 512 512" style="enable-background:new 0 0 512 512;" xml:space="preserve">
<g>
	<path style="fill:#FFCA6C;" d="M489.584,256.433c1.461,7.307,17.245,68.297,18.999,98.651c1.755,30.354,2.192,29.961-0.731,32.153
		c-2.923,2.192-21.192,2.192-28.499,2.923c-7.307,0.731-146.88,7.308-200.224,5.846c-53.344-1.461-180.494-7.307-195.84-8.038
		c-15.346-0.731-62.844,0.731-70.152-1.461c-7.307-2.192-16.076-1.461-7.307-9.5c8.769-8.038,81.844-96.458,86.959-104.497
		c5.115-8.038,26.307-29.961,26.307-29.961s103.766,5.115,112.535,5.115c8.769,0,82.574,2.192,82.574,2.192
		s141.765,4.384,145.418,4.384C463.277,254.24,489.584,256.433,489.584,256.433z"/>
	<path style="fill:#94C85C;" d="M338.852,176.233c-6.259-2.449-10.614-3.81-11.43-6.804c-0.816-2.994,3.538-7.892,11.43-8.165
		c7.892-0.272,10.069-2.177,10.069-2.177s3.266-5.715,6.804-8.709c3.538-2.994,6.804-1.361,8.981,2.449
		c2.177,3.81,3.668,3.913,5.171,3.81c1.503-0.103,2.449,1.633,10.342,2.994c7.892,1.361,5.715,2.177,5.715,2.177
		s7.348-6.259,13.88-4.627c6.532,1.633,7.978,11.668,8.709,12.791c0.731,1.123,5.443,1.089,10.342,7.892
		c4.899,6.804,12.247,24.221,15.513,29.12c3.266,4.899,14.152,21.772,14.152,40.278c0,18.506-4.899,33.202-5.987,35.107
		c-1.089,1.905,10.614-4.082,14.424-4.082c3.81,0-5.443,6.532-5.443,6.532s10.886-3.266,16.873-2.177
		c5.987,1.089-12.791,5.987-13.335,6.259c-0.544,0.272,17.418-1.905,17.69,1.905c-11.974,2.449-30.481,13.335-34.291,17.418
		c-3.81,4.082-13.335,10.069-13.335,10.069s-22.588,21.772-37.012,28.303s-13.063,4.082-13.335,4.899
		c-0.272,0.816-25.038,5.987-34.563-4.899c-9.525-10.886-4.899-17.145-4.899-17.145s-18.778,7.62-31.297,2.994
		c-12.519-4.627-12.596-17.655-7.892-24.766c4.704-7.11,21.228-19.867,27.487-21.772c6.259-1.905,6.804-2.722,6.804-2.722
		l0.544-23.949c0,0-7.076,5.987-14.696,4.626c-7.62-1.361-7.892-11.974-6.259-15.785c1.633-3.81,7.62-20.683,9.253-24.493
		s1.361-5.443,1.089-7.348c-0.272-1.905-6.259-23.677,4.082-27.487c0,1.089-1.089,7.076-0.544,8.981
		c5.171-9.797,6.804-7.348,9.797-8.165c2.994-0.816-0.272,1.905-1.633,4.354c-1.361,2.449,8.981,18.506,7.076,22.044
		c-1.905,3.538-5.443,5.171-5.443,5.171l2.721,8.709c0,0,17.962-5.715,16.329-8.164c-1.633-2.449-0.816-12.791,0.272-16.057
		c1.089-3.266-0.189-7.474-1.361-9.253c-1.172-1.779,4.626-0.544,5.443,5.443c0,0,1.633-4.627,0.272-8.437
		c-1.361-3.81,8.709-0.272,8.164,9.525c-0.816-12.247-4.627-15.512-0.816-12.247c3.81,3.266,5.715,8.709,5.715,8.709
		s-1.361-10.069-0.272-9.253c1.089,0.816,5.715,7.892,6.259,12.247c0.544,4.354,0.544,10.886,0.544,10.886s4.082,0.816,10.342-2.721
		c6.259-3.538,4.626-9.797,2.449-11.975c-2.177-2.177-18.234-10.886-25.31-13.88C357.358,181.676,338.852,176.233,338.852,176.233z"
		/>
	<path style="fill:#ED7342;" d="M339.396,177.322c4.899,2.177,9.797,5.987,7.348,14.424c-2.449,8.437,19.867-6.259,19.867-6.259
		S355.997,177.594,339.396,177.322z"/>
	<path style="fill:#FFFFFF;" d="M393.554,203.176c0.324-1.395-1.856-0.615-2.225-1.818c-2.164-2.216-5.52-5.284-6.884-6.324
		c-4.771-2.809-11.653-6.467-16.714-8.87c-2.411-0.813-4.573-1.184-6.018-0.678l-29.259,11.335
		c-3.126,0.912-4.584,6.747-3.126,11.254l22.513,9.105c-0.165-4.036,0.436-9.372,1.164-11.555c1.089-3.266-0.189-7.475-1.361-9.253
		c-1.172-1.779,4.627-0.544,5.443,5.443c0,0,1.633-4.627,0.272-8.437c-1.163-3.256,6.001-1.13,7.777,5.666
		c-1.208-9.039-3.801-11.278-0.429-8.388c3.81,3.266,5.715,8.709,5.715,8.709s-1.361-10.069-0.272-9.253
		c1.089,0.816,5.715,7.893,6.26,12.247c0.443,3.547,0.526,8.536,0.541,10.266c3.445-0.893,5.991-1.557,5.991-1.557
		S390.596,205.37,393.554,203.176z"/>
	<path style="fill:#FFFFFF;" d="M393.554,203.176c6.804,4.082-12.519,21.228-7.348,32.658c-6.26-8.437-7.076-9.797-8.709-15.24
		c-1.633-5.443,1.089-7.892,1.089-7.892s10.614-5.443,11.702-6.804C391.377,204.536,393.554,203.176,393.554,203.176z"/>
	<path style="fill:#FFFFFF;" d="M343.751,215.694c2.177,2.994,3.266,12.247-1.633,19.323c-4.899,7.076-17.69,37.012-10.614,51.98
		c7.076,14.968,19.322,17.69,23.133,16.329c3.81-1.361,5.171-2.449,5.171-2.449s16.057,3.538,27.487-1.633
		c11.43-5.171,13.335-21.5,11.975-23.405c-16.057,2.177-21.228-1.361-25.038-8.981c-3.81-7.62-13.048-36.628-13.063-37.829
		c-0.015-1.2-5.171-4.626-5.171-4.626l-4.082-6.259l-8.437-3.538L343.751,215.694z"/>
	<path style="fill:#FFA48B;" d="M330.647,203.088c2.923,1.827,16.076,8.038,18.269,7.307c2.192-0.731,2.192,1.096,1.096,2.558
		c-1.096,1.462-18.999-6.942-21.192-8.038C326.628,203.819,330.647,203.088,330.647,203.088z"/>
	<path style="fill:#FFA48B;" d="M377.78,204.184c0.732,0.718,11.964-5.635,11.964-5.635s1.189,1.251-0.637,2.712
		s-12.057,6.211-12.057,6.211L377.78,204.184z"/>
	<path style="fill:#E73828;" d="M221.828,291.352c-1.633,1.905-0.816,14.152,2.449,17.145c3.266,2.994,25.31,8.437,32.658,6.532
		c7.348-1.905,28.302-13.941,29.392-16.873c1.09-2.932,1.089-13.879-3.266-14.696C278.707,282.643,221.828,291.352,221.828,291.352z
		"/>
	<path style="fill:#FFFFFF;" d="M215.024,164.803c7.348-2.722,11.702-4.627,17.418-13.88c5.715-9.253,5.715-23.405,4.899-23.677
		c-0.816-0.272-8.981,3.266-14.696,7.076c-5.715,3.81-9.525,5.987-9.525,5.987s4.355-6.804,4.899-9.525
		c0.544-2.722,1.905-12.519-2.994-11.975c-4.899,0.544-13.063,1.633-25.854,10.341c-12.791,8.709-16.057,37.285-16.057,41.911
		c0,4.627-6.804,11.975-9.525,16.329c-2.722,4.355-7.076,13.063-10.886,16.329c-3.81,3.266-28.848,25.31-32.386,36.74
		c-3.538,11.43-8.709,36.74-13.607,40.55c0,0-0.545,2.177,1.361,2.721c1.905,0.544,4.354,1.905,8.709,7.348
		c4.354,5.443,14.968,10.069,15.785,12.791c0.816,2.721-1.361,12.519-4.082,16.601c-2.721,4.082-7.62,8.437-9.253,13.335
		c-1.633,4.899,0.545,23.949,0.545,23.949s0,4.354-0.817,7.076c-0.816,2.721,2.177,7.62,2.177,7.62s0.816,5.443,4.899,5.171
		c1.905,2.449,8.709-0.544,10.614-5.443c1.905-4.899,1.089-20.139,2.994-27.759c1.905-7.62,13.063-16.601,13.063-16.601l0.544,1.089
		c0,0-1.361,13.063,5.987,16.329s12.519,7.076,17.418,12.247c4.899,5.171,7.076,3.81,9.525,1.905
		c2.722,1.089,4.355-2.994,5.443-3.538c1.089-0.544,4.626-4.354-0.544-8.709c-5.171-4.354-12.247-6.804-13.88-13.335
		c-1.633-6.532,4.626-11.43,20.684-21.5c16.057-10.07,17.962-17.69,19.05-25.038c1.089-7.348-5.715-11.43-5.715-11.43
		s1.796-0.715,6.26,0.272c4.464,0.987,7.076,0,10.342-2.721c3.266-2.721,2.449-4.354,2.177-5.715
		c-0.272-1.361-2.177-2.722-3.266-2.994c-1.088-0.272,0,0,0.272-3.538c0.272-3.538-5.443-3.538-10.07-1.905
		c-4.626,1.633-2.721,3.266-6.259-0.816c-15.785-18.234-12.791-40.55-11.975-41.639c0.816-1.089,7.348-4.899,11.975-9.253
		c4.626-4.354,5.443-6.804,2.449-14.424c-2.994-7.62-7.076-11.702-8.436-15.24C203.322,174.328,207.676,167.524,215.024,164.803z
		 M206.86,273.118c6.15,2.007,4.898,1.905,2.449,2.449c-2.449,0.544-19.595,0.544-23.949-3.81
		c-4.355-4.354-6.26-26.126-2.177-28.575C185.905,250.801,200.71,271.111,206.86,273.118z"/>
	<path style="fill:#C30D23;" d="M228.087,292.985c-2.721-0.816-7.076-1.089-1.633-4.354c5.443-3.266,23.133-13.063,26.126-13.879
		c2.994-0.816,18.778,3.538,23.405,4.899c4.626,1.361,6.531,3.81,2.721,6.532c-3.81,2.721-22.86,13.607-26.943,13.88
		C247.682,300.333,228.087,292.985,228.087,292.985z"/>
	<path style="fill:#FFFFFF;" d="M232.986,294.617c0,0,22.861-14.152,25.31-15.24c2.449-1.089,8.437-1.089,8.437-1.089
		s16.601,2.177,12.247,6.532c-4.354,4.354-26.398,15.785-29.12,15.785S232.986,294.617,232.986,294.617z"/>
	<path style="fill:#FFA48B;" d="M245.233,290.263c3.266,0.816,7.62,1.905,11.43,2.994c3.81,1.089,1.089,3.266,1.089,3.266
		s-8.437-2.994-12.519-4.082s-4.899-1.361-4.899-1.361L245.233,290.263z"/>
	<path style="fill:#FFA48B;" d="M252.037,284.82c3.81,1.361,13.607,4.626,15.24,5.171c1.633,0.544-0.272,1.905-2.449,1.905
		c-2.177,0-11.975-4.354-14.696-4.899C247.41,286.453,252.037,284.82,252.037,284.82z"/>
	<path style="fill:#FFA48B;" d="M259.385,281.01c2.721,0.272,14.696,4.082,14.696,4.082s0.816,2.722-1.361,2.177
		c-2.177-0.544-12.519-3.538-15.512-4.354C254.214,282.099,259.385,281.01,259.385,281.01z"/>
	<path style="fill:#2CA6E0;" d="M212.031,331.902c1.089,0,21.772,0.272,21.772,0.272l0.272,10.069c0,0-0.816,5.987-4.899,7.348
		c-4.082,1.361-11.158,2.449-14.696-1.089c-3.538-3.538-4.082-11.702-4.082-11.702L212.031,331.902z"/>
	<path style="fill:#036EB7;" d="M219.379,327.003c-4.627,0-11.975,1.905-8.981,5.443c2.994,3.538,5.443,4.354,12.519,2.994
		c7.076-1.361,10.886-4.082,8.709-6.259C229.448,327.003,219.379,327.003,219.379,327.003z"/>
	<path style="fill:#036EB7;" d="M292.859,359.933c-6.733-1.122-13.88-1.633-13.335-5.443s5.443-6.259,15.24-5.987
		c9.797,0.272,13.063,4.899,10.342,7.62S294.492,360.205,292.859,359.933z"/>
	<path style="fill:#2CA6E0;" d="M305.378,360.75c0.272,2.994-1.633,13.88-4.899,14.696c-3.266,0.816-15.513,0.544-17.962-3.81
		c-2.449-4.354-2.721-13.88-2.721-14.968c0-1.089,6.259,4.899,14.152,3.538c7.892-1.361,10.614-3.266,11.158-4.082
		C305.65,355.307,305.378,360.75,305.378,360.75z"/>
	<g>
		<path style="fill:#231815;" d="M184.259,292.891c-0.833-3.501-3.516-5.932-6.299-7.976c-0.356-0.262-6.4-4.192-5.456-4.681
			c5.035-2.606,13.18,7.444,14.332,11.138c1.925,6.173-0.729,13.721-4.58,18.654c-4.296,5.503-11.175,8.277-17.273,11.221
			c-3.126,1.509-6.303,3.002-9.159,4.993c-1.753,1.222-4.184,4.839-6.088,5.461c0.013-0.006,1.215-2.66,1.381-2.912
			c1.411-2.135,3.388-3.923,5.349-5.543c3.698-3.054,7.901-5.321,12.078-7.634C176.99,310.938,185.647,303.755,184.259,292.891z"/>
		<path style="fill:#231815;" d="M207.075,279.602c9.767-1.424,8.583,11.291,6.219,17.095c-3.246,7.97-11.724,13.286-18.774,17.592
			c-6.26,3.823-18.322,8.717-19.456,16.998c-1.169,8.534,7.075,11.965,13.043,15.35c1.583,0.898,3.453,1.843,4.533,3.352
			c0.663,0.927,0.861,4.394,1.408,4.706c1.187,0.68,1.852-0.633,2.276-1.753c0.812-2.141-0.699-4.313-2.166-5.721
			c-5.156-4.946-15.563-4.905-16.737-13.541c-1.075-7.911,10.264-12.802,15.585-16.714c7.17-5.271,16.474-9.757,21.068-17.753
			c3.753-6.532,6.42-18.801-0.932-23.751c-2.501-1.684-7.497-2.701-9.669,0.117C200.345,279.638,205.07,278.582,207.075,279.602z"/>
		<path style="fill:#231815;" d="M138.79,343.216c0.639-1.601,8.23-13.915,9.673-9.622c0.389,1.157-3.907,5.117-4.55,6.086
			c-2.047,3.086-3.439,6.694-4.151,10.325c-1.267,6.462,0.448,13.092-0.788,19.591c-0.539,2.832-1.501,5.774-3.622,7.83
			c-1.402,1.359-6.208,3.979-8.136,2.069c0.866,1.079,5.942-2.916,6.415-3.563c1.954-2.676,2.07-6.677,2.19-9.862
			C136.129,357.91,135.128,350.823,138.79,343.216z"/>
		<path style="fill:#231815;" d="M128.436,373.862c2.167-1.206,1.646,0.917,0.964,1.697c-0.863,0.987-4.149,1.825-5.326,1.011
			C122.867,375.736,128.101,373.899,128.436,373.862z"/>
		<path style="fill:#231815;" d="M123.537,369.909c1.438-2.212,3.112-1.053,1.127,1.583c-1.126,1.497-4.03,3.835-6.069,2.716
			C118.124,373.95,123.021,370.303,123.537,369.909z"/>
		<path style="fill:#231815;" d="M120.824,352.975c0.296,1.419,1.944,9.375-0.56,10.168c-1.795,0.569-2.742-11.865-3.015-13.303
			c-0.971-5.112-1.775-10.857-0.022-15.895c0.737-2.12,6.092-10.007,9.251-7.308c-0.286-0.244-3.815,3.098-4.218,3.653
			c-1.489,2.052-1.916,4.689-2.182,7.145C119.52,342.594,120.304,347.844,120.824,352.975z"/>
		<path style="fill:#231815;" d="M154.554,342.957c-1.372-1.398-4.999-8.13-1.586-9.4c1.032-0.384,3.045,6.64,4.095,7.768
			c3.234,3.472,8.499,5.098,12.332,7.831c2.08,1.483,4.084,3.148,5.443,5.349c0.169,0.273,1.893,5.279,1.369,4.943
			c-1.767-1.131-2.999-3.655-4.87-4.975c-1.963-1.385-4.154-2.515-6.217-3.734C161.362,348.519,157.38,346.373,154.554,342.957z"/>
		<path style="fill:#231815;" d="M114.786,292.056c-0.465-0.342-6.078-5.563-3.514-5.768c0.863-0.069,5.931,5.208,6.877,5.922
			c2.737,2.067,5.531,4.22,7.524,7.058c0.856,1.219,1.67,2.581,2.001,4.055c0.082,0.366-0.034,3.958-0.14,3.794
			c-1.902-2.952-2.607-5.619-5.266-8.317C119.912,296.409,117.309,294.264,114.786,292.056z"/>
		<path style="fill:#231815;" d="M131.546,299.404c-0.387-0.914-2.475-3.634-1.641-4.462c1.6-1.59,3.819,4.989,3.968,5.523
			c0.696,2.497,0.928,5.285,0.112,7.796c-0.325,1-2.859,5.798-4.489,4.519c0.983,0.772,2.509-6.175,2.54-6.473
			C132.279,303.998,132.129,301.653,131.546,299.404z"/>
		<path style="fill:#231815;" d="M129.654,316.098c0.378-0.739,2.889-3.014,3.56-1.037c0.46,1.353-0.431,1.237-1.094,2.542
			c-0.949,1.867-4.788,7.99-7.489,6.203C123.153,322.828,128.97,316.761,129.654,316.098z"/>
		<path style="fill:#231815;" d="M186.508,227.327c1.034-1.919,8.125-12.747,11.666-10.29c1.431,0.993-3.543,4.508-4.105,5.064
			c-2.55,2.521-4.482,5.412-6.044,8.638c-3.309,6.835-5.327,14.689-5.851,22.253c-0.225,3.25-0.215,6.565,0.275,9.792
			c0.351,2.31,3.539,7.711,3.194,9.606c-0.028,0.309-3.156-3.574-3.113-3.503c-1.188-1.941-2.061-4.088-2.695-6.27
			c-1.046-3.599-1.356-7.363-1.136-11.096C179.198,243.11,182.017,234.442,186.508,227.327z"/>
		<path style="fill:#231815;" d="M101.123,281.125c9.41,11.127,13.317-8.379,14.65-14.631c1.848-8.667,3.164-17.477,6.357-25.788
			c3.551-9.243,9.597-17.54,16.605-24.484c3.298-3.268,6.889-6.303,10.869-8.711c1.553-0.94,8.571-3.941,5.704-6.122
			c-2.977-2.264-19.422,14.697-21.233,16.582c-4.935,5.137-9.553,10.641-12.964,16.914c-4.394,8.082-6.617,16.797-9.327,25.509
			C109.668,267.201,108.912,278.134,101.123,281.125z"/>
		<path style="fill:#231815;" d="M200.623,220.238c-5.252,2.062-5.096,4.072-4.125,9.39c0.961,5.262,2.797,10.118,5.055,14.949
			c1.065,2.28,15.243,26.73,17.581,23.509c0.79-1.088-7.082-7.945-8.001-9.227c-2.63-3.671-4.358-7.704-6.086-11.844
			c-1.898-4.547-3.429-9.099-4.267-13.949C199.984,228.457,200.541,224.794,200.623,220.238z"/>
		<path style="fill:#231815;" d="M186.347,252.496c-0.895-1.497-4.581-7.216-2.926-9.214c1.425-1.719,5.578,7.986,6.216,9.024
			c2.507,4.083,5.215,8.157,8.231,11.883c1.508,1.863,3.088,3.705,4.922,5.259c0.811,0.687,3.831,2.03,4.216,2.995
			c0.195,0.488-5.271-1.16-5.813-1.428c-2.596-1.284-4.739-3.085-6.641-5.259C191.136,261.852,188.546,257.174,186.347,252.496z"/>
		<path style="fill:#231815;" d="M219.643,259.558c-1.129,0.317-5.021,3.157-4.78-0.006c0.274-3.597,7.52-3.137,9.592-2.382
			c1.81,0.659,4.469,1.994,4.733,4.138c0.264,2.137-2.571,5.454-4.672,5.8c-0.701,0.174,1.371-4.856,1.328-4.97
			C225.307,260.728,220.79,259.616,219.643,259.558z"/>
		<path style="fill:#231815;" d="M228.569,269.922c0.763-1.947-0.901-2.395-0.362-4.238c0.708-2.424,2.949-0.039,3.447,1.515
			c0.869,2.71-1.255,6.217-3.196,8.092c-2.366,2.286-5.854,3.511-9.115,3.238c-1.193-0.1-6.852-3.228-6.334-3.405
			c2.158-0.738,5.745,0.505,8.296-0.195C224.225,274.128,227.011,272.624,228.569,269.922z"/>
		<path style="fill:#231815;" d="M154.926,230.338c-5.446,10.546-15.008,20.205-14.353,32.959c0.318,6.205,3.699,8.843,9.754,8.673
			c4.373-0.122,10.19-0.444,14.313-1.678c-0.045,0.013-0.464-0.088-0.329-0.129c3.5-0.93,7.421,0.321,10.245,2.382
			c-4.328-15.209-31.374,7.755-31.561-10.116c-0.074-7.074,4.43-12.966,7.651-18.91c1.735-3.203,10.456-15.618,8.181-19.146
			C158.325,223.598,155.009,230.174,154.926,230.338z"/>
		<path style="fill:#231815;" d="M169.048,276.138c-1.493-0.185-1.262-2.301-0.046-2.572c1.644-0.366,4.065,2.299,3.909,3.85
			C172.443,282.08,169.849,276.01,169.048,276.138z"/>
		<path style="fill:#231815;" d="M164.486,280.135c-4.165-0.567,0.047-4.8,3.765-0.839c1.635,1.742,0.577,6.334-1.117,4.452
			c-0.396-0.44,0.676-1.044-0.083-1.647C166.199,281.422,165.447,280.675,164.486,280.135z"/>
		<path style="fill:#231815;" d="M131.517,236.358c0.761,4.921-2.546,9.506-3.592,14.305c-1.165,5.348-2.614,11.795-1.854,17.274
			c0.797,5.741,3.785,10.357,8.694,13.355c2.005,1.224,4.344,2.29,6.642,2.842c2.954,0.711,5.412-0.363,1.963-2.842
			c-3.859-2.773-8.253-1.801-11.681-6.121c-3.191-4.021-4.464-9.928-3.949-14.97c0.469-4.589,1.62-11.26,4.717-14.855
			c2.167-2.515,5.534-2.886,4.519-6.826c-0.365-1.417-2.623-4.715-4.35-4.735C132.901,233.789,131.56,236.195,131.517,236.358z"/>
		<path style="fill:#231815;" d="M206.454,183.79c-1.832-2.22-3.912-4.287-5.652-6.577c-1.187-1.562-3.479-3.717-0.294-3.417
			c4.332,0.408,10.702,11.096,12.622,14.46c2.639,4.625,5.148,11.104,2.39,16.216c-1.511,2.801-4.338,4.513-6.982,6.092
			c-0.632,0.378-6.186,3.08-6.187,3.154c0.014-1.872,4.989-4.836,6.37-6.184c2.058-2.008,3.936-3.983,4.294-6.944
			C213.708,194.858,209.576,188.275,206.454,183.79z"/>
		<path style="fill:#231815;" d="M185.983,130.531c-10.261,10.286-11.22,26.598-15.244,39.911c-0.409,1.352-2.689,6.996,0.575,6.453
			c2.713-0.451,4.387-6.876,4.816-8.941c1.529-7.36,1.096-14.947,3.26-22.239c4.116-13.869,18.643-25.908,32.711-28.831
			c1.984-0.412,7.686-0.206,3.567-2.674c-2.948-1.766-7.901,0.924-10.443,2.218C198.218,119.996,191.62,125.084,185.983,130.531z"/>
		<path style="fill:#231815;" d="M216.372,124.714c2.791,4.352-1.095,10.994-3.433,14.825c-3.364,5.512-7.993,9.701-12.304,14.42
			c-4.125,4.515-7.193,8.996-8.86,14.915c-0.32,1.136-2.231,6.466-1.119,7.615c1.753,1.811,2.861-3.515,3.016-4.278
			c2.352-11.592,10.221-19.291,17.562-28.183c1.989-2.41,3.767-4.854,5.3-7.572c1.521-2.698,4.502-5.69,5.144-8.746
			C222.873,122.03,214.568,120.567,216.372,124.714z"/>
		<path style="fill:#231815;" d="M201.659,175.393c3.635-4.804,6.287-8.222,11.967-10.695c6.564-2.858,11.647-4.741,16.25-10.425
			c4.238-5.233,7.129-11.436,7.379-18.227c0.036-0.974-0.845-6.217,0.296-6.657c2.648-1.021,2.325,5.085,2.233,6.172
			c-0.992,11.789-7.864,21.547-18.163,26.991c-5.622,2.971-11.24,3.991-13.731,10.129c-1.02,2.514-1.061,5.505-4.575,6
			C200.412,179.09,200.845,175.526,201.659,175.393z"/>
		<path style="fill:#231815;" d="M221.783,136.106c-0.461,0.421-4.731,4.945-5.916,3.938c-1.847-1.568,5.155-6.583,6.018-7.282
			c1.123-0.91,18.086-10.978,18.324-5.705C240.236,126.255,222.944,135.278,221.783,136.106z"/>
		<path style="fill:#231815;" d="M171.01,176.6c1.824-3.781-2.126-1.949-3.246-0.101c-1.638,2.703-2.272,6-3.83,8.781
			c-1.799,3.213-4.131,6.156-6.406,9.04c-0.771,0.977-4.542,4.373-4.133,5.873c1.075,3.938,6.402-5.861,7.172-6.962
			C164.269,187.941,168.312,182.499,171.01,176.6z"/>
		<path style="fill:#231815;" d="M182.78,356.658c-1.727-1.483-0.377-2.994,1.731-0.871c1.215,1.223,2.606,4.542,0.76,5.867
			C184.854,361.952,182.956,357.067,182.78,356.658z"/>
		<path style="fill:#231815;" d="M188.828,355.394c-2.355-1.23,4.13-3.419,2.886,1.788
			C190.916,360.516,189.231,356.435,188.828,355.394z"/>
		<path style="fill:#231815;" d="M344.033,161.968c1.564-0.15,7.407-0.314,6.811-2.535c-0.578-2.153-10.526-0.413-11.83-0.158
			c-3.751,0.733-8.569,1.967-11.008,5.179c-3.27,4.308-0.417,8.125,3.781,10.021c4.25,1.92,9.209,2.478,13.646,3.872
			c5.849,1.838,11.578,4.052,17.208,6.474c9.447,4.064,18.378,8.672,26.345,15.254c1.625,1.342,6.82,6.845,6.791,3.131
			c-0.021-2.587-6.126-6.539-7.992-7.858c-7.373-5.214-16.124-8.742-24.388-12.315c-8.657-3.743-17.557-6.26-26.536-9.036
			c-3.502-1.083-9.744-3.038-6.711-7.64C332.541,162.726,340.302,162.358,344.033,161.968z"/>
		<path style="fill:#231815;" d="M354.786,152.328c-0.562,0.799-4.029,6.589-5.047,4.002c-0.794-2.017,4.938-7.934,6.642-8.791
			c3.049-1.533,6.198-0.521,8.053,2.301c0.797,1.213,3.611,7.154,3.454,8.368c0.008,0.649-5.937-6.956-6.219-7.182
			C359.078,148.954,356.938,150.051,354.786,152.328z"/>
		<path style="fill:#231815;" d="M381.068,162.58c-2.883,2.203,0.143,3.283,2.33,2.435c2.681-1.04,4.679-4.185,7.198-5.649
			c3.321-1.931,8.066-2.947,11.156-0.005c1.567,1.492,1.877,6.489,3.473,7.226c2.725,1.259,1.813-3.302,1.304-4.532
			c-1.119-2.706-4.168-5.317-6.971-6.119C393.264,154.136,385.956,159.08,381.068,162.58z"/>
		<path style="fill:#231815;" d="M354.709,221.909c0.918,1.571,7.482,5.345,5.879,6.13c-3.829,1.874-8.04-4.695-8.973-7.353
			c-1.588-4.521-0.851-9.529-0.362-14.175c0.249-2.367,0.777-4.867,0.635-7.257c-0.093-1.566-1.41-3.36-1.418-4.66
			c0.006,0.113,2.749,3.095,3.077,4.173c0.762,2.502,0.719,5.315,0.608,7.899C353.945,211.606,352.63,217.192,354.709,221.909z"/>
		<path style="fill:#231815;" d="M355.529,196.349c-0.541-0.69-1.419-3.032,0.331-3.25c0.847-0.106,2.267,2.812,2.457,3.273
			c0.501,1.216,1.731,7.417-1.055,7.614C356.531,204.038,355.767,197.152,355.529,196.349z"/>
		<path style="fill:#231815;" d="M362.513,194.459c-0.96-0.939-2.884-2.807-1.059-3.907c1.004-0.606,3.945,3.583,4.313,4.247
			c0.447,0.807,1.914,10.96-0.526,10.001C364.051,204.333,363.441,196.036,362.513,194.459z"/>
		<path style="fill:#231815;" d="M374.626,201.343c-0.256-1.022-4.187-9.727-4.054-9.82c3.138-2.174,6.293,8.901,6.568,10.104
			c1.257,5.512,1.198,11.142,1.548,16.752c0.176,2.826,0.359,5.7,1.035,8.458c0.362,1.478,2.864,5.002,2.712,6.28
			c-0.103-0.801-4.089-4.513-4.72-5.974c-1.055-2.441-1.593-5.081-1.896-7.712C375.125,213.423,375.611,207.329,374.626,201.343z"/>
		<path style="fill:#231815;" d="M363.009,241.653c-0.487-1.697-4.002-12.249-1.856-13.823c1.334-0.979,1.48,1.101,1.868,2.46
			c1.092,3.827,1.46,7.86,2.585,11.71c2.051,7.016,4.489,14.114,7.669,20.702c1.41,2.922,2.975,5.92,5.043,8.441
			c1.062,1.295,2.299,2.641,3.769,3.489c1.064,0.614,3.054,0.642,3.824,1.389c0.075,0.063-4.133-0.252-4.373-0.343
			c-1.484-0.561-2.929-1.612-4.128-2.636c-2.898-2.473-5.06-5.785-6.809-9.129C366.986,256.998,364.719,249.24,363.009,241.653z"/>
		<path style="fill:#231815;" d="M339.805,179.916c-1.088-0.594-3.984-2.1-2.944-3.582c0.904-1.288,5.617,2.338,6.442,3.027
			c1.633,1.362,3.172,3.176,3.798,5.253c0.159,0.529,0.845,6.449-1.144,5.888c0.203,0.07-1.552-4.943-1.686-5.176
			C343.095,183.277,341.639,181.42,339.805,179.916z"/>
		<path style="fill:#231815;" d="M415.216,177c-0.965-0.8-6.254-4.177-5.962-5.903c0.417-2.464,9.914,6.257,10.859,7.249
			c3.338,3.504,6.161,7.729,8.015,12.207c0.22,0.532,2.139,7.225,1.762,7.144c-1.444-0.308-5.055-7.835-6.106-9.421
			C421.158,184.314,418.52,180.442,415.216,177z"/>
		<path style="fill:#231815;" d="M408.5,228.753c0.242-1.218,0.915-9.335,2.77-9.128c2.255,0.252-0.943,11.831-1.332,13.115
			c-1.379,4.551-3.807,8.739-7,12.262c-1.405,1.551-7.209,7.709-9.696,6.863c1.124,0.383,7.881-9.128,8.657-10.199
			C404.779,237.691,407.089,233.472,408.5,228.753z"/>
		<path style="fill:#231815;" d="M439.358,225.212c-3.471,0.397-7.397,0.732-7.917,4.497c-0.244,1.766,1.522,3.637,0.916,5.602
			c-0.428,1.387-1.067,0.932-1.604,1.944c-3.711,6.998-6.965,14.328-10.916,21.208c-4.108,7.152-10.691,12.651-18.392,15.601
			c-3.952,1.514-7.267,2.143-11.332,1.064c-0.551-0.146-11.45-3.945-9.064,0.695c1.317,2.56,10.034,2.65,12.112,2.548
			c3.441-0.169,6.679-1.189,9.842-2.542c7.672-3.283,14.085-8.64,18.489-15.713c3.815-6.129,6.958-12.714,10.853-18.782
			c0.869-1.354,2.043-2.502,2.877-3.877c1.307-2.155,0.936-3.301,1.686-5.426C437.692,229.811,440.975,227.795,439.358,225.212z"/>
		<path style="fill:#231815;" d="M318.996,206.866c0.165,1.7,1.195,6.688-0.198,8.335c-0.322,0.399-1.119-6.416-1.18-7.339
			c-0.24-3.615-0.591-7.216-0.019-10.821c0.474-2.986,1.332-6.284,3.909-8.16c2.902-2.113,4.318-0.165,6.796-0.788
			c-4.387,1.102-6.493,1.152-8.153,5.882C318.735,198.007,318.872,202.652,318.996,206.866z"/>
		<path style="fill:#231815;" d="M325.089,197.185c-0.045,0.475,0.01,3.012-0.646,3.537c-0.907,0.845-0.033-6.576,0.922-7.79
			c0.761-0.967,5.955-4.71,7.096-2.496C331.612,188.789,325.403,196.116,325.089,197.185z"/>
		<path style="fill:#231815;" d="M331.661,195.625c-0.416,4.604-2.43,1.688-1.132-1.566c0.535-1.342,5.488-6.424,6.786-3.624
			C336.896,189.529,331.941,194.734,331.661,195.625z"/>
		<path style="fill:#231815;" d="M336.293,195.449c-1.143,0.506-6.215,3.379-7.636,2.385c-1.785-1.248,7.91-4.926,8.845-5.328
			c1.141-0.49,20.872-8.334,21.398-6.541C359.487,187.97,338.08,194.845,336.293,195.449z"/>
		<path style="fill:#231815;" d="M333.297,200.957c-0.887-0.335-4.658-1.553-4.752-3.019c-0.137-2.131,6.094,1.169,6.464,1.32
			c1.59,0.651,13.793,7.071,14.812,6.318C345.776,208.568,336.617,202.767,333.297,200.957z"/>
		<path style="fill:#231815;" d="M327.809,207.901c-1.529-1.755,0.299-9.175,2.823-7.646c1.509,0.915-1.197,3.019-1.357,4.051
			c-0.295,1.898,0.366,2.271,1.719,3.416c0.986,0.834,20.036,8.167,19.293,9.667c-0.281,0.567-10.177-2.687-10.924-2.952
			C335.447,213.05,330.385,211.377,327.809,207.901z"/>
		<path style="fill:#231815;" d="M334.637,206.024c-0.845-0.27-5.266-1.577-4.223-3.016c0.947-1.307,6.362,1.371,7.629,1.861
			c1.227,0.475,11.279,6.526,11.433,6.458C345.771,212.978,337.684,207.55,334.637,206.024z"/>
		<path style="fill:#231815;" d="M388.932,170.631c-4.243,2.13-3.657-1.942,0.548-2.665c1.756-0.302,3.553-0.344,5.088,0.814
			c0.665,0.502,3.274,3.779,1.48,4.619C395.986,173.428,390.613,170.393,388.932,170.631z"/>
		<path style="fill:#231815;" d="M355.336,160.007c-2.478,1.005-3.218-0.76-1.452-2.091c0.81-0.611,2.986-0.827,4.009-0.69
			c1.803,0.242,2.208,0.184,2.549,2.022c0.155,0.836-0.392,3.56-1.541,3.562C357.328,162.812,358.732,159.212,355.336,160.007z"/>
		<path style="fill:#231815;" d="M313.68,233.411c0.344-0.862,6.976-16.074,6.832-16.271c2.483,3.418-3.486,14.309-4.747,17.507
			c-2.226,5.646-5.11,11.539-5.497,17.693c-0.329,5.228,1.555,10.109,7.243,10.809c3.003,0.37,6.122-0.604,8.818-1.854
			c1.73-0.802,4.267-3.542,6.15-3.738c-0.425,0.109-3.155,3.365-3.683,3.77c-2.041,1.561-4.363,2.922-6.833,3.675
			c-4.912,1.497-10.448,0.552-13.16-4.189C303.92,252.276,310.176,241.271,313.68,233.411z"/>
		<path style="fill:#231815;" d="M338.18,239.125c2.513-4.695,4.404-9.788,4.88-15.12c0.029-0.322,0.438-6.423,0.836-6.047
			c4.364,4.124-0.233,15.134-2.173,19.356c-3.411,7.425-7.425,14.364-9.135,22.454c-1.68,7.948-2.223,17.503-0.404,25.472
			c0.763,3.343,2.192,6.243,4.278,8.96c1.603,2.088,5.78,5.063,6.32,7.691c-0.128-0.789-3.73-3.148-4.489-3.853
			c-2.292-2.129-4.596-4.28-6.233-6.978c-3.357-5.533-3.769-12.436-3.708-18.745C328.468,260.015,332.33,249.792,338.18,239.125z"/>
		<path style="fill:#231815;" d="M304.016,296.211c3.896-3.856,8.293-7.404,13.211-9.88c1.852-0.933,3.82-1.826,5.847-2.291
			c0.219-0.05,4.724-0.341,4.272,0.113c-2.302,2.314-7.408,3.302-10.315,4.975c-4.105,2.362-7.87,5.339-11.224,8.676
			c-5.425,5.396-11.479,12.915-11.342,20.991c0.184,10.847,10.174,13.932,19.359,13.954c4.547,0.011,9.077-0.551,13.534-1.426
			c3.11-0.611,7.723-2.978,10.832-2.681c-1.323-0.008-4.567,2.193-6.135,2.738c-3.63,1.263-7.343,2.298-11.121,3.007
			c-7.458,1.399-16.443,1.951-23.009-2.593C284.037,322.184,295.134,304.593,304.016,296.211z"/>
		<path style="fill:#231815;" d="M373.017,351.018c-10.68,2.339-24.437,2.628-32.442-6.153c-8.446-9.264-4.175-19.211,4.28-26.331
			c4.676-3.938,10.658-7.323,14.282-12.332c1.75-2.419,2.024-9.974-2.009-6.717c0.11-0.089-1.008,2.718-1.357,3.151
			c-1.611,1.997-4.634,3.614-6.629,5.231c-4.18,3.39-7.996,7.135-11.238,11.443c-7.676,10.2-6.836,22.64,4.02,30.298
			c9.714,6.852,23.212,5.739,34.155,3.075c12.286-2.991,22.075-10.006,31.855-17.721c2.226-1.756,23.341-16.742,21.344-19.831
			c-1.817-2.811-20.555,15.321-22.625,17.08C396.549,340.796,386.177,348.131,373.017,351.018z"/>
		<path style="fill:#231815;" d="M60.168,314.004c2.283-2.688,32.783-38.471,32.168-38.929
			c-1.575-1.174-14.876,13.803-15.795,14.777c-14.707,15.587-28.437,32.1-42.058,48.633c-6.887,8.359-13.7,16.777-20.531,25.181
			c-3.407,4.192-6.646,8.702-10.341,12.646c-2.165,2.311-5.307,4.456-2.501,7.82c2.566,3.077,8.996,3.357,12.539,3.778
			c5.851,0.696,11.758,0.918,17.644,1.086c11.146,0.318,22.299,0.235,33.448,0.3c47.463,0.277,94.614,7.039,142.148,7.039
			c48.668,0,97.293,1.382,145.955,1.89c25.125,0.262,50.264,0.246,75.377-0.655c11.479-0.411,22.968-0.989,34.402-2.112
			c2.738-0.269,27.774-2.049,28.001-4.655c-0.026,0.296-42.903,2.332-46.51,2.51c-16.654,0.824-33.322,1.337-49.993,1.669
			c-37.104,0.738-74.201,0.502-111.304-0.095c-39.167-0.631-78.421,0.329-117.551-1.526c-22.314-1.058-44.567-2.911-66.815-4.895
			c-22.045-1.965-44.185-1.373-66.28-2.308c-3.315-0.14-28.307-0.04-28.791-4.477c-0.152-1.391,8.269-9.585,9.005-10.465
			C28.315,352.147,44.026,332.897,60.168,314.004z"/>
		<path style="fill:#231815;" d="M507.173,374.258c0.038,1.236,0.094,11.783,2.434,11.91c2.102,0.115,2.129-6.333,2.201-7.46
			c0.864-13.512-1.373-27.391-3.214-40.736c-1.858-13.468-2.847-27.489-6.785-40.542c-3.868-12.818-9.636-24.833-10.029-38.451
			c-0.116-4.04,0.449-3.662-3.192-4.554c-6.045-1.482-12.222-2.13-18.432-2.401c-5.453-0.238-11.316-0.662-16.72,0.267
			c-3.224,0.554-5.477,1.564-1.402,2.95c4.529,1.541,10.316,0.928,15.054,0.953c3.393,0.018,6.789,0.014,10.18,0.143
			c2.712,0.103,7.982-0.481,10.37,1.052c1.896,1.217,1.212,2.461,1.488,5.34c0.681,7.083,2.561,13.889,4.872,20.597
			c4.934,14.319,8.401,27.581,9.966,42.7C505.623,342.05,506.711,358.154,507.173,374.258z"/>
		<path style="fill:#231815;" d="M444.533,233.839c-0.46-1.826-8.371-22.498-7.559-22.985c3.925-2.356,9.915,17.685,10.423,19.566
			c2.579,9.555,3.775,19.455,2.628,29.318c-1.077,9.264-4.152,17.079-8.189,25.374c-2.016,4.141-6.865,16.956-12.734,17.161
			c0.439-0.003,3.264-4.411,3.684-5.06c1.751-2.703,2.989-5.669,4.072-8.69c1.993-5.564,4.395-11.081,6.066-16.745
			C446.576,259.401,446.867,246.488,444.533,233.839z"/>
		<path style="fill:#231815;" d="M227.681,197.141c-1.642,0.502-5.399,2.315-7.207,1.68c-0.472-0.145,4.966-2.35,5.709-2.565
			c3.228-0.935,6.425-1.758,9.764-2.196c2.417-0.317,11.906-1.967,13.978,0.156c-0.819-0.839-8.97,0.89-10.378,1.05
			C235.553,195.717,231.602,196.231,227.681,197.141z"/>
		<path style="fill:#231815;" d="M227.835,203.014c-1.921,0.099-6.484,1.114-8.4,0.023c-0.097-0.048,6.269-1.213,7.442-1.26
			c3.84-0.152,7.617-0.091,11.438,0.336c0.745,0.083,15.211,2.509,15.004,3.127C253.047,206.053,229.808,203.03,227.835,203.014z"/>
		<path style="fill:#231815;" d="M225.873,208.288c-0.312-0.063-8.055-2.135-7.547-2.607c1.828-1.697,13.239,2.598,15.374,3.248
			c0.818,0.249,15.484,6.139,14.593,7.291C248.195,216.346,227.83,208.812,225.873,208.288z"/>
		<path style="fill:#231815;" d="M194.209,190.87c-2.525,1.511-3.089-0.791-0.152-1.868c1.498-0.549,6.449,0.338,6.339,2.646
			C200.367,192.265,194.748,190.931,194.209,190.87z"/>
		<path style="fill:#231815;" d="M209.948,201.224c-1.274,0.45-1.906-0.646-0.495-1.208c1.299-0.518,3.875-0.132,4.044,1.636
			C213.548,202.135,210.363,201.278,209.948,201.224z"/>
		<path style="fill:#231815;" d="M190.439,203.415c2.537-1.299,1.614,0.354,0.202,1.318c-0.774,0.529-5.052,1.992-5.297,0.408
			C185.281,204.734,190.037,203.514,190.439,203.415z"/>
		<path style="fill:#231815;" d="M182.714,202.046c3.32-1.025,2.007,1.052-0.837,1.564c-0.711,0.128-5.923,1.074-5.657-0.814
			C176.238,202.675,182.091,202.125,182.714,202.046z"/>
		<path style="fill:#231815;" d="M171.71,200.465c2.256-1.057,2.014,0.816-0.562,1.519c-0.586,0.16-5.084,0.335-4.33-1.267
			C166.881,200.582,171.317,200.507,171.71,200.465z"/>
		<path style="fill:#231815;" d="M190.19,131.496c1.021-0.306,6.13-3.338,6.944-2.473c0.528,0.561-1.04,5.836-0.681,5.846
			c1.97,0.05,3.663-4.599,5.594-3.223c0.589,0.42,0.893,3.126,1.11,3.885c0.26-0.108,5.087-3.124,4.61-3.17
			c2.281,0.221-0.329,5.77-0.279,5.777c0.99,0.16,2.554-1.955,3.511-1.257c0.824,0.602-0.393,2.631,0.397,3.04
			c1.191,0.617,3.848-5.197,4.043-5.593c1.243-2.518,8.315-17.362,4.719-19.546c-0.808-0.491-5.039,0.762-6.117,0.948
			c-4.082,0.703-8.239,1.68-11.91,3.666c-3.796,2.053-7.31,5.132-10.485,8.014C190.676,128.291,185.776,132.821,190.19,131.496z"/>
		<path style="fill:#231815;" d="M219.938,137.182c2.679-1.116,0.713,0.321,1.646,0.982c-0.063,0.595,0.122,1.103,0.557,1.523
			c0.829,0.417,1.681,0.782,2.556,1.093c0.728,0.387,1.078,1.794,1.937,1.723c1.314-0.108,2.123-2.36,3.184-2.405
			c0.499-0.021,2.4,4.639,2.369,5.478c-0.043,1.156-2.063,1.756-1.492,3.236c0.324,0.841,1.992-0.513,2.27-0.164
			c0.428,0.538-1.011,4.107,0.467,3.628c1.066-0.345,1.864-4.292,2.166-5.237c1.961-6.138,2.931-12.408,3.482-18.807
			c0.451-5.24-1.478-2.571-5.155-0.479C229.012,130.551,224.334,133.617,219.938,137.182z"/>
		<path style="fill:#231815;" d="M374.666,158.957c-0.979-0.105-4.354-0.51-3.286-2.422c0.608-1.088,4.73,0.206,5.474,0.412
			c1.908,0.529,8.591,2.649,8.981,4.791C386.126,163.342,375.39,159.243,374.666,158.957z"/>
		<path style="fill:#231815;" d="M384.055,238.039c-0.402-0.591-3.009-4.609-1.081-5.275c1.385-0.478,3.203,4.139,3.586,4.729
			c0.745,1.149,8.046,11.638,8.583,11.586C390.422,249.539,385.529,241.307,384.055,238.039z"/>
		<path style="fill:#231815;" d="M442.519,306.42c-0.789,0.628-7.737,7.794-8.939,7.217c-2.775-1.332,8.281-9.767,9.733-10.81
			c4.661-3.347,9.809-5.972,15.18-7.978c2.657-0.992,13.305-5.184,15.936-2.942c-1.424-1.213-14.692,5.571-16.785,6.473
			C452.395,300.646,447.252,303.192,442.519,306.42z"/>
		<path style="fill:#231815;" d="M449.825,293.091c-1.278,0.776-4.606,3.255-6.079,2.001c-1.303-1.109,5.892-4.669,6.723-5.088
			c2.958-1.494,6.087-2.422,9.346-3.018c0.798-0.146,7.93-0.441,7.932-0.443c-1.195,1.7-6.496,2.953-8.312,3.499
			C456.195,291.015,452.939,291.736,449.825,293.091z"/>
		<path style="fill:#231815;" d="M450.999,286.263c-1.044,0.678-4.398,3.082-5.6,1.652c-1.084-1.291,5.036-4.151,5.949-4.677
			c2.558-1.472,5.229-2.785,8.106-3.526c0.72-0.186,7.612-0.351,7.287-0.004c-1.415,1.513-6.016,2.533-8.011,3.351
			C456.146,284.118,453.545,285.115,450.999,286.263z"/>
		<path style="fill:#231815;" d="M445.589,282.354c-0.732,0.511-3.914,2.199-3.922-0.12c-0.003-1.048,3.426-2.475,4.101-2.805
			c1.487-0.727,9.204-3.612,9.626-0.386C455.462,279.561,446.515,282.005,445.589,282.354z"/>
		<path style="fill:#231815;" d="M374.955,195.548c-2.004,1.975-3.535-0.493-0.154-2.427c0.652-0.373,6.575-2.088,5.657,0.391
			C380.233,194.117,375.74,195.254,374.955,195.548z"/>
		<path style="fill:#231815;" d="M378.512,204.902c-2.206,2.715-3.79,0.025-0.19-2.48c0.958-0.667,5.035-3.072,6.283-2.059
			C385.825,201.35,379.064,204.601,378.512,204.902z"/>
		<path style="fill:#231815;" d="M377.63,200.971c-0.594,0.864-1.666,1.388-2.429,0.505c-0.708-0.819,0.825-1.674,1.173-2.202
			c0.99-1.496,3.595-4.045,5.621-2.913C382.731,196.773,378.093,200.605,377.63,200.971z"/>
		<path style="fill:#231815;" d="M352.065,175.188c-2.882-1.729-1.729-6.916,0.577-4.611
			C354.947,172.883,352.065,175.188,352.065,175.188z"/>
		<path style="fill:#231815;" d="M364.554,180.568c-4.035-0.577-1.153-5.187,2.306-4.611
			C370.318,176.534,364.554,180.568,364.554,180.568z"/>
		<path style="fill:#231815;" d="M388.73,323.492c-0.961,0.453-8.914,5.275-9.447,4.841c-3.176-2.583,9.767-8.073,10.648-8.521
			c5.06-2.574,10.184-4.752,15.496-6.769c2.165-0.822,10.324-5.325,12.49-4.468c-0.241-0.095-10.852,7.36-12.569,8.131
			C399.933,319.141,394.303,321.444,388.73,323.492z"/>
		<path style="fill:#231815;" d="M335.735,221.258c-0.623,0.371-2.967,1.211-3.35-0.17c-0.471-1.696,1.658-1.61,2.64-2.257
			c1.286-0.847,4.377-5.539,5.98-5.465c1.143,0.052-0.935,4.786-1.101,5.021C338.941,219.743,337.284,220.73,335.735,221.258z"/>
		<path style="fill:#231815;" d="M334.836,226.692c-0.067-0.826-0.062-3.079,1.217-3.35c2.002-0.425,1.177,2.97,1.218,3.971
			c0.064,1.565,0.865,8.757-0.946,9.876C334.612,238.246,334.694,227.524,334.836,226.692z"/>
		<path style="fill:#231815;" d="M339.912,228.589c-1.014,1.49-2.881,0.607-2.559-0.918c0.199-0.945,2.841-2.912,3.79-3.226
			C346.324,222.736,342.383,227.534,339.912,228.589z"/>
		<path style="fill:#231815;" d="M417.624,216.758c4.076,1,10.85,3.809,10.28,9.208c-0.45,4.255-5.508,3.958-8.743,3.809
			c-4.283-0.197-7.271-0.187-8-4.926c-0.339-2.203-0.611-5.188,0.896-6.977C412.809,216.979,416.779,214.782,417.624,216.758z"/>
		<path style="fill:#231815;" d="M409.171,236.738c5.729,0.456,10.864,12.935,2.623,12.257c-1.667-0.137-7.591-1.856-8.327-3.496
			C402.416,243.157,407.141,237.548,409.171,236.738z"/>
		<path style="fill:#231815;" d="M443.753,239.043c-1.86,2.256-5.861,5.16-5.275,8.429c0.304,1.695,3.64,5.355,5.293,5.515
			C448.386,253.432,448.384,239.74,443.753,239.043z"/>
		<path style="fill:#231815;" d="M421.467,195.625c-3.44-4.518-4.021,2.523-2.605,5.005c1.149,2.013,3.664,4.354,5.222,6.132
			c0.965,1.102,2.014,3.222,3.909,2.391C432.773,207.056,426.372,194.922,421.467,195.625z"/>
		<path style="fill:#231815;" d="M434.146,285.535c-3.634-3.879-2.387-8.448-0.024-12.534c1.033-1.786,4.195-8.144,6.737-5.123
			c2.801,3.329-4.189,15.801-7.039,17.84C433.686,285.087,433.795,285.026,434.146,285.535z"/>
		<path style="fill:#231815;" d="M315.751,292.199c4.69,1.172,4.786,6.989,8.895,8.789c5.411,2.371,5.168-3.464,4.067-6.779
			c-1.236-3.721-1.795-7.37-6.415-7.722c-2.149-0.163-4.612,0.473-6.081,2.162C315.587,289.375,313.956,291.75,315.751,292.199z"/>
		<path style="fill:#231815;" d="M308.835,296.234c3.726,1.242,9.709,7.274,9.051,11.763c-0.611,4.174-6.921-1.922-9.734-2.721
			c-2.566-0.729-9.578-0.424-7.324-4.706C302.013,298.321,306.58,297.011,308.835,296.234z"/>
		<path style="fill:#231815;" d="M361.287,306.033c3.689,0.53,8.477,1.675,10.881,4.76c1.19,1.528,2.969,5.683,0.463,6.936
			c-1.777,0.888-4.001-1.405-5.47-2.007c-3.286-1.346-15.177,0.825-16.417-3.123C349.517,308.689,358.322,305.044,361.287,306.033z"
			/>
		<path style="fill:#231815;" d="M346.877,318.714c4.902,0.547,9.048,2.441,12.681,5.765c3.847,3.52,6.375,7.651-0.685,6.556
			c-4.476-0.694-10.187-1.867-14.379-3.575C338.424,324.987,340.521,318.008,346.877,318.714z"/>
		<path style="fill:#231815;" d="M396.311,198.186c-3.598-2.214-0.56,1.747,0.395,2.596c1.838,1.634,3.202,3.283,4.033,5.629
			c0.338,0.953,1.509,4.709,0.977,5.641c-1.179,2.067-6.317,0.027-7.65,0.685c-2.221,1.096,0.136,2.031,2.457,1.93
			c1.159-0.051,5.333-0.829,6.004-1.625C405.31,209.738,399.424,200.02,396.311,198.186z"/>
		<path style="fill:#231815;" d="M385.367,207.505c0.623-0.355,3.315-1.819,4.058-0.687c1.151,1.756-2.601,2.68-3.649,3.178
			c-1.941,0.921-8.694,5.322-10.82,4.219C373.31,213.363,384.483,207.789,385.367,207.505z"/>
		<path style="fill:#231815;" d="M228.961,308.19c-1.173-0.42-6.181-2.285-6.079,0.323c0.089,2.269,6.069,3.875,7.545,4.339
			c6.67,2.097,14.816,3.073,21.796,3.391c8.452,0.385,15.444-4.128,22.47-8.211c5.045-2.932,15.463-6.283,14.762-13.658
			c-1.227,0.124-3.409,1.078-1.243,2.321c-0.156-0.506-0.563-0.994-0.795-1.471c-7.115,6.606-15.697,13.202-24.685,17.06
			C252.16,316.823,239.213,311.931,228.961,308.19z"/>
		<path style="fill:#231815;" d="M218.781,301.69c-0.259,0.564,2.382,1.472,2.896,1.29c2.034-0.719,0.661-1.855,0.571-3.044
			c-0.093-1.228-1.113-1.959-1.106-3.484c0-0.05,0.987-2.753,1.025-2.639c-1.124-3.363-3.044-1.912-3.44,0.348
			C218.29,296.656,220.161,298.87,218.781,301.69z"/>
		<path style="fill:#231815;" d="M232.333,293.314c-2.029-0.906-9.687-3.107-6.232,0.929c1.913,2.235,6.581,3.511,9.176,4.194
			c7.343,1.935,15.428,3.875,22.568,0.435c3.679-1.773,7.134-4.056,10.771-5.928c3.495-1.8,9.385-3.715,11.834-7.057
			c5.407-7.382-14.74-10.209-18.56-10.884c-1.208-0.213-7.452-1.86-7.952,0.355c-0.413,1.831,7.344,3.125,8.252,3.306
			c3.071,0.611,18.703,1.207,16.513,6.072c-1.043,2.316-7.104,4.462-9.176,5.566c-3.073,1.638-6.108,3.349-9.181,4.984
			C251.46,300.015,241.264,297.191,232.333,293.314z"/>
		<path style="fill:#231815;" d="M227.028,285.543c4.394-2.03,8.995-3.557,13.222-5.934c3.299-1.855,8.249-5.725,12.358-4.693
			c-0.968-0.243-5.025,2.948-5.759,3.389c-3.427,2.056-6.796,4.517-10.471,6.135c-1.616,0.712-13.558,5.714-13.58,5.681
			C222.217,289.229,226.369,286.076,227.028,285.543z"/>
		<path style="fill:#231815;" d="M288.199,285.664c0.097-0.67-3.919-1.85-3.624,1.609c0.148,1.734,1.227,2.506,1.094,4.63
			c-0.055,0.884-1.114,3.002-0.471,3.659c1.098,1.121,3.044,0.022,3.422-1.11c0.125-0.374-0.793-2.275-0.899-2.94
			C287.396,289.462,287.915,287.658,288.199,285.664z"/>
		<path style="fill:#231815;" d="M252.646,281.322c-1.457-0.162-2.056,1.497-1.63,2.642c0.701,1.886,3.005,1.349,4.494,1.306
			c2.622-0.075,4.451-0.361,7.114,0.276c1.656,0.396,5.602,2.623,7.257,2.133c1.366-0.404,2.433-1.236,1.306-2.811
			c-1.13-1.579-3.371-0.578-4.891-0.648C261.671,284.01,257.209,281.953,252.646,281.322z"/>
		<path style="fill:#231815;" d="M249.766,286.451c-1.539-0.735-2.292,1.897-1.951,2.872c0.71,2.035,3.513,1.192,4.954,1.239
			c2.42,0.08,4.335,0.252,6.687,1.023c0.987,0.323,3.758,1.998,4.777,1.603c1.04-0.403,1.699-1.359,1.13-2.586
			c-0.838-1.81-2.948-0.764-4.358-0.945C257.052,289.147,253.4,288.094,249.766,286.451z"/>
		<path style="fill:#231815;" d="M238.504,289.532c-1.255-0.491-2.426,0.969-2.297,2.13c0.23,2.055,3.09,2.177,4.603,2.289
			c2.68,0.197,4.94,0.032,7.608,0.784c1.737,0.49,6.281,3.143,7.927,2.621c1.509-0.478,1.835-1.591,0.876-2.918
			c-1.087-1.506-3.915-0.743-5.474-0.941C247.156,292.912,242.79,291.172,238.504,289.532z"/>
		<path style="fill:#231815;" d="M212.2,337.831c-0.407-6.343-4.258-2.939-3.757,1.832c0.417,3.976,2.884,9.7,6.766,11.182
			c4.486,1.714,12.459,1.211,16.305-1.77c3.311-2.566,6.485-10.519,5.051-14.83c-1.675-5.039-3.342,0.675-3.609,3.162
			c-0.455,4.234,0.136,8.667-4.183,10.97c-2.88,1.536-10.206,2.264-12.952,0.313C213.146,346.79,212.397,340.78,212.2,337.831z"/>
		<path style="fill:#231815;" d="M211.336,336.343c2.139,0.745,5.549,0.278,3.721-2.436c-0.478-0.71-4.06-1.33-4.191-2.219
			c-0.482-3.279,9.912-4.057,11.406-4.064c1.943-0.009,10.892,0.293,8.666,3.965c-1.582,2.609-13.097,0.925-11.221,4.501
			c2.752,5.248,21.841-4.533,10.391-9.297c-4.884-2.032-12.672-1.524-17.532,0.026C207.061,328.578,205.049,333.992,211.336,336.343
			z"/>
		<path style="fill:#231815;" d="M281.009,349.593c5.484-3.435,24.986-5.271,26.445,4.241c1.19,7.758-15.765,8.43-19.949,5.181
			c1.5,1.164,11.341-0.727,13.336-1.27c6.463-1.759,3.613-6.295-1.803-7.4c-3.793-0.774-9.021-0.844-12.784,0.021
			c-1.807,0.415-5.613,1.516-6.114,3.676c-0.535,2.308,1.317,2.177,2.212,3.758c-0.332-0.587-3.472-0.22-4.159-2.425
			C277.528,353.239,279.512,350.833,281.009,349.593z"/>
		<path style="fill:#231815;" d="M281.672,361.936c-0.888-3.828-4.017-1.307-4.121,1.496c-0.109,2.937,2.024,6.837,3.832,9.089
			c3.122,3.889,13.798,6.797,18.423,4.41c2.631-1.358,2.385-2.823-0.275-3.652c-2.355-0.734-5.343,1.138-7.738,1.213
			C282.483,374.782,283.318,369.092,281.672,361.936z"/>
		<path style="fill:#231815;" d="M307.726,360.585c-0.121-1.398-2.999-0.53-3.54,0.09c-1.393,1.595-0.074,1.369,0.054,2.723
			c0.147,1.558,0.797,2.218,0.347,3.943c-0.268,1.027-2.209,3.044-1.841,4.068c0.322,0.896,1.681,1.337,2.607,1.063
			c1.817-0.538,0.749-1.161,1.12-2.562C307.17,367.285,307.933,363.267,307.726,360.585z"/>
		<path style="fill:#231815;" d="M220.827,246.458c-1.625-0.087-7.277-0.367-7.059,2.135c0.162,1.857,8.588,1.902,9.616,1.964
			c7.864,0.472,15.733-0.019,23.602-0.03c10.638-0.014,21.29,0.41,31.919,0.825c4.664,0.182,9.327,0.386,13.992,0.561
			c2.143,0.08,6.461,0.914,8.506-0.26c3.769-2.163-1.347-2.737-3.801-3.019c-7.293-0.84-14.679,0.39-21.99,0.439
			C257.251,249.195,239.129,247.387,220.827,246.458z"/>
	</g>
</g>
</svg>
